<?xml version="1.0" encoding="UTF-8" standalone="no"?>
<!-- Created with Inkscape (http://www.inkscape.org/) -->

<svg
   xmlns:dc="http://purl.org/dc/elements/1.1/"
   xmlns:cc="http://creativecommons.org/ns#"
   xmlns:rdf="http://www.w3.org/1999/02/22-rdf-syntax-ns#"
   xmlns:svg="http://www.w3.org/2000/svg"
   xmlns="http://www.w3.org/2000/svg"
   xmlns:sodipodi="http://sodipodi.sourceforge.net/DTD/sodipodi-0.dtd"
   xmlns:inkscape="http://www.inkscape.org/namespaces/inkscape"
   width="205.67194mm"
   height="203.20006mm"
   viewBox="0 0 205.67194 203.20006"
   version="1.1"
   id="svg1135"
   inkscape:version="0.92.3 (2405546, 2018-03-11)"
   sodipodi:docname="builders-of-the-portcullis-of-unser-hafen.svg"
   inkscape:export-filename="/home/swarren/git_wa/sca-devices-badges/outlands/awards/unser-hafen/guardians-of-the-portcullis-of-unser-hafen.png"
   inkscape:export-xdpi="18.52"
   inkscape:export-ydpi="18.52">
  <defs
     id="defs1129">
    <clipPath
       clipPathUnits="userSpaceOnUse"
       id="clipPath1060">
      <circle
         style="opacity:1;vector-effect:none;fill:none;fill-opacity:1;fill-rule:nonzero;stroke:#000000;stroke-width:0.99999994;stroke-linecap:round;stroke-linejoin:bevel;stroke-miterlimit:4;stroke-dasharray:none;stroke-dashoffset:0;stroke-opacity:1"
         id="circle1062"
         cx="-244.68457"
         cy="327.80801"
         r="53.787991" />
    </clipPath>
    <clipPath
       clipPathUnits="userSpaceOnUse"
       id="clipPath1064">
      <circle
         r="53.787991"
         cy="327.80801"
         cx="-244.68457"
         id="circle1066"
         style="opacity:1;vector-effect:none;fill:none;fill-opacity:1;fill-rule:nonzero;stroke:#000000;stroke-width:0.99999994;stroke-linecap:round;stroke-linejoin:bevel;stroke-miterlimit:4;stroke-dasharray:none;stroke-dashoffset:0;stroke-opacity:1" />
    </clipPath>
    <clipPath
       clipPathUnits="userSpaceOnUse"
       id="clipPath1068">
      <circle
         style="opacity:1;vector-effect:none;fill:none;fill-opacity:1;fill-rule:nonzero;stroke:#000000;stroke-width:0.99999994;stroke-linecap:round;stroke-linejoin:bevel;stroke-miterlimit:4;stroke-dasharray:none;stroke-dashoffset:0;stroke-opacity:1"
         id="circle1070"
         cx="-244.68457"
         cy="327.80801"
         r="53.787991" />
    </clipPath>
    <clipPath
       clipPathUnits="userSpaceOnUse"
       id="clipPath1072">
      <circle
         r="53.787991"
         cy="327.80801"
         cx="-244.68457"
         id="circle1074"
         style="opacity:1;vector-effect:none;fill:none;fill-opacity:1;fill-rule:nonzero;stroke:#000000;stroke-width:0.99999994;stroke-linecap:round;stroke-linejoin:bevel;stroke-miterlimit:4;stroke-dasharray:none;stroke-dashoffset:0;stroke-opacity:1" />
    </clipPath>
    <clipPath
       id="artboard_clip_path">
      <path
         id="path1058"
         d="M 76.5 63 L 149.67036 63 L 149.67036 405 L 76.5 405 Z" />
    </clipPath>
    <clipPath
       clipPathUnits="userSpaceOnUse"
       id="clipPath1181">
      <ellipse
         style="opacity:1;vector-effect:none;fill:#e0d000;fill-opacity:1;fill-rule:nonzero;stroke:#000000;stroke-width:0.49999997;stroke-linecap:round;stroke-linejoin:bevel;stroke-miterlimit:4;stroke-dasharray:none;stroke-dashoffset:0;stroke-opacity:1"
         id="ellipse1183"
         cx="-194.29572"
         cy="197.06912"
         rx="39.781994"
         ry="10.488839" />
    </clipPath>
  </defs>
  <sodipodi:namedview
     id="base"
     pagecolor="#ffffff"
     bordercolor="#666666"
     borderopacity="1.0"
     inkscape:pageopacity="0.0"
     inkscape:pageshadow="2"
     inkscape:zoom="1.4"
     inkscape:cx="91.552802"
     inkscape:cy="425.05165"
     inkscape:document-units="mm"
     inkscape:current-layer="layer1"
     showgrid="false"
     inkscape:window-width="3840"
     inkscape:window-height="2090"
     inkscape:window-x="0"
     inkscape:window-y="41"
     inkscape:window-maximized="1"
     fit-margin-top="0"
     fit-margin-left="0"
     fit-margin-right="0"
     fit-margin-bottom="0"
     inkscape:object-paths="false"
     inkscape:snap-intersection-paths="false"
     inkscape:object-nodes="false" />
  <metadata
     id="metadata1132">
    <rdf:RDF>
      <cc:Work
         rdf:about="">
        <dc:format>image/svg+xml</dc:format>
        <dc:type
           rdf:resource="http://purl.org/dc/dcmitype/StillImage" />
        <dc:title />
      </cc:Work>
    </rdf:RDF>
  </metadata>
  <g
     inkscape:label="Layer 1"
     inkscape:groupmode="layer"
     id="layer1"
     transform="translate(0.17727383,-1.9766568)">
    <ellipse
       style="opacity:1;vector-effect:none;fill:#e0d000;fill-opacity:1;fill-rule:nonzero;stroke:none;stroke-width:0.5;stroke-linecap:round;stroke-linejoin:bevel;stroke-miterlimit:4;stroke-dasharray:none;stroke-dashoffset:0;stroke-opacity:1"
       id="ellipse1150"
       cx="-192.87831"
       cy="159.46049"
       rx="39.781994"
       ry="10.488839" />
    <ellipse
       ry="10.488839"
       rx="39.781994"
       cy="154.5468"
       cx="-192.87831"
       id="ellipse1154"
       style="opacity:1;vector-effect:none;fill:#e0d000;fill-opacity:1;fill-rule:nonzero;stroke:none;stroke-width:0.5;stroke-linecap:round;stroke-linejoin:bevel;stroke-miterlimit:4;stroke-dasharray:none;stroke-dashoffset:0;stroke-opacity:1" />
    <path
       style="fill:#e0d000;fill-rule:evenodd;stroke:none;stroke-width:0.26458332px;stroke-linecap:butt;stroke-linejoin:miter;stroke-opacity:1;fill-opacity:1"
       d="m -153.22861,159.46049 h -79.2994 v -4.91369 h 79.2994 v 4.91369"
       id="path1156"
       inkscape:connector-curvature="0" />
    <path
       style="fill:none;fill-rule:evenodd;stroke:#000000;stroke-width:0.26458332px;stroke-linecap:butt;stroke-linejoin:miter;stroke-opacity:1"
       d="m -232.52801,144.03906 v 24.82832"
       id="path1144"
       inkscape:connector-curvature="0" />
    <path
       inkscape:connector-curvature="0"
       id="path1152"
       d="M -142.67429,159.46049 H -247.84617"
       style="fill:none;fill-rule:evenodd;stroke:#000000;stroke-width:0.26458332px;stroke-linecap:butt;stroke-linejoin:miter;stroke-opacity:1" />
    <path
       style="fill:none;fill-rule:evenodd;stroke:#000000;stroke-width:0.26458332px;stroke-linecap:butt;stroke-linejoin:miter;stroke-opacity:1"
       d="M -142.20182,154.5468 H -247.3737"
       id="path1148"
       inkscape:connector-curvature="0" />
    <path
       inkscape:connector-curvature="0"
       id="path1146"
       d="m -153.22861,143.89732 v 24.82832"
       style="fill:none;fill-rule:evenodd;stroke:#000000;stroke-width:0.26458332px;stroke-linecap:butt;stroke-linejoin:miter;stroke-opacity:1" />
    <g
       id="g1189">
      <ellipse
         style="opacity:1;vector-effect:none;fill:#e0d000;fill-opacity:1;fill-rule:nonzero;stroke:#000000;stroke-width:0.5;stroke-linecap:round;stroke-linejoin:bevel;stroke-miterlimit:4;stroke-dasharray:none;stroke-dashoffset:0;stroke-opacity:1"
         id="ellipse1158"
         cx="-194.29572"
         cy="201.98282"
         rx="39.781994"
         ry="10.488839" />
      <path
         id="ellipse1160"
         transform="matrix(0.26458333,0,0,0.26458333,-0.17727383,1.9766568)"
         d="M -733.67578 697.71484 A 150.35714 39.642857 0 0 0 -884.0332 737.35742 L -884.0332 755.92969 A 150.35714 39.642857 0 0 0 -733.67578 795.57227 A 150.35714 39.642857 0 0 0 -583.31836 755.92969 L -583.31836 737.35742 A 150.35714 39.642857 0 0 0 -733.67578 697.71484 z "
         style="opacity:1;vector-effect:none;fill:#e0d000;fill-opacity:1;fill-rule:nonzero;stroke:#000000;stroke-width:1.8897638;stroke-linecap:round;stroke-linejoin:bevel;stroke-miterlimit:4;stroke-dasharray:none;stroke-dashoffset:0;stroke-opacity:1" />
      <ellipse
         clip-path="url(#clipPath1181)"
         style="opacity:1;vector-effect:none;fill:#e0d000;fill-opacity:1;fill-rule:nonzero;stroke:#000000;stroke-width:0.5;stroke-linecap:round;stroke-linejoin:bevel;stroke-miterlimit:4;stroke-dasharray:none;stroke-dashoffset:0;stroke-opacity:1"
         id="ellipse1174"
         cx="-194.29572"
         cy="201.98282"
         rx="39.781994"
         ry="10.488839" />
      <ellipse
         style="opacity:1;vector-effect:none;fill:none;fill-opacity:1;fill-rule:nonzero;stroke:#000000;stroke-width:0.5;stroke-linecap:round;stroke-linejoin:bevel;stroke-miterlimit:4;stroke-dasharray:none;stroke-dashoffset:0;stroke-opacity:1"
         id="ellipse1176"
         cx="-194.29572"
         cy="197.06912"
         rx="39.781994"
         ry="10.488839" />
    </g>
    <g
       id="g1270">
      <path
         sodipodi:nodetypes="csssccsssssscsssssc"
         inkscape:connector-curvature="0"
         id="path1247"
         d="m -44.694353,194.23537 c 1.36839,-2.38863 2.265934,-4.16407 5.122978,-6.57555 2.747568,-2.31908 5.927815,-5.14988 7.488803,-7.89042 0.63242,-1.1103 1.202243,-4.93021 0.194839,-7.05685 -1.228126,-2.59259 -4.084374,-4.07705 -4.084374,-4.07705 0.493002,-0.22435 2.318576,-0.40809 4.303093,1.11929 0,0 -2.504318,-2.27698 -6.529927,-2.1183 -2.939306,0.11586 -5.622008,2.60032 -7.625988,6.38972 -2.424864,4.58527 -3.772546,9.65231 -4.179033,11.15951 -0.434696,1.61181 0.453947,1.71592 0.995225,1.97308 0.707369,0.33607 1.434844,0.23098 1.727994,-1.0054 0.242555,-1.02298 1.074056,-6.37383 3.514283,-10.79635 1.705111,-3.09023 2.702993,-4.53908 5.110431,-5.98162 2.213796,-1.20014 5.53682,-1.1671 6.987015,0.37936 2.539122,2.70765 3.092794,8.95388 1.900324,10.89592 -2.027912,3.30263 -4.427067,5.84264 -7.638627,8.58372 -2.307685,1.96961 -3.22244,3.59916 -4.480708,6.12015 -0.678713,1.35984 -3.561799,0.19955 -2.806328,-1.11918 z"
         style="fill:#e0d000;fill-opacity:1;fill-rule:evenodd;stroke:#000000;stroke-width:0.26458332px;stroke-linecap:butt;stroke-linejoin:miter;stroke-opacity:1" />
      <g
         transform="translate(117.28778,3.0995902)"
         id="g1199">
        <ellipse
           style="opacity:1;vector-effect:none;fill:#e0d000;fill-opacity:1;fill-rule:nonzero;stroke:#000000;stroke-width:0.5;stroke-linecap:round;stroke-linejoin:bevel;stroke-miterlimit:4;stroke-dasharray:none;stroke-dashoffset:0;stroke-opacity:1"
           id="ellipse1191"
           cx="-194.29572"
           cy="201.98282"
           rx="39.781994"
           ry="10.488839" />
        <path
           inkscape:connector-curvature="0"
           id="path1193"
           transform="matrix(0.26458333,0,0,0.26458333,-0.17727383,1.9766568)"
           d="m -733.67578,697.71484 a 150.35714,39.642857 0 0 0 -150.35742,39.64258 v 18.57227 a 150.35714,39.642857 0 0 0 150.35742,39.64258 150.35714,39.642857 0 0 0 150.35742,-39.64258 v -18.57227 a 150.35714,39.642857 0 0 0 -150.35742,-39.64258 z"
           style="opacity:1;vector-effect:none;fill:#e0d000;fill-opacity:1;fill-rule:nonzero;stroke:#000000;stroke-width:1.88976383;stroke-linecap:round;stroke-linejoin:bevel;stroke-miterlimit:4;stroke-dasharray:none;stroke-dashoffset:0;stroke-opacity:1" />
        <ellipse
           clip-path="url(#clipPath1181)"
           style="opacity:1;vector-effect:none;fill:#e0d000;fill-opacity:1;fill-rule:nonzero;stroke:#000000;stroke-width:0.5;stroke-linecap:round;stroke-linejoin:bevel;stroke-miterlimit:4;stroke-dasharray:none;stroke-dashoffset:0;stroke-opacity:1"
           id="ellipse1195"
           cx="-194.29572"
           cy="201.98282"
           rx="39.781994"
           ry="10.488839" />
        <ellipse
           style="opacity:1;vector-effect:none;fill:none;fill-opacity:1;fill-rule:nonzero;stroke:#000000;stroke-width:0.5;stroke-linecap:round;stroke-linejoin:bevel;stroke-miterlimit:4;stroke-dasharray:none;stroke-dashoffset:0;stroke-opacity:1"
           id="ellipse1197"
           cx="-194.29572"
           cy="197.06912"
           rx="39.781994"
           ry="10.488839" />
      </g>
      <g
         transform="matrix(0.26458333,0,0,0.26458333,-106.9281,97.236913)"
         clip-path="url(#artboard_clip_path)"
         id="Candle_Enflamed_(2): Layer 2"
         style="fill:#e0d000;fill-opacity:1;stroke:#000000;stroke-width:1.88976383;stroke-miterlimit:4;stroke-dasharray:none;stroke-opacity:1">
        <title
           id="title1067">Layer 2</title>
        <g
           id="Group_3"
           style="fill:#e0d000;fill-opacity:1;stroke:#000000;stroke-width:1.88976383;stroke-miterlimit:4;stroke-dasharray:none;stroke-opacity:1">
          <g
             id="Graphic_9"
             style="fill:#e0d000;fill-opacity:1;stroke:#000000;stroke-width:1.88976383;stroke-miterlimit:4;stroke-dasharray:none;stroke-opacity:1">
            <path
               id="path1069"
               d="m 108.15525,67.37453 c 2.721,7.43357 1.58281,14.79843 -2.88729,20.76122 -9.62331,12.58479 -9.34997,25.51363 0.48146,38.94832 4.9202,6.46567 4.68369,10.32186 -0.73938,13.24649 -2.53777,1.12973 -3.87113,0.60246 -6.83161,-2.80713 -4.92916,-5.96229 -10.64001,-5.72828 -14.78648,0.91165 -4.83556,7.63472 -4.61947,14.35232 0.37541,16.62322 4.6593,2.26492 5.1328,3.95178 7.13533,23.45731 2.43719,23.37367 -0.18871,57.73489 -7.65315,99.89861 -3.7382,21.41745 -3.56393,30.48411 0.50835,37.43821 1.79192,3.05309 3.68292,9.96837 4.26148,15.18181 1.28008,12.94676 0.56859,43.48166 -1.40507,60.06306 L 85.02403,405 95.61276,404.18146 c 5.88163,-0.39881 14.79544,-1.41501 19.84409,-2.16436 4.88086,-0.7523 10.59172,-0.9863 12.59923,-0.6149 1.83673,0.53625 6.8585,1.29703 10.87352,2.0399 5.85774,0.9435 7.03825,0.62883 5.558,-1.07596 -0.98583,-1.19244 -2.25048,-5.57891 -2.67917,-9.78264 -2.5059,-19.5145 -3.8308,-29.9444 -4.54727,-36.83874 -1.42397,-14.29206 -2.40881,-53.24936 -1.62462,-69.0127 0.32313,-8.72212 1.02268,-38.58586 1.5156,-66.2713 1.55344,-87.25108 1.30499,-82.72373 5.89756,-95.56593 4.05935,-11.17326 4.0713,-11.84442 1.27263,-14.91543 -4.11709,-4.43724 -7.1672,-2.81311 -14.74416,7.96183 l -6.37853,9.45353 -1.71425,-7.41565 c -0.93804,-3.8771 -1.33984,-9.59094 -0.95646,-12.26962 2.89327,-21.0968 2.77327,-23.78443 -1.43692,-32.41942 -3.55995,-7.44851 -8.17444,-12.23029 -11.53025,-12.29004 -0.50337,-0.009 -0.20364,2.0105 0.59349,4.3745 z"
               inkscape:connector-curvature="0"
               style="fill:#e0d000;fill-opacity:1;stroke:#000000;stroke-width:1.88976383;stroke-miterlimit:4;stroke-dasharray:none;stroke-opacity:1" />
          </g>
          <g
             id="Graphic_8"
             style="fill:#e0d000;fill-opacity:1;stroke:#000000;stroke-width:1.88976383;stroke-miterlimit:4;stroke-dasharray:none;stroke-opacity:1">
            <path
               id="path1072"
               d="m 117.92836,81.48133 c 1.26466,4.38645 1.5136,9.25835 0.591,13.94155 -0.74286,4.01502 -1.5604,12.22481 -1.83872,18.43008 -0.63731,16.94087 -4.35858,18.55305 -11.50536,5.16615 -5.03421,-9.48888 -4.03693,-18.36684 3.54004,-29.14178 2.23804,-3.14919 4.16738,-7.81446 4.21219,-10.33132 0.11949,-6.71162 2.61843,-5.66007 5.00085,1.93532 z"
               inkscape:connector-curvature="0"
               style="fill:#e0d000;fill-opacity:1;stroke:#000000;stroke-width:1.88976383;stroke-miterlimit:4;stroke-dasharray:none;stroke-opacity:1" />
          </g>
          <g
             id="Graphic_7"
             style="fill:#e0d000;fill-opacity:1;stroke:#000000;stroke-width:1.88976383;stroke-miterlimit:4;stroke-dasharray:none;stroke-opacity:1">
            <path
               id="path1075"
               d="m 142.59822,112.96939 c -0.0239,1.34233 -1.81234,7.5207 -3.93636,13.69311 -2.12701,6.34019 -3.91843,12.68635 -4.11012,14.02569 -0.19169,1.33934 -2.32766,8.18291 -4.46363,15.02647 -3.01376,9.0099 -4.32571,16.70735 -4.52587,27.94932 -0.45159,15.93712 -0.13991,17.28542 4.54628,18.04022 2.34309,0.3774 3.14022,2.74141 3.65903,11.31068 0.23102,5.87865 0.43217,13.4352 0.20762,16.62022 -1.79641,25.48028 -2.31074,101.50433 -0.91664,117.4743 0.81854,10.58874 1.9398,23.02914 2.35953,27.73624 0.42271,4.53931 1.48074,11.10406 2.26293,14.30701 2.98786,11.29872 2.46955,12.12871 -6.06387,10.63405 -4.1858,-0.57807 -14.93037,-0.4337 -23.67938,0.7533 -9.75575,1.16905 -16.47036,1.21735 -17.45918,0.1927 -0.82401,-0.8539 -0.52179,-8.4015 0.67615,-19.12217 1.55443,-11.88923 1.78147,-24.64133 1.03761,-39.4248 -1.15461,-19.99397 -0.945,-22.34003 1.99706,-27.32298 2.76531,-4.48255 3.15466,-7.4968 2.67768,-18.41515 -0.3779,-7.05615 -1.37319,-17.1445 -2.29031,-22.19614 -1.07297,-5.72579 -1.09188,-23.51756 -0.17327,-46.83149 1.50813,-37.57015 -0.03036,-64.28469 -4.76833,-80.98557 -0.94401,-3.54153 -1.2049,-7.74227 -0.50387,-9.40823 1.22233,-2.66374 1.72272,-2.48698 5.17462,1.60273 4.27294,5.11138 11.13144,6.4084 15.05634,2.78572 1.19246,-0.98583 4.42529,-3.44593 6.97501,-5.24682 7.4754,-5.07006 13.46159,-11.34154 20.01388,-21.12766 3.27466,-4.80917 6.3158,-5.92993 6.24709,-2.07075 z"
               inkscape:connector-curvature="0"
               style="fill:#e0d000;fill-opacity:1;stroke:#000000;stroke-width:1.88976383;stroke-miterlimit:4;stroke-dasharray:none;stroke-opacity:1" />
          </g>
          <g
             id="Graphic_6"
             style="fill:#e0d000;fill-opacity:1;stroke:#000000;stroke-width:1.88976383;stroke-miterlimit:4;stroke-dasharray:none;stroke-opacity:1">
            <path
               id="path1078"
               d="m 86.51187,150.08227 c -0.03286,1.8457 -0.72195,2.84049 -1.71973,2.31919 -0.82999,-0.5183 -1.63309,-2.54673 -1.60023,-4.39242 0.03286,-1.8457 0.88973,-2.83751 1.71973,-2.3192 0.99778,0.5213 1.63309,2.54673 1.60023,4.39243 z"
               inkscape:connector-curvature="0"
               style="fill:#e0d000;fill-opacity:1;stroke:#000000;stroke-width:1.88976383;stroke-miterlimit:4;stroke-dasharray:none;stroke-opacity:1" />
          </g>
          <g
             id="Graphic_5"
             style="fill:#e0d000;fill-opacity:1;stroke:#000000;stroke-width:1.88976383;stroke-miterlimit:4;stroke-dasharray:none;stroke-opacity:1">
            <path
               id="path1081"
               d="m 134.67181,179.62438 c 0.48296,10.58276 -0.10406,15.27193 -2.00054,18.09152 -4.13751,6.13654 -5.36681,-9.66266 -2.03589,-27.0591 1.46481,-6.85551 1.63558,-7.02032 2.73543,-2.80464 0.62635,2.52881 1.20192,7.91005 1.301,11.77222 z"
               inkscape:connector-curvature="0"
               style="fill:#e0d000;fill-opacity:1;stroke:#000000;stroke-width:1.88976383;stroke-miterlimit:4;stroke-dasharray:none;stroke-opacity:1" />
          </g>
          <g
             id="Graphic_4"
             style="fill:#e0d000;fill-opacity:1;stroke:#000000;stroke-width:1.88976383;stroke-miterlimit:4;stroke-dasharray:none;stroke-opacity:1">
            <path
               id="path1084"
               d="m 91.67129,277.90088 c 2.48201,20.85682 2.47354,30.75944 -0.10306,34.07044 -3.4305,4.13502 -6.07333,1.73815 -7.27524,-6.1719 -0.89323,-6.39397 3.4768,-35.01744 5.3225,-34.98458 0.67116,0.012 1.62114,3.21789 2.0558,7.08604 z"
               inkscape:connector-curvature="0"
               style="fill:#e0d000;fill-opacity:1;stroke:#000000;stroke-width:1.88976383;stroke-miterlimit:4;stroke-dasharray:none;stroke-opacity:1" />
          </g>
        </g>
      </g>
    </g>
    <g
       transform="matrix(0.26458333,0,0,0.26458333,-315.13105,107.68191)"
       clip-path="url(#artboard_clip_path)"
       id="g1229"
       style="fill:#e0d000;fill-opacity:1;stroke:#000000;stroke-width:1.88976383;stroke-miterlimit:4;stroke-dasharray:none;stroke-opacity:1">
      <title
         id="title1201">Layer 2</title>
      <g
         id="g1227"
         style="fill:#e0d000;fill-opacity:1;stroke:#000000;stroke-width:1.88976383;stroke-miterlimit:4;stroke-dasharray:none;stroke-opacity:1">
        <g
           id="g1205"
           style="fill:#e0d000;fill-opacity:1;stroke:#000000;stroke-width:1.88976383;stroke-miterlimit:4;stroke-dasharray:none;stroke-opacity:1">
          <path
             id="path1203"
             d="m 108.15525,67.37453 c 2.721,7.43357 1.58281,14.79843 -2.88729,20.76122 -9.62331,12.58479 -9.34997,25.51363 0.48146,38.94832 4.9202,6.46567 4.68369,10.32186 -0.73938,13.24649 -2.53777,1.12973 -3.87113,0.60246 -6.83161,-2.80713 -4.92916,-5.96229 -10.64001,-5.72828 -14.78648,0.91165 -4.83556,7.63472 -4.61947,14.35232 0.37541,16.62322 4.6593,2.26492 5.1328,3.95178 7.13533,23.45731 2.43719,23.37367 -0.18871,57.73489 -7.65315,99.89861 -3.7382,21.41745 -3.56393,30.48411 0.50835,37.43821 1.79192,3.05309 3.68292,9.96837 4.26148,15.18181 1.28008,12.94676 0.56859,43.48166 -1.40507,60.06306 L 85.02403,405 95.61276,404.18146 c 5.88163,-0.39881 14.79544,-1.41501 19.84409,-2.16436 4.88086,-0.7523 10.59172,-0.9863 12.59923,-0.6149 1.83673,0.53625 6.8585,1.29703 10.87352,2.0399 5.85774,0.9435 7.03825,0.62883 5.558,-1.07596 -0.98583,-1.19244 -2.25048,-5.57891 -2.67917,-9.78264 -2.5059,-19.5145 -3.8308,-29.9444 -4.54727,-36.83874 -1.42397,-14.29206 -2.40881,-53.24936 -1.62462,-69.0127 0.32313,-8.72212 1.02268,-38.58586 1.5156,-66.2713 1.55344,-87.25108 1.30499,-82.72373 5.89756,-95.56593 4.05935,-11.17326 4.0713,-11.84442 1.27263,-14.91543 -4.11709,-4.43724 -7.1672,-2.81311 -14.74416,7.96183 l -6.37853,9.45353 -1.71425,-7.41565 c -0.93804,-3.8771 -1.33984,-9.59094 -0.95646,-12.26962 2.89327,-21.0968 2.77327,-23.78443 -1.43692,-32.41942 -3.55995,-7.44851 -8.17444,-12.23029 -11.53025,-12.29004 -0.50337,-0.009 -0.20364,2.0105 0.59349,4.3745 z"
             inkscape:connector-curvature="0"
             style="fill:#e0d000;fill-opacity:1;stroke:#000000;stroke-width:1.88976383;stroke-miterlimit:4;stroke-dasharray:none;stroke-opacity:1" />
        </g>
        <g
           id="g1209"
           style="fill:#e0d000;fill-opacity:1;stroke:#000000;stroke-width:1.88976383;stroke-miterlimit:4;stroke-dasharray:none;stroke-opacity:1">
          <path
             id="path1207"
             d="m 117.92836,81.48133 c 1.26466,4.38645 1.5136,9.25835 0.591,13.94155 -0.74286,4.01502 -1.5604,12.22481 -1.83872,18.43008 -0.63731,16.94087 -4.35858,18.55305 -11.50536,5.16615 -5.03421,-9.48888 -4.03693,-18.36684 3.54004,-29.14178 2.23804,-3.14919 4.16738,-7.81446 4.21219,-10.33132 0.11949,-6.71162 2.61843,-5.66007 5.00085,1.93532 z"
             inkscape:connector-curvature="0"
             style="fill:#e0d000;fill-opacity:1;stroke:#000000;stroke-width:1.88976383;stroke-miterlimit:4;stroke-dasharray:none;stroke-opacity:1" />
        </g>
        <g
           id="g1213"
           style="fill:#e0d000;fill-opacity:1;stroke:#000000;stroke-width:1.88976383;stroke-miterlimit:4;stroke-dasharray:none;stroke-opacity:1">
          <path
             id="path1211"
             d="m 142.59822,112.96939 c -0.0239,1.34233 -1.81234,7.5207 -3.93636,13.69311 -2.12701,6.34019 -3.91843,12.68635 -4.11012,14.02569 -0.19169,1.33934 -2.32766,8.18291 -4.46363,15.02647 -3.01376,9.0099 -4.32571,16.70735 -4.52587,27.94932 -0.45159,15.93712 -0.13991,17.28542 4.54628,18.04022 2.34309,0.3774 3.14022,2.74141 3.65903,11.31068 0.23102,5.87865 0.43217,13.4352 0.20762,16.62022 -1.79641,25.48028 -2.31074,101.50433 -0.91664,117.4743 0.81854,10.58874 1.9398,23.02914 2.35953,27.73624 0.42271,4.53931 1.48074,11.10406 2.26293,14.30701 2.98786,11.29872 2.46955,12.12871 -6.06387,10.63405 -4.1858,-0.57807 -14.93037,-0.4337 -23.67938,0.7533 -9.75575,1.16905 -16.47036,1.21735 -17.45918,0.1927 -0.82401,-0.8539 -0.52179,-8.4015 0.67615,-19.12217 1.55443,-11.88923 1.78147,-24.64133 1.03761,-39.4248 -1.15461,-19.99397 -0.945,-22.34003 1.99706,-27.32298 2.76531,-4.48255 3.15466,-7.4968 2.67768,-18.41515 -0.3779,-7.05615 -1.37319,-17.1445 -2.29031,-22.19614 -1.07297,-5.72579 -1.09188,-23.51756 -0.17327,-46.83149 1.50813,-37.57015 -0.03036,-64.28469 -4.76833,-80.98557 -0.94401,-3.54153 -1.2049,-7.74227 -0.50387,-9.40823 1.22233,-2.66374 1.72272,-2.48698 5.17462,1.60273 4.27294,5.11138 11.13144,6.4084 15.05634,2.78572 1.19246,-0.98583 4.42529,-3.44593 6.97501,-5.24682 7.4754,-5.07006 13.46159,-11.34154 20.01388,-21.12766 3.27466,-4.80917 6.3158,-5.92993 6.24709,-2.07075 z"
             inkscape:connector-curvature="0"
             style="fill:#e0d000;fill-opacity:1;stroke:#000000;stroke-width:1.88976383;stroke-miterlimit:4;stroke-dasharray:none;stroke-opacity:1" />
        </g>
        <g
           id="g1217"
           style="fill:#e0d000;fill-opacity:1;stroke:#000000;stroke-width:1.88976383;stroke-miterlimit:4;stroke-dasharray:none;stroke-opacity:1">
          <path
             id="path1215"
             d="m 86.51187,150.08227 c -0.03286,1.8457 -0.72195,2.84049 -1.71973,2.31919 -0.82999,-0.5183 -1.63309,-2.54673 -1.60023,-4.39242 0.03286,-1.8457 0.88973,-2.83751 1.71973,-2.3192 0.99778,0.5213 1.63309,2.54673 1.60023,4.39243 z"
             inkscape:connector-curvature="0"
             style="fill:#e0d000;fill-opacity:1;stroke:#000000;stroke-width:1.88976383;stroke-miterlimit:4;stroke-dasharray:none;stroke-opacity:1" />
        </g>
        <g
           id="g1221"
           style="fill:#e0d000;fill-opacity:1;stroke:#000000;stroke-width:1.88976383;stroke-miterlimit:4;stroke-dasharray:none;stroke-opacity:1">
          <path
             id="path1219"
             d="m 134.67181,179.62438 c 0.48296,10.58276 -0.10406,15.27193 -2.00054,18.09152 -4.13751,6.13654 -5.36681,-9.66266 -2.03589,-27.0591 1.46481,-6.85551 1.63558,-7.02032 2.73543,-2.80464 0.62635,2.52881 1.20192,7.91005 1.301,11.77222 z"
             inkscape:connector-curvature="0"
             style="fill:#e0d000;fill-opacity:1;stroke:#000000;stroke-width:1.88976383;stroke-miterlimit:4;stroke-dasharray:none;stroke-opacity:1" />
        </g>
        <g
           id="g1225"
           style="fill:#e0d000;fill-opacity:1;stroke:#000000;stroke-width:1.88976383;stroke-miterlimit:4;stroke-dasharray:none;stroke-opacity:1">
          <path
             id="path1223"
             d="m 91.67129,277.90088 c 2.48201,20.85682 2.47354,30.75944 -0.10306,34.07044 -3.4305,4.13502 -6.07333,1.73815 -7.27524,-6.1719 -0.89323,-6.39397 3.4768,-35.01744 5.3225,-34.98458 0.67116,0.012 1.62114,3.21789 2.0558,7.08604 z"
             inkscape:connector-curvature="0"
             style="fill:#e0d000;fill-opacity:1;stroke:#000000;stroke-width:1.88976383;stroke-miterlimit:4;stroke-dasharray:none;stroke-opacity:1" />
        </g>
      </g>
    </g>
    <g
       id="g1378">
      <g
         style="stroke-width:0.98781639"
         transform="matrix(1.0123064,0,0,1.0123614,-0.2745237,2.0804854)"
         id="g1863">
        <path
           style="fill:#228b22;fill-opacity:1;stroke:#000000;stroke-width:0.98781639;stroke-miterlimit:4;stroke-dasharray:none"
           d="M 0.58997582,0.39134741 V 180.49721 v 18.761 c 7.86272778,-9.3805 7.86257178,-9.3805 22.46478018,-18.761 v -22.51304 h 22.464781 v 22.51304 c 7.301104,9.3805 7.301416,9.3805 11.23278,18.761 3.931364,-9.3805 3.930896,-9.3805 11.232001,-18.761 v -22.51304 h 22.46478 v 22.51304 c 7.301104,9.3805 7.301416,9.3805 11.232782,18.761 3.93136,-9.3805 3.93167,-9.3805 11.23278,-18.761 v -22.51304 h 22.46478 v 22.51304 c 7.3011,9.3805 7.30064,9.3805 11.232,18.761 3.93136,-9.3805 3.93168,-9.3805 11.23278,-18.761 V 157.98417 H 180.309 v 22.51304 c 14.60221,9.3805 14.60205,9.3805 22.46478,18.761 V 180.49721 0.39134741 H 101.68188 Z M 23.054756,22.905153 H 45.519537 V 45.418196 H 23.054756 Z m 44.929562,0 h 22.46478 v 22.513043 h -22.46478 z m 44.930342,0 h 22.46478 v 22.513043 h -22.46478 z m 44.92956,0 H 180.309 V 45.418196 H 157.84422 Z M 23.054756,67.931239 H 45.519537 V 90.444281 H 23.054756 Z m 44.929562,0 h 22.46478 v 22.513042 h -22.46478 z m 44.930342,0 h 22.46478 v 22.513042 h -22.46478 z m 44.92956,0 H 180.309 V 90.444281 H 157.84422 Z M 23.054756,112.95732 h 22.464781 v 22.51381 H 23.054756 Z m 44.929562,0 h 22.46478 v 22.51381 h -22.46478 z m 44.930342,0 h 22.46478 v 22.51381 h -22.46478 z m 44.92956,0 H 180.309 v 22.51381 h -22.46478 z"
           id="path913"
           inkscape:connector-curvature="0" />
        <path
           style="stroke:#000000;stroke-width:0.4939082;stroke-miterlimit:4;stroke-dasharray:none"
           inkscape:connector-curvature="0"
           d="M 23.054556,22.904824 0.58962022,0.39163017"
           id="path917" />
        <path
           style="stroke:#000000;stroke-width:0.4939082;stroke-miterlimit:4;stroke-dasharray:none"
           inkscape:connector-curvature="0"
           d="M 45.519492,22.904824 56.75196,11.648227"
           id="path919" />
        <path
           style="stroke:#000000;stroke-width:0.4939082;stroke-miterlimit:4;stroke-dasharray:none"
           inkscape:connector-curvature="0"
           d="M 23.054556,45.418018 11.822088,56.674615"
           id="path921" />
        <path
           style="stroke:#000000;stroke-width:0.4939082;stroke-miterlimit:4;stroke-dasharray:none"
           inkscape:connector-curvature="0"
           d="M 67.984428,22.904824 56.75196,11.648227"
           id="path923" />
        <path
           style="stroke:#000000;stroke-width:0.4939082;stroke-miterlimit:4;stroke-dasharray:none"
           inkscape:connector-curvature="0"
           d="M 90.449364,22.904824 101.68183,11.648227"
           id="path925" />
        <path
           style="stroke:#000000;stroke-width:0.4939082;stroke-miterlimit:4;stroke-dasharray:none"
           inkscape:connector-curvature="0"
           d="M 112.9143,22.904824 101.68183,11.648227"
           id="path927" />
        <path
           style="stroke:#000000;stroke-width:0.4939082;stroke-miterlimit:4;stroke-dasharray:none"
           inkscape:connector-curvature="0"
           d="M 135.37924,22.904824 146.6117,11.648227"
           id="path929" />
        <path
           style="stroke:#000000;stroke-width:0.4939082;stroke-miterlimit:4;stroke-dasharray:none"
           inkscape:connector-curvature="0"
           d="M 157.84417,22.904824 146.6117,11.648227"
           id="path931" />
        <path
           style="stroke:#000000;stroke-width:0.4939082;stroke-miterlimit:4;stroke-dasharray:none"
           inkscape:connector-curvature="0"
           d="m 180.30911,45.418018 11.23247,11.256597"
           id="path933" />
        <path
           style="stroke:#000000;stroke-width:0.4939082;stroke-miterlimit:4;stroke-dasharray:none"
           inkscape:connector-curvature="0"
           d="M 180.30911,22.904824 202.77404,0.39163017"
           id="path935" />
        <path
           style="stroke:#000000;stroke-width:0.4939082;stroke-miterlimit:4;stroke-dasharray:none"
           inkscape:connector-curvature="0"
           d="M 23.054556,67.931212 11.822088,56.674615"
           id="path937" />
        <path
           style="stroke:#000000;stroke-width:0.4939082;stroke-miterlimit:4;stroke-dasharray:none"
           inkscape:connector-curvature="0"
           d="M 45.519492,67.931212 67.984428,45.418018"
           id="path939" />
        <path
           style="stroke:#000000;stroke-width:0.4939082;stroke-miterlimit:4;stroke-dasharray:none"
           inkscape:connector-curvature="0"
           d="M 23.054556,90.444406 11.822088,101.701"
           id="path941" />
        <path
           style="stroke:#000000;stroke-width:0.4939082;stroke-miterlimit:4;stroke-dasharray:none"
           inkscape:connector-curvature="0"
           d="M 67.984428,67.931212 45.519492,45.418018"
           id="path943" />
        <path
           style="stroke:#000000;stroke-width:0.4939082;stroke-miterlimit:4;stroke-dasharray:none"
           inkscape:connector-curvature="0"
           d="M 90.449364,67.931212 112.9143,45.418018"
           id="path945" />
        <path
           style="stroke:#000000;stroke-width:0.4939082;stroke-miterlimit:4;stroke-dasharray:none"
           inkscape:connector-curvature="0"
           d="M 112.9143,67.931212 90.449364,45.418018"
           id="path947" />
        <path
           style="stroke:#000000;stroke-width:0.4939082;stroke-miterlimit:4;stroke-dasharray:none"
           inkscape:connector-curvature="0"
           d="M 135.37924,67.931212 157.84417,45.418018"
           id="path949" />
        <path
           style="stroke:#000000;stroke-width:0.4939082;stroke-miterlimit:4;stroke-dasharray:none"
           inkscape:connector-curvature="0"
           d="M 157.84417,67.931212 135.37924,45.418018"
           id="path951" />
        <path
           style="stroke:#000000;stroke-width:0.4939082;stroke-miterlimit:4;stroke-dasharray:none"
           inkscape:connector-curvature="0"
           d="M 180.30911,90.444406 191.54158,101.701"
           id="path953" />
        <path
           style="stroke:#000000;stroke-width:0.4939082;stroke-miterlimit:4;stroke-dasharray:none"
           inkscape:connector-curvature="0"
           d="M 180.30911,67.931212 191.54158,56.674615"
           id="path955" />
        <path
           style="stroke:#000000;stroke-width:0.4939082;stroke-miterlimit:4;stroke-dasharray:none"
           inkscape:connector-curvature="0"
           d="M 23.054556,112.9576 11.822088,101.701"
           id="path957" />
        <path
           style="stroke:#000000;stroke-width:0.4939082;stroke-miterlimit:4;stroke-dasharray:none"
           inkscape:connector-curvature="0"
           d="M 45.519492,112.9576 67.984428,90.444406"
           id="path959" />
        <path
           style="stroke:#000000;stroke-width:0.4939082;stroke-miterlimit:4;stroke-dasharray:none"
           inkscape:connector-curvature="0"
           d="m 23.054556,135.47079 -11.232468,11.2566"
           id="path961" />
        <path
           style="stroke:#000000;stroke-width:0.4939082;stroke-miterlimit:4;stroke-dasharray:none"
           inkscape:connector-curvature="0"
           d="M 67.984428,112.9576 45.519492,90.444406"
           id="path963" />
        <path
           style="stroke:#000000;stroke-width:0.4939082;stroke-miterlimit:4;stroke-dasharray:none"
           inkscape:connector-curvature="0"
           d="M 90.449364,112.9576 112.9143,90.444406"
           id="path965" />
        <path
           style="stroke:#000000;stroke-width:0.4939082;stroke-miterlimit:4;stroke-dasharray:none"
           inkscape:connector-curvature="0"
           d="M 112.9143,112.9576 90.449364,90.444406"
           id="path967" />
        <path
           style="stroke:#000000;stroke-width:0.4939082;stroke-miterlimit:4;stroke-dasharray:none"
           inkscape:connector-curvature="0"
           d="M 135.37924,112.9576 157.84417,90.444406"
           id="path969" />
        <path
           style="stroke:#000000;stroke-width:0.4939082;stroke-miterlimit:4;stroke-dasharray:none"
           inkscape:connector-curvature="0"
           d="M 157.84417,112.9576 135.37924,90.444406"
           id="path971" />
        <path
           style="stroke:#000000;stroke-width:0.4939082;stroke-miterlimit:4;stroke-dasharray:none"
           inkscape:connector-curvature="0"
           d="m 180.30911,135.47079 11.23247,11.2566"
           id="path973" />
        <path
           style="stroke:#000000;stroke-width:0.4939082;stroke-miterlimit:4;stroke-dasharray:none"
           inkscape:connector-curvature="0"
           d="M 180.30911,112.9576 191.54158,101.701"
           id="path975" />
        <path
           style="stroke:#000000;stroke-width:0.4939082;stroke-miterlimit:4;stroke-dasharray:none"
           inkscape:connector-curvature="0"
           d="M 23.054556,157.98399 11.822088,146.72739"
           id="path977" />
        <path
           style="stroke:#000000;stroke-width:0.4939082;stroke-miterlimit:4;stroke-dasharray:none"
           inkscape:connector-curvature="0"
           d="m 45.519492,157.98399 22.464936,-22.5132"
           id="path979" />
        <path
           style="stroke:#000000;stroke-width:0.4939082;stroke-miterlimit:4;stroke-dasharray:none"
           inkscape:connector-curvature="0"
           d="M 67.984428,157.98399 45.519492,135.47079"
           id="path981" />
        <path
           style="stroke:#000000;stroke-width:0.4939082;stroke-miterlimit:4;stroke-dasharray:none"
           inkscape:connector-curvature="0"
           d="M 90.449364,157.98399 112.9143,135.47079"
           id="path983" />
        <path
           style="stroke:#000000;stroke-width:0.4939082;stroke-miterlimit:4;stroke-dasharray:none"
           inkscape:connector-curvature="0"
           d="M 112.9143,157.98399 90.449364,135.47079"
           id="path985" />
        <path
           style="stroke:#000000;stroke-width:0.4939082;stroke-miterlimit:4;stroke-dasharray:none"
           inkscape:connector-curvature="0"
           d="m 135.37924,157.98399 22.46493,-22.5132"
           id="path987" />
        <path
           style="stroke:#000000;stroke-width:0.4939082;stroke-miterlimit:4;stroke-dasharray:none"
           inkscape:connector-curvature="0"
           d="m 157.84417,157.98399 -22.46493,-22.5132"
           id="path989" />
        <path
           style="stroke:#000000;stroke-width:0.4939082;stroke-miterlimit:4;stroke-dasharray:none"
           inkscape:connector-curvature="0"
           d="m 180.30911,157.98399 11.23247,-11.2566"
           id="path991" />
      </g>
      <g
         style="stroke-width:0.71007055"
         transform="matrix(1.4083147,0,0,1.4083069,211.31515,-136.55525)"
         id="g1314">
        <path
           sodipodi:nodetypes="csssccsssssscsssssc"
           inkscape:connector-curvature="0"
           id="path1272"
           d="m -44.694353,194.23537 c 1.36839,-2.38863 2.265934,-4.16407 5.122978,-6.57555 2.747568,-2.31908 5.927815,-5.14988 7.488803,-7.89042 0.63242,-1.1103 1.202243,-4.93021 0.194839,-7.05685 -1.228126,-2.59259 -4.084374,-4.07705 -4.084374,-4.07705 0.493002,-0.22435 2.318576,-0.40809 4.303093,1.11929 0,0 -2.504318,-2.27698 -6.529927,-2.1183 -2.939306,0.11586 -5.622008,2.60032 -7.625988,6.38972 -2.424864,4.58527 -3.772546,9.65231 -4.179033,11.15951 -0.434696,1.61181 0.453947,1.71592 0.995225,1.97308 0.707369,0.33607 1.434844,0.23098 1.727994,-1.0054 0.242555,-1.02298 1.074056,-6.37383 3.514283,-10.79635 1.705111,-3.09023 2.702993,-4.53908 5.110431,-5.98162 2.213796,-1.20014 5.53682,-1.1671 6.987015,0.37936 2.539122,2.70765 3.092794,8.95388 1.900324,10.89592 -2.027912,3.30263 -4.427067,5.84264 -7.638627,8.58372 -2.307685,1.96961 -3.22244,3.59916 -4.480708,6.12015 -0.678713,1.35984 -3.561799,0.19955 -2.806328,-1.11918 z"
           style="fill:#e0d000;fill-opacity:1;fill-rule:evenodd;stroke:#000000;stroke-width:0.18787281px;stroke-linecap:butt;stroke-linejoin:miter;stroke-opacity:1" />
        <g
           style="stroke-width:0.71007055"
           transform="translate(117.28778,3.0995902)"
           id="g1282">
          <ellipse
             style="opacity:1;vector-effect:none;fill:#e0d000;fill-opacity:1;fill-rule:nonzero;stroke:#000000;stroke-width:0.35503528;stroke-linecap:round;stroke-linejoin:bevel;stroke-miterlimit:4;stroke-dasharray:none;stroke-dashoffset:0;stroke-opacity:1"
             id="ellipse1274"
             cx="-194.29572"
             cy="201.98282"
             rx="39.781994"
             ry="10.488839" />
          <path
             inkscape:connector-curvature="0"
             id="path1276"
             transform="matrix(0.26458333,0,0,0.26458333,-0.17727383,1.9766568)"
             d="m -733.67578,697.71484 a 150.35714,39.642857 0 0 0 -150.35742,39.64258 v 18.57227 a 150.35714,39.642857 0 0 0 150.35742,39.64258 150.35714,39.642857 0 0 0 150.35742,-39.64258 v -18.57227 a 150.35714,39.642857 0 0 0 -150.35742,-39.64258 z"
             style="opacity:1;vector-effect:none;fill:#e0d000;fill-opacity:1;fill-rule:nonzero;stroke:#000000;stroke-width:1.34186566;stroke-linecap:round;stroke-linejoin:bevel;stroke-miterlimit:4;stroke-dasharray:none;stroke-dashoffset:0;stroke-opacity:1" />
          <ellipse
             clip-path="url(#clipPath1181)"
             style="opacity:1;vector-effect:none;fill:#e0d000;fill-opacity:1;fill-rule:nonzero;stroke:#000000;stroke-width:0.35503528;stroke-linecap:round;stroke-linejoin:bevel;stroke-miterlimit:4;stroke-dasharray:none;stroke-dashoffset:0;stroke-opacity:1"
             id="ellipse1278"
             cx="-194.29572"
             cy="201.98282"
             rx="39.781994"
             ry="10.488839" />
          <ellipse
             style="opacity:1;vector-effect:none;fill:none;fill-opacity:1;fill-rule:nonzero;stroke:#000000;stroke-width:0.35503528;stroke-linecap:round;stroke-linejoin:bevel;stroke-miterlimit:4;stroke-dasharray:none;stroke-dashoffset:0;stroke-opacity:1"
             id="ellipse1280"
             cx="-194.29572"
             cy="197.06912"
             rx="39.781994"
             ry="10.488839" />
        </g>
        <g
           transform="matrix(0.26458333,0,0,0.26458333,-106.9281,97.236913)"
           clip-path="url(#artboard_clip_path)"
           id="g1312"
           style="fill:#e0d000;fill-opacity:1;stroke:#000000;stroke-width:1.34186566;stroke-miterlimit:4;stroke-dasharray:none;stroke-opacity:1">
          <title
             id="title1284">Layer 2</title>
          <g
             id="g1310"
             style="fill:#e0d000;fill-opacity:1;stroke:#000000;stroke-width:1.34186566;stroke-miterlimit:4;stroke-dasharray:none;stroke-opacity:1">
            <g
               id="g1288"
               style="fill:#e0d000;fill-opacity:1;stroke:#000000;stroke-width:1.34186566;stroke-miterlimit:4;stroke-dasharray:none;stroke-opacity:1">
              <path
                 id="path1286"
                 d="m 108.15525,67.37453 c 2.721,7.43357 1.58281,14.79843 -2.88729,20.76122 -9.62331,12.58479 -9.34997,25.51363 0.48146,38.94832 4.9202,6.46567 4.68369,10.32186 -0.73938,13.24649 -2.53777,1.12973 -3.87113,0.60246 -6.83161,-2.80713 -4.92916,-5.96229 -10.64001,-5.72828 -14.78648,0.91165 -4.83556,7.63472 -4.61947,14.35232 0.37541,16.62322 4.6593,2.26492 5.1328,3.95178 7.13533,23.45731 2.43719,23.37367 -0.18871,57.73489 -7.65315,99.89861 -3.7382,21.41745 -3.56393,30.48411 0.50835,37.43821 1.79192,3.05309 3.68292,9.96837 4.26148,15.18181 1.28008,12.94676 0.56859,43.48166 -1.40507,60.06306 L 85.02403,405 95.61276,404.18146 c 5.88163,-0.39881 14.79544,-1.41501 19.84409,-2.16436 4.88086,-0.7523 10.59172,-0.9863 12.59923,-0.6149 1.83673,0.53625 6.8585,1.29703 10.87352,2.0399 5.85774,0.9435 7.03825,0.62883 5.558,-1.07596 -0.98583,-1.19244 -2.25048,-5.57891 -2.67917,-9.78264 -2.5059,-19.5145 -3.8308,-29.9444 -4.54727,-36.83874 -1.42397,-14.29206 -2.40881,-53.24936 -1.62462,-69.0127 0.32313,-8.72212 1.02268,-38.58586 1.5156,-66.2713 1.55344,-87.25108 1.30499,-82.72373 5.89756,-95.56593 4.05935,-11.17326 4.0713,-11.84442 1.27263,-14.91543 -4.11709,-4.43724 -7.1672,-2.81311 -14.74416,7.96183 l -6.37853,9.45353 -1.71425,-7.41565 c -0.93804,-3.8771 -1.33984,-9.59094 -0.95646,-12.26962 2.89327,-21.0968 2.77327,-23.78443 -1.43692,-32.41942 -3.55995,-7.44851 -8.17444,-12.23029 -11.53025,-12.29004 -0.50337,-0.009 -0.20364,2.0105 0.59349,4.3745 z"
                 inkscape:connector-curvature="0"
                 style="fill:#e0d000;fill-opacity:1;stroke:#000000;stroke-width:1.34186566;stroke-miterlimit:4;stroke-dasharray:none;stroke-opacity:1" />
            </g>
            <g
               id="g1292"
               style="fill:#e0d000;fill-opacity:1;stroke:#000000;stroke-width:1.34186566;stroke-miterlimit:4;stroke-dasharray:none;stroke-opacity:1">
              <path
                 id="path1290"
                 d="m 117.92836,81.48133 c 1.26466,4.38645 1.5136,9.25835 0.591,13.94155 -0.74286,4.01502 -1.5604,12.22481 -1.83872,18.43008 -0.63731,16.94087 -4.35858,18.55305 -11.50536,5.16615 -5.03421,-9.48888 -4.03693,-18.36684 3.54004,-29.14178 2.23804,-3.14919 4.16738,-7.81446 4.21219,-10.33132 0.11949,-6.71162 2.61843,-5.66007 5.00085,1.93532 z"
                 inkscape:connector-curvature="0"
                 style="fill:#e0d000;fill-opacity:1;stroke:#000000;stroke-width:1.34186566;stroke-miterlimit:4;stroke-dasharray:none;stroke-opacity:1" />
            </g>
            <g
               id="g1296"
               style="fill:#e0d000;fill-opacity:1;stroke:#000000;stroke-width:1.34186566;stroke-miterlimit:4;stroke-dasharray:none;stroke-opacity:1">
              <path
                 id="path1294"
                 d="m 142.59822,112.96939 c -0.0239,1.34233 -1.81234,7.5207 -3.93636,13.69311 -2.12701,6.34019 -3.91843,12.68635 -4.11012,14.02569 -0.19169,1.33934 -2.32766,8.18291 -4.46363,15.02647 -3.01376,9.0099 -4.32571,16.70735 -4.52587,27.94932 -0.45159,15.93712 -0.13991,17.28542 4.54628,18.04022 2.34309,0.3774 3.14022,2.74141 3.65903,11.31068 0.23102,5.87865 0.43217,13.4352 0.20762,16.62022 -1.79641,25.48028 -2.31074,101.50433 -0.91664,117.4743 0.81854,10.58874 1.9398,23.02914 2.35953,27.73624 0.42271,4.53931 1.48074,11.10406 2.26293,14.30701 2.98786,11.29872 2.46955,12.12871 -6.06387,10.63405 -4.1858,-0.57807 -14.93037,-0.4337 -23.67938,0.7533 -9.75575,1.16905 -16.47036,1.21735 -17.45918,0.1927 -0.82401,-0.8539 -0.52179,-8.4015 0.67615,-19.12217 1.55443,-11.88923 1.78147,-24.64133 1.03761,-39.4248 -1.15461,-19.99397 -0.945,-22.34003 1.99706,-27.32298 2.76531,-4.48255 3.15466,-7.4968 2.67768,-18.41515 -0.3779,-7.05615 -1.37319,-17.1445 -2.29031,-22.19614 -1.07297,-5.72579 -1.09188,-23.51756 -0.17327,-46.83149 1.50813,-37.57015 -0.03036,-64.28469 -4.76833,-80.98557 -0.94401,-3.54153 -1.2049,-7.74227 -0.50387,-9.40823 1.22233,-2.66374 1.72272,-2.48698 5.17462,1.60273 4.27294,5.11138 11.13144,6.4084 15.05634,2.78572 1.19246,-0.98583 4.42529,-3.44593 6.97501,-5.24682 7.4754,-5.07006 13.46159,-11.34154 20.01388,-21.12766 3.27466,-4.80917 6.3158,-5.92993 6.24709,-2.07075 z"
                 inkscape:connector-curvature="0"
                 style="fill:#e0d000;fill-opacity:1;stroke:#000000;stroke-width:1.34186566;stroke-miterlimit:4;stroke-dasharray:none;stroke-opacity:1" />
            </g>
            <g
               id="g1300"
               style="fill:#e0d000;fill-opacity:1;stroke:#000000;stroke-width:1.34186566;stroke-miterlimit:4;stroke-dasharray:none;stroke-opacity:1">
              <path
                 id="path1298"
                 d="m 86.51187,150.08227 c -0.03286,1.8457 -0.72195,2.84049 -1.71973,2.31919 -0.82999,-0.5183 -1.63309,-2.54673 -1.60023,-4.39242 0.03286,-1.8457 0.88973,-2.83751 1.71973,-2.3192 0.99778,0.5213 1.63309,2.54673 1.60023,4.39243 z"
                 inkscape:connector-curvature="0"
                 style="fill:#e0d000;fill-opacity:1;stroke:#000000;stroke-width:1.34186566;stroke-miterlimit:4;stroke-dasharray:none;stroke-opacity:1" />
            </g>
            <g
               id="g1304"
               style="fill:#e0d000;fill-opacity:1;stroke:#000000;stroke-width:1.34186566;stroke-miterlimit:4;stroke-dasharray:none;stroke-opacity:1">
              <path
                 id="path1302"
                 d="m 134.67181,179.62438 c 0.48296,10.58276 -0.10406,15.27193 -2.00054,18.09152 -4.13751,6.13654 -5.36681,-9.66266 -2.03589,-27.0591 1.46481,-6.85551 1.63558,-7.02032 2.73543,-2.80464 0.62635,2.52881 1.20192,7.91005 1.301,11.77222 z"
                 inkscape:connector-curvature="0"
                 style="fill:#e0d000;fill-opacity:1;stroke:#000000;stroke-width:1.34186566;stroke-miterlimit:4;stroke-dasharray:none;stroke-opacity:1" />
            </g>
            <g
               id="g1308"
               style="fill:#e0d000;fill-opacity:1;stroke:#000000;stroke-width:1.34186566;stroke-miterlimit:4;stroke-dasharray:none;stroke-opacity:1">
              <path
                 id="path1306"
                 d="m 91.67129,277.90088 c 2.48201,20.85682 2.47354,30.75944 -0.10306,34.07044 -3.4305,4.13502 -6.07333,1.73815 -7.27524,-6.1719 -0.89323,-6.39397 3.4768,-35.01744 5.3225,-34.98458 0.67116,0.012 1.62114,3.21789 2.0558,7.08604 z"
                 inkscape:connector-curvature="0"
                 style="fill:#e0d000;fill-opacity:1;stroke:#000000;stroke-width:1.34186566;stroke-miterlimit:4;stroke-dasharray:none;stroke-opacity:1" />
            </g>
          </g>
        </g>
      </g>
    </g>
  </g>
</svg>
