<?xml version="1.0" encoding="UTF-8" standalone="no"?>
<!DOCTYPE svg PUBLIC "-//W3C//DTD SVG 1.1//EN" "http://www.w3.org/Graphics/SVG/1.1/DTD/svg11.dtd">
<svg xmlns:xl="http://www.w3.org/1999/xlink" xmlns="http://www.w3.org/2000/svg" xmlns:dc="http://purl.org/dc/elements/1.1/" version="1.1" viewBox="76.5 63 73.17036 342" width="73.17036" height="342">
  <defs>
    <clipPath id="artboard_clip_path">
      <path d="M 76.5 63 L 149.67036 63 L 149.67036 405 L 76.5 405 Z"/>
    </clipPath>
  </defs>
  <metadata> Produced by OmniGraffle 7.10.2 test 
    <dc:date>2019-03-17 21:53:40 +0000</dc:date>
  </metadata>
  <g id="Candle_Enflamed_(2)" fill="none" stroke-dasharray="none" stroke-opacity="1" fill-opacity="1" stroke="none">
    <title>Candle Enflamed (2)</title>
    <g id="Candle_Enflamed_(2): Layer 2" clip-path="url(#artboard_clip_path)">
      <title>Layer 2</title>
      <g id="Group_3">
        <g id="Graphic_9">
          <path d="M 108.15525 67.37453 C 110.87625 74.8081 109.73806 82.17296 105.26796 88.13575 C 95.64465 100.72054 95.91799 113.64938 105.74942 127.08407 C 110.66962 133.54974 110.43311 137.40593 105.01004 140.33056 C 102.47227 141.46029 101.13891 140.93302 98.17843 137.52343 C 93.24927 131.56114 87.53842 131.79515 83.39195 138.43508 C 78.55639 146.0698 78.77248 152.7874 83.76736 155.0583 C 88.42666 157.32322 88.90016 159.01008 90.90269 178.51561 C 93.33988 201.88928 90.71398 236.2505 83.24954 278.41422 C 79.51134 299.83167 79.68561 308.89833 83.75789 315.85243 C 85.54981 318.90552 87.44081 325.8208 88.01937 331.03424 C 89.29945 343.981 88.58796 374.5159 86.6143 391.0973 L 85.02403 405 L 95.61276 404.18146 C 101.49439 403.78265 110.4082 402.76645 115.45685 402.0171 C 120.33771 401.2648 126.04857 401.0308 128.05608 401.4022 C 129.89281 401.93845 134.91458 402.69923 138.9296 403.4421 C 144.78734 404.3856 145.96785 404.07093 144.4876 402.36614 C 143.50177 401.1737 142.23712 396.78723 141.80843 392.5835 C 139.30253 373.069 137.97763 362.6391 137.26116 355.74476 C 135.83719 341.4527 134.85235 302.4954 135.63654 286.73206 C 135.95967 278.00994 136.65922 248.1462 137.15214 220.46076 C 138.70558 133.20968 138.45713 137.73703 143.0497 124.89483 C 147.10905 113.72157 147.121 113.05041 144.32233 109.9794 C 140.20524 105.54216 137.15513 107.16629 129.57817 117.94123 L 123.19964 127.39476 L 121.48539 119.97911 C 120.54735 116.10201 120.14555 110.38817 120.52893 107.70949 C 123.4222 86.61269 123.3022 83.92506 119.09201 75.29007 C 115.53206 67.84156 110.91757 63.05978 107.56176 63.00003 C 107.05839 62.99107 107.35812 65.01053 108.15525 67.37453 Z" fill="black"/>
        </g>
        <g id="Graphic_8">
          <path d="M 117.92836 81.48133 C 119.19302 85.86778 119.44196 90.73968 118.51936 95.42288 C 117.7765 99.4379 116.95896 107.64769 116.68064 113.85296 C 116.04333 130.79383 112.32206 132.40601 105.17528 119.01911 C 100.14107 109.53023 101.13835 100.65227 108.71532 89.87733 C 110.95336 86.72814 112.8827 82.06287 112.92751 79.54601 C 113.047 72.83439 115.54594 73.88594 117.92836 81.48133 Z" fill="#f3f3f3"/>
        </g>
        <g id="Graphic_7">
          <path d="M 142.59822 112.96939 C 142.57432 114.31172 140.78588 120.49009 138.66186 126.6625 C 136.53485 133.00269 134.74343 139.34885 134.55174 140.68819 C 134.36005 142.02753 132.22408 148.8711 130.08811 155.71466 C 127.07435 164.72456 125.7624 172.42201 125.56224 183.66398 C 125.11065 199.6011 125.42233 200.9494 130.10852 201.7042 C 132.45161 202.0816 133.24874 204.44561 133.76755 213.01488 C 133.99857 218.89353 134.19972 226.45008 133.97517 229.6351 C 132.17876 255.11538 131.66443 331.13943 133.05853 347.1094 C 133.87707 357.69814 134.99833 370.13854 135.41806 374.84564 C 135.84077 379.38495 136.8988 385.9497 137.68099 389.15265 C 140.66885 400.45137 140.15054 401.28136 131.61712 399.7867 C 127.43132 399.20863 116.68675 399.353 107.93774 400.54 C 98.18199 401.70905 91.46738 401.75735 90.47856 400.7327 C 89.65455 399.8788 89.95677 392.3312 91.15471 381.61053 C 92.70914 369.7213 92.93618 356.9692 92.19232 342.18573 C 91.03771 322.19176 91.24732 319.8457 94.18938 314.86275 C 96.95469 310.3802 97.34404 307.36595 96.86706 296.4476 C 96.48916 289.39145 95.49387 279.3031 94.57675 274.25146 C 93.50378 268.52567 93.48487 250.7339 94.40348 227.41997 C 95.91161 189.84982 94.37312 163.13528 89.63515 146.4344 C 88.69114 142.89287 88.43025 138.69213 89.13128 137.02617 C 90.35361 134.36243 90.854 134.53919 94.3059 138.6289 C 98.57884 143.74028 105.43734 145.0373 109.36224 141.41462 C 110.5547 140.42879 113.78753 137.96869 116.33725 136.1678 C 123.81265 131.09774 129.79884 124.82626 136.35113 115.04014 C 139.62579 110.23097 142.66693 109.11021 142.59822 112.96939 Z" fill="#f3f3f3"/>
        </g>
        <g id="Graphic_6">
          <path d="M 86.51187 150.08227 C 86.47901 151.92797 85.78992 152.92276 84.79214 152.40146 C 83.96215 151.88316 83.15905 149.85473 83.19191 148.00904 C 83.22477 146.16334 84.08164 145.17153 84.91164 145.68984 C 85.90942 146.21114 86.54473 148.23657 86.51187 150.08227 Z" fill="#f3f3f3"/>
        </g>
        <g id="Graphic_5">
          <path d="M 134.67181 179.62438 C 135.15477 190.20714 134.56775 194.89631 132.67127 197.7159 C 128.53376 203.85244 127.30446 188.05324 130.63538 170.6568 C 132.10019 163.80129 132.27096 163.63648 133.37081 167.85216 C 133.99716 170.38097 134.57273 175.76221 134.67181 179.62438 Z" fill="#f3f3f3"/>
        </g>
        <g id="Graphic_4">
          <path d="M 91.67129 277.90088 C 94.1533 298.7577 94.14483 308.66032 91.56823 311.97132 C 88.13773 316.10634 85.4949 313.70947 84.29299 305.79942 C 83.39976 299.40545 87.76979 270.78198 89.61549 270.81484 C 90.28665 270.8268 91.23663 274.03273 91.67129 277.90088 Z" fill="#f3f3f3"/>
        </g>
      </g>
    </g>
  </g>
</svg>
