<?xml version="1.0" encoding="UTF-8" standalone="no"?>
<!-- Created with Inkscape (http://www.inkscape.org/) -->

<svg
   xmlns:dc="http://purl.org/dc/elements/1.1/"
   xmlns:cc="http://creativecommons.org/ns#"
   xmlns:rdf="http://www.w3.org/1999/02/22-rdf-syntax-ns#"
   xmlns:svg="http://www.w3.org/2000/svg"
   xmlns="http://www.w3.org/2000/svg"
   xmlns:sodipodi="http://sodipodi.sourceforge.net/DTD/sodipodi-0.dtd"
   xmlns:inkscape="http://www.inkscape.org/namespaces/inkscape"
   width="205.67194mm"
   height="203.20006mm"
   viewBox="0 0 205.67194 203.20006"
   version="1.1"
   id="svg1135"
   inkscape:version="0.92.3 (2405546, 2018-03-11)"
   sodipodi:docname="epona-of-unser-hafen.svg"
   inkscape:export-filename="/home/swarren/git_wa/sca-devices-badges/outlands/awards/unser-hafen/guardians-of-the-portcullis-of-unser-hafen.png"
   inkscape:export-xdpi="18.52"
   inkscape:export-ydpi="18.52">
  <defs
     id="defs1129">
    <clipPath
       clipPathUnits="userSpaceOnUse"
       id="clipPath1060">
      <circle
         style="opacity:1;vector-effect:none;fill:none;fill-opacity:1;fill-rule:nonzero;stroke:#000000;stroke-width:0.99999994;stroke-linecap:round;stroke-linejoin:bevel;stroke-miterlimit:4;stroke-dasharray:none;stroke-dashoffset:0;stroke-opacity:1"
         id="circle1062"
         cx="-244.68457"
         cy="327.80801"
         r="53.787991" />
    </clipPath>
    <clipPath
       clipPathUnits="userSpaceOnUse"
       id="clipPath1064">
      <circle
         r="53.787991"
         cy="327.80801"
         cx="-244.68457"
         id="circle1066"
         style="opacity:1;vector-effect:none;fill:none;fill-opacity:1;fill-rule:nonzero;stroke:#000000;stroke-width:0.99999994;stroke-linecap:round;stroke-linejoin:bevel;stroke-miterlimit:4;stroke-dasharray:none;stroke-dashoffset:0;stroke-opacity:1" />
    </clipPath>
    <clipPath
       clipPathUnits="userSpaceOnUse"
       id="clipPath1068">
      <circle
         style="opacity:1;vector-effect:none;fill:none;fill-opacity:1;fill-rule:nonzero;stroke:#000000;stroke-width:0.99999994;stroke-linecap:round;stroke-linejoin:bevel;stroke-miterlimit:4;stroke-dasharray:none;stroke-dashoffset:0;stroke-opacity:1"
         id="circle1070"
         cx="-244.68457"
         cy="327.80801"
         r="53.787991" />
    </clipPath>
    <clipPath
       clipPathUnits="userSpaceOnUse"
       id="clipPath1072">
      <circle
         r="53.787991"
         cy="327.80801"
         cx="-244.68457"
         id="circle1074"
         style="opacity:1;vector-effect:none;fill:none;fill-opacity:1;fill-rule:nonzero;stroke:#000000;stroke-width:0.99999994;stroke-linecap:round;stroke-linejoin:bevel;stroke-miterlimit:4;stroke-dasharray:none;stroke-dashoffset:0;stroke-opacity:1" />
    </clipPath>
    <clipPath
       id="artboard_clip_path">
      <path
         id="path1058"
         d="M 76.5 63 L 149.67036 63 L 149.67036 405 L 76.5 405 Z" />
    </clipPath>
    <clipPath
       clipPathUnits="userSpaceOnUse"
       id="clipPath1181">
      <ellipse
         style="opacity:1;vector-effect:none;fill:#e0d000;fill-opacity:1;fill-rule:nonzero;stroke:#000000;stroke-width:0.49999997;stroke-linecap:round;stroke-linejoin:bevel;stroke-miterlimit:4;stroke-dasharray:none;stroke-dashoffset:0;stroke-opacity:1"
         id="ellipse1183"
         cx="-194.29572"
         cy="197.06912"
         rx="39.781994"
         ry="10.488839" />
    </clipPath>
    <clipPath
       id="artboard_clip_path-6">
      <path
         id="path1288"
         d="M 141.75 61.652536 L 222.75 61.652536 L 222.75 415.34746 L 141.75 415.34746 Z" />
    </clipPath>
    <clipPath
       id="artboard_clip_path-7">
      <path
         id="path1387"
         d="M 49.5 85.5 L 315 85.5 L 315 367.3758 L 315 391.5 L 49.5 391.5 Z" />
    </clipPath>
  </defs>
  <sodipodi:namedview
     id="base"
     pagecolor="#ffffff"
     bordercolor="#666666"
     borderopacity="1.0"
     inkscape:pageopacity="0.0"
     inkscape:pageshadow="2"
     inkscape:zoom="1.4"
     inkscape:cx="382.98137"
     inkscape:cy="362.90879"
     inkscape:document-units="mm"
     inkscape:current-layer="layer1"
     showgrid="false"
     inkscape:window-width="3840"
     inkscape:window-height="2090"
     inkscape:window-x="0"
     inkscape:window-y="41"
     inkscape:window-maximized="1"
     fit-margin-top="0"
     fit-margin-left="0"
     fit-margin-right="0"
     fit-margin-bottom="0"
     inkscape:object-paths="false"
     inkscape:snap-intersection-paths="false"
     inkscape:object-nodes="false" />
  <metadata
     id="metadata1132">
    <rdf:RDF>
      <cc:Work
         rdf:about="">
        <dc:format>image/svg+xml</dc:format>
        <dc:type
           rdf:resource="http://purl.org/dc/dcmitype/StillImage" />
        <dc:title />
      </cc:Work>
    </rdf:RDF>
  </metadata>
  <g
     inkscape:label="Layer 1"
     inkscape:groupmode="layer"
     id="layer1"
     transform="translate(0.17727383,-1.9766568)">
    <g
       id="g1548">
      <g
         style="stroke-width:0.98781639"
         transform="matrix(1.0123064,0,0,1.0123614,-0.27452158,2.0804854)"
         id="g1863">
        <path
           style="fill:#228b22;fill-opacity:1;stroke:#000000;stroke-width:0.98781639;stroke-miterlimit:4;stroke-dasharray:none"
           d="M 0.58997582,0.39134741 V 180.49721 v 18.761 c 7.86272778,-9.3805 7.86257178,-9.3805 22.46478018,-18.761 v -22.51304 h 22.464781 v 22.51304 c 7.301104,9.3805 7.301416,9.3805 11.23278,18.761 3.931364,-9.3805 3.930896,-9.3805 11.232001,-18.761 v -22.51304 h 22.46478 v 22.51304 c 7.301104,9.3805 7.301416,9.3805 11.232782,18.761 3.93136,-9.3805 3.93167,-9.3805 11.23278,-18.761 v -22.51304 h 22.46478 v 22.51304 c 7.3011,9.3805 7.30064,9.3805 11.232,18.761 3.93136,-9.3805 3.93168,-9.3805 11.23278,-18.761 V 157.98417 H 180.309 v 22.51304 c 14.60221,9.3805 14.60205,9.3805 22.46478,18.761 V 180.49721 0.39134741 H 101.68188 Z M 23.054756,22.905153 H 45.519537 V 45.418196 H 23.054756 Z m 44.929562,0 h 22.46478 v 22.513043 h -22.46478 z m 44.930342,0 h 22.46478 v 22.513043 h -22.46478 z m 44.92956,0 H 180.309 V 45.418196 H 157.84422 Z M 23.054756,67.931239 H 45.519537 V 90.444281 H 23.054756 Z m 44.929562,0 h 22.46478 v 22.513042 h -22.46478 z m 44.930342,0 h 22.46478 v 22.513042 h -22.46478 z m 44.92956,0 H 180.309 V 90.444281 H 157.84422 Z M 23.054756,112.95732 h 22.464781 v 22.51381 H 23.054756 Z m 44.929562,0 h 22.46478 v 22.51381 h -22.46478 z m 44.930342,0 h 22.46478 v 22.51381 h -22.46478 z m 44.92956,0 H 180.309 v 22.51381 h -22.46478 z"
           id="path913"
           inkscape:connector-curvature="0" />
        <path
           style="stroke:#000000;stroke-width:0.4939082;stroke-miterlimit:4;stroke-dasharray:none"
           inkscape:connector-curvature="0"
           d="M 23.054556,22.904824 0.58962022,0.39163017"
           id="path917" />
        <path
           style="stroke:#000000;stroke-width:0.4939082;stroke-miterlimit:4;stroke-dasharray:none"
           inkscape:connector-curvature="0"
           d="M 45.519492,22.904824 56.75196,11.648227"
           id="path919" />
        <path
           style="stroke:#000000;stroke-width:0.4939082;stroke-miterlimit:4;stroke-dasharray:none"
           inkscape:connector-curvature="0"
           d="M 23.054556,45.418018 11.822088,56.674615"
           id="path921" />
        <path
           style="stroke:#000000;stroke-width:0.4939082;stroke-miterlimit:4;stroke-dasharray:none"
           inkscape:connector-curvature="0"
           d="M 67.984428,22.904824 56.75196,11.648227"
           id="path923" />
        <path
           style="stroke:#000000;stroke-width:0.4939082;stroke-miterlimit:4;stroke-dasharray:none"
           inkscape:connector-curvature="0"
           d="M 90.449364,22.904824 101.68183,11.648227"
           id="path925" />
        <path
           style="stroke:#000000;stroke-width:0.4939082;stroke-miterlimit:4;stroke-dasharray:none"
           inkscape:connector-curvature="0"
           d="M 112.9143,22.904824 101.68183,11.648227"
           id="path927" />
        <path
           style="stroke:#000000;stroke-width:0.4939082;stroke-miterlimit:4;stroke-dasharray:none"
           inkscape:connector-curvature="0"
           d="M 135.37924,22.904824 146.6117,11.648227"
           id="path929" />
        <path
           style="stroke:#000000;stroke-width:0.4939082;stroke-miterlimit:4;stroke-dasharray:none"
           inkscape:connector-curvature="0"
           d="M 157.84417,22.904824 146.6117,11.648227"
           id="path931" />
        <path
           style="stroke:#000000;stroke-width:0.4939082;stroke-miterlimit:4;stroke-dasharray:none"
           inkscape:connector-curvature="0"
           d="m 180.30911,45.418018 11.23247,11.256597"
           id="path933" />
        <path
           style="stroke:#000000;stroke-width:0.4939082;stroke-miterlimit:4;stroke-dasharray:none"
           inkscape:connector-curvature="0"
           d="M 180.30911,22.904824 202.77404,0.39163017"
           id="path935" />
        <path
           style="stroke:#000000;stroke-width:0.4939082;stroke-miterlimit:4;stroke-dasharray:none"
           inkscape:connector-curvature="0"
           d="M 23.054556,67.931212 11.822088,56.674615"
           id="path937" />
        <path
           style="stroke:#000000;stroke-width:0.4939082;stroke-miterlimit:4;stroke-dasharray:none"
           inkscape:connector-curvature="0"
           d="M 45.519492,67.931212 67.984428,45.418018"
           id="path939" />
        <path
           style="stroke:#000000;stroke-width:0.4939082;stroke-miterlimit:4;stroke-dasharray:none"
           inkscape:connector-curvature="0"
           d="M 23.054556,90.444406 11.822088,101.701"
           id="path941" />
        <path
           style="stroke:#000000;stroke-width:0.4939082;stroke-miterlimit:4;stroke-dasharray:none"
           inkscape:connector-curvature="0"
           d="M 67.984428,67.931212 45.519492,45.418018"
           id="path943" />
        <path
           style="stroke:#000000;stroke-width:0.4939082;stroke-miterlimit:4;stroke-dasharray:none"
           inkscape:connector-curvature="0"
           d="M 90.449364,67.931212 112.9143,45.418018"
           id="path945" />
        <path
           style="stroke:#000000;stroke-width:0.4939082;stroke-miterlimit:4;stroke-dasharray:none"
           inkscape:connector-curvature="0"
           d="M 112.9143,67.931212 90.449364,45.418018"
           id="path947" />
        <path
           style="stroke:#000000;stroke-width:0.4939082;stroke-miterlimit:4;stroke-dasharray:none"
           inkscape:connector-curvature="0"
           d="M 135.37924,67.931212 157.84417,45.418018"
           id="path949" />
        <path
           style="stroke:#000000;stroke-width:0.4939082;stroke-miterlimit:4;stroke-dasharray:none"
           inkscape:connector-curvature="0"
           d="M 157.84417,67.931212 135.37924,45.418018"
           id="path951" />
        <path
           style="stroke:#000000;stroke-width:0.4939082;stroke-miterlimit:4;stroke-dasharray:none"
           inkscape:connector-curvature="0"
           d="M 180.30911,90.444406 191.54158,101.701"
           id="path953" />
        <path
           style="stroke:#000000;stroke-width:0.4939082;stroke-miterlimit:4;stroke-dasharray:none"
           inkscape:connector-curvature="0"
           d="M 180.30911,67.931212 191.54158,56.674615"
           id="path955" />
        <path
           style="stroke:#000000;stroke-width:0.4939082;stroke-miterlimit:4;stroke-dasharray:none"
           inkscape:connector-curvature="0"
           d="M 23.054556,112.9576 11.822088,101.701"
           id="path957" />
        <path
           style="stroke:#000000;stroke-width:0.4939082;stroke-miterlimit:4;stroke-dasharray:none"
           inkscape:connector-curvature="0"
           d="M 45.519492,112.9576 67.984428,90.444406"
           id="path959" />
        <path
           style="stroke:#000000;stroke-width:0.4939082;stroke-miterlimit:4;stroke-dasharray:none"
           inkscape:connector-curvature="0"
           d="m 23.054556,135.47079 -11.232468,11.2566"
           id="path961" />
        <path
           style="stroke:#000000;stroke-width:0.4939082;stroke-miterlimit:4;stroke-dasharray:none"
           inkscape:connector-curvature="0"
           d="M 67.984428,112.9576 45.519492,90.444406"
           id="path963" />
        <path
           style="stroke:#000000;stroke-width:0.4939082;stroke-miterlimit:4;stroke-dasharray:none"
           inkscape:connector-curvature="0"
           d="M 90.449364,112.9576 112.9143,90.444406"
           id="path965" />
        <path
           style="stroke:#000000;stroke-width:0.4939082;stroke-miterlimit:4;stroke-dasharray:none"
           inkscape:connector-curvature="0"
           d="M 112.9143,112.9576 90.449364,90.444406"
           id="path967" />
        <path
           style="stroke:#000000;stroke-width:0.4939082;stroke-miterlimit:4;stroke-dasharray:none"
           inkscape:connector-curvature="0"
           d="M 135.37924,112.9576 157.84417,90.444406"
           id="path969" />
        <path
           style="stroke:#000000;stroke-width:0.4939082;stroke-miterlimit:4;stroke-dasharray:none"
           inkscape:connector-curvature="0"
           d="M 157.84417,112.9576 135.37924,90.444406"
           id="path971" />
        <path
           style="stroke:#000000;stroke-width:0.4939082;stroke-miterlimit:4;stroke-dasharray:none"
           inkscape:connector-curvature="0"
           d="m 180.30911,135.47079 11.23247,11.2566"
           id="path973" />
        <path
           style="stroke:#000000;stroke-width:0.4939082;stroke-miterlimit:4;stroke-dasharray:none"
           inkscape:connector-curvature="0"
           d="M 180.30911,112.9576 191.54158,101.701"
           id="path975" />
        <path
           style="stroke:#000000;stroke-width:0.4939082;stroke-miterlimit:4;stroke-dasharray:none"
           inkscape:connector-curvature="0"
           d="M 23.054556,157.98399 11.822088,146.72739"
           id="path977" />
        <path
           style="stroke:#000000;stroke-width:0.4939082;stroke-miterlimit:4;stroke-dasharray:none"
           inkscape:connector-curvature="0"
           d="m 45.519492,157.98399 22.464936,-22.5132"
           id="path979" />
        <path
           style="stroke:#000000;stroke-width:0.4939082;stroke-miterlimit:4;stroke-dasharray:none"
           inkscape:connector-curvature="0"
           d="M 67.984428,157.98399 45.519492,135.47079"
           id="path981" />
        <path
           style="stroke:#000000;stroke-width:0.4939082;stroke-miterlimit:4;stroke-dasharray:none"
           inkscape:connector-curvature="0"
           d="M 90.449364,157.98399 112.9143,135.47079"
           id="path983" />
        <path
           style="stroke:#000000;stroke-width:0.4939082;stroke-miterlimit:4;stroke-dasharray:none"
           inkscape:connector-curvature="0"
           d="M 112.9143,157.98399 90.449364,135.47079"
           id="path985" />
        <path
           style="stroke:#000000;stroke-width:0.4939082;stroke-miterlimit:4;stroke-dasharray:none"
           inkscape:connector-curvature="0"
           d="m 135.37924,157.98399 22.46493,-22.5132"
           id="path987" />
        <path
           style="stroke:#000000;stroke-width:0.4939082;stroke-miterlimit:4;stroke-dasharray:none"
           inkscape:connector-curvature="0"
           d="m 157.84417,157.98399 -22.46493,-22.5132"
           id="path989" />
        <path
           style="stroke:#000000;stroke-width:0.4939082;stroke-miterlimit:4;stroke-dasharray:none"
           inkscape:connector-curvature="0"
           d="m 180.30911,157.98399 11.23247,-11.2566"
           id="path991" />
      </g>
      <g
         style="fill:#e0d000;fill-opacity:1;stroke:#000000;stroke-width:1.10217071;stroke-miterlimit:4;stroke-dasharray:none;stroke-opacity:1"
         transform="matrix(0.45373469,0,0,0.45356581,27.903347,-13.649722)"
         id="Stirrup_(2)">
        <title
           id="title1394">Stirrup (2)</title>
        <g
           style="fill:#e0d000;fill-opacity:1;stroke:#000000;stroke-width:1.10217071;stroke-miterlimit:4;stroke-dasharray:none;stroke-opacity:1"
           id="Stirrup_(2): Layer 2"
           clip-path="url(#artboard_clip_path-7)">
          <title
             id="title1396">Layer 2</title>
          <g
             style="fill:#e0d000;fill-opacity:1;stroke:#000000;stroke-width:1.10217071;stroke-miterlimit:4;stroke-dasharray:none;stroke-opacity:1"
             id="Group_465">
            <g
               style="fill:#e0d000;fill-opacity:1;stroke:#000000;stroke-width:1.10217071;stroke-miterlimit:4;stroke-dasharray:none;stroke-opacity:1"
               id="Graphic_478">
              <path
                 style="fill:#e0d000;fill-opacity:1;stroke:#000000;stroke-width:1.10217071;stroke-miterlimit:4;stroke-dasharray:none;stroke-opacity:1"
                 inkscape:connector-curvature="0"
                 d="m 189.7909,164.61998 c 2.00212,3.73727 3.47034,7.07412 3.20339,7.34107 -0.26695,0.40042 -3.06991,-0.13347 -6.13981,-0.93432 -5.33896,-1.46821 -5.60591,-1.73516 -4.80507,-5.60591 0.40042,-2.26906 0.80085,-4.93854 0.80085,-5.87286 0,-4.00422 3.47032,-1.46822 6.94064,5.07202 z"
                 id="path1398" />
            </g>
            <g
               style="fill:#e0d000;fill-opacity:1;stroke:#000000;stroke-width:1.10217071;stroke-miterlimit:4;stroke-dasharray:none;stroke-opacity:1"
               id="Graphic_477">
              <path
                 style="fill:#e0d000;fill-opacity:1;stroke:#000000;stroke-width:1.10217071;stroke-miterlimit:4;stroke-dasharray:none;stroke-opacity:1"
                 inkscape:connector-curvature="0"
                 d="m 149.4703,90.53733 c -10.14403,1.60169 -26.16092,14.01479 -31.23294,24.29229 -5.60591,11.07835 -7.07413,33.36853 -3.33685,48.85152 0.66737,2.93643 2.66948,9.20972 4.40464,14.01478 1.73517,4.80508 3.87075,11.07835 4.80507,14.01478 0.93432,2.93643 2.00211,6.00634 2.26906,6.94066 0.40042,0.93432 -1.33474,1.86864 -4.53812,2.53601 -12.54656,2.26906 -19.75416,9.34318 -24.55923,24.55923 -2.26906,6.94065 -11.47878,36.97233 -20.15459,66.06968 -8.40887,27.89609 -17.08469,54.19049 -22.95755,69.40652 -3.203376,8.4089 -2.802954,14.28174 1.60169,18.28597 5.07202,4.93853 10.14403,6.54023 19.620695,6.27328 4.404645,-0.13348 29.230825,0.26695 55.258275,0.80085 32.30074,0.66736 49.25195,0.5339 54.05701,-0.40043 3.73728,-0.80084 17.08469,-2.13557 29.49778,-2.93643 27.36219,-1.86864 44.58036,-4.67159 52.72226,-8.54234 5.33898,-2.6695 6.13982,-3.6038 7.2076,-8.94277 1.0678,-5.60593 0.66738,-6.80718 -7.0741,-22.55713 -4.40466,-9.2097 -8.14193,-17.4851 -8.14193,-18.4194 0,-1.0678 -0.93432,-3.47034 -2.00212,-5.33898 -1.06779,-2.00212 -5.33895,-12.01267 -9.47665,-22.29018 -4.00423,-10.2775 -8.14193,-19.88764 -9.07625,-21.35584 -0.93432,-1.46823 -4.27117,-8.67583 -7.34107,-16.0169 -8.40888,-19.75417 -18.01901,-36.83886 -24.15881,-42.97866 l -5.47244,-5.33897 4.80507,-8.54234 c 7.47454,-13.08046 7.2076,-12.94699 16.28384,-7.60803 16.41731,9.74361 44.98076,23.09102 61.53156,28.56346 5.7394,2.00211 11.8792,4.40464 14.01478,5.33897 3.6038,2.00211 3.6038,1.86863 8.94276,-6.40676 6.67371,-10.67793 7.2076,-17.48511 1.73516,-22.55712 -4.0042,-3.6038 -5.87286,-4.40465 -29.76472,-13.61436 -16.01688,-6.27329 -44.17993,-19.35375 -48.58458,-22.69059 -2.40253,-1.73517 -2.536,-2.26907 -0.66736,-5.07203 3.87075,-6.27327 7.2076,-18.41942 5.73938,-20.95543 -1.46822,-2.26906 -7.07412,-4.67159 -14.14825,-6.13981 -2.80297,-0.66737 -3.87075,-1.86863 -4.53812,-5.47243 C 214.8726,116.16436 203.92774,102.95043 192.58244,97.07757 182.4384,91.87208 161.08255,88.6687 149.4703,90.53733 Z m 16.95121,153.36175 v 0 c 3.73728,0.53389 5.20549,2.13558 11.61225,12.41309 9.47666,15.483 13.74784,24.02533 22.55712,45.51467 4.00422,9.87708 8.40887,20.28806 9.74362,23.09102 2.0021,4.27117 2.13558,5.33896 0.5339,6.27328 -4.40466,2.66948 -98.5039,6.27328 -100.77296,3.73726 -0.40042,-0.4004 12.54656,-40.5761 18.95332,-58.46164 2.26906,-6.27328 5.73939,-16.01689 7.7415,-21.62281 3.06991,-8.94275 4.00422,-10.2775 7.07413,-10.67792 6.00633,-0.80085 18.01901,-0.93433 22.55712,-0.26695 z m 5.73939,-118.92543 3.33685,1.73517 -3.47033,1.46821 c -4.00422,1.46822 -4.80506,5.20549 -8.00844,34.43632 -1.73516,16.68426 -1.06779,21.75628 2.80295,21.75628 1.33475,0 2.93643,0.66737 3.33686,1.33474 1.20126,2.00211 -3.47033,14.68215 -5.33897,14.68215 -3.47032,0 -13.8813,-24.15882 -18.019,-42.04434 -2.40253,-10.14403 -2.53601,-12.94699 -1.20127,-19.35375 1.46822,-7.47455 5.07202,-12.68003 9.87709,-14.68215 4.13769,-1.73516 12.94698,-1.46821 16.68426,0.66737 z m 17.61858,39.64181 v 0 c 2.00212,3.73728 3.47032,7.07413 3.20338,7.34108 -0.26696,0.40042 -3.06991,-0.13348 -6.13981,-0.93432 -5.33896,-1.46822 -5.60591,-1.73517 -4.80507,-5.60592 0.40042,-2.26905 0.80085,-4.93854 0.80085,-5.87285 0,-4.00423 3.47032,-1.46822 6.94065,5.07201 z m -30.96599,-57.66081 v 0 c 0,0.66737 -0.53389,1.33474 -1.33474,1.33474 -0.66737,0 -1.33475,-0.66737 -1.33475,-1.33474 0,-0.80085 0.66738,-1.33474 1.33475,-1.33474 0.80085,0 1.33474,0.53389 1.33474,1.33474 z m 24.02534,3.47033 v 0 c 0,1.06779 -0.5339,1.60169 -1.33474,1.20126 -0.66737,-0.40042 -1.33475,-1.33474 -1.33475,-2.13558 0,-0.66737 0.66738,-1.20127 1.33475,-1.20127 0.80084,0 1.33474,0.93432 1.33474,2.13559 z m -46.71594,5.87286 v 0 c 0,0.66736 -0.93432,1.33474 -2.13559,1.33474 -1.06779,0 -1.60168,-0.66738 -1.20126,-1.33474 0.40042,-0.80085 1.33474,-1.33474 2.13558,-1.33474 0.66738,0 1.20127,0.53389 1.20127,1.33474 z m 74.07813,46.71593 v 0 c 0.40042,0.66737 0.13348,1.33474 -0.5339,1.33474 -0.80084,0 -1.46822,-0.66737 -1.46822,-1.33474 0,-0.80084 0.26695,-1.33474 0.5339,-1.33474 0.40043,0 1.0678,0.5339 1.46822,1.33474 z m 19.35374,16.55079 v 0 c 0,0.40042 -0.53389,1.06779 -1.33474,1.46822 -0.66737,0.40042 -1.33474,0.13347 -1.33474,-0.5339 0,-0.80085 0.66737,-1.46822 1.33474,-1.46822 0.80085,0 1.33474,0.26695 1.33474,0.5339 z m 25.36008,12.01267 v 0 c 0,0.40042 -0.53389,1.06779 -1.33474,1.46822 -0.66737,0.40042 -1.33474,0.13347 -1.33474,-0.5339 0,-0.80085 0.66737,-1.46822 1.33474,-1.46822 0.80085,0 1.33474,0.26695 1.33474,0.5339 z"
                 id="path1401" />
            </g>
            <g
               style="fill:#e0d000;fill-opacity:1;stroke:#000000;stroke-width:1.10217071;stroke-miterlimit:4;stroke-dasharray:none;stroke-opacity:1"
               id="Graphic_476">
              <path
                 style="fill:#e0d000;fill-opacity:1;stroke:#000000;stroke-width:1.10217071;stroke-miterlimit:4;stroke-dasharray:none;stroke-opacity:1"
                 inkscape:connector-curvature="0"
                 d="m 180.70324,96.94409 v 0 c -6.54024,-2.13558 -21.08891,-3.20338 -29.8982,-2.00211 -6.13981,0.80084 -16.15036,6.27328 -20.55501,11.21182 -8.27539,9.34319 -13.74783,30.966 -11.47877,45.51467 1.86864,12.27963 8.14192,32.56768 11.3453,36.70538 0.80084,1.06779 2.536,4.1377 3.73727,6.80718 2.53601,5.60591 4.27117,6.54023 11.61225,6.54023 9.47666,0 11.47877,-2.80296 7.47455,-10.41098 -5.73939,-10.8114 -14.14826,-39.64181 -14.14826,-48.58457 0,-4.80507 3.33686,-15.34952 5.73939,-18.15248 0.80084,-0.93432 3.87074,-3.0699 6.80718,-4.53812 4.27117,-2.13558 6.6737,-2.53601 12.54656,-1.86864 7.2076,0.80085 14.4152,3.73728 16.95122,6.80718 1.60168,2.00211 9.20971,3.6038 12.14614,2.40254 1.06779,-0.40043 2.66948,-2.26906 3.33684,-4.00423 1.6017,-4.27117 5.2055,-3.6038 7.87498,1.60169 2.40254,4.80507 3.87075,6.00634 6.27329,5.07202 6.94065,-2.66948 -7.34107,-24.15881 -19.48722,-29.23083 -2.53601,-1.06779 -7.07413,-2.80296 -10.27751,-3.87075 z m -27.36219,8.14192 v 0 c 2.00211,-2.40253 7.47455,-2.80295 8.80929,-0.80084 1.33474,2.13558 -3.20338,8.27539 -5.60591,7.7415 -3.47033,-0.66737 -5.20549,-4.53812 -3.20338,-6.94066 z m 24.15881,3.33685 v 0 c 1.86864,-3.6038 4.80507,-3.6038 6.67371,0 2.00211,3.47033 0.80084,6.54024 -2.40254,6.54024 -4.00422,0 -6.1398,-3.20338 -4.27117,-6.54024 z m -46.71593,5.87286 v 0 c 2.40253,-2.93642 8.00844,-2.536 8.00844,0.40043 0,3.0699 -2.536,5.60591 -5.60591,5.60591 -3.20338,0 -4.53812,-3.47033 -2.40253,-6.00634 z"
                 id="path1404" />
            </g>
            <g
               style="fill:#e0d000;fill-opacity:1;stroke:#000000;stroke-width:1.10217071;stroke-miterlimit:4;stroke-dasharray:none;stroke-opacity:1"
               id="Graphic_475">
              <path
                 style="fill:#e0d000;fill-opacity:1;stroke:#000000;stroke-width:1.10217071;stroke-miterlimit:4;stroke-dasharray:none;stroke-opacity:1"
                 inkscape:connector-curvature="0"
                 d="m 199.25614,129.9122 c -1.33474,7.2076 -3.87074,13.61435 -5.47244,14.14825 -2.40253,0.80085 -1.86863,-3.20338 1.0678,-9.34319 1.4682,-3.0699 2.66948,-6.40676 2.66948,-7.34107 0,-0.93432 0.53389,-1.73517 1.33474,-1.73517 0.66738,0 0.93432,1.86864 0.40042,4.27118 z"
                 id="path1407" />
            </g>
            <g
               style="fill:#e0d000;fill-opacity:1;stroke:#000000;stroke-width:1.10217071;stroke-miterlimit:4;stroke-dasharray:none;stroke-opacity:1"
               id="Graphic_474">
              <path
                 style="fill:#e0d000;fill-opacity:1;stroke:#000000;stroke-width:1.10217071;stroke-miterlimit:4;stroke-dasharray:none;stroke-opacity:1"
                 inkscape:connector-curvature="0"
                 d="m 202.45952,141.2575 c -1.73516,5.20548 -4.93854,7.60802 -4.93854,3.6038 0,-1.33475 0.53389,-4.1377 1.33474,-6.40676 0.66738,-2.26906 1.60168,-6.00634 2.13558,-8.14192 l 0.93432,-4.00422 1.0678,4.93854 c 0.80084,3.33685 0.53389,6.6737 -0.5339,10.01056 z"
                 id="path1410" />
            </g>
            <g
               style="fill:#e0d000;fill-opacity:1;stroke:#000000;stroke-width:1.10217071;stroke-miterlimit:4;stroke-dasharray:none;stroke-opacity:1"
               id="Graphic_473">
              <path
                 style="fill:#e0d000;fill-opacity:1;stroke:#000000;stroke-width:1.10217071;stroke-miterlimit:4;stroke-dasharray:none;stroke-opacity:1"
                 inkscape:connector-curvature="0"
                 d="m 192.7159,132.04778 c 0.40043,0.66737 -0.40041,3.33685 -1.60168,6.00633 -1.60169,3.20339 -3.33685,4.93855 -5.47244,5.20549 -2.80295,0.40043 -3.87075,2.00212 -7.07412,11.74573 -5.47244,16.95121 -5.73939,16.55078 7.07412,18.68637 11.61225,2.00211 21.30557,9.26843 20.6382,13.80655 -0.40042,3.20337 -8.49205,-1.92735 -22.77378,-4.32989 -16.5508,-2.66948 -15.34952,-1.86864 -15.34952,-10.54446 0,-11.61224 4.00422,-39.50833 5.73938,-40.57612 2.13559,-1.33474 18.01901,-1.33474 18.81984,0 z"
                 id="path1413" />
            </g>
            <g
               style="fill:#e0d000;fill-opacity:1;stroke:#000000;stroke-width:1.10217071;stroke-miterlimit:4;stroke-dasharray:none;stroke-opacity:1"
               id="Graphic_472">
              <path
                 style="fill:#e0d000;fill-opacity:1;stroke:#000000;stroke-width:1.10217071;stroke-miterlimit:4;stroke-dasharray:none;stroke-opacity:1"
                 inkscape:connector-curvature="0"
                 d="m 223.28148,136.71937 c 6.54022,1.20127 7.60802,1.86864 7.60802,4.40465 0,3.47033 -4.53812,14.54868 -6.40675,15.74994 -1.86865,1.0678 -4.00423,-1.86863 -4.53812,-6.54023 -0.40043,-3.73727 -0.93433,-4.13769 -7.34108,-5.20549 -6.80718,-1.06779 -6.94065,-1.20126 -6.80718,-5.60591 0.13348,-4.53812 3.20338,-6.40676 7.7415,-4.80507 1.06779,0.40042 5.47243,1.33474 9.74361,2.00211 z"
                 id="path1416" />
            </g>
            <g
               style="fill:#e0d000;fill-opacity:1;stroke:#000000;stroke-width:1.10217071;stroke-miterlimit:4;stroke-dasharray:none;stroke-opacity:1"
               id="Graphic_471">
              <path
                 style="fill:#e0d000;fill-opacity:1;stroke:#000000;stroke-width:1.10217071;stroke-miterlimit:4;stroke-dasharray:none;stroke-opacity:1"
                 inkscape:connector-curvature="0"
                 d="m 190.84727,146.72993 v 0 c 0,-1.20127 -1.86863,-1.46821 -2.93643,-0.26695 -1.06779,1.0678 2.40254,8.67582 8.67582,18.81985 9.61014,15.88342 24.15881,25.36007 66.06968,43.64603 6.13981,2.66949 11.8792,4.80507 12.94699,4.80507 1.33474,0 5.07201,-7.07413 9.61013,-18.28595 0.26694,-0.80085 -0.80084,-1.86864 -2.536,-2.40253 -1.73516,-0.5339 -10.81141,-4.40465 -20.42154,-8.8093 -31.63336,-14.14825 -41.2435,-20.42153 -45.51467,-29.76472 l -2.53601,-5.07202 -8.54234,0.66737 c -8.14192,0.66737 -14.81563,-0.80084 -14.81563,-3.33685 z m 15.74995,13.74783 v 0 c 3.0699,-1.86863 5.07201,-1.73516 6.6737,0.26695 2.40254,2.93643 -1.46822,7.34108 -5.73938,6.67371 -3.87075,-0.80085 -4.53812,-4.93854 -0.93432,-6.94066 z m 19.35374,16.0169 v 0 c 3.6038,-1.33474 5.87286,-0.5339 7.60803,2.66948 1.06779,1.86864 0.66737,2.80296 -1.60169,4.40464 -3.73728,2.66949 -4.40465,2.66949 -6.94066,0 -2.93644,-2.93643 -2.66948,-5.73938 0.93432,-7.07412 z m 23.62492,14.68214 v 0 c 1.73516,-3.33684 7.7415,-3.73727 8.94276,-0.80084 0.80086,2.26906 -3.0699,7.34108 -5.60591,7.34108 -3.20338,0 -4.93853,-3.6038 -3.33685,-6.54024 z"
                 id="path1419" />
            </g>
            <g
               style="fill:#e0d000;fill-opacity:1;stroke:#000000;stroke-width:1.10217071;stroke-miterlimit:4;stroke-dasharray:none;stroke-opacity:1"
               id="Graphic_470">
              <path
                 style="fill:#e0d000;fill-opacity:1;stroke:#000000;stroke-width:1.10217071;stroke-miterlimit:4;stroke-dasharray:none;stroke-opacity:1"
                 inkscape:connector-curvature="0"
                 d="m 186.97652,189.1747 c 5.07202,1.0678 9.20972,2.40253 9.20972,2.80295 0,0.40042 -2.53601,5.60591 -5.47244,11.61225 -3.0699,5.87286 -6.00634,11.74572 -6.54023,12.81351 -1.20127,2.66949 -6.54023,3.73729 -18.68637,3.73729 -8.40887,0 -9.47667,-0.26696 -6.40676,-1.46823 3.87075,-1.46821 8.14192,-9.07624 13.21393,-23.35797 1.60169,-4.53811 3.47033,-8.2754 4.1377,-8.2754 0.66737,0 5.33896,0.93433 10.54445,2.1356 z"
                 id="path1422" />
            </g>
            <g
               style="fill:#e0d000;fill-opacity:1;stroke:#000000;stroke-width:1.10217071;stroke-miterlimit:4;stroke-dasharray:none;stroke-opacity:1"
               id="Graphic_469">
              <path
                 style="fill:#e0d000;fill-opacity:1;stroke:#000000;stroke-width:1.10217071;stroke-miterlimit:4;stroke-dasharray:none;stroke-opacity:1"
                 inkscape:connector-curvature="0"
                 d="m 203.44366,193.87997 c 0,0.80084 -1.25109,3.97054 -3.7871,8.90908 -4.40464,8.8093 -9.34318,14.81563 -10.94487,13.21395 -1.06779,-0.93433 8.99258,-21.05524 11.12817,-22.38998 2.26906,-1.46822 4.35482,-2.83663 4.35482,-1.23495 z"
                 id="path1425" />
            </g>
            <g
               style="fill:#e0d000;fill-opacity:1;stroke:#000000;stroke-width:1.10217071;stroke-miterlimit:4;stroke-dasharray:none;stroke-opacity:1"
               id="Graphic_468">
              <path
                 style="fill:#e0d000;fill-opacity:1;stroke:#000000;stroke-width:1.10217071;stroke-miterlimit:4;stroke-dasharray:none;stroke-opacity:1"
                 inkscape:connector-curvature="0"
                 d="m 295.8914,197.31662 c 8.1419,3.73728 12.4131,7.07412 12.4131,9.87708 0,3.20338 -1.46823,3.20338 -5.7394,-0.13347 -6.54023,-5.07203 -7.07413,-1.86863 -0.66737,3.87074 2.40253,2.13559 4.00422,4.40465 3.33685,4.93855 -0.53388,0.53389 -1.73518,0.26694 -2.53601,-0.5339 -2.00211,-2.00212 -6.40677,-2.13559 -6.40677,-0.26695 0,0.66737 0.80086,1.33474 1.86865,1.33474 2.66948,0 5.20549,3.6038 4.27117,6.13981 -0.53389,1.60168 -1.33474,1.73517 -2.53602,0.80085 -0.80083,-0.80085 -5.20548,-2.53601 -9.61012,-4.00423 -9.87708,-3.0699 -10.41098,-5.07201 -4.67158,-16.15036 2.40252,-4.53812 4.5381,-8.14192 4.80505,-8.14192 0.26695,0 2.66949,1.06779 5.47245,2.26906 z"
                 id="path1428" />
            </g>
            <g
               style="fill:#e0d000;fill-opacity:1;stroke:#000000;stroke-width:1.10217071;stroke-miterlimit:4;stroke-dasharray:none;stroke-opacity:1"
               id="Graphic_467">
              <path
                 style="fill:#e0d000;fill-opacity:1;stroke:#000000;stroke-width:1.10217071;stroke-miterlimit:4;stroke-dasharray:none;stroke-opacity:1"
                 inkscape:connector-curvature="0"
                 d="m 161.48297,208.92886 c 0,3.33686 -3.87075,5.07202 -14.28173,6.27329 -11.21182,1.46821 -19.88764,4.67159 -23.22449,8.67581 -1.06779,1.33474 -4.00423,8.54234 -6.40676,15.88342 -4.27117,13.34742 -4.80507,14.81562 -8.54234,23.35797 -8.54235,19.75415 -25.89398,83.15435 -23.89187,87.42555 1.33475,2.80294 2.66949,2.9364 46.71594,4.6716 25.09313,0.9343 51.65448,1.3347 59.2625,0.80082 16.15038,-1.20126 31.63336,-4.00422 34.0359,-6.40675 2.40253,-2.53601 -0.5339,-12.54657 -9.47666,-31.63337 -4.1377,-8.6758 -7.47456,-16.28384 -7.47456,-16.68426 0,-0.80084 -8.00844,-17.88554 -20.82195,-44.58034 -4.00423,-8.40888 -7.20761,-16.0169 -7.20761,-17.0847 0,-1.4682 -3.0699,-1.86863 -15.61647,-2.0021 -19.75417,-0.26695 -27.49566,0.13347 -28.8304,1.33474 -1.06779,1.06779 -9.34319,23.49144 -15.61647,42.84518 -2.00211,6.27328 -6.40676,18.95333 -9.74361,28.29651 -3.33685,9.34319 -6.54023,19.6207 -6.94065,22.95755 -0.93432,5.60592 -0.66737,6.13982 2.26906,7.34107 4.00422,1.46822 79.55056,0.5339 97.56956,-1.20125 7.34108,-0.80086 13.74784,-0.93433 14.41521,-0.5339 0.66737,0.4004 1.20126,1.73515 1.20126,3.0699 0,2.93643 -2.13558,3.33685 -29.23083,5.6059 -18.68637,1.6017 -98.10346,1.20127 -99.70515,-0.5339 -1.86864,-1.73515 11.8792,-52.9892 20.68849,-77.41497 8.27539,-23.09103 9.20971,-25.7605 10.94487,-31.23293 2.66949,-9.20972 6.00634,-13.61437 12.68004,-16.41732 7.47455,-3.33686 10.67793,-3.33686 12.4131,-0.40043 1.06779,2.00212 3.87075,2.40255 19.62069,2.66949 10.14403,0.26695 18.81985,0.80084 19.35374,1.46821 1.73517,1.86865 8.94277,15.88342 13.08047,25.36008 2.40253,5.33897 6.27328,13.21394 8.80929,17.35163 2.536,4.27118 6.00633,11.8792 7.87496,17.08469 2.00212,5.07202 4.00423,10.41098 4.6716,11.87919 4.40465,10.01056 14.81563,35.10369 14.81563,35.90454 0,0.66737 2.40253,6.00632 5.33897,11.87919 5.20548,10.81141 8.40886,22.1567 6.80717,24.69273 -2.66947,4.27115 -64.73494,8.27538 -125.59913,8.1419 -47.650255,0 -57.92776,-0.80084 -60.19682,-4.1377 -1.468215,-2.40253 1.60169,-17.4851 5.47244,-26.6948 2.26906,-5.33898 6.13981,-16.5508 8.675815,-24.95967 2.402535,-8.54233 6.807175,-22.42365 9.743605,-30.83253 5.20549,-14.68214 8.14192,-23.89185 17.61859,-54.72437 6.94065,-22.42365 10.2775,-27.36219 18.68637,-28.42999 2.53601,-0.26694 12.68004,-0.66737 22.42365,-0.66737 14.14825,-0.26694 17.61858,0.13348 17.61858,1.60169 z"
                 id="path1431" />
            </g>
            <g
               style="fill:#e0d000;fill-opacity:1;stroke:#000000;stroke-width:1.10217071;stroke-miterlimit:4;stroke-dasharray:none;stroke-opacity:1"
               id="Graphic_466">
              <path
                 style="fill:#e0d000;fill-opacity:1;stroke:#000000;stroke-width:1.10217071;stroke-miterlimit:4;stroke-dasharray:none;stroke-opacity:1"
                 inkscape:connector-curvature="0"
                 d="m 203.79426,222.00933 c 4.93854,5.33897 16.01689,26.02745 21.75628,40.44265 2.40253,5.87286 6.40676,14.81562 8.94276,19.88764 2.536,5.07202 5.7394,12.27962 7.07413,16.01688 3.87075,10.9449 17.08469,42.3113 20.55501,48.85153 6.27329,11.8792 5.60592,17.48511 -2.66948,19.48722 -5.20549,1.33475 -6.40676,0 -9.74361,-10.2775 -1.73515,-5.47245 -9.34318,-25.22661 -16.81773,-43.91298 -12.4131,-30.966 -19.35375,-46.31552 -35.37064,-77.94887 l -5.33897,-10.54446 2.93643,-3.20338 c 1.60169,-1.60169 3.20338,-3.06991 3.73728,-3.06991 0.40042,0 2.66948,2.00212 4.93854,4.27118 z"
                 id="path1434" />
            </g>
          </g>
        </g>
      </g>
    </g>
  </g>
</svg>
