<?xml version="1.0" encoding="UTF-8" standalone="no"?>
<!DOCTYPE svg PUBLIC "-//W3C//DTD SVG 1.1//EN" "http://www.w3.org/Graphics/SVG/1.1/DTD/svg11.dtd">
<svg version="1.1" xmlns:dc="http://purl.org/dc/elements/1.1/" xmlns="http://www.w3.org/2000/svg" xmlns:xl="http://www.w3.org/1999/xlink" viewBox="54 63 253 304" width="253" height="304">
  <defs>
    <clipPath id="artboard_clip_path">
      <path d="M 54 63 L 307 63 L 307 367 L 54 367 Z"/>
    </clipPath>
  </defs>
  <metadata> Produced by OmniGraffle 7.10 test 
    <dc:date>2019-02-28 00:41:29 +0000</dc:date>
  </metadata>
  <g id="Flame_(1)" fill="none" stroke-dasharray="none" stroke-opacity="1" fill-opacity="1" stroke="none">
    <title>Flame (1)</title>
    <g id="Flame_(1): Layer 2" clip-path="url(#artboard_clip_path)">
      <title>Layer 2</title>
      <g id="Group_94">
        <g id="Graphic_106">
          <path d="M 236.08028 64.014904 C 235.89404 64.40422 236.00737 65.36739 236.59976 66.129175 C 239.27898 70.32909 235.36082 83.62009 228.8616 92.80598 C 225.1879 97.98542 223.64364 103.51375 223.78343 111.52208 C 223.89458 117.89016 224.3142 119.81314 227.01196 125.0744 C 228.71117 128.42278 230.39185 130.70981 230.86754 130.31545 C 231.24506 129.82628 232.07976 127.8814 232.625 125.94158 C 233.35646 123.61244 236.18704 119.89545 240.7409 115.37625 C 249.8486 106.33786 252.29156 102.53112 253.3214 95.17797 C 254.0074 90.24372 253.774 87.93142 252.2307 82.45698 C 250.06135 74.29104 247.37875 69.89816 242.29243 66.02981 C 238.47727 63.10443 236.92507 62.64894 236.08028 64.014904 Z" fill="black"/>
          <path d="M 236.08028 64.014904 C 235.89404 64.40422 236.00737 65.36739 236.59976 66.129175 C 239.27898 70.32909 235.36082 83.62009 228.8616 92.80598 C 225.1879 97.98542 223.64364 103.51375 223.78343 111.52208 C 223.89458 117.89016 224.3142 119.81314 227.01196 125.0744 C 228.71117 128.42278 230.39185 130.70981 230.86754 130.31545 C 231.24506 129.82628 232.07976 127.8814 232.625 125.94158 C 233.35646 123.61244 236.18704 119.89545 240.7409 115.37625 C 249.8486 106.33786 252.29156 102.53112 253.3214 95.17797 C 254.0074 90.24372 253.774 87.93142 252.2307 82.45698 C 250.06135 74.29104 247.37875 69.89816 242.29243 66.02981 C 238.47727 63.10443 236.92507 62.64894 236.08028 64.014904 Z" stroke="black" stroke-linecap="round" stroke-linejoin="round" stroke-width="0"/>
        </g>
        <g id="Graphic_105">
          <path d="M 246.00557 74.1688 C 248.38018 77.50539 251.35006 87.29812 251.43258 92.02594 C 251.56226 99.45536 249.87772 102.47674 240.11145 112.49178 C 234.80255 117.9893 230.52468 121.73156 230.12863 121.15938 C 229.82907 120.58552 229.18615 116.92916 228.92581 113.07309 C 228.2088 105.17134 229.7261 98.09923 234.0129 89.33802 C 238.0237 81.35375 240.5025 74.07183 240.44524 70.79131 C 240.3964 67.99321 240.49288 67.99153 242.16177 69.60316 C 243.14348 70.55118 244.91727 72.64355 246.00557 74.1688 Z" fill="#f3f3f3"/>
          <path d="M 246.00557 74.1688 C 248.38018 77.50539 251.35006 87.29812 251.43258 92.02594 C 251.56226 99.45536 249.87772 102.47674 240.11145 112.49178 C 234.80255 117.9893 230.52468 121.73156 230.12863 121.15938 C 229.82907 120.58552 229.18615 116.92916 228.92581 113.07309 C 228.2088 105.17134 229.7261 98.09923 234.0129 89.33802 C 238.0237 81.35375 240.5025 74.07183 240.44524 70.79131 C 240.3964 67.99321 240.49288 67.99153 242.16177 69.60316 C 243.14348 70.55118 244.91727 72.64355 246.00557 74.1688 Z" stroke="black" stroke-linecap="round" stroke-linejoin="round" stroke-width="0"/>
        </g>
        <g id="Graphic_104">
          <path d="M 171.26359 66.40098 C 170.88943 67.08312 171.29222 68.041246 172.07421 68.60669 C 172.8562 69.17213 174.53857 71.55565 175.835 73.945905 C 180.82266 83.22084 176.78274 95.06623 161.88826 115.40142 C 147.93338 134.27247 140.37233 148.97827 137.33938 163.21897 C 135.37163 172.13273 135.74193 176.759 139.18918 186.25386 C 140.91028 190.85656 142.23365 194.79059 142.23702 194.98356 C 142.25555 196.0449 130.30573 186.02286 126.95784 182.22068 C 122.23052 176.80182 120.82245 173.54487 120.2255 166.99225 C 119.39852 158.3203 122.58066 141.5676 125.78371 137.07198 C 126.15955 136.48632 127.44972 132.98925 128.64004 129.30089 C 132.39218 117.55703 130.92327 94.22595 126.54891 97.96989 C 125.88361 98.56059 125.51956 99.82165 125.82586 100.78146 C 127.06285 105.29609 115.58292 122.19363 105.40376 130.67163 C 99.22143 135.89486 92.98472 143.53192 89.71887 149.95894 C 86.36326 156.7736 86.18208 157.45236 86.33534 166.23259 C 86.38538 174.62855 86.69841 175.9743 89.90217 182.57794 C 91.70797 186.50355 95.69204 193.57615 98.57097 198.15864 C 101.45159 202.8376 103.84136 207.04257 103.84978 207.525 C 103.85988 208.10392 104.46575 209.6376 105.2629 211.0714 C 105.96356 212.5069 106.97558 215.19167 107.39352 217.01817 C 108.12113 219.99745 107.43563 219.43032 101.31876 211.81586 C 92.44134 200.87155 83.22008 192.34612 76.69826 189.17843 C 72.901625 187.3144 59.7189 184.06995 56.43838 184.1272 C 55.280545 184.14742 56.780044 187.11322 59.134444 189.29198 C 64.04127 193.93559 71.75531 210.11204 73.66216 219.8268 C 75.87531 230.50138 75.46193 234.46573 70.13087 260.81097 C 67.81928 272.14362 67.85992 291.05992 70.30863 298.6419 C 74.29726 311.50534 83.04234 325.9265 91.38343 333.7917 C 98.64466 340.61406 112.83771 346.4468 124.6309 347.49564 C 128.8847 347.90396 132.95901 349.08754 137.24313 351.2326 C 145.12923 355.1486 154.15632 358.07954 158.01576 358.01217 C 159.55953 357.98522 162.47264 358.99604 164.42594 360.31316 C 170.67514 364.45076 183.9173 365.57083 195.35703 362.95827 C 201.60504 361.498 211.16606 356.3123 214.85997 352.2907 C 217.13352 349.83813 217.99685 349.5335 221.18762 349.86388 C 226.31317 350.45 236.60348 348.3401 241.4788 345.64908 C 243.77425 344.45083 248.8156 340.21267 252.80232 336.37898 C 256.69088 332.4505 260.1088 329.20582 260.39825 329.20077 C 263.00337 329.1553 274.38584 323.2622 278.3793 319.81446 C 282.85015 316.06884 290.87462 305.79466 290.84094 303.86494 C 290.8359 303.57548 291.39627 302.50403 292.1547 301.71867 C 294.6128 298.7803 297.51172 287.91997 297.67992 280.96793 C 297.9025 271.60205 296.41696 263.90675 292.9069 256.3433 C 288.48805 246.47935 284.4287 229.5635 284.25016 219.33599 C 284.12722 212.2925 284.55575 209.19654 286.3878 203.56667 C 289.23065 195.0237 294.03186 188.0873 299.28133 184.71414 C 303.8638 181.8352 304.1078 179.22503 299.77267 179.68676 C 287.2497 181.06354 264.19868 193.04774 259.88663 200.36166 C 256.70042 205.82214 254.38764 211.55692 253.68817 215.71929 L 253.0835 219.7835 L 250.3908 214.8117 C 248.89468 212.03886 247.67284 208.3926 247.64085 206.55937 C 247.58358 203.27884 249.9238 193.58646 251.1478 191.82781 C 251.62013 191.24048 252.34655 188.62188 252.97648 186.00497 C 253.60472 183.29157 254.514 180.0907 255.06934 178.72979 C 256.26808 175.52385 255.77315 163.75762 254.23323 158.47615 C 252.8016 153.8684 251.4053 151.28686 244.86545 141.55644 C 242.48916 138.12337 240.59866 134.87484 240.59193 134.4889 C 240.5835 134.00647 239.99785 133.63063 239.22597 133.6441 C 238.06813 133.66431 237.99017 134.72734 238.45022 138.96599 C 239.56834 147.72937 236.4057 154.54065 222.64717 173.6013 C 214.8241 184.35455 209.853 198.1465 211.4148 204.6823 L 212.1441 207.75806 L 209.28875 204.52637 C 205.54987 200.44148 203.75249 196.9983 201.60502 190.08667 C 198.32884 179.33413 199.1977 173.8176 207.37016 155.43353 C 215.546 137.24245 216.53829 133.268 215.66415 121.89444 C 215.0251 112.92966 211.78765 104.3963 204.83659 93.22533 C 199.97067 85.39601 186.89888 71.91899 181.14895 68.737834 C 176.07947 65.834346 172.1067 64.93854 171.26359 66.40098 Z" fill="black"/>
          <path d="M 171.26359 66.40098 C 170.88943 67.08312 171.29222 68.041246 172.07421 68.60669 C 172.8562 69.17213 174.53857 71.55565 175.835 73.945905 C 180.82266 83.22084 176.78274 95.06623 161.88826 115.40142 C 147.93338 134.27247 140.37233 148.97827 137.33938 163.21897 C 135.37163 172.13273 135.74193 176.759 139.18918 186.25386 C 140.91028 190.85656 142.23365 194.79059 142.23702 194.98356 C 142.25555 196.0449 130.30573 186.02286 126.95784 182.22068 C 122.23052 176.80182 120.82245 173.54487 120.2255 166.99225 C 119.39852 158.3203 122.58066 141.5676 125.78371 137.07198 C 126.15955 136.48632 127.44972 132.98925 128.64004 129.30089 C 132.39218 117.55703 130.92327 94.22595 126.54891 97.96989 C 125.88361 98.56059 125.51956 99.82165 125.82586 100.78146 C 127.06285 105.29609 115.58292 122.19363 105.40376 130.67163 C 99.22143 135.89486 92.98472 143.53192 89.71887 149.95894 C 86.36326 156.7736 86.18208 157.45236 86.33534 166.23259 C 86.38538 174.62855 86.69841 175.9743 89.90217 182.57794 C 91.70797 186.50355 95.69204 193.57615 98.57097 198.15864 C 101.45159 202.8376 103.84136 207.04257 103.84978 207.525 C 103.85988 208.10392 104.46575 209.6376 105.2629 211.0714 C 105.96356 212.5069 106.97558 215.19167 107.39352 217.01817 C 108.12113 219.99745 107.43563 219.43032 101.31876 211.81586 C 92.44134 200.87155 83.22008 192.34612 76.69826 189.17843 C 72.901625 187.3144 59.7189 184.06995 56.43838 184.1272 C 55.280545 184.14742 56.780044 187.11322 59.134444 189.29198 C 64.04127 193.93559 71.75531 210.11204 73.66216 219.8268 C 75.87531 230.50138 75.46193 234.46573 70.13087 260.81097 C 67.81928 272.14362 67.85992 291.05992 70.30863 298.6419 C 74.29726 311.50534 83.04234 325.9265 91.38343 333.7917 C 98.64466 340.61406 112.83771 346.4468 124.6309 347.49564 C 128.8847 347.90396 132.95901 349.08754 137.24313 351.2326 C 145.12923 355.1486 154.15632 358.07954 158.01576 358.01217 C 159.55953 357.98522 162.47264 358.99604 164.42594 360.31316 C 170.67514 364.45076 183.9173 365.57083 195.35703 362.95827 C 201.60504 361.498 211.16606 356.3123 214.85997 352.2907 C 217.13352 349.83813 217.99685 349.5335 221.18762 349.86388 C 226.31317 350.45 236.60348 348.3401 241.4788 345.64908 C 243.77425 344.45083 248.8156 340.21267 252.80232 336.37898 C 256.69088 332.4505 260.1088 329.20582 260.39825 329.20077 C 263.00337 329.1553 274.38584 323.2622 278.3793 319.81446 C 282.85015 316.06884 290.87462 305.79466 290.84094 303.86494 C 290.8359 303.57548 291.39627 302.50403 292.1547 301.71867 C 294.6128 298.7803 297.51172 287.91997 297.67992 280.96793 C 297.9025 271.60205 296.41696 263.90675 292.9069 256.3433 C 288.48805 246.47935 284.4287 229.5635 284.25016 219.33599 C 284.12722 212.2925 284.55575 209.19654 286.3878 203.56667 C 289.23065 195.0237 294.03186 188.0873 299.28133 184.71414 C 303.8638 181.8352 304.1078 179.22503 299.77267 179.68676 C 287.2497 181.06354 264.19868 193.04774 259.88663 200.36166 C 256.70042 205.82214 254.38764 211.55692 253.68817 215.71929 L 253.0835 219.7835 L 250.3908 214.8117 C 248.89468 212.03886 247.67284 208.3926 247.64085 206.55937 C 247.58358 203.27884 249.9238 193.58646 251.1478 191.82781 C 251.62013 191.24048 252.34655 188.62188 252.97648 186.00497 C 253.60472 183.29157 254.514 180.0907 255.06934 178.72979 C 256.26808 175.52385 255.77315 163.75762 254.23323 158.47615 C 252.8016 153.8684 251.4053 151.28686 244.86545 141.55644 C 242.48916 138.12337 240.59866 134.87484 240.59193 134.4889 C 240.5835 134.00647 239.99785 133.63063 239.22597 133.6441 C 238.06813 133.66431 237.99017 134.72734 238.45022 138.96599 C 239.56834 147.72937 236.4057 154.54065 222.64717 173.6013 C 214.8241 184.35455 209.853 198.1465 211.4148 204.6823 L 212.1441 207.75806 L 209.28875 204.52637 C 205.54987 200.44148 203.75249 196.9983 201.60502 190.08667 C 198.32884 179.33413 199.1977 173.8176 207.37016 155.43353 C 215.546 137.24245 216.53829 133.268 215.66415 121.89444 C 215.0251 112.92966 211.78765 104.3963 204.83659 93.22533 C 199.97067 85.39601 186.89888 71.91899 181.14895 68.737834 C 176.07947 65.834346 172.1067 64.93854 171.26359 66.40098 Z" stroke="black" stroke-linecap="round" stroke-linejoin="round" stroke-width="0"/>
        </g>
        <g id="Graphic_103">
          <path d="M 181.69538 72.39588 C 189.70996 78.14342 201.62392 91.64065 205.42849 99.4885 C 206.32886 101.30658 208.331 105.42179 209.83387 108.58057 C 212.43513 113.84351 212.65337 115.28743 212.82178 124.93603 C 213.02725 136.70732 212.3889 138.8418 203.65774 158.3938 C 197.80311 171.33253 196.53989 176.37338 197.42461 182.82447 C 198.4193 190.04576 203.8586 203.0769 207.60085 207.35478 C 217.24847 218.18914 229.9177 247.30867 233.23548 265.97474 C 236.3502 284.06527 233.3016 302.93898 222.52473 332.46777 C 218.2851 343.9306 215.46968 348.51595 209.84943 352.7642 C 203.84829 357.30867 192.14268 361.2771 184.32731 361.4135 C 178.2487 361.5196 166.3287 358.7357 164.0708 356.55526 C 163.38529 355.98814 161.72313 354.76245 160.16252 353.82454 C 146.21008 345.18866 139.60285 331.5988 141.43586 314.96617 C 142.94356 301.81376 143.21955 301.0368 155.44322 276.98415 C 162.71819 262.47637 166.03891 248.13413 164.85174 235.41482 C 163.99108 224.81316 160.8737 217.62892 151.57497 204.66513 C 145.64098 196.4684 140.31501 184.40042 139.11894 176.70006 C 137.91443 168.51728 140.69161 156.21135 146.56139 144.14098 C 149.26349 138.59244 159.3096 122.49205 163.55884 117.10953 C 174.79142 102.62919 179.9959 91.14953 179.82917 81.59742 C 179.77022 78.22041 179.1273 74.564045 178.2303 72.93894 C 176.33475 69.40096 177.29793 69.28763 181.69538 72.39588 Z" fill="#f3f3f3"/>
          <path d="M 181.69538 72.39588 C 189.70996 78.14342 201.62392 91.64065 205.42849 99.4885 C 206.32886 101.30658 208.331 105.42179 209.83387 108.58057 C 212.43513 113.84351 212.65337 115.28743 212.82178 124.93603 C 213.02725 136.70732 212.3889 138.8418 203.65774 158.3938 C 197.80311 171.33253 196.53989 176.37338 197.42461 182.82447 C 198.4193 190.04576 203.8586 203.0769 207.60085 207.35478 C 217.24847 218.18914 229.9177 247.30867 233.23548 265.97474 C 236.3502 284.06527 233.3016 302.93898 222.52473 332.46777 C 218.2851 343.9306 215.46968 348.51595 209.84943 352.7642 C 203.84829 357.30867 192.14268 361.2771 184.32731 361.4135 C 178.2487 361.5196 166.3287 358.7357 164.0708 356.55526 C 163.38529 355.98814 161.72313 354.76245 160.16252 353.82454 C 146.21008 345.18866 139.60285 331.5988 141.43586 314.96617 C 142.94356 301.81376 143.21955 301.0368 155.44322 276.98415 C 162.71819 262.47637 166.03891 248.13413 164.85174 235.41482 C 163.99108 224.81316 160.8737 217.62892 151.57497 204.66513 C 145.64098 196.4684 140.31501 184.40042 139.11894 176.70006 C 137.91443 168.51728 140.69161 156.21135 146.56139 144.14098 C 149.26349 138.59244 159.3096 122.49205 163.55884 117.10953 C 174.79142 102.62919 179.9959 91.14953 179.82917 81.59742 C 179.77022 78.22041 179.1273 74.564045 178.2303 72.93894 C 176.33475 69.40096 177.29793 69.28763 181.69538 72.39588 Z" stroke="black" stroke-linecap="round" stroke-linejoin="round" stroke-width="0"/>
        </g>
        <g id="Graphic_102">
          <path d="M 128.87827 115.302 C 128.63933 118.20163 126.10109 127.60793 123.16175 136.15259 C 117.92983 151.58986 117.9332 151.78283 118.12519 162.78223 C 118.19207 172.14306 118.52195 174.45367 120.21442 177.4161 C 122.80221 181.90716 130.66256 189.87725 137.70218 195.06271 C 140.63718 197.32785 144.3626 200.64086 145.7454 202.45052 C 149.3979 207.11602 157.97527 222.98785 159.71153 228.45892 C 162.2601 236.23219 161.512 254.1971 158.3051 264.00114 C 156.74567 268.6611 152.37251 278.0029 149.36917 282.8811 C 145.5244 289.31822 140.61611 301.17877 139.36973 307.1845 C 138.13008 313.57614 138.54536 326.3089 140.29172 332.3589 C 142.25127 339.56335 145.1302 344.14584 151.70087 350.1116 C 156.80403 354.94483 156.90389 355.1361 154.19217 354.60436 C 134.72776 350.89046 117.00106 336.1435 113.06176 320.57675 C 110.46772 310.19837 109.95763 297.56376 111.49228 285.95512 C 114.66985 263.41158 113.63165 231.57962 109.29124 215.15125 C 107.43323 208.23458 105.23139 203.73679 99.28728 194.96113 C 91.56096 183.61066 88.42674 175.46156 88.35818 166.00425 C 88.26435 155.09965 91.54368 149.44451 108.78919 131.09512 C 119.11754 120.10511 123.93727 114.23006 125.41873 110.63313 C 127.46395 106.15772 127.65187 105.8649 128.45913 107.87763 C 128.96177 109.02704 129.1172 112.40237 128.87827 115.302 Z" fill="#f3f3f3"/>
          <path d="M 128.87827 115.302 C 128.63933 118.20163 126.10109 127.60793 123.16175 136.15259 C 117.92983 151.58986 117.9332 151.78283 118.12519 162.78223 C 118.19207 172.14306 118.52195 174.45367 120.21442 177.4161 C 122.80221 181.90716 130.66256 189.87725 137.70218 195.06271 C 140.63718 197.32785 144.3626 200.64086 145.7454 202.45052 C 149.3979 207.11602 157.97527 222.98785 159.71153 228.45892 C 162.2601 236.23219 161.512 254.1971 158.3051 264.00114 C 156.74567 268.6611 152.37251 278.0029 149.36917 282.8811 C 145.5244 289.31822 140.61611 301.17877 139.36973 307.1845 C 138.13008 313.57614 138.54536 326.3089 140.29172 332.3589 C 142.25127 339.56335 145.1302 344.14584 151.70087 350.1116 C 156.80403 354.94483 156.90389 355.1361 154.19217 354.60436 C 134.72776 350.89046 117.00106 336.1435 113.06176 320.57675 C 110.46772 310.19837 109.95763 297.56376 111.49228 285.95512 C 114.66985 263.41158 113.63165 231.57962 109.29124 215.15125 C 107.43323 208.23458 105.23139 203.73679 99.28728 194.96113 C 91.56096 183.61066 88.42674 175.46156 88.35818 166.00425 C 88.26435 155.09965 91.54368 149.44451 108.78919 131.09512 C 119.11754 120.10511 123.93727 114.23006 125.41873 110.63313 C 127.46395 106.15772 127.65187 105.8649 128.45913 107.87763 C 128.96177 109.02704 129.1172 112.40237 128.87827 115.302 Z" stroke="black" stroke-linecap="round" stroke-linejoin="round" stroke-width="0"/>
        </g>
        <g id="Graphic_101">
          <path d="M 249.6243 154.30992 C 255.31093 164.92387 254.80732 174.77723 247.52176 194.20748 C 246.41445 197.12227 245.24434 201.96846 245.1019 204.8664 C 244.70873 209.98859 244.91686 210.8536 249.80298 219.84075 C 252.59722 225.10032 257.0654 232.26098 259.63467 235.6907 C 267.24092 245.69204 269.43772 249.90037 271.712 258.54706 C 275.33657 272.67155 274.46624 294.69225 269.94053 306.3531 C 267.72255 311.9897 258.88865 325.65605 253.58817 331.636 C 247.24823 338.8888 239.90302 343.8428 233.08115 345.60263 C 223.56945 348.08503 218.34574 347.4041 220.8936 344.0781 C 222.02617 342.6106 231.47413 314.3597 232.91517 308.4471 C 236.41203 293.13663 237.50733 272.9458 235.58532 262.36266 C 233.78 252.93566 228.41194 238.45554 221.40361 224.00405 C 213.8977 208.6926 212.51538 201.38156 215.53606 191.96684 C 217.91164 184.30066 219.50306 181.47394 228.2708 169.54602 C 235.33882 159.7711 237.9596 155.09262 239.77647 148.59438 C 240.41482 146.4599 241.1463 144.13076 241.3258 143.3555 C 241.87607 141.70514 244.93956 145.80183 249.6243 154.30992 Z" fill="#f3f3f3"/>
          <path d="M 249.6243 154.30992 C 255.31093 164.92387 254.80732 174.77723 247.52176 194.20748 C 246.41445 197.12227 245.24434 201.96846 245.1019 204.8664 C 244.70873 209.98859 244.91686 210.8536 249.80298 219.84075 C 252.59722 225.10032 257.0654 232.26098 259.63467 235.6907 C 267.24092 245.69204 269.43772 249.90037 271.712 258.54706 C 275.33657 272.67155 274.46624 294.69225 269.94053 306.3531 C 267.72255 311.9897 258.88865 325.65605 253.58817 331.636 C 247.24823 338.8888 239.90302 343.8428 233.08115 345.60263 C 223.56945 348.08503 218.34574 347.4041 220.8936 344.0781 C 222.02617 342.6106 231.47413 314.3597 232.91517 308.4471 C 236.41203 293.13663 237.50733 272.9458 235.58532 262.36266 C 233.78 252.93566 228.41194 238.45554 221.40361 224.00405 C 213.8977 208.6926 212.51538 201.38156 215.53606 191.96684 C 217.91164 184.30066 219.50306 181.47394 228.2708 169.54602 C 235.33882 159.7711 237.9596 155.09262 239.77647 148.59438 C 240.41482 146.4599 241.1463 144.13076 241.3258 143.3555 C 241.87607 141.70514 244.93956 145.80183 249.6243 154.30992 Z" stroke="black" stroke-linecap="round" stroke-linejoin="round" stroke-width="0"/>
        </g>
        <g id="Graphic_100">
          <path d="M 295.41684 184.49205 C 294.75828 185.4687 292.6777 187.9179 290.978 190.0709 C 282.93836 199.47672 279.83587 215.26288 282.62577 231.33225 C 284.0165 239.12572 289.7515 258.03914 291.43723 260.61564 C 292.62538 262.33217 293.54596 265.30808 294.7981 270.6911 C 295.64073 274.73002 295.26223 286.22196 294.07528 290.1033 C 290.79715 301.3563 282.70987 313.5619 275.17506 318.7122 C 270.5993 321.9771 264.2868 325.27228 262.74303 325.29923 C 262.45358 325.30428 263.66916 323.0632 265.45692 320.4261 C 270.06516 313.49306 273.95926 304.35264 275.28865 297.57336 C 275.90848 294.37753 276.33582 285.6837 276.20614 278.25426 C 275.8811 259.63247 274.1179 252.61762 265.73012 236.54945 C 260.23477 225.83565 259.02304 222.7683 258.6477 217.85257 C 257.80387 208.21576 262.11255 200.70887 272.51163 193.77128 C 279.0917 189.21671 283.20522 187.11809 289.2451 184.7928 C 295.66924 182.3643 297.11485 182.24256 295.41684 184.49205 Z" fill="#f3f3f3"/>
          <path d="M 295.41684 184.49205 C 294.75828 185.4687 292.6777 187.9179 290.978 190.0709 C 282.93836 199.47672 279.83587 215.26288 282.62577 231.33225 C 284.0165 239.12572 289.7515 258.03914 291.43723 260.61564 C 292.62538 262.33217 293.54596 265.30808 294.7981 270.6911 C 295.64073 274.73002 295.26223 286.22196 294.07528 290.1033 C 290.79715 301.3563 282.70987 313.5619 275.17506 318.7122 C 270.5993 321.9771 264.2868 325.27228 262.74303 325.29923 C 262.45358 325.30428 263.66916 323.0632 265.45692 320.4261 C 270.06516 313.49306 273.95926 304.35264 275.28865 297.57336 C 275.90848 294.37753 276.33582 285.6837 276.20614 278.25426 C 275.8811 259.63247 274.1179 252.61762 265.73012 236.54945 C 260.23477 225.83565 259.02304 222.7683 258.6477 217.85257 C 257.80387 208.21576 262.11255 200.70887 272.51163 193.77128 C 279.0917 189.21671 283.20522 187.11809 289.2451 184.7928 C 295.66924 182.3643 297.11485 182.24256 295.41684 184.49205 Z" stroke="black" stroke-linecap="round" stroke-linejoin="round" stroke-width="0"/>
        </g>
        <g id="Graphic_99">
          <path d="M 77.53583 192.92791 C 83.38562 196.30036 95.46055 207.96098 101.38781 215.77178 C 103.36637 218.5362 106.34348 223.21348 107.84466 226.27577 L 110.54915 231.92297 L 110.84002 254.11643 C 111.14822 271.77337 110.87007 277.9552 109.63379 284.53983 C 108.30102 291.12614 108.18047 295.2784 108.74156 305.3062 C 109.82166 322.94968 112.44987 329.7564 122.18724 340.2031 L 126.81134 345.23772 L 123.03828 344.7245 C 116.26574 343.78103 106.7478 340.3761 100.60181 336.62276 C 79.82462 324.05237 68.230216 295.6862 72.47299 267.8157 C 73.253785 262.78328 74.64093 253.78314 75.60123 247.97545 C 79.34761 224.84288 76.179 203.6648 67.09345 191.85549 L 64.72221 188.71187 L 68.49695 189.3216 C 70.52821 189.57568 74.61094 191.2417 77.53583 192.92791 Z" fill="#f3f3f3"/>
          <path d="M 77.53583 192.92791 C 83.38562 196.30036 95.46055 207.96098 101.38781 215.77178 C 103.36637 218.5362 106.34348 223.21348 107.84466 226.27577 L 110.54915 231.92297 L 110.84002 254.11643 C 111.14822 271.77337 110.87007 277.9552 109.63379 284.53983 C 108.30102 291.12614 108.18047 295.2784 108.74156 305.3062 C 109.82166 322.94968 112.44987 329.7564 122.18724 340.2031 L 126.81134 345.23772 L 123.03828 344.7245 C 116.26574 343.78103 106.7478 340.3761 100.60181 336.62276 C 79.82462 324.05237 68.230216 295.6862 72.47299 267.8157 C 73.253785 262.78328 74.64093 253.78314 75.60123 247.97545 C 79.34761 224.84288 76.179 203.6648 67.09345 191.85549 L 64.72221 188.71187 L 68.49695 189.3216 C 70.52821 189.57568 74.61094 191.2417 77.53583 192.92791 Z" stroke="black" stroke-linecap="round" stroke-linejoin="round" stroke-width="0"/>
        </g>
        <g id="Graphic_98">
          <path d="M 88.27717 106.06961 C 87.89628 106.3658 87.63377 107.91463 87.66071 109.45841 C 87.71797 112.73893 80.61794 120.68061 71.47318 127.59631 C 62.61619 134.41047 59.492784 137.93954 58.319306 142.59276 C 56.87321 148.2159 57.87295 155.72665 60.56228 160.50547 C 63.0519 164.90173 73.26834 175.14706 75.00508 175.11674 C 75.680485 175.10495 76.26614 175.4808 76.27624 176.0597 C 76.28466 176.54214 77.16146 177.00941 78.2228 176.99089 C 80.63495 176.94878 80.62148 176.1769 78.456685 173.8018 C 77.17879 172.47289 76.65931 170.35861 76.5751 165.53432 C 76.46394 159.16624 76.558745 159.06807 83.13593 148.81915 C 86.8012 143.15728 90.54275 136.3359 91.36733 133.8121 C 93.00977 128.37857 93.10723 117.37412 91.43714 110.16461 C 90.39144 105.55013 89.60271 104.59874 88.27717 106.06961 Z" fill="black"/>
          <path d="M 88.27717 106.06961 C 87.89628 106.3658 87.63377 107.91463 87.66071 109.45841 C 87.71797 112.73893 80.61794 120.68061 71.47318 127.59631 C 62.61619 134.41047 59.492784 137.93954 58.319306 142.59276 C 56.87321 148.2159 57.87295 155.72665 60.56228 160.50547 C 63.0519 164.90173 73.26834 175.14706 75.00508 175.11674 C 75.680485 175.10495 76.26614 175.4808 76.27624 176.0597 C 76.28466 176.54214 77.16146 177.00941 78.2228 176.99089 C 80.63495 176.94878 80.62148 176.1769 78.456685 173.8018 C 77.17879 172.47289 76.65931 170.35861 76.5751 165.53432 C 76.46394 159.16624 76.558745 159.06807 83.13593 148.81915 C 86.8012 143.15728 90.54275 136.3359 91.36733 133.8121 C 93.00977 128.37857 93.10723 117.37412 91.43714 110.16461 C 90.39144 105.55013 89.60271 104.59874 88.27717 106.06961 Z" stroke="black" stroke-linecap="round" stroke-linejoin="round" stroke-width="0"/>
        </g>
        <g id="Graphic_97">
          <path d="M 90.75066 120.60026 C 90.83823 125.61753 87.23191 134.6564 82.15134 142.17677 C 76.879495 149.797 73.74718 158.34502 73.76858 165.10073 L 73.7782 171.18103 L 69.16589 166.82183 C 62.88468 160.851 60.07192 154.53008 60.82577 147.95387 C 61.16456 145.24553 62.35151 141.3642 63.66863 139.4109 C 65.63926 136.1915 73.24866 129.78517 75.17838 129.75149 C 76.62567 129.72623 87.72928 118.91572 88.27451 116.9759 C 89.27859 113.67684 90.66645 115.77596 90.75066 120.60026 Z" fill="#f3f3f3"/>
          <path d="M 90.75066 120.60026 C 90.83823 125.61753 87.23191 134.6564 82.15134 142.17677 C 76.879495 149.797 73.74718 158.34502 73.76858 165.10073 L 73.7782 171.18103 L 69.16589 166.82183 C 62.88468 160.851 60.07192 154.53008 60.82577 147.95387 C 61.16456 145.24553 62.35151 141.3642 63.66863 139.4109 C 65.63926 136.1915 73.24866 129.78517 75.17838 129.75149 C 76.62567 129.72623 87.72928 118.91572 88.27451 116.9759 C 89.27859 113.67684 90.66645 115.77596 90.75066 120.60026 Z" stroke="black" stroke-linecap="round" stroke-linejoin="round" stroke-width="0"/>
        </g>
        <g id="Graphic_96">
          <path d="M 300.40313 132.8658 C 296.94262 139.1997 293.1438 142.74056 280.92666 150.57853 C 267.18425 159.50479 265.02234 162.82405 264.66236 175.37733 C 264.41283 183.19943 264.62602 184.3539 265.97682 184.33032 C 266.8452 184.31516 267.51554 184.01391 267.50712 183.53148 C 267.46333 181.02285 272.9989 177.45167 281.34096 174.31408 C 292.9467 170.15437 298.17597 165.62339 302.83354 155.98707 C 305.7185 149.85624 305.89127 148.69504 305.74306 140.20427 C 305.6555 135.187 305.08548 130.17815 304.4897 129.2234 C 303.49454 127.50349 303.11534 127.89617 300.40313 132.8658 Z" fill="black"/>
          <path d="M 300.40313 132.8658 C 296.94262 139.1997 293.1438 142.74056 280.92666 150.57853 C 267.18425 159.50479 265.02234 162.82405 264.66236 175.37733 C 264.41283 183.19943 264.62602 184.3539 265.97682 184.33032 C 266.8452 184.31516 267.51554 184.01391 267.50712 183.53148 C 267.46333 181.02285 272.9989 177.45167 281.34096 174.31408 C 292.9467 170.15437 298.17597 165.62339 302.83354 155.98707 C 305.7185 149.85624 305.89127 148.69504 305.74306 140.20427 C 305.6555 135.187 305.08548 130.17815 304.4897 129.2234 C 303.49454 127.50349 303.11534 127.89617 300.40313 132.8658 Z" stroke="black" stroke-linecap="round" stroke-linejoin="round" stroke-width="0"/>
        </g>
        <g id="Graphic_95">
          <path d="M 301.87927 151.08144 C 299.96422 157.48488 298.93488 159.33664 294.75854 163.36667 C 290.8683 167.19867 288.19196 168.69312 280.808 171.42792 C 275.82105 173.25225 270.55474 175.66054 269.12598 176.74715 C 265.98068 179.0219 265.87072 178.2517 268.1616 171.2626 C 270.82328 163.3984 272.997 160.75454 283.67037 152.94352 C 294.9176 144.83294 299.0973 140.99588 301.24576 136.90474 L 302.739 133.98321 L 303.49862 138.79572 C 303.94856 142.45545 303.61314 145.35677 301.87927 151.08144 Z" fill="#f3f3f3"/>
          <path d="M 301.87927 151.08144 C 299.96422 157.48488 298.93488 159.33664 294.75854 163.36667 C 290.8683 167.19867 288.19196 168.69312 280.808 171.42792 C 275.82105 173.25225 270.55474 175.66054 269.12598 176.74715 C 265.98068 179.0219 265.87072 178.2517 268.1616 171.2626 C 270.82328 163.3984 272.997 160.75454 283.67037 152.94352 C 294.9176 144.83294 299.0973 140.99588 301.24576 136.90474 L 302.739 133.98321 L 303.49862 138.79572 C 303.94856 142.45545 303.61314 145.35677 301.87927 151.08144 Z" stroke="black" stroke-linecap="round" stroke-linejoin="round" stroke-width="0"/>
        </g>
      </g>
    </g>
  </g>
</svg>
