<?xml version="1.0" encoding="UTF-8" standalone="no"?>
<!-- Created with Inkscape (http://www.inkscape.org/) -->

<svg
   xmlns:dc="http://purl.org/dc/elements/1.1/"
   xmlns:cc="http://creativecommons.org/ns#"
   xmlns:rdf="http://www.w3.org/1999/02/22-rdf-syntax-ns#"
   xmlns:svg="http://www.w3.org/2000/svg"
   xmlns="http://www.w3.org/2000/svg"
   xmlns:sodipodi="http://sodipodi.sourceforge.net/DTD/sodipodi-0.dtd"
   xmlns:inkscape="http://www.inkscape.org/namespaces/inkscape"
   width="205.67194mm"
   height="203.20006mm"
   viewBox="0 0 205.67194 203.20006"
   version="1.1"
   id="svg1135"
   inkscape:version="0.92.3 (2405546, 2018-03-11)"
   sodipodi:docname="golden-columbine-of-unser-hafen.svg"
   inkscape:export-filename="/home/swarren/git_wa/sca-devices-badges/outlands/awards/unser-hafen/guardians-of-the-portcullis-of-unser-hafen.png"
   inkscape:export-xdpi="18.52"
   inkscape:export-ydpi="18.52">
  <defs
     id="defs1129">
    <clipPath
       id="artboard_clip_path">
      <path
         id="path1046"
         d="M 36 63 L 328.5 63 L 328.5 414 L 36 414 Z" />
    </clipPath>
    <clipPath
       id="clip_path">
      <rect
         id="use1058"
         height="92.102402"
         width="76.751999"
         y="407.2851"
         x="296.56952"
         style="fill:none;fill-opacity:1;stroke:none;stroke-width:0.99999994;stroke-dasharray:none;stroke-opacity:1" />
    </clipPath>
  </defs>
  <sodipodi:namedview
     id="base"
     pagecolor="#ffffff"
     bordercolor="#666666"
     borderopacity="1.0"
     inkscape:pageopacity="0.0"
     inkscape:pageshadow="2"
     inkscape:zoom="1.4"
     inkscape:cx="177.57636"
     inkscape:cy="485.64389"
     inkscape:document-units="mm"
     inkscape:current-layer="layer1"
     showgrid="false"
     inkscape:window-width="3840"
     inkscape:window-height="2090"
     inkscape:window-x="0"
     inkscape:window-y="41"
     inkscape:window-maximized="1"
     fit-margin-top="0"
     fit-margin-left="0"
     fit-margin-right="0"
     fit-margin-bottom="0"
     inkscape:object-paths="true" />
  <metadata
     id="metadata1132">
    <rdf:RDF>
      <cc:Work
         rdf:about="">
        <dc:format>image/svg+xml</dc:format>
        <dc:type
           rdf:resource="http://purl.org/dc/dcmitype/StillImage" />
        <dc:title />
      </cc:Work>
    </rdf:RDF>
  </metadata>
  <g
     inkscape:label="Layer 1"
     inkscape:groupmode="layer"
     id="layer1"
     transform="translate(0.17727595,-1.9766557)">
    <g
       id="g1455">
      <g
         style="stroke-width:0.98781639"
         transform="matrix(1.0123064,0,0,1.0123614,-0.2745237,2.0804854)"
         id="g1863">
        <path
           style="fill:#228b22;fill-opacity:1;stroke:#000000;stroke-width:0.98781639;stroke-miterlimit:4;stroke-dasharray:none"
           d="M 0.58997582,0.39134741 V 180.49721 v 18.761 c 7.86272778,-9.3805 7.86257178,-9.3805 22.46478018,-18.761 v -22.51304 h 22.464781 v 22.51304 c 7.301104,9.3805 7.301416,9.3805 11.23278,18.761 3.931364,-9.3805 3.930896,-9.3805 11.232001,-18.761 v -22.51304 h 22.46478 v 22.51304 c 7.301104,9.3805 7.301416,9.3805 11.232782,18.761 3.93136,-9.3805 3.93167,-9.3805 11.23278,-18.761 v -22.51304 h 22.46478 v 22.51304 c 7.3011,9.3805 7.30064,9.3805 11.232,18.761 3.93136,-9.3805 3.93168,-9.3805 11.23278,-18.761 V 157.98417 H 180.309 v 22.51304 c 14.60221,9.3805 14.60205,9.3805 22.46478,18.761 V 180.49721 0.39134741 H 101.68188 Z M 23.054756,22.905153 H 45.519537 V 45.418196 H 23.054756 Z m 44.929562,0 h 22.46478 v 22.513043 h -22.46478 z m 44.930342,0 h 22.46478 v 22.513043 h -22.46478 z m 44.92956,0 H 180.309 V 45.418196 H 157.84422 Z M 23.054756,67.931239 H 45.519537 V 90.444281 H 23.054756 Z m 44.929562,0 h 22.46478 v 22.513042 h -22.46478 z m 44.930342,0 h 22.46478 v 22.513042 h -22.46478 z m 44.92956,0 H 180.309 V 90.444281 H 157.84422 Z M 23.054756,112.95732 h 22.464781 v 22.51381 H 23.054756 Z m 44.929562,0 h 22.46478 v 22.51381 h -22.46478 z m 44.930342,0 h 22.46478 v 22.51381 h -22.46478 z m 44.92956,0 H 180.309 v 22.51381 h -22.46478 z"
           id="path913"
           inkscape:connector-curvature="0" />
        <path
           style="stroke:#000000;stroke-width:0.4939082;stroke-miterlimit:4;stroke-dasharray:none"
           inkscape:connector-curvature="0"
           d="M 23.054556,22.904824 0.58962022,0.39163017"
           id="path917" />
        <path
           style="stroke:#000000;stroke-width:0.4939082;stroke-miterlimit:4;stroke-dasharray:none"
           inkscape:connector-curvature="0"
           d="M 45.519492,22.904824 56.75196,11.648227"
           id="path919" />
        <path
           style="stroke:#000000;stroke-width:0.4939082;stroke-miterlimit:4;stroke-dasharray:none"
           inkscape:connector-curvature="0"
           d="M 23.054556,45.418018 11.822088,56.674615"
           id="path921" />
        <path
           style="stroke:#000000;stroke-width:0.4939082;stroke-miterlimit:4;stroke-dasharray:none"
           inkscape:connector-curvature="0"
           d="M 67.984428,22.904824 56.75196,11.648227"
           id="path923" />
        <path
           style="stroke:#000000;stroke-width:0.4939082;stroke-miterlimit:4;stroke-dasharray:none"
           inkscape:connector-curvature="0"
           d="M 90.449364,22.904824 101.68183,11.648227"
           id="path925" />
        <path
           style="stroke:#000000;stroke-width:0.4939082;stroke-miterlimit:4;stroke-dasharray:none"
           inkscape:connector-curvature="0"
           d="M 112.9143,22.904824 101.68183,11.648227"
           id="path927" />
        <path
           style="stroke:#000000;stroke-width:0.4939082;stroke-miterlimit:4;stroke-dasharray:none"
           inkscape:connector-curvature="0"
           d="M 135.37924,22.904824 146.6117,11.648227"
           id="path929" />
        <path
           style="stroke:#000000;stroke-width:0.4939082;stroke-miterlimit:4;stroke-dasharray:none"
           inkscape:connector-curvature="0"
           d="M 157.84417,22.904824 146.6117,11.648227"
           id="path931" />
        <path
           style="stroke:#000000;stroke-width:0.4939082;stroke-miterlimit:4;stroke-dasharray:none"
           inkscape:connector-curvature="0"
           d="m 180.30911,45.418018 11.23247,11.256597"
           id="path933" />
        <path
           style="stroke:#000000;stroke-width:0.4939082;stroke-miterlimit:4;stroke-dasharray:none"
           inkscape:connector-curvature="0"
           d="M 180.30911,22.904824 202.77404,0.39163017"
           id="path935" />
        <path
           style="stroke:#000000;stroke-width:0.4939082;stroke-miterlimit:4;stroke-dasharray:none"
           inkscape:connector-curvature="0"
           d="M 23.054556,67.931212 11.822088,56.674615"
           id="path937" />
        <path
           style="stroke:#000000;stroke-width:0.4939082;stroke-miterlimit:4;stroke-dasharray:none"
           inkscape:connector-curvature="0"
           d="M 45.519492,67.931212 67.984428,45.418018"
           id="path939" />
        <path
           style="stroke:#000000;stroke-width:0.4939082;stroke-miterlimit:4;stroke-dasharray:none"
           inkscape:connector-curvature="0"
           d="M 23.054556,90.444406 11.822088,101.701"
           id="path941" />
        <path
           style="stroke:#000000;stroke-width:0.4939082;stroke-miterlimit:4;stroke-dasharray:none"
           inkscape:connector-curvature="0"
           d="M 67.984428,67.931212 45.519492,45.418018"
           id="path943" />
        <path
           style="stroke:#000000;stroke-width:0.4939082;stroke-miterlimit:4;stroke-dasharray:none"
           inkscape:connector-curvature="0"
           d="M 90.449364,67.931212 112.9143,45.418018"
           id="path945" />
        <path
           style="stroke:#000000;stroke-width:0.4939082;stroke-miterlimit:4;stroke-dasharray:none"
           inkscape:connector-curvature="0"
           d="M 112.9143,67.931212 90.449364,45.418018"
           id="path947" />
        <path
           style="stroke:#000000;stroke-width:0.4939082;stroke-miterlimit:4;stroke-dasharray:none"
           inkscape:connector-curvature="0"
           d="M 135.37924,67.931212 157.84417,45.418018"
           id="path949" />
        <path
           style="stroke:#000000;stroke-width:0.4939082;stroke-miterlimit:4;stroke-dasharray:none"
           inkscape:connector-curvature="0"
           d="M 157.84417,67.931212 135.37924,45.418018"
           id="path951" />
        <path
           style="stroke:#000000;stroke-width:0.4939082;stroke-miterlimit:4;stroke-dasharray:none"
           inkscape:connector-curvature="0"
           d="M 180.30911,90.444406 191.54158,101.701"
           id="path953" />
        <path
           style="stroke:#000000;stroke-width:0.4939082;stroke-miterlimit:4;stroke-dasharray:none"
           inkscape:connector-curvature="0"
           d="M 180.30911,67.931212 191.54158,56.674615"
           id="path955" />
        <path
           style="stroke:#000000;stroke-width:0.4939082;stroke-miterlimit:4;stroke-dasharray:none"
           inkscape:connector-curvature="0"
           d="M 23.054556,112.9576 11.822088,101.701"
           id="path957" />
        <path
           style="stroke:#000000;stroke-width:0.4939082;stroke-miterlimit:4;stroke-dasharray:none"
           inkscape:connector-curvature="0"
           d="M 45.519492,112.9576 67.984428,90.444406"
           id="path959" />
        <path
           style="stroke:#000000;stroke-width:0.4939082;stroke-miterlimit:4;stroke-dasharray:none"
           inkscape:connector-curvature="0"
           d="m 23.054556,135.47079 -11.232468,11.2566"
           id="path961" />
        <path
           style="stroke:#000000;stroke-width:0.4939082;stroke-miterlimit:4;stroke-dasharray:none"
           inkscape:connector-curvature="0"
           d="M 67.984428,112.9576 45.519492,90.444406"
           id="path963" />
        <path
           style="stroke:#000000;stroke-width:0.4939082;stroke-miterlimit:4;stroke-dasharray:none"
           inkscape:connector-curvature="0"
           d="M 90.449364,112.9576 112.9143,90.444406"
           id="path965" />
        <path
           style="stroke:#000000;stroke-width:0.4939082;stroke-miterlimit:4;stroke-dasharray:none"
           inkscape:connector-curvature="0"
           d="M 112.9143,112.9576 90.449364,90.444406"
           id="path967" />
        <path
           style="stroke:#000000;stroke-width:0.4939082;stroke-miterlimit:4;stroke-dasharray:none"
           inkscape:connector-curvature="0"
           d="M 135.37924,112.9576 157.84417,90.444406"
           id="path969" />
        <path
           style="stroke:#000000;stroke-width:0.4939082;stroke-miterlimit:4;stroke-dasharray:none"
           inkscape:connector-curvature="0"
           d="M 157.84417,112.9576 135.37924,90.444406"
           id="path971" />
        <path
           style="stroke:#000000;stroke-width:0.4939082;stroke-miterlimit:4;stroke-dasharray:none"
           inkscape:connector-curvature="0"
           d="m 180.30911,135.47079 11.23247,11.2566"
           id="path973" />
        <path
           style="stroke:#000000;stroke-width:0.4939082;stroke-miterlimit:4;stroke-dasharray:none"
           inkscape:connector-curvature="0"
           d="M 180.30911,112.9576 191.54158,101.701"
           id="path975" />
        <path
           style="stroke:#000000;stroke-width:0.4939082;stroke-miterlimit:4;stroke-dasharray:none"
           inkscape:connector-curvature="0"
           d="M 23.054556,157.98399 11.822088,146.72739"
           id="path977" />
        <path
           style="stroke:#000000;stroke-width:0.4939082;stroke-miterlimit:4;stroke-dasharray:none"
           inkscape:connector-curvature="0"
           d="m 45.519492,157.98399 22.464936,-22.5132"
           id="path979" />
        <path
           style="stroke:#000000;stroke-width:0.4939082;stroke-miterlimit:4;stroke-dasharray:none"
           inkscape:connector-curvature="0"
           d="M 67.984428,157.98399 45.519492,135.47079"
           id="path981" />
        <path
           style="stroke:#000000;stroke-width:0.4939082;stroke-miterlimit:4;stroke-dasharray:none"
           inkscape:connector-curvature="0"
           d="M 90.449364,157.98399 112.9143,135.47079"
           id="path983" />
        <path
           style="stroke:#000000;stroke-width:0.4939082;stroke-miterlimit:4;stroke-dasharray:none"
           inkscape:connector-curvature="0"
           d="M 112.9143,157.98399 90.449364,135.47079"
           id="path985" />
        <path
           style="stroke:#000000;stroke-width:0.4939082;stroke-miterlimit:4;stroke-dasharray:none"
           inkscape:connector-curvature="0"
           d="m 135.37924,157.98399 22.46493,-22.5132"
           id="path987" />
        <path
           style="stroke:#000000;stroke-width:0.4939082;stroke-miterlimit:4;stroke-dasharray:none"
           inkscape:connector-curvature="0"
           d="m 157.84417,157.98399 -22.46493,-22.5132"
           id="path989" />
        <path
           style="stroke:#000000;stroke-width:0.4939082;stroke-miterlimit:4;stroke-dasharray:none"
           inkscape:connector-curvature="0"
           d="m 180.30911,157.98399 11.23247,-11.2566"
           id="path991" />
      </g>
      <g
         style="stroke-width:0.58011407"
         transform="matrix(1.7237988,0,0,1.7237988,206.01492,-89.543964)"
         id="g1332">
        <path
           id="path1066"
           d="m -58.698851,65.091535 c -3.089804,3.089805 -4.447442,6.600942 -4.447442,11.563353 -0.04682,3.277066 0.140441,4.119737 1.357638,6.507313 1.63853,3.183432 2.808915,4.072922 2.059869,1.591718 -0.983118,-3.51114 0.04682,-9.831192 1.919425,-11.844245 1.123563,-1.217197 3.604768,-2.387576 4.072921,-1.966238 0.140446,0.187259 -0.374523,0.983118 -1.217194,1.825792 -2.996174,3.042986 -3.464325,8.520366 -1.170379,13.108254 1.357638,2.621651 2.247127,3.277063 7.069092,5.102855 4.447445,1.685348 7.584062,2.200315 14.934046,2.481209 7.303172,0.327703 8.192661,0.04681 8.894889,-2.340763 0.702227,-2.52802 1.778977,-2.574835 3.042987,-0.140446 0.795859,1.544902 0.936304,2.574838 0.795859,4.728337 -0.280892,4.026106 -2.621651,6.600946 -7.584062,8.333106 -1.310825,0.42133 -1.310825,0.51496 -0.561782,1.35764 1.123564,1.26401 5.290116,3.41751 6.273236,3.23025 0.514967,-0.0936 0.936304,0 0.936304,0.18726 0.280891,1.17038 -0.04682,1.96624 -1.217196,3.04298 -2.715281,2.52803 -7.303169,4.07293 -10.205712,3.41751 -1.591717,-0.37452 -1.638532,-0.3277 -1.35764,0.6086 0.327705,1.02994 1.310825,4.77515 2.106684,7.81814 0.655412,2.52802 0.561782,5.14967 -0.187262,5.43056 -0.37452,0.14045 -1.685348,-0.18726 -2.902542,-0.70223 -1.170379,-0.56178 -2.387574,-0.98311 -2.574835,-0.98311 -0.234077,0 -1.498087,-0.74905 -2.762097,-1.63854 -2.528019,-1.77897 -3.277063,-1.77897 -3.277063,-0.0468 0,2.85573 -4.400629,8.70763 -6.554128,8.70763 -0.88949,0 -3.183435,-2.05988 -6.273237,-5.5242 -0.749043,-0.84267 -1.451268,-1.45127 -1.63853,-1.35764 -4.119737,2.24713 -5.664639,2.66847 -8.192661,2.38758 -3.089802,-0.37452 -7.069093,-2.71529 -7.069093,-4.16656 0,-0.51496 -0.187261,-1.21719 -0.374523,-1.5449 -0.561782,-0.84267 0.04682,-0.70223 1.404456,0.37452 1.591718,1.26401 2.434392,0.70223 5.383747,-3.60477 4.353814,-6.36686 4.962411,-13.95093 1.919425,-23.454409 -0.468154,-1.310825 -0.936305,-2.434392 -1.170382,-2.434392 -0.187258,0 -0.936302,-0.561782 -1.63853,-1.217194 -2.013053,-1.87261 -4.962408,-2.996171 -7.771323,-2.996171 -2.574835,0 -3.557955,0.561782 -4.213365,2.434389 -0.374523,1.076751 -0.936308,1.076751 -1.919425,-0.04681 -1.732164,-1.872607 0.374523,-5.336932 4.026106,-6.647757 1.498087,-0.514967 2.059871,-0.468151 4.915599,0.421336 1.778973,0.561782 3.370691,1.029933 3.557952,1.029933 0.514964,0 -1.498086,-2.80891 -2.949358,-4.072919 -1.404456,-1.310828 -9.409853,-5.290119 -10.533419,-5.290119 -0.468151,0 -1.63853,0.234077 -2.668469,0.561782 -2.481201,0.749043 -4.166552,3.932478 -4.447439,8.333105 -0.234077,3.089801 0.749041,6.975464 3.604768,14.746796 1.778979,4.86878 8.660812,18.35155 11.563355,22.75218 5.617821,8.47354 7.162723,11.32927 9.222592,17.04072 0.655412,1.77897 1.404456,4.44746 1.591717,5.8519 0.514967,2.99618 0.09363,7.58406 -0.655412,7.81814 -0.280893,0.0936 -0.88949,-0.56178 -1.310826,-1.49808 -0.468153,-0.9363 -1.076751,-1.77898 -1.357643,-1.91942 -0.374518,-0.14045 -0.561779,-1.54491 -0.561779,-4.07294 -0.04682,-3.6984 -0.140446,-4.07291 -2.574838,-8.9885 -2.762096,-5.66464 -7.022279,-11.3761 -10.299342,-13.8573 -6.647757,-4.96241 -9.316223,-8.23947 -11.001571,-13.20188 -0.936302,-2.85573 -0.655413,-3.23025 0.795859,-1.07675 0.98312,1.40445 4.119734,4.0261 4.86878,4.0261 0.514967,0 -0.608597,-2.76209 -2.668466,-6.50731 -2.153496,-3.88566 -4.260183,-10.252529 -4.821965,-14.793605 -0.140446,-1.029933 -0.374523,-2.715281 -0.561782,-3.792029 -0.374523,-2.528022 0.561782,-8.426736 1.732161,-10.720681 1.966243,-3.838845 5.430565,-6.320052 10.486605,-7.490431 3.183429,-0.749043 6.273233,0.234077 10.112081,3.089804 2.668465,1.966238 3.370693,2.247127 2.949355,1.123564 -0.561779,-1.404456 0.795861,-8.099028 1.825794,-8.988518 0.936305,-0.842674 0.936305,-0.842674 0.608598,0.88949 -0.327705,1.872607 0.468153,9.737561 1.076751,10.346158 0.234076,0.234074 0.468151,-1.264013 0.608597,-3.277066 0.280889,-4.962408 2.528022,-9.64393 5.290116,-11.235645 1.029936,-0.561783 2.340761,-1.076751 2.902543,-1.076751 0.889489,0 0.749043,0.327708 -1.217195,2.24713 z"
           inkscape:connector-curvature="0"
           style="fill:#000000;fill-opacity:1;stroke:none;stroke-width:0.15348852;stroke-dasharray:none;stroke-opacity:1" />
        <path
           id="path1069"
           d="m -61.788655,66.30873 c -2.340758,3.042989 -3.183432,6.507313 -2.949355,12.078321 0.234074,5.758268 0.187258,5.805083 -3.417509,1.919423 -6.788206,-7.209541 -12.078322,-9.035333 -18.304746,-6.226421 -2.668463,1.170379 -6.273233,5.102857 -7.069092,7.724508 -0.327705,1.076748 -0.514967,4.072921 -0.468151,7.022279 0.09363,7.115908 1.591712,12.82736 5.196488,19.89646 1.544899,2.94936 2.902545,5.89871 3.042986,6.55412 0.327708,1.31083 5.10286,5.05605 5.383747,4.21337 0.09363,-0.28089 -0.374523,-1.49808 -1.029933,-2.71528 -4.306999,-7.81814 -8.28629,-17.274807 -9.924822,-23.735302 -1.17038,-4.541075 -0.6086,-8.520366 1.825794,-12.733734 2.481204,-4.400629 4.119732,-5.524193 8.052212,-5.524193 2.247128,0 3.277063,0.280892 5.149671,1.35764 2.762096,1.638533 7.256356,5.75827 7.256356,6.694572 0,0.795859 4.213368,5.290117 4.962409,5.290117 0.70223,0 2.574837,4.306998 2.106686,4.821967 -0.795861,0.842672 2.808912,15.121313 4.119737,16.244873 0.140446,0.14044 1.170379,1.40445 2.247128,2.80891 2.200314,2.90254 3.089804,3.83885 5.336931,5.8519 6.413685,5.61783 10.486607,8.37992 14.185006,9.69074 1.310825,0.46816 2.434391,0.84268 2.528022,0.84268 0.608597,0 -1.591717,-10.48661 -2.668468,-12.82736 -0.514967,-1.07675 -1.17038,-2.62165 -1.498085,-3.51114 -1.544902,-4.16656 -8.613997,-12.686923 -10.486604,-12.686923 -0.749046,0 -5.102857,-3.417509 -6.788203,-5.290116 -0.842674,-0.98312 -1.732163,-1.732161 -1.96624,-1.732161 -0.655413,0 -4.213365,-2.855727 -3.932476,-3.183435 0.140447,-0.140446 0.702228,0.140446 1.217195,0.608597 1.35764,1.217195 1.170382,0.468154 -0.561782,-2.01305 -0.842674,-1.217197 -1.544902,-2.434392 -1.544902,-2.668468 -0.04681,-0.280893 -0.514966,-1.498085 -1.123561,-2.762097 -1.919425,-4.306999 -0.936308,-12.078319 2.106681,-16.057613 0.65541,-0.842672 0.98312,-1.5449 0.702228,-1.5449 -0.234077,0 -1.029935,0.702228 -1.685348,1.591716 z"
           inkscape:connector-curvature="0"
           style="fill:#e0d000;fill-opacity:1;stroke:none;stroke-width:0.15348852;stroke-dasharray:none;stroke-opacity:1" />
        <path
           id="path1072"
           d="m -68.857747,76.093106 c 0.234076,1.825792 0.655412,2.855727 1.451271,3.604771 l 1.123564,1.029935 -0.608598,-2.013056 c -0.374523,-1.123563 -0.795858,-3.417509 -0.98312,-5.102854 -0.374523,-2.902543 -0.421336,-2.949358 -0.842674,-1.544902 -0.234074,0.795858 -0.28089,2.62165 -0.140443,4.026106 z"
           inkscape:connector-curvature="0"
           style="fill:#e0d000;fill-opacity:1;stroke:none;stroke-width:0.15348852;stroke-dasharray:none;stroke-opacity:1" />
        <path
           id="path1075"
           d="m -58.745664,77.21667 c -0.936307,3.979293 -0.374523,9.128963 1.076749,10.065268 1.076748,0.655413 1.123563,-0.187261 0.234077,-2.013056 -1.310826,-2.762093 -1.451274,-4.494257 -0.6086,-7.443612 1.170379,-4.260184 1.217194,-4.353814 0.514966,-3.792032 -0.327705,0.280892 -0.889487,1.732163 -1.217192,3.183432 z"
           inkscape:connector-curvature="0"
           style="fill:#e0d000;fill-opacity:1;stroke:none;stroke-width:0.15348852;stroke-dasharray:none;stroke-opacity:1" />
        <path
           id="path1078"
           d="m -84.259947,75.95266 -0.936305,0.421338 0.936305,0.04682 c 3.557955,0.234074 5.102857,0.702228 8.286289,2.340758 2.013051,1.029933 3.651589,1.778979 3.651589,1.685348 0,-0.421338 -5.430565,-4.400629 -6.320055,-4.634706 -1.498086,-0.374521 -4.58789,-0.28089 -5.617823,0.140446 z"
           inkscape:connector-curvature="0"
           style="fill:#f3f3f3;fill-opacity:1;stroke:none;stroke-width:0.15348852;stroke-dasharray:none;stroke-opacity:1" />
        <path
           id="path1081"
           d="m -83.791796,77.778454 c 0.280895,0.234074 1.498084,0.749044 2.808909,1.170379 3.979294,1.310825 8.286292,4.40063 11.422909,8.239474 1.591717,1.919423 2.762099,3.79203 2.62165,4.119738 -0.14044,0.327707 0,1.029935 0.280893,1.544902 1.310827,2.481204 3.23025,11.703793 3.23025,15.542643 0,5.2433 -1.217195,9.45667 -3.838848,13.2487 -1.310825,1.91942 -2.62165,3.46433 -2.855727,3.46433 -0.327705,0 -0.327705,0.18726 0.04681,0.56178 0.421339,0.42134 1.170382,0.23407 3.230253,-0.84267 2.247125,-1.12357 2.90254,-1.73217 3.885658,-3.69841 0.795859,-1.59171 1.217194,-2.05986 1.310825,-1.49808 0.09363,0.46815 -0.37452,1.73216 -1.029933,2.85572 -1.498087,2.57484 -5.617824,4.63471 -8.473551,4.16656 -2.24713,-0.37453 -1.919422,0.23407 0.936305,1.68535 3.698399,1.8726 7.349985,0.98311 11.422906,-2.66847 2.293946,-2.05987 3.183433,-4.35381 3.604771,-8.98852 0.234077,-2.48121 0.140446,-2.66847 -1.87261,-5.38375 -1.170379,-1.5449 -2.387573,-3.51114 -2.668465,-4.44744 -0.28089,-0.88949 -0.795857,-2.29395 -1.123564,-3.04299 -0.561782,-1.21719 -1.029933,-3.46432 -2.902543,-13.950927 -0.140446,-0.749043 -0.561784,-1.26401 -0.983117,-1.26401 -0.374523,0 -2.200318,-1.591717 -3.979294,-3.511139 -1.778976,-1.919423 -3.417509,-3.51114 -3.698401,-3.51114 -0.28089,0 -1.264007,-0.468151 -2.200312,-1.029933 -0.936305,-0.608597 -1.778977,-1.076751 -1.919423,-1.123564 -0.140446,0 -0.889489,-0.280892 -1.638533,-0.6086 -0.795858,-0.327707 -1.825791,-0.795859 -2.34076,-0.983117 -1.26401,-0.561785 -3.838845,-0.561785 -3.277063,-0.04682 z"
           inkscape:connector-curvature="0"
           style="fill:#e0d000;fill-opacity:1;stroke:none;stroke-width:0.15348852;stroke-dasharray:none;stroke-opacity:1" />
        <path
           id="path1084"
           d="m -80.982887,89.10773 c -1.498084,1.35764 -2.059866,2.668466 -1.357638,3.370694 0.187262,0.140446 0.889489,-0.327705 1.591715,-1.076749 2.387573,-2.574835 8.379923,-1.732163 12.312398,1.778977 1.264007,1.123566 1.357644,0.468153 0.234077,-2.1535 -0.936305,-2.200312 -1.778979,-3.136617 -1.778979,-1.966235 0,0.234074 -0.983117,0.04681 -2.247127,-0.468154 -1.217197,-0.468153 -3.277068,-0.889489 -4.634706,-0.889489 -2.106684,-0.04681 -2.668466,0.187261 -4.11974,1.404456 z"
           inkscape:connector-curvature="0"
           style="fill:#e0d000;fill-opacity:1;stroke:none;stroke-width:0.15348852;stroke-dasharray:none;stroke-opacity:1" />
        <path
           id="path1087"
           d="m -58.745664,88.545948 c 0,0.234077 1.825789,2.293945 4.072919,4.587888 11.282463,11.422904 25.467466,14.185004 31.272552,6.085978 1.638531,-2.340761 1.919422,-5.945532 0.561781,-8.0054 -1.029934,-1.544902 -1.732162,-1.217195 -1.732162,0.795858 0,2.7621 -3.277064,6.835016 -5.524193,6.881834 -0.561783,0 -1.029934,-0.234077 -1.029934,-0.468151 0,-0.280892 0.374522,-0.468154 0.889489,-0.468154 0.655413,0 4.260182,-3.230247 4.260182,-3.88566 0,-0.04682 -2.668466,-0.04682 -5.898715,0.04681 -9.690745,0.280893 -16.15124,-1.076748 -23.126705,-4.821965 -2.200314,-1.123563 -3.745214,-1.451271 -3.745214,-0.749043 z"
           inkscape:connector-curvature="0"
           style="fill:#e0d000;fill-opacity:1;stroke:none;stroke-width:0.15348852;stroke-dasharray:none;stroke-opacity:1" />
        <path
           id="path1090"
           d="m -41.704936,104.13541 c 0.421338,0.6086 1.638533,2.38757 2.668466,3.97929 1.872609,2.85573 1.919425,2.90254 2.996173,2.20032 1.217194,-0.79586 2.24713,-2.99618 2.013053,-4.21338 -0.09363,-0.60859 -1.076748,-1.07674 -3.370694,-1.68534 -1.778976,-0.46815 -3.323878,-0.93631 -3.464324,-1.07675 -0.140443,-0.14045 -0.561782,-0.23407 -0.936305,-0.23407 -0.561782,0 -0.561782,0.18726 0.09363,1.02993 z"
           inkscape:connector-curvature="0"
           style="fill:#e0d000;fill-opacity:1;stroke:none;stroke-width:0.15348852;stroke-dasharray:none;stroke-opacity:1" />
        <path
           id="path1093"
           d="m -32.997308,106.61661 c 0,1.2172 -0.421339,2.05987 -1.87261,3.55796 -1.029933,1.07675 -1.872607,2.24713 -1.872607,2.57484 0,0.51496 0.795859,1.31082 1.404456,1.35763 0.140446,0.0468 1.029936,0.18727 1.966238,0.37453 2.293945,0.46815 4.728335,-0.23408 7.630877,-2.10669 2.621651,-1.73216 3.323879,-3.18343 1.544902,-3.18343 -1.217195,0 -4.868781,-2.10669 -5.945529,-3.41751 -0.327708,-0.42134 -1.123566,-0.79586 -1.732164,-0.79586 -0.983117,0 -1.123563,0.23408 -1.123563,1.63853 z"
           inkscape:connector-curvature="0"
           style="fill:#e0d000;fill-opacity:1;stroke:none;stroke-width:0.15348852;stroke-dasharray:none;stroke-opacity:1" />
        <path
           id="path1096"
           d="m -90.345922,115.60513 c 1.919422,3.04299 3.370693,4.58789 6.741385,7.30317 4.307001,3.51114 5.898716,5.10286 8.660812,8.70763 3.792032,5.05604 6.788206,12.12513 7.162726,17.13436 0.140446,1.77897 0.608594,3.79203 1.029935,4.40063 l 0.749044,1.17038 0.280889,-1.77898 c 0.374523,-2.29394 -0.514966,-7.06909 -2.106683,-11.46972 -1.685346,-4.6347 -2.621651,-6.36687 -6.554126,-12.45284 -1.87261,-2.85573 -3.74522,-5.71146 -4.166553,-6.4605 -0.468154,-0.70223 -1.170382,-1.26401 -1.591717,-1.26401 -0.421336,0 -1.170379,-0.32771 -1.591718,-0.74905 -1.591715,-1.40445 -8.145843,-5.71145 -8.801253,-5.75826 -0.468154,-0.0468 -0.421338,0.23407 0.187259,1.21719 z"
           inkscape:connector-curvature="0"
           style="fill:#e0d000;fill-opacity:1;stroke:none;stroke-width:0.15348852;stroke-dasharray:none;stroke-opacity:1" />
        <path
           id="path1099"
           d="m -54.43867,118.17997 c -0.327705,1.35764 -0.702226,2.94935 -0.842672,3.51114 -0.234077,0.88949 -0.09363,1.07674 0.702228,1.07674 1.26401,0 5.196486,-1.91942 5.196486,-2.52802 0,-0.46814 -3.745217,-4.40062 -4.213366,-4.44744 -0.140446,-0.0468 -0.514969,1.07675 -0.842676,2.38758 z"
           inkscape:connector-curvature="0"
           style="fill:#e0d000;fill-opacity:1;stroke:none;stroke-width:0.15348852;stroke-dasharray:none;stroke-opacity:1" />
        <path
           id="path1102"
           d="m -50.412561,122.11244 c -1.076749,0.70223 -2.715284,1.35765 -3.651586,1.45127 -1.217195,0.18726 -2.059866,0.70223 -2.996174,1.82579 l -1.217194,1.54491 3.089804,3.32388 c 1.732161,1.77898 3.464324,3.27706 3.88566,3.27706 0.842674,0 3.604771,-2.66847 4.868781,-4.77515 0.468153,-0.74904 0.936304,-2.29395 1.123566,-3.46432 0.234074,-1.96624 0.187259,-2.24713 -1.076751,-3.27707 -1.685346,-1.35764 -1.685346,-1.35764 -4.026106,0.0936 z"
           inkscape:connector-curvature="0"
           style="fill:#e0d000;fill-opacity:1;stroke:none;stroke-width:0.15348852;stroke-dasharray:none;stroke-opacity:1" />
        <path
           id="path1105"
           d="m -62.537698,87.188307 c 0.561784,0.795859 0.795858,1.404456 0.561784,1.404456 -0.468154,0 -2.106686,-2.34076 -1.825794,-2.62165 0.140446,-0.09363 0.655415,0.468154 1.26401,1.217194 z"
           inkscape:connector-curvature="0"
           style="fill:#000000;fill-opacity:1;stroke:none;stroke-width:0.15348852;stroke-dasharray:none;stroke-opacity:1" />
        <path
           id="path1108"
           d="m -35.80622,106.42935 c 0,0.37453 -0.327708,1.12357 -0.702228,1.63854 -0.514967,0.70222 -0.655413,0.74904 -0.702228,0.14044 0,-0.37452 0.327705,-1.12357 0.702228,-1.63853 0.514966,-0.70223 0.655413,-0.74904 0.702228,-0.14045 z"
           inkscape:connector-curvature="0"
           style="fill:#000000;fill-opacity:1;stroke:none;stroke-width:0.15348852;stroke-dasharray:none;stroke-opacity:1" />
        <path
           id="path1111"
           d="m -51.957461,119.49079 c -0.140449,0.23408 -0.6086,0.46816 -0.98312,0.46816 -0.374523,0 -0.561782,-0.23408 -0.421338,-0.46816 0.140446,-0.28089 0.608597,-0.46815 0.98312,-0.46815 0.37452,0 0.561782,0.18726 0.421338,0.46815 z"
           inkscape:connector-curvature="0"
           style="fill:#000000;fill-opacity:1;stroke:none;stroke-width:0.15348852;stroke-dasharray:none;stroke-opacity:1" />
        <path
           id="path1114"
           d="m -50.318931,124.03187 c 0,0.23407 -0.234076,0.70222 -0.468153,1.07675 -0.374521,0.56178 -0.468151,0.51496 -0.468151,-0.37453 0,-0.56177 0.187261,-1.02993 0.468151,-1.02993 0.234077,0 0.468153,0.14044 0.468153,0.32771 z"
           inkscape:connector-curvature="0"
           style="fill:#000000;fill-opacity:1;stroke:none;stroke-width:0.15348852;stroke-dasharray:none;stroke-opacity:1" />
      </g>
    </g>
  </g>
</svg>
