<?xml version="1.0" encoding="UTF-8" standalone="no"?>
<!-- Created with Inkscape (http://www.inkscape.org/) -->

<svg
   xmlns:dc="http://purl.org/dc/elements/1.1/"
   xmlns:cc="http://creativecommons.org/ns#"
   xmlns:rdf="http://www.w3.org/1999/02/22-rdf-syntax-ns#"
   xmlns:svg="http://www.w3.org/2000/svg"
   xmlns="http://www.w3.org/2000/svg"
   xmlns:sodipodi="http://sodipodi.sourceforge.net/DTD/sodipodi-0.dtd"
   xmlns:inkscape="http://www.inkscape.org/namespaces/inkscape"
   width="205.67194mm"
   height="203.20006mm"
   viewBox="0 0 205.67194 203.20006"
   version="1.1"
   id="svg1135"
   inkscape:version="0.92.3 (2405546, 2018-03-11)"
   sodipodi:docname="prima-lux-of-unser-hafen.svg"
   inkscape:export-filename="/home/swarren/git_wa/sca-devices-badges/outlands/awards/unser-hafen/guardians-of-the-portcullis-of-unser-hafen.png"
   inkscape:export-xdpi="18.52"
   inkscape:export-ydpi="18.52">
  <defs
     id="defs1129">
    <clipPath
       clipPathUnits="userSpaceOnUse"
       id="clipPath1060">
      <circle
         style="opacity:1;vector-effect:none;fill:none;fill-opacity:1;fill-rule:nonzero;stroke:#000000;stroke-width:0.99999994;stroke-linecap:round;stroke-linejoin:bevel;stroke-miterlimit:4;stroke-dasharray:none;stroke-dashoffset:0;stroke-opacity:1"
         id="circle1062"
         cx="-244.68457"
         cy="327.80801"
         r="53.787991" />
    </clipPath>
    <clipPath
       clipPathUnits="userSpaceOnUse"
       id="clipPath1064">
      <circle
         r="53.787991"
         cy="327.80801"
         cx="-244.68457"
         id="circle1066"
         style="opacity:1;vector-effect:none;fill:none;fill-opacity:1;fill-rule:nonzero;stroke:#000000;stroke-width:0.99999994;stroke-linecap:round;stroke-linejoin:bevel;stroke-miterlimit:4;stroke-dasharray:none;stroke-dashoffset:0;stroke-opacity:1" />
    </clipPath>
    <clipPath
       clipPathUnits="userSpaceOnUse"
       id="clipPath1068">
      <circle
         style="opacity:1;vector-effect:none;fill:none;fill-opacity:1;fill-rule:nonzero;stroke:#000000;stroke-width:0.99999994;stroke-linecap:round;stroke-linejoin:bevel;stroke-miterlimit:4;stroke-dasharray:none;stroke-dashoffset:0;stroke-opacity:1"
         id="circle1070"
         cx="-244.68457"
         cy="327.80801"
         r="53.787991" />
    </clipPath>
    <clipPath
       clipPathUnits="userSpaceOnUse"
       id="clipPath1072">
      <circle
         r="53.787991"
         cy="327.80801"
         cx="-244.68457"
         id="circle1074"
         style="opacity:1;vector-effect:none;fill:none;fill-opacity:1;fill-rule:nonzero;stroke:#000000;stroke-width:0.99999994;stroke-linecap:round;stroke-linejoin:bevel;stroke-miterlimit:4;stroke-dasharray:none;stroke-dashoffset:0;stroke-opacity:1" />
    </clipPath>
    <clipPath
       id="artboard_clip_path">
      <path
         id="path1058"
         d="M 76.5 63 L 149.67036 63 L 149.67036 405 L 76.5 405 Z" />
    </clipPath>
    <clipPath
       clipPathUnits="userSpaceOnUse"
       id="clipPath1181">
      <ellipse
         style="opacity:1;vector-effect:none;fill:#e0d000;fill-opacity:1;fill-rule:nonzero;stroke:#000000;stroke-width:0.49999997;stroke-linecap:round;stroke-linejoin:bevel;stroke-miterlimit:4;stroke-dasharray:none;stroke-dashoffset:0;stroke-opacity:1"
         id="ellipse1183"
         cx="-194.29572"
         cy="197.06912"
         rx="39.781994"
         ry="10.488839" />
    </clipPath>
    <clipPath
       id="artboard_clip_path-6">
      <path
         id="path1288"
         d="M 141.75 61.652536 L 222.75 61.652536 L 222.75 415.34746 L 141.75 415.34746 Z" />
    </clipPath>
  </defs>
  <sodipodi:namedview
     id="base"
     pagecolor="#ffffff"
     bordercolor="#666666"
     borderopacity="1.0"
     inkscape:pageopacity="0.0"
     inkscape:pageshadow="2"
     inkscape:zoom="1.4"
     inkscape:cx="65.838516"
     inkscape:cy="422.55165"
     inkscape:document-units="mm"
     inkscape:current-layer="layer1"
     showgrid="false"
     inkscape:window-width="3840"
     inkscape:window-height="2090"
     inkscape:window-x="0"
     inkscape:window-y="41"
     inkscape:window-maximized="1"
     fit-margin-top="0"
     fit-margin-left="0"
     fit-margin-right="0"
     fit-margin-bottom="0"
     inkscape:object-paths="false"
     inkscape:snap-intersection-paths="false"
     inkscape:object-nodes="false" />
  <metadata
     id="metadata1132">
    <rdf:RDF>
      <cc:Work
         rdf:about="">
        <dc:format>image/svg+xml</dc:format>
        <dc:type
           rdf:resource="http://purl.org/dc/dcmitype/StillImage" />
        <dc:title />
      </cc:Work>
    </rdf:RDF>
  </metadata>
  <g
     inkscape:label="Layer 1"
     inkscape:groupmode="layer"
     id="layer1"
     transform="translate(0.17727383,-1.9766568)">
    <g
       id="g1550">
      <g
         style="stroke-width:0.98781639"
         transform="matrix(1.0123064,0,0,1.0123614,-0.27452158,2.0804854)"
         id="g1863">
        <path
           style="fill:#228b22;fill-opacity:1;stroke:#000000;stroke-width:0.98781639;stroke-miterlimit:4;stroke-dasharray:none"
           d="M 0.58997582,0.39134741 V 180.49721 v 18.761 c 7.86272778,-9.3805 7.86257178,-9.3805 22.46478018,-18.761 v -22.51304 h 22.464781 v 22.51304 c 7.301104,9.3805 7.301416,9.3805 11.23278,18.761 3.931364,-9.3805 3.930896,-9.3805 11.232001,-18.761 v -22.51304 h 22.46478 v 22.51304 c 7.301104,9.3805 7.301416,9.3805 11.232782,18.761 3.93136,-9.3805 3.93167,-9.3805 11.23278,-18.761 v -22.51304 h 22.46478 v 22.51304 c 7.3011,9.3805 7.30064,9.3805 11.232,18.761 3.93136,-9.3805 3.93168,-9.3805 11.23278,-18.761 V 157.98417 H 180.309 v 22.51304 c 14.60221,9.3805 14.60205,9.3805 22.46478,18.761 V 180.49721 0.39134741 H 101.68188 Z M 23.054756,22.905153 H 45.519537 V 45.418196 H 23.054756 Z m 44.929562,0 h 22.46478 v 22.513043 h -22.46478 z m 44.930342,0 h 22.46478 v 22.513043 h -22.46478 z m 44.92956,0 H 180.309 V 45.418196 H 157.84422 Z M 23.054756,67.931239 H 45.519537 V 90.444281 H 23.054756 Z m 44.929562,0 h 22.46478 v 22.513042 h -22.46478 z m 44.930342,0 h 22.46478 v 22.513042 h -22.46478 z m 44.92956,0 H 180.309 V 90.444281 H 157.84422 Z M 23.054756,112.95732 h 22.464781 v 22.51381 H 23.054756 Z m 44.929562,0 h 22.46478 v 22.51381 h -22.46478 z m 44.930342,0 h 22.46478 v 22.51381 h -22.46478 z m 44.92956,0 H 180.309 v 22.51381 h -22.46478 z"
           id="path913"
           inkscape:connector-curvature="0" />
        <path
           style="stroke:#000000;stroke-width:0.4939082;stroke-miterlimit:4;stroke-dasharray:none"
           inkscape:connector-curvature="0"
           d="M 23.054556,22.904824 0.58962022,0.39163017"
           id="path917" />
        <path
           style="stroke:#000000;stroke-width:0.4939082;stroke-miterlimit:4;stroke-dasharray:none"
           inkscape:connector-curvature="0"
           d="M 45.519492,22.904824 56.75196,11.648227"
           id="path919" />
        <path
           style="stroke:#000000;stroke-width:0.4939082;stroke-miterlimit:4;stroke-dasharray:none"
           inkscape:connector-curvature="0"
           d="M 23.054556,45.418018 11.822088,56.674615"
           id="path921" />
        <path
           style="stroke:#000000;stroke-width:0.4939082;stroke-miterlimit:4;stroke-dasharray:none"
           inkscape:connector-curvature="0"
           d="M 67.984428,22.904824 56.75196,11.648227"
           id="path923" />
        <path
           style="stroke:#000000;stroke-width:0.4939082;stroke-miterlimit:4;stroke-dasharray:none"
           inkscape:connector-curvature="0"
           d="M 90.449364,22.904824 101.68183,11.648227"
           id="path925" />
        <path
           style="stroke:#000000;stroke-width:0.4939082;stroke-miterlimit:4;stroke-dasharray:none"
           inkscape:connector-curvature="0"
           d="M 112.9143,22.904824 101.68183,11.648227"
           id="path927" />
        <path
           style="stroke:#000000;stroke-width:0.4939082;stroke-miterlimit:4;stroke-dasharray:none"
           inkscape:connector-curvature="0"
           d="M 135.37924,22.904824 146.6117,11.648227"
           id="path929" />
        <path
           style="stroke:#000000;stroke-width:0.4939082;stroke-miterlimit:4;stroke-dasharray:none"
           inkscape:connector-curvature="0"
           d="M 157.84417,22.904824 146.6117,11.648227"
           id="path931" />
        <path
           style="stroke:#000000;stroke-width:0.4939082;stroke-miterlimit:4;stroke-dasharray:none"
           inkscape:connector-curvature="0"
           d="m 180.30911,45.418018 11.23247,11.256597"
           id="path933" />
        <path
           style="stroke:#000000;stroke-width:0.4939082;stroke-miterlimit:4;stroke-dasharray:none"
           inkscape:connector-curvature="0"
           d="M 180.30911,22.904824 202.77404,0.39163017"
           id="path935" />
        <path
           style="stroke:#000000;stroke-width:0.4939082;stroke-miterlimit:4;stroke-dasharray:none"
           inkscape:connector-curvature="0"
           d="M 23.054556,67.931212 11.822088,56.674615"
           id="path937" />
        <path
           style="stroke:#000000;stroke-width:0.4939082;stroke-miterlimit:4;stroke-dasharray:none"
           inkscape:connector-curvature="0"
           d="M 45.519492,67.931212 67.984428,45.418018"
           id="path939" />
        <path
           style="stroke:#000000;stroke-width:0.4939082;stroke-miterlimit:4;stroke-dasharray:none"
           inkscape:connector-curvature="0"
           d="M 23.054556,90.444406 11.822088,101.701"
           id="path941" />
        <path
           style="stroke:#000000;stroke-width:0.4939082;stroke-miterlimit:4;stroke-dasharray:none"
           inkscape:connector-curvature="0"
           d="M 67.984428,67.931212 45.519492,45.418018"
           id="path943" />
        <path
           style="stroke:#000000;stroke-width:0.4939082;stroke-miterlimit:4;stroke-dasharray:none"
           inkscape:connector-curvature="0"
           d="M 90.449364,67.931212 112.9143,45.418018"
           id="path945" />
        <path
           style="stroke:#000000;stroke-width:0.4939082;stroke-miterlimit:4;stroke-dasharray:none"
           inkscape:connector-curvature="0"
           d="M 112.9143,67.931212 90.449364,45.418018"
           id="path947" />
        <path
           style="stroke:#000000;stroke-width:0.4939082;stroke-miterlimit:4;stroke-dasharray:none"
           inkscape:connector-curvature="0"
           d="M 135.37924,67.931212 157.84417,45.418018"
           id="path949" />
        <path
           style="stroke:#000000;stroke-width:0.4939082;stroke-miterlimit:4;stroke-dasharray:none"
           inkscape:connector-curvature="0"
           d="M 157.84417,67.931212 135.37924,45.418018"
           id="path951" />
        <path
           style="stroke:#000000;stroke-width:0.4939082;stroke-miterlimit:4;stroke-dasharray:none"
           inkscape:connector-curvature="0"
           d="M 180.30911,90.444406 191.54158,101.701"
           id="path953" />
        <path
           style="stroke:#000000;stroke-width:0.4939082;stroke-miterlimit:4;stroke-dasharray:none"
           inkscape:connector-curvature="0"
           d="M 180.30911,67.931212 191.54158,56.674615"
           id="path955" />
        <path
           style="stroke:#000000;stroke-width:0.4939082;stroke-miterlimit:4;stroke-dasharray:none"
           inkscape:connector-curvature="0"
           d="M 23.054556,112.9576 11.822088,101.701"
           id="path957" />
        <path
           style="stroke:#000000;stroke-width:0.4939082;stroke-miterlimit:4;stroke-dasharray:none"
           inkscape:connector-curvature="0"
           d="M 45.519492,112.9576 67.984428,90.444406"
           id="path959" />
        <path
           style="stroke:#000000;stroke-width:0.4939082;stroke-miterlimit:4;stroke-dasharray:none"
           inkscape:connector-curvature="0"
           d="m 23.054556,135.47079 -11.232468,11.2566"
           id="path961" />
        <path
           style="stroke:#000000;stroke-width:0.4939082;stroke-miterlimit:4;stroke-dasharray:none"
           inkscape:connector-curvature="0"
           d="M 67.984428,112.9576 45.519492,90.444406"
           id="path963" />
        <path
           style="stroke:#000000;stroke-width:0.4939082;stroke-miterlimit:4;stroke-dasharray:none"
           inkscape:connector-curvature="0"
           d="M 90.449364,112.9576 112.9143,90.444406"
           id="path965" />
        <path
           style="stroke:#000000;stroke-width:0.4939082;stroke-miterlimit:4;stroke-dasharray:none"
           inkscape:connector-curvature="0"
           d="M 112.9143,112.9576 90.449364,90.444406"
           id="path967" />
        <path
           style="stroke:#000000;stroke-width:0.4939082;stroke-miterlimit:4;stroke-dasharray:none"
           inkscape:connector-curvature="0"
           d="M 135.37924,112.9576 157.84417,90.444406"
           id="path969" />
        <path
           style="stroke:#000000;stroke-width:0.4939082;stroke-miterlimit:4;stroke-dasharray:none"
           inkscape:connector-curvature="0"
           d="M 157.84417,112.9576 135.37924,90.444406"
           id="path971" />
        <path
           style="stroke:#000000;stroke-width:0.4939082;stroke-miterlimit:4;stroke-dasharray:none"
           inkscape:connector-curvature="0"
           d="m 180.30911,135.47079 11.23247,11.2566"
           id="path973" />
        <path
           style="stroke:#000000;stroke-width:0.4939082;stroke-miterlimit:4;stroke-dasharray:none"
           inkscape:connector-curvature="0"
           d="M 180.30911,112.9576 191.54158,101.701"
           id="path975" />
        <path
           style="stroke:#000000;stroke-width:0.4939082;stroke-miterlimit:4;stroke-dasharray:none"
           inkscape:connector-curvature="0"
           d="M 23.054556,157.98399 11.822088,146.72739"
           id="path977" />
        <path
           style="stroke:#000000;stroke-width:0.4939082;stroke-miterlimit:4;stroke-dasharray:none"
           inkscape:connector-curvature="0"
           d="m 45.519492,157.98399 22.464936,-22.5132"
           id="path979" />
        <path
           style="stroke:#000000;stroke-width:0.4939082;stroke-miterlimit:4;stroke-dasharray:none"
           inkscape:connector-curvature="0"
           d="M 67.984428,157.98399 45.519492,135.47079"
           id="path981" />
        <path
           style="stroke:#000000;stroke-width:0.4939082;stroke-miterlimit:4;stroke-dasharray:none"
           inkscape:connector-curvature="0"
           d="M 90.449364,157.98399 112.9143,135.47079"
           id="path983" />
        <path
           style="stroke:#000000;stroke-width:0.4939082;stroke-miterlimit:4;stroke-dasharray:none"
           inkscape:connector-curvature="0"
           d="M 112.9143,157.98399 90.449364,135.47079"
           id="path985" />
        <path
           style="stroke:#000000;stroke-width:0.4939082;stroke-miterlimit:4;stroke-dasharray:none"
           inkscape:connector-curvature="0"
           d="m 135.37924,157.98399 22.46493,-22.5132"
           id="path987" />
        <path
           style="stroke:#000000;stroke-width:0.4939082;stroke-miterlimit:4;stroke-dasharray:none"
           inkscape:connector-curvature="0"
           d="m 157.84417,157.98399 -22.46493,-22.5132"
           id="path989" />
        <path
           style="stroke:#000000;stroke-width:0.4939082;stroke-miterlimit:4;stroke-dasharray:none"
           inkscape:connector-curvature="0"
           d="m 180.30911,157.98399 11.23247,-11.2566"
           id="path991" />
      </g>
      <g
         style="fill:#e0d000;fill-opacity:1;stroke:#000000;stroke-width:0.52531314;stroke-miterlimit:4;stroke-dasharray:none;stroke-opacity:1"
         transform="matrix(0.50577195,0,0,0.50315337,8.9753914,-23.21003)"
         id="Torch">
        <title
           id="title1295">Torch</title>
        <g
           style="fill:#e0d000;fill-opacity:1;stroke:#000000;stroke-width:0.52531314;stroke-miterlimit:4;stroke-dasharray:none;stroke-opacity:1"
           id="Torch: Layer 2"
           clip-path="url(#artboard_clip_path-6)">
          <title
             id="title1297">Layer 2</title>
          <g
             style="fill:#e0d000;fill-opacity:1;stroke:#000000;stroke-width:0.52531314;stroke-miterlimit:4;stroke-dasharray:none;stroke-opacity:1"
             id="Group_23">
            <g
               style="fill:#e0d000;fill-opacity:1;stroke:#000000;stroke-width:0.52531314;stroke-miterlimit:4;stroke-dasharray:none;stroke-opacity:1"
               id="Graphic_32">
              <path
                 style="fill:#e0d000;fill-opacity:1;stroke:#000000;stroke-width:0.52531314;stroke-miterlimit:4;stroke-dasharray:none;stroke-opacity:1"
                 inkscape:connector-curvature="0"
                 d="m 181.50897,64.59606 c -0.57002,1.48206 -1.25405,7.06827 -2.39409,19.26673 -0.57002,6.27023 -1.36805,6.15623 -2.28008,-0.34202 -0.79803,-5.92822 -2.5081,-7.52428 -3.53414,-3.19212 -0.34201,1.48206 -0.68402,7.18228 -0.91203,12.88249 l -0.22801,10.26039 -2.16608,-6.61225 c -1.14004,-3.64814 -2.73611,-6.38424 -3.42014,-6.15623 -1.36804,0.45601 -1.48205,4.44616 -0.342,16.18861 l 0.79803,7.9803 -2.6221,-6.61225 c -1.36806,-3.53413 -3.07812,-6.49825 -3.76215,-6.49825 -2.96411,0 -3.53413,7.18227 -1.14004,13.90853 2.05208,5.70021 0.68403,5.3582 -2.16608,-0.45602 -2.85011,-5.81422 -5.3582,-7.06827 -4.67418,-2.39409 2.05208,13.1105 3.53414,21.2048 4.90219,27.13302 l 1.71006,6.72626 -5.01619,4.67418 c -2.6221,2.62209 -6.04222,5.4722 -7.41028,6.38424 l -2.6221,1.82407 3.53414,10.7164 c 1.93807,5.92822 5.01619,14.59255 6.84026,19.38073 1.82407,4.67418 3.30612,9.46236 3.30612,10.6024 0,1.02604 1.02604,3.87615 2.28009,6.38424 1.36805,2.73611 1.82407,4.67418 1.14004,5.1302 -1.93807,1.14004 -1.25405,7.18228 0.91203,8.77833 1.82407,1.25405 2.5081,7.06827 5.70022,48.22382 2.05208,25.65097 4.21816,54.95007 4.78818,64.98245 0.68403,10.03238 1.82406,25.65098 2.5081,34.77132 1.48206,19.95076 0.29721,32.55906 0.45601,36.59536 0.12994,2.52723 -0.34201,3.53415 2.28009,6.04224 3.76214,3.42013 7.63829,3.76216 12.31246,0.91206 0,0 2.28967,-1.01285 3.13833,-2.92773 0.84866,-1.91487 0.50981,-27.51144 0.50981,-27.51144 0.11401,-15.73259 0.57002,-31.35118 1.02604,-34.77133 1.14004,-10.9444 4.10415,-60.9923 5.58622,-93.82552 1.25404,-30.55316 1.36804,-31.6932 3.87614,-33.40327 2.8501,-1.93807 3.30612,-6.72625 0.79803,-8.09431 -1.36805,-0.79802 -0.79803,-3.42012 3.99015,-16.3026 3.07811,-8.43633 6.84026,-19.38074 8.32231,-24.28292 l 2.73611,-8.77834 -5.1302,-7.41028 c -2.7361,-4.10415 -5.81422,-7.41027 -6.61224,-7.41027 -0.91204,0 -1.59607,-0.22801 -1.59607,-0.68403 0,-0.79803 6.95427,-13.3385 8.09431,-14.59255 1.36806,-1.48206 1.25404,-4.10416 0,-4.10416 -0.57002,0 -2.73611,1.36805 -4.78818,3.07812 l -3.64814,3.07812 0.91203,-2.85011 c 0.45602,-1.48206 1.48205,-3.99015 2.28009,-5.58621 0.91203,-1.59607 2.50809,-5.92823 3.76214,-9.46236 2.96412,-8.20831 0.91204,-8.89234 -4.44617,-1.36805 -2.05207,2.85011 -3.87614,4.90218 -4.10415,4.67417 -0.22801,-0.228 0.79804,-5.13019 2.28008,-10.8304 1.71006,-6.61225 2.28009,-10.3744 1.48206,-10.3744 -1.48206,0 -8.66433,7.98031 -8.66433,9.69037 0,0.79803 -1.02604,2.28009 -2.39409,3.53413 -2.28008,2.05208 -2.28008,2.05208 -1.71006,-0.68402 1.25405,-5.92823 1.25405,-20.86279 0,-21.31881 -0.79802,-0.22801 -1.82407,1.48206 -2.39409,3.87615 l -1.02603,4.33216 -1.48207,-6.84026 C 187.6652,75.08446 184.13107,63 182.87702,63 c -0.45602,0 -1.02604,0.684026 -1.36805,1.59606 z"
                 id="path1299" />
            </g>
            <g
               style="fill:#e0d000;fill-opacity:1;stroke:#000000;stroke-width:0.52531314;stroke-miterlimit:4;stroke-dasharray:none;stroke-opacity:1"
               id="Graphic_31">
              <path
                 style="fill:#e0d000;fill-opacity:1;stroke:#000000;stroke-width:0.52531314;stroke-miterlimit:4;stroke-dasharray:none;stroke-opacity:1"
                 inkscape:connector-curvature="0"
                 d="m 187.6652,84.77482 c 0.79803,4.67418 1.48206,10.4884 1.59606,12.99649 0.34202,9.34836 0.57003,10.83041 1.59606,10.83041 0.57003,0 1.36806,-1.82407 1.82408,-4.10415 1.14004,-6.61225 2.05207,-3.53414 1.14004,4.56017 -0.68404,6.95426 -3.19212,12.08446 -5.81422,12.08446 -0.68402,0 -1.25405,-3.42013 -1.36805,-7.7523 -0.22801,-8.66432 -1.14005,-13.90852 -2.39409,-13.90852 -0.45602,0 -1.59606,5.13019 -2.3941,11.40043 -1.14004,9.57636 -1.71006,11.28642 -2.96411,10.14638 -0.91203,-0.68403 -1.59606,-2.05208 -1.59606,-2.85011 0,-0.91203 -0.79803,-1.59606 -1.82407,-1.59606 -1.93807,0 -1.82406,2.16608 0.11401,9.12035 0.57002,1.93807 0.45602,2.50809 -0.34201,1.71006 -0.57003,-0.68403 -1.36806,-2.05208 -1.59606,-3.19212 -0.11401,-1.14004 -0.79804,-1.93807 -1.48206,-1.71006 -1.02604,0.34201 -1.02604,6.15623 0.114,10.6024 l 0.57002,2.28008 -1.82406,-2.28008 c -1.02604,-1.25405 -2.28008,-3.07812 -2.85011,-3.99015 -0.57002,-0.91204 -1.36805,-1.25405 -1.82407,-0.79803 -0.91203,0.79803 0.114,4.10415 4.21816,14.13653 0.79803,2.05208 1.25404,3.87615 1.02604,4.10415 -0.34202,0.22801 -2.7361,0.22801 -5.3582,-0.114 -5.70022,-0.57002 -6.27024,-1.71006 -8.77834,-17.21465 -1.71006,-10.37439 -1.71006,-14.25054 0.11401,-9.69037 0.79803,2.16609 3.64813,4.90219 5.2442,5.01619 1.36805,0 0.91203,-4.21816 -1.02604,-9.00634 -0.91203,-2.50809 -1.59606,-5.70021 -1.36805,-7.18227 0.34201,-1.93807 1.02603,-0.79803 3.19212,4.67418 4.44616,11.40043 6.27023,10.71641 5.2442,-2.28009 -0.68403,-10.94441 0.228,-12.08445 2.7361,-3.07811 0.68402,2.39409 1.82407,4.33216 2.6221,4.33216 1.02604,0 1.25404,-3.19212 1.14004,-11.62844 l -0.22801,-11.74244 1.82407,5.3582 c 2.05208,6.04223 4.10415,7.29628 3.53413,2.28009 -0.34201,-3.30613 1.02604,-19.15273 2.16609,-24.73894 l 0.68402,-3.42013 1.36806,4.10416 c 0.79802,2.280085 2.16607,7.9803 2.9641,12.54047 z"
                 id="path1302" />
            </g>
            <g
               style="fill:#e0d000;fill-opacity:1;stroke:#000000;stroke-width:0.52531314;stroke-miterlimit:4;stroke-dasharray:none;stroke-opacity:1"
               id="Graphic_30">
              <path
                 style="fill:#e0d000;fill-opacity:1;stroke:#000000;stroke-width:0.52531314;stroke-miterlimit:4;stroke-dasharray:none;stroke-opacity:1"
                 inkscape:connector-curvature="0"
                 d="m 205.10786,109.39975 c -0.91203,3.64814 -2.50809,9.34835 -3.42013,12.65448 -1.02603,3.42013 -1.59606,6.38424 -1.25404,6.61225 0.45601,0.57002 6.04222,-6.27024 8.43631,-10.26039 1.93808,-3.30612 1.82407,-0.45602 -0.114,4.10416 -4.67418,10.94441 -5.4722,13.3385 -4.67418,14.59255 0.57003,0.91203 1.48206,0.79803 3.30613,-0.34202 2.39409,-1.59606 2.39409,-1.59606 -0.34201,4.44617 -2.85011,6.04223 -2.96412,6.15624 -7.98031,6.15624 -4.67417,0 -4.90218,-0.11401 -3.30613,-2.05209 2.3941,-2.62209 6.95427,-11.74244 6.27025,-12.42646 -0.34202,-0.22801 -1.93808,0.34201 -3.53414,1.48206 -4.33216,2.7361 -4.90218,1.25404 -1.71006,-4.56018 3.07811,-5.92822 2.28008,-7.9803 -1.82407,-4.10415 l -2.85011,2.6221 v -4.44617 c 0,-3.53414 0.68403,-5.01619 2.96411,-6.72626 1.71007,-1.25404 4.67418,-4.90218 6.84026,-8.20831 2.16608,-3.30612 4.10416,-6.04222 4.33216,-6.04222 0.34202,0 -0.228,2.96411 -1.14004,6.49824 z"
                 id="path1305" />
            </g>
            <g
               style="fill:#e0d000;fill-opacity:1;stroke:#000000;stroke-width:0.52531314;stroke-miterlimit:4;stroke-dasharray:none;stroke-opacity:1"
               id="Graphic_29">
              <path
                 style="fill:#e0d000;fill-opacity:1;stroke:#000000;stroke-width:0.52531314;stroke-miterlimit:4;stroke-dasharray:none;stroke-opacity:1"
                 inkscape:connector-curvature="0"
                 d="m 185.84114,121.48421 c 0.57002,3.76214 0.91203,4.21816 2.50809,2.96411 1.48206,-1.25405 1.59607,-0.79803 0.91203,3.87615 -0.91203,5.58621 -0.114,6.72625 2.3941,3.30612 1.36804,-1.82407 1.48204,-1.71006 1.59606,0.57002 0,1.36805 -0.45602,2.85011 -1.14005,3.19212 -2.39409,1.48206 -1.02604,3.07812 2.16608,2.6221 1.93808,-0.22801 3.30613,-0.22801 3.07812,0.11401 -0.114,0.34201 -1.25405,2.6221 -2.39409,4.90218 l -2.28008,4.33217 h -10.03238 c -5.58622,0 -9.80438,-0.45602 -9.46236,-1.02604 0.34201,-0.57003 -0.11401,-2.85011 -1.02604,-5.1302 l -1.82407,-4.21815 3.07812,2.05207 c 3.07811,1.93807 3.07811,1.93807 2.39409,-0.79803 -0.34202,-1.59606 -1.02604,-4.10415 -1.48206,-5.70021 -0.79803,-2.85011 -0.79803,-2.85011 1.48206,-0.79803 2.96411,2.6221 3.99014,1.14004 2.6221,-3.87615 -1.48206,-5.13019 -1.48206,-5.2442 0.57002,-2.6221 1.48205,1.82407 1.82407,1.93807 2.8501,0.45602 0.57002,-0.91204 1.14005,-3.07812 1.14005,-4.78818 0,-3.64814 1.48205,-8.09431 1.93807,-5.47221 0.114,0.91203 0.45602,3.64814 0.91204,6.04223 z"
                 id="path1308" />
            </g>
            <g
               style="fill:#e0d000;fill-opacity:1;stroke:#000000;stroke-width:0.52531314;stroke-miterlimit:4;stroke-dasharray:none;stroke-opacity:1"
               id="Graphic_28">
              <path
                 style="fill:#e0d000;fill-opacity:1;stroke:#000000;stroke-width:0.52531314;stroke-miterlimit:4;stroke-dasharray:none;stroke-opacity:1"
                 inkscape:connector-curvature="0"
                 d="m 210.12405,152.37937 c 1.48205,1.25405 3.42013,3.76215 4.33217,5.47221 l 1.71006,3.19212 -11.74244,0.114 c -6.49824,0 -14.82056,0.11401 -18.5827,0.22801 -8.20831,0.22801 -33.74528,-1.48205 -35.11333,-2.28008 -0.45601,-0.22801 1.59606,-2.7361 4.56017,-5.47221 l 5.47221,-4.90218 23.37088,0.57002 c 21.77483,0.57002 23.59889,0.79803 25.99298,3.07811 z"
                 id="path1311" />
            </g>
            <g
               style="fill:#e0d000;fill-opacity:1;stroke:#000000;stroke-width:0.52531314;stroke-miterlimit:4;stroke-dasharray:none;stroke-opacity:1"
               id="Graphic_27">
              <path
                 style="fill:#e0d000;fill-opacity:1;stroke:#000000;stroke-width:0.52531314;stroke-miterlimit:4;stroke-dasharray:none;stroke-opacity:1"
                 inkscape:connector-curvature="0"
                 d="m 172.16062,163.32379 c 4.44617,0.57001 16.07461,0.68402 25.99298,0.34201 12.9965,-0.45602 17.89868,-0.34201 17.89868,0.57002 0,2.73611 -2.73611,12.54048 -5.70022,20.74878 -1.71006,4.67418 -4.33216,11.74245 -5.70021,15.7326 -1.36805,3.87615 -3.07812,7.41028 -3.76215,7.8663 -0.79803,0.45601 -29.0711,0.91203 -35.79735,0.45601 -1.36805,-0.11401 -1.71006,-0.91203 -7.9803,-18.35469 -4.21815,-12.08446 -6.84025,-20.52077 -7.8663,-25.65097 l -0.68402,-3.42013 7.8663,0.34202 c 4.21815,0.114 11.40043,0.68402 15.73259,1.36805 z"
                 id="path1314" />
            </g>
            <g
               style="fill:#e0d000;fill-opacity:1;stroke:#000000;stroke-width:0.52531314;stroke-miterlimit:4;stroke-dasharray:none;stroke-opacity:1"
               id="Graphic_26">
              <path
                 style="fill:#e0d000;fill-opacity:1;stroke:#000000;stroke-width:0.52531314;stroke-miterlimit:4;stroke-dasharray:none;stroke-opacity:1"
                 inkscape:connector-curvature="0"
                 d="m 203.05579,213.59969 c 2.28008,1.82406 1.93807,2.96411 -0.91204,4.56017 -2.6221,1.48205 -36.48138,1.71006 -38.64745,0.34201 -2.05209,-1.14004 -1.02605,-5.13019 1.59605,-6.04223 3.64815,-1.48205 36.02536,-0.45601 37.96344,1.14005 z"
                 id="path1317" />
            </g>
            <g
               style="fill:#e0d000;fill-opacity:1;stroke:#000000;stroke-width:0.52531314;stroke-miterlimit:4;stroke-dasharray:none;stroke-opacity:1"
               id="Graphic_25">
              <path
                 style="fill:#e0d000;fill-opacity:1;stroke:#000000;stroke-width:0.52531314;stroke-miterlimit:4;stroke-dasharray:none;stroke-opacity:1"
                 inkscape:connector-curvature="0"
                 d="m 199.74966,230.35832 c -0.45602,4.78818 -1.02604,16.18861 -1.36806,25.30895 -0.342,9.12035 -1.59605,32.94725 -2.8501,53.01201 -1.14004,20.06475 -2.7361,48.56582 -3.42013,63.27238 -1.36805,28.61508 2.70018,29.59878 -7.75607,29.64114 -8.6465,0.035 -5.0124,-1.8241 -7.06449,-35.34135 -1.48205,-23.37088 -2.39409,-34.54331 -2.96411,-35.45535 -0.228,-0.342 -0.45602,-5.01618 -0.45602,-10.26038 -0.114,-5.24419 -0.91203,-18.01268 -1.71006,-28.38707 -0.91204,-10.37439 -1.93807,-23.48489 -2.28009,-29.0711 -0.34201,-5.70021 -1.36805,-16.98665 -2.16608,-25.08095 -0.79803,-8.2083 -1.25405,-15.16257 -1.14005,-15.50458 0.22802,-0.45602 7.9803,-0.79802 17.10065,-0.79802 l 16.64463,-0.114 z"
                 id="path1320" />
            </g>
            <g
               style="fill:#e0d000;fill-opacity:1;stroke:#000000;stroke-width:0.52531314;stroke-miterlimit:4;stroke-dasharray:none;stroke-opacity:1"
               id="Graphic_24">
              <path
                 style="fill:#e0d000;fill-opacity:1;stroke:#000000;stroke-width:0.52531314;stroke-miterlimit:4;stroke-dasharray:none;stroke-opacity:1"
                 inkscape:connector-curvature="0"
                 d="m 191.54135,406.15296 c 0,3.87614 -4.90218,6.61224 -9.34835,5.01618 -2.5081,-0.79804 -3.30613,-1.93807 -3.53414,-4.78818 0,0 -0.74089,-3.00031 5.57517,-2.7975 6.31605,0.20281 7.30732,-0.0526 7.30732,2.5695 z"
                 id="path1323" />
            </g>
          </g>
        </g>
      </g>
    </g>
  </g>
</svg>
