<?xml version="1.0" encoding="UTF-8" standalone="no"?>
<!DOCTYPE svg PUBLIC "-//W3C//DTD SVG 1.1//EN" "http://www.w3.org/Graphics/SVG/1.1/DTD/svg11.dtd">
<svg xmlns="http://www.w3.org/2000/svg" xmlns:dc="http://purl.org/dc/elements/1.1/" version="1.1" xmlns:xl="http://www.w3.org/1999/xlink" viewBox="33.75 61.79167 297 297.70833" width="297" height="297.70833">
  <defs>
    <clipPath id="artboard_clip_path">
      <path d="M 33.75 359.5 L 330.75 359.5 L 330.75 61.79167 L 33.75 61.79167 Z"/>
    </clipPath>
  </defs>
  <metadata> Produced by OmniGraffle 7.10.2 test 
    <dc:date>2019-03-13 06:47:41 +0000</dc:date>
  </metadata>
  <g id="Rose_(4)" stroke-dasharray="none" stroke-opacity="1" fill="none" fill-opacity="1" stroke="none">
    <title>Rose (4)</title>
    <g id="Rose_(4): Layer 2" clip-path="url(#artboard_clip_path)">
      <title>Layer 2</title>
      <g id="Group_3">
        <g id="Graphic_77">
          <path d="M 266.92374 71.371786 C 266.39445 74.68643 265.47742 79.97195 264.7391 83.20453 L 263.434 89.10975 L 267.5774 90.10915 C 272.2807 91.28013 278.41785 94.94414 279.23202 97.04913 C 280.0462 99.15412 277.83684 100.60285 275.7687 99.35664 C 272.80465 97.56566 264.89972 100.49376 264.81825 103.40519 C 264.7213 103.89791 265.33357 104.4278 266.10997 104.5396 C 268.85726 105.03915 276.15948 110.89766 278.9374 114.88343 C 289.12312 129.4979 290.76633 133.4242 293.00934 148.9736 C 294.22793 156.93117 295.4159 161.40253 296.81972 163.11173 C 297.95473 164.52239 298.85097 166.41834 298.73174 167.33658 C 298.47066 168.24738 301.0773 174.14426 304.37086 180.50383 C 311.0326 193.15576 312.80307 198.72436 312.37163 205.59986 C 312.19353 210.3552 308.7915 219.63513 306.5524 221.65122 C 305.88067 222.25604 305.3957 223.36846 305.50036 224.0851 C 305.76947 225.73483 314.9144 226.2852 316.63103 224.73954 C 318.49694 223.05946 321.05036 224.54446 320.91655 227.09757 C 320.8571 228.23228 319.58857 230.72592 317.99147 232.70454 C 316.469 234.61596 315.5139 236.5571 315.8499 236.9303 C 318.2841 239.33352 324.9889 244.37847 325.78018 244.2066 C 326.21313 244.08705 327.2286 245.06476 327.94554 246.31128 C 329.45404 248.7371 327.72254 250.56646 324.70644 249.76836 C 323.79563 249.5073 319.96597 249.30658 316.2707 249.25515 C 311.717 249.30096 309.77614 249.69704 310.22426 250.64502 C 311.4342 253.33966 310.66675 259.84197 309.0099 261.60412 C 307.1963 263.6425 307.0619 263.49323 303.05172 257.23834 L 301.22208 254.15564 L 301.17095 259.2021 C 301.15136 271.78833 293.5313 280.13606 270.62355 292.51838 C 258.0314 299.3966 255.96387 300.85275 250.6275 306.33336 C 247.3884 309.79044 240.4847 316.6823 235.37968 321.81947 C 226.83396 330.1898 225.6472 331.1232 220.9445 332.6546 C 213.63667 335.0451 207.79152 335.30768 203.4165 333.30053 C 200.4227 332.0769 199.50446 331.95768 199.43756 333.23423 C 199.38552 334.2271 200.1548 335.83194 201.16284 336.9515 C 202.17088 338.07104 202.87295 339.60123 202.62674 340.22836 C 202.25386 341.91557 197.35668 341.73003 193.46695 339.96166 C 191.6602 339.15583 190.04763 338.71574 189.8835 339.13383 C 189.71935 339.5519 188.4211 342.6129 187.03334 346.0248 C 185.57839 349.36204 183.86978 353.46825 183.28786 355.0734 C 182.6313 356.74572 181.7657 358.336 181.39252 358.672 C 179.8998 360.01606 177.71152 355.6345 175.61186 346.8485 C 174.45364 341.8098 173.25825 337.48028 173.05664 337.25637 C 172.85503 337.03246 170.97395 337.64502 168.92873 338.67567 C 164.77109 340.66232 159.70977 340.89487 159.01514 339.22283 C 158.694 338.56597 159.5596 336.9757 160.91048 335.6242 C 162.26137 334.27272 163.76154 332.78682 164.35863 332.2492 C 164.88852 331.63694 162.92507 331.10735 159.46115 330.71247 C 156.27348 330.4743 150.10688 328.72883 145.72443 326.86352 C 135.83967 322.78976 130.06051 317.7222 122.19717 306.28737 C 115.4614 296.40503 108.73397 290.4344 98.81175 285.71866 C 78.69848 275.9886 66.005456 265.79404 64.017895 257.58283 C 63.15109 253.76833 63.41809 245.95973 64.61227 244.8845 C 64.985455 244.54847 64.64944 244.1753 64.089516 244.00372 C 63.46239 243.7575 61.327666 245.13903 59.237846 247.02072 C 56.02848 249.91044 55.446254 250.1644 54.1694 248.7463 C 53.36296 247.85066 52.87707 244.9095 53.092945 242.14735 C 53.58446 236.83952 53.920474 237.2127 46.86567 236.13183 C 45.59655 235.9231 42.8121 236.13274 40.804047 236.4542 C 32.54793 237.9416 35.473015 232.33462 45.460336 227.66667 C 51.805036 224.6568 51.805036 224.6568 48.46749 221.85065 C 44.779063 218.955 42.583365 214.7153 43.284525 212.19192 C 43.903616 209.87758 46.30745 210.1458 48.66699 212.61623 C 49.40622 213.43723 51.42201 214.32513 53.04201 214.62337 L 55.99834 215.205 L 53.86241 211.18176 C 52.630153 208.91263 51.54657 203.80672 51.26942 199.59644 C 50.849826 192.67634 51.21527 191.13097 56.84093 177.41625 C 60.58641 168.36766 63.37649 159.90903 63.98011 155.176 C 65.62743 144.09735 69.9239 128.60622 72.90875 123.21572 C 76.75921 116.23495 89.56664 103.89221 94.17984 102.71169 C 98.50935 101.5163 98.68093 100.95637 95.14951 99.13567 C 90.43847 96.75534 93.10278 93.41036 100.32885 92.58011 C 102.0458 92.38564 104.06128 91.92235 104.5763 91.59377 C 105.23316 91.27262 104.49333 87.74924 103.05916 83.90501 C 101.19918 78.68729 100.82539 76.32092 101.81053 75.1636 C 102.8031 73.86445 103.5123 73.90161 104.65475 75.17043 C 105.52839 76.14071 108.948 78.73781 112.30785 81.118445 L 118.42272 85.20798 L 122.71416 80.66821 C 127.75197 75.45642 131.34969 73.29819 132.69375 74.79092 C 133.56739 75.76119 130.94085 81.09936 128.55248 83.24985 C 127.80612 83.92188 128.03836 87.632 128.912 88.60228 C 129.04641 88.75155 132.24834 86.00366 136.12944 82.50911 C 142.69744 76.59525 143.50358 76.1397 147.057 76.18369 C 149.11738 76.22056 153.04398 75.92854 155.76123 75.64426 C 162.19604 74.98589 164.5178 75.46314 172.61069 78.447395 C 177.97859 80.50658 181.23346 80.81939 190.50505 80.30969 C 207.27153 79.26829 213.94572 80.82702 225.43622 88.18508 C 228.39285 90.1179 231.08066 91.75216 231.2897 91.83423 C 231.49875 91.9163 232.11814 90.95316 232.53592 89.76611 C 233.54306 86.83208 232.0637 81.13651 229.92094 79.95749 C 229.025 79.41274 228.3827 78.09902 228.57657 77.11357 C 228.80018 75.56077 229.9572 75.19472 235.00365 75.24585 C 239.97546 75.36419 241.79707 75.88634 244.7314 78.24467 L 248.278 81.13289 L 251.9872 76.84707 C 254.09933 74.53987 257.12195 71.14255 258.78625 69.23857 C 261.0625 66.513284 262.4583 65.66195 264.73517 65.63904 L 267.66146 65.43683 L 266.92374 71.371785 Z" fill="black"/>
        </g>
        <g id="Graphic_76">
          <path d="M 259.05748 80.34664 C 257.52045 83.89293 255.75208 87.78266 254.97598 89.02205 C 252.8716 92.5386 252.93167 94.10627 255.2912 96.57671 C 256.50086 97.92016 257.96445 99.84584 258.47234 101.01029 C 259.36858 102.90624 259.6597 102.77927 263.95888 99.44885 C 266.48165 97.44763 268.63867 95.64058 268.65354 95.35691 C 268.92205 94.30426 262.9199 93.4919 261.09858 94.32094 C 257.8217 95.78484 257.16425 93.4036 259.3727 87.9013 C 261.67066 82.04811 263.44556 73.96297 262.45268 73.91093 C 262.1018 73.82143 260.5945 76.80036 259.05748 80.34664 Z" fill="#f3f3f3"/>
        </g>
        <g id="Graphic_75">
          <path d="M 253.48114 80.90777 C 251.3616 83.35681 249.5929 85.89536 249.55575 86.60455 C 249.3027 90.0759 247.55573 89.48655 243.1352 84.27686 C 237.36318 77.71629 235.04142 77.23904 236.1699 82.84511 C 236.61833 85.14427 236.51456 88.48122 235.98497 90.44467 L 234.8809 93.87141 L 239.91218 92.85503 C 242.6443 92.28707 245.78706 92.02509 246.92177 92.08456 C 248.04906 92.28587 249.4151 92.00189 249.93757 91.53146 C 251.13175 90.45622 257.93703 77.301115 257.5338 76.8533 C 257.3322 76.62939 255.52606 78.52594 253.48114 80.90777 Z" fill="#f3f3f3"/>
        </g>
        <g id="Graphic_74">
          <path d="M 265.42428 109.48168 L 265.42428 109.48168 C 270.03808 111.00354 274.70482 115.5861 279.84258 123.39349 C 285.63007 132.37277 287.37052 137.15753 289.13507 149.62393 C 289.9799 155.21514 291.61626 161.98566 292.759 164.60567 C 293.90176 167.22568 296.5682 173.33903 298.73415 178.1461 C 300.82548 183.02038 303.41696 187.84975 304.2906 188.82002 C 313.7662 199.34376 305.9336 225.31674 292.58644 227.60405 C 284.91255 228.83751 275.79736 227.71978 271.31767 224.996 C 270.07828 224.2199 264.65805 221.8024 259.37222 219.53418 C 254.01175 217.33316 248.72593 215.06494 247.6135 214.57995 C 246.5011 214.09496 244.82876 213.4384 243.91795 213.17733 C 242.9325 212.98345 238.46055 211.46903 233.91395 210.0218 C 229.442 208.50738 224.03693 207.1574 222.05118 207.05332 C 217.58695 206.74825 208.97996 208.14615 207.48723 209.4902 C 204.9496 211.7751 210.6544 218.26105 218.89686 222.46209 C 227.759 227.05117 231.53664 228.24475 250.46165 232.15226 C 263.54865 234.82933 277.91993 238.78265 281.73503 240.61822 C 287.08063 243.10292 296.0112 253.1714 297.25148 258.00108 C 299.19414 265.71214 291.23124 276.5309 278.2659 283.74513 C 275.33247 285.44037 269.68954 288.62925 265.6663 290.76518 C 254.67897 296.87412 249.7827 300.74216 244.16297 307.5591 C 241.42402 310.97127 235.63242 316.99693 231.3035 320.8947 C 224.50415 327.152 222.88445 328.20496 218.62957 329.33314 C 212.71752 330.8723 208.30563 330.92552 204.46824 329.51547 C 200.63084 328.1054 194.11958 320.72384 191.37853 314.6777 C 188.6449 308.4897 188.0451 296.8666 190.00674 289.28904 C 194.29547 272.58855 194.18869 262.4136 189.71371 247.38725 C 184.99223 231.63685 180.05015 230.95116 173.8946 245.27814 C 171.30553 251.2583 170.78368 254.4311 170.74119 264.74048 C 170.7427 271.49643 171.46174 282.2013 172.41865 288.3673 C 175.7533 311.58314 174.76192 318.28706 167.16357 323.5069 C 161.63274 327.27056 155.9443 327.2569 147.10475 323.5935 L 140.21378 320.74333 L 128.3037 306.46517 C 114.58656 290.03 111.72686 287.60445 97.9821 281.19496 C 92.84555 278.79233 85.18532 274.33735 80.86233 271.33733 C 74.00823 266.4268 72.5821 265.1431 70.042956 260.67205 C 65.21861 252.31217 66.73956 243.6448 74.48658 235.58818 C 79.97221 229.97317 83.30142 228.86758 97.20138 228.24487 C 107.04033 227.7649 126.53832 223.45317 135.26426 219.78583 C 140.13853 217.6945 143.33303 215.08846 144.40737 212.22907 C 145.40708 209.43688 143.98095 208.1532 137.62761 205.90014 C 129.38545 203.0503 114.79147 204.70335 100.92245 210.16346 C 84.29901 216.61706 67.65981 219.30076 67.00204 215.56833 C 66.82273 214.9189 65.57591 214.28465 64.232154 214.1431 C 59.9172 213.70363 55.10802 206.41126 54.47939 199.4091 C 53.92569 193.69091 55.9025 187.18087 64.065195 168.47886 C 65.35601 165.5597 66.89987 159.1692 67.57813 154.36895 C 69.15825 143.21568 72.17163 131.85306 74.84307 127.01505 C 79.23829 119.13834 83.03701 114.50164 86.31388 113.03774 C 87.99335 112.20127 90.57589 110.41652 92.06862 109.07246 C 95.51676 105.69745 102.19035 104.55379 107.48361 106.68017 C 110.90292 107.92609 113.01595 109.67246 117.38414 114.52383 C 122.28252 120.11413 123.12643 121.65176 125.11369 128.51179 C 129.83517 144.26219 134.68956 153.4059 144.15774 164.07148 C 148.12271 168.47503 152.45344 172.6844 153.8421 173.3261 L 156.33574 174.59462 L 157.84273 170.2645 C 160.78208 161.67146 155.53874 149.09386 139.67764 126.0749 C 134.59221 118.62582 132.68763 114.25914 130.55049 104.83114 C 128.86921 97.56046 131.05537 92.48367 138.89219 85.42736 C 143.8182 80.99197 144.47506 80.67082 150.68596 80.21406 C 154.25424 79.97438 158.6138 79.56283 160.33073 79.36835 C 161.98047 79.099235 166.33289 80.18071 170.02102 81.72517 C 177.5391 84.82153 181.85406 85.26101 195.70168 84.27998 C 204.33871 83.66591 206.38424 83.98646 214.1188 87.02305 C 222.5477 90.38048 222.95835 90.68646 228.03604 96.92619 C 232.6433 102.64346 233.2856 103.95718 234.00344 109.25727 C 234.54167 112.55675 234.72901 115.76672 234.55 116.46848 C 233.74448 119.62641 226.26687 130.68396 218.29624 140.29338 C 204.63124 156.78693 199.84025 164.07398 196.46825 174.13775 C 193.95412 181.4019 202.2477 180.55648 212.19695 172.54416 C 222.29547 164.39744 227.7582 156.50556 237.1448 136.16095 C 239.87572 130.18822 243.2858 123.46883 244.61408 121.19167 C 247.65127 116.15948 253.33107 110.91022 256.72005 110.02111 C 258.0189 109.6625 259.82534 109.11714 260.69125 108.87806 C 261.55715 108.63898 263.6773 108.89232 265.42428 109.48168 Z" fill="#f3f3f3"/>
        </g>
        <g id="Graphic_73">
          <path d="M 250.4764 97.53332 C 248.06483 96.05576 245.80283 95.79498 241.71952 96.36325 C 238.63653 96.8417 235.9044 97.40966 235.60586 97.67848 C 235.23268 98.01449 235.726 100.81381 236.69719 103.99374 C 237.66836 107.17368 238.4308 111.62273 238.3865 113.82496 C 238.2979 118.22942 233.3282 127.56942 226.95467 135.20022 C 213.51358 151.49216 207.86412 158.87645 204.58072 164.53576 C 202.31963 168.32856 200.32021 173.91294 200.92504 174.58466 C 202.2019 176.00276 209.50914 170.9099 215.83806 164.13013 C 223.7418 155.79727 226.24166 151.51918 238.11297 125.82897 C 241.32887 118.74384 243.0229 116.2725 248.725 110.59771 C 256.76314 102.41412 256.87494 101.63772 250.4764 97.53332 Z" fill="#f3f3f3"/>
        </g>
        <g id="Graphic_72">
          <path d="M 311.8992 229.54068 C 309.91345 229.4366 306.95713 228.855 305.2848 228.19843 C 301.79827 226.87788 299.9844 227.56508 301.73167 229.50562 C 302.3365 230.17735 303.21044 232.49882 303.5991 234.5815 L 304.24942 238.45577 L 310.46092 240.7014 C 316.81426 242.95445 316.7545 242.73797 310.52782 239.42484 C 306.38414 237.07424 306.23457 235.85746 309.78025 234.6921 C 312.60187 233.77326 316.45323 230.84606 315.8484 230.17434 C 315.6468 229.95043 313.88496 229.64475 311.8992 229.54068 Z" fill="#f3f3f3"/>
        </g>
        <g id="Graphic_71">
          <path d="M 308.42344 242.9414 C 305.7731 241.94912 303.72014 241.7704 302.8245 242.57685 C 302.07813 243.24888 300.1599 244.57064 298.61482 245.55638 C 295.9053 247.05 295.89044 247.3337 297.82416 248.43064 C 298.99634 249.1321 301.49 250.40062 303.50577 251.28852 L 307.04462 252.9674 L 305.49865 249.89956 C 303.6241 246.3167 304.52717 245.36843 309.64083 245.4942 C 314.25432 245.66487 314.00038 245.08264 308.42344 242.9414 Z" fill="#f3f3f3"/>
        </g>
        <g id="Graphic_70">
          <path d="M 289.89983 231.37455 C 285.04013 231.831 278.8664 231.57857 276.12655 230.93718 C 271.147 229.6095 261.48615 225.33413 259.94048 223.6175 C 259.47006 223.09503 258.77573 222.77419 258.34278 222.89373 C 257.8352 223.08047 251.6909 220.90948 244.51625 218.04447 C 237.3416 215.17945 228.74114 212.38194 225.3593 211.77802 C 218.5956 210.57018 212.46677 210.8179 212.39244 212.2363 C 212.24347 213.72189 222.24063 219.72163 228.93 222.34787 C 234.02164 224.25034 246.86986 227.4127 259.82245 229.9405 C 273.20056 232.49058 288.17697 238.46682 292.00754 242.7211 C 293.6204 244.51237 297.18096 243.06334 299.41975 239.69606 C 300.57646 237.97882 300.35135 232.77567 299.08936 231.0739 C 298.88775 230.84998 294.7521 231.05993 289.89983 231.37455 Z" fill="#f3f3f3"/>
        </g>
        <g id="Graphic_69">
          <path d="M 121.6782 88.22317 C 120.27557 91.91873 118.28982 91.81466 114.66086 87.78429 C 112.84638 85.76911 110.80056 84.09737 110.15113 84.27668 C 109.4345 84.38135 110.34561 85.99362 112.63051 88.53126 C 115.45303 91.66599 116.90146 92.52416 119.10369 92.56846 C 120.67136 92.50839 122.98569 93.12748 124.23251 93.76174 C 126.9352 95.11233 127.12907 94.12688 125.29168 89.83484 C 123.64848 85.90854 122.60326 85.49819 121.6782 88.22317 Z" fill="#f3f3f3"/>
        </g>
        <g id="Graphic_68">
          <path d="M 118.76115 96.39069 C 116.54405 96.63007 113.05844 99.36309 112.59605 101.40118 C 112.34241 102.17014 115.00823 105.58112 119.37642 110.43249 C 125.83534 117.45575 126.61947 118.7769 127.85233 123.74841 C 130.1536 132.75833 133.85841 142.12626 137.57747 148.50812 C 141.34888 155.2483 153.3559 169.03375 154.40081 168.0929 C 155.52036 167.08486 153.87655 160.45618 151.15036 154.12635 C 147.6549 146.19168 144.0628 140.10092 136.58781 129.39758 C 130.90499 121.13493 130.00875 119.23898 127.58794 109.79612 C 124.7413 98.97976 122.82959 96.1061 118.76115 96.39069 Z" fill="#f3f3f3"/>
        </g>
        <g id="Graphic_67">
          <path d="M 103.92035 95.96849 C 103.69644 96.1701 102.89774 96.48381 102.0244 96.86473 C 100.79275 97.29798 100.89742 98.01461 102.44309 99.73125 C 104.79519 102.34353 107.77382 102.49963 109.25881 99.94622 C 110.34832 98.15434 110.21392 98.00507 107.28732 96.85609 C 105.54035 96.26673 104.06962 95.83408 103.92035 95.96849 Z" fill="#f3f3f3"/>
        </g>
        <g id="Graphic_66">
          <path d="M 180.396 241.99203 C 175.2461 246.62903 173.51881 267.37505 176.44963 287.4407 C 178.5056 301.13132 178.68732 312.59028 177.10569 316.9876 C 175.54636 320.9594 176.25586 322.34776 181.09387 325.0192 C 182.89318 325.96688 184.8043 326.13815 186.11802 325.49585 C 190.06661 323.42713 190.58877 321.6055 188.5575 318.2989 C 184.01714 311.3051 183.39443 297.40512 187.03434 283.58633 C 189.62994 273.41076 189.643 265.01993 186.94533 252.71798 C 184.75586 242.93166 182.85901 239.77433 180.396 241.99203 Z" fill="#f3f3f3"/>
        </g>
        <g id="Graphic_65">
          <path d="M 133.80628 209.61117 C 126.72145 207.74646 114.7103 208.96596 105.35724 212.38709 C 86.64368 219.37117 71.52754 222.84584 67.85428 221.0177 C 65.711524 219.83868 64.77872 221.35432 64.50368 226.60237 C 64.32528 230.00652 64.85577 232.09664 66.33423 233.73864 L 68.417525 236.05237 L 73.11962 231.81859 C 78.269535 227.18158 83.86044 224.98558 90.18344 225.1036 C 104.24784 225.414 129.98647 220.07815 137.34604 215.3436 C 141.76476 212.44615 141.1748 211.49074 133.80628 209.61117 Z" fill="#f3f3f3"/>
        </g>
        <g id="Graphic_64">
          <path d="M 188.55219 327.8991 L 183.79002 330.5652 L 183.22417 337.29142 C 182.81443 341.039 182.35978 344.28646 182.06123 344.55527 C 180.41923 346.03373 179.61962 342.29388 180.28271 336.42612 L 180.98297 329.84918 L 177.00343 327.0805 C 173.57638 324.62523 172.79998 324.51343 171.15798 325.9919 C 170.18027 327.00737 169.0536 329.50844 168.65841 331.62117 L 168.0994 335.50317 L 170.93558 332.94945 C 173.92103 330.26134 176.60855 330.5444 176.73612 333.5379 C 176.8188 336.03125 179.88994 349.34838 180.56197 350.09474 C 181.3012 350.91574 183.23372 346.60792 185.32976 339.17964 C 187.25424 332.31127 189.03065 330.9821 191.85317 334.1168 C 194.7429 337.32618 195.7655 336.81086 195.5853 332.10786 C 195.42708 325.62815 194.1877 324.85205 188.55219 327.8991 Z" fill="#f3f3f3"/>
        </g>
        <g id="Graphic_63">
          <path d="M 56.13335 218.05665 L 50.385135 217.82651 L 53.222526 220.67757 C 57.747424 225.2527 57.874396 225.5438 55.68734 226.56701 C 52.99269 227.77697 55.44143 228.54533 58.34512 227.41745 C 60.37547 226.67048 63.42723 220.00343 62.28478 218.7346 C 62.015965 218.43606 59.26125 218.07835 56.13335 218.05665 Z" fill="#f3f3f3"/>
        </g>
        <g id="Graphic_62">
          <path d="M 54.11314 230.8225 C 47.043774 231.3765 45.70032 232.58615 51.5755 233.1074 C 59.21996 233.79249 60.220574 235.05387 57.34009 239.8098 C 55.541683 242.9157 57.59494 244.4456 60.207215 242.0935 C 61.4014 241.01826 63.095736 239.8981 63.96907 239.5172 C 65.200724 239.08394 65.09605 238.3673 63.68479 236.79994 C 62.60954 235.60576 61.63867 233.77702 61.474225 232.8439 C 61.10787 230.3357 61.10787 230.3357 54.11314 230.8225 Z" fill="#f3f3f3"/>
        </g>
        <g id="Graphic_61">
          <path d="M 270.5062 134.63808 C 271.93263 137.27296 273.12058 141.74431 275.9827 154.97937 C 277.90335 164.46714 282.36968 174.23055 289.92705 186.07605 C 297.08864 197.3319 298.03902 207.6933 292.4413 212.73352 C 288.5602 216.22807 279.48217 214.40114 280.69062 210.33983 C 280.94426 209.57086 281.60112 209.24972 282.28802 209.7124 C 284.15453 210.7347 289.97738 210.89764 291.0223 209.9568 C 291.54475 209.48638 290.64137 209.08347 289.08114 209.0017 C 285.4531 209.0249 282.27998 207.15186 282.3766 205.30795 C 282.4361 204.17323 283.14528 204.2104 284.79532 205.29248 C 286.9232 206.75517 290.12575 206.70966 291.8424 205.164 C 292.2902 204.76078 290.6925 204.03702 288.37817 203.41793 C 281.42774 201.7025 281.15863 200.05276 287.8325 200.2603 C 289.9601 200.3718 291.4008 200.0206 290.99758 199.5728 C 290.59436 199.12497 289.39988 198.84903 288.33236 198.8642 C 287.26485 198.87937 285.73435 198.23024 284.99512 197.40924 C 283.71826 195.99115 283.7257 195.8493 286.35344 195.9159 C 289.3395 195.93017 289.23483 195.21354 285.88272 194.04226 C 283.8595 193.2962 283.86693 193.15436 286.13606 191.9221 C 288.25592 190.82426 288.34542 190.47337 286.68795 189.53314 C 285.7248 188.91374 285.19462 188.17481 285.5678 187.8388 C 285.94098 187.50278 284.98497 185.39036 283.46904 183.10637 C 279.43656 177.27699 275.44808 167.8942 273.5875 159.97409 C 272.60858 155.5848 271.60023 153.11407 270.60735 153.06203 C 268.6216 152.95796 266.9778 146.32928 268.85887 145.71672 C 269.65757 145.403 269.97842 144.70868 269.5752 144.26086 C 269.17198 143.81304 268.38815 143.84307 267.79106 144.3807 C 266.52224 145.52315 263.81212 144.3144 264.24477 142.84367 C 264.41634 142.28375 265.52102 141.55938 266.67804 141.19333 C 268.26057 140.84958 268.6412 140.37173 268.2677 139.35655 C 267.45354 137.25156 266.513 137.55784 263.93076 140.69378 C 261.79633 143.4265 261.57986 143.48627 261.5421 141.49308 C 261.3925 140.2763 262.26555 138.54419 263.3851 137.53614 C 264.72855 136.32649 264.8255 135.83377 263.75054 135.99078 C 262.95928 136.16265 261.55605 137.15583 260.71275 138.32058 C 259.64554 139.68694 258.92147 139.93345 258.11504 139.03781 C 257.3086 138.14218 257.78616 137.1716 260.02525 135.15551 C 261.66725 133.67705 262.8091 132.24349 262.47308 131.8703 C 262.20427 131.57176 260.5697 132.90838 258.8382 134.73773 C 256.2857 137.30631 255.47956 137.76186 255.03144 136.81389 C 254.71772 136.01519 255.23244 134.33542 256.22502 133.03626 L 257.91905 130.56492 L 255.4635 132.64078 C 252.63473 135.05265 250.28293 133.79157 251.99927 130.89471 C 253.32012 128.75938 259.91877 126.33174 262.8751 126.91336 C 265.2715 127.3234 268.03425 130.24166 270.5062 134.63808 Z" fill="black"/>
        </g>
        <g id="Graphic_60">
          <path d="M 222.20044 106.50527 C 222.91054 110.59601 221.87427 116.79977 220.083 118.41265 C 218.29172 120.02552 217.45525 118.34605 217.9545 114.24757 L 218.3568 110.64182 L 215.8266 112.78488 C 213.1397 115.20418 211.28805 113.8982 213.35526 111.09084 C 215.1837 108.76877 216.05614 104.33428 215.0481 103.21474 C 214.24166 102.3191 213.93568 102.72975 213.3166 105.04408 C 212.52593 107.91834 210.08522 109.71052 208.87557 108.36706 C 208.53956 107.99388 209.03197 106.73963 209.94248 105.64951 C 211.75605 103.61112 211.88956 99.70682 210.12028 99.54299 C 209.62012 99.58789 208.9038 101.04375 208.59068 102.94743 C 208.285 104.70927 207.56124 106.30698 206.98645 106.41908 C 205.40392 106.76283 203.9552 104.55347 205.07474 103.54543 C 206.4182 102.33578 206.17108 98.90933 204.70035 98.47668 C 203.93138 98.22304 203.3343 98.76066 202.827 100.29859 C 201.90937 102.88174 200.25963 103.15085 200.386 100.73958 C 200.50493 98.47015 199.62386 97.64172 198.2804 98.85137 C 197.60868 99.4562 196.37703 99.88945 195.51856 99.98669 C 194.59288 100.00929 190.517 100.43571 186.22466 100.9219 C 182.00695 101.3409 176.39314 101.26003 173.86233 100.70071 C 171.26432 100.06675 168.42753 99.91808 167.40493 100.4334 C 166.52415 100.95616 165.68055 100.76972 165.57588 100.05309 C 165.39657 99.40366 164.72454 98.6573 163.95558 98.40366 C 163.11197 98.21722 162.70162 99.26243 162.85893 101.68856 C 163.12091 104.83133 162.88214 105.31662 161.56811 104.60772 C 160.59754 104.13017 159.75363 102.59254 159.55172 101.01744 C 159.0132 96.36678 157.93825 96.52378 157.61088 101.41353 C 157.13453 107.78886 156.34326 107.96074 155.16987 101.85451 C 154.3105 97.89818 153.86238 96.95021 152.96674 97.75664 C 152.29501 98.36147 152.78834 101.16079 154.2225 105.00502 C 155.53713 108.41629 156.2844 111.79784 155.89635 112.41753 C 154.7994 114.35125 150.59505 107.7306 150.05652 103.07994 C 149.87691 101.07932 149.30925 99.6984 148.86143 100.10161 C 147.81652 101.04245 148.34792 107.18615 149.85642 109.61198 C 150.43895 110.70923 151.61887 112.62004 152.3358 113.86656 C 153.90407 116.50887 152.23977 118.41286 149.68635 116.92786 C 145.40827 114.428 142.30056 104.52244 144.27024 99.50543 C 146.92621 92.24871 151.75588 91.00842 164.52946 94.23798 C 176.88496 97.3034 182.98405 97.62303 192.12837 95.47103 C 200.33216 93.62531 204.87845 93.72134 212.00076 96.22804 C 218.07785 98.32439 221.25126 101.54862 222.20044 106.50527 Z" fill="black"/>
        </g>
        <g id="Graphic_59">
          <path d="M 258.09284 173.38495 C 257.1972 174.19138 253.30838 176.47658 249.29257 178.47067 C 245.4186 180.4722 236.57344 185.05777 229.7735 188.6127 C 222.97353 192.16762 214.56875 196.49182 211.06053 198.29916 L 204.71583 201.30903 L 205.03015 204.81011 C 205.2172 206.6689 204.65074 210.69273 203.7108 213.7014 C 202.092 218.80792 202.12948 219.4499 204.61599 222.21146 C 206.09445 223.85346 208.8798 227.6974 210.92593 230.7203 C 212.97206 233.74324 220.0584 242.3639 226.70406 249.89475 C 236.7173 261.01558 238.7111 263.6802 238.15147 264.8598 C 236.89038 267.2116 234.9864 265.5473 214.43776 245.12726 C 195.77825 226.6552 195.502 226.49848 191.36696 229.4108 C 185.47038 233.36866 177.9309 234.7514 171.19694 232.9762 L 165.09011 231.4472 L 158.14892 237.69707 C 151.58091 243.61093 145.51336 250.83108 137.43123 262.5681 C 133.04315 268.95177 132.37142 269.5566 131.09457 268.1385 C 130.42254 267.39214 131.71336 264.47298 134.97446 259.23918 C 137.61617 254.96853 141.1309 248.96577 142.85468 245.92707 C 144.51125 242.81374 147.4961 237.42324 149.45865 233.89925 C 154.7941 224.36507 154.84613 223.3722 150.91089 218.4013 C 146.37082 212.75865 144.37613 206.04047 145.14359 199.53816 L 145.92622 194.10336 L 140.10216 188.53566 C 134.0093 182.66942 118.36738 171.7514 108.8109 166.84147 C 103.54737 164.14773 101.39688 161.75936 102.81497 160.4825 C 103.56134 159.81048 106.96578 161.34007 120.06112 167.92887 C 125.0484 170.4659 134.22396 174.5025 140.42803 176.88996 L 151.71632 181.32174 L 154.85105 178.49922 C 157.98578 175.6767 171.82506 170.78393 174.41564 171.55973 C 175.1174 171.73874 176.19978 171.4399 176.79687 170.90227 C 177.4686 170.29744 178.51853 158.40523 179.25445 144.36313 C 180.1539 127.20057 181.16727 118.71994 182.18244 118.34645 C 182.98114 118.03274 183.83218 118.07734 183.95172 118.51029 C 184.07126 118.94324 183.93866 126.90112 183.73173 136.27738 C 183.3021 151.26002 184.12611 164.0327 186.15084 171.53472 C 186.68876 173.483 187.83865 174.60998 191.42984 176.64716 C 195.70792 179.14703 197.05198 180.63976 200.226 186.56638 C 201.25664 188.6116 202.17488 188.73083 207.19872 187.8563 C 214.29782 186.73493 229.5778 181.491 245.14116 174.91073 C 253.28487 171.49734 257.3307 170.28708 258.2192 170.97368 C 259.17492 171.7349 259.13775 172.4441 258.09284 173.38495 Z" fill="black"/>
        </g>
        <g id="Graphic_58">
          <path d="M 214.80602 189.25057 C 203.60904 192.57506 201.9147 193.6952 204.0652 196.08358 C 204.87163 196.97921 206.58857 196.78474 209.73104 195.17157 C 212.142 193.94674 216.08317 192.01986 218.4867 190.93687 C 223.876 188.51696 226.74222 186.74709 226.339 186.29927 C 226.2046 186.15 221.0166 187.44262 214.80602 189.25057 Z" fill="#f3f3f3"/>
        </g>
        <g id="Graphic_57">
          <path d="M 192.29042 186.00826 C 191.641 186.18757 191.38735 186.95654 191.76826 187.82987 C 192.44803 189.78559 193.78435 190.06897 194.23187 188.31456 C 194.73916 186.77662 193.79832 185.73171 192.29042 186.00826 Z" fill="#f3f3f3"/>
        </g>
        <g id="Graphic_56">
          <path d="M 187.2502 180.41053 C 186.3394 180.14945 185.62276 180.25412 185.60046 180.67964 C 185.57816 181.10516 186.61594 181.65735 187.95226 181.94073 C 190.5577 182.43284 189.98261 181.19376 187.2502 180.41053 Z" fill="#f3f3f3"/>
        </g>
        <g id="Graphic_55">
          <path d="M 180.00805 176.11969 C 178.8659 176.20206 177.92536 176.50834 177.9777 176.86665 C 177.83616 178.21041 181.05386 179.23242 182.09877 178.29158 C 183.44223 177.08192 182.5014 176.03701 180.00805 176.11969 Z" fill="#f3f3f3"/>
        </g>
        <g id="Graphic_54">
          <path d="M 195.53937 193.21886 C 194.71836 193.9581 195.69667 195.645 196.77162 195.488 C 197.3464 195.37589 197.45078 194.74133 196.91316 194.14424 C 196.30833 193.4725 195.68864 193.08446 195.53937 193.21886 Z" fill="#f3f3f3"/>
        </g>
        <g id="Graphic_53">
          <path d="M 184.1232 184.4424 C 181.12197 183.36063 180.33844 184.74185 182.55614 187.20486 C 184.90824 189.81713 188.66327 190.08504 187.30404 187.5248 C 186.85592 186.57682 186.40037 185.7707 186.3406 185.55421 C 186.2062 185.40494 185.23562 184.9274 184.1232 184.4424 Z" fill="#f3f3f3"/>
        </g>
        <g id="Graphic_52">
          <path d="M 189.41797 193.32474 C 189.04479 193.66076 189.27643 194.6685 190.08287 195.56414 C 190.8221 196.38514 191.5985 196.49694 191.77007 195.93702 C 192.01628 195.3099 191.6428 194.29472 191.10518 193.69762 C 190.56755 193.10053 189.8658 192.92153 189.41797 193.32474 Z" fill="#f3f3f3"/>
        </g>
        <g id="Graphic_51">
          <path d="M 193.56999 199.58707 C 192.92056 199.76638 192.31604 200.44584 192.27887 201.15504 C 192.1748 203.1408 195.1686 204.3644 195.967 202.6995 C 196.8326 201.10923 195.4362 199.2582 193.56999 199.58707 Z" fill="#f3f3f3"/>
        </g>
        <g id="Graphic_50">
          <path d="M 174.82067 180.1147 C 172.81261 180.43615 172.76831 182.63837 174.81384 182.95892 C 175.79928 183.1528 176.87422 182.99578 177.2474 182.65977 C 178.14304 181.85333 176.25393 179.90535 174.82067 180.1147 Z" fill="#f3f3f3"/>
        </g>
        <g id="Graphic_49">
          <path d="M 196.57333 210.12718 C 196.22275 211.38887 196.23792 212.45638 196.79784 212.62796 C 198.05953 212.97854 199.13387 210.11915 198.12583 208.9996 C 197.3194 208.10396 197.02085 208.37278 196.57333 210.12718 Z" fill="#f3f3f3"/>
        </g>
        <g id="Graphic_48">
          <path d="M 182.66202 193.32625 C 182.08722 193.43836 181.98285 194.07292 182.52048 194.67 C 183.1253 195.34174 183.9689 195.52818 184.3421 195.19216 C 184.7899 194.78894 184.81964 194.22159 184.48363 193.8484 C 184.0804 193.40059 183.31144 193.14694 182.66202 193.32625 Z" fill="#f3f3f3"/>
        </g>
        <g id="Graphic_47">
          <path d="M 173.8516 186.3931 C 171.91075 186.78918 173.0981 188.55816 175.76332 189.26675 C 178.85405 189.99765 179.951 188.06393 176.94976 186.98215 C 175.82992 186.639 174.4936 186.35563 173.8516 186.3931 Z" fill="#f3f3f3"/>
        </g>
        <g id="Graphic_46">
          <path d="M 168.5494 177.6526 C 167.9746 177.7647 167.66863 178.17535 168.07184 178.62317 C 168.40786 178.99636 169.31866 179.25743 169.89345 179.14533 C 170.54288 178.96602 170.77423 178.62257 170.371 178.17475 C 170.035 177.80157 169.19882 177.4733 168.5494 177.6526 Z" fill="#f3f3f3"/>
        </g>
        <g id="Graphic_45">
          <path d="M 185.8735 199.89486 C 185.35104 200.36528 185.15716 201.35072 185.4111 201.93295 C 185.72482 202.73165 186.5833 202.6344 187.55357 201.76077 C 188.52384 200.88713 188.71028 200.04353 188.02339 199.58084 C 187.39626 199.33463 186.39595 199.42444 185.8735 199.89486 Z" fill="#f3f3f3"/>
        </g>
        <g id="Graphic_44">
          <path d="M 189.8688 206.43343 C 188.37608 207.7775 188.83193 209.93482 190.67584 210.03145 C 191.52688 210.07606 192.2658 209.54586 192.51202 208.91874 C 193.03417 207.09713 191.06299 205.35819 189.8688 206.43343 Z" fill="#f3f3f3"/>
        </g>
        <g id="Graphic_43">
          <path d="M 166.57228 182.81145 C 163.32515 183.708 163.30285 184.13351 166.46078 184.93904 C 168.07335 185.37913 169.43198 185.23699 169.60355 184.67706 C 170.11827 182.9973 168.80425 182.2884 166.57228 182.81145 Z" fill="#f3f3f3"/>
        </g>
        <g id="Graphic_42">
          <path d="M 172.65862 192.8731 C 171.2777 193.44077 170.6583 194.4039 170.82275 195.33702 C 171.21883 197.27787 173.27179 197.45657 175.42138 195.79136 C 177.57097 194.12616 175.21143 191.65572 172.65862 192.8731 Z" fill="#f3f3f3"/>
        </g>
        <g id="Graphic_41">
          <path d="M 177.06458 199.71766 C 175.42258 201.19613 175.84097 202.71146 178.08067 203.39775 C 180.25316 204.0094 181.69325 200.95584 179.91624 199.58265 C 179.09494 198.9707 177.81095 199.04563 177.06458 199.71766 Z" fill="#f3f3f3"/>
        </g>
        <g id="Graphic_40">
          <path d="M 198.53206 222.95933 C 197.71106 223.69856 200.39918 226.68402 204.2443 229.30343 C 206.3722 230.76612 206.18546 230.25853 203.03436 226.60878 C 200.88386 224.22041 198.97988 222.5561 198.53206 222.95933 Z" fill="#f3f3f3"/>
        </g>
        <g id="Graphic_39">
          <path d="M 192.33452 216.37646 C 191.81207 216.84688 191.25988 217.88466 191.00623 218.65362 C 190.47665 220.61707 193.50018 221.27333 194.52249 219.40682 C 195.47016 217.6075 193.67798 215.1668 192.33452 216.37646 Z" fill="#f3f3f3"/>
        </g>
        <g id="Graphic_38">
          <path d="M 181.58265 207.137 C 180.76165 207.87624 180.35874 208.77961 180.69475 209.1528 C 181.56839 210.12307 184.7858 209.79388 184.77062 208.72637 C 184.9419 206.81526 183.00074 205.86015 181.58265 207.137 Z" fill="#f3f3f3"/>
        </g>
        <g id="Graphic_37">
          <path d="M 165.45394 189.22426 C 165.08076 189.56028 164.9764 190.19484 165.3796 190.64266 C 165.71562 191.01584 166.42482 191.053 166.798 190.717 C 167.24582 190.31377 167.20835 189.67178 166.87234 189.2986 C 166.46912 188.85078 165.90176 188.82104 165.45394 189.22426 Z" fill="#f3f3f3"/>
        </g>
        <g id="Graphic_36">
          <path d="M 184.63 214.1237 C 183.4581 214.77343 183.42837 215.3408 184.52592 216.10945 C 185.41443 216.79605 186.69098 216.86295 187.64639 216.273 C 188.81827 215.62326 188.848 215.0559 187.75046 214.28724 C 186.86195 213.60064 185.5854 213.53374 184.63 214.1237 Z" fill="#f3f3f3"/>
        </g>
        <g id="Graphic_35">
          <path d="M 165.23124 194.83063 C 163.21606 196.64511 163.1792 198.7055 164.92647 200.64605 C 167.27857 203.25833 168.38325 202.53396 167.93453 198.8836 C 167.5979 195.80804 166.27615 193.8898 165.23124 194.83063 Z" fill="#f3f3f3"/>
        </g>
        <g id="Graphic_34">
          <path d="M 157.1904 190.8535 C 156.93705 192.97367 158.2142 195.74295 159.03521 195.00372 C 159.18448 194.8693 159.55736 193.1821 159.7212 191.41283 C 159.98198 189.15083 159.68313 188.06845 158.75002 188.2329 C 158.0334 188.33757 157.2573 189.57695 157.1904 190.8535 Z" fill="#f3f3f3"/>
        </g>
        <g id="Graphic_33">
          <path d="M 187.06537 221.9317 C 185.41563 222.2008 185.25953 225.17944 186.7826 225.9704 C 189 227.08222 190.8882 224.97662 189.34254 223.25999 C 188.6033 222.43899 187.56552 221.8868 187.06537 221.9317 Z" fill="#f3f3f3"/>
        </g>
        <g id="Graphic_32">
          <path d="M 170.38417 203.70554 C 168.96608 204.9824 170.75082 207.56494 173.1621 207.6913 C 175.28968 207.8028 175.29712 207.66097 173.28103 205.42188 C 172.07138 204.07842 170.75735 203.36953 170.38417 203.70554 Z" fill="#f3f3f3"/>
        </g>
        <g id="Graphic_31">
          <path d="M 175.01434 211.69968 C 173.49901 212.11806 172.90192 212.65569 173.0738 213.44695 C 173.3429 215.0967 178.95702 216.52874 179.38223 215.19985 C 179.97902 213.31104 177.2463 211.17662 175.01434 211.69968 Z" fill="#f3f3f3"/>
        </g>
        <g id="Graphic_30">
          <path d="M 178.85325 219.8657 C 174.91178 220.44138 174.00128 221.5315 175.9799 223.1286 C 178.09292 224.87497 181.17592 224.3965 182.2803 222.32095 C 183.39211 220.10356 182.29456 219.3349 178.85325 219.8657 Z" fill="#f3f3f3"/>
        </g>
        <g id="Graphic_29">
          <path d="M 152.16564 187.67448 C 151.19537 188.54812 151.33008 190.04858 152.44992 190.39173 C 153.56977 190.73487 154.3084 188.8535 153.36756 187.80858 C 153.03155 187.4354 152.46419 187.40567 152.16564 187.67448 Z" fill="#f3f3f3"/>
        </g>
        <g id="Graphic_28">
          <path d="M 134.52341 178.28726 C 134.68042 179.3622 146.99252 188.68343 147.52241 188.07117 C 150.47783 184.59922 150.41063 184.52458 142.33262 181.25665 C 138.08457 179.54061 134.45621 178.21263 134.52341 178.28726 Z" fill="#f3f3f3"/>
        </g>
        <g id="Graphic_27">
          <path d="M 164.20391 207.64852 C 164.15931 208.49955 164.95831 209.53703 165.92889 210.01458 C 167.5938 210.81298 167.66843 210.74578 166.91403 208.85726 C 165.97289 206.46116 164.30798 205.66276 164.20391 207.64852 Z" fill="#f3f3f3"/>
        </g>
        <g id="Graphic_26">
          <path d="M 158.06614 201.28212 C 157.93947 202.3422 158.35786 203.85753 159.09709 204.67853 C 160.23954 205.94735 160.53065 205.82038 160.75426 204.26758 C 160.88093 203.2075 160.46255 201.69217 159.72331 200.87117 C 158.58086 199.60235 158.28975 199.72932 158.06614 201.28212 Z" fill="#f3f3f3"/>
        </g>
        <g id="Graphic_25">
          <path d="M 151.71933 194.83365 C 150.97297 195.50568 151.76484 198.03619 153.2433 199.6782 C 153.78093 200.27528 154.43035 200.09597 154.90047 199.26724 C 155.69144 197.74417 152.83888 193.8256 151.71933 194.83365 Z" fill="#f3f3f3"/>
        </g>
        <g id="Graphic_24">
          <path d="M 178.83276 228.39835 C 175.9139 228.45872 174.94363 229.33236 177.11612 229.94402 C 178.65405 230.4513 182.75966 229.45753 182.15484 228.7858 C 181.88602 228.48725 180.40043 228.33828 178.83276 228.39835 Z" fill="#f3f3f3"/>
        </g>
        <g id="Graphic_23">
          <path d="M 169.1701 216.01583 C 169.51385 217.59837 170.05147 218.19546 171.18619 218.25493 C 172.3209 218.3144 172.2088 217.7396 170.73033 216.0976 C 168.97562 214.2989 168.76658 214.21682 169.1701 216.01583 Z" fill="#f3f3f3"/>
        </g>
        <g id="Graphic_22">
          <path d="M 168.38777 222.80182 C 168.31344 224.22022 171.3447 226.08583 171.76992 224.75694 C 171.9415 224.197 171.2769 223.3088 170.24655 222.61478 C 169.2162 221.92075 168.43238 221.9508 168.38777 222.80182 Z" fill="#f3f3f3"/>
        </g>
        <g id="Graphic_21">
          <path d="M 160.23361 212.84514 C 159.97284 215.10714 163.21345 218.406 165.10196 217.6516 C 165.83346 217.26326 165.39277 216.17345 163.44389 214.009 C 160.95738 211.24744 160.5393 211.0833 160.23361 212.84514 Z" fill="#f3f3f3"/>
        </g>
        <g id="Graphic_20">
          <path d="M 153.43929 208.15108 C 153.11874 210.1966 155.23207 213.29417 156.27698 212.35333 C 157.39653 211.34528 157.04534 209.90459 155.36527 208.03868 C 153.954 206.4713 153.73753 206.53108 153.43929 208.15108 Z" fill="#f3f3f3"/>
        </g>
        <g id="Graphic_19">
          <path d="M 148.80972 202.85933 C 148.66044 202.99374 148.83232 203.785 149.0714 204.6509 C 149.38511 205.4496 150.0048 205.83766 150.37799 205.50164 C 150.8258 205.09842 150.65393 204.30716 150.1163 203.71006 C 149.57868 203.11297 148.95899 202.72492 148.80972 202.85933 Z" fill="#f3f3f3"/>
        </g>
        <g id="Graphic_18">
          <path d="M 162.7365 222.07897 C 161.15397 222.42272 161.81886 224.6621 163.76001 225.61722 C 165.07404 226.3261 165.2233 226.1917 165.01397 224.75845 C 164.63275 222.53392 164.09512 221.93683 162.7365 222.07897 Z" fill="#f3f3f3"/>
        </g>
        <g id="Graphic_17">
          <path d="M 157.1013 226.4772 C 156.65348 226.8804 155.77301 228.75436 155.03438 230.63574 C 154.29575 232.51712 153.0198 235.1526 152.0198 236.5936 C 150.4004 238.99774 150.4004 238.99774 153.37842 236.45146 C 155.16226 234.98043 157.82687 232.98664 159.2973 232.0681 C 161.86497 230.56703 161.94704 230.358 159.93095 228.1189 C 158.7885 226.85007 157.47448 226.14118 157.1013 226.4772 Z" fill="#f3f3f3"/>
        </g>
        <g id="Graphic_16">
          <path d="M 223.76088 174.43026 C 219.15633 180.87371 215.89462 183.40512 213.59516 182.50235 C 210.4521 181.41314 211.22788 178.82257 215.24369 176.82848 C 216.99036 176.06664 220.02072 173.87868 221.96127 172.1314 C 226.66336 167.89762 227.58934 169.2262 223.76088 174.43026 Z" fill="black"/>
        </g>
        <g id="Graphic_15">
          <path d="M 194.61359 159.31985 C 192.09976 167.9352 190.92074 170.07795 188.9573 169.54836 C 187.5612 169.0485 194.49967 150.63792 196.0599 150.71968 C 196.62726 150.74942 196.06824 154.63142 194.61359 159.31985 Z" fill="black"/>
        </g>
        <g id="Graphic_14">
          <path d="M 239.3389 200.13674 C 239.27944 201.27146 221.53495 201.97714 220.5269 200.8576 C 218.77963 198.91705 222.18347 197.74426 228.70809 198.0862 C 237.00197 198.59198 239.39838 199.00203 239.3389 200.13674 Z" fill="black"/>
        </g>
        <g id="Graphic_13">
          <path d="M 281.82132 259.32585 C 281.82906 260.5352 281.083 262.55842 280.2397 263.72318 C 278.15017 266.95605 268.69334 273.7141 261.84106 276.91073 C 251.488 281.77284 246.33034 285.2005 238.19497 292.52562 C 233.04505 297.16262 229.56717 301.105 228.14938 303.73304 C 225.39587 308.7801 219.4996 314.08913 215.60303 315.16498 C 209.11619 316.81622 203.11373 314.65267 201.35841 310.15158 C 200.41727 307.75548 202.05897 304.92582 203.47023 306.4932 C 203.87345 306.941 204.67959 306.48545 205.3064 305.38047 C 206.32872 303.51396 206.53776 303.59603 208.37484 306.5369 C 210.60028 310.20924 213.78825 311.7986 211.83906 308.28295 C 211.12213 307.03644 211.1367 305.40157 211.67401 304.64747 C 212.51732 303.4827 213.01004 303.57965 213.97348 305.55024 C 214.6904 306.79675 215.9075 307.99837 216.67647 308.252 C 217.7291 308.52052 217.63187 307.66205 216.2429 305.66917 C 213.67403 301.76547 215.56967 299.51804 218.42967 303.29477 C 220.81924 306.54904 223.04377 306.1678 221.79634 302.83118 C 220.66103 300.06933 221.68333 298.2028 223.2962 299.9941 C 224.37145 301.18827 225.90165 300.4862 225.40863 299.03808 C 224.90817 297.7318 245.38146 281.59504 252.33812 277.76387 C 255.77913 275.8819 258.66022 273.82833 258.8318 273.2684 C 259.078 272.64128 260.02597 272.19316 261.02628 272.10335 C 262.59395 272.04328 262.75066 271.76704 261.87702 270.79676 C 260.33135 269.08013 261.35396 268.5648 265.3778 269.13126 L 268.90148 269.7426 L 267.09444 267.5856 C 266.0864 266.46604 265.5785 265.3016 265.87705 265.03278 C 266.25023 264.69677 267.65376 265.05478 269.10962 265.7711 L 271.8123 267.1217 L 269.72158 264.9498 C 266.67515 262.0167 267.75722 260.36665 271.27378 262.47103 C 272.8566 263.47847 274.46175 264.0604 274.83493 263.72438 C 275.43202 263.18676 273.13225 260.9328 269.0855 258.08948 C 268.47325 257.5596 268.376 256.70112 268.9731 256.1635 C 269.64483 255.55867 271.53365 256.15546 273.93778 257.77486 C 277.37227 260.0883 277.65594 260.10316 276.7597 258.2072 C 276.25925 256.90092 274.51197 254.96037 273.0784 253.81853 C 270.06944 251.5274 269.9719 249.31774 272.89076 249.25737 C 275.60058 249.11492 282.04463 256.42186 281.82132 259.32585 Z" fill="black"/>
        </g>
        <g id="Graphic_12">
          <path d="M 168.84342 157.11592 C 170.89818 165.40177 171.02546 167.04408 169.32338 166.95487 C 168.04683 166.88797 167.2178 165.06666 165.9326 159.73684 C 164.93138 155.77307 164.6245 152.13015 165.14695 151.65973 C 166.49041 150.45007 167.61056 152.14441 168.84342 157.11592 Z" fill="black"/>
        </g>
        <g id="Graphic_11">
          <path d="M 229.45637 239.44293 C 227.2693 240.46614 222.6329 238.0186 217.6825 233.4212 C 214.63606 230.48807 213.23966 228.63702 213.50074 227.72622 C 214.10496 225.69556 214.7993 226.0164 220.9219 231.3153 C 224.0504 234.03937 227.52978 236.85296 228.70196 237.55442 C 230.2848 238.56186 230.54618 239.00224 229.45637 239.44293 Z" fill="black"/>
        </g>
        <g id="Graphic_10">
          <path d="M 107.98708 121.49837 C 106.74056 122.2153 105.76286 123.23078 105.94216 123.88021 C 106.27848 125.60458 103.91241 127.32956 103.35219 125.8068 C 102.66499 123.99292 96.48322 121.17994 96.05801 122.50883 C 95.95364 123.14339 97.01402 124.62125 98.51478 125.83774 C 102.74827 129.18864 100.10596 130.75691 95.51416 127.45834 C 91.2658 124.39111 89.92235 125.60077 93.4169 129.48186 C 95.16418 131.42241 95.60487 132.51222 94.78386 133.25146 C 94.18677 133.78908 92.91765 133.58034 91.96194 132.8191 C 91.00624 132.05788 89.4011 131.47595 88.19175 131.48369 C 86.40761 131.60353 86.40017 131.74537 88.05764 132.6856 C 90.12577 133.93182 91.61197 136.78318 90.64169 137.65681 C 90.34315 137.92563 89.2905 137.65712 88.32736 137.03772 C 86.12483 135.64223 84.49056 138.33005 86.30504 140.34523 C 87.04428 141.16624 87.05945 142.23375 86.38772 142.83857 C 85.71599 143.4434 84.61221 148.22134 84.0535 153.45453 C 82.75705 164.62267 81.20576 171.15502 78.92237 175.37334 C 78.05677 176.9636 77.74366 178.86729 78.28128 179.46438 C 79.02051 180.28538 78.69967 180.9797 77.1546 181.96545 C 74.58693 183.46652 74.57949 183.60836 78.23015 184.51083 C 82.92602 185.82365 80.95574 188.13828 75.80462 187.37052 C 70.36982 186.5879 71.28836 188.05832 76.91733 189.2067 C 79.87366 189.78832 81.04584 190.48978 80.91917 191.54986 C 80.85971 192.68457 79.35181 192.96112 75.67885 192.48417 C 72.78229 192.11903 70.50543 192.14193 70.49056 192.4256 C 70.46826 192.85113 72.9393 193.19397 75.98513 193.4247 C 84.48806 194.01256 85.72032 196.28169 77.92689 197.0822 C 73.06718 197.53866 72.99254 197.60586 74.00059 198.7254 C 74.47101 199.24786 77.00925 199.66534 79.77883 199.73938 C 83.25762 199.85058 84.80298 200.21602 84.74351 201.35074 C 84.62458 203.62017 81.08633 204.64368 76.51 203.76382 C 66.506304 201.95949 63.56334 194.33823 69.03319 184.95332 C 77.696945 170.25999 77.33893 171.66351 81.51224 139.52514 C 82.02636 135.14298 83.26454 130.51432 84.11527 129.20773 C 85.03321 127.97578 86.11529 126.32574 86.51077 125.5642 C 89.12244 120.50972 100.16984 115.96845 105.4854 117.66931 C 110.02457 119.25837 110.62196 120.07194 107.98708 121.49837 Z" fill="black"/>
        </g>
        <g id="Graphic_9">
          <path d="M 146.59402 175.93305 C 146.08674 177.47098 143.48873 176.83703 141.60704 174.7472 C 140.8006 173.85157 138.4934 171.73945 136.44758 170.06771 C 133.52069 167.56754 133.06514 166.7614 134.15495 166.32072 C 136.55848 165.23774 147.28775 173.55151 146.59402 175.93305 Z" fill="black"/>
        </g>
        <g id="Graphic_8">
          <path d="M 200.6276 246.75028 C 203.64552 255.65552 203.98927 257.23805 203.019 258.1117 C 201.97408 259.05253 200.65232 257.1343 199.27763 252.15534 C 198.48576 249.62483 197.0293 246.20612 196.04355 244.66106 C 194.00486 241.4963 193.95192 238.4356 195.95997 238.11415 C 197.46787 237.8376 197.46787 237.8376 200.6276 246.75028 Z" fill="black"/>
        </g>
        <g id="Graphic_7">
          <path d="M 138.955 199.5694 C 138.3579 200.10702 136.17054 199.77905 134.22939 198.82394 C 132.1464 197.8614 129.48862 197.01097 128.2195 196.80223 C 125.2483 196.50429 124.59084 194.12305 127.4425 193.98804 C 130.29415 193.85303 137.85684 196.09835 139.0665 197.4418 C 139.60412 198.0389 139.55208 199.03178 138.955 199.5694 Z" fill="black"/>
        </g>
        <g id="Graphic_6">
          <path d="M 165.11512 243.1824 C 164.92868 244.026 163.86178 246.74355 162.67533 249.02815 C 161.48888 251.31275 160.25783 254.44838 159.97445 255.7847 C 159.14662 259.36816 157.98217 259.87605 158.00387 256.74815 C 157.95806 252.19442 160.61373 243.58652 162.47964 241.90645 C 164.34556 240.22637 165.52517 240.786 165.11512 243.1824 Z" fill="black"/>
        </g>
        <g id="Graphic_5">
          <path d="M 146.53085 227.3455 C 145.57574 229.28666 132.64756 235.7917 131.33354 235.0828 C 130.5048 234.61267 130.81822 234.06018 132.35585 233.21628 C 134.04275 232.23797 140.99168 227.19744 144.26081 224.5242 C 145.455 223.44895 147.32925 225.6806 146.53085 227.3455 Z" fill="black"/>
        </g>
        <g id="Graphic_4">
          <path d="M 161.85835 301.25448 C 161.4257 302.7252 160.30646 305.08444 159.16461 306.518 C 157.478 308.8475 156.53747 309.1538 152.14788 308.7815 C 147.47461 308.39437 146.64588 307.92425 142.94972 303.81924 C 140.73202 301.35624 136.6698 296.09422 133.89188 292.10845 C 127.35029 282.59186 122.96753 279.37536 108.32714 273.7723 C 87.83355 265.8713 80.29999 260.35623 80.17895 253.16732 C 80.0362 249.1063 83.59585 243.6037 87.14896 242.29652 C 90.63488 240.9147 91.1505 243.2885 87.956 245.89454 C 85.28396 248.03016 85.28396 248.03016 88.07584 247.67868 C 92.08451 247.17762 92.37593 248.40184 88.69614 250.7691 C 86.19567 252.3448 85.50164 253.37516 85.62148 255.1593 C 85.65182 257.29432 85.79366 257.30176 87.03244 255.37547 C 88.5772 253.03854 92.80205 251.12652 93.8773 252.3207 C 94.28051 252.76852 93.80296 253.7391 92.84012 254.4709 C 89.72769 256.8679 88.57841 258.4433 89.31764 259.2643 C 89.72086 259.71212 90.37772 259.39097 90.84784 258.56224 C 91.72088 256.83013 95.55024 255.67964 96.62549 256.87383 C 96.9615 257.247 96.49138 258.07575 95.46877 258.59107 C 94.5208 259.0392 93.52079 260.48018 93.31205 261.7493 C 92.90944 264.00387 93.05127 264.0113 96.46968 261.20365 C 97.65643 260.27024 98.87322 260.12066 99.47804 260.7924 C 100.08287 261.46412 99.89643 262.30772 99.01566 262.83048 C 97.10485 264.0104 98.83726 266.23462 100.94225 265.42045 C 101.74095 265.10674 102.64432 265.50966 102.95803 266.30836 C 103.20454 267.03242 107.70654 269.33068 112.79076 271.375 C 117.94961 273.3521 124.31812 276.67267 126.98364 278.73246 C 134.5621 284.74767 139.50509 289.48694 139.0873 290.674 C 138.98293 291.30855 139.28921 292.2491 139.82684 292.84618 C 140.49887 293.59254 141.22293 293.34603 142.23037 291.7632 C 143.07367 290.59845 143.96188 289.93385 144.29789 290.30703 C 145.30594 291.42658 144.79895 294.3157 143.38086 295.59256 C 142.6345 296.2646 142.30621 297.10076 142.70943 297.54858 C 143.58307 298.51885 145.2997 296.97318 145.40378 294.98743 C 145.44838 294.1364 146.13497 293.2479 146.8516 293.1432 C 148.71782 292.81433 147.78592 298.38354 145.8974 299.13794 C 145.17334 299.38445 144.92713 300.01158 145.33035 300.4594 C 146.4056 301.65358 147.54 300.36186 148.4276 296.99488 C 148.79306 295.4495 149.50195 294.1355 149.92747 294.1578 C 150.7785 294.2024 150.63757 298.24853 149.67533 301.6827 C 149.14575 303.64616 149.28759 303.6536 151.22813 301.90632 C 152.56416 300.8385 153.60133 298.6883 153.76517 296.91904 C 153.85437 295.21696 154.64534 293.6939 155.36197 293.58923 C 157.37002 293.26778 156.98318 299.29223 154.75925 302.37583 C 153.4607 304.08564 153.35633 304.7202 154.57311 304.57063 C 155.58085 304.339 156.58086 302.898 157.3418 300.5911 C 157.94602 298.56043 158.75928 296.61185 159.2071 296.20863 C 160.55056 294.99898 162.49231 298.65647 161.85835 301.25448 Z" fill="black"/>
        </g>
      </g>
    </g>
  </g>
</svg>
