<?xml version="1.0" encoding="UTF-8" standalone="no"?>
<!-- Created with Inkscape (http://www.inkscape.org/) -->

<svg
   xmlns:dc="http://purl.org/dc/elements/1.1/"
   xmlns:cc="http://creativecommons.org/ns#"
   xmlns:rdf="http://www.w3.org/1999/02/22-rdf-syntax-ns#"
   xmlns:svg="http://www.w3.org/2000/svg"
   xmlns="http://www.w3.org/2000/svg"
   xmlns:sodipodi="http://sodipodi.sourceforge.net/DTD/sodipodi-0.dtd"
   xmlns:inkscape="http://www.inkscape.org/namespaces/inkscape"
   width="205.67194mm"
   height="203.20006mm"
   viewBox="0 0 205.67194 203.20006"
   version="1.1"
   id="svg1135"
   inkscape:version="0.92.3 (2405546, 2018-03-11)"
   sodipodi:docname="salt-bearer-of-unser-hafen.svg"
   inkscape:export-filename="/home/swarren/git_wa/sca-devices-badges/outlands/awards/unser-hafen/guardians-of-the-portcullis-of-unser-hafen.png"
   inkscape:export-xdpi="18.52"
   inkscape:export-ydpi="18.52">
  <defs
     id="defs1129">
    <clipPath
       clipPathUnits="userSpaceOnUse"
       id="clipPath1060">
      <circle
         style="opacity:1;vector-effect:none;fill:none;fill-opacity:1;fill-rule:nonzero;stroke:#000000;stroke-width:0.99999994;stroke-linecap:round;stroke-linejoin:bevel;stroke-miterlimit:4;stroke-dasharray:none;stroke-dashoffset:0;stroke-opacity:1"
         id="circle1062"
         cx="-244.68457"
         cy="327.80801"
         r="53.787991" />
    </clipPath>
    <clipPath
       clipPathUnits="userSpaceOnUse"
       id="clipPath1064">
      <circle
         r="53.787991"
         cy="327.80801"
         cx="-244.68457"
         id="circle1066"
         style="opacity:1;vector-effect:none;fill:none;fill-opacity:1;fill-rule:nonzero;stroke:#000000;stroke-width:0.99999994;stroke-linecap:round;stroke-linejoin:bevel;stroke-miterlimit:4;stroke-dasharray:none;stroke-dashoffset:0;stroke-opacity:1" />
    </clipPath>
    <clipPath
       clipPathUnits="userSpaceOnUse"
       id="clipPath1068">
      <circle
         style="opacity:1;vector-effect:none;fill:none;fill-opacity:1;fill-rule:nonzero;stroke:#000000;stroke-width:0.99999994;stroke-linecap:round;stroke-linejoin:bevel;stroke-miterlimit:4;stroke-dasharray:none;stroke-dashoffset:0;stroke-opacity:1"
         id="circle1070"
         cx="-244.68457"
         cy="327.80801"
         r="53.787991" />
    </clipPath>
    <clipPath
       clipPathUnits="userSpaceOnUse"
       id="clipPath1072">
      <circle
         r="53.787991"
         cy="327.80801"
         cx="-244.68457"
         id="circle1074"
         style="opacity:1;vector-effect:none;fill:none;fill-opacity:1;fill-rule:nonzero;stroke:#000000;stroke-width:0.99999994;stroke-linecap:round;stroke-linejoin:bevel;stroke-miterlimit:4;stroke-dasharray:none;stroke-dashoffset:0;stroke-opacity:1" />
    </clipPath>
    <clipPath
       id="artboard_clip_path">
      <path
         id="path1058"
         d="M 76.5 63 L 149.67036 63 L 149.67036 405 L 76.5 405 Z" />
    </clipPath>
    <clipPath
       clipPathUnits="userSpaceOnUse"
       id="clipPath1181">
      <ellipse
         style="opacity:1;vector-effect:none;fill:#e0d000;fill-opacity:1;fill-rule:nonzero;stroke:#000000;stroke-width:0.49999997;stroke-linecap:round;stroke-linejoin:bevel;stroke-miterlimit:4;stroke-dasharray:none;stroke-dashoffset:0;stroke-opacity:1"
         id="ellipse1183"
         cx="-194.29572"
         cy="197.06912"
         rx="39.781994"
         ry="10.488839" />
    </clipPath>
    <clipPath
       id="artboard_clip_path-6">
      <path
         id="path1288"
         d="M 141.75 61.652536 L 222.75 61.652536 L 222.75 415.34746 L 141.75 415.34746 Z" />
    </clipPath>
    <clipPath
       id="artboard_clip_path-7">
      <path
         id="path1387"
         d="M 49.5 85.5 L 315 85.5 L 315 367.3758 L 315 391.5 L 49.5 391.5 Z" />
    </clipPath>
    <clipPath
       id="artboard_clip_path-2">
      <path
         id="path1225"
         d="M 76.5 63 L 288 63 L 288 391.5 L 76.5 391.5 Z" />
    </clipPath>
  </defs>
  <sodipodi:namedview
     id="base"
     pagecolor="#ffffff"
     bordercolor="#666666"
     borderopacity="1.0"
     inkscape:pageopacity="0.0"
     inkscape:pageshadow="2"
     inkscape:zoom="1.4"
     inkscape:cx="188.69566"
     inkscape:cy="386.48022"
     inkscape:document-units="mm"
     inkscape:current-layer="layer1"
     showgrid="false"
     inkscape:window-width="3840"
     inkscape:window-height="2090"
     inkscape:window-x="0"
     inkscape:window-y="41"
     inkscape:window-maximized="1"
     fit-margin-top="0"
     fit-margin-left="0"
     fit-margin-right="0"
     fit-margin-bottom="0"
     inkscape:object-paths="false"
     inkscape:snap-intersection-paths="false"
     inkscape:object-nodes="false" />
  <metadata
     id="metadata1132">
    <rdf:RDF>
      <cc:Work
         rdf:about="">
        <dc:format>image/svg+xml</dc:format>
        <dc:type
           rdf:resource="http://purl.org/dc/dcmitype/StillImage" />
        <dc:title />
      </cc:Work>
    </rdf:RDF>
  </metadata>
  <g
     inkscape:label="Layer 1"
     inkscape:groupmode="layer"
     id="layer1"
     transform="translate(0.17727383,-1.9766568)">
    <g
       id="g1516">
      <g
         style="stroke-width:0.98781639"
         transform="matrix(1.0123064,0,0,1.0123614,-0.27452158,2.0804854)"
         id="g1863">
        <path
           style="fill:#228b22;fill-opacity:1;stroke:#000000;stroke-width:0.98781639;stroke-miterlimit:4;stroke-dasharray:none"
           d="M 0.58997582,0.39134741 V 180.49721 v 18.761 c 7.86272778,-9.3805 7.86257178,-9.3805 22.46478018,-18.761 v -22.51304 h 22.464781 v 22.51304 c 7.301104,9.3805 7.301416,9.3805 11.23278,18.761 3.931364,-9.3805 3.930896,-9.3805 11.232001,-18.761 v -22.51304 h 22.46478 v 22.51304 c 7.301104,9.3805 7.301416,9.3805 11.232782,18.761 3.93136,-9.3805 3.93167,-9.3805 11.23278,-18.761 v -22.51304 h 22.46478 v 22.51304 c 7.3011,9.3805 7.30064,9.3805 11.232,18.761 3.93136,-9.3805 3.93168,-9.3805 11.23278,-18.761 V 157.98417 H 180.309 v 22.51304 c 14.60221,9.3805 14.60205,9.3805 22.46478,18.761 V 180.49721 0.39134741 H 101.68188 Z M 23.054756,22.905153 H 45.519537 V 45.418196 H 23.054756 Z m 44.929562,0 h 22.46478 v 22.513043 h -22.46478 z m 44.930342,0 h 22.46478 v 22.513043 h -22.46478 z m 44.92956,0 H 180.309 V 45.418196 H 157.84422 Z M 23.054756,67.931239 H 45.519537 V 90.444281 H 23.054756 Z m 44.929562,0 h 22.46478 v 22.513042 h -22.46478 z m 44.930342,0 h 22.46478 v 22.513042 h -22.46478 z m 44.92956,0 H 180.309 V 90.444281 H 157.84422 Z M 23.054756,112.95732 h 22.464781 v 22.51381 H 23.054756 Z m 44.929562,0 h 22.46478 v 22.51381 h -22.46478 z m 44.930342,0 h 22.46478 v 22.51381 h -22.46478 z m 44.92956,0 H 180.309 v 22.51381 h -22.46478 z"
           id="path913"
           inkscape:connector-curvature="0" />
        <path
           style="stroke:#000000;stroke-width:0.4939082;stroke-miterlimit:4;stroke-dasharray:none"
           inkscape:connector-curvature="0"
           d="M 23.054556,22.904824 0.58962022,0.39163017"
           id="path917" />
        <path
           style="stroke:#000000;stroke-width:0.4939082;stroke-miterlimit:4;stroke-dasharray:none"
           inkscape:connector-curvature="0"
           d="M 45.519492,22.904824 56.75196,11.648227"
           id="path919" />
        <path
           style="stroke:#000000;stroke-width:0.4939082;stroke-miterlimit:4;stroke-dasharray:none"
           inkscape:connector-curvature="0"
           d="M 23.054556,45.418018 11.822088,56.674615"
           id="path921" />
        <path
           style="stroke:#000000;stroke-width:0.4939082;stroke-miterlimit:4;stroke-dasharray:none"
           inkscape:connector-curvature="0"
           d="M 67.984428,22.904824 56.75196,11.648227"
           id="path923" />
        <path
           style="stroke:#000000;stroke-width:0.4939082;stroke-miterlimit:4;stroke-dasharray:none"
           inkscape:connector-curvature="0"
           d="M 90.449364,22.904824 101.68183,11.648227"
           id="path925" />
        <path
           style="stroke:#000000;stroke-width:0.4939082;stroke-miterlimit:4;stroke-dasharray:none"
           inkscape:connector-curvature="0"
           d="M 112.9143,22.904824 101.68183,11.648227"
           id="path927" />
        <path
           style="stroke:#000000;stroke-width:0.4939082;stroke-miterlimit:4;stroke-dasharray:none"
           inkscape:connector-curvature="0"
           d="M 135.37924,22.904824 146.6117,11.648227"
           id="path929" />
        <path
           style="stroke:#000000;stroke-width:0.4939082;stroke-miterlimit:4;stroke-dasharray:none"
           inkscape:connector-curvature="0"
           d="M 157.84417,22.904824 146.6117,11.648227"
           id="path931" />
        <path
           style="stroke:#000000;stroke-width:0.4939082;stroke-miterlimit:4;stroke-dasharray:none"
           inkscape:connector-curvature="0"
           d="m 180.30911,45.418018 11.23247,11.256597"
           id="path933" />
        <path
           style="stroke:#000000;stroke-width:0.4939082;stroke-miterlimit:4;stroke-dasharray:none"
           inkscape:connector-curvature="0"
           d="M 180.30911,22.904824 202.77404,0.39163017"
           id="path935" />
        <path
           style="stroke:#000000;stroke-width:0.4939082;stroke-miterlimit:4;stroke-dasharray:none"
           inkscape:connector-curvature="0"
           d="M 23.054556,67.931212 11.822088,56.674615"
           id="path937" />
        <path
           style="stroke:#000000;stroke-width:0.4939082;stroke-miterlimit:4;stroke-dasharray:none"
           inkscape:connector-curvature="0"
           d="M 45.519492,67.931212 67.984428,45.418018"
           id="path939" />
        <path
           style="stroke:#000000;stroke-width:0.4939082;stroke-miterlimit:4;stroke-dasharray:none"
           inkscape:connector-curvature="0"
           d="M 23.054556,90.444406 11.822088,101.701"
           id="path941" />
        <path
           style="stroke:#000000;stroke-width:0.4939082;stroke-miterlimit:4;stroke-dasharray:none"
           inkscape:connector-curvature="0"
           d="M 67.984428,67.931212 45.519492,45.418018"
           id="path943" />
        <path
           style="stroke:#000000;stroke-width:0.4939082;stroke-miterlimit:4;stroke-dasharray:none"
           inkscape:connector-curvature="0"
           d="M 90.449364,67.931212 112.9143,45.418018"
           id="path945" />
        <path
           style="stroke:#000000;stroke-width:0.4939082;stroke-miterlimit:4;stroke-dasharray:none"
           inkscape:connector-curvature="0"
           d="M 112.9143,67.931212 90.449364,45.418018"
           id="path947" />
        <path
           style="stroke:#000000;stroke-width:0.4939082;stroke-miterlimit:4;stroke-dasharray:none"
           inkscape:connector-curvature="0"
           d="M 135.37924,67.931212 157.84417,45.418018"
           id="path949" />
        <path
           style="stroke:#000000;stroke-width:0.4939082;stroke-miterlimit:4;stroke-dasharray:none"
           inkscape:connector-curvature="0"
           d="M 157.84417,67.931212 135.37924,45.418018"
           id="path951" />
        <path
           style="stroke:#000000;stroke-width:0.4939082;stroke-miterlimit:4;stroke-dasharray:none"
           inkscape:connector-curvature="0"
           d="M 180.30911,90.444406 191.54158,101.701"
           id="path953" />
        <path
           style="stroke:#000000;stroke-width:0.4939082;stroke-miterlimit:4;stroke-dasharray:none"
           inkscape:connector-curvature="0"
           d="M 180.30911,67.931212 191.54158,56.674615"
           id="path955" />
        <path
           style="stroke:#000000;stroke-width:0.4939082;stroke-miterlimit:4;stroke-dasharray:none"
           inkscape:connector-curvature="0"
           d="M 23.054556,112.9576 11.822088,101.701"
           id="path957" />
        <path
           style="stroke:#000000;stroke-width:0.4939082;stroke-miterlimit:4;stroke-dasharray:none"
           inkscape:connector-curvature="0"
           d="M 45.519492,112.9576 67.984428,90.444406"
           id="path959" />
        <path
           style="stroke:#000000;stroke-width:0.4939082;stroke-miterlimit:4;stroke-dasharray:none"
           inkscape:connector-curvature="0"
           d="m 23.054556,135.47079 -11.232468,11.2566"
           id="path961" />
        <path
           style="stroke:#000000;stroke-width:0.4939082;stroke-miterlimit:4;stroke-dasharray:none"
           inkscape:connector-curvature="0"
           d="M 67.984428,112.9576 45.519492,90.444406"
           id="path963" />
        <path
           style="stroke:#000000;stroke-width:0.4939082;stroke-miterlimit:4;stroke-dasharray:none"
           inkscape:connector-curvature="0"
           d="M 90.449364,112.9576 112.9143,90.444406"
           id="path965" />
        <path
           style="stroke:#000000;stroke-width:0.4939082;stroke-miterlimit:4;stroke-dasharray:none"
           inkscape:connector-curvature="0"
           d="M 112.9143,112.9576 90.449364,90.444406"
           id="path967" />
        <path
           style="stroke:#000000;stroke-width:0.4939082;stroke-miterlimit:4;stroke-dasharray:none"
           inkscape:connector-curvature="0"
           d="M 135.37924,112.9576 157.84417,90.444406"
           id="path969" />
        <path
           style="stroke:#000000;stroke-width:0.4939082;stroke-miterlimit:4;stroke-dasharray:none"
           inkscape:connector-curvature="0"
           d="M 157.84417,112.9576 135.37924,90.444406"
           id="path971" />
        <path
           style="stroke:#000000;stroke-width:0.4939082;stroke-miterlimit:4;stroke-dasharray:none"
           inkscape:connector-curvature="0"
           d="m 180.30911,135.47079 11.23247,11.2566"
           id="path973" />
        <path
           style="stroke:#000000;stroke-width:0.4939082;stroke-miterlimit:4;stroke-dasharray:none"
           inkscape:connector-curvature="0"
           d="M 180.30911,112.9576 191.54158,101.701"
           id="path975" />
        <path
           style="stroke:#000000;stroke-width:0.4939082;stroke-miterlimit:4;stroke-dasharray:none"
           inkscape:connector-curvature="0"
           d="M 23.054556,157.98399 11.822088,146.72739"
           id="path977" />
        <path
           style="stroke:#000000;stroke-width:0.4939082;stroke-miterlimit:4;stroke-dasharray:none"
           inkscape:connector-curvature="0"
           d="m 45.519492,157.98399 22.464936,-22.5132"
           id="path979" />
        <path
           style="stroke:#000000;stroke-width:0.4939082;stroke-miterlimit:4;stroke-dasharray:none"
           inkscape:connector-curvature="0"
           d="M 67.984428,157.98399 45.519492,135.47079"
           id="path981" />
        <path
           style="stroke:#000000;stroke-width:0.4939082;stroke-miterlimit:4;stroke-dasharray:none"
           inkscape:connector-curvature="0"
           d="M 90.449364,157.98399 112.9143,135.47079"
           id="path983" />
        <path
           style="stroke:#000000;stroke-width:0.4939082;stroke-miterlimit:4;stroke-dasharray:none"
           inkscape:connector-curvature="0"
           d="M 112.9143,157.98399 90.449364,135.47079"
           id="path985" />
        <path
           style="stroke:#000000;stroke-width:0.4939082;stroke-miterlimit:4;stroke-dasharray:none"
           inkscape:connector-curvature="0"
           d="m 135.37924,157.98399 22.46493,-22.5132"
           id="path987" />
        <path
           style="stroke:#000000;stroke-width:0.4939082;stroke-miterlimit:4;stroke-dasharray:none"
           inkscape:connector-curvature="0"
           d="m 157.84417,157.98399 -22.46493,-22.5132"
           id="path989" />
        <path
           style="stroke:#000000;stroke-width:0.4939082;stroke-miterlimit:4;stroke-dasharray:none"
           inkscape:connector-curvature="0"
           d="m 180.30911,157.98399 11.23247,-11.2566"
           id="path991" />
      </g>
      <g
         transform="translate(220.17113,-1.5875)"
         id="g1451">
        <path
           id="path1240"
           d="m -102.62875,64.715426 h -4.57378 -10.37723 -0.0225 -10.37723 -4.56628 -11.29948 -9.09508 c 5.84383,14.062705 10.09507,28.75648 12.67162,43.797524 h 9.09507 3.06668 4.37883 6.12587 0.0225 6.12586 4.37883 3.06668 9.095072 c 2.576555,-15.041044 6.827793,-29.734819 12.67162,-43.797524 h -9.095069 z"
           inkscape:connector-curvature="0"
           style="fill:#e0d000;fill-opacity:1;stroke:#000000;stroke-width:1;stroke-linecap:round;stroke-linejoin:round;stroke-miterlimit:4;stroke-dasharray:none;stroke-opacity:1" />
        <path
           style="fill:#e0d000;fill-opacity:1;stroke:#000000;stroke-width:0.5;stroke-linecap:round;stroke-linejoin:round;stroke-miterlimit:4;stroke-dasharray:none;stroke-opacity:1"
           inkscape:connector-curvature="0"
           d="m -127.97559,64.715426 h -4.57378 c 4.56174,14.21191 7.51997,28.905499 8.81765,43.797524 h 4.72373 1.42462 V 64.715426 Z"
           id="path1255" />
        <path
           style="fill:#e0d000;fill-opacity:1;stroke:#000000;stroke-width:0.5;stroke-linecap:round;stroke-linejoin:round;stroke-miterlimit:4;stroke-dasharray:none;stroke-opacity:1"
           inkscape:connector-curvature="0"
           d="m -128.10696,108.51295 h 4.37883 c -1.29768,-14.892025 -4.2559,-29.585614 -8.81764,-43.797524 h -4.52879 -6.77069 c 5.84382,14.062705 10.09506,28.75648 12.67161,43.797524 z"
           id="path1263" />
        <path
           style="fill:#e0d000;fill-opacity:1;stroke:#000000;stroke-width:0.5;stroke-linecap:round;stroke-linejoin:round;stroke-miterlimit:4;stroke-dasharray:none;stroke-opacity:1"
           inkscape:connector-curvature="0"
           d="m -107.20621,64.715426 h 4.57378 c -4.56174,14.21191 -7.51996,28.905499 -8.81765,43.797524 h -4.72374 -1.42462 V 64.715426 Z"
           id="path1279" />
        <path
           style="fill:#e0d000;fill-opacity:1;stroke:#000000;stroke-width:0.5;stroke-linecap:round;stroke-linejoin:round;stroke-miterlimit:4;stroke-dasharray:none;stroke-opacity:1"
           inkscape:connector-curvature="0"
           d="m -107.07484,108.51295 h -4.37883 c 1.29767,-14.892025 4.2559,-29.585614 8.81764,-43.797524 h 4.528788 6.770695 c -5.843823,14.062705 -10.095063,28.75648 -12.671613,43.797524 z"
           id="path1287" />
        <path
           id="path1295"
           d="M -81.240718,61.542837 C -96.658636,57.864563 -108.77866,47.999253 -113.81952,35.02475 c -2.5718,-0.0088 -5.14364,-0.0088 -7.71544,0 -4.94564,12.920534 -16.94302,22.785909 -32.24889,26.518087 23.45173,8.386356 49.0914,8.386356 72.543132,0 z"
           inkscape:connector-curvature="0"
           style="fill:#e0d000;fill-opacity:1;stroke:#000000;stroke-width:1;stroke-linecap:round;stroke-linejoin:round;stroke-miterlimit:4;stroke-dasharray:none;stroke-opacity:1" />
        <path
           id="path1302"
           d="m -123.583,24.960487 c 0.0628,-3.302279 2.76179,-5.946512 6.06962,-5.946512 3.30784,0 6.00682,2.644233 6.06964,5.946512 0.0417,2.192657 -1.10595,4.236812 -3.00105,5.345339 -1.8951,1.108528 -4.24207,1.108528 -6.13717,0 -1.8951,-1.108527 -3.04275,-3.152682 -3.00104,-5.345339 z"
           inkscape:connector-curvature="0"
           style="fill:#e0d000;fill-opacity:1;stroke:#000000;stroke-width:1;stroke-linecap:round;stroke-linejoin:round;stroke-miterlimit:4;stroke-dasharray:none;stroke-opacity:1" />
        <path
           id="path1309"
           d="m -113.48586,35.025496 c 1.50236,-0.0019 2.71977,-1.217585 2.72178,-2.717695 9.3e-4,-0.721777 -0.28517,-1.414394 -0.79561,-1.925471 -0.51044,-0.511072 -1.20331,-0.798738 -1.92617,-0.799707 h -8.05285 c -0.72286,9.79e-4 -1.41573,0.288635 -1.92616,0.799707 -0.51044,0.511077 -0.79663,1.203694 -0.79561,1.925471 0.002,1.50011 1.21941,2.715686 2.72177,2.717695 z"
           inkscape:connector-curvature="0"
           style="fill:#e0d000;fill-opacity:1;stroke:#000000;stroke-width:1;stroke-linecap:round;stroke-linejoin:round;stroke-miterlimit:4;stroke-dasharray:none;stroke-opacity:1" />
        <path
           id="path1314"
           d="m -117.43438,60.95438 v -0.02996 l -0.0375,0.01496 -0.0375,-0.01496 v 0.02996 c -11.833,4.025888 -24.64705,4.157093 -36.56025,0.374337 -1.31189,0.02442 -2.4931,0.79905 -3.03668,1.991477 -0.71846,1.57522 -0.1375,3.437961 1.34963,4.327345 12.03361,5.599301 25.7975,6.215674 38.28478,1.714473 12.48729,4.501201 26.251177,3.884828 38.284782,-1.714473 1.48713,-0.889384 2.068094,-2.752125 1.349648,-4.327345 -0.543593,-1.192427 -1.724808,-1.967074 -3.036702,-1.991477 -11.913188,3.782756 -24.727228,3.651551 -36.560228,-0.374337 z"
           inkscape:connector-curvature="0"
           style="fill:#e0d000;fill-opacity:1;stroke:none;stroke-width:0.5;stroke-miterlimit:4;stroke-dasharray:none;stroke-opacity:1" />
        <path
           id="path1316"
           d="m -117.43438,60.95438 v -0.02996 l -0.0375,0.01496 -0.0375,-0.01496 v 0.02996 c -11.833,4.025888 -24.64705,4.157093 -36.56025,0.374337 -1.31189,0.02442 -2.4931,0.79905 -3.03668,1.991477 -0.71846,1.57522 -0.1375,3.437961 1.34963,4.327345 12.03361,5.599301 25.7975,6.215674 38.28478,1.714473 12.48729,4.501201 26.251177,3.884828 38.284782,-1.714473 1.48713,-0.889384 2.068094,-2.752125 1.349648,-4.327345 -0.543593,-1.192427 -1.724808,-1.967074 -3.036702,-1.991477 -11.913188,3.782756 -24.727228,3.651551 -36.560228,-0.374337 z"
           inkscape:connector-curvature="0"
           style="fill:#e0d000;fill-opacity:1;stroke:#000000;stroke-width:0.5;stroke-linecap:round;stroke-linejoin:round;stroke-miterlimit:4;stroke-dasharray:none;stroke-opacity:1" />
        <path
           id="path1321"
           d="m -117.43438,65.633603 v -0.01496 l -0.0375,0.0075 -0.0375,-0.0075 v 0.01496 c -13.07942,3.13033 -26.95833,2.319462 -39.59693,-2.313409 -0.71846,1.57522 -0.1375,3.437961 1.34963,4.327345 12.03361,5.599301 25.7975,6.215674 38.28478,1.714473 12.48729,4.501201 26.251177,3.884828 38.284782,-1.714473 1.48713,-0.889384 2.068094,-2.752125 1.349648,-4.327345 -12.638612,4.632871 -26.51752,5.443739 -39.59693,2.313409 z"
           inkscape:connector-curvature="0"
           style="fill:#e0d000;fill-opacity:1;stroke:none;stroke-width:0.5;stroke-miterlimit:4;stroke-dasharray:none;stroke-opacity:1" />
        <path
           id="path1323"
           d="m -117.43438,65.633603 v -0.01496 l -0.0375,0.0075 -0.0375,-0.0075 v 0.01496 c -13.07942,3.13033 -26.95833,2.319462 -39.59693,-2.313409 -0.71846,1.57522 -0.1375,3.437961 1.34963,4.327345 12.03361,5.599301 25.7975,6.215674 38.28478,1.714473 12.48729,4.501201 26.251177,3.884828 38.284782,-1.714473 1.48713,-0.889384 2.068094,-2.752125 1.349648,-4.327345 -12.638612,4.632871 -26.51752,5.443739 -39.59693,2.313409 z"
           inkscape:connector-curvature="0"
           style="fill:#e0d000;fill-opacity:1;stroke:#000000;stroke-width:0.5;stroke-linecap:round;stroke-linejoin:round;stroke-miterlimit:4;stroke-dasharray:none;stroke-opacity:1" />
        <path
           id="path1328"
           d="m -117.43643,60.948369 v -0.02246 l -0.0375,0.01496 -0.0375,-0.01496 v 0.02246 c -11.8322,4.02833 -24.64625,4.162153 -36.56025,0.381825 -1.31188,0.02442 -2.49309,0.799046 -3.03668,1.991477 12.65081,4.637904 26.54421,5.446222 39.63442,2.305921 13.09021,3.140301 26.983602,2.331983 39.634417,-2.305921 -0.543588,-1.192431 -1.724798,-1.967074 -3.036692,-1.991477 -11.913991,3.780328 -24.728045,3.646505 -36.560235,-0.381825 z"
           inkscape:connector-curvature="0"
           style="fill:#e0d000;fill-opacity:1;stroke:none;stroke-width:0.5;stroke-miterlimit:4;stroke-dasharray:none;stroke-opacity:1" />
        <path
           id="path1330"
           d="m -117.43643,60.948369 v -0.02246 l -0.0375,0.01496 -0.0375,-0.01496 v 0.02246 c -11.8322,4.02833 -24.64625,4.162153 -36.56025,0.381825 -1.31188,0.02442 -2.49309,0.799046 -3.03668,1.991477 12.65081,4.637904 26.54421,5.446222 39.63442,2.305921 13.09021,3.140301 26.983602,2.331983 39.634417,-2.305921 -0.543588,-1.192431 -1.724798,-1.967074 -3.036692,-1.991477 -11.913991,3.780328 -24.728045,3.646505 -36.560235,-0.381825 z"
           inkscape:connector-curvature="0"
           style="fill:#e0d000;fill-opacity:1;stroke:#000000;stroke-width:0.5;stroke-linecap:round;stroke-linejoin:round;stroke-miterlimit:4;stroke-dasharray:none;stroke-opacity:1" />
        <path
           id="path1337"
           d="m -165.54049,63.890687 c -0.002,1.342023 0.79006,2.558559 2.01913,3.101654 1.22907,0.543094 2.66336,0.310274 3.65685,-0.593592 -0.0801,0.292753 -0.12047,0.594929 -0.11996,0.898414 0.071,1.817602 1.56738,3.254536 3.38909,3.254536 1.82172,0 3.31807,-1.436934 3.3891,-3.254536 -9.3e-4,-1.743913 -1.32819,-3.201941 -3.06668,-3.369044 0.003,-0.02241 0.005,-0.04487 0.008,-0.06738 1.73838,-0.17098 3.0624,-1.632349 3.05918,-3.376528 0.0485,-1.240482 -0.58667,-2.408021 -1.65522,-3.042661 -1.06855,-0.63464 -2.39921,-0.63464 -3.46776,0 -1.06854,0.63464 -1.70369,1.802179 -1.65521,3.042661 -0.001,0.305992 0.0392,0.610731 0.11996,0.905898 -0.99248,-0.902948 -2.425,-1.136285 -3.65342,-0.595101 -1.22843,0.541188 -2.02147,1.755012 -2.02256,3.095679 z"
           inkscape:connector-curvature="0"
           style="fill:#e0d000;fill-opacity:1;stroke:#000000;stroke-width:1;stroke-linecap:round;stroke-linejoin:round;stroke-miterlimit:4;stroke-dasharray:none;stroke-opacity:1" />
        <path
           id="path1344"
           d="m -69.484378,63.890687 c 0.0019,1.342023 -0.790058,2.558559 -2.019126,3.101654 -1.229073,0.543094 -2.663366,0.310274 -3.656857,-0.593592 0.08013,0.292753 0.120472,0.594929 0.119968,0.898414 -0.07103,1.817602 -1.567379,3.254536 -3.389097,3.254536 -1.821718,0 -3.318065,-1.436934 -3.389097,-3.254536 9.33e-4,-1.743913 1.32819,-3.201941 3.06668,-3.369044 -0.0028,-0.02241 -0.0053,-0.04487 -0.0075,-0.06738 -1.738379,-0.17098 -3.062401,-1.632349 -3.059181,-3.376528 -0.04848,-1.240482 0.586666,-2.408021 1.655217,-3.042661 1.068551,-0.63464 2.399209,-0.63464 3.46776,0 1.068546,0.63464 1.703695,1.802179 1.655217,3.042661 0.0014,0.305992 -0.03915,0.610731 -0.119968,0.905898 0.992478,-0.902948 2.425002,-1.136285 3.653427,-0.595101 1.228424,0.541188 2.021473,1.755012 2.022556,3.095679 z"
           inkscape:connector-curvature="0"
           style="fill:#e0d000;fill-opacity:1;stroke:#000000;stroke-width:1;stroke-linecap:round;stroke-linejoin:round;stroke-miterlimit:4;stroke-dasharray:none;stroke-opacity:1" />
        <path
           id="path1351"
           d="m -100.06287,120.06128 c 3.201603,-2.79689 5.271121,-6.29832 5.93842,-10.04723 -0.597485,-2.71596 -2.269124,-4.80911 -4.381608,-5.48644 -2.112482,-0.67733 -4.342672,0.16476 -5.845662,2.20724 -1.14522,-1.55365 -2.7298,-2.43234 -4.38633,-2.43234 -1.65653,0 -3.24112,0.87869 -4.38633,2.43234 -1.14521,-1.55365 -2.7298,-2.43234 -4.38633,-2.43234 -1.65653,0 -3.24112,0.87869 -4.38633,2.43234 -1.14521,-1.55365 -2.72979,-2.43234 -4.38633,-2.43234 -1.65653,0 -3.24111,0.87869 -4.38633,2.43234 -1.50298,-2.04248 -3.73317,-2.88457 -5.84566,-2.20724 -2.11248,0.67733 -3.78412,2.77048 -4.38161,5.48644 0.6673,3.74891 2.73682,7.25034 5.93842,10.04723 4.47514,3.91035 10.80817,6.13839 17.44784,6.13839 6.63967,0 12.9727,-2.22804 17.44784,-6.13839 z"
           inkscape:connector-curvature="0"
           style="fill:#e0d000;fill-opacity:1;stroke:#000000;stroke-width:1;stroke-linecap:round;stroke-linejoin:round;stroke-miterlimit:4;stroke-dasharray:none;stroke-opacity:1" />
        <path
           id="path1358"
           d="m -117.95696,157.31417 h 0.44238 16.00823 c -6.26026,-2.75197 -10.81544,-8.33923 -12.24423,-15.01843 -2.65428,-0.0106 -5.3086,-0.0106 -7.96288,0 -1.42878,6.6792 -5.98397,12.26646 -12.24423,15.01843 z"
           inkscape:connector-curvature="0"
           style="fill:#e0d000;fill-opacity:1;stroke:#000000;stroke-width:1;stroke-linecap:round;stroke-linejoin:round;stroke-miterlimit:4;stroke-dasharray:none;stroke-opacity:1" />
        <path
           id="path1365"
           d="m -101.06385,168.82507 c 1.543156,2e-5 3.023109,-0.61206 4.114289,-1.7016 1.091175,-1.08955 1.70418,-2.56729 1.704157,-4.10813 2.3e-5,-1.54083 -0.612982,-3.01857 -1.704157,-4.10811 -1.09118,-1.08954 -2.571133,-1.70163 -4.114289,-1.70161 h -32.89372 c -1.54315,-2e-5 -3.02311,0.61207 -4.11428,1.70161 -1.09118,1.08954 -1.70419,2.56728 -1.70416,4.10811 -3e-5,1.54084 0.61298,3.01858 1.70416,4.10813 1.09117,1.08954 2.57113,1.70162 4.11428,1.7016 z"
           inkscape:connector-curvature="0"
           style="fill:#e0d000;fill-opacity:1;stroke:#000000;stroke-width:1;stroke-linecap:round;stroke-linejoin:round;stroke-miterlimit:4;stroke-dasharray:none;stroke-opacity:1" />
        <path
           id="path1372"
           d="m -123.583,135.50594 c 0.0628,-3.30228 2.76179,-5.94651 6.06962,-5.94651 3.30784,0 6.00682,2.64423 6.06964,5.94651 0.0417,2.19266 -1.10595,4.23681 -3.00105,5.34534 -1.8951,1.10852 -4.24207,1.10852 -6.13717,0 -1.8951,-1.10853 -3.04275,-3.15268 -3.00104,-5.34534 z"
           inkscape:connector-curvature="0"
           style="fill:#e0d000;fill-opacity:1;stroke:#000000;stroke-width:1;stroke-linecap:round;stroke-linejoin:round;stroke-miterlimit:4;stroke-dasharray:none;stroke-opacity:1" />
        <path
           id="path1379"
           d="m -113.48586,131.13149 c 1.50236,-0.002 2.71977,-1.21758 2.72178,-2.71769 9.3e-4,-0.72178 -0.28517,-1.41439 -0.79561,-1.92547 -0.51044,-0.51107 -1.20331,-0.79874 -1.92617,-0.79971 h -8.05285 c -0.72286,9.3e-4 -1.41573,0.28864 -1.92616,0.79971 -0.51044,0.51108 -0.79663,1.20369 -0.79561,1.92547 0.002,1.50011 1.21941,2.71569 2.72177,2.71769 z"
           inkscape:connector-curvature="0"
           style="fill:#e0d000;fill-opacity:1;stroke:#000000;stroke-width:1;stroke-linecap:round;stroke-linejoin:round;stroke-miterlimit:4;stroke-dasharray:none;stroke-opacity:1" />
        <path
           id="path1386"
           d="m -113.48586,145.44993 c 1.50236,-0.002 2.71977,-1.2176 2.72178,-2.71771 9.3e-4,-0.72177 -0.28517,-1.41439 -0.79561,-1.92546 -0.51044,-0.51108 -1.20331,-0.79875 -1.92617,-0.79971 h -8.05285 c -0.72286,9.3e-4 -1.41573,0.28863 -1.92616,0.79971 -0.51044,0.51107 -0.79663,1.20369 -0.79561,1.92546 0.002,1.50011 1.21941,2.71569 2.72177,2.71771 z"
           inkscape:connector-curvature="0"
           style="fill:#e0d000;fill-opacity:1;stroke:#000000;stroke-width:1;stroke-linecap:round;stroke-linejoin:round;stroke-miterlimit:4;stroke-dasharray:none;stroke-opacity:1" />
      </g>
    </g>
  </g>
</svg>
