<?xml version="1.0" encoding="UTF-8" standalone="no"?>
<!-- Created with Inkscape (http://www.inkscape.org/) -->

<svg
   xmlns:dc="http://purl.org/dc/elements/1.1/"
   xmlns:cc="http://creativecommons.org/ns#"
   xmlns:rdf="http://www.w3.org/1999/02/22-rdf-syntax-ns#"
   xmlns:svg="http://www.w3.org/2000/svg"
   xmlns="http://www.w3.org/2000/svg"
   xmlns:sodipodi="http://sodipodi.sourceforge.net/DTD/sodipodi-0.dtd"
   xmlns:inkscape="http://www.inkscape.org/namespaces/inkscape"
   width="205.67194mm"
   height="203.20006mm"
   viewBox="0 0 205.67194 203.20006"
   version="1.1"
   id="svg1135"
   inkscape:version="0.92.3 (2405546, 2018-03-11)"
   sodipodi:docname="skipping-stone-of-unser-hafen.svg"
   inkscape:export-filename="/home/swarren/git_wa/sca-devices-badges/outlands/awards/unser-hafen/guardians-of-the-portcullis-of-unser-hafen.png"
   inkscape:export-xdpi="18.52"
   inkscape:export-ydpi="18.52">
  <defs
     id="defs1129">
    <clipPath
       clipPathUnits="userSpaceOnUse"
       id="clipPath1060">
      <circle
         style="opacity:1;vector-effect:none;fill:none;fill-opacity:1;fill-rule:nonzero;stroke:#000000;stroke-width:0.99999994;stroke-linecap:round;stroke-linejoin:bevel;stroke-miterlimit:4;stroke-dasharray:none;stroke-dashoffset:0;stroke-opacity:1"
         id="circle1062"
         cx="-244.68457"
         cy="327.80801"
         r="53.787991" />
    </clipPath>
    <clipPath
       clipPathUnits="userSpaceOnUse"
       id="clipPath1064">
      <circle
         r="53.787991"
         cy="327.80801"
         cx="-244.68457"
         id="circle1066"
         style="opacity:1;vector-effect:none;fill:none;fill-opacity:1;fill-rule:nonzero;stroke:#000000;stroke-width:0.99999994;stroke-linecap:round;stroke-linejoin:bevel;stroke-miterlimit:4;stroke-dasharray:none;stroke-dashoffset:0;stroke-opacity:1" />
    </clipPath>
    <clipPath
       clipPathUnits="userSpaceOnUse"
       id="clipPath1068">
      <circle
         style="opacity:1;vector-effect:none;fill:none;fill-opacity:1;fill-rule:nonzero;stroke:#000000;stroke-width:0.99999994;stroke-linecap:round;stroke-linejoin:bevel;stroke-miterlimit:4;stroke-dasharray:none;stroke-dashoffset:0;stroke-opacity:1"
         id="circle1070"
         cx="-244.68457"
         cy="327.80801"
         r="53.787991" />
    </clipPath>
    <clipPath
       clipPathUnits="userSpaceOnUse"
       id="clipPath1072">
      <circle
         r="53.787991"
         cy="327.80801"
         cx="-244.68457"
         id="circle1074"
         style="opacity:1;vector-effect:none;fill:none;fill-opacity:1;fill-rule:nonzero;stroke:#000000;stroke-width:0.99999994;stroke-linecap:round;stroke-linejoin:bevel;stroke-miterlimit:4;stroke-dasharray:none;stroke-dashoffset:0;stroke-opacity:1" />
    </clipPath>
  </defs>
  <sodipodi:namedview
     id="base"
     pagecolor="#ffffff"
     bordercolor="#666666"
     borderopacity="1.0"
     inkscape:pageopacity="0.0"
     inkscape:pageshadow="2"
     inkscape:zoom="0.70000001"
     inkscape:cx="-763.72527"
     inkscape:cy="260.75055"
     inkscape:document-units="mm"
     inkscape:current-layer="layer1"
     showgrid="false"
     inkscape:window-width="3840"
     inkscape:window-height="2090"
     inkscape:window-x="0"
     inkscape:window-y="41"
     inkscape:window-maximized="1"
     fit-margin-top="0"
     fit-margin-left="0"
     fit-margin-right="0"
     fit-margin-bottom="0"
     inkscape:object-paths="true" />
  <metadata
     id="metadata1132">
    <rdf:RDF>
      <cc:Work
         rdf:about="">
        <dc:format>image/svg+xml</dc:format>
        <dc:type
           rdf:resource="http://purl.org/dc/dcmitype/StillImage" />
        <dc:title></dc:title>
      </cc:Work>
    </rdf:RDF>
  </metadata>
  <g
     inkscape:label="Layer 1"
     inkscape:groupmode="layer"
     id="layer1"
     transform="translate(0.17727383,-1.9766568)">
    <circle
       style="opacity:1;vector-effect:none;fill:none;fill-opacity:1;fill-rule:nonzero;stroke:#000000;stroke-width:1;stroke-linecap:round;stroke-linejoin:bevel;stroke-miterlimit:4;stroke-dasharray:none;stroke-dashoffset:0;stroke-opacity:1"
       id="path904"
       cx="-243.48186"
       cy="6.8173079"
       r="53.787991" />
    <path
       style="fill:none;fill-rule:evenodd;stroke:#000000;stroke-width:0.5;stroke-linecap:butt;stroke-linejoin:miter;stroke-miterlimit:4;stroke-dasharray:none;stroke-opacity:1"
       d="m -312.07591,16.371353 c 3.26177,-0.05158 21.98469,-11.1991109 33.09395,-11.2745465 11.10926,-0.075436 23.60309,11.0836785 36.09673,11.0558045 12.49364,-0.02787 24.03285,-11.0603801 35.52976,-11.0558045 11.49691,0.00458 33.08707,11.3812195 35.46217,11.4416185"
       id="path908"
       inkscape:connector-curvature="0"
       sodipodi:nodetypes="czzzc" />
    <path
       sodipodi:nodetypes="czzzc"
       inkscape:connector-curvature="0"
       id="path926"
       d="m -312.07591,-0.59707928 c 3.26177,-0.05158 21.98469,-11.19911072 33.09395,-11.27454572 11.10926,-0.07544 23.60309,11.08367772 36.09673,11.05580372 12.49364,-0.02787 24.03285,-11.06037972 35.52976,-11.05580372 11.49691,0.0046 33.08707,11.38121872 35.46217,11.44161772"
       style="fill:none;fill-rule:evenodd;stroke:#000000;stroke-width:0.5;stroke-linecap:butt;stroke-linejoin:miter;stroke-miterlimit:4;stroke-dasharray:none;stroke-opacity:1" />
    <path
       style="fill:none;fill-rule:evenodd;stroke:#000000;stroke-width:0.5;stroke-linecap:butt;stroke-linejoin:miter;stroke-miterlimit:4;stroke-dasharray:none;stroke-opacity:1"
       d="m -312.07591,-17.565502 c 3.26177,-0.05158 21.9847,-11.199111 33.09396,-11.274546 11.10926,-0.07544 23.60307,11.083678 36.09672,11.055804 12.49364,-0.02787 24.03285,-11.06038 35.52976,-11.055804 11.49691,0.0046 33.08707,11.381219 35.46217,11.441618"
       id="path928"
       inkscape:connector-curvature="0"
       sodipodi:nodetypes="czzzc" />
    <path
       sodipodi:nodetypes="czzzc"
       inkscape:connector-curvature="0"
       id="path930"
       d="m -312.07591,-34.533938 c 3.26177,-0.05158 21.9847,-11.199111 33.09396,-11.274546 11.10926,-0.07544 23.60307,11.083678 36.09672,11.055804 12.49364,-0.02787 24.03285,-11.06038 35.52976,-11.055804 11.49691,0.0046 33.08707,11.381219 35.46217,11.441618"
       style="fill:none;fill-rule:evenodd;stroke:#000000;stroke-width:0.5;stroke-linecap:butt;stroke-linejoin:miter;stroke-miterlimit:4;stroke-dasharray:none;stroke-opacity:1" />
    <path
       style="fill:none;fill-rule:evenodd;stroke:#000000;stroke-width:0.5;stroke-linecap:butt;stroke-linejoin:miter;stroke-miterlimit:4;stroke-dasharray:none;stroke-opacity:1"
       d="m -312.07591,33.339785 c 3.26177,-0.05158 21.9847,-11.199111 33.09396,-11.274546 11.10926,-0.07544 23.60308,11.083678 36.09672,11.055804 12.49364,-0.02787 24.03285,-11.06038 35.52976,-11.055804 11.49691,0.0046 33.08707,11.381219 35.46217,11.441618"
       id="path932"
       inkscape:connector-curvature="0"
       sodipodi:nodetypes="czzzc" />
    <path
       sodipodi:nodetypes="czzzc"
       inkscape:connector-curvature="0"
       id="path934"
       d="m -312.07591,50.30821 c 3.26177,-0.05158 21.98469,-11.199112 33.09395,-11.274546 11.10926,-0.07544 23.60309,11.083677 36.09673,11.055804 12.49364,-0.02787 24.03285,-11.06038 35.52976,-11.055804 11.49691,0.0046 33.08707,11.381219 35.46217,11.441617"
       style="fill:none;fill-rule:evenodd;stroke:#000000;stroke-width:0.5;stroke-linecap:butt;stroke-linejoin:miter;stroke-miterlimit:4;stroke-dasharray:none;stroke-opacity:1" />
    <path
       style="fill:none;fill-rule:evenodd;stroke:#000000;stroke-width:0.5;stroke-linecap:butt;stroke-linejoin:miter;stroke-miterlimit:4;stroke-dasharray:none;stroke-opacity:1"
       d="m -312.2649,67.276649 c 3.26177,-0.05158 21.98469,-11.199112 33.09395,-11.274546 11.10926,-0.07544 23.60309,11.083677 36.09673,11.055804 12.49364,-0.02787 24.03285,-11.06038 35.52976,-11.055804 11.49691,0.0046 33.08707,11.381219 35.46217,11.441617"
       id="path952"
       inkscape:connector-curvature="0"
       sodipodi:nodetypes="czzzc" />
    <path
       sodipodi:nodetypes="czzzc"
       inkscape:connector-curvature="0"
       id="path954"
       d="m -312.83186,-51.502368 c 3.26177,-0.05158 21.98469,-11.199112 33.09395,-11.274546 11.10926,-0.07544 23.60309,11.083677 36.09673,11.055804 12.49364,-0.02787 24.03285,-11.06038 35.52976,-11.055804 11.49691,0.0046 33.08707,11.381219 35.46217,11.441617"
       style="fill:none;fill-rule:evenodd;stroke:#000000;stroke-width:0.5;stroke-linecap:butt;stroke-linejoin:miter;stroke-miterlimit:4;stroke-dasharray:none;stroke-opacity:1" />
    <path
       style="fill:#0000ff;fill-rule:evenodd;stroke:#000000;stroke-width:0.5;stroke-linecap:butt;stroke-linejoin:miter;stroke-miterlimit:4;stroke-dasharray:none;stroke-opacity:1"
       d="m -315.10363,103.51396 c 3.26175,-0.0516 21.98468,-11.199115 33.09393,-11.274549 11.10926,-0.07544 23.60309,11.083679 36.09673,11.055799 12.49364,-0.0279 24.03285,-11.060375 35.52976,-11.055799 11.49691,0.0046 33.08707,11.381219 35.46217,11.441619 l -0.82916,16.80136 c -3.26177,-0.0516 -21.9847,-11.19911 -33.09396,-11.27455 -11.10926,-0.0754 -23.60307,11.08368 -36.09672,11.0558 -12.49364,-0.0279 -24.03285,-11.06038 -35.52976,-11.0558 -11.49691,0.005 -33.08706,11.38122 -35.46217,11.44162 z"
       id="path998"
       inkscape:connector-curvature="0"
       sodipodi:nodetypes="czzzcczzzcc" />
    <path
       sodipodi:nodetypes="czzzcczzzcc"
       inkscape:connector-curvature="0"
       id="path1032"
       d="m -315.10364,206.14546 c 3.26176,-0.0516 21.98468,-11.19912 33.09394,-11.27455 11.10926,-0.0754 23.60309,11.08368 36.09673,11.0558 12.49364,-0.0279 24.03285,-11.06038 35.52976,-11.0558 11.49691,0.005 33.08707,11.38122 35.46217,11.44162 l -0.82916,16.80136 c -3.26177,-0.0516 -21.9847,-11.19911 -33.09396,-11.27455 -11.10926,-0.0754 -23.60307,11.08368 -36.09672,11.0558 -12.49364,-0.0279 -24.03285,-11.06038 -35.52976,-11.0558 -11.49691,0.005 -33.08706,11.38122 -35.46217,11.44162 z"
       style="fill:#0000ff;fill-rule:evenodd;stroke:#000000;stroke-width:0.5;stroke-linecap:butt;stroke-linejoin:miter;stroke-miterlimit:4;stroke-dasharray:none;stroke-opacity:1" />
    <path
       style="fill:#0000ff;fill-rule:evenodd;stroke:#000000;stroke-width:0.5;stroke-linecap:butt;stroke-linejoin:miter;stroke-miterlimit:4;stroke-dasharray:none;stroke-opacity:1"
       d="m -315.10364,137.72446 c 3.26176,-0.0516 21.98468,-11.19912 33.09394,-11.27455 11.10926,-0.0754 23.60309,11.08368 36.09673,11.0558 12.49364,-0.0279 24.03285,-11.06038 35.52977,-11.0558 11.4969,0.005 33.08707,11.38122 35.46216,11.44162 l -0.82916,16.80136 c -3.26177,-0.0516 -21.9847,-11.19911 -33.09396,-11.27455 -11.10926,-0.0754 -23.60307,11.08368 -36.09672,11.0558 -12.49364,-0.0279 -24.03285,-11.06038 -35.52976,-11.0558 -11.49691,0.005 -33.08706,11.38122 -35.46217,11.44162 z"
       id="path1034"
       inkscape:connector-curvature="0"
       sodipodi:nodetypes="czzzcczzzcc" />
    <path
       sodipodi:nodetypes="czzzcczzzcc"
       inkscape:connector-curvature="0"
       id="path1036"
       d="m -315.10363,171.93496 c 3.26175,-0.0516 21.98468,-11.19912 33.09393,-11.27455 11.10926,-0.0754 23.60309,11.08368 36.09673,11.0558 12.49364,-0.0279 24.03285,-11.06038 35.52977,-11.0558 11.4969,0.005 33.08707,11.38122 35.46216,11.44162 l -0.82916,16.80136 c -3.26177,-0.0516 -21.9847,-11.19911 -33.09396,-11.27455 -11.10926,-0.0754 -23.60307,11.08368 -36.09672,11.0558 -12.49364,-0.0279 -24.03285,-11.06038 -35.52976,-11.0558 -11.49691,0.005 -33.08706,11.38122 -35.46217,11.44162 z"
       style="fill:#0000ff;fill-rule:evenodd;stroke:#000000;stroke-width:0.5;stroke-linecap:butt;stroke-linejoin:miter;stroke-miterlimit:4;stroke-dasharray:none;stroke-opacity:1" />
    <circle
       r="53.787991"
       cy="161.83363"
       cx="-243.88277"
       id="circle956"
       style="opacity:1;vector-effect:none;fill:none;fill-opacity:1;fill-rule:nonzero;stroke:#000000;stroke-width:1;stroke-linecap:round;stroke-linejoin:bevel;stroke-miterlimit:4;stroke-dasharray:none;stroke-dashoffset:0;stroke-opacity:1" />
    <g
       id="g1084">
      <circle
         style="opacity:1;vector-effect:none;fill:#fbffff;fill-opacity:1;fill-rule:nonzero;stroke:#000000;stroke-width:1;stroke-linecap:round;stroke-linejoin:bevel;stroke-miterlimit:4;stroke-dasharray:none;stroke-dashoffset:0;stroke-opacity:1"
         id="circle1076"
         cx="-244.68457"
         cy="327.80801"
         r="53.787991" />
      <circle
         r="53.787991"
         cy="327.80801"
         cx="-244.68457"
         id="circle1046"
         style="opacity:1;vector-effect:none;fill:none;fill-opacity:1;fill-rule:nonzero;stroke:#000000;stroke-width:1;stroke-linecap:round;stroke-linejoin:bevel;stroke-miterlimit:4;stroke-dasharray:none;stroke-dashoffset:0;stroke-opacity:1" />
      <path
         clip-path="url(#clipPath1060)"
         style="fill:#0000ff;fill-rule:evenodd;stroke:#000000;stroke-width:0.5;stroke-linecap:butt;stroke-linejoin:miter;stroke-miterlimit:4;stroke-dasharray:none;stroke-opacity:1"
         d="m -315.90544,269.48834 c 3.26175,-0.0516 21.98468,-11.19912 33.09393,-11.27455 11.10926,-0.0754 23.60309,11.08368 36.09673,11.0558 12.49364,-0.0279 24.03285,-11.06038 35.52976,-11.0558 11.49691,0.005 33.08707,11.38122 35.46217,11.44162 l -0.82916,16.80136 c -3.26177,-0.0516 -21.9847,-11.19911 -33.09396,-11.27455 -11.10926,-0.0754 -23.60307,11.08368 -36.09672,11.0558 -12.49364,-0.0279 -24.03285,-11.06038 -35.52976,-11.0558 -11.49691,0.005 -33.08706,11.38122 -35.46217,11.44162 z"
         id="path1038"
         inkscape:connector-curvature="0"
         sodipodi:nodetypes="czzzcczzzcc" />
      <path
         clip-path="url(#clipPath1072)"
         sodipodi:nodetypes="czzzcczzzcc"
         inkscape:connector-curvature="0"
         id="path1040"
         d="m -315.90545,372.11984 c 3.26176,-0.0516 21.98468,-11.19912 33.09394,-11.27455 11.10926,-0.0754 23.60309,11.08368 36.09673,11.0558 12.49364,-0.0279 24.03285,-11.06038 35.52976,-11.0558 11.49691,0.005 33.08707,11.38122 35.46217,11.44162 l -0.82916,16.80136 c -3.26177,-0.0516 -21.9847,-11.19911 -33.09396,-11.27455 -11.10926,-0.0754 -23.60307,11.08368 -36.09672,11.0558 -12.49364,-0.0279 -24.03285,-11.06038 -35.52976,-11.0558 -11.49691,0.005 -33.08706,11.38122 -35.46217,11.44162 z"
         style="fill:#0000ff;fill-rule:evenodd;stroke:#000000;stroke-width:0.5;stroke-linecap:butt;stroke-linejoin:miter;stroke-miterlimit:4;stroke-dasharray:none;stroke-opacity:1" />
      <path
         clip-path="url(#clipPath1064)"
         style="fill:#0000ff;fill-rule:evenodd;stroke:#000000;stroke-width:0.5;stroke-linecap:butt;stroke-linejoin:miter;stroke-miterlimit:4;stroke-dasharray:none;stroke-opacity:1"
         d="m -315.90545,303.69884 c 3.26176,-0.0516 21.98468,-11.19912 33.09394,-11.27455 11.10926,-0.0754 23.60309,11.08368 36.09673,11.0558 12.49364,-0.0279 24.03285,-11.06038 35.52977,-11.0558 11.4969,0.005 33.08707,11.38122 35.46216,11.44162 l -0.82916,16.80136 c -3.26177,-0.0516 -21.9847,-11.19911 -33.09396,-11.27455 -11.10926,-0.0754 -23.60307,11.08368 -36.09672,11.0558 -12.49364,-0.0279 -24.03285,-11.06038 -35.52976,-11.0558 -11.49691,0.005 -33.08706,11.38122 -35.46217,11.44162 z"
         id="path1042"
         inkscape:connector-curvature="0"
         sodipodi:nodetypes="czzzcczzzcc" />
      <path
         clip-path="url(#clipPath1068)"
         sodipodi:nodetypes="czzzcczzzcc"
         inkscape:connector-curvature="0"
         id="path1044"
         d="m -315.90544,337.90934 c 3.26175,-0.0516 21.98468,-11.19912 33.09393,-11.27455 11.10926,-0.0754 23.60309,11.08368 36.09673,11.0558 12.49364,-0.0279 24.03285,-11.06038 35.52977,-11.0558 11.4969,0.005 33.08707,11.38122 35.46216,11.44162 l -0.82916,16.80136 c -3.26177,-0.0516 -21.9847,-11.19911 -33.09396,-11.27455 -11.10926,-0.0754 -23.60307,11.08368 -36.09672,11.0558 -12.49364,-0.0279 -24.03285,-11.06038 -35.52976,-11.0558 -11.49691,0.005 -33.08706,11.38122 -35.46217,11.44162 z"
         style="fill:#0000ff;fill-rule:evenodd;stroke:#000000;stroke-width:0.5;stroke-linecap:butt;stroke-linejoin:miter;stroke-miterlimit:4;stroke-dasharray:none;stroke-opacity:1" />
    </g>
    <g
       id="g1147">
      <g
         style="stroke-width:0.98781639"
         transform="matrix(1.0123064,0,0,1.0123614,-0.2745237,2.0804854)"
         id="g1863">
        <path
           style="fill:#228b22;fill-opacity:1;stroke:#000000;stroke-width:0.98781639;stroke-miterlimit:4;stroke-dasharray:none"
           d="M 0.58997582,0.39134741 V 180.49721 v 18.761 c 7.86272778,-9.3805 7.86257178,-9.3805 22.46478018,-18.761 v -22.51304 h 22.464781 v 22.51304 c 7.301104,9.3805 7.301416,9.3805 11.23278,18.761 3.931364,-9.3805 3.930896,-9.3805 11.232001,-18.761 v -22.51304 h 22.46478 v 22.51304 c 7.301104,9.3805 7.301416,9.3805 11.232782,18.761 3.93136,-9.3805 3.93167,-9.3805 11.23278,-18.761 v -22.51304 h 22.46478 v 22.51304 c 7.3011,9.3805 7.30064,9.3805 11.232,18.761 3.93136,-9.3805 3.93168,-9.3805 11.23278,-18.761 V 157.98417 H 180.309 v 22.51304 c 14.60221,9.3805 14.60205,9.3805 22.46478,18.761 V 180.49721 0.39134741 H 101.68188 Z M 23.054756,22.905153 H 45.519537 V 45.418196 H 23.054756 Z m 44.929562,0 h 22.46478 v 22.513043 h -22.46478 z m 44.930342,0 h 22.46478 v 22.513043 h -22.46478 z m 44.92956,0 H 180.309 V 45.418196 H 157.84422 Z M 23.054756,67.931239 H 45.519537 V 90.444281 H 23.054756 Z m 44.929562,0 h 22.46478 v 22.513042 h -22.46478 z m 44.930342,0 h 22.46478 v 22.513042 h -22.46478 z m 44.92956,0 H 180.309 V 90.444281 H 157.84422 Z M 23.054756,112.95732 h 22.464781 v 22.51381 H 23.054756 Z m 44.929562,0 h 22.46478 v 22.51381 h -22.46478 z m 44.930342,0 h 22.46478 v 22.51381 h -22.46478 z m 44.92956,0 H 180.309 v 22.51381 h -22.46478 z"
           id="path913"
           inkscape:connector-curvature="0" />
        <path
           style="stroke:#000000;stroke-width:0.4939082;stroke-miterlimit:4;stroke-dasharray:none"
           inkscape:connector-curvature="0"
           d="M 23.054556,22.904824 0.58962022,0.39163017"
           id="path917" />
        <path
           style="stroke:#000000;stroke-width:0.4939082;stroke-miterlimit:4;stroke-dasharray:none"
           inkscape:connector-curvature="0"
           d="M 45.519492,22.904824 56.75196,11.648227"
           id="path919" />
        <path
           style="stroke:#000000;stroke-width:0.4939082;stroke-miterlimit:4;stroke-dasharray:none"
           inkscape:connector-curvature="0"
           d="M 23.054556,45.418018 11.822088,56.674615"
           id="path921" />
        <path
           style="stroke:#000000;stroke-width:0.4939082;stroke-miterlimit:4;stroke-dasharray:none"
           inkscape:connector-curvature="0"
           d="M 67.984428,22.904824 56.75196,11.648227"
           id="path923" />
        <path
           style="stroke:#000000;stroke-width:0.4939082;stroke-miterlimit:4;stroke-dasharray:none"
           inkscape:connector-curvature="0"
           d="M 90.449364,22.904824 101.68183,11.648227"
           id="path925" />
        <path
           style="stroke:#000000;stroke-width:0.4939082;stroke-miterlimit:4;stroke-dasharray:none"
           inkscape:connector-curvature="0"
           d="M 112.9143,22.904824 101.68183,11.648227"
           id="path927" />
        <path
           style="stroke:#000000;stroke-width:0.4939082;stroke-miterlimit:4;stroke-dasharray:none"
           inkscape:connector-curvature="0"
           d="M 135.37924,22.904824 146.6117,11.648227"
           id="path929" />
        <path
           style="stroke:#000000;stroke-width:0.4939082;stroke-miterlimit:4;stroke-dasharray:none"
           inkscape:connector-curvature="0"
           d="M 157.84417,22.904824 146.6117,11.648227"
           id="path931" />
        <path
           style="stroke:#000000;stroke-width:0.4939082;stroke-miterlimit:4;stroke-dasharray:none"
           inkscape:connector-curvature="0"
           d="m 180.30911,45.418018 11.23247,11.256597"
           id="path933" />
        <path
           style="stroke:#000000;stroke-width:0.4939082;stroke-miterlimit:4;stroke-dasharray:none"
           inkscape:connector-curvature="0"
           d="M 180.30911,22.904824 202.77404,0.39163017"
           id="path935" />
        <path
           style="stroke:#000000;stroke-width:0.4939082;stroke-miterlimit:4;stroke-dasharray:none"
           inkscape:connector-curvature="0"
           d="M 23.054556,67.931212 11.822088,56.674615"
           id="path937" />
        <path
           style="stroke:#000000;stroke-width:0.4939082;stroke-miterlimit:4;stroke-dasharray:none"
           inkscape:connector-curvature="0"
           d="M 45.519492,67.931212 67.984428,45.418018"
           id="path939" />
        <path
           style="stroke:#000000;stroke-width:0.4939082;stroke-miterlimit:4;stroke-dasharray:none"
           inkscape:connector-curvature="0"
           d="M 23.054556,90.444406 11.822088,101.701"
           id="path941" />
        <path
           style="stroke:#000000;stroke-width:0.4939082;stroke-miterlimit:4;stroke-dasharray:none"
           inkscape:connector-curvature="0"
           d="M 67.984428,67.931212 45.519492,45.418018"
           id="path943" />
        <path
           style="stroke:#000000;stroke-width:0.4939082;stroke-miterlimit:4;stroke-dasharray:none"
           inkscape:connector-curvature="0"
           d="M 90.449364,67.931212 112.9143,45.418018"
           id="path945" />
        <path
           style="stroke:#000000;stroke-width:0.4939082;stroke-miterlimit:4;stroke-dasharray:none"
           inkscape:connector-curvature="0"
           d="M 112.9143,67.931212 90.449364,45.418018"
           id="path947" />
        <path
           style="stroke:#000000;stroke-width:0.4939082;stroke-miterlimit:4;stroke-dasharray:none"
           inkscape:connector-curvature="0"
           d="M 135.37924,67.931212 157.84417,45.418018"
           id="path949" />
        <path
           style="stroke:#000000;stroke-width:0.4939082;stroke-miterlimit:4;stroke-dasharray:none"
           inkscape:connector-curvature="0"
           d="M 157.84417,67.931212 135.37924,45.418018"
           id="path951" />
        <path
           style="stroke:#000000;stroke-width:0.4939082;stroke-miterlimit:4;stroke-dasharray:none"
           inkscape:connector-curvature="0"
           d="M 180.30911,90.444406 191.54158,101.701"
           id="path953" />
        <path
           style="stroke:#000000;stroke-width:0.4939082;stroke-miterlimit:4;stroke-dasharray:none"
           inkscape:connector-curvature="0"
           d="M 180.30911,67.931212 191.54158,56.674615"
           id="path955" />
        <path
           style="stroke:#000000;stroke-width:0.4939082;stroke-miterlimit:4;stroke-dasharray:none"
           inkscape:connector-curvature="0"
           d="M 23.054556,112.9576 11.822088,101.701"
           id="path957" />
        <path
           style="stroke:#000000;stroke-width:0.4939082;stroke-miterlimit:4;stroke-dasharray:none"
           inkscape:connector-curvature="0"
           d="M 45.519492,112.9576 67.984428,90.444406"
           id="path959" />
        <path
           style="stroke:#000000;stroke-width:0.4939082;stroke-miterlimit:4;stroke-dasharray:none"
           inkscape:connector-curvature="0"
           d="m 23.054556,135.47079 -11.232468,11.2566"
           id="path961" />
        <path
           style="stroke:#000000;stroke-width:0.4939082;stroke-miterlimit:4;stroke-dasharray:none"
           inkscape:connector-curvature="0"
           d="M 67.984428,112.9576 45.519492,90.444406"
           id="path963" />
        <path
           style="stroke:#000000;stroke-width:0.4939082;stroke-miterlimit:4;stroke-dasharray:none"
           inkscape:connector-curvature="0"
           d="M 90.449364,112.9576 112.9143,90.444406"
           id="path965" />
        <path
           style="stroke:#000000;stroke-width:0.4939082;stroke-miterlimit:4;stroke-dasharray:none"
           inkscape:connector-curvature="0"
           d="M 112.9143,112.9576 90.449364,90.444406"
           id="path967" />
        <path
           style="stroke:#000000;stroke-width:0.4939082;stroke-miterlimit:4;stroke-dasharray:none"
           inkscape:connector-curvature="0"
           d="M 135.37924,112.9576 157.84417,90.444406"
           id="path969" />
        <path
           style="stroke:#000000;stroke-width:0.4939082;stroke-miterlimit:4;stroke-dasharray:none"
           inkscape:connector-curvature="0"
           d="M 157.84417,112.9576 135.37924,90.444406"
           id="path971" />
        <path
           style="stroke:#000000;stroke-width:0.4939082;stroke-miterlimit:4;stroke-dasharray:none"
           inkscape:connector-curvature="0"
           d="m 180.30911,135.47079 11.23247,11.2566"
           id="path973" />
        <path
           style="stroke:#000000;stroke-width:0.4939082;stroke-miterlimit:4;stroke-dasharray:none"
           inkscape:connector-curvature="0"
           d="M 180.30911,112.9576 191.54158,101.701"
           id="path975" />
        <path
           style="stroke:#000000;stroke-width:0.4939082;stroke-miterlimit:4;stroke-dasharray:none"
           inkscape:connector-curvature="0"
           d="M 23.054556,157.98399 11.822088,146.72739"
           id="path977" />
        <path
           style="stroke:#000000;stroke-width:0.4939082;stroke-miterlimit:4;stroke-dasharray:none"
           inkscape:connector-curvature="0"
           d="m 45.519492,157.98399 22.464936,-22.5132"
           id="path979" />
        <path
           style="stroke:#000000;stroke-width:0.4939082;stroke-miterlimit:4;stroke-dasharray:none"
           inkscape:connector-curvature="0"
           d="M 67.984428,157.98399 45.519492,135.47079"
           id="path981" />
        <path
           style="stroke:#000000;stroke-width:0.4939082;stroke-miterlimit:4;stroke-dasharray:none"
           inkscape:connector-curvature="0"
           d="M 90.449364,157.98399 112.9143,135.47079"
           id="path983" />
        <path
           style="stroke:#000000;stroke-width:0.4939082;stroke-miterlimit:4;stroke-dasharray:none"
           inkscape:connector-curvature="0"
           d="M 112.9143,157.98399 90.449364,135.47079"
           id="path985" />
        <path
           style="stroke:#000000;stroke-width:0.4939082;stroke-miterlimit:4;stroke-dasharray:none"
           inkscape:connector-curvature="0"
           d="m 135.37924,157.98399 22.46493,-22.5132"
           id="path987" />
        <path
           style="stroke:#000000;stroke-width:0.4939082;stroke-miterlimit:4;stroke-dasharray:none"
           inkscape:connector-curvature="0"
           d="m 157.84417,157.98399 -22.46493,-22.5132"
           id="path989" />
        <path
           style="stroke:#000000;stroke-width:0.4939082;stroke-miterlimit:4;stroke-dasharray:none"
           inkscape:connector-curvature="0"
           d="m 180.30911,157.98399 11.23247,-11.2566"
           id="path991" />
      </g>
      <g
         transform="translate(347.34326,-224.23133)"
         id="g1098">
        <circle
           style="opacity:1;vector-effect:none;fill:#fbffff;fill-opacity:1;fill-rule:nonzero;stroke:#000000;stroke-width:1;stroke-linecap:round;stroke-linejoin:bevel;stroke-miterlimit:4;stroke-dasharray:none;stroke-dashoffset:0;stroke-opacity:1"
           id="circle1086"
           cx="-244.68457"
           cy="327.80801"
           r="53.787991" />
        <circle
           r="53.787991"
           cy="327.80801"
           cx="-244.68457"
           id="circle1088"
           style="opacity:1;vector-effect:none;fill:none;fill-opacity:1;fill-rule:nonzero;stroke:#000000;stroke-width:1;stroke-linecap:round;stroke-linejoin:bevel;stroke-miterlimit:4;stroke-dasharray:none;stroke-dashoffset:0;stroke-opacity:1" />
        <path
           clip-path="url(#clipPath1060)"
           style="fill:#0000ff;fill-rule:evenodd;stroke:#000000;stroke-width:0.5;stroke-linecap:butt;stroke-linejoin:miter;stroke-miterlimit:4;stroke-dasharray:none;stroke-opacity:1"
           d="m -315.90544,269.48834 c 3.26175,-0.0516 21.98468,-11.19912 33.09393,-11.27455 11.10926,-0.0754 23.60309,11.08368 36.09673,11.0558 12.49364,-0.0279 24.03285,-11.06038 35.52976,-11.0558 11.49691,0.005 33.08707,11.38122 35.46217,11.44162 l -0.82916,16.80136 c -3.26177,-0.0516 -21.9847,-11.19911 -33.09396,-11.27455 -11.10926,-0.0754 -23.60307,11.08368 -36.09672,11.0558 -12.49364,-0.0279 -24.03285,-11.06038 -35.52976,-11.0558 -11.49691,0.005 -33.08706,11.38122 -35.46217,11.44162 z"
           id="path1090"
           inkscape:connector-curvature="0"
           sodipodi:nodetypes="czzzcczzzcc" />
        <path
           clip-path="url(#clipPath1072)"
           sodipodi:nodetypes="czzzcczzzcc"
           inkscape:connector-curvature="0"
           id="path1092"
           d="m -315.90545,372.11984 c 3.26176,-0.0516 21.98468,-11.19912 33.09394,-11.27455 11.10926,-0.0754 23.60309,11.08368 36.09673,11.0558 12.49364,-0.0279 24.03285,-11.06038 35.52976,-11.0558 11.49691,0.005 33.08707,11.38122 35.46217,11.44162 l -0.82916,16.80136 c -3.26177,-0.0516 -21.9847,-11.19911 -33.09396,-11.27455 -11.10926,-0.0754 -23.60307,11.08368 -36.09672,11.0558 -12.49364,-0.0279 -24.03285,-11.06038 -35.52976,-11.0558 -11.49691,0.005 -33.08706,11.38122 -35.46217,11.44162 z"
           style="fill:#0000ff;fill-rule:evenodd;stroke:#000000;stroke-width:0.5;stroke-linecap:butt;stroke-linejoin:miter;stroke-miterlimit:4;stroke-dasharray:none;stroke-opacity:1" />
        <path
           clip-path="url(#clipPath1064)"
           style="fill:#0000ff;fill-rule:evenodd;stroke:#000000;stroke-width:0.5;stroke-linecap:butt;stroke-linejoin:miter;stroke-miterlimit:4;stroke-dasharray:none;stroke-opacity:1"
           d="m -315.90545,303.69884 c 3.26176,-0.0516 21.98468,-11.19912 33.09394,-11.27455 11.10926,-0.0754 23.60309,11.08368 36.09673,11.0558 12.49364,-0.0279 24.03285,-11.06038 35.52977,-11.0558 11.4969,0.005 33.08707,11.38122 35.46216,11.44162 l -0.82916,16.80136 c -3.26177,-0.0516 -21.9847,-11.19911 -33.09396,-11.27455 -11.10926,-0.0754 -23.60307,11.08368 -36.09672,11.0558 -12.49364,-0.0279 -24.03285,-11.06038 -35.52976,-11.0558 -11.49691,0.005 -33.08706,11.38122 -35.46217,11.44162 z"
           id="path1094"
           inkscape:connector-curvature="0"
           sodipodi:nodetypes="czzzcczzzcc" />
        <path
           clip-path="url(#clipPath1068)"
           sodipodi:nodetypes="czzzcczzzcc"
           inkscape:connector-curvature="0"
           id="path1096"
           d="m -315.90544,337.90934 c 3.26175,-0.0516 21.98468,-11.19912 33.09393,-11.27455 11.10926,-0.0754 23.60309,11.08368 36.09673,11.0558 12.49364,-0.0279 24.03285,-11.06038 35.52977,-11.0558 11.4969,0.005 33.08707,11.38122 35.46216,11.44162 l -0.82916,16.80136 c -3.26177,-0.0516 -21.9847,-11.19911 -33.09396,-11.27455 -11.10926,-0.0754 -23.60307,11.08368 -36.09672,11.0558 -12.49364,-0.0279 -24.03285,-11.06038 -35.52976,-11.0558 -11.49691,0.005 -33.08706,11.38122 -35.46217,11.44162 z"
           style="fill:#0000ff;fill-rule:evenodd;stroke:#000000;stroke-width:0.5;stroke-linecap:butt;stroke-linejoin:miter;stroke-miterlimit:4;stroke-dasharray:none;stroke-opacity:1" />
      </g>
    </g>
  </g>
</svg>
