<?xml version="1.0" encoding="UTF-8" standalone="no"?>
<!DOCTYPE svg PUBLIC "-//W3C//DTD SVG 1.1//EN" "http://www.w3.org/Graphics/SVG/1.1/DTD/svg11.dtd">
<svg xmlns:xl="http://www.w3.org/1999/xlink" xmlns="http://www.w3.org/2000/svg" xmlns:dc="http://purl.org/dc/elements/1.1/" version="1.1" viewBox="141.75 61.652536 81 353.69493" width="81" height="353.69493">
  <defs>
    <clipPath id="artboard_clip_path">
      <path d="M 141.75 61.652536 L 222.75 61.652536 L 222.75 415.34746 L 141.75 415.34746 Z"/>
    </clipPath>
  </defs>
  <metadata> Produced by OmniGraffle 7.10.2 test 
    <dc:date>2019-03-17 21:53:40 +0000</dc:date>
  </metadata>
  <g id="Torch" fill="none" stroke-dasharray="none" stroke-opacity="1" fill-opacity="1" stroke="none">
    <title>Torch</title>
    <g id="Torch: Layer 2" clip-path="url(#artboard_clip_path)">
      <title>Layer 2</title>
      <g id="Group_23">
        <g id="Graphic_32">
          <path d="M 181.50897 64.59606 C 180.93895 66.07812 180.25492 71.66433 179.11488 83.86279 C 178.54486 90.13302 177.74683 90.01902 176.8348 83.52077 C 176.03677 77.59255 174.3267 75.99649 173.30066 80.32865 C 172.95865 81.81071 172.61664 87.51093 172.38863 93.21114 L 172.16062 103.47153 L 169.99454 96.85928 C 168.8545 93.21114 167.25843 90.47504 166.5744 90.70305 C 165.20636 91.15906 165.09235 95.14921 166.2324 106.89166 L 167.03043 114.87196 L 164.40833 108.25971 C 163.04027 104.72558 161.33021 101.76146 160.64618 101.76146 C 157.68207 101.76146 157.11205 108.94373 159.50614 115.66999 C 161.55822 121.3702 160.19017 121.02819 157.34006 115.21397 C 154.48995 109.39975 151.98186 108.1457 152.66588 112.81988 C 154.71796 125.93038 156.20002 134.02468 157.56807 139.9529 L 159.27813 146.67916 L 154.26194 151.35334 C 151.63984 153.97543 148.21972 156.82554 146.85166 157.73758 L 144.22956 159.56165 L 147.7637 170.27805 C 149.70177 176.20627 152.77989 184.8706 154.60396 189.65878 C 156.42803 194.33296 157.91008 199.12114 157.91008 200.26118 C 157.91008 201.28722 158.93612 204.13733 160.19017 206.64542 C 161.55822 209.38153 162.01424 211.3196 161.33021 211.77562 C 159.39214 212.91566 160.07616 218.9579 162.24224 220.55395 C 164.06631 221.808 164.75034 227.62222 167.94246 268.77777 C 169.99454 294.42874 172.16062 323.72784 172.73064 333.76022 C 173.41467 343.7926 174.5547 359.4112 175.23874 368.53154 C 176.7208 388.4823 175.53595 401.0906 175.69475 405.1269 C 175.82469 407.65413 175.35274 408.66105 177.97484 411.16914 C 181.73698 414.58927 185.61313 414.9313 190.2873 412.0812 C 190.2873 412.0812 192.57697 411.06835 193.42563 409.15347 C 194.27429 407.2386 193.93544 381.64203 193.93544 381.64203 C 194.04945 365.90944 194.50546 350.29085 194.96148 346.8707 C 196.10152 335.9263 199.06563 285.8784 200.5477 253.04518 C 201.80174 222.49202 201.91574 221.35198 204.42384 219.64191 C 207.27394 217.70384 207.72996 212.91566 205.22187 211.5476 C 203.85382 210.74958 204.42384 208.12748 209.21202 195.245 C 212.29013 186.80867 216.05228 175.86426 217.53433 170.96208 L 220.27044 162.18374 L 215.14024 154.77346 C 212.40414 150.66931 209.32602 147.36319 208.528 147.36319 C 207.61596 147.36319 206.93193 147.13518 206.93193 146.67916 C 206.93193 145.88113 213.8862 133.34066 215.02624 132.08661 C 216.3943 130.60455 216.28028 127.98245 215.02624 127.98245 C 214.45622 127.98245 212.29013 129.3505 210.23806 131.06057 L 206.58992 134.13869 L 207.50195 131.28858 C 207.95797 129.80652 208.984 127.29843 209.78204 125.70237 C 210.69407 124.1063 212.29013 119.77414 213.54418 116.24001 C 216.5083 108.0317 214.45622 107.34767 209.09801 114.87196 C 207.04594 117.72207 205.22187 119.77414 204.99386 119.54613 C 204.76585 119.31813 205.7919 114.41594 207.27394 108.71573 C 208.984 102.10348 209.55403 98.34133 208.756 98.34133 C 207.27394 98.34133 200.09167 106.32164 200.09167 108.0317 C 200.09167 108.82973 199.06563 110.31179 197.69758 111.56583 C 195.4175 113.61791 195.4175 113.61791 195.98752 110.88181 C 197.24157 104.95358 197.24157 90.01902 195.98752 89.563 C 195.1895 89.33499 194.16345 91.04506 193.59343 93.43915 L 192.5674 97.77131 L 191.08533 90.93105 C 187.6652 75.08446 184.13107 63 182.87702 63 C 182.421 63 181.85098 63.684026 181.50897 64.59606 Z" fill="black"/>
        </g>
        <g id="Graphic_31">
          <path d="M 187.6652 84.77482 C 188.46323 89.449 189.14726 95.26322 189.26126 97.77131 C 189.60328 107.11967 189.83129 108.60172 190.85732 108.60172 C 191.42735 108.60172 192.22538 106.77765 192.6814 104.49757 C 193.82144 97.88532 194.73347 100.96343 193.82144 109.05774 C 193.1374 116.012 190.62932 121.1422 188.00722 121.1422 C 187.3232 121.1422 186.75317 117.72207 186.63917 113.3899 C 186.41116 104.72558 185.49912 99.48138 184.24508 99.48138 C 183.78906 99.48138 182.64902 104.61157 181.85098 110.88181 C 180.71094 120.45817 180.14092 122.16823 178.88687 121.02819 C 177.97484 120.34416 177.29081 118.97611 177.29081 118.17808 C 177.29081 117.26605 176.49278 116.58202 175.46674 116.58202 C 173.52867 116.58202 173.64268 118.7481 175.58075 125.70237 C 176.15077 127.64044 176.03677 128.21046 175.23874 127.41243 C 174.66871 126.7284 173.87068 125.36035 173.64268 124.22031 C 173.52867 123.08027 172.84464 122.28224 172.16062 122.51025 C 171.13458 122.85226 171.13458 128.66648 172.27462 133.11265 L 172.84464 135.39273 L 171.02058 133.11265 C 169.99454 131.8586 168.7405 130.03453 168.17047 129.1225 C 167.60045 128.21046 166.80242 127.86845 166.3464 128.32447 C 165.43437 129.1225 166.4604 132.42862 170.56456 142.461 C 171.36259 144.51308 171.8186 146.33715 171.5906 146.56515 C 171.24858 146.79316 168.8545 146.79316 166.2324 146.45115 C 160.53218 145.88113 159.96216 144.74109 157.45406 129.2365 C 155.744 118.86211 155.744 114.98596 157.56807 119.54613 C 158.3661 121.71222 161.2162 124.44832 162.81227 124.56232 C 164.18032 124.56232 163.7243 120.34416 161.78623 115.55598 C 160.8742 113.04789 160.19017 109.85577 160.41818 108.37371 C 160.76019 106.43564 161.44421 107.57568 163.6103 113.04789 C 168.05646 124.44832 169.88053 123.7643 168.8545 110.7678 C 168.17047 99.82339 169.0825 98.68335 171.5906 107.68969 C 172.27462 110.08378 173.41467 112.02185 174.2127 112.02185 C 175.23874 112.02185 175.46674 108.82973 175.35274 100.39341 L 175.12473 88.65097 L 176.9488 94.00917 C 179.00088 100.0514 181.05295 101.30545 180.48293 96.28926 C 180.14092 92.98313 181.50897 77.13653 182.64902 71.55032 L 183.33304 68.13019 L 184.7011 72.23435 C 185.49912 74.514435 186.86717 80.21465 187.6652 84.77482 Z" fill="#f3f3f3"/>
        </g>
        <g id="Graphic_30">
          <path d="M 205.10786 109.39975 C 204.19583 113.04789 202.59977 118.7481 201.68773 122.05423 C 200.6617 125.47436 200.09167 128.43847 200.43369 128.66648 C 200.8897 129.2365 206.47591 122.39624 208.87 118.40609 C 210.80808 115.09997 210.69407 117.95007 208.756 122.51025 C 204.08182 133.45466 203.2838 135.84875 204.08182 137.1028 C 204.65185 138.01483 205.56388 137.90083 207.38795 136.76078 C 209.78204 135.16472 209.78204 135.16472 207.04594 141.20695 C 204.19583 147.24918 204.08182 147.36319 199.06563 147.36319 C 194.39146 147.36319 194.16345 147.24918 195.7595 145.3111 C 198.1536 142.68901 202.71377 133.56866 202.02975 132.88464 C 201.68773 132.65663 200.09167 133.22665 198.49561 134.3667 C 194.16345 137.1028 193.59343 135.62074 196.78555 129.80652 C 199.86366 123.8783 199.06563 121.82622 194.96148 125.70237 L 192.11137 128.32447 L 192.11137 123.8783 C 192.11137 120.34416 192.7954 118.86211 195.07548 117.15204 C 196.78555 115.898 199.74966 112.24986 201.91574 108.94373 C 204.08182 105.63761 206.0199 102.90151 206.2479 102.90151 C 206.58992 102.90151 206.0199 105.86562 205.10786 109.39975 Z" fill="#f3f3f3"/>
        </g>
        <g id="Graphic_29">
          <path d="M 185.84114 121.48421 C 186.41116 125.24635 186.75317 125.70237 188.34923 124.44832 C 189.83129 123.19427 189.9453 123.65029 189.26126 128.32447 C 188.34923 133.91068 189.14726 135.05072 191.65536 131.63059 C 193.0234 129.80652 193.1374 129.92053 193.25142 132.20061 C 193.25142 133.56866 192.7954 135.05072 192.11137 135.39273 C 189.71728 136.87479 191.08533 138.47085 194.27745 138.01483 C 196.21553 137.78682 197.58358 137.78682 197.35557 138.12884 C 197.24157 138.47085 196.10152 140.75094 194.96148 143.03102 L 192.6814 147.36319 L 182.64902 147.36319 C 177.0628 147.36319 172.84464 146.90717 173.18666 146.33715 C 173.52867 145.76712 173.07265 143.48704 172.16062 141.20695 L 170.33655 136.9888 L 173.41467 139.04087 C 176.49278 140.97894 176.49278 140.97894 175.80876 138.24284 C 175.46674 136.64678 174.78272 134.13869 174.3267 132.54263 C 173.52867 129.69252 173.52867 129.69252 175.80876 131.7446 C 178.77287 134.3667 179.7989 132.88464 178.43086 127.86845 C 176.9488 122.73826 176.9488 122.62425 179.00088 125.24635 C 180.48293 127.07042 180.82495 127.18442 181.85098 125.70237 C 182.421 124.79033 182.99103 122.62425 182.99103 120.91419 C 182.99103 117.26605 184.47308 112.81988 184.9291 115.44198 C 185.0431 116.35401 185.38512 119.09012 185.84114 121.48421 Z" fill="#f3f3f3"/>
        </g>
        <g id="Graphic_28">
          <path d="M 210.12405 152.37937 C 211.6061 153.63342 213.54418 156.14152 214.45622 157.85158 L 216.16628 161.0437 L 204.42384 161.1577 C 197.9256 161.1577 189.60328 161.27171 185.84114 161.38571 C 177.63283 161.61372 152.09586 159.90366 150.72781 159.10563 C 150.2718 158.87762 152.32387 156.36953 155.28798 153.63342 L 160.76019 148.73124 L 184.13107 149.30126 C 205.9059 149.87128 207.72996 150.09929 210.12405 152.37937 Z" fill="#f3f3f3"/>
        </g>
        <g id="Graphic_27">
          <path d="M 172.16062 163.32379 C 176.60679 163.8938 188.23523 164.00781 198.1536 163.6658 C 211.1501 163.20978 216.05228 163.32379 216.05228 164.23582 C 216.05228 166.97193 213.31617 176.7763 210.35206 184.9846 C 208.642 189.65878 206.0199 196.72705 204.65185 200.7172 C 203.2838 204.59335 201.57373 208.12748 200.8897 208.5835 C 200.09167 209.03951 171.8186 209.49553 165.09235 209.03951 C 163.7243 208.9255 163.38229 208.12748 157.11205 190.68482 C 152.8939 178.60036 150.2718 170.16405 149.24575 165.03385 L 148.56173 161.61372 L 156.42803 161.95574 C 160.64618 162.06974 167.82846 162.63976 172.16062 163.32379 Z" fill="#f3f3f3"/>
        </g>
        <g id="Graphic_26">
          <path d="M 203.05579 213.59969 C 205.33587 215.42375 204.99386 216.5638 202.14375 218.15986 C 199.52165 219.64191 165.66237 219.86992 163.4963 218.50187 C 161.44421 217.36183 162.47025 213.37168 165.09235 212.45964 C 168.7405 210.97759 201.11771 212.00363 203.05579 213.59969 Z" fill="#f3f3f3"/>
        </g>
        <g id="Graphic_25">
          <path d="M 199.74966 230.35832 C 199.29364 235.1465 198.72362 246.54693 198.3816 255.66727 C 198.0396 264.78762 196.78555 288.61452 195.5315 308.67928 C 194.39146 328.74403 192.7954 357.2451 192.11137 371.95166 C 190.74332 400.56674 194.81155 401.55044 184.3553 401.5928 C 175.7088 401.6278 179.3429 399.7687 177.29081 366.25145 C 175.80876 342.88057 174.89672 331.70814 174.3267 330.7961 C 174.0987 330.4541 173.87068 325.77992 173.87068 320.53572 C 173.75668 315.29153 172.95865 302.52304 172.16062 292.14865 C 171.24858 281.77426 170.22255 268.66376 169.88053 263.07755 C 169.53852 257.37734 168.51248 246.0909 167.71445 237.9966 C 166.91642 229.7883 166.4604 222.83403 166.5744 222.49202 C 166.80242 222.036 174.5547 221.694 183.67505 221.694 L 200.31968 221.58 L 199.74966 230.35832 Z" fill="#f3f3f3"/>
        </g>
        <g id="Graphic_24">
          <path d="M 191.54135 406.15296 C 191.54135 410.0291 186.63917 412.7652 182.193 411.16914 C 179.6849 410.3711 178.88687 409.23107 178.65886 406.38096 C 178.65886 406.38096 177.91797 403.38065 184.23403 403.58346 C 190.55008 403.78627 191.54135 403.53086 191.54135 406.15296 Z" fill="#f3f3f3"/>
        </g>
      </g>
    </g>
  </g>
</svg>
