<?xml version="1.0" encoding="UTF-8" standalone="no"?>
<!-- Created with Inkscape (http://www.inkscape.org/) -->

<svg
   xmlns:dc="http://purl.org/dc/elements/1.1/"
   xmlns:cc="http://creativecommons.org/ns#"
   xmlns:rdf="http://www.w3.org/1999/02/22-rdf-syntax-ns#"
   xmlns:svg="http://www.w3.org/2000/svg"
   xmlns="http://www.w3.org/2000/svg"
   xmlns:sodipodi="http://sodipodi.sourceforge.net/DTD/sodipodi-0.dtd"
   xmlns:inkscape="http://www.inkscape.org/namespaces/inkscape"
   width="205.67194mm"
   height="203.20006mm"
   viewBox="0 0 205.67194 203.20006"
   version="1.1"
   id="svg1135"
   inkscape:version="0.92.3 (2405546, 2018-03-11)"
   sodipodi:docname="torch-bearer-of-unser-hafen.svg"
   inkscape:export-filename="/home/swarren/git_wa/sca-devices-badges/outlands/awards/unser-hafen/nobles-gratitude-of-unser-hafen.png"
   inkscape:export-xdpi="18.52"
   inkscape:export-ydpi="18.52">
  <defs
     id="defs1129">
    <clipPath
       id="artboard_clip_path">
      <path
         id="path1037"
         d="M 54 63 L 307 63 L 307 367 L 54 367 Z" />
    </clipPath>
  </defs>
  <sodipodi:namedview
     id="base"
     pagecolor="#ffffff"
     bordercolor="#666666"
     borderopacity="1.0"
     inkscape:pageopacity="0.0"
     inkscape:pageshadow="2"
     inkscape:zoom="1.4"
     inkscape:cx="-140.20752"
     inkscape:cy="413.60765"
     inkscape:document-units="mm"
     inkscape:current-layer="layer1"
     showgrid="false"
     inkscape:window-width="3840"
     inkscape:window-height="2090"
     inkscape:window-x="0"
     inkscape:window-y="41"
     inkscape:window-maximized="1"
     fit-margin-top="0"
     fit-margin-left="0"
     fit-margin-right="0"
     fit-margin-bottom="0" />
  <metadata
     id="metadata1132">
    <rdf:RDF>
      <cc:Work
         rdf:about="">
        <dc:format>image/svg+xml</dc:format>
        <dc:type
           rdf:resource="http://purl.org/dc/dcmitype/StillImage" />
        <dc:title />
      </cc:Work>
    </rdf:RDF>
  </metadata>
  <g
     inkscape:label="Layer 1"
     inkscape:groupmode="layer"
     id="layer1"
     transform="translate(0.17727595,-1.9766557)">
    <g
       id="g1618">
      <g
         style="stroke-width:0.41216904"
         transform="matrix(2.4265335,0,0,2.4258444,372.38071,-167.86111)"
         id="g1306">
        <g
           style="fill:none;fill-opacity:1;stroke:none;stroke-width:0.41216904;stroke-dasharray:none;stroke-opacity:1"
           id="Graphic_106"
           transform="matrix(0.26458333,0,0,0.26458333,-159.54589,53.920497)">
          <path
             style="fill:#000000;stroke-width:0.41216904"
             inkscape:connector-curvature="0"
             d="m 236.08028,64.014904 c -0.18624,0.389316 -0.0729,1.352486 0.51948,2.114271 2.67922,4.199915 -1.23894,17.490915 -7.73816,26.676805 -3.6737,5.17944 -5.21796,10.70777 -5.07817,18.7161 0.11115,6.36808 0.53077,8.29106 3.22853,13.55232 1.69921,3.34838 3.37989,5.63541 3.85558,5.24105 0.37752,-0.48917 1.21222,-2.43405 1.75746,-4.37387 0.73146,-2.32914 3.56204,-6.04613 8.1159,-10.56533 9.1077,-9.03839 11.55066,-12.84513 12.5805,-20.19828 0.686,-4.93425 0.4526,-7.24655 -1.0907,-12.72099 -2.16935,-8.16594 -4.85195,-12.55882 -9.93827,-16.42717 -3.81516,-2.92538 -5.36736,-3.38087 -6.21215,-2.014906 z"
             id="path1048" />
          <path
             style="stroke:#000000;stroke-width:0;stroke-linecap:round;stroke-linejoin:round"
             inkscape:connector-curvature="0"
             d="m 236.08028,64.014904 c -0.18624,0.389316 -0.0729,1.352486 0.51948,2.114271 2.67922,4.199915 -1.23894,17.490915 -7.73816,26.676805 -3.6737,5.17944 -5.21796,10.70777 -5.07817,18.7161 0.11115,6.36808 0.53077,8.29106 3.22853,13.55232 1.69921,3.34838 3.37989,5.63541 3.85558,5.24105 0.37752,-0.48917 1.21222,-2.43405 1.75746,-4.37387 0.73146,-2.32914 3.56204,-6.04613 8.1159,-10.56533 9.1077,-9.03839 11.55066,-12.84513 12.5805,-20.19828 0.686,-4.93425 0.4526,-7.24655 -1.0907,-12.72099 -2.16935,-8.16594 -4.85195,-12.55882 -9.93827,-16.42717 -3.81516,-2.92538 -5.36736,-3.38087 -6.21215,-2.014906 z"
             id="path1050" />
        </g>
        <g
           style="fill:#e0d000;fill-opacity:1;stroke:none;stroke-width:0.41216904;stroke-dasharray:none;stroke-opacity:1"
           id="Graphic_105"
           transform="matrix(0.26458333,0,0,0.26458333,-159.54589,53.920497)">
          <path
             style="fill:#e0d000;fill-opacity:1;stroke-width:0.41216904"
             inkscape:connector-curvature="0"
             d="m 246.00557,74.1688 c 2.37461,3.33659 5.34449,13.12932 5.42701,17.85714 0.12968,7.42942 -1.55486,10.4508 -11.32113,20.46584 -5.3089,5.49752 -9.58677,9.23978 -9.98282,8.6676 -0.29956,-0.57386 -0.94248,-4.23022 -1.20282,-8.08629 -0.71701,-7.90175 0.80029,-14.97386 5.08709,-23.73507 4.0108,-7.98427 6.4896,-15.26619 6.43234,-18.54671 -0.0488,-2.7981 0.0476,-2.79978 1.71653,-1.18815 0.98171,0.94802 2.7555,3.04039 3.8438,4.56564 z"
             id="path1053" />
          <path
             style="fill:#e0d000;fill-opacity:1;stroke:#000000;stroke-width:0;stroke-linecap:round;stroke-linejoin:round"
             inkscape:connector-curvature="0"
             d="m 246.00557,74.1688 c 2.37461,3.33659 5.34449,13.12932 5.42701,17.85714 0.12968,7.42942 -1.55486,10.4508 -11.32113,20.46584 -5.3089,5.49752 -9.58677,9.23978 -9.98282,8.6676 -0.29956,-0.57386 -0.94248,-4.23022 -1.20282,-8.08629 -0.71701,-7.90175 0.80029,-14.97386 5.08709,-23.73507 4.0108,-7.98427 6.4896,-15.26619 6.43234,-18.54671 -0.0488,-2.7981 0.0476,-2.79978 1.71653,-1.18815 0.98171,0.94802 2.7555,3.04039 3.8438,4.56564 z"
             id="path1055" />
        </g>
        <g
           style="fill:none;fill-opacity:1;stroke:none;stroke-width:0.41216904;stroke-dasharray:none;stroke-opacity:1"
           id="Graphic_104"
           transform="matrix(0.26458333,0,0,0.26458333,-159.54589,53.920497)">
          <path
             style="fill:#000000;stroke-width:0.41216904"
             inkscape:connector-curvature="0"
             d="m 171.26359,66.40098 c -0.37416,0.68214 0.0286,1.640266 0.81062,2.20571 0.78199,0.56544 2.46436,2.94896 3.76079,5.339215 4.98766,9.274935 0.94774,21.120325 -13.94674,41.455515 -13.95488,18.87105 -21.51593,33.57685 -24.54888,47.81755 -1.96775,8.91376 -1.59745,13.54003 1.8498,23.03489 1.7211,4.6027 3.04447,8.53673 3.04784,8.7297 0.0185,1.06134 -11.93129,-8.9607 -15.27918,-12.76288 -4.72732,-5.41886 -6.13539,-8.67581 -6.73234,-15.22843 -0.82698,-8.67195 2.35516,-25.42465 5.55821,-29.92027 0.37584,-0.58566 1.66601,-4.08273 2.85633,-7.77109 3.75214,-11.74386 2.28323,-35.07494 -2.09113,-31.331 -0.6653,0.5907 -1.02935,1.85176 -0.72305,2.81157 1.23699,4.51463 -10.24294,21.41217 -20.4221,29.89017 -6.18233,5.22323 -12.41904,12.86029 -15.68489,19.28731 -3.35561,6.81466 -3.53679,7.49342 -3.38353,16.27365 0.05004,8.39596 0.36307,9.74171 3.56683,16.34535 1.8058,3.92561 5.78987,10.99821 8.6688,15.5807 2.88062,4.67896 5.27039,8.88393 5.27881,9.36636 0.0101,0.57892 0.61597,2.1126 1.41312,3.5464 0.70066,1.4355 1.71268,4.12027 2.13062,5.94677 0.72761,2.97928 0.0421,2.41215 -6.07476,-5.20231 -8.87742,-10.94431 -18.09868,-19.46974 -24.6205,-22.63743 -3.796635,-1.86403 -16.97936,-5.10848 -20.25988,-5.05123 -1.157835,0.0202 0.341664,2.98602 2.696064,5.16478 4.906826,4.64361 12.620866,20.82006 14.527716,30.53482 2.21315,10.67458 1.79977,14.63893 -3.53129,40.98417 -2.31159,11.33265 -2.27095,30.24895 0.17776,37.83093 3.98863,12.86344 12.73371,27.2846 21.0748,35.1498 7.26123,6.82236 21.45428,12.6551 33.24747,13.70394 4.2538,0.40832 8.32811,1.5919 12.61223,3.73696 7.8861,3.916 16.91319,6.84694 20.77263,6.77957 1.54377,-0.0269 4.45688,0.98387 6.41018,2.30099 6.2492,4.1376 19.49136,5.25767 30.93109,2.64511 6.24801,-1.46027 15.80903,-6.64597 19.50294,-10.66757 2.27355,-2.45257 3.13688,-2.7572 6.32765,-2.42682 5.12555,0.58612 15.41586,-1.52378 20.29118,-4.2148 2.29545,-1.19825 7.3368,-5.43641 11.32352,-9.2701 3.88856,-3.92848 7.30648,-7.17316 7.59593,-7.17821 2.60512,-0.0455 13.98759,-5.93857 17.98105,-9.38631 4.47085,-3.74562 12.49532,-14.0198 12.46164,-15.94952 -0.005,-0.28946 0.55533,-1.36091 1.31376,-2.14627 2.4581,-2.93837 5.35702,-13.7987 5.52522,-20.75074 0.22258,-9.36588 -1.26296,-17.06118 -4.77302,-24.62463 -4.41885,-9.86395 -8.4782,-26.7798 -8.65674,-37.00731 -0.12294,-7.04349 0.30559,-10.13945 2.13764,-15.76932 2.84285,-8.54297 7.64406,-15.47937 12.89353,-18.85253 4.58247,-2.87894 4.82647,-5.48911 0.49134,-5.02738 -12.52297,1.37678 -35.57399,13.36098 -39.88604,20.6749 -3.18621,5.46048 -5.49899,11.19526 -6.19846,15.35763 l -0.60467,4.06421 -2.6927,-4.9718 c -1.49612,-2.77284 -2.71796,-6.4191 -2.74995,-8.25233 -0.0573,-3.28053 2.28295,-12.97291 3.50695,-14.73156 0.47233,-0.58733 1.19875,-3.20593 1.82868,-5.82284 0.62824,-2.7134 1.53752,-5.91427 2.09286,-7.27518 1.19874,-3.20594 0.70381,-14.97217 -0.83611,-20.25364 -1.43163,-4.60775 -2.82793,-7.18929 -9.36778,-16.91971 -2.37629,-3.43307 -4.26679,-6.6816 -4.27352,-7.06754 -0.008,-0.48243 -0.59408,-0.85827 -1.36596,-0.8448 -1.15784,0.0202 -1.2358,1.08324 -0.77575,5.32189 1.11812,8.76338 -2.04452,15.57466 -15.80305,34.63531 -7.82307,10.75325 -12.79417,24.5452 -11.23237,31.081 l 0.7293,3.07576 -2.85535,-3.23169 c -3.73888,-4.08489 -5.53626,-7.52807 -7.68373,-14.4397 -3.27618,-10.75254 -2.40732,-16.26907 5.76514,-34.65314 8.17584,-18.19108 9.16813,-22.16553 8.29399,-33.53909 -0.63905,-8.96478 -3.8765,-17.49814 -10.82756,-28.66911 -4.86592,-7.82932 -17.93771,-21.30634 -23.68764,-24.487496 -5.06948,-2.903488 -9.04225,-3.799294 -9.88536,-2.336854 z"
             id="path1058" />
          <path
             style="stroke:#000000;stroke-width:0;stroke-linecap:round;stroke-linejoin:round"
             inkscape:connector-curvature="0"
             d="m 171.26359,66.40098 c -0.37416,0.68214 0.0286,1.640266 0.81062,2.20571 0.78199,0.56544 2.46436,2.94896 3.76079,5.339215 4.98766,9.274935 0.94774,21.120325 -13.94674,41.455515 -13.95488,18.87105 -21.51593,33.57685 -24.54888,47.81755 -1.96775,8.91376 -1.59745,13.54003 1.8498,23.03489 1.7211,4.6027 3.04447,8.53673 3.04784,8.7297 0.0185,1.06134 -11.93129,-8.9607 -15.27918,-12.76288 -4.72732,-5.41886 -6.13539,-8.67581 -6.73234,-15.22843 -0.82698,-8.67195 2.35516,-25.42465 5.55821,-29.92027 0.37584,-0.58566 1.66601,-4.08273 2.85633,-7.77109 3.75214,-11.74386 2.28323,-35.07494 -2.09113,-31.331 -0.6653,0.5907 -1.02935,1.85176 -0.72305,2.81157 1.23699,4.51463 -10.24294,21.41217 -20.4221,29.89017 -6.18233,5.22323 -12.41904,12.86029 -15.68489,19.28731 -3.35561,6.81466 -3.53679,7.49342 -3.38353,16.27365 0.05004,8.39596 0.36307,9.74171 3.56683,16.34535 1.8058,3.92561 5.78987,10.99821 8.6688,15.5807 2.88062,4.67896 5.27039,8.88393 5.27881,9.36636 0.0101,0.57892 0.61597,2.1126 1.41312,3.5464 0.70066,1.4355 1.71268,4.12027 2.13062,5.94677 0.72761,2.97928 0.0421,2.41215 -6.07476,-5.20231 -8.87742,-10.94431 -18.09868,-19.46974 -24.6205,-22.63743 -3.796635,-1.86403 -16.97936,-5.10848 -20.25988,-5.05123 -1.157835,0.0202 0.341664,2.98602 2.696064,5.16478 4.906826,4.64361 12.620866,20.82006 14.527716,30.53482 2.21315,10.67458 1.79977,14.63893 -3.53129,40.98417 -2.31159,11.33265 -2.27095,30.24895 0.17776,37.83093 3.98863,12.86344 12.73371,27.2846 21.0748,35.1498 7.26123,6.82236 21.45428,12.6551 33.24747,13.70394 4.2538,0.40832 8.32811,1.5919 12.61223,3.73696 7.8861,3.916 16.91319,6.84694 20.77263,6.77957 1.54377,-0.0269 4.45688,0.98387 6.41018,2.30099 6.2492,4.1376 19.49136,5.25767 30.93109,2.64511 6.24801,-1.46027 15.80903,-6.64597 19.50294,-10.66757 2.27355,-2.45257 3.13688,-2.7572 6.32765,-2.42682 5.12555,0.58612 15.41586,-1.52378 20.29118,-4.2148 2.29545,-1.19825 7.3368,-5.43641 11.32352,-9.2701 3.88856,-3.92848 7.30648,-7.17316 7.59593,-7.17821 2.60512,-0.0455 13.98759,-5.93857 17.98105,-9.38631 4.47085,-3.74562 12.49532,-14.0198 12.46164,-15.94952 -0.005,-0.28946 0.55533,-1.36091 1.31376,-2.14627 2.4581,-2.93837 5.35702,-13.7987 5.52522,-20.75074 0.22258,-9.36588 -1.26296,-17.06118 -4.77302,-24.62463 -4.41885,-9.86395 -8.4782,-26.7798 -8.65674,-37.00731 -0.12294,-7.04349 0.30559,-10.13945 2.13764,-15.76932 2.84285,-8.54297 7.64406,-15.47937 12.89353,-18.85253 4.58247,-2.87894 4.82647,-5.48911 0.49134,-5.02738 -12.52297,1.37678 -35.57399,13.36098 -39.88604,20.6749 -3.18621,5.46048 -5.49899,11.19526 -6.19846,15.35763 l -0.60467,4.06421 -2.6927,-4.9718 c -1.49612,-2.77284 -2.71796,-6.4191 -2.74995,-8.25233 -0.0573,-3.28053 2.28295,-12.97291 3.50695,-14.73156 0.47233,-0.58733 1.19875,-3.20593 1.82868,-5.82284 0.62824,-2.7134 1.53752,-5.91427 2.09286,-7.27518 1.19874,-3.20594 0.70381,-14.97217 -0.83611,-20.25364 -1.43163,-4.60775 -2.82793,-7.18929 -9.36778,-16.91971 -2.37629,-3.43307 -4.26679,-6.6816 -4.27352,-7.06754 -0.008,-0.48243 -0.59408,-0.85827 -1.36596,-0.8448 -1.15784,0.0202 -1.2358,1.08324 -0.77575,5.32189 1.11812,8.76338 -2.04452,15.57466 -15.80305,34.63531 -7.82307,10.75325 -12.79417,24.5452 -11.23237,31.081 l 0.7293,3.07576 -2.85535,-3.23169 c -3.73888,-4.08489 -5.53626,-7.52807 -7.68373,-14.4397 -3.27618,-10.75254 -2.40732,-16.26907 5.76514,-34.65314 8.17584,-18.19108 9.16813,-22.16553 8.29399,-33.53909 -0.63905,-8.96478 -3.8765,-17.49814 -10.82756,-28.66911 -4.86592,-7.82932 -17.93771,-21.30634 -23.68764,-24.487496 -5.06948,-2.903488 -9.04225,-3.799294 -9.88536,-2.336854 z"
             id="path1060" />
        </g>
        <g
           style="fill:#e0d000;fill-opacity:1;stroke:none;stroke-width:0.41216904;stroke-dasharray:none;stroke-opacity:1"
           id="Graphic_103"
           transform="matrix(0.26458333,0,0,0.26458333,-159.54589,53.920497)">
          <path
             style="fill:#e0d000;fill-opacity:1;stroke-width:0.41216904"
             inkscape:connector-curvature="0"
             d="m 181.69538,72.39588 c 8.01458,5.74754 19.92854,19.24477 23.73311,27.09262 0.90037,1.81808 2.90251,5.93329 4.40538,9.09207 2.60126,5.26294 2.8195,6.70686 2.98791,16.35546 0.20547,11.77129 -0.43288,13.90577 -9.16404,33.45777 -5.85463,12.93873 -7.11785,17.97958 -6.23313,24.43067 0.99469,7.22129 6.43399,20.25243 10.17624,24.53031 9.64762,10.83436 22.31685,39.95389 25.63463,58.61996 3.11472,18.09053 0.0661,36.96424 -10.71075,66.49303 -4.23963,11.46283 -7.05505,16.04818 -12.6753,20.29643 -6.00114,4.54447 -17.70675,8.5129 -25.52212,8.6493 -6.07861,0.1061 -17.99861,-2.6778 -20.25651,-4.85824 -0.68551,-0.56712 -2.34767,-1.79281 -3.90828,-2.73072 -13.95244,-8.63588 -20.55967,-22.22574 -18.72666,-38.85837 1.5077,-13.15241 1.78369,-13.92937 14.00736,-37.98202 7.27497,-14.50778 10.59569,-28.85002 9.40852,-41.56933 -0.86066,-10.60166 -3.97804,-17.7859 -13.27677,-30.74969 -5.93399,-8.19673 -11.25996,-20.26471 -12.45603,-27.96507 -1.20451,-8.18278 1.57267,-20.48871 7.44245,-32.55908 2.7021,-5.54854 12.74821,-21.64893 16.99745,-27.03145 11.23258,-14.48034 16.43706,-25.96 16.27033,-35.51211 -0.059,-3.37701 -0.70187,-7.033375 -1.59887,-8.65848 -1.89555,-3.53798 -0.93237,-3.65131 3.46508,-0.54306 z"
             id="path1063" />
          <path
             style="fill:#e0d000;fill-opacity:1;stroke:#000000;stroke-width:0;stroke-linecap:round;stroke-linejoin:round"
             inkscape:connector-curvature="0"
             d="m 181.69538,72.39588 c 8.01458,5.74754 19.92854,19.24477 23.73311,27.09262 0.90037,1.81808 2.90251,5.93329 4.40538,9.09207 2.60126,5.26294 2.8195,6.70686 2.98791,16.35546 0.20547,11.77129 -0.43288,13.90577 -9.16404,33.45777 -5.85463,12.93873 -7.11785,17.97958 -6.23313,24.43067 0.99469,7.22129 6.43399,20.25243 10.17624,24.53031 9.64762,10.83436 22.31685,39.95389 25.63463,58.61996 3.11472,18.09053 0.0661,36.96424 -10.71075,66.49303 -4.23963,11.46283 -7.05505,16.04818 -12.6753,20.29643 -6.00114,4.54447 -17.70675,8.5129 -25.52212,8.6493 -6.07861,0.1061 -17.99861,-2.6778 -20.25651,-4.85824 -0.68551,-0.56712 -2.34767,-1.79281 -3.90828,-2.73072 -13.95244,-8.63588 -20.55967,-22.22574 -18.72666,-38.85837 1.5077,-13.15241 1.78369,-13.92937 14.00736,-37.98202 7.27497,-14.50778 10.59569,-28.85002 9.40852,-41.56933 -0.86066,-10.60166 -3.97804,-17.7859 -13.27677,-30.74969 -5.93399,-8.19673 -11.25996,-20.26471 -12.45603,-27.96507 -1.20451,-8.18278 1.57267,-20.48871 7.44245,-32.55908 2.7021,-5.54854 12.74821,-21.64893 16.99745,-27.03145 11.23258,-14.48034 16.43706,-25.96 16.27033,-35.51211 -0.059,-3.37701 -0.70187,-7.033375 -1.59887,-8.65848 -1.89555,-3.53798 -0.93237,-3.65131 3.46508,-0.54306 z"
             id="path1065" />
        </g>
        <g
           style="fill:#ff0000;fill-opacity:1;stroke:none;stroke-width:0.41216904;stroke-dasharray:none;stroke-opacity:1"
           id="Graphic_102"
           transform="matrix(0.26458333,0,0,0.26458333,-159.54589,53.920497)">
          <path
             style="fill:#ff0000;stroke-width:0.41216904"
             inkscape:connector-curvature="0"
             d="m 128.87827,115.302 c -0.23894,2.89963 -2.77718,12.30593 -5.71652,20.85059 -5.23192,15.43727 -5.22855,15.63024 -5.03656,26.62964 0.0669,9.36083 0.39676,11.67144 2.08923,14.63387 2.58779,4.49106 10.44814,12.46115 17.48776,17.64661 2.935,2.26514 6.66042,5.57815 8.04322,7.38781 3.6525,4.6655 12.22987,20.53733 13.96613,26.0084 2.54857,7.77327 1.80047,25.73818 -1.40643,35.54222 -1.55943,4.65996 -5.93259,14.00176 -8.93593,18.87996 -3.84477,6.43712 -8.75306,18.29767 -9.99944,24.3034 -1.23965,6.39164 -0.82437,19.1244 0.92199,25.1744 1.95955,7.20445 4.83848,11.78694 11.40915,17.7527 5.10316,4.83323 5.20302,5.0245 2.4913,4.49276 -19.46441,-3.7139 -37.19111,-18.46086 -41.13041,-34.02761 -2.59404,-10.37838 -3.10413,-23.01299 -1.56948,-34.62163 3.17757,-22.54354 2.13937,-54.3755 -2.20104,-70.80387 -1.85801,-6.91667 -4.05985,-11.41446 -10.00396,-20.19012 -7.72632,-11.35047 -10.86054,-19.49957 -10.9291,-28.95688 -0.09383,-10.9046 3.1855,-16.55974 20.43101,-34.90913 10.32835,-10.99001 15.14808,-16.86506 16.62954,-20.46199 2.04522,-4.47541 2.23314,-4.76823 3.0404,-2.7555 0.50264,1.14941 0.65807,4.52474 0.41914,7.42437 z"
             id="path1068" />
          <path
             style="fill:#ff0000;stroke:#000000;stroke-width:0;stroke-linecap:round;stroke-linejoin:round"
             inkscape:connector-curvature="0"
             d="m 128.87827,115.302 c -0.23894,2.89963 -2.77718,12.30593 -5.71652,20.85059 -5.23192,15.43727 -5.22855,15.63024 -5.03656,26.62964 0.0669,9.36083 0.39676,11.67144 2.08923,14.63387 2.58779,4.49106 10.44814,12.46115 17.48776,17.64661 2.935,2.26514 6.66042,5.57815 8.04322,7.38781 3.6525,4.6655 12.22987,20.53733 13.96613,26.0084 2.54857,7.77327 1.80047,25.73818 -1.40643,35.54222 -1.55943,4.65996 -5.93259,14.00176 -8.93593,18.87996 -3.84477,6.43712 -8.75306,18.29767 -9.99944,24.3034 -1.23965,6.39164 -0.82437,19.1244 0.92199,25.1744 1.95955,7.20445 4.83848,11.78694 11.40915,17.7527 5.10316,4.83323 5.20302,5.0245 2.4913,4.49276 -19.46441,-3.7139 -37.19111,-18.46086 -41.13041,-34.02761 -2.59404,-10.37838 -3.10413,-23.01299 -1.56948,-34.62163 3.17757,-22.54354 2.13937,-54.3755 -2.20104,-70.80387 -1.85801,-6.91667 -4.05985,-11.41446 -10.00396,-20.19012 -7.72632,-11.35047 -10.86054,-19.49957 -10.9291,-28.95688 -0.09383,-10.9046 3.1855,-16.55974 20.43101,-34.90913 10.32835,-10.99001 15.14808,-16.86506 16.62954,-20.46199 2.04522,-4.47541 2.23314,-4.76823 3.0404,-2.7555 0.50264,1.14941 0.65807,4.52474 0.41914,7.42437 z"
             id="path1070" />
        </g>
        <g
           style="fill:#ff0000;fill-opacity:1;stroke:none;stroke-width:0.41216904;stroke-dasharray:none;stroke-opacity:1"
           id="Graphic_101"
           transform="matrix(0.26458333,0,0,0.26458333,-159.54589,53.920497)">
          <path
             style="fill:#ff0000;stroke-width:0.41216904"
             inkscape:connector-curvature="0"
             d="m 249.6243,154.30992 c 5.68663,10.61395 5.18302,20.46731 -2.10254,39.89756 -1.10731,2.91479 -2.27742,7.76098 -2.41986,10.65892 -0.39317,5.12219 -0.18504,5.9872 4.70108,14.97435 2.79424,5.25957 7.26242,12.42023 9.83169,15.84995 7.60625,10.00134 9.80305,14.20967 12.07733,22.85636 3.62457,14.12449 2.75424,36.14519 -1.77147,47.80604 -2.21798,5.6366 -11.05188,19.30295 -16.35236,25.2829 -6.33994,7.2528 -13.68515,12.2068 -20.50702,13.96663 -9.5117,2.4824 -14.73541,1.80147 -12.18755,-1.52453 1.13257,-1.4675 10.58053,-29.7184 12.02157,-35.631 3.49686,-15.31047 4.59216,-35.5013 2.67015,-46.08444 -1.80532,-9.427 -7.17338,-23.90712 -14.18171,-38.35861 -7.50591,-15.31145 -8.88823,-22.62249 -5.86755,-32.03721 2.37558,-7.66618 3.967,-10.4929 12.73474,-22.42082 7.06802,-9.77492 9.6888,-14.4534 11.50567,-20.95164 0.63835,-2.13448 1.36983,-4.46362 1.54933,-5.23888 0.55027,-1.65036 3.61376,2.44633 8.2985,10.95442 z"
             id="path1073" />
          <path
             style="fill:#ff0000;stroke:#000000;stroke-width:0;stroke-linecap:round;stroke-linejoin:round"
             inkscape:connector-curvature="0"
             d="m 249.6243,154.30992 c 5.68663,10.61395 5.18302,20.46731 -2.10254,39.89756 -1.10731,2.91479 -2.27742,7.76098 -2.41986,10.65892 -0.39317,5.12219 -0.18504,5.9872 4.70108,14.97435 2.79424,5.25957 7.26242,12.42023 9.83169,15.84995 7.60625,10.00134 9.80305,14.20967 12.07733,22.85636 3.62457,14.12449 2.75424,36.14519 -1.77147,47.80604 -2.21798,5.6366 -11.05188,19.30295 -16.35236,25.2829 -6.33994,7.2528 -13.68515,12.2068 -20.50702,13.96663 -9.5117,2.4824 -14.73541,1.80147 -12.18755,-1.52453 1.13257,-1.4675 10.58053,-29.7184 12.02157,-35.631 3.49686,-15.31047 4.59216,-35.5013 2.67015,-46.08444 -1.80532,-9.427 -7.17338,-23.90712 -14.18171,-38.35861 -7.50591,-15.31145 -8.88823,-22.62249 -5.86755,-32.03721 2.37558,-7.66618 3.967,-10.4929 12.73474,-22.42082 7.06802,-9.77492 9.6888,-14.4534 11.50567,-20.95164 0.63835,-2.13448 1.36983,-4.46362 1.54933,-5.23888 0.55027,-1.65036 3.61376,2.44633 8.2985,10.95442 z"
             id="path1075" />
        </g>
        <g
           style="fill:#e0d000;fill-opacity:1;stroke:none;stroke-width:0.41216904;stroke-dasharray:none;stroke-opacity:1"
           id="Graphic_100"
           transform="matrix(0.26458333,0,0,0.26458333,-159.54589,53.920497)">
          <path
             style="fill:#e0d000;fill-opacity:1;stroke-width:0.41216904"
             inkscape:connector-curvature="0"
             d="m 295.41684,184.49205 c -0.65856,0.97665 -2.73914,3.42585 -4.43884,5.57885 -8.03964,9.40582 -11.14213,25.19198 -8.35223,41.26135 1.39073,7.79347 7.12573,26.70689 8.81146,29.28339 1.18815,1.71653 2.10873,4.69244 3.36087,10.07546 0.84263,4.03892 0.46413,15.53086 -0.72282,19.4122 -3.27813,11.253 -11.36541,23.4586 -18.90022,28.6089 -4.57576,3.2649 -10.88826,6.56008 -12.43203,6.58703 -0.28945,0.005 0.92613,-2.23603 2.71389,-4.87313 4.60824,-6.93304 8.50234,-16.07346 9.83173,-22.85274 0.61983,-3.19583 1.04717,-11.88966 0.91749,-19.3191 -0.32504,-18.62179 -2.08824,-25.63664 -10.47602,-41.70481 -5.49535,-10.7138 -6.70708,-13.78115 -7.08242,-18.69688 -0.84383,-9.63681 3.46485,-17.1437 13.86393,-24.08129 6.58007,-4.55457 10.69359,-6.65319 16.73347,-8.97848 6.42414,-2.4285 7.86975,-2.55024 6.17174,-0.30075 z"
             id="path1078" />
          <path
             style="fill:#e0d000;fill-opacity:1;stroke:#000000;stroke-width:0;stroke-linecap:round;stroke-linejoin:round"
             inkscape:connector-curvature="0"
             d="m 295.41684,184.49205 c -0.65856,0.97665 -2.73914,3.42585 -4.43884,5.57885 -8.03964,9.40582 -11.14213,25.19198 -8.35223,41.26135 1.39073,7.79347 7.12573,26.70689 8.81146,29.28339 1.18815,1.71653 2.10873,4.69244 3.36087,10.07546 0.84263,4.03892 0.46413,15.53086 -0.72282,19.4122 -3.27813,11.253 -11.36541,23.4586 -18.90022,28.6089 -4.57576,3.2649 -10.88826,6.56008 -12.43203,6.58703 -0.28945,0.005 0.92613,-2.23603 2.71389,-4.87313 4.60824,-6.93304 8.50234,-16.07346 9.83173,-22.85274 0.61983,-3.19583 1.04717,-11.88966 0.91749,-19.3191 -0.32504,-18.62179 -2.08824,-25.63664 -10.47602,-41.70481 -5.49535,-10.7138 -6.70708,-13.78115 -7.08242,-18.69688 -0.84383,-9.63681 3.46485,-17.1437 13.86393,-24.08129 6.58007,-4.55457 10.69359,-6.65319 16.73347,-8.97848 6.42414,-2.4285 7.86975,-2.55024 6.17174,-0.30075 z"
             id="path1080" />
        </g>
        <g
           style="fill:#e0d000;fill-opacity:1;stroke:none;stroke-width:0.41216904;stroke-dasharray:none;stroke-opacity:1"
           id="Graphic_99"
           transform="matrix(0.26458333,0,0,0.26458333,-159.54589,53.920497)">
          <path
             style="fill:#e0d000;fill-opacity:1;stroke-width:0.41216904"
             inkscape:connector-curvature="0"
             d="m 77.53583,192.92791 c 5.84979,3.37245 17.92472,15.03307 23.85198,22.84387 1.97856,2.76442 4.95567,7.4417 6.45685,10.50399 l 2.70449,5.6472 0.29087,22.19346 c 0.3082,17.65694 0.0301,23.83877 -1.20623,30.4234 -1.33277,6.58631 -1.45332,10.73857 -0.89223,20.76637 1.0801,17.64348 3.70831,24.4502 13.44568,34.8969 l 4.6241,5.03462 -3.77306,-0.51322 c -6.77254,-0.94347 -16.29048,-4.3484 -22.43647,-8.10174 C 79.82462,324.05237 68.230216,295.6862 72.47299,267.8157 c 0.780795,-5.03242 2.16794,-14.03256 3.12824,-19.84025 3.74638,-23.13257 0.57777,-44.31065 -8.50778,-56.11996 l -2.37124,-3.14362 3.77474,0.60973 c 2.03126,0.25408 6.11399,1.9201 9.03888,3.60631 z"
             id="path1083" />
          <path
             style="fill:#e0d000;fill-opacity:1;stroke:#000000;stroke-width:0;stroke-linecap:round;stroke-linejoin:round"
             inkscape:connector-curvature="0"
             d="m 77.53583,192.92791 c 5.84979,3.37245 17.92472,15.03307 23.85198,22.84387 1.97856,2.76442 4.95567,7.4417 6.45685,10.50399 l 2.70449,5.6472 0.29087,22.19346 c 0.3082,17.65694 0.0301,23.83877 -1.20623,30.4234 -1.33277,6.58631 -1.45332,10.73857 -0.89223,20.76637 1.0801,17.64348 3.70831,24.4502 13.44568,34.8969 l 4.6241,5.03462 -3.77306,-0.51322 c -6.77254,-0.94347 -16.29048,-4.3484 -22.43647,-8.10174 C 79.82462,324.05237 68.230216,295.6862 72.47299,267.8157 c 0.780795,-5.03242 2.16794,-14.03256 3.12824,-19.84025 3.74638,-23.13257 0.57777,-44.31065 -8.50778,-56.11996 l -2.37124,-3.14362 3.77474,0.60973 c 2.03126,0.25408 6.11399,1.9201 9.03888,3.60631 z"
             id="path1085" />
        </g>
        <g
           style="fill:none;fill-opacity:1;stroke:none;stroke-width:0.41216904;stroke-dasharray:none;stroke-opacity:1"
           id="Graphic_98"
           transform="matrix(0.26458333,0,0,0.26458333,-159.54589,53.920497)">
          <path
             style="fill:#000000;stroke-width:0.41216904"
             inkscape:connector-curvature="0"
             d="m 88.27717,106.06961 c -0.38089,0.29619 -0.6434,1.84502 -0.61646,3.3888 0.05726,3.28052 -7.04277,11.2222 -16.18753,18.1379 -8.85699,6.81416 -11.980396,10.34323 -13.153874,14.99645 -1.446096,5.62314 -0.446356,13.13389 2.242974,17.91271 2.48962,4.39626 12.70606,14.64159 14.4428,14.61127 0.675405,-0.0118 1.26106,0.36406 1.27116,0.94296 0.0084,0.48244 0.88522,0.94971 1.94656,0.93119 2.41215,-0.0421 2.39868,-0.81399 0.233885,-3.18909 -1.277895,-1.32891 -1.797375,-3.44319 -1.881585,-8.26748 -0.11116,-6.36808 -0.01636,-6.46625 6.56083,-16.71517 3.66527,-5.66187 7.40682,-12.48325 8.2314,-15.00705 1.64244,-5.43353 1.7399,-16.43798 0.06981,-23.64749 -1.0457,-4.61448 -1.83443,-5.56587 -3.15997,-4.095 z"
             id="path1088" />
          <path
             style="stroke:#000000;stroke-width:0;stroke-linecap:round;stroke-linejoin:round"
             inkscape:connector-curvature="0"
             d="m 88.27717,106.06961 c -0.38089,0.29619 -0.6434,1.84502 -0.61646,3.3888 0.05726,3.28052 -7.04277,11.2222 -16.18753,18.1379 -8.85699,6.81416 -11.980396,10.34323 -13.153874,14.99645 -1.446096,5.62314 -0.446356,13.13389 2.242974,17.91271 2.48962,4.39626 12.70606,14.64159 14.4428,14.61127 0.675405,-0.0118 1.26106,0.36406 1.27116,0.94296 0.0084,0.48244 0.88522,0.94971 1.94656,0.93119 2.41215,-0.0421 2.39868,-0.81399 0.233885,-3.18909 -1.277895,-1.32891 -1.797375,-3.44319 -1.881585,-8.26748 -0.11116,-6.36808 -0.01636,-6.46625 6.56083,-16.71517 3.66527,-5.66187 7.40682,-12.48325 8.2314,-15.00705 1.64244,-5.43353 1.7399,-16.43798 0.06981,-23.64749 -1.0457,-4.61448 -1.83443,-5.56587 -3.15997,-4.095 z"
             id="path1090" />
        </g>
        <g
           style="fill:#ff0000;fill-opacity:1;stroke:none;stroke-width:0.41216904;stroke-dasharray:none;stroke-opacity:1"
           id="Graphic_97"
           transform="matrix(0.26458333,0,0,0.26458333,-159.54589,53.920497)">
          <path
             style="fill:#ff0000;stroke-width:0.41216904"
             inkscape:connector-curvature="0"
             d="m 90.75066,120.60026 c 0.08757,5.01727 -3.51875,14.05614 -8.59932,21.57651 -5.271845,7.62023 -8.40416,16.16825 -8.38276,22.92396 l 0.0096,6.0803 -4.61231,-4.3592 c -6.28121,-5.97083 -9.09397,-12.29175 -8.34012,-18.86796 0.33879,-2.70834 1.52574,-6.58967 2.84286,-8.54297 1.97063,-3.2194 9.58003,-9.62573 11.50975,-9.65941 1.44729,-0.0253 12.5509,-10.83577 13.09613,-12.77559 1.00408,-3.29906 2.39194,-1.19994 2.47615,3.62436 z"
             id="path1093" />
          <path
             style="fill:#ff0000;stroke:#000000;stroke-width:0;stroke-linecap:round;stroke-linejoin:round"
             inkscape:connector-curvature="0"
             d="m 90.75066,120.60026 c 0.08757,5.01727 -3.51875,14.05614 -8.59932,21.57651 -5.271845,7.62023 -8.40416,16.16825 -8.38276,22.92396 l 0.0096,6.0803 -4.61231,-4.3592 c -6.28121,-5.97083 -9.09397,-12.29175 -8.34012,-18.86796 0.33879,-2.70834 1.52574,-6.58967 2.84286,-8.54297 1.97063,-3.2194 9.58003,-9.62573 11.50975,-9.65941 1.44729,-0.0253 12.5509,-10.83577 13.09613,-12.77559 1.00408,-3.29906 2.39194,-1.19994 2.47615,3.62436 z"
             id="path1095" />
        </g>
        <g
           style="fill:none;fill-opacity:1;stroke:none;stroke-width:0.41216904;stroke-dasharray:none;stroke-opacity:1"
           id="Graphic_96"
           transform="matrix(0.26458333,0,0,0.26458333,-159.54589,53.920497)">
          <path
             style="fill:#000000;stroke-width:0.41216904"
             inkscape:connector-curvature="0"
             d="m 300.40313,132.8658 c -3.46051,6.3339 -7.25933,9.87476 -19.47647,17.71273 -13.74241,8.92626 -15.90432,12.24552 -16.2643,24.7988 -0.24953,7.8221 -0.0363,8.97657 1.31446,8.95299 0.86838,-0.0152 1.53872,-0.31641 1.5303,-0.79884 -0.0438,-2.50863 5.49178,-6.07981 13.83384,-9.2174 11.60574,-4.15971 16.83501,-8.69069 21.49258,-18.32701 2.88496,-6.13083 3.05773,-7.29203 2.90952,-15.7828 -0.0876,-5.01727 -0.65758,-10.02612 -1.25336,-10.98087 -0.99516,-1.71991 -1.37436,-1.32723 -4.08657,3.6424 z"
             id="path1098" />
          <path
             style="stroke:#000000;stroke-width:0;stroke-linecap:round;stroke-linejoin:round"
             inkscape:connector-curvature="0"
             d="m 300.40313,132.8658 c -3.46051,6.3339 -7.25933,9.87476 -19.47647,17.71273 -13.74241,8.92626 -15.90432,12.24552 -16.2643,24.7988 -0.24953,7.8221 -0.0363,8.97657 1.31446,8.95299 0.86838,-0.0152 1.53872,-0.31641 1.5303,-0.79884 -0.0438,-2.50863 5.49178,-6.07981 13.83384,-9.2174 11.60574,-4.15971 16.83501,-8.69069 21.49258,-18.32701 2.88496,-6.13083 3.05773,-7.29203 2.90952,-15.7828 -0.0876,-5.01727 -0.65758,-10.02612 -1.25336,-10.98087 -0.99516,-1.71991 -1.37436,-1.32723 -4.08657,3.6424 z"
             id="path1100" />
        </g>
        <g
           style="fill:#ff0000;fill-opacity:1;stroke:none;stroke-width:0.41216904;stroke-dasharray:none;stroke-opacity:1"
           id="Graphic_95"
           transform="matrix(0.26458333,0,0,0.26458333,-159.54589,53.920497)">
          <path
             style="fill:#ff0000;stroke-width:0.41216904"
             inkscape:connector-curvature="0"
             d="m 301.87927,151.08144 c -1.91505,6.40344 -2.94439,8.2552 -7.12073,12.28523 -3.89024,3.832 -6.56658,5.32645 -13.95054,8.06125 -4.98695,1.82433 -10.25326,4.23262 -11.68202,5.31923 -3.1453,2.27475 -3.25526,1.50455 -0.96438,-5.48455 2.66168,-7.8642 4.8354,-10.50806 15.50877,-18.31908 11.24723,-8.11058 15.42693,-11.94764 17.57539,-16.03878 l 1.49324,-2.92153 0.75962,4.81251 c 0.44994,3.65973 0.11452,6.56105 -1.61935,12.28572 z"
             id="path1103" />
          <path
             style="fill:#ff0000;stroke:#000000;stroke-width:0;stroke-linecap:round;stroke-linejoin:round"
             inkscape:connector-curvature="0"
             d="m 301.87927,151.08144 c -1.91505,6.40344 -2.94439,8.2552 -7.12073,12.28523 -3.89024,3.832 -6.56658,5.32645 -13.95054,8.06125 -4.98695,1.82433 -10.25326,4.23262 -11.68202,5.31923 -3.1453,2.27475 -3.25526,1.50455 -0.96438,-5.48455 2.66168,-7.8642 4.8354,-10.50806 15.50877,-18.31908 11.24723,-8.11058 15.42693,-11.94764 17.57539,-16.03878 l 1.49324,-2.92153 0.75962,4.81251 c 0.44994,3.65973 0.11452,6.56105 -1.61935,12.28572 z"
             id="path1105" />
        </g>
      </g>
      <g
         style="stroke-width:0.98781639"
         transform="matrix(1.0123064,0,0,1.0123614,-0.27452582,2.0804843)"
         id="g1863">
        <path
           style="fill:#228b22;fill-opacity:1;stroke:#000000;stroke-width:0.98781639;stroke-miterlimit:4;stroke-dasharray:none"
           d="M 0.58997582,0.39134741 V 180.49721 v 18.761 c 7.86272778,-9.3805 7.86257178,-9.3805 22.46478018,-18.761 v -22.51304 h 22.464781 v 22.51304 c 7.301104,9.3805 7.301416,9.3805 11.23278,18.761 3.931364,-9.3805 3.930896,-9.3805 11.232001,-18.761 v -22.51304 h 22.46478 v 22.51304 c 7.301104,9.3805 7.301416,9.3805 11.232782,18.761 3.93136,-9.3805 3.93167,-9.3805 11.23278,-18.761 v -22.51304 h 22.46478 v 22.51304 c 7.3011,9.3805 7.30064,9.3805 11.232,18.761 3.93136,-9.3805 3.93168,-9.3805 11.23278,-18.761 V 157.98417 H 180.309 v 22.51304 c 14.60221,9.3805 14.60205,9.3805 22.46478,18.761 V 180.49721 0.39134741 H 101.68188 Z M 23.054756,22.905153 H 45.519537 V 45.418196 H 23.054756 Z m 44.929562,0 h 22.46478 v 22.513043 h -22.46478 z m 44.930342,0 h 22.46478 v 22.513043 h -22.46478 z m 44.92956,0 H 180.309 V 45.418196 H 157.84422 Z M 23.054756,67.931239 H 45.519537 V 90.444281 H 23.054756 Z m 44.929562,0 h 22.46478 v 22.513042 h -22.46478 z m 44.930342,0 h 22.46478 v 22.513042 h -22.46478 z m 44.92956,0 H 180.309 V 90.444281 H 157.84422 Z M 23.054756,112.95732 h 22.464781 v 22.51381 H 23.054756 Z m 44.929562,0 h 22.46478 v 22.51381 h -22.46478 z m 44.930342,0 h 22.46478 v 22.51381 h -22.46478 z m 44.92956,0 H 180.309 v 22.51381 h -22.46478 z"
           id="path913"
           inkscape:connector-curvature="0" />
        <path
           style="stroke:#000000;stroke-width:0.4939082;stroke-miterlimit:4;stroke-dasharray:none"
           inkscape:connector-curvature="0"
           d="M 23.054556,22.904824 0.58962022,0.39163017"
           id="path917" />
        <path
           style="stroke:#000000;stroke-width:0.4939082;stroke-miterlimit:4;stroke-dasharray:none"
           inkscape:connector-curvature="0"
           d="M 45.519492,22.904824 56.75196,11.648227"
           id="path919" />
        <path
           style="stroke:#000000;stroke-width:0.4939082;stroke-miterlimit:4;stroke-dasharray:none"
           inkscape:connector-curvature="0"
           d="M 23.054556,45.418018 11.822088,56.674615"
           id="path921" />
        <path
           style="stroke:#000000;stroke-width:0.4939082;stroke-miterlimit:4;stroke-dasharray:none"
           inkscape:connector-curvature="0"
           d="M 67.984428,22.904824 56.75196,11.648227"
           id="path923" />
        <path
           style="stroke:#000000;stroke-width:0.4939082;stroke-miterlimit:4;stroke-dasharray:none"
           inkscape:connector-curvature="0"
           d="M 90.449364,22.904824 101.68183,11.648227"
           id="path925" />
        <path
           style="stroke:#000000;stroke-width:0.4939082;stroke-miterlimit:4;stroke-dasharray:none"
           inkscape:connector-curvature="0"
           d="M 112.9143,22.904824 101.68183,11.648227"
           id="path927" />
        <path
           style="stroke:#000000;stroke-width:0.4939082;stroke-miterlimit:4;stroke-dasharray:none"
           inkscape:connector-curvature="0"
           d="M 135.37924,22.904824 146.6117,11.648227"
           id="path929" />
        <path
           style="stroke:#000000;stroke-width:0.4939082;stroke-miterlimit:4;stroke-dasharray:none"
           inkscape:connector-curvature="0"
           d="M 157.84417,22.904824 146.6117,11.648227"
           id="path931" />
        <path
           style="stroke:#000000;stroke-width:0.4939082;stroke-miterlimit:4;stroke-dasharray:none"
           inkscape:connector-curvature="0"
           d="m 180.30911,45.418018 11.23247,11.256597"
           id="path933" />
        <path
           style="stroke:#000000;stroke-width:0.4939082;stroke-miterlimit:4;stroke-dasharray:none"
           inkscape:connector-curvature="0"
           d="M 180.30911,22.904824 202.77404,0.39163017"
           id="path935" />
        <path
           style="stroke:#000000;stroke-width:0.4939082;stroke-miterlimit:4;stroke-dasharray:none"
           inkscape:connector-curvature="0"
           d="M 23.054556,67.931212 11.822088,56.674615"
           id="path937" />
        <path
           style="stroke:#000000;stroke-width:0.4939082;stroke-miterlimit:4;stroke-dasharray:none"
           inkscape:connector-curvature="0"
           d="M 45.519492,67.931212 67.984428,45.418018"
           id="path939" />
        <path
           style="stroke:#000000;stroke-width:0.4939082;stroke-miterlimit:4;stroke-dasharray:none"
           inkscape:connector-curvature="0"
           d="M 23.054556,90.444406 11.822088,101.701"
           id="path941" />
        <path
           style="stroke:#000000;stroke-width:0.4939082;stroke-miterlimit:4;stroke-dasharray:none"
           inkscape:connector-curvature="0"
           d="M 67.984428,67.931212 45.519492,45.418018"
           id="path943" />
        <path
           style="stroke:#000000;stroke-width:0.4939082;stroke-miterlimit:4;stroke-dasharray:none"
           inkscape:connector-curvature="0"
           d="M 90.449364,67.931212 112.9143,45.418018"
           id="path945" />
        <path
           style="stroke:#000000;stroke-width:0.4939082;stroke-miterlimit:4;stroke-dasharray:none"
           inkscape:connector-curvature="0"
           d="M 112.9143,67.931212 90.449364,45.418018"
           id="path947" />
        <path
           style="stroke:#000000;stroke-width:0.4939082;stroke-miterlimit:4;stroke-dasharray:none"
           inkscape:connector-curvature="0"
           d="M 135.37924,67.931212 157.84417,45.418018"
           id="path949" />
        <path
           style="stroke:#000000;stroke-width:0.4939082;stroke-miterlimit:4;stroke-dasharray:none"
           inkscape:connector-curvature="0"
           d="M 157.84417,67.931212 135.37924,45.418018"
           id="path951" />
        <path
           style="stroke:#000000;stroke-width:0.4939082;stroke-miterlimit:4;stroke-dasharray:none"
           inkscape:connector-curvature="0"
           d="M 180.30911,90.444406 191.54158,101.701"
           id="path953" />
        <path
           style="stroke:#000000;stroke-width:0.4939082;stroke-miterlimit:4;stroke-dasharray:none"
           inkscape:connector-curvature="0"
           d="M 180.30911,67.931212 191.54158,56.674615"
           id="path955" />
        <path
           style="stroke:#000000;stroke-width:0.4939082;stroke-miterlimit:4;stroke-dasharray:none"
           inkscape:connector-curvature="0"
           d="M 23.054556,112.9576 11.822088,101.701"
           id="path957" />
        <path
           style="stroke:#000000;stroke-width:0.4939082;stroke-miterlimit:4;stroke-dasharray:none"
           inkscape:connector-curvature="0"
           d="M 45.519492,112.9576 67.984428,90.444406"
           id="path959" />
        <path
           style="stroke:#000000;stroke-width:0.4939082;stroke-miterlimit:4;stroke-dasharray:none"
           inkscape:connector-curvature="0"
           d="m 23.054556,135.47079 -11.232468,11.2566"
           id="path961" />
        <path
           style="stroke:#000000;stroke-width:0.4939082;stroke-miterlimit:4;stroke-dasharray:none"
           inkscape:connector-curvature="0"
           d="M 67.984428,112.9576 45.519492,90.444406"
           id="path963" />
        <path
           style="stroke:#000000;stroke-width:0.4939082;stroke-miterlimit:4;stroke-dasharray:none"
           inkscape:connector-curvature="0"
           d="M 90.449364,112.9576 112.9143,90.444406"
           id="path965" />
        <path
           style="stroke:#000000;stroke-width:0.4939082;stroke-miterlimit:4;stroke-dasharray:none"
           inkscape:connector-curvature="0"
           d="M 112.9143,112.9576 90.449364,90.444406"
           id="path967" />
        <path
           style="stroke:#000000;stroke-width:0.4939082;stroke-miterlimit:4;stroke-dasharray:none"
           inkscape:connector-curvature="0"
           d="M 135.37924,112.9576 157.84417,90.444406"
           id="path969" />
        <path
           style="stroke:#000000;stroke-width:0.4939082;stroke-miterlimit:4;stroke-dasharray:none"
           inkscape:connector-curvature="0"
           d="M 157.84417,112.9576 135.37924,90.444406"
           id="path971" />
        <path
           style="stroke:#000000;stroke-width:0.4939082;stroke-miterlimit:4;stroke-dasharray:none"
           inkscape:connector-curvature="0"
           d="m 180.30911,135.47079 11.23247,11.2566"
           id="path973" />
        <path
           style="stroke:#000000;stroke-width:0.4939082;stroke-miterlimit:4;stroke-dasharray:none"
           inkscape:connector-curvature="0"
           d="M 180.30911,112.9576 191.54158,101.701"
           id="path975" />
        <path
           style="stroke:#000000;stroke-width:0.4939082;stroke-miterlimit:4;stroke-dasharray:none"
           inkscape:connector-curvature="0"
           d="M 23.054556,157.98399 11.822088,146.72739"
           id="path977" />
        <path
           style="stroke:#000000;stroke-width:0.4939082;stroke-miterlimit:4;stroke-dasharray:none"
           inkscape:connector-curvature="0"
           d="m 45.519492,157.98399 22.464936,-22.5132"
           id="path979" />
        <path
           style="stroke:#000000;stroke-width:0.4939082;stroke-miterlimit:4;stroke-dasharray:none"
           inkscape:connector-curvature="0"
           d="M 67.984428,157.98399 45.519492,135.47079"
           id="path981" />
        <path
           style="stroke:#000000;stroke-width:0.4939082;stroke-miterlimit:4;stroke-dasharray:none"
           inkscape:connector-curvature="0"
           d="M 90.449364,157.98399 112.9143,135.47079"
           id="path983" />
        <path
           style="stroke:#000000;stroke-width:0.4939082;stroke-miterlimit:4;stroke-dasharray:none"
           inkscape:connector-curvature="0"
           d="M 112.9143,157.98399 90.449364,135.47079"
           id="path985" />
        <path
           style="stroke:#000000;stroke-width:0.4939082;stroke-miterlimit:4;stroke-dasharray:none"
           inkscape:connector-curvature="0"
           d="m 135.37924,157.98399 22.46493,-22.5132"
           id="path987" />
        <path
           style="stroke:#000000;stroke-width:0.4939082;stroke-miterlimit:4;stroke-dasharray:none"
           inkscape:connector-curvature="0"
           d="m 157.84417,157.98399 -22.46493,-22.5132"
           id="path989" />
        <path
           style="stroke:#000000;stroke-width:0.4939082;stroke-miterlimit:4;stroke-dasharray:none"
           inkscape:connector-curvature="0"
           d="m 180.30911,157.98399 11.23247,-11.2566"
           id="path991" />
      </g>
    </g>
    <g
       id="g1539"
       transform="translate(0,5.6696429)">
      <g
         id="g1460"
         transform="matrix(1.0123064,0,0,1.0123614,-260.32214,-3.5891586)"
         style="stroke-width:0.98781639">
        <path
           inkscape:connector-curvature="0"
           id="path1382"
           d="M 0.58997582,0.39134741 V 180.49721 v 18.761 c 7.86272778,-9.3805 7.86257178,-9.3805 22.46478018,-18.761 v -22.51304 h 22.464781 v 22.51304 c 7.301104,9.3805 7.301416,9.3805 11.23278,18.761 3.931364,-9.3805 3.930896,-9.3805 11.232001,-18.761 v -22.51304 h 22.46478 v 22.51304 c 7.301104,9.3805 7.301416,9.3805 11.232782,18.761 3.93136,-9.3805 3.93167,-9.3805 11.23278,-18.761 v -22.51304 h 22.46478 v 22.51304 c 7.3011,9.3805 7.30064,9.3805 11.232,18.761 3.93136,-9.3805 3.93168,-9.3805 11.23278,-18.761 V 157.98417 H 180.309 v 22.51304 c 14.60221,9.3805 14.60205,9.3805 22.46478,18.761 V 180.49721 0.39134741 H 101.68188 Z M 23.054756,22.905153 H 45.519537 V 45.418196 H 23.054756 Z m 44.929562,0 h 22.46478 v 22.513043 h -22.46478 z m 44.930342,0 h 22.46478 v 22.513043 h -22.46478 z m 44.92956,0 H 180.309 V 45.418196 H 157.84422 Z M 23.054756,67.931239 H 45.519537 V 90.444281 H 23.054756 Z m 44.929562,0 h 22.46478 v 22.513042 h -22.46478 z m 44.930342,0 h 22.46478 v 22.513042 h -22.46478 z m 44.92956,0 H 180.309 V 90.444281 H 157.84422 Z M 23.054756,112.95732 h 22.464781 v 22.51381 H 23.054756 Z m 44.929562,0 h 22.46478 v 22.51381 h -22.46478 z m 44.930342,0 h 22.46478 v 22.51381 h -22.46478 z m 44.92956,0 H 180.309 v 22.51381 h -22.46478 z"
           style="fill:#228b22;fill-opacity:1;stroke:#000000;stroke-width:0.98781639;stroke-miterlimit:4;stroke-dasharray:none" />
        <path
           id="path1384"
           d="M 23.054556,22.904824 0.58962022,0.39163017"
           inkscape:connector-curvature="0"
           style="stroke:#000000;stroke-width:0.4939082;stroke-miterlimit:4;stroke-dasharray:none" />
        <path
           id="path1386"
           d="M 45.519492,22.904824 56.75196,11.648227"
           inkscape:connector-curvature="0"
           style="stroke:#000000;stroke-width:0.4939082;stroke-miterlimit:4;stroke-dasharray:none" />
        <path
           id="path1388"
           d="M 23.054556,45.418018 11.822088,56.674615"
           inkscape:connector-curvature="0"
           style="stroke:#000000;stroke-width:0.4939082;stroke-miterlimit:4;stroke-dasharray:none" />
        <path
           id="path1390"
           d="M 67.984428,22.904824 56.75196,11.648227"
           inkscape:connector-curvature="0"
           style="stroke:#000000;stroke-width:0.4939082;stroke-miterlimit:4;stroke-dasharray:none" />
        <path
           id="path1392"
           d="M 90.449364,22.904824 101.68183,11.648227"
           inkscape:connector-curvature="0"
           style="stroke:#000000;stroke-width:0.4939082;stroke-miterlimit:4;stroke-dasharray:none" />
        <path
           id="path1394"
           d="M 112.9143,22.904824 101.68183,11.648227"
           inkscape:connector-curvature="0"
           style="stroke:#000000;stroke-width:0.4939082;stroke-miterlimit:4;stroke-dasharray:none" />
        <path
           id="path1396"
           d="M 135.37924,22.904824 146.6117,11.648227"
           inkscape:connector-curvature="0"
           style="stroke:#000000;stroke-width:0.4939082;stroke-miterlimit:4;stroke-dasharray:none" />
        <path
           id="path1398"
           d="M 157.84417,22.904824 146.6117,11.648227"
           inkscape:connector-curvature="0"
           style="stroke:#000000;stroke-width:0.4939082;stroke-miterlimit:4;stroke-dasharray:none" />
        <path
           id="path1400"
           d="m 180.30911,45.418018 11.23247,11.256597"
           inkscape:connector-curvature="0"
           style="stroke:#000000;stroke-width:0.4939082;stroke-miterlimit:4;stroke-dasharray:none" />
        <path
           id="path1402"
           d="M 180.30911,22.904824 202.77404,0.39163017"
           inkscape:connector-curvature="0"
           style="stroke:#000000;stroke-width:0.4939082;stroke-miterlimit:4;stroke-dasharray:none" />
        <path
           id="path1404"
           d="M 23.054556,67.931212 11.822088,56.674615"
           inkscape:connector-curvature="0"
           style="stroke:#000000;stroke-width:0.4939082;stroke-miterlimit:4;stroke-dasharray:none" />
        <path
           id="path1406"
           d="M 45.519492,67.931212 67.984428,45.418018"
           inkscape:connector-curvature="0"
           style="stroke:#000000;stroke-width:0.4939082;stroke-miterlimit:4;stroke-dasharray:none" />
        <path
           id="path1408"
           d="M 23.054556,90.444406 11.822088,101.701"
           inkscape:connector-curvature="0"
           style="stroke:#000000;stroke-width:0.4939082;stroke-miterlimit:4;stroke-dasharray:none" />
        <path
           id="path1410"
           d="M 67.984428,67.931212 45.519492,45.418018"
           inkscape:connector-curvature="0"
           style="stroke:#000000;stroke-width:0.4939082;stroke-miterlimit:4;stroke-dasharray:none" />
        <path
           id="path1412"
           d="M 90.449364,67.931212 112.9143,45.418018"
           inkscape:connector-curvature="0"
           style="stroke:#000000;stroke-width:0.4939082;stroke-miterlimit:4;stroke-dasharray:none" />
        <path
           id="path1414"
           d="M 112.9143,67.931212 90.449364,45.418018"
           inkscape:connector-curvature="0"
           style="stroke:#000000;stroke-width:0.4939082;stroke-miterlimit:4;stroke-dasharray:none" />
        <path
           id="path1416"
           d="M 135.37924,67.931212 157.84417,45.418018"
           inkscape:connector-curvature="0"
           style="stroke:#000000;stroke-width:0.4939082;stroke-miterlimit:4;stroke-dasharray:none" />
        <path
           id="path1418"
           d="M 157.84417,67.931212 135.37924,45.418018"
           inkscape:connector-curvature="0"
           style="stroke:#000000;stroke-width:0.4939082;stroke-miterlimit:4;stroke-dasharray:none" />
        <path
           id="path1420"
           d="M 180.30911,90.444406 191.54158,101.701"
           inkscape:connector-curvature="0"
           style="stroke:#000000;stroke-width:0.4939082;stroke-miterlimit:4;stroke-dasharray:none" />
        <path
           id="path1422"
           d="M 180.30911,67.931212 191.54158,56.674615"
           inkscape:connector-curvature="0"
           style="stroke:#000000;stroke-width:0.4939082;stroke-miterlimit:4;stroke-dasharray:none" />
        <path
           id="path1424"
           d="M 23.054556,112.9576 11.822088,101.701"
           inkscape:connector-curvature="0"
           style="stroke:#000000;stroke-width:0.4939082;stroke-miterlimit:4;stroke-dasharray:none" />
        <path
           id="path1426"
           d="M 45.519492,112.9576 67.984428,90.444406"
           inkscape:connector-curvature="0"
           style="stroke:#000000;stroke-width:0.4939082;stroke-miterlimit:4;stroke-dasharray:none" />
        <path
           id="path1428"
           d="m 23.054556,135.47079 -11.232468,11.2566"
           inkscape:connector-curvature="0"
           style="stroke:#000000;stroke-width:0.4939082;stroke-miterlimit:4;stroke-dasharray:none" />
        <path
           id="path1430"
           d="M 67.984428,112.9576 45.519492,90.444406"
           inkscape:connector-curvature="0"
           style="stroke:#000000;stroke-width:0.4939082;stroke-miterlimit:4;stroke-dasharray:none" />
        <path
           id="path1432"
           d="M 90.449364,112.9576 112.9143,90.444406"
           inkscape:connector-curvature="0"
           style="stroke:#000000;stroke-width:0.4939082;stroke-miterlimit:4;stroke-dasharray:none" />
        <path
           id="path1434"
           d="M 112.9143,112.9576 90.449364,90.444406"
           inkscape:connector-curvature="0"
           style="stroke:#000000;stroke-width:0.4939082;stroke-miterlimit:4;stroke-dasharray:none" />
        <path
           id="path1436"
           d="M 135.37924,112.9576 157.84417,90.444406"
           inkscape:connector-curvature="0"
           style="stroke:#000000;stroke-width:0.4939082;stroke-miterlimit:4;stroke-dasharray:none" />
        <path
           id="path1438"
           d="M 157.84417,112.9576 135.37924,90.444406"
           inkscape:connector-curvature="0"
           style="stroke:#000000;stroke-width:0.4939082;stroke-miterlimit:4;stroke-dasharray:none" />
        <path
           id="path1440"
           d="m 180.30911,135.47079 11.23247,11.2566"
           inkscape:connector-curvature="0"
           style="stroke:#000000;stroke-width:0.4939082;stroke-miterlimit:4;stroke-dasharray:none" />
        <path
           id="path1442"
           d="M 180.30911,112.9576 191.54158,101.701"
           inkscape:connector-curvature="0"
           style="stroke:#000000;stroke-width:0.4939082;stroke-miterlimit:4;stroke-dasharray:none" />
        <path
           id="path1444"
           d="M 23.054556,157.98399 11.822088,146.72739"
           inkscape:connector-curvature="0"
           style="stroke:#000000;stroke-width:0.4939082;stroke-miterlimit:4;stroke-dasharray:none" />
        <path
           id="path1446"
           d="m 45.519492,157.98399 22.464936,-22.5132"
           inkscape:connector-curvature="0"
           style="stroke:#000000;stroke-width:0.4939082;stroke-miterlimit:4;stroke-dasharray:none" />
        <path
           id="path1448"
           d="M 67.984428,157.98399 45.519492,135.47079"
           inkscape:connector-curvature="0"
           style="stroke:#000000;stroke-width:0.4939082;stroke-miterlimit:4;stroke-dasharray:none" />
        <path
           id="path1450"
           d="M 90.449364,157.98399 112.9143,135.47079"
           inkscape:connector-curvature="0"
           style="stroke:#000000;stroke-width:0.4939082;stroke-miterlimit:4;stroke-dasharray:none" />
        <path
           id="path1452"
           d="M 112.9143,157.98399 90.449364,135.47079"
           inkscape:connector-curvature="0"
           style="stroke:#000000;stroke-width:0.4939082;stroke-miterlimit:4;stroke-dasharray:none" />
        <path
           id="path1454"
           d="m 135.37924,157.98399 22.46493,-22.5132"
           inkscape:connector-curvature="0"
           style="stroke:#000000;stroke-width:0.4939082;stroke-miterlimit:4;stroke-dasharray:none" />
        <path
           id="path1456"
           d="m 157.84417,157.98399 -22.46493,-22.5132"
           inkscape:connector-curvature="0"
           style="stroke:#000000;stroke-width:0.4939082;stroke-miterlimit:4;stroke-dasharray:none" />
        <path
           id="path1458"
           d="m 180.30911,157.98399 11.23247,-11.2566"
           inkscape:connector-curvature="0"
           style="stroke:#000000;stroke-width:0.4939082;stroke-miterlimit:4;stroke-dasharray:none" />
      </g>
      <g
         id="g1380"
         transform="matrix(2.1417672,0,0,2.141159,80.949405,-143.9647)"
         style="stroke-width:0.46697044">
        <g
           transform="matrix(0.26458333,0,0,0.26458333,-159.54589,53.920497)"
           id="g1312"
           style="fill:none;fill-opacity:1;stroke:none;stroke-width:0.46697044;stroke-dasharray:none;stroke-opacity:1">
          <path
             id="path1308"
             d="m 236.08028,64.014904 c -0.18624,0.389316 -0.0729,1.352486 0.51948,2.114271 2.67922,4.199915 -1.23894,17.490915 -7.73816,26.676805 -3.6737,5.17944 -5.21796,10.70777 -5.07817,18.7161 0.11115,6.36808 0.53077,8.29106 3.22853,13.55232 1.69921,3.34838 3.37989,5.63541 3.85558,5.24105 0.37752,-0.48917 1.21222,-2.43405 1.75746,-4.37387 0.73146,-2.32914 3.56204,-6.04613 8.1159,-10.56533 9.1077,-9.03839 11.55066,-12.84513 12.5805,-20.19828 0.686,-4.93425 0.4526,-7.24655 -1.0907,-12.72099 -2.16935,-8.16594 -4.85195,-12.55882 -9.93827,-16.42717 -3.81516,-2.92538 -5.36736,-3.38087 -6.21215,-2.014906 z"
             inkscape:connector-curvature="0"
             style="fill:#000000;stroke-width:0.46697044" />
          <path
             id="path1310"
             d="m 236.08028,64.014904 c -0.18624,0.389316 -0.0729,1.352486 0.51948,2.114271 2.67922,4.199915 -1.23894,17.490915 -7.73816,26.676805 -3.6737,5.17944 -5.21796,10.70777 -5.07817,18.7161 0.11115,6.36808 0.53077,8.29106 3.22853,13.55232 1.69921,3.34838 3.37989,5.63541 3.85558,5.24105 0.37752,-0.48917 1.21222,-2.43405 1.75746,-4.37387 0.73146,-2.32914 3.56204,-6.04613 8.1159,-10.56533 9.1077,-9.03839 11.55066,-12.84513 12.5805,-20.19828 0.686,-4.93425 0.4526,-7.24655 -1.0907,-12.72099 -2.16935,-8.16594 -4.85195,-12.55882 -9.93827,-16.42717 -3.81516,-2.92538 -5.36736,-3.38087 -6.21215,-2.014906 z"
             inkscape:connector-curvature="0"
             style="stroke:#000000;stroke-width:0;stroke-linecap:round;stroke-linejoin:round" />
        </g>
        <g
           transform="matrix(0.26458333,0,0,0.26458333,-159.54589,53.920497)"
           id="g1318"
           style="fill:#e0d000;fill-opacity:1;stroke:none;stroke-width:0.46697044;stroke-dasharray:none;stroke-opacity:1">
          <path
             id="path1314"
             d="m 246.00557,74.1688 c 2.37461,3.33659 5.34449,13.12932 5.42701,17.85714 0.12968,7.42942 -1.55486,10.4508 -11.32113,20.46584 -5.3089,5.49752 -9.58677,9.23978 -9.98282,8.6676 -0.29956,-0.57386 -0.94248,-4.23022 -1.20282,-8.08629 -0.71701,-7.90175 0.80029,-14.97386 5.08709,-23.73507 4.0108,-7.98427 6.4896,-15.26619 6.43234,-18.54671 -0.0488,-2.7981 0.0476,-2.79978 1.71653,-1.18815 0.98171,0.94802 2.7555,3.04039 3.8438,4.56564 z"
             inkscape:connector-curvature="0"
             style="fill:#e0d000;fill-opacity:1;stroke-width:0.46697044" />
          <path
             id="path1316"
             d="m 246.00557,74.1688 c 2.37461,3.33659 5.34449,13.12932 5.42701,17.85714 0.12968,7.42942 -1.55486,10.4508 -11.32113,20.46584 -5.3089,5.49752 -9.58677,9.23978 -9.98282,8.6676 -0.29956,-0.57386 -0.94248,-4.23022 -1.20282,-8.08629 -0.71701,-7.90175 0.80029,-14.97386 5.08709,-23.73507 4.0108,-7.98427 6.4896,-15.26619 6.43234,-18.54671 -0.0488,-2.7981 0.0476,-2.79978 1.71653,-1.18815 0.98171,0.94802 2.7555,3.04039 3.8438,4.56564 z"
             inkscape:connector-curvature="0"
             style="fill:#e0d000;fill-opacity:1;stroke:#000000;stroke-width:0;stroke-linecap:round;stroke-linejoin:round" />
        </g>
        <g
           transform="matrix(0.26458333,0,0,0.26458333,-159.54589,53.920497)"
           id="g1324"
           style="fill:none;fill-opacity:1;stroke:none;stroke-width:0.46697044;stroke-dasharray:none;stroke-opacity:1">
          <path
             id="path1320"
             d="m 171.26359,66.40098 c -0.37416,0.68214 0.0286,1.640266 0.81062,2.20571 0.78199,0.56544 2.46436,2.94896 3.76079,5.339215 4.98766,9.274935 0.94774,21.120325 -13.94674,41.455515 -13.95488,18.87105 -21.51593,33.57685 -24.54888,47.81755 -1.96775,8.91376 -1.59745,13.54003 1.8498,23.03489 1.7211,4.6027 3.04447,8.53673 3.04784,8.7297 0.0185,1.06134 -11.93129,-8.9607 -15.27918,-12.76288 -4.72732,-5.41886 -6.13539,-8.67581 -6.73234,-15.22843 -0.82698,-8.67195 2.35516,-25.42465 5.55821,-29.92027 0.37584,-0.58566 1.66601,-4.08273 2.85633,-7.77109 3.75214,-11.74386 2.28323,-35.07494 -2.09113,-31.331 -0.6653,0.5907 -1.02935,1.85176 -0.72305,2.81157 1.23699,4.51463 -10.24294,21.41217 -20.4221,29.89017 -6.18233,5.22323 -12.41904,12.86029 -15.68489,19.28731 -3.35561,6.81466 -3.53679,7.49342 -3.38353,16.27365 0.05004,8.39596 0.36307,9.74171 3.56683,16.34535 1.8058,3.92561 5.78987,10.99821 8.6688,15.5807 2.88062,4.67896 5.27039,8.88393 5.27881,9.36636 0.0101,0.57892 0.61597,2.1126 1.41312,3.5464 0.70066,1.4355 1.71268,4.12027 2.13062,5.94677 0.72761,2.97928 0.0421,2.41215 -6.07476,-5.20231 -8.87742,-10.94431 -18.09868,-19.46974 -24.6205,-22.63743 -3.796635,-1.86403 -16.97936,-5.10848 -20.25988,-5.05123 -1.157835,0.0202 0.341664,2.98602 2.696064,5.16478 4.906826,4.64361 12.620866,20.82006 14.527716,30.53482 2.21315,10.67458 1.79977,14.63893 -3.53129,40.98417 -2.31159,11.33265 -2.27095,30.24895 0.17776,37.83093 3.98863,12.86344 12.73371,27.2846 21.0748,35.1498 7.26123,6.82236 21.45428,12.6551 33.24747,13.70394 4.2538,0.40832 8.32811,1.5919 12.61223,3.73696 7.8861,3.916 16.91319,6.84694 20.77263,6.77957 1.54377,-0.0269 4.45688,0.98387 6.41018,2.30099 6.2492,4.1376 19.49136,5.25767 30.93109,2.64511 6.24801,-1.46027 15.80903,-6.64597 19.50294,-10.66757 2.27355,-2.45257 3.13688,-2.7572 6.32765,-2.42682 5.12555,0.58612 15.41586,-1.52378 20.29118,-4.2148 2.29545,-1.19825 7.3368,-5.43641 11.32352,-9.2701 3.88856,-3.92848 7.30648,-7.17316 7.59593,-7.17821 2.60512,-0.0455 13.98759,-5.93857 17.98105,-9.38631 4.47085,-3.74562 12.49532,-14.0198 12.46164,-15.94952 -0.005,-0.28946 0.55533,-1.36091 1.31376,-2.14627 2.4581,-2.93837 5.35702,-13.7987 5.52522,-20.75074 0.22258,-9.36588 -1.26296,-17.06118 -4.77302,-24.62463 -4.41885,-9.86395 -8.4782,-26.7798 -8.65674,-37.00731 -0.12294,-7.04349 0.30559,-10.13945 2.13764,-15.76932 2.84285,-8.54297 7.64406,-15.47937 12.89353,-18.85253 4.58247,-2.87894 4.82647,-5.48911 0.49134,-5.02738 -12.52297,1.37678 -35.57399,13.36098 -39.88604,20.6749 -3.18621,5.46048 -5.49899,11.19526 -6.19846,15.35763 l -0.60467,4.06421 -2.6927,-4.9718 c -1.49612,-2.77284 -2.71796,-6.4191 -2.74995,-8.25233 -0.0573,-3.28053 2.28295,-12.97291 3.50695,-14.73156 0.47233,-0.58733 1.19875,-3.20593 1.82868,-5.82284 0.62824,-2.7134 1.53752,-5.91427 2.09286,-7.27518 1.19874,-3.20594 0.70381,-14.97217 -0.83611,-20.25364 -1.43163,-4.60775 -2.82793,-7.18929 -9.36778,-16.91971 -2.37629,-3.43307 -4.26679,-6.6816 -4.27352,-7.06754 -0.008,-0.48243 -0.59408,-0.85827 -1.36596,-0.8448 -1.15784,0.0202 -1.2358,1.08324 -0.77575,5.32189 1.11812,8.76338 -2.04452,15.57466 -15.80305,34.63531 -7.82307,10.75325 -12.79417,24.5452 -11.23237,31.081 l 0.7293,3.07576 -2.85535,-3.23169 c -3.73888,-4.08489 -5.53626,-7.52807 -7.68373,-14.4397 -3.27618,-10.75254 -2.40732,-16.26907 5.76514,-34.65314 8.17584,-18.19108 9.16813,-22.16553 8.29399,-33.53909 -0.63905,-8.96478 -3.8765,-17.49814 -10.82756,-28.66911 -4.86592,-7.82932 -17.93771,-21.30634 -23.68764,-24.487496 -5.06948,-2.903488 -9.04225,-3.799294 -9.88536,-2.336854 z"
             inkscape:connector-curvature="0"
             style="fill:#000000;stroke-width:0.46697044" />
          <path
             id="path1322"
             d="m 171.26359,66.40098 c -0.37416,0.68214 0.0286,1.640266 0.81062,2.20571 0.78199,0.56544 2.46436,2.94896 3.76079,5.339215 4.98766,9.274935 0.94774,21.120325 -13.94674,41.455515 -13.95488,18.87105 -21.51593,33.57685 -24.54888,47.81755 -1.96775,8.91376 -1.59745,13.54003 1.8498,23.03489 1.7211,4.6027 3.04447,8.53673 3.04784,8.7297 0.0185,1.06134 -11.93129,-8.9607 -15.27918,-12.76288 -4.72732,-5.41886 -6.13539,-8.67581 -6.73234,-15.22843 -0.82698,-8.67195 2.35516,-25.42465 5.55821,-29.92027 0.37584,-0.58566 1.66601,-4.08273 2.85633,-7.77109 3.75214,-11.74386 2.28323,-35.07494 -2.09113,-31.331 -0.6653,0.5907 -1.02935,1.85176 -0.72305,2.81157 1.23699,4.51463 -10.24294,21.41217 -20.4221,29.89017 -6.18233,5.22323 -12.41904,12.86029 -15.68489,19.28731 -3.35561,6.81466 -3.53679,7.49342 -3.38353,16.27365 0.05004,8.39596 0.36307,9.74171 3.56683,16.34535 1.8058,3.92561 5.78987,10.99821 8.6688,15.5807 2.88062,4.67896 5.27039,8.88393 5.27881,9.36636 0.0101,0.57892 0.61597,2.1126 1.41312,3.5464 0.70066,1.4355 1.71268,4.12027 2.13062,5.94677 0.72761,2.97928 0.0421,2.41215 -6.07476,-5.20231 -8.87742,-10.94431 -18.09868,-19.46974 -24.6205,-22.63743 -3.796635,-1.86403 -16.97936,-5.10848 -20.25988,-5.05123 -1.157835,0.0202 0.341664,2.98602 2.696064,5.16478 4.906826,4.64361 12.620866,20.82006 14.527716,30.53482 2.21315,10.67458 1.79977,14.63893 -3.53129,40.98417 -2.31159,11.33265 -2.27095,30.24895 0.17776,37.83093 3.98863,12.86344 12.73371,27.2846 21.0748,35.1498 7.26123,6.82236 21.45428,12.6551 33.24747,13.70394 4.2538,0.40832 8.32811,1.5919 12.61223,3.73696 7.8861,3.916 16.91319,6.84694 20.77263,6.77957 1.54377,-0.0269 4.45688,0.98387 6.41018,2.30099 6.2492,4.1376 19.49136,5.25767 30.93109,2.64511 6.24801,-1.46027 15.80903,-6.64597 19.50294,-10.66757 2.27355,-2.45257 3.13688,-2.7572 6.32765,-2.42682 5.12555,0.58612 15.41586,-1.52378 20.29118,-4.2148 2.29545,-1.19825 7.3368,-5.43641 11.32352,-9.2701 3.88856,-3.92848 7.30648,-7.17316 7.59593,-7.17821 2.60512,-0.0455 13.98759,-5.93857 17.98105,-9.38631 4.47085,-3.74562 12.49532,-14.0198 12.46164,-15.94952 -0.005,-0.28946 0.55533,-1.36091 1.31376,-2.14627 2.4581,-2.93837 5.35702,-13.7987 5.52522,-20.75074 0.22258,-9.36588 -1.26296,-17.06118 -4.77302,-24.62463 -4.41885,-9.86395 -8.4782,-26.7798 -8.65674,-37.00731 -0.12294,-7.04349 0.30559,-10.13945 2.13764,-15.76932 2.84285,-8.54297 7.64406,-15.47937 12.89353,-18.85253 4.58247,-2.87894 4.82647,-5.48911 0.49134,-5.02738 -12.52297,1.37678 -35.57399,13.36098 -39.88604,20.6749 -3.18621,5.46048 -5.49899,11.19526 -6.19846,15.35763 l -0.60467,4.06421 -2.6927,-4.9718 c -1.49612,-2.77284 -2.71796,-6.4191 -2.74995,-8.25233 -0.0573,-3.28053 2.28295,-12.97291 3.50695,-14.73156 0.47233,-0.58733 1.19875,-3.20593 1.82868,-5.82284 0.62824,-2.7134 1.53752,-5.91427 2.09286,-7.27518 1.19874,-3.20594 0.70381,-14.97217 -0.83611,-20.25364 -1.43163,-4.60775 -2.82793,-7.18929 -9.36778,-16.91971 -2.37629,-3.43307 -4.26679,-6.6816 -4.27352,-7.06754 -0.008,-0.48243 -0.59408,-0.85827 -1.36596,-0.8448 -1.15784,0.0202 -1.2358,1.08324 -0.77575,5.32189 1.11812,8.76338 -2.04452,15.57466 -15.80305,34.63531 -7.82307,10.75325 -12.79417,24.5452 -11.23237,31.081 l 0.7293,3.07576 -2.85535,-3.23169 c -3.73888,-4.08489 -5.53626,-7.52807 -7.68373,-14.4397 -3.27618,-10.75254 -2.40732,-16.26907 5.76514,-34.65314 8.17584,-18.19108 9.16813,-22.16553 8.29399,-33.53909 -0.63905,-8.96478 -3.8765,-17.49814 -10.82756,-28.66911 -4.86592,-7.82932 -17.93771,-21.30634 -23.68764,-24.487496 -5.06948,-2.903488 -9.04225,-3.799294 -9.88536,-2.336854 z"
             inkscape:connector-curvature="0"
             style="stroke:#000000;stroke-width:0;stroke-linecap:round;stroke-linejoin:round" />
        </g>
        <g
           transform="matrix(0.26458333,0,0,0.26458333,-159.54589,53.920497)"
           id="g1330"
           style="fill:#e0d000;fill-opacity:1;stroke:none;stroke-width:0.46697044;stroke-dasharray:none;stroke-opacity:1">
          <path
             id="path1326"
             d="m 181.69538,72.39588 c 8.01458,5.74754 19.92854,19.24477 23.73311,27.09262 0.90037,1.81808 2.90251,5.93329 4.40538,9.09207 2.60126,5.26294 2.8195,6.70686 2.98791,16.35546 0.20547,11.77129 -0.43288,13.90577 -9.16404,33.45777 -5.85463,12.93873 -7.11785,17.97958 -6.23313,24.43067 0.99469,7.22129 6.43399,20.25243 10.17624,24.53031 9.64762,10.83436 22.31685,39.95389 25.63463,58.61996 3.11472,18.09053 0.0661,36.96424 -10.71075,66.49303 -4.23963,11.46283 -7.05505,16.04818 -12.6753,20.29643 -6.00114,4.54447 -17.70675,8.5129 -25.52212,8.6493 -6.07861,0.1061 -17.99861,-2.6778 -20.25651,-4.85824 -0.68551,-0.56712 -2.34767,-1.79281 -3.90828,-2.73072 -13.95244,-8.63588 -20.55967,-22.22574 -18.72666,-38.85837 1.5077,-13.15241 1.78369,-13.92937 14.00736,-37.98202 7.27497,-14.50778 10.59569,-28.85002 9.40852,-41.56933 -0.86066,-10.60166 -3.97804,-17.7859 -13.27677,-30.74969 -5.93399,-8.19673 -11.25996,-20.26471 -12.45603,-27.96507 -1.20451,-8.18278 1.57267,-20.48871 7.44245,-32.55908 2.7021,-5.54854 12.74821,-21.64893 16.99745,-27.03145 11.23258,-14.48034 16.43706,-25.96 16.27033,-35.51211 -0.059,-3.37701 -0.70187,-7.033375 -1.59887,-8.65848 -1.89555,-3.53798 -0.93237,-3.65131 3.46508,-0.54306 z"
             inkscape:connector-curvature="0"
             style="fill:#e0d000;fill-opacity:1;stroke-width:0.46697044" />
          <path
             id="path1328"
             d="m 181.69538,72.39588 c 8.01458,5.74754 19.92854,19.24477 23.73311,27.09262 0.90037,1.81808 2.90251,5.93329 4.40538,9.09207 2.60126,5.26294 2.8195,6.70686 2.98791,16.35546 0.20547,11.77129 -0.43288,13.90577 -9.16404,33.45777 -5.85463,12.93873 -7.11785,17.97958 -6.23313,24.43067 0.99469,7.22129 6.43399,20.25243 10.17624,24.53031 9.64762,10.83436 22.31685,39.95389 25.63463,58.61996 3.11472,18.09053 0.0661,36.96424 -10.71075,66.49303 -4.23963,11.46283 -7.05505,16.04818 -12.6753,20.29643 -6.00114,4.54447 -17.70675,8.5129 -25.52212,8.6493 -6.07861,0.1061 -17.99861,-2.6778 -20.25651,-4.85824 -0.68551,-0.56712 -2.34767,-1.79281 -3.90828,-2.73072 -13.95244,-8.63588 -20.55967,-22.22574 -18.72666,-38.85837 1.5077,-13.15241 1.78369,-13.92937 14.00736,-37.98202 7.27497,-14.50778 10.59569,-28.85002 9.40852,-41.56933 -0.86066,-10.60166 -3.97804,-17.7859 -13.27677,-30.74969 -5.93399,-8.19673 -11.25996,-20.26471 -12.45603,-27.96507 -1.20451,-8.18278 1.57267,-20.48871 7.44245,-32.55908 2.7021,-5.54854 12.74821,-21.64893 16.99745,-27.03145 11.23258,-14.48034 16.43706,-25.96 16.27033,-35.51211 -0.059,-3.37701 -0.70187,-7.033375 -1.59887,-8.65848 -1.89555,-3.53798 -0.93237,-3.65131 3.46508,-0.54306 z"
             inkscape:connector-curvature="0"
             style="fill:#e0d000;fill-opacity:1;stroke:#000000;stroke-width:0;stroke-linecap:round;stroke-linejoin:round" />
        </g>
        <g
           transform="matrix(0.26458333,0,0,0.26458333,-159.54589,53.920497)"
           id="g1336"
           style="fill:#ff0000;fill-opacity:1;stroke:none;stroke-width:0.46697044;stroke-dasharray:none;stroke-opacity:1">
          <path
             id="path1332"
             d="m 128.87827,115.302 c -0.23894,2.89963 -2.77718,12.30593 -5.71652,20.85059 -5.23192,15.43727 -5.22855,15.63024 -5.03656,26.62964 0.0669,9.36083 0.39676,11.67144 2.08923,14.63387 2.58779,4.49106 10.44814,12.46115 17.48776,17.64661 2.935,2.26514 6.66042,5.57815 8.04322,7.38781 3.6525,4.6655 12.22987,20.53733 13.96613,26.0084 2.54857,7.77327 1.80047,25.73818 -1.40643,35.54222 -1.55943,4.65996 -5.93259,14.00176 -8.93593,18.87996 -3.84477,6.43712 -8.75306,18.29767 -9.99944,24.3034 -1.23965,6.39164 -0.82437,19.1244 0.92199,25.1744 1.95955,7.20445 4.83848,11.78694 11.40915,17.7527 5.10316,4.83323 5.20302,5.0245 2.4913,4.49276 -19.46441,-3.7139 -37.19111,-18.46086 -41.13041,-34.02761 -2.59404,-10.37838 -3.10413,-23.01299 -1.56948,-34.62163 3.17757,-22.54354 2.13937,-54.3755 -2.20104,-70.80387 -1.85801,-6.91667 -4.05985,-11.41446 -10.00396,-20.19012 -7.72632,-11.35047 -10.86054,-19.49957 -10.9291,-28.95688 -0.09383,-10.9046 3.1855,-16.55974 20.43101,-34.90913 10.32835,-10.99001 15.14808,-16.86506 16.62954,-20.46199 2.04522,-4.47541 2.23314,-4.76823 3.0404,-2.7555 0.50264,1.14941 0.65807,4.52474 0.41914,7.42437 z"
             inkscape:connector-curvature="0"
             style="fill:#ff0000;stroke-width:0.46697044" />
          <path
             id="path1334"
             d="m 128.87827,115.302 c -0.23894,2.89963 -2.77718,12.30593 -5.71652,20.85059 -5.23192,15.43727 -5.22855,15.63024 -5.03656,26.62964 0.0669,9.36083 0.39676,11.67144 2.08923,14.63387 2.58779,4.49106 10.44814,12.46115 17.48776,17.64661 2.935,2.26514 6.66042,5.57815 8.04322,7.38781 3.6525,4.6655 12.22987,20.53733 13.96613,26.0084 2.54857,7.77327 1.80047,25.73818 -1.40643,35.54222 -1.55943,4.65996 -5.93259,14.00176 -8.93593,18.87996 -3.84477,6.43712 -8.75306,18.29767 -9.99944,24.3034 -1.23965,6.39164 -0.82437,19.1244 0.92199,25.1744 1.95955,7.20445 4.83848,11.78694 11.40915,17.7527 5.10316,4.83323 5.20302,5.0245 2.4913,4.49276 -19.46441,-3.7139 -37.19111,-18.46086 -41.13041,-34.02761 -2.59404,-10.37838 -3.10413,-23.01299 -1.56948,-34.62163 3.17757,-22.54354 2.13937,-54.3755 -2.20104,-70.80387 -1.85801,-6.91667 -4.05985,-11.41446 -10.00396,-20.19012 -7.72632,-11.35047 -10.86054,-19.49957 -10.9291,-28.95688 -0.09383,-10.9046 3.1855,-16.55974 20.43101,-34.90913 10.32835,-10.99001 15.14808,-16.86506 16.62954,-20.46199 2.04522,-4.47541 2.23314,-4.76823 3.0404,-2.7555 0.50264,1.14941 0.65807,4.52474 0.41914,7.42437 z"
             inkscape:connector-curvature="0"
             style="fill:#ff0000;stroke:#000000;stroke-width:0;stroke-linecap:round;stroke-linejoin:round" />
        </g>
        <g
           transform="matrix(0.26458333,0,0,0.26458333,-159.54589,53.920497)"
           id="g1342"
           style="fill:#ff0000;fill-opacity:1;stroke:none;stroke-width:0.46697044;stroke-dasharray:none;stroke-opacity:1">
          <path
             id="path1338"
             d="m 249.6243,154.30992 c 5.68663,10.61395 5.18302,20.46731 -2.10254,39.89756 -1.10731,2.91479 -2.27742,7.76098 -2.41986,10.65892 -0.39317,5.12219 -0.18504,5.9872 4.70108,14.97435 2.79424,5.25957 7.26242,12.42023 9.83169,15.84995 7.60625,10.00134 9.80305,14.20967 12.07733,22.85636 3.62457,14.12449 2.75424,36.14519 -1.77147,47.80604 -2.21798,5.6366 -11.05188,19.30295 -16.35236,25.2829 -6.33994,7.2528 -13.68515,12.2068 -20.50702,13.96663 -9.5117,2.4824 -14.73541,1.80147 -12.18755,-1.52453 1.13257,-1.4675 10.58053,-29.7184 12.02157,-35.631 3.49686,-15.31047 4.59216,-35.5013 2.67015,-46.08444 -1.80532,-9.427 -7.17338,-23.90712 -14.18171,-38.35861 -7.50591,-15.31145 -8.88823,-22.62249 -5.86755,-32.03721 2.37558,-7.66618 3.967,-10.4929 12.73474,-22.42082 7.06802,-9.77492 9.6888,-14.4534 11.50567,-20.95164 0.63835,-2.13448 1.36983,-4.46362 1.54933,-5.23888 0.55027,-1.65036 3.61376,2.44633 8.2985,10.95442 z"
             inkscape:connector-curvature="0"
             style="fill:#ff0000;stroke-width:0.46697044" />
          <path
             id="path1340"
             d="m 249.6243,154.30992 c 5.68663,10.61395 5.18302,20.46731 -2.10254,39.89756 -1.10731,2.91479 -2.27742,7.76098 -2.41986,10.65892 -0.39317,5.12219 -0.18504,5.9872 4.70108,14.97435 2.79424,5.25957 7.26242,12.42023 9.83169,15.84995 7.60625,10.00134 9.80305,14.20967 12.07733,22.85636 3.62457,14.12449 2.75424,36.14519 -1.77147,47.80604 -2.21798,5.6366 -11.05188,19.30295 -16.35236,25.2829 -6.33994,7.2528 -13.68515,12.2068 -20.50702,13.96663 -9.5117,2.4824 -14.73541,1.80147 -12.18755,-1.52453 1.13257,-1.4675 10.58053,-29.7184 12.02157,-35.631 3.49686,-15.31047 4.59216,-35.5013 2.67015,-46.08444 -1.80532,-9.427 -7.17338,-23.90712 -14.18171,-38.35861 -7.50591,-15.31145 -8.88823,-22.62249 -5.86755,-32.03721 2.37558,-7.66618 3.967,-10.4929 12.73474,-22.42082 7.06802,-9.77492 9.6888,-14.4534 11.50567,-20.95164 0.63835,-2.13448 1.36983,-4.46362 1.54933,-5.23888 0.55027,-1.65036 3.61376,2.44633 8.2985,10.95442 z"
             inkscape:connector-curvature="0"
             style="fill:#ff0000;stroke:#000000;stroke-width:0;stroke-linecap:round;stroke-linejoin:round" />
        </g>
        <g
           transform="matrix(0.26458333,0,0,0.26458333,-159.54589,53.920497)"
           id="g1348"
           style="fill:#e0d000;fill-opacity:1;stroke:none;stroke-width:0.46697044;stroke-dasharray:none;stroke-opacity:1">
          <path
             id="path1344"
             d="m 295.41684,184.49205 c -0.65856,0.97665 -2.73914,3.42585 -4.43884,5.57885 -8.03964,9.40582 -11.14213,25.19198 -8.35223,41.26135 1.39073,7.79347 7.12573,26.70689 8.81146,29.28339 1.18815,1.71653 2.10873,4.69244 3.36087,10.07546 0.84263,4.03892 0.46413,15.53086 -0.72282,19.4122 -3.27813,11.253 -11.36541,23.4586 -18.90022,28.6089 -4.57576,3.2649 -10.88826,6.56008 -12.43203,6.58703 -0.28945,0.005 0.92613,-2.23603 2.71389,-4.87313 4.60824,-6.93304 8.50234,-16.07346 9.83173,-22.85274 0.61983,-3.19583 1.04717,-11.88966 0.91749,-19.3191 -0.32504,-18.62179 -2.08824,-25.63664 -10.47602,-41.70481 -5.49535,-10.7138 -6.70708,-13.78115 -7.08242,-18.69688 -0.84383,-9.63681 3.46485,-17.1437 13.86393,-24.08129 6.58007,-4.55457 10.69359,-6.65319 16.73347,-8.97848 6.42414,-2.4285 7.86975,-2.55024 6.17174,-0.30075 z"
             inkscape:connector-curvature="0"
             style="fill:#e0d000;fill-opacity:1;stroke-width:0.46697044" />
          <path
             id="path1346"
             d="m 295.41684,184.49205 c -0.65856,0.97665 -2.73914,3.42585 -4.43884,5.57885 -8.03964,9.40582 -11.14213,25.19198 -8.35223,41.26135 1.39073,7.79347 7.12573,26.70689 8.81146,29.28339 1.18815,1.71653 2.10873,4.69244 3.36087,10.07546 0.84263,4.03892 0.46413,15.53086 -0.72282,19.4122 -3.27813,11.253 -11.36541,23.4586 -18.90022,28.6089 -4.57576,3.2649 -10.88826,6.56008 -12.43203,6.58703 -0.28945,0.005 0.92613,-2.23603 2.71389,-4.87313 4.60824,-6.93304 8.50234,-16.07346 9.83173,-22.85274 0.61983,-3.19583 1.04717,-11.88966 0.91749,-19.3191 -0.32504,-18.62179 -2.08824,-25.63664 -10.47602,-41.70481 -5.49535,-10.7138 -6.70708,-13.78115 -7.08242,-18.69688 -0.84383,-9.63681 3.46485,-17.1437 13.86393,-24.08129 6.58007,-4.55457 10.69359,-6.65319 16.73347,-8.97848 6.42414,-2.4285 7.86975,-2.55024 6.17174,-0.30075 z"
             inkscape:connector-curvature="0"
             style="fill:#e0d000;fill-opacity:1;stroke:#000000;stroke-width:0;stroke-linecap:round;stroke-linejoin:round" />
        </g>
        <g
           transform="matrix(0.26458333,0,0,0.26458333,-159.54589,53.920497)"
           id="g1354"
           style="fill:#e0d000;fill-opacity:1;stroke:none;stroke-width:0.46697044;stroke-dasharray:none;stroke-opacity:1">
          <path
             id="path1350"
             d="m 77.53583,192.92791 c 5.84979,3.37245 17.92472,15.03307 23.85198,22.84387 1.97856,2.76442 4.95567,7.4417 6.45685,10.50399 l 2.70449,5.6472 0.29087,22.19346 c 0.3082,17.65694 0.0301,23.83877 -1.20623,30.4234 -1.33277,6.58631 -1.45332,10.73857 -0.89223,20.76637 1.0801,17.64348 3.70831,24.4502 13.44568,34.8969 l 4.6241,5.03462 -3.77306,-0.51322 c -6.77254,-0.94347 -16.29048,-4.3484 -22.43647,-8.10174 C 79.82462,324.05237 68.230216,295.6862 72.47299,267.8157 c 0.780795,-5.03242 2.16794,-14.03256 3.12824,-19.84025 3.74638,-23.13257 0.57777,-44.31065 -8.50778,-56.11996 l -2.37124,-3.14362 3.77474,0.60973 c 2.03126,0.25408 6.11399,1.9201 9.03888,3.60631 z"
             inkscape:connector-curvature="0"
             style="fill:#e0d000;fill-opacity:1;stroke-width:0.46697044" />
          <path
             id="path1352"
             d="m 77.53583,192.92791 c 5.84979,3.37245 17.92472,15.03307 23.85198,22.84387 1.97856,2.76442 4.95567,7.4417 6.45685,10.50399 l 2.70449,5.6472 0.29087,22.19346 c 0.3082,17.65694 0.0301,23.83877 -1.20623,30.4234 -1.33277,6.58631 -1.45332,10.73857 -0.89223,20.76637 1.0801,17.64348 3.70831,24.4502 13.44568,34.8969 l 4.6241,5.03462 -3.77306,-0.51322 c -6.77254,-0.94347 -16.29048,-4.3484 -22.43647,-8.10174 C 79.82462,324.05237 68.230216,295.6862 72.47299,267.8157 c 0.780795,-5.03242 2.16794,-14.03256 3.12824,-19.84025 3.74638,-23.13257 0.57777,-44.31065 -8.50778,-56.11996 l -2.37124,-3.14362 3.77474,0.60973 c 2.03126,0.25408 6.11399,1.9201 9.03888,3.60631 z"
             inkscape:connector-curvature="0"
             style="fill:#e0d000;fill-opacity:1;stroke:#000000;stroke-width:0;stroke-linecap:round;stroke-linejoin:round" />
        </g>
        <g
           transform="matrix(0.26458333,0,0,0.26458333,-159.54589,53.920497)"
           id="g1360"
           style="fill:none;fill-opacity:1;stroke:none;stroke-width:0.46697044;stroke-dasharray:none;stroke-opacity:1">
          <path
             id="path1356"
             d="m 88.27717,106.06961 c -0.38089,0.29619 -0.6434,1.84502 -0.61646,3.3888 0.05726,3.28052 -7.04277,11.2222 -16.18753,18.1379 -8.85699,6.81416 -11.980396,10.34323 -13.153874,14.99645 -1.446096,5.62314 -0.446356,13.13389 2.242974,17.91271 2.48962,4.39626 12.70606,14.64159 14.4428,14.61127 0.675405,-0.0118 1.26106,0.36406 1.27116,0.94296 0.0084,0.48244 0.88522,0.94971 1.94656,0.93119 2.41215,-0.0421 2.39868,-0.81399 0.233885,-3.18909 -1.277895,-1.32891 -1.797375,-3.44319 -1.881585,-8.26748 -0.11116,-6.36808 -0.01636,-6.46625 6.56083,-16.71517 3.66527,-5.66187 7.40682,-12.48325 8.2314,-15.00705 1.64244,-5.43353 1.7399,-16.43798 0.06981,-23.64749 -1.0457,-4.61448 -1.83443,-5.56587 -3.15997,-4.095 z"
             inkscape:connector-curvature="0"
             style="fill:#000000;stroke-width:0.46697044" />
          <path
             id="path1358"
             d="m 88.27717,106.06961 c -0.38089,0.29619 -0.6434,1.84502 -0.61646,3.3888 0.05726,3.28052 -7.04277,11.2222 -16.18753,18.1379 -8.85699,6.81416 -11.980396,10.34323 -13.153874,14.99645 -1.446096,5.62314 -0.446356,13.13389 2.242974,17.91271 2.48962,4.39626 12.70606,14.64159 14.4428,14.61127 0.675405,-0.0118 1.26106,0.36406 1.27116,0.94296 0.0084,0.48244 0.88522,0.94971 1.94656,0.93119 2.41215,-0.0421 2.39868,-0.81399 0.233885,-3.18909 -1.277895,-1.32891 -1.797375,-3.44319 -1.881585,-8.26748 -0.11116,-6.36808 -0.01636,-6.46625 6.56083,-16.71517 3.66527,-5.66187 7.40682,-12.48325 8.2314,-15.00705 1.64244,-5.43353 1.7399,-16.43798 0.06981,-23.64749 -1.0457,-4.61448 -1.83443,-5.56587 -3.15997,-4.095 z"
             inkscape:connector-curvature="0"
             style="stroke:#000000;stroke-width:0;stroke-linecap:round;stroke-linejoin:round" />
        </g>
        <g
           transform="matrix(0.26458333,0,0,0.26458333,-159.54589,53.920497)"
           id="g1366"
           style="fill:#ff0000;fill-opacity:1;stroke:none;stroke-width:0.46697044;stroke-dasharray:none;stroke-opacity:1">
          <path
             id="path1362"
             d="m 90.75066,120.60026 c 0.08757,5.01727 -3.51875,14.05614 -8.59932,21.57651 -5.271845,7.62023 -8.40416,16.16825 -8.38276,22.92396 l 0.0096,6.0803 -4.61231,-4.3592 c -6.28121,-5.97083 -9.09397,-12.29175 -8.34012,-18.86796 0.33879,-2.70834 1.52574,-6.58967 2.84286,-8.54297 1.97063,-3.2194 9.58003,-9.62573 11.50975,-9.65941 1.44729,-0.0253 12.5509,-10.83577 13.09613,-12.77559 1.00408,-3.29906 2.39194,-1.19994 2.47615,3.62436 z"
             inkscape:connector-curvature="0"
             style="fill:#ff0000;stroke-width:0.46697044" />
          <path
             id="path1364"
             d="m 90.75066,120.60026 c 0.08757,5.01727 -3.51875,14.05614 -8.59932,21.57651 -5.271845,7.62023 -8.40416,16.16825 -8.38276,22.92396 l 0.0096,6.0803 -4.61231,-4.3592 c -6.28121,-5.97083 -9.09397,-12.29175 -8.34012,-18.86796 0.33879,-2.70834 1.52574,-6.58967 2.84286,-8.54297 1.97063,-3.2194 9.58003,-9.62573 11.50975,-9.65941 1.44729,-0.0253 12.5509,-10.83577 13.09613,-12.77559 1.00408,-3.29906 2.39194,-1.19994 2.47615,3.62436 z"
             inkscape:connector-curvature="0"
             style="fill:#ff0000;stroke:#000000;stroke-width:0;stroke-linecap:round;stroke-linejoin:round" />
        </g>
        <g
           transform="matrix(0.26458333,0,0,0.26458333,-159.54589,53.920497)"
           id="g1372"
           style="fill:none;fill-opacity:1;stroke:none;stroke-width:0.46697044;stroke-dasharray:none;stroke-opacity:1">
          <path
             id="path1368"
             d="m 300.40313,132.8658 c -3.46051,6.3339 -7.25933,9.87476 -19.47647,17.71273 -13.74241,8.92626 -15.90432,12.24552 -16.2643,24.7988 -0.24953,7.8221 -0.0363,8.97657 1.31446,8.95299 0.86838,-0.0152 1.53872,-0.31641 1.5303,-0.79884 -0.0438,-2.50863 5.49178,-6.07981 13.83384,-9.2174 11.60574,-4.15971 16.83501,-8.69069 21.49258,-18.32701 2.88496,-6.13083 3.05773,-7.29203 2.90952,-15.7828 -0.0876,-5.01727 -0.65758,-10.02612 -1.25336,-10.98087 -0.99516,-1.71991 -1.37436,-1.32723 -4.08657,3.6424 z"
             inkscape:connector-curvature="0"
             style="fill:#000000;stroke-width:0.46697044" />
          <path
             id="path1370"
             d="m 300.40313,132.8658 c -3.46051,6.3339 -7.25933,9.87476 -19.47647,17.71273 -13.74241,8.92626 -15.90432,12.24552 -16.2643,24.7988 -0.24953,7.8221 -0.0363,8.97657 1.31446,8.95299 0.86838,-0.0152 1.53872,-0.31641 1.5303,-0.79884 -0.0438,-2.50863 5.49178,-6.07981 13.83384,-9.2174 11.60574,-4.15971 16.83501,-8.69069 21.49258,-18.32701 2.88496,-6.13083 3.05773,-7.29203 2.90952,-15.7828 -0.0876,-5.01727 -0.65758,-10.02612 -1.25336,-10.98087 -0.99516,-1.71991 -1.37436,-1.32723 -4.08657,3.6424 z"
             inkscape:connector-curvature="0"
             style="stroke:#000000;stroke-width:0;stroke-linecap:round;stroke-linejoin:round" />
        </g>
        <g
           transform="matrix(0.26458333,0,0,0.26458333,-159.54589,53.920497)"
           id="g1378"
           style="fill:#ff0000;fill-opacity:1;stroke:none;stroke-width:0.46697044;stroke-dasharray:none;stroke-opacity:1">
          <path
             id="path1374"
             d="m 301.87927,151.08144 c -1.91505,6.40344 -2.94439,8.2552 -7.12073,12.28523 -3.89024,3.832 -6.56658,5.32645 -13.95054,8.06125 -4.98695,1.82433 -10.25326,4.23262 -11.68202,5.31923 -3.1453,2.27475 -3.25526,1.50455 -0.96438,-5.48455 2.66168,-7.8642 4.8354,-10.50806 15.50877,-18.31908 11.24723,-8.11058 15.42693,-11.94764 17.57539,-16.03878 l 1.49324,-2.92153 0.75962,4.81251 c 0.44994,3.65973 0.11452,6.56105 -1.61935,12.28572 z"
             inkscape:connector-curvature="0"
             style="fill:#ff0000;stroke-width:0.46697044" />
          <path
             id="path1376"
             d="m 301.87927,151.08144 c -1.91505,6.40344 -2.94439,8.2552 -7.12073,12.28523 -3.89024,3.832 -6.56658,5.32645 -13.95054,8.06125 -4.98695,1.82433 -10.25326,4.23262 -11.68202,5.31923 -3.1453,2.27475 -3.25526,1.50455 -0.96438,-5.48455 2.66168,-7.8642 4.8354,-10.50806 15.50877,-18.31908 11.24723,-8.11058 15.42693,-11.94764 17.57539,-16.03878 l 1.49324,-2.92153 0.75962,4.81251 c 0.44994,3.65973 0.11452,6.56105 -1.61935,12.28572 z"
             inkscape:connector-curvature="0"
             style="fill:#ff0000;stroke:#000000;stroke-width:0;stroke-linecap:round;stroke-linejoin:round" />
        </g>
      </g>
    </g>
  </g>
</svg>
