<?xml version="1.0" encoding="UTF-8" standalone="no"?>
<!DOCTYPE svg PUBLIC "-//W3C//DTD SVG 1.1//EN" "http://www.w3.org/Graphics/SVG/1.1/DTD/svg11.dtd">
<svg xmlns="http://www.w3.org/2000/svg" xmlns:dc="http://purl.org/dc/elements/1.1/" version="1.1" xmlns:xl="http://www.w3.org/1999/xlink" viewBox="75.51624 60.75 67.5 360" width="67.5" height="360">
  <defs>
    <clipPath id="artboard_clip_path">
      <path d="M 75.51624 60.75 L 143.01624 60.75 L 143.01624 420.75 L 75.51624 420.75 Z"/>
    </clipPath>
  </defs>
  <metadata> Produced by OmniGraffle 7.10.2 test 
    <dc:date>2019-03-13 06:47:41 +0000</dc:date>
  </metadata>
  <g id="Wheat,_Stalk_of_(2)" stroke-dasharray="none" stroke-opacity="1" fill="none" fill-opacity="1" stroke="none">
    <title>Wheat, Stalk of (2)</title>
    <g id="Wheat,_Stalk_of_(2): Layer 2" clip-path="url(#artboard_clip_path)">
      <title>Layer 2</title>
      <g id="Group_3">
        <g id="Graphic_76">
          <path d="M 104.00798 123.17735 C 104.0817 124.66669 104.02572 125.8779 103.82181 125.80369 C 103.6179 125.72947 103.16086 124.87035 102.79652 123.968 C 102.38895 122.97294 100.06622 120.04923 97.6198 117.46537 C 95.13015 114.7888 92.17695 112.3284 91.08943 111.93257 C 90.00191 111.53675 88.65476 111.43129 88.0058 111.73391 C 87.35683 112.03653 86.57168 113.13629 86.17586 114.22381 C 85.80477 115.24336 85.61835 118.71632 85.71631 121.83095 C 85.9682 126.84898 86.26457 127.7266 88.2477 129.67998 C 89.49564 130.90394 90.2863 132.1154 89.95869 132.38104 C 89.56312 132.62193 88.9204 132.6959 88.44461 132.52272 C 87.96882 132.34955 86.79459 132.61493 85.8675 133.04724 C 84.30994 133.94285 84.21098 134.21473 83.93785 138.3489 C 83.8259 140.77133 83.94235 144.04663 84.21998 145.6102 C 84.49761 147.17375 85.40521 149.96727 86.13389 151.77197 C 87.33811 154.59647 87.38733 155.30716 86.37978 156.17203 C 85.67509 156.83923 84.52485 159.57652 83.64024 162.64142 C 82.23611 167.13368 82.17389 168.57355 82.9578 171.70691 C 83.47632 173.66605 84.73001 176.3546 85.81728 177.59706 C 86.81185 178.88274 87.55302 180.23015 87.40458 180.63797 C 87.25615 181.04579 86.93479 181.08277 86.60119 180.73042 C 86.33556 180.40282 84.94517 180.20466 83.56703 180.39582 C 81.22481 180.69794 80.96518 180.98831 80.53187 183.44773 C 80.21626 184.94931 80.06708 187.897 80.21476 190.02907 C 80.36245 192.16113 80.86223 194.8062 81.28829 195.96195 C 81.73909 197.04972 83.2032 198.73722 84.50687 199.5966 C 85.85378 200.54867 86.66917 201.69216 86.47125 202.23592 C 86.2486 202.84765 85.42047 203.00808 84.40092 202.637 C 83.17746 202.1917 82.29985 202.48806 81.28604 203.58158 C 80.57511 204.47743 79.74648 206.33112 79.4556 207.76473 C 79.18947 209.13038 79.26894 212.08432 79.62053 214.2906 C 79.96588 216.72552 80.95395 219.08648 82.04122 220.32893 C 83.10999 221.4107 83.99335 222.57894 84.19102 222.8818 C 84.29597 223.2279 83.6655 223.6912 82.65195 223.93809 C 81.70637 224.20972 80.34647 225.4082 79.67251 226.6254 C 78.61523 228.47283 78.60249 229.77676 79.28744 233.182 C 79.8182 235.53047 80.77503 239.03467 81.47897 240.90734 C 82.18291 242.78 83.59129 244.8321 84.67256 245.45658 C 85.66112 246.12428 86.32208 247.05762 86.14891 247.5334 C 85.951 248.07717 85.06714 248.6022 84.17103 248.73788 C 83.27493 248.87357 81.79159 249.56526 80.85825 250.22622 C 79.2697 251.41845 79.23871 251.71506 80.06535 256.6344 C 80.55888 259.50812 81.85556 263.13602 82.93034 264.83577 C 83.96188 266.4428 84.76478 268.0436 84.73379 268.34022 C 84.6101 268.68007 84.12806 268.73554 83.65227 268.56237 C 83.10851 268.36446 81.93428 268.62984 80.98245 269.13012 C 79.93791 269.67363 79.27021 270.6622 79.12777 271.688 C 79.07804 272.67056 79.89893 276.12528 81.04118 279.54302 C 82.20816 282.8928 83.69026 286.43422 84.44393 287.32433 C 85.12962 288.1897 85.65464 289.07356 85.58042 289.27747 C 85.50621 289.48138 84.35047 289.90744 82.97233 290.0986 C 81.63742 290.38248 80.36423 290.91974 80.24053 291.2596 C 80.0921 291.6674 80.40671 293.55233 80.85726 295.48672 C 81.37578 297.44586 81.72738 299.65213 81.77661 300.36282 C 81.75787 301.04877 82.64722 302.83498 83.75299 304.2381 C 84.85875 305.64124 87.42262 308.1139 89.47996 309.86337 C 91.56204 311.54488 93.60713 312.90503 94.1324 312.94226 C 94.65767 312.9795 95.6215 313.71517 96.35042 314.67324 C 97.07935 315.63132 98.36428 317.17664 99.25389 318.11622 C 100.1435 319.0558 101.16255 321.12014 101.55138 322.80115 C 101.96495 324.4142 102.11888 326.3176 101.87149 326.9973 C 101.6241 327.677 101.44418 330.0747 101.56712 332.2747 C 101.66533 334.5427 101.92372 338.48547 102.19485 341.1243 C 102.39801 343.7384 102.70538 349.23847 102.77835 353.2677 C 102.85131 357.2969 103.12794 362.24697 103.32511 364.2431 C 103.52227 366.2392 103.63247 369.74316 103.57 372.02965 C 103.50753 374.31614 103.73468 379.40214 104.12901 383.3944 C 104.4801 387.2939 104.80621 392.10803 104.79947 394.02993 C 104.79272 395.95183 104.66803 399.6782 104.59306 402.42197 C 104.45012 405.141 104.14026 408.1072 103.86188 409.08353 C 103.58351 410.05985 103.43482 411.3143 103.6015 411.9138 C 103.70021 412.4885 103.54553 413.125 103.2674 413.2547 C 102.96453 413.45235 103.30413 414.42267 104.07629 415.47345 C 104.91642 416.549 106.48573 417.73595 107.70919 418.18126 C 109.20453 418.7255 110.48996 418.5776 111.88684 417.70047 C 113.28372 416.82336 113.87721 416.0387 113.67355 415.11786 C 113.55635 414.38243 113.57584 411.1566 113.63856 408.0235 C 113.70129 404.8904 113.7645 400.064 113.70353 397.27074 C 113.71053 394.5022 113.35393 388.29146 113.00309 383.5453 C 112.67698 378.7312 112.38885 370.8519 112.31614 365.97607 C 112.31139 361.12496 112.4993 352.57224 112.606 346.99196 C 112.80541 341.36844 113.40714 333.58213 113.99538 329.63962 C 114.58362 325.6971 115.43749 322.0822 115.83932 321.61267 C 116.24114 321.14313 118.12006 320.21054 119.96799 319.57457 C 121.8839 318.96334 124.78886 317.32656 126.38365 315.9057 C 128.7696 314.00303 129.82063 312.38424 131.57686 308.405 C 132.75184 305.59974 133.83436 301.9911 133.9708 300.3473 C 134.16296 298.33895 133.70616 296.6332 132.4892 295.11262 C 130.83368 292.8936 130.81519 292.73293 132.62739 287.54247 C 133.6232 284.59502 134.20494 281.7278 133.98878 281.26424 C 133.7294 280.708 133.68642 279.76865 133.88433 279.2249 C 134.03901 278.58842 133.7244 276.7035 133.10692 275.01625 C 132.18683 272.68004 132.15634 271.2834 132.94799 269.10836 C 133.49225 267.61302 134.07399 264.7458 134.1487 262.84863 C 134.24816 260.8835 134.4958 259.35717 134.63174 259.40665 C 134.76768 259.45613 134.47131 258.5785 133.97728 257.39804 C 133.45851 256.28553 132.2478 254.5363 131.35819 253.59672 C 130.09175 252.21208 129.79538 251.33447 130.30865 250.13575 C 130.72297 249.2089 132.00915 246.5211 133.17163 244.17313 C 134.57526 241.37412 135.45362 238.53787 135.75099 236.02898 C 136.04211 233.74873 135.73375 231.63517 135.14076 230.72657 C 134.21417 229.46563 134.31337 228.34712 135.66178 224.21945 C 136.56488 221.31523 137.11588 217.898 136.98669 215.9266 C 136.80802 214.09117 136.11657 211.7612 135.38764 210.80312 C 134.68345 209.77708 134.26364 208.3927 134.53577 207.64502 C 134.8079 206.89735 135.56831 205.86555 136.24826 205.26632 C 137.1631 204.44468 137.71361 202.7207 138.33884 199.09954 C 138.80313 196.3435 139.00804 193.03122 138.72416 191.69631 C 138.42804 189.97208 137.54468 188.80384 135.96913 187.84552 C 134.75192 187.17156 133.76335 186.50386 133.7881 186.4359 C 133.7881 186.4359 134.80814 185.11372 135.9024 183.58765 C 137.51594 181.48083 138.15291 179.94226 138.46877 177.59404 C 138.65469 175.81433 138.532 172.76768 138.08144 170.83328 C 137.69886 168.92363 136.72929 166.72335 135.99411 165.99392 C 134.9006 164.98012 134.86986 164.43011 135.80344 162.92253 C 136.40318 161.90923 137.47296 159.6045 138.11617 157.83727 C 138.8521 156.02682 139.34738 152.97417 139.28615 151.02753 C 139.2929 149.10563 138.57072 146.22565 137.81105 144.71757 C 136.37818 141.88682 136.3597 141.72614 138.40654 137.15991 C 139.62475 134.44736 140.60206 131.33923 140.59632 129.87463 C 140.65854 128.43476 140.0538 125.44359 139.26965 123.15685 L 137.75682 119.0654 L 140.05105 113.81947 C 141.95571 109.43241 142.27132 107.93082 142.04367 104.53807 C 141.92072 102.33804 141.46417 99.78567 140.9639 98.83384 C 140.37715 97.6966 140.41464 96.3247 141.1568 94.2856 C 141.7258 92.72229 142.1776 90.42356 142.16561 89.1876 C 142.19685 88.04436 141.53014 85.64642 140.81995 84.00239 C 140.06654 82.26566 138.3308 79.63258 136.88519 78.10575 C 135.43958 76.57893 133.19682 74.91591 131.83742 74.42113 C 129.79832 73.67896 129.03816 73.86413 126.70169 75.63085 C 125.13788 76.7551 123.53709 77.558 123.12927 77.40956 C 122.72145 77.26113 122.33262 75.58012 122.2714 73.63348 C 122.09922 70.72277 121.62368 69.70297 119.10929 67.09437 C 117.41654 65.40062 115.17378 63.737606 114.01829 63.31704 C 112.93077 62.92122 111.33023 62.87749 110.56382 63.291305 C 109.75417 63.61241 108.51797 64.471034 107.74531 65.1135 C 107.04062 65.780706 105.98959 67.39949 105.3836 68.64144 C 104.84559 69.90813 104.19013 71.286025 104.01696 71.761814 C 103.75108 72.280835 102.75002 72.07043 100.538 70.95742 C 97.53507 69.479575 97.30642 69.47333 94.24078 71.1286 C 91.63868 72.56771 91.09467 73.21643 90.76657 75.17531 C 90.61788 76.42976 90.62938 79.35896 90.86352 81.67644 C 91.07293 84.06188 91.65318 86.27441 92.12272 86.67623 C 92.81466 87.31295 92.74045 87.51686 91.57846 88.17157 C 90.81205 88.58539 89.52012 89.8086 88.667 90.88362 C 87.26987 92.60736 87.20165 93.42925 87.84886 99.05301 C 88.30516 102.45201 89.08282 105.81402 89.65732 106.56194 C 90.23181 107.30986 92.58552 109.93695 94.80329 112.51456 C 97.11377 115.04894 99.52321 117.31144 100.20291 117.55883 C 100.88261 117.80622 101.88991 117.78798 102.53888 117.48536 C 103.18784 117.18275 104.02247 115.94704 104.44304 114.79155 C 104.88834 113.56809 105.67349 112.46833 106.08756 112.38811 C 106.59433 112.26467 106.3467 113.791 105.40661 116.37385 C 104.59022 118.61686 104.00223 121.71274 104.00798 123.17735 Z M 104.0657 95.10275 L 104.0657 95.10275 C 104.33758 95.20171 104.66468 96.62933 104.8496 98.23612 C 104.94181 99.88614 105.071 101.85752 105.1882 102.59294 C 105.22494 103.76093 105.13223 103.80416 104.24887 102.63592 C 103.64963 101.95597 103.26055 101.12159 103.38425 100.78174 C 103.4832 100.50986 103.06339 99.12547 102.45816 97.82755 C 101.59354 95.97337 101.58754 95.35539 102.48365 95.2197 C 103.08313 95.05302 103.79382 95.0038 104.0657 95.10275 Z M 123.32569 102.88256 L 123.32569 102.88256 C 124.41321 103.27838 124.33274 103.71094 122.99709 106.5347 C 122.19319 108.3204 121.43853 110.8168 121.42578 112.12073 C 121.41304 113.42465 121.20263 114.42571 120.86278 114.30201 C 120.5909 114.20306 119.94843 113.4304 119.39868 112.61451 C 118.63277 111.33508 118.63901 111.10643 119.72053 110.88427 C 120.73409 110.63738 120.85778 110.29753 120.42547 109.37044 C 120.16609 108.81419 120.37674 106.9665 120.97048 105.33523 C 121.83635 102.95628 122.23817 102.48673 123.32569 102.88256 Z M 122.71446 121.90365 L 122.71446 121.90365 C 123.05431 122.02735 123.12828 122.67007 122.83766 123.25706 C 122.59027 123.93676 121.89783 124.99329 121.35382 125.642 C 120.45746 126.62432 120.3895 126.59958 120.53218 124.72716 C 120.7241 123.56542 121.05195 122.45316 121.37955 122.18753 C 121.79987 121.87867 122.30665 121.75522 122.71446 121.90365 Z M 118.99811 129.78792 L 118.99811 129.78792 C 119.40593 129.93636 119.33146 130.9869 118.9109 132.14238 C 118.49033 133.29787 117.94633 133.94659 117.63746 133.52627 C 117.37183 133.19867 117.37833 132.12339 117.72467 131.17181 C 118.04628 130.2882 118.65826 129.66423 118.99811 129.78792 Z M 117.7779 139.27348 L 117.7779 139.27348 C 118.29667 140.38599 118.30867 141.62194 117.98106 141.88758 C 117.58549 142.12847 117.15293 142.048 117.00474 141.6092 C 116.83182 141.23836 116.72712 140.04564 116.86955 139.01984 L 117.01224 137.14742 L 117.7779 139.27348 Z M 101.35091 143.37817 L 101.35091 143.37817 C 101.28294 143.35343 100.60349 142.25942 99.6769 140.99848 L 98.0956 138.57555 L 100.31437 137.76665 C 101.56282 137.29736 102.87324 136.23483 103.1701 135.41919 C 103.80083 134.10927 103.80083 134.10927 103.58417 135.33897 C 103.44798 136.13612 102.90972 138.24944 102.33447 140.0414 C 101.80246 141.92606 101.35091 143.37817 101.35091 143.37817 Z M 119.92021 146.28813 L 119.92021 146.28813 C 120.396 146.4613 120.11762 147.43762 119.27674 148.90198 C 118.55331 150.25513 117.49003 151.48459 116.93378 151.74397 C 116.28482 152.04659 116.29106 151.81794 116.92778 151.126 C 117.37908 150.52051 118.12725 149.09939 118.52307 148.01187 C 118.9189 146.92435 119.58036 146.16444 119.92021 146.28813 Z M 122.05852 166.8488 L 122.05852 166.8488 C 121.53925 167.42954 120.68613 168.50457 120.22858 169.3387 C 119.7278 170.08012 118.99837 170.8153 118.5843 170.89551 C 118.17024 170.97572 117.99731 170.60489 118.21997 169.99316 C 118.41788 169.4494 117.84988 167.6262 117.00375 165.9327 C 116.2256 164.26394 115.71932 162.69413 116.04692 162.4285 C 116.34979 162.23084 117.09746 162.50297 117.62872 163.15818 L 117.62872 163.15818 C 118.18473 163.74542 119.62434 164.65427 120.77983 165.07483 C 122.61502 165.74279 122.81269 166.04565 122.05852 166.8488 Z M 102.8545 157.85778 L 102.8545 157.85778 C 103.15112 157.88876 102.86025 159.32238 102.24177 161.02163 C 101.6233 162.72088 100.99258 164.0308 100.78867 163.95658 C 100.58476 163.88236 99.91755 163.17768 99.20711 162.38028 C 98.53991 161.67559 97.89744 160.90293 97.78624 160.78548 C 97.67504 160.66804 98.63312 159.9391 99.93729 159.10523 C 101.21672 158.33931 102.51465 157.73408 102.8545 157.85778 Z M 114.24972 179.6324 L 114.24972 179.6324 C 114.45363 179.70662 115.15157 180.96131 115.84327 182.44466 C 116.70789 184.29884 117.99907 185.6155 120.05041 186.747 L 123.00386 188.3608 L 120.66739 190.12751 C 119.38171 191.12207 118.12701 191.82002 117.85513 191.72106 C 117.51528 191.59736 117.43507 191.1833 117.60824 190.7075 C 117.75668 190.29969 117.4728 188.96478 116.97877 187.7843 C 116.48474 186.60382 115.57664 185.50356 114.96491 185.2809 C 114.35318 185.05825 113.66123 184.42154 113.35862 183.77257 C 113.056 183.1236 113.08724 181.98036 113.40884 181.09675 C 113.73045 180.21315 114.11378 179.58292 114.24972 179.6324 Z M 102.0886 177.51534 L 102.0886 177.51534 C 102.2925 177.58956 103.25008 178.55388 104.18292 179.58618 C 105.15899 180.71118 105.98063 181.62602 106.02386 181.71873 C 106.09183 181.74347 104.86162 183.22007 103.30381 184.9623 C 100.44782 188.1564 100.37985 188.13165 99.81185 186.30846 C 99.49699 185.27017 99.34906 183.98473 99.479 183.41623 C 99.60894 182.84774 100.10997 181.25969 100.69746 179.85706 C 101.19224 178.49766 101.88469 177.44112 102.0886 177.51534 Z M 96.03627 185.47308 L 96.03627 185.47308 C 96.69098 186.63506 97.11705 187.7908 96.99335 188.13065 C 96.89439 188.40253 96.59153 188.6002 96.31965 188.50124 C 95.9798 188.37754 95.25087 187.41947 94.61465 186.41816 C 93.97843 185.41685 93.75628 184.33533 94.17659 184.02647 C 94.64639 183.58166 95.2951 184.12567 96.03627 185.47308 Z M 100.03651 199.86072 L 100.03651 199.86072 C 100.24042 199.93494 101.08055 201.01046 101.8712 202.22192 C 102.72982 203.45813 103.19287 204.93523 102.99495 205.47899 C 102.7723 206.09072 102.17881 206.87537 101.64105 207.29543 C 100.89313 207.86993 100.52879 206.96758 100.17745 203.91468 C 99.87533 201.57246 99.8326 199.7865 100.03651 199.86072 Z M 127.2245 209.75634 L 127.2245 209.75634 C 127.53961 209.948 126.37762 210.60271 124.52969 211.23868 C 122.68176 211.87465 120.40102 213.27678 119.36247 214.43827 C 118.34867 215.5318 117.22967 217.12584 116.90806 218.00944 C 116.58645 218.89305 116.04244 219.54177 115.7026 219.41807 C 115.36274 219.29438 115.30752 217.96571 115.62313 216.46413 C 115.84603 215.00577 116.12466 213.18283 116.1434 212.49688 C 116.16839 211.58228 117.34886 211.08825 120.46973 210.76165 C 122.81195 210.45953 125.11093 210.0647 125.64245 209.87329 C 126.106 209.65713 126.81668 209.6079 127.2245 209.75634 Z M 114.58758 207.4661 L 114.58758 207.4661 C 114.9954 207.61454 115.2178 207.84943 115.16833 207.98537 C 115.09411 208.18928 114.69853 208.43018 114.2165 208.48565 C 113.80243 208.56587 113.51206 208.30623 113.63575 207.96638 C 113.78419 207.55856 114.24773 207.3424 114.58758 207.4661 Z M 100.59177 223.92484 L 100.59177 223.92484 C 100.79568 223.99905 101.37642 224.51832 101.90769 225.17353 C 102.64287 225.90296 102.64262 226.7496 101.9934 227.89883 C 101.44315 228.7762 100.83117 229.40017 100.55929 229.3012 C 100.35538 229.227 100.04052 228.1887 100.00378 227.02072 C 99.89908 225.828 99.88708 224.59204 99.98604 224.32016 C 100.085 224.04828 100.38786 223.85062 100.59177 223.92484 Z M 117.99758 232.56926 L 117.99758 232.56926 C 119.62886 233.163 119.64735 233.32368 118.20699 234.9547 C 117.40335 235.8938 116.44527 236.62272 116.17339 236.52376 C 115.90151 236.4248 115.70385 236.12194 115.82754 235.7821 C 115.9265 235.5102 116.0442 234.55239 116.1619 233.59456 C 116.26735 232.2474 116.57021 232.04974 117.99758 232.56926 Z M 95.85587 231.43802 L 95.85587 231.43802 C 96.60354 231.71015 97.60434 232.76718 98.12311 233.8797 C 98.59866 234.8995 98.77758 235.8883 98.56742 236.04273 C 98.31403 236.10446 97.21427 235.3193 96.07752 234.2128 C 94.96551 233.0383 94.15012 231.89482 94.27381 231.55497 C 94.39751 231.21512 95.1082 231.1659 95.85587 231.43802 Z M 101.07357 245.653 L 101.07357 245.653 C 101.44415 246.3267 101.52412 247.58738 101.22725 248.40302 C 100.90564 249.28663 100.28117 250.3679 99.8546 250.90542 C 99.42804 251.44293 98.8533 251.54164 98.58767 251.21403 C 98.32203 250.88642 98.61915 249.22416 99.23763 247.5249 C 100.20245 244.87408 100.46208 244.5837 101.07357 245.653 Z M 114.72154 256.1626 L 116.89033 257.1829 L 115.10287 262.30537 C 114.08857 265.09214 113.19772 268.3857 113.14174 269.5969 C 112.98681 271.08 112.81364 271.5558 112.39357 271.01803 C 112.12794 270.69042 112.33884 267.9961 112.85262 265.10414 C 113.40962 262.30488 113.52807 258.80717 113.15148 257.5155 L 112.48478 255.11755 L 114.72154 256.1626 Z M 100.54805 267.39938 L 100.54805 267.39938 C 100.96812 267.93714 101.54262 268.68506 101.89471 269.19808 C 102.17883 269.68637 102.11061 270.50825 101.70879 270.9778 C 101.30697 271.44734 100.75072 271.70673 100.47884 271.60777 C 100.20696 271.5088 99.99705 270.81662 99.97256 270.03796 C 99.9913 269.352 99.92983 268.252 99.92383 267.63402 C 99.83137 266.83063 100.06002 266.83688 100.54805 267.39938 Z M 113.18372 273.92274 L 113.18372 273.92274 C 113.31966 273.97222 113.35665 274.29358 113.20821 274.7014 C 113.08452 275.04125 112.62097 275.2574 112.21315 275.10897 C 111.8733 274.98527 111.86106 274.59595 112.18866 274.3303 C 112.54101 273.9967 112.97981 273.84853 113.18372 273.92274 Z M 116.35932 276.61805 L 116.35932 276.61805 C 117.58278 277.06335 117.68773 277.40945 116.90258 278.5092 C 116.37706 279.3186 115.60416 280.8077 115.18359 281.9632 C 114.63933 283.45853 114.33647 283.6562 114.20078 282.7601 C 114.05884 282.09263 114.17679 280.28818 114.42443 278.76185 C 114.78976 276.2777 114.99992 276.12327 116.35932 276.61805 Z M 119.38749 297.27167 L 119.38749 297.27167 C 119.51718 297.5498 118.74452 298.19227 117.63202 298.71104 C 116.49477 299.29778 115.75934 299.41498 115.90778 299.00716 C 116.08095 298.53137 116.85361 297.8889 117.68799 297.49982 C 118.52237 297.11075 119.32577 297.0183 119.38749 297.27167 Z M 100.02804 291.457 L 100.02804 291.457 C 100.43586 291.60543 100.85593 292.1432 100.9114 292.62523 C 101.03485 293.132 100.95438 293.56457 100.67626 293.69426 C 100.49084 293.78072 100.04603 293.31093 99.7929 292.52603 C 99.47179 291.7164 99.62022 291.30856 100.02804 291.457 Z M 97.06735 293.45837 L 97.06735 293.45837 C 97.47517 293.6068 97.852 294.05185 97.90748 294.5339 C 97.98769 294.94796 97.59212 295.18885 97.04836 294.99094 C 96.43663 294.7683 96.08453 294.25526 96.20823 293.9154 C 96.35666 293.5076 96.7275 293.33467 97.06735 293.45837 Z M 102.16036 311.3997 L 102.16036 311.3997 C 103.69243 313.11193 104.47683 314.55204 104.01329 314.7682 C 103.54974 314.98435 102.50545 314.68124 101.65283 314.063 C 100.84344 313.5375 99.7994 312.38775 99.47829 311.5781 C 99.06447 310.8117 98.91029 309.7549 99.1082 309.21116 C 99.33085 308.59943 100.25145 309.2424 102.16036 311.3997 Z M 94.21308 206.97808 L 94.21308 206.97808 C 95.16466 207.32442 96.06052 208.03536 96.14073 208.44943 C 96.23944 209.02417 95.73891 208.91897 94.54644 208.17705 C 93.62584 207.53408 92.70525 206.89111 92.61879 206.7057 C 92.53233 206.52028 93.19353 206.607 94.21308 206.97808 Z" fill="black"/>
        </g>
        <g id="Graphic_75">
          <path d="M 111.85425 67.14785 C 112.53395 67.39524 113.97331 69.150715 114.9059 71.029634 C 115.9312 72.86532 116.73984 75.93072 116.80106 77.87736 C 116.86828 80.44198 116.46621 81.75814 115.43992 83.30896 C 114.37039 84.76707 113.53601 85.15614 112.26307 84.84678 C 111.28675 84.5684 109.71745 83.38143 108.83409 82.2132 C 107.88276 81.02022 107.28377 79.49365 107.53116 78.81395 C 107.80329 78.06628 107.58738 76.75611 107.04387 75.71157 C 106.4324 74.64229 106.4204 73.40634 106.97066 72.528975 C 107.40346 71.76281 107.70658 70.71852 107.5399 70.11904 C 107.4412 69.54429 108.1089 68.55573 108.97427 67.87003 C 109.83964 67.184335 111.17455 66.90046 111.85425 67.14785 Z" fill="#f3f3f3"/>
        </g>
        <g id="Graphic_74">
          <path d="M 130.91558 78.011295 C 131.5273 78.23395 132.53436 79.06233 133.12735 79.97093 C 133.74508 80.81156 134.12791 81.87459 133.97948 82.28241 C 133.83104 82.69023 133.29353 82.26367 132.79325 81.31184 C 132.12005 79.98917 131.62576 79.65532 130.79138 80.0444 C 130.04971 80.39024 129.67863 81.40979 129.47397 83.87545 C 129.26331 85.72314 128.78677 88.08984 128.36621 89.24533 C 127.97038 90.33285 126.97507 91.58705 126.14069 91.97613 C 124.7748 92.55662 124.57089 92.4824 123.89768 91.15974 C 123.4159 90.36859 122.90937 89.64541 122.63749 89.54645 C 122.43358 89.47223 122.22317 90.47329 122.11772 91.82045 C 122.037 93.09963 122.06749 94.49626 122.28365 94.95981 C 122.4998 95.42335 123.15476 95.73871 123.77274 95.73272 C 124.39072 95.72672 126.01625 94.85585 127.43787 93.91077 C 129.05116 92.65058 130.44829 90.92684 131.3264 88.93722 C 132.01285 87.26271 132.67455 85.65617 132.79825 85.31632 C 132.96517 85.06918 133.37924 84.98896 133.71909 85.11266 C 134.12691 85.26109 133.8298 86.92336 133.16184 88.75855 C 132.32071 91.06952 130.96056 93.11462 129.10613 94.82587 C 127.4866 96.31471 125.59518 97.7046 124.78554 98.0257 C 123.6298 98.45177 123.15401 98.27859 122.13471 97.06088 C 121.42428 96.26348 120.75732 94.71217 120.65262 93.51945 C 120.52317 92.39469 120.96898 89.47798 121.6062 87.09279 C 122.54028 83.89195 123.46162 81.99504 125.06891 80.11687 C 126.36709 78.66501 127.9309 77.54075 128.5921 77.627465 C 129.27805 77.64621 130.34708 77.88135 130.91558 78.011295 Z" fill="#f3f3f3"/>
        </g>
        <g id="Graphic_73">
          <path d="M 96.77341 74.7445 C 97.11326 74.86819 97.31092 75.17106 97.21197 75.44294 C 97.08827 75.78279 97.74273 77.7914 98.6196 80.03491 C 99.92877 83.20551 100.0767 84.49094 99.2853 85.81935 C 98.51864 87.0798 98.52464 87.69778 99.4205 88.40871 C 100.09395 88.88475 100.95282 89.27433 101.36689 89.19411 C 101.80569 89.04593 102.20152 87.95841 102.28848 86.45058 C 102.3507 85.01071 101.78295 82.34089 101.07901 80.46822 C 100.3071 78.57081 99.73285 76.97626 99.78233 76.84032 C 99.83181 76.70438 100.59173 77.36584 101.41336 78.280685 C 102.30297 79.22027 103.34051 81.44529 103.84054 83.24374 C 104.31583 85.11017 104.43878 87.31019 104.09243 88.26177 C 103.74609 89.21335 102.86822 90.35635 102.14504 90.86288 C 101.2117 91.52383 100.38982 91.45561 99.22208 90.64572 C 98.30149 90.00276 96.84988 87.85795 95.8988 85.81836 C 94.94772 83.77876 94.04637 80.75659 93.9789 79.0386 C 93.72626 76.56045 93.97365 75.88075 94.97496 75.24453 C 95.64866 74.87394 96.43356 74.6208 96.77341 74.7445 Z" fill="#f3f3f3"/>
        </g>
        <g id="Graphic_72">
          <path d="M 113.26863 90.75492 C 113.54051 90.85388 114.26944 91.81195 114.99212 92.99868 C 115.67157 94.0927 116.41874 96.05808 116.56667 97.34351 C 116.73935 98.56097 116.81282 100.89694 116.81232 102.59019 C 116.7251 104.94465 116.39725 106.05691 115.1423 107.60148 C 114.26444 108.74447 113.18892 109.5846 112.63891 109.61534 C 112.18161 109.60284 111.32899 108.98462 110.72976 108.30467 C 110.06255 107.59998 108.87682 104.93616 108.08042 102.26009 C 106.90744 98.29234 106.82748 97.03165 107.76131 94.67744 C 108.63942 92.68782 109.46781 91.68076 110.92017 91.28569 C 111.9832 90.90285 113.06472 90.6807 113.26863 90.75492 Z" fill="#f3f3f3"/>
        </g>
        <g id="Graphic_71">
          <path d="M 133.41173 100.54959 C 134.51774 101.10609 134.97479 101.96521 134.89408 103.2444 C 134.81961 104.29493 134.20713 106.61216 133.63189 108.40412 C 133.0319 110.26404 131.67775 112.92712 130.6762 114.40996 C 129.67464 115.89281 127.93766 117.49285 126.84989 117.94365 C 125.5767 118.48092 124.34075 118.49291 123.82797 117.99838 C 123.29046 117.57182 122.93237 116.44082 122.93262 115.59419 C 122.9576 114.6796 123.26097 112.78868 123.59507 111.44777 C 123.8612 110.08213 124.34374 108.3334 124.61587 107.58573 C 124.888 106.83806 125.54346 105.46017 126.02575 104.55807 C 126.576 103.6807 128.10283 102.23509 129.43174 101.33324 C 131.15623 100.1905 132.23775 99.96834 133.41173 100.54959 Z" fill="#f3f3f3"/>
        </g>
        <g id="Graphic_70">
          <path d="M 94.24578 96.07008 C 94.97446 97.87478 95.99951 100.5571 96.4873 101.96622 C 96.88237 103.41858 97.01781 105.16131 96.67771 105.88424 C 96.17069 106.85431 96.49804 107.4353 97.87593 108.09077 C 99.04992 108.67201 99.73586 108.69075 99.98325 108.01105 C 100.18117 107.46729 99.73686 105.30425 99.13188 103.15969 C 98.45893 100.9904 97.46461 98.8581 96.99507 98.45627 C 96.4823 97.96174 96.20442 97.24481 96.35285 96.83699 C 96.50129 96.42917 97.4836 97.32552 98.51515 98.93256 C 99.47872 100.51486 100.63996 102.40003 101.02904 103.23441 C 101.44286 104.00082 101.94289 105.79928 102.10931 107.24539 C 102.27574 108.6915 102.23201 110.29204 102.00936 110.90377 C 101.78671 111.5155 101.08827 111.95406 100.44555 112.02802 C 99.7596 112.00928 98.11608 111.02622 96.77542 109.84549 C 95.36679 108.64002 93.44564 106.0934 92.46982 104.12177 C 91.38905 101.80404 90.79656 99.2022 90.95799 96.64383 C 91.03295 93.90004 91.29284 92.76304 91.97879 92.78178 C 92.43608 92.79428 93.44914 94.24064 94.24578 96.07008 Z" fill="#f3f3f3"/>
        </g>
        <g id="Graphic_69">
          <path d="M 113.1197 113.79299 C 113.73143 114.01564 114.64578 114.88726 115.12757 115.67841 C 115.63409 116.40159 116.47397 118.32374 116.91228 119.8688 C 117.51726 122.01336 117.40556 123.58916 116.416 126.30796 C 115.67383 128.34706 114.23321 130.82472 113.28738 131.94297 C 112.06342 133.19092 110.92618 133.77766 110.11054 133.4808 C 109.43084 133.2334 108.36831 131.92298 107.81255 130.48912 C 107.23206 129.12322 106.65806 126.68205 106.59059 124.96406 C 106.49838 123.31404 106.88846 120.76191 107.43272 119.26657 C 107.95224 117.8392 109.19494 115.90531 110.13452 115.0157 C 111.16681 114.08286 112.44 113.5456 113.1197 113.79299 Z" fill="#f3f3f3"/>
        </g>
        <g id="Graphic_68">
          <path d="M 131.74273 123.11137 C 132.36045 123.952 132.99642 125.79993 133.13811 127.31401 C 133.34777 128.85283 132.97618 131.56563 132.25875 133.53676 C 131.3434 136.05165 130.05748 137.89284 127.75799 139.98092 C 125.31632 142.24817 124.08637 142.87814 122.67749 142.5193 C 121.1759 142.20369 120.80531 141.52998 120.50944 138.95912 C 120.28754 137.03097 120.67137 134.7075 121.38256 132.96502 C 122.01952 131.42645 123.28097 128.8066 124.17132 127.20631 C 125.18537 125.26617 126.66897 123.72785 128.24502 122.99292 C 130.4268 121.86267 130.81614 121.85043 131.74273 123.11137 Z" fill="#f3f3f3"/>
        </g>
        <g id="Graphic_67">
          <path d="M 92.33039 115.92506 C 93.05932 116.88313 94.47394 118.70658 95.53647 120.017 C 96.62374 121.25945 98.11858 123.49696 98.83502 124.91233 C 99.61942 126.35245 100.38533 127.63188 100.58924 127.7061 C 100.86112 127.80505 101.08327 128.88658 101.1385 130.21524 C 101.19972 132.16188 100.97707 132.77361 99.50597 133.85463 C 98.45519 134.62679 97.12028 134.91067 96.1687 134.56432 C 95.28509 134.24271 93.96917 132.99401 93.20326 131.71458 C 92.41261 130.50311 91.47377 128.85284 91.08469 128.01846 C 90.69561 127.18408 90.23881 125.47834 90.02291 124.16816 C 89.87497 122.88273 89.64707 120.33661 89.60434 118.55065 C 89.49364 116.73995 89.79076 115.07768 90.23581 114.70085 C 90.77357 114.28078 91.33583 114.63937 92.33039 115.92506 Z" fill="#f3f3f3"/>
        </g>
        <g id="Graphic_66">
          <path d="M 117.59998 134.89817 C 117.72967 135.1763 117.57499 135.81276 117.1979 136.21433 C 116.79608 136.68388 116.66639 136.40575 116.93852 135.65808 C 117.14268 134.88567 117.49502 134.55207 117.59998 134.89817 Z" fill="#f3f3f3"/>
        </g>
        <g id="Graphic_65">
          <path d="M 111.39447 138.41261 C 112.06767 139.73528 113.09872 143.03557 113.5985 145.68065 C 114.11052 148.71506 114.19624 151.44036 113.67672 152.86773 C 113.23141 154.09119 112.18663 155.48132 111.37698 155.80243 C 110.61057 156.21625 109.34988 156.29621 108.67018 156.04882 C 107.92251 155.7767 106.68681 154.94206 105.84043 154.09519 C 104.95082 153.1556 104.27162 151.21496 104.14868 149.01493 C 104.01948 147.04355 104.4408 143.34819 105.2202 140.78382 C 106.46365 136.31004 106.63058 136.0629 108.34857 135.99543 C 109.81317 135.98969 110.41865 136.44099 111.39447 138.41261 Z" fill="#f3f3f3"/>
        </g>
        <g id="Graphic_64">
          <path d="M 129.4435 145.28982 C 131.12426 145.74762 131.56281 146.44606 132.11832 148.72655 C 132.55638 151.11824 132.3892 152.21201 130.89286 155.05426 C 129.90355 156.92643 128.61137 158.99626 127.93142 159.5955 C 127.31944 160.21947 125.89782 161.16456 124.85328 161.70807 C 123.784 162.31955 122.17722 162.50447 121.36158 162.2076 C 120.54594 161.91073 119.4834 160.6003 119.08208 159.3766 C 118.63753 158.06018 118.66901 156.07031 119.08958 154.91482 C 119.51014 153.75933 120.66638 151.64002 121.59997 150.13243 C 122.60152 148.64959 124.27678 146.79616 125.46351 146.07348 C 126.69971 145.21485 128.1953 144.91249 129.4435 145.28982 Z" fill="#f3f3f3"/>
        </g>
        <g id="Graphic_63">
          <path d="M 89.69806 136.05791 C 89.96994 136.15687 91.58847 138.05453 93.28722 140.36626 C 94.94274 142.58528 96.8514 145.5892 97.40715 147.02306 C 98.03088 148.48167 98.46894 150.87336 98.44995 152.40594 C 98.43095 153.9385 98.04113 155.644 97.61457 156.18152 C 97.12003 156.6943 95.99528 156.82373 95.0437 156.47739 C 94.09212 156.13104 92.60928 155.12948 91.78764 154.21464 C 90.966 153.2998 89.87898 151.21072 89.32947 149.5482 C 88.77997 147.88569 88.30517 144.32601 88.19472 141.66868 C 88.08427 139.01136 88.26419 136.61367 88.5918 136.34803 C 88.9194 136.0824 89.42618 135.95896 89.69806 136.05791 Z" fill="#f3f3f3"/>
        </g>
        <g id="Graphic_62">
          <path d="M 133.3133 161.93921 C 133.38126 161.96395 133.35028 162.26057 133.20184 162.6684 C 133.07815 163.00824 132.4107 163.15018 131.79896 162.92753 C 130.77941 162.55644 130.76092 162.39576 131.84244 162.17361 C 132.5099 162.03167 133.17735 161.88973 133.3133 161.93921 Z" fill="#f3f3f3"/>
        </g>
        <g id="Graphic_61">
          <path d="M 107.02541 159.29889 C 107.90902 159.6205 109.36687 161.53665 110.51562 163.87911 C 111.99172 166.80257 112.34956 168.7802 112.05219 171.28909 C 111.73008 173.86595 111.26004 175.15738 110.01134 176.4733 C 109.02228 177.49885 107.88503 178.08559 107.13736 177.81346 C 106.45766 177.56607 105.18498 176.41008 104.23365 175.2171 C 103.25758 174.0921 102.44244 172.10198 102.26976 170.88452 C 102.09709 169.66706 102.43169 166.6329 103.00094 164.22296 C 103.57019 161.81303 104.38657 159.57002 104.78215 159.32912 C 105.1345 158.99552 106.1418 158.97728 107.02541 159.29889 Z" fill="#f3f3f3"/>
        </g>
        <g id="Graphic_60">
          <path d="M 127.0763 167.44353 C 127.37292 167.47452 128.2193 168.3214 128.88026 169.25473 C 129.54121 170.18807 130.08447 172.07923 130.04699 173.45113 C 129.98477 174.891 129.25484 177.31942 128.24079 179.25956 C 127.22674 181.1997 125.64419 183.0099 124.45746 183.73259 C 123.20277 184.43053 121.66395 184.64019 120.6444 184.2691 C 119.69282 183.92275 118.5993 182.90895 118.30293 182.03134 C 117.98182 181.2217 117.90836 178.88573 118.07578 176.94534 C 118.41038 173.91118 118.79996 173.0523 120.30205 171.67467 C 121.26637 170.71709 122.23694 169.53086 122.38538 169.12304 C 122.55855 168.64725 123.55986 168.01103 124.64138 167.78888 C 125.67967 167.47402 126.80442 167.34458 127.0763 167.44353 Z" fill="#f3f3f3"/>
        </g>
        <g id="Graphic_59">
          <path d="M 89.6171 159.12072 C 90.09289 159.2939 91.5445 161.4387 92.87241 163.92335 C 94.22507 166.34003 95.60221 169.53537 95.99728 170.98773 C 96.39236 172.44008 96.61426 174.36823 96.58927 175.28283 C 96.56429 176.19742 95.67393 177.79772 94.54268 179.00244 C 92.84268 180.92384 92.40388 181.07202 90.92103 180.07047 C 89.93247 179.40276 88.57357 177.21473 87.78317 175.15664 C 86.77661 172.635 86.456 170.1321 86.85232 167.35134 C 87.11871 165.13906 87.16893 162.46325 86.96527 161.5424 C 86.74937 160.23223 86.87931 159.66373 87.71369 159.27465 C 88.26994 159.01527 89.14131 158.94755 89.6171 159.12072 Z" fill="#f3f3f3"/>
        </g>
        <g id="Graphic_58">
          <path d="M 132.70757 183.27154 C 133.11539 183.41997 132.82477 184.00696 132.12008 184.67417 C 131.37216 185.24866 130.69846 185.61925 130.63673 185.36586 C 130.55027 185.18045 130.79766 184.50075 131.2922 183.98797 C 131.71876 183.45046 132.36772 183.14784 132.70757 183.27154 Z" fill="#f3f3f3"/>
        </g>
        <g id="Graphic_57">
          <path d="M 128.6701 190.34616 C 129.28183 190.56881 130.07873 191.55163 130.32562 192.56518 C 130.64049 193.60347 130.34936 195.88372 129.73089 197.58297 C 129.11241 199.28222 127.52961 201.93904 126.27467 203.4836 C 124.95175 205.00344 122.76972 206.98032 121.39757 207.78946 C 119.16631 209.05565 118.70901 209.04316 117.66497 207.89341 C 116.99777 207.18873 116.38029 205.50147 116.13965 204.25927 C 115.99171 202.97384 116.15914 201.03345 116.48699 199.92119 C 116.7901 198.8769 117.94635 196.75758 119.04061 195.2315 C 120.0669 193.6807 121.6742 191.80252 122.58904 190.98088 C 123.50389 190.15925 124.93775 189.6035 125.80287 189.76442 C 126.73596 189.9501 128.03364 190.19148 128.6701 190.34616 Z" fill="#f3f3f3"/>
        </g>
        <g id="Graphic_56">
          <path d="M 108.08645 186.62606 C 109.106 186.99715 110.29222 187.96772 110.72453 188.8948 C 111.18158 189.75393 111.40373 190.83545 111.20582 191.37921 C 111.03265 191.855 111.08787 193.18367 111.31003 194.26519 C 111.60015 195.37145 111.39549 197.8371 110.97468 199.83922 C 110.22601 202.9536 109.9169 203.3799 108.35334 203.65754 C 107.38926 203.7685 105.75173 203.4034 104.76317 202.7357 C 103.63867 202.01851 102.69983 200.36824 102.14433 198.08775 C 101.66904 196.22133 101.65754 193.29212 102.04737 191.58662 C 102.56089 189.54128 103.35229 188.21286 104.54526 187.26153 C 105.68876 186.44614 106.93096 186.2055 108.08645 186.62606 Z" fill="#f3f3f3"/>
        </g>
        <g id="Graphic_55">
          <path d="M 87.63223 184.03072 C 89.05336 184.77889 91.24039 186.8065 92.45111 188.55572 C 94.10663 190.77473 94.93401 193.15418 95.21739 196.18235 C 95.59947 199.78525 95.48177 200.74308 94.5052 201.31133 C 93.8315 201.68192 92.63878 201.78662 91.75517 201.46501 C 90.93953 201.16814 89.48142 200.09862 88.52385 199.1343 C 87.59101 198.102 86.34331 196.03141 85.76906 194.43687 C 85.19481 192.84232 84.62706 190.1725 84.49162 188.42977 C 84.35618 186.68704 84.38767 184.69717 84.6598 183.9495 C 85.05562 182.86198 85.51292 182.87448 87.63223 184.03072 Z" fill="#f3f3f3"/>
        </g>
        <g id="Graphic_54">
          <path d="M 132.50292 206.6742 C 132.56464 206.92759 132.16282 207.39713 131.60656 207.65651 C 130.9576 207.95913 130.59301 207.9034 130.74145 207.49559 C 130.88988 207.08777 131.2917 206.61822 131.6378 206.51327 C 131.94067 206.3156 132.37322 206.39607 132.50292 206.6742 Z" fill="#f3f3f3"/>
        </g>
        <g id="Graphic_53">
          <path d="M 129.44302 209.79407 C 129.98678 209.99198 130.56752 210.51125 130.623 210.9933 C 130.70321 211.40736 130.1717 211.59877 129.42403 211.32664 C 128.60839 211.02977 128.12035 210.46727 128.24405 210.12742 C 128.39248 209.7196 128.89926 209.59616 129.44302 209.79407 Z" fill="#f3f3f3"/>
        </g>
        <g id="Graphic_52">
          <path d="M 130.30739 212.49488 C 130.37536 212.51962 130.32588 212.65556 130.15895 212.9027 C 129.96729 213.2178 130.072 214.41053 130.31264 215.65273 C 130.76944 217.35848 130.5033 218.72412 129.16764 221.54788 C 128.22156 223.51276 126.73772 225.8977 125.82287 226.71934 C 124.90803 227.54098 123.0661 228.79493 121.67546 229.4434 C 120.32805 230.18456 119.01163 230.62912 118.67179 230.50542 C 118.3999 230.40647 117.67098 229.4484 117.12747 228.40385 C 116.65193 227.38405 116.38679 225.3632 116.58496 223.9728 C 116.88207 222.31054 117.9456 220.23446 119.46643 218.17087 C 120.8883 216.37916 122.53882 214.5937 123.1693 214.1304 C 123.86773 213.69185 125.69093 213.12385 127.22975 212.9142 C 128.76857 212.70453 130.14671 212.51337 130.30739 212.49488 Z" fill="#f3f3f3"/>
        </g>
        <g id="Graphic_51">
          <path d="M 107.90728 207.42088 C 108.2039 207.45186 109.09951 209.00942 109.87142 210.90684 C 110.6001 212.71154 111.08138 215.19594 110.88947 216.35768 C 110.69755 217.51941 110.13455 219.7007 109.61503 221.12807 C 109.12025 222.48747 108.05073 223.94557 107.28431 224.3594 C 106.19655 224.8102 105.42414 224.60603 103.96603 223.5365 C 102.86627 222.75135 101.6493 221.23078 101.35918 220.12452 C 100.97635 219.06148 100.76694 216.67604 100.79218 214.91482 C 100.8549 211.7817 101.00334 211.37388 103.09266 209.44024 C 104.35985 208.285 105.78147 207.3399 106.33148 207.30918 C 106.88149 207.27844 107.6354 207.32192 107.90728 207.42088 Z" fill="#f3f3f3"/>
        </g>
        <g id="Graphic_50">
          <path d="M 85.69785 205.41827 C 86.17364 205.59144 87.97759 207.40264 89.7753 209.4425 C 91.50503 211.4576 93.51889 213.961 94.24782 214.91907 C 94.95201 215.94511 95.76715 217.93523 95.93358 219.38135 C 96.16797 220.8522 95.85836 222.97176 95.22764 224.28168 C 94.23208 226.3825 93.95395 226.5122 91.63673 225.89972 C 89.38747 225.31198 88.85621 224.65677 86.52174 219.65048 C 85.02715 216.56634 83.74296 212.48115 83.52106 210.553 C 83.29916 208.62485 83.51606 206.54852 84.01059 206.03575 C 84.43715 205.49823 85.22206 205.2451 85.69785 205.41827 Z" fill="#f3f3f3"/>
        </g>
        <g id="Graphic_49">
          <path d="M 131.88495 227.6172 C 132.29277 227.76563 132.46569 228.13647 132.342 228.47632 C 132.19356 228.88414 131.7485 229.26097 131.26647 229.31644 C 130.8524 229.39666 130.61151 229.00108 130.80942 228.45732 C 131.03207 227.8456 131.5451 227.4935 131.88495 227.6172 Z" fill="#f3f3f3"/>
        </g>
        <g id="Graphic_48">
          <path d="M 126.99461 234.92022 C 128.11287 235.86605 128.22382 236.83013 127.72254 239.2648 C 127.40068 240.99504 126.52857 243.60263 125.80514 244.9558 C 125.14968 246.33368 123.45568 248.87306 122.15125 250.55356 C 120.04319 253.17316 119.34474 253.6117 117.083 253.48127 C 115.18583 253.40656 114.23425 253.0602 113.54856 252.19484 C 113.01729 251.53963 112.64695 250.0193 112.63496 248.78335 C 112.69093 247.57213 112.96956 245.7492 113.34064 244.72964 C 113.68699 243.77806 114.97917 241.70822 116.20938 240.23163 C 117.37161 238.7303 119.96771 236.6732 121.96408 235.6294 C 125.07296 234.06685 125.80838 233.94965 126.99461 234.92022 Z" fill="#f3f3f3"/>
        </g>
        <g id="Graphic_47">
          <path d="M 107.84557 228.1045 C 108.11745 228.20344 108.6857 229.18 109.1365 230.26778 C 109.56256 231.42352 109.89566 233.46912 109.90141 234.93372 C 109.83919 236.37358 109.43687 238.53638 108.99156 239.75984 C 108.49678 241.11924 107.31606 242.4599 105.94391 243.26904 L 103.73739 244.46726 L 102.27353 241.93313 C 101.2235 240.1654 100.97686 238.30523 101.26798 236.025 C 101.5591 233.74475 102.20231 231.97753 103.19762 230.72333 C 104.026 229.71628 105.33643 228.65375 106.05336 228.37587 C 106.81352 228.1907 107.64166 228.03027 107.84557 228.1045 Z" fill="#f3f3f3"/>
        </g>
        <g id="Graphic_46">
          <path d="M 85.43197 226.8743 C 85.90776 227.04746 87.13722 228.11074 88.18126 229.26048 C 89.2253 230.41022 90.95503 232.42533 91.92485 233.77899 C 92.89468 235.13264 94.25957 237.93865 94.8893 240.01523 C 95.7784 242.64807 95.80264 244.27335 95.17192 245.58327 C 94.37428 247.14033 93.93547 247.28852 91.89012 246.775 C 90.48125 246.41615 88.72652 245.31564 87.63925 244.0732 C 86.66318 242.9482 85.31053 240.5315 84.67456 238.68357 C 84.03859 236.83564 83.48958 233.47987 83.47783 231.3973 C 83.49083 229.24674 83.75096 227.26312 84.05383 227.06545 C 84.38143 226.79982 85.02415 226.72585 85.43197 226.8743 Z" fill="#f3f3f3"/>
        </g>
        <g id="Graphic_45">
          <path d="M 128.62839 247.9847 C 128.8323 248.0589 129.00523 248.42975 129.15341 248.86856 C 129.23362 249.28262 128.92451 249.70894 128.41774 249.83238 C 128.00367 249.9126 127.76277 249.51702 127.96069 248.97326 C 128.18334 248.36153 128.49245 247.93522 128.62839 247.9847 Z" fill="#f3f3f3"/>
        </g>
        <g id="Graphic_44">
          <path d="M 105.54059 248.81834 C 105.81247 248.9173 106.62186 249.4428 107.29532 249.91885 C 108.03674 250.41963 109.09902 252.57667 109.66077 254.62852 C 110.37071 257.11917 110.48741 259.54784 109.9429 261.8898 C 109.3799 264.0711 108.47705 266.1287 107.46325 267.2222 C 106.59163 268.13655 105.56559 268.84074 105.15777 268.6923 C 104.74995 268.54387 103.52699 266.40532 102.42772 263.9269 C 100.89615 260.52142 100.60628 258.56853 100.93463 255.76302 C 101.40517 252.77834 101.77626 251.7588 103.27834 250.38115 C 104.31064 249.4483 105.33668 248.74412 105.54059 248.81834 Z" fill="#f3f3f3"/>
        </g>
        <g id="Graphic_43">
          <path d="M 123.50916 256.1281 C 123.50916 256.1281 124.40501 256.83904 125.41207 257.66742 C 126.41912 258.4958 127.09232 259.81847 127.06734 260.73307 C 126.97438 261.62292 126.46085 263.66827 125.89186 265.23158 C 125.32286 266.7949 124.33355 268.66706 123.67209 269.42698 C 123.01063 270.1869 121.99058 271.50906 121.41559 272.4544 C 120.77262 273.37498 119.60439 274.25834 118.70828 274.39403 C 117.58353 274.52348 116.83586 274.25135 116.15016 273.38598 C 115.57567 272.63806 115.1621 271.02502 115.13161 269.6284 C 115.14436 268.32447 115.67037 265.82182 116.31359 264.0546 C 116.93206 262.35535 118.18101 260.1928 119.02789 259.34643 C 119.80679 258.4753 121.20992 257.36955 122.00107 256.88777 C 122.76748 256.47395 123.44119 256.10336 123.50916 256.1281 Z" fill="#f3f3f3"/>
        </g>
        <g id="Graphic_42">
          <path d="M 86.35807 250.76548 C 87.27866 251.40845 89.39773 253.4113 91.01626 255.30897 C 92.6348 257.20663 94.22235 259.4009 94.50022 260.11785 C 94.75336 260.90275 95.17917 262.9051 95.40732 264.6046 L 95.82664 267.68225 L 93.79329 268.4047 C 92.63755 268.83075 91.08024 268.87973 90.17189 268.6261 C 89.28828 268.30448 87.89814 267.2597 87.00854 266.3201 C 86.11893 265.38052 85.03191 263.29145 84.56886 261.81435 C 84.13056 260.26928 83.56905 257.3708 83.32241 255.51064 C 83.12525 253.51452 83.31741 251.50616 83.79345 250.8327 C 84.50439 249.93685 85.05439 249.9061 86.35807 250.76548 Z" fill="#f3f3f3"/>
        </g>
        <g id="Graphic_41">
          <path d="M 129.70292 271.46807 C 130.04277 271.59177 129.95606 272.25297 129.48002 272.92643 C 129.00398 273.59988 128.50945 274.11265 128.37351 274.06318 C 128.23757 274.0137 128.32428 273.3525 128.59641 272.60482 C 128.86854 271.85715 129.36307 271.34438 129.70292 271.46807 Z" fill="#f3f3f3"/>
        </g>
        <g id="Graphic_40">
          <path d="M 125.59774 277.67133 C 126.41338 277.9682 127.45742 279.11794 127.90822 280.2057 C 128.40225 281.3862 128.62415 283.31434 128.45073 284.63675 C 128.23408 285.86646 127.30649 287.99202 126.44712 289.2957 C 125.49504 290.6426 123.80754 292.1067 122.71977 292.5575 C 121.53929 293.05154 119.81505 293.34766 118.76451 293.2732 C 117.67075 293.106 116.5215 292.4568 115.92852 291.5482 C 115.09463 290.24403 115.16285 289.42214 116.98105 284.84966 C 118.89195 280.23395 119.39273 279.49253 121.64249 278.38702 C 123.03312 277.73855 124.7821 277.37446 125.59774 277.67133 Z" fill="#f3f3f3"/>
        </g>
        <g id="Graphic_39">
          <path d="M 106.93049 271.64675 C 107.65342 271.98685 108.8149 273.0254 109.38315 274.00196 C 109.99463 275.07124 110.6241 277.99444 110.73456 280.65177 C 111.02368 285.14453 110.96796 285.50912 109.0578 287.58496 C 107.75962 289.0368 106.59764 289.69153 105.59658 289.48112 C 104.50281 289.31394 103.39705 287.9108 102.16809 285.1543 C 100.69824 282.00218 100.42061 280.43862 100.97137 277.868 C 101.31797 276.0698 102.0354 274.09867 102.57941 273.44995 C 103.09868 272.8692 103.94555 272.02283 104.52655 271.69548 C 105.01483 271.41135 106.11485 271.34988 106.93049 271.64675 Z" fill="#f3f3f3"/>
        </g>
        <g id="Graphic_38">
          <path d="M 86.55599 271.15872 C 87.03178 271.3319 89.00266 272.89595 90.89932 274.66392 C 92.75275 276.33918 94.83458 278.8673 95.50778 280.18998 C 96.37865 281.8155 96.47086 283.46553 95.88312 285.7148 C 95.46231 287.7169 94.71414 289.13803 93.92299 289.6198 C 93.24929 289.9904 91.98859 290.07036 91.03701 289.72402 C 90.1534 289.4024 88.6953 288.3329 87.84892 287.486 C 87.02728 286.57116 85.69312 284.31516 85.05715 282.46723 C 84.32847 280.66252 83.5878 277.62187 83.43387 275.71846 C 83.07628 272.8942 83.2557 272.18977 84.32497 271.5783 C 85.02341 271.13973 86.01223 270.9608 86.55599 271.15872 Z" fill="#f3f3f3"/>
        </g>
        <g id="Graphic_37">
          <path d="M 126.27795 297.16247 C 127.43343 297.58303 127.87199 298.28148 127.71706 299.76457 C 127.66109 300.9758 126.8507 303.83677 125.89212 306.25895 C 124.72938 309.45354 123.65361 311.1403 122.04032 312.4005 C 120.82261 313.4198 118.94369 314.35238 117.9054 314.66724 C 116.89185 314.91413 115.93402 314.79643 115.69313 314.40086 C 115.54494 313.96205 115.428 312.38 115.51495 310.87217 C 115.58967 308.975 116.20815 307.27576 117.64876 304.7981 C 118.79875 302.90743 120.83885 300.2631 122.15552 298.97192 C 124.05943 297.12474 124.98652 296.69243 126.27795 297.16247 Z" fill="#f3f3f3"/>
        </g>
        <g id="Graphic_36">
          <path d="M 109.4024 292.55976 C 110.21804 292.85663 111.34854 294.1918 111.92903 295.5577 C 112.48479 296.99155 112.92884 300.00122 112.93434 302.31245 C 112.87187 304.59894 112.3581 307.4909 111.77686 308.6649 C 111.04718 310.2467 110.13858 310.8397 108.43908 311.06783 C 107.15365 311.21577 105.68905 311.2215 105.14529 311.0236 C 104.60153 310.8257 103.8726 309.8676 103.46503 308.87255 C 103.01423 307.7848 102.70586 305.67122 102.58891 304.08917 C 102.53994 302.53186 103.09694 299.7326 103.76489 297.8974 C 104.47608 296.15492 105.63232 294.0356 106.49768 293.3499 C 107.31982 292.5715 108.51879 292.23815 109.4024 292.55976 Z" fill="#f3f3f3"/>
        </g>
        <g id="Graphic_35">
          <path d="M 88.16878 292.52878 C 90.65893 293.5121 92.79674 294.829 94.46475 296.59073 C 96.24397 298.4699 97.04686 300.0707 97.26252 302.2275 C 97.5274 305.09497 97.4037 305.43482 95.81516 306.62705 C 94.22661 307.81927 93.79405 307.7388 91.08775 306.29195 C 89.41948 305.37685 87.49183 303.9055 86.73817 303.0154 C 86.00924 302.05732 84.72456 299.66538 83.93415 297.6073 C 83.05104 295.59243 82.43981 293.67652 82.53877 293.40464 C 82.61299 293.20073 83.06429 292.59525 83.49085 292.05774 C 84.12757 291.3658 85.24607 291.465 88.16878 292.52878 Z" fill="#f3f3f3"/>
        </g>
        <g id="Graphic_34">
          <path d="M 108.9616 320.41795 C 108.47282 322.39533 108.15696 324.74354 108.29265 325.63964 C 108.42834 326.53575 108.43334 330.54023 108.3024 334.49523 C 108.23943 338.47497 108.40336 348.38734 108.59253 356.5385 C 108.80644 364.62167 109.27323 374.3364 109.60584 378.07523 C 109.93844 381.81407 110.1466 388.43265 109.9352 392.8202 C 109.79176 397.2325 109.61134 401.32345 109.4814 401.89195 C 109.41943 402.4852 109.43142 403.72115 109.56711 404.61725 C 109.7028 405.51335 109.68956 408.51053 109.52188 411.29755 C 109.21152 415.957 109.13106 416.38955 108.11151 416.01846 C 107.43181 415.77107 106.71513 415.2023 106.33829 414.75727 C 106.02943 414.33696 105.92497 412.2976 106.18511 410.314 C 106.40201 408.23765 106.61317 404.6967 106.74361 402.43496 C 106.80608 400.14847 106.89404 395.25414 106.92602 391.571 C 106.93327 387.95586 106.68238 379.55133 106.31354 372.95124 C 105.9447 366.35116 105.52638 359.887 105.47116 358.55835 C 105.34796 357.20495 105.29323 354.18303 105.21977 351.84707 C 105.21427 349.53584 105.22276 341.68755 105.28048 334.54996 C 105.36295 327.3444 105.09306 320.47243 104.71648 319.18075 L 104.06826 316.9435 L 106.95424 316.8393 L 109.84021 316.73508 L 108.9616 320.41795 Z" fill="#f3f3f3"/>
        </g>
        <g id="Graphic_33">
          <path d="M 111.24801 69.23643 C 110.3644 68.91482 109.61049 68.87134 109.53627 69.07525 C 109.43731 69.34713 110.17824 71.54116 111.23427 73.926856 C 112.2903 76.31255 112.98175 78.64252 112.83332 79.05034 C 112.70962 79.39019 111.83826 79.45791 110.88668 79.111565 C 109.86713 78.74048 109.039 78.90091 108.84108 79.44467 C 108.64317 79.98843 109.30413 80.92177 110.36066 81.61421 C 111.34922 82.28191 112.57268 82.72722 113.07946 82.60377 C 113.49353 82.52356 114.27868 81.42379 114.69924 80.2683 C 115.14455 79.04484 115.12056 76.572935 114.64527 74.70651 C 114.23794 72.86482 113.60198 71.01689 113.29311 70.59658 C 112.98425 70.17626 112.06365 69.5333 111.24801 69.23643 Z" fill="black"/>
        </g>
        <g id="Graphic_32">
          <path d="M 112.39052 92.74454 C 112.05067 92.62085 111.63035 92.92971 111.45718 93.4055 C 111.25927 93.94926 111.52465 95.12349 112.06816 96.16803 C 112.63641 97.1446 113.17967 99.03576 113.35234 100.25322 C 113.50028 101.53866 113.22165 103.3616 112.68989 104.39964 C 112.15812 105.43768 112.08366 106.48822 112.37403 106.74785 C 112.73237 107.03223 113.41857 106.20434 114.02455 104.96239 C 114.63053 103.72044 115.18104 101.99645 115.29873 101.03863 C 115.34846 100.05606 114.90416 97.89302 114.24345 96.11305 C 113.558 94.40106 112.73037 92.86824 112.39052 92.74454 Z" fill="black"/>
        </g>
        <g id="Graphic_31">
          <path d="M 133.0279 102.87306 C 132.73153 101.99545 132.42892 101.34648 132.28673 101.52566 C 132.14454 101.70483 131.11175 104.33092 129.93052 107.36483 C 128.30399 111.6222 127.39514 113.06181 126.04774 113.80298 C 125.09591 114.30326 124.40971 115.13115 124.53316 115.63792 C 124.61337 116.05199 125.08292 116.45381 125.5897 116.33037 C 126.00376 116.25015 127.45637 115.00845 128.82251 113.58133 C 130.12069 112.12947 131.74672 109.56535 132.38994 107.79813 C 133.03315 106.03091 133.29953 103.81864 133.0279 102.87306 Z" fill="black"/>
        </g>
        <g id="Graphic_30">
          <path d="M 113.1252 116.10422 C 112.78535 115.98052 112.43925 116.08548 112.3403 116.35736 C 112.2166 116.69721 112.48174 118.71807 112.9013 120.94908 C 113.32087 123.1801 113.3511 125.42335 112.97402 125.82493 C 112.5722 126.29447 111.34849 126.69579 110.34118 126.71403 C 109.26591 126.70754 108.43153 127.09661 108.3943 127.62188 C 108.3818 128.07918 108.81411 129.00627 109.2774 129.63674 C 109.9631 130.50211 110.55634 130.56408 111.76156 130.00208 C 112.87407 129.48331 113.8014 128.20437 114.6178 125.96136 C 115.53314 123.44648 115.59536 122.00661 114.79271 119.5592 C 114.26795 117.82871 113.53302 116.25265 113.1252 116.10422 Z" fill="black"/>
        </g>
        <g id="Graphic_29">
          <path d="M 130.98231 124.14316 C 130.71043 124.0442 130.20366 124.16765 129.87605 124.43328 C 129.48048 124.67418 129.01643 126.58359 128.7563 128.56721 C 128.47142 130.6188 127.73525 133.27588 127.154 134.44986 C 126.23267 136.34677 125.9298 136.54444 124.348 135.81476 C 123.21725 135.32622 122.37062 135.32597 122.17271 135.86973 C 121.99954 136.34552 122.24018 137.58773 122.69098 138.6755 C 123.20975 139.788 123.64206 140.7151 123.84597 140.78931 C 123.98191 140.83879 125.0327 140.06663 126.22567 139.1153 C 127.3939 138.23194 129.1991 135.81001 130.16992 133.77716 C 131.64152 131.00288 131.98187 129.43333 131.79096 127.20856 C 131.60604 125.60177 131.2542 124.24212 130.98231 124.14316 Z" fill="black"/>
        </g>
        <g id="Graphic_28">
          <path d="M 93.39217 119.77535 C 92.50856 119.45375 92.48382 119.52172 93.0953 120.591 C 93.46589 121.2647 94.54666 123.58242 95.40503 125.66525 C 96.78217 128.86059 96.8314 129.57128 95.78686 130.11479 C 94.78556 130.751 94.75457 131.04762 95.58246 131.73382 C 96.09523 132.22835 96.96035 132.38928 97.5166 132.1299 C 98.25827 131.78405 98.48717 130.94367 98.39496 129.29365 C 98.33974 127.96498 98.14232 126.81549 97.87044 126.71654 C 97.59856 126.61758 96.77093 125.08476 95.94954 123.32329 C 95.12815 121.56181 93.93593 119.97327 93.39217 119.77535 Z" fill="black"/>
        </g>
        <g id="Graphic_27">
          <path d="M 108.94705 139.21526 C 108.40329 139.01735 108.05095 139.35095 108.03221 140.0369 C 108.10618 140.67961 108.34082 141.30384 108.6127 141.4028 C 108.88458 141.50175 109.33513 143.43615 109.66199 145.71039 C 109.92088 147.9599 110.01908 150.2279 109.84591 150.70368 C 109.67274 151.17947 108.9743 151.61803 108.28835 151.59929 C 107.67037 151.60529 107.22532 151.98212 107.28079 152.46416 C 107.36101 152.87822 108.05295 153.51494 108.73265 153.76233 C 109.41235 154.00972 110.25898 154.00997 110.58658 153.74434 C 110.98216 153.50345 111.47094 151.52607 111.75582 149.47448 C 112.07168 147.12626 111.80054 144.48743 111.0966 142.61476 C 110.41116 140.90276 109.49081 139.41317 108.94705 139.21526 Z" fill="black"/>
        </g>
        <g id="Graphic_26">
          <path d="M 130.3326 147.92266 C 129.9063 147.61354 129.49848 147.46511 129.38103 147.57631 C 129.35629 147.64428 128.72557 148.9542 127.9774 150.37532 C 127.2972 151.82119 125.64643 154.45327 124.31727 156.20175 C 122.9881 157.95023 122.04827 159.68646 122.2212 160.0573 C 122.39412 160.42813 123.50038 160.13801 124.75508 159.44007 C 126.00977 158.74213 127.753 156.91344 128.55065 155.35637 C 129.41626 153.82405 130.27588 151.67375 130.53577 150.53675 C 130.86362 149.4245 130.66621 148.275 130.3326 147.92266 Z" fill="black"/>
        </g>
        <g id="Graphic_25">
          <path d="M 91.68018 141.3978 C 91.34033 141.2741 90.90153 141.42229 90.80257 141.69417 C 90.67888 142.03402 91.16666 143.44315 91.92633 144.95123 C 92.64276 146.3666 93.30947 148.76455 93.45115 150.27863 C 93.59284 151.7927 94.15484 152.99793 94.61214 153.01042 C 95.13741 153.04765 95.86059 152.54113 96.15121 151.95414 C 96.62725 151.28068 95.97904 149.04342 94.61414 146.23741 C 93.37893 143.70953 92.088 141.54624 91.68018 141.3978 Z" fill="black"/>
        </g>
        <g id="Graphic_24">
          <path d="M 107.16685 161.6596 C 106.827 161.5359 107.11087 162.8708 107.79632 164.5828 C 108.45703 166.36277 108.90133 168.52581 108.82687 169.57635 C 108.70917 170.53417 108.31334 171.6217 107.89303 171.93056 C 107.47271 172.23942 106.67557 172.10323 106.00211 171.6272 C 105.42137 171.10792 104.76016 171.0212 104.63647 171.36106 C 104.51277 171.7009 104.82763 172.7392 105.32791 173.69103 C 105.78496 174.55015 106.72405 175.3538 107.34202 175.3478 C 107.96 175.3418 108.82537 174.6561 109.28292 173.82197 C 109.74046 172.98784 110.17352 171.37505 110.29747 170.18858 C 110.42141 169.0021 109.91538 166.58567 109.13723 164.9169 C 108.42704 163.27288 107.5067 161.78329 107.16685 161.6596 Z" fill="black"/>
        </g>
        <g id="Graphic_23">
          <path d="M 128.03913 171.56571 C 127.62531 170.7993 127.13703 171.08342 126.22818 172.52304 C 125.6037 173.60431 124.7071 175.43325 124.31128 176.52077 C 123.91545 177.6083 122.79645 179.20234 121.8816 180.02398 C 120.94202 180.91358 120.29905 181.83418 120.42874 182.1123 C 120.55844 182.39043 121.23814 182.63782 121.85611 182.63182 C 122.47409 182.62583 124.0379 181.50157 125.31134 180.11768 C 126.88764 178.53613 127.82747 176.7999 128.12459 175.13763 C 128.41546 173.70402 128.36648 172.1467 128.03913 171.56571 Z" fill="black"/>
        </g>
        <g id="Graphic_22">
          <path d="M 89.80752 163.03874 C 89.46767 162.91505 89.38695 164.19423 89.77578 165.87524 C 90.0719 167.59948 90.66439 170.20133 91.12744 171.67842 C 91.59048 173.15552 91.83088 175.24435 91.73167 176.36285 C 91.55825 177.68527 91.81763 178.24152 92.4666 177.9389 C 92.93014 177.72275 93.56086 176.41283 93.78376 174.95447 C 94.0314 173.42815 93.44516 170.59765 92.35214 167.8906 C 91.34559 165.36896 90.21534 163.18717 89.80752 163.03874 Z" fill="black"/>
        </g>
        <g id="Graphic_21">
          <path d="M 128.18107 193.17017 C 127.84122 193.04647 127.28497 193.30586 127.0006 193.6642 C 126.62351 194.06577 125.65894 195.86997 124.81181 197.56298 C 123.96469 199.25598 122.07302 201.4925 120.69463 202.53028 C 119.24827 203.54334 118.14176 204.68008 118.22198 205.09415 C 118.32693 205.44025 118.8397 205.93478 119.3155 206.10795 C 119.85925 206.30586 120.99025 205.94777 121.85562 205.26208 C 122.69625 204.64435 124.56317 202.4758 125.89858 200.49868 C 127.30196 198.5463 128.48919 196.13036 128.60688 195.17253 C 128.65661 194.18997 128.52092 193.29386 128.18107 193.17017 Z" fill="black"/>
        </g>
        <g id="Graphic_20">
          <path d="M 108.38232 189.19693 C 107.95601 188.88781 107.49871 188.87532 107.37501 189.21517 C 107.27606 189.48705 107.15786 192.13813 107.16936 195.06733 C 107.18085 197.99654 107.22333 200.62913 107.37777 200.83928 C 107.43949 201.09267 108.18741 200.51818 108.96631 199.64706 C 110.1223 198.37437 110.24 197.41655 109.74047 193.92484 C 109.34564 191.62585 108.71592 189.54927 108.38232 189.19693 Z" fill="black"/>
        </g>
        <g id="Graphic_19">
          <path d="M 88.82396 187.31252 C 88.2802 187.1146 88.69377 188.72764 89.86725 191.00214 C 90.97276 193.2519 92.01005 196.32353 92.15174 197.83761 L 92.4661 200.56916 L 93.20828 198.53006 C 93.62884 197.37457 93.66032 195.3847 93.37645 194.04979 C 93.06784 192.78285 92.11676 190.74325 91.3446 189.69246 C 90.50447 188.61694 89.36772 187.51043 88.82396 187.31252 Z" fill="black"/>
        </g>
        <g id="Graphic_18">
          <path d="M 128.18708 214.72514 C 127.84723 214.60145 126.85192 215.85564 126.00479 217.54865 C 125.06496 219.28488 123.41419 221.91697 122.25195 223.4183 C 121.06498 224.9876 120.02019 226.37775 119.92123 226.64963 C 119.84701 226.85354 120.18062 227.20588 120.65641 227.37905 C 121.20017 227.57697 122.28169 227.35481 123.23352 226.85453 C 124.09264 226.3975 125.79264 224.47608 126.96737 222.51745 C 128.61814 219.88536 129.11292 218.52596 128.97123 217.01188 C 128.90976 215.91187 128.52693 214.84884 128.18708 214.72514 Z" fill="black"/>
        </g>
        <g id="Graphic_17">
          <path d="M 108.03648 209.39225 C 107.56693 208.99043 107.13438 208.90997 107.03542 209.18185 C 106.91172 209.5217 107.01043 210.09644 107.15862 210.53525 C 107.35003 211.06677 107.39276 212.85273 107.25632 214.4965 C 107.16312 216.23298 106.7608 218.39578 106.38971 219.41533 C 105.96914 220.57082 106.08634 221.30624 106.83401 221.57837 C 107.78559 221.92472 108.11944 221.43044 108.71343 218.95253 C 109.07852 217.315 109.28943 214.6207 109.17248 213.03864 C 108.98756 211.43185 108.50602 209.79408 108.03648 209.39225 Z" fill="black"/>
        </g>
        <g id="Graphic_16">
          <path d="M 87.08723 209.00293 C 86.38279 208.82351 86.56796 209.58368 87.46357 211.14124 C 88.24797 212.58135 89.55739 214.90532 90.31706 216.4134 C 91.14469 217.94623 91.94734 220.39365 92.18174 221.8645 C 92.50859 224.13874 92.66302 224.3489 93.33698 223.1317 C 93.76978 222.36553 93.7333 220.35092 93.2765 218.64517 C 92.84444 216.87146 91.52278 214.15815 90.31206 212.40893 C 89.0766 210.72767 87.63099 209.20085 87.08723 209.00293 Z" fill="black"/>
        </g>
        <g id="Graphic_15">
          <path d="M 125.18341 236.72417 C 125.04747 236.6747 124.01493 238.45416 122.90192 240.66618 C 121.76417 242.94618 120.09491 245.41758 119.24804 246.26396 C 118.33319 247.0856 117.40585 248.36453 117.10898 249.18017 C 116.78737 250.06378 117.08999 250.71275 117.9736 251.03435 C 118.92518 251.3807 120.01295 250.9299 121.1442 249.72518 C 122.06529 248.6749 122.78247 247.5504 122.70226 247.13632 C 122.66528 246.81497 122.21422 246.57382 121.80016 246.65404 C 121.36135 246.80222 121.16369 246.49936 121.28738 246.1595 C 121.43582 245.7517 122.0353 245.585 122.57906 245.78292 C 123.12282 245.98083 124.0809 245.2519 124.77959 243.96672 C 125.6637 242.59508 125.93608 241.00078 125.7759 239.32602 C 125.58473 237.94788 125.31935 236.77365 125.18341 236.72417 Z" fill="black"/>
        </g>
        <g id="Graphic_14">
          <path d="M 107.41876 229.48863 C 107.01094 229.3402 106.52265 229.62432 106.37422 230.03214 C 106.20104 230.50793 106.30575 231.70065 106.60212 232.57826 C 106.87375 233.52384 106.6321 235.66815 106.03837 237.29943 C 105.2962 239.33852 105.27121 240.25312 105.93242 240.33983 C 106.41445 240.28436 107.21185 239.57392 107.71888 238.60385 C 108.20116 237.70175 108.47379 235.26083 108.3446 233.28945 C 108.2154 231.31807 107.75861 229.61232 107.41876 229.48863 Z" fill="black"/>
        </g>
        <g id="Graphic_13">
          <path d="M 86.18514 229.45765 C 85.98123 229.38343 87.12372 231.95454 88.75425 235.08816 C 91.03325 239.6124 91.49005 241.31815 90.94579 242.8135 C 90.50049 244.03695 90.56821 244.90832 91.17994 245.13097 C 91.7237 245.32888 92.5086 245.07574 92.93516 244.53823 C 93.33698 244.0687 93.44244 242.72153 93.17705 241.5473 C 92.91167 240.37307 92.17075 238.17904 91.50379 236.62773 C 90.83683 235.0764 89.47793 232.88838 88.4339 231.73864 C 87.4146 230.52093 86.38905 229.53186 86.18514 229.45765 Z" fill="black"/>
        </g>
        <g id="Graphic_12">
          <path d="M 107.14039 251.40194 C 106.66485 250.38214 106.05936 249.93084 105.93567 250.2707 C 105.78723 250.6785 105.94766 251.50665 106.34299 252.11238 C 106.71358 252.78608 106.80579 254.4361 106.55815 255.96243 C 106.26727 257.39605 105.9699 259.90494 105.88295 261.41277 C 105.77124 262.98858 105.96241 264.36672 106.30226 264.4904 C 106.57414 264.58937 107.26658 263.53283 107.7861 262.10547 C 108.28089 260.74607 108.53502 258.14446 108.39958 256.40173 C 108.26414 254.659 107.70864 252.3785 107.14039 251.40194 Z" fill="black"/>
        </g>
        <g id="Graphic_11">
          <path d="M 124.24333 260.24403 C 123.91598 259.66304 123.32249 260.4477 122.41964 262.50528 C 121.70845 264.24776 120.53972 266.82438 119.79155 268.2455 L 118.39417 270.81586 L 120.41528 269.7041 C 122.06555 268.76527 122.64054 267.81994 123.59312 264.77978 C 124.17461 262.75917 124.48423 260.6396 124.24333 260.24403 Z" fill="black"/>
        </g>
        <g id="Graphic_10">
          <path d="M 87.21619 253.69494 C 86.7404 253.52176 86.30784 253.4413 86.25836 253.57724 C 86.20889 253.71318 87.24043 255.32022 88.46964 257.23013 C 90.49574 260.12285 90.63768 260.7903 89.70409 262.2979 C 88.86322 263.76224 88.91869 264.24428 90.01846 265.02943 C 90.75988 265.5302 91.76094 265.7406 92.22448 265.52446 C 92.68803 265.3083 92.88619 263.91792 92.70752 262.08248 C 92.46087 260.2223 91.53453 258.11473 90.18163 256.54468 C 89.0079 255.1168 87.62401 253.84337 87.21619 253.69494 Z" fill="black"/>
        </g>
        <g id="Graphic_9">
          <path d="M 126.18373 281.34846 C 125.87487 280.92814 125.62773 280.76122 125.51028 280.87242 C 125.4608 281.00836 124.73737 282.3615 123.91499 283.98654 C 123.0926 285.61157 121.68922 287.56396 120.7064 288.36086 C 119.72359 289.15776 119.08062 290.07835 119.25355 290.4492 C 119.3585 290.7953 120.0382 291.04268 120.74889 290.99345 C 121.43483 291.0122 122.85645 290.0671 123.895 288.90562 C 125.1437 287.5897 126.01556 285.82873 126.23846 284.37037 C 126.47985 283.0727 126.44936 281.67606 126.18373 281.34846 Z" fill="black"/>
        </g>
        <g id="Graphic_8">
          <path d="M 107.38728 273.3525 C 107.1154 273.25354 106.79405 273.29052 106.74457 273.42646 C 106.69509 273.5624 106.7748 275.66972 106.95947 278.12314 C 107.14414 280.57655 106.92699 283.4995 106.53117 284.58703 C 106.1106 285.74252 106.12884 286.74983 106.4687 286.87352 C 106.87651 287.02196 107.51948 286.10136 107.96478 284.8779 C 108.38535 283.7224 108.86189 281.3557 108.99832 279.71194 C 109.13476 278.06816 108.96234 276.00407 108.598 275.10172 C 108.27689 274.29208 107.72713 273.4762 107.38728 273.3525 Z" fill="black"/>
        </g>
        <g id="Graphic_7">
          <path d="M 88.40267 274.75588 C 87.38937 274.15615 86.54899 273.92725 86.45004 274.19913 C 86.35108 274.471 87.47533 276.03482 88.89621 277.6296 C 90.38505 279.24915 91.65124 281.4804 91.80542 282.5372 C 92.00283 283.6867 91.64399 285.09556 91.05051 285.8802 C 90.19738 286.95524 90.32708 287.23337 91.42084 287.40054 C 92.21799 287.53673 93.03388 286.98698 93.59038 285.88096 C 94.09741 284.9109 94.34505 283.38457 94.2341 282.4205 C 94.09841 281.5244 93.09785 279.62073 92.06006 278.24234 C 90.99753 276.93192 89.348 275.33088 88.40267 274.75588 Z" fill="black"/>
        </g>
        <g id="Graphic_6">
          <path d="M 124.63242 302.9524 C 125.041 300.56097 124.94229 299.98622 124.38578 301.09223 C 123.97147 302.01908 123.16757 303.8048 122.62956 305.07148 C 122.02358 306.31343 120.3853 308.4882 119.00066 309.75466 C 117.59129 311.08907 116.5465 312.4792 116.67619 312.75733 C 116.84912 313.12817 117.95538 312.83805 119.23481 312.07214 C 120.48951 311.3742 122.13378 309.81738 122.8757 308.6249 C 123.54965 307.4077 124.39703 304.86807 124.63242 302.9524 Z" fill="black"/>
        </g>
        <g id="Graphic_5">
          <path d="M 109.45088 295.81032 C 108.80217 295.2663 108.51779 295.62466 108.28864 297.31166 C 108.07199 298.54137 107.56446 301.2047 107.0262 303.318 C 106.55591 305.45606 106.08562 307.5941 106.11636 308.14412 C 106.07288 308.89804 106.4807 309.04648 107.69816 308.8738 C 108.91562 308.70113 109.57708 307.9412 110.24503 306.10602 C 110.76455 304.67865 111.0002 301.91637 110.7783 299.98823 C 110.48842 298.03534 109.94516 296.14418 109.45088 295.81032 Z" fill="black"/>
        </g>
        <g id="Graphic_4">
          <path d="M 89.20632 294.7538 C 87.33415 293.7645 86.35783 293.4861 86.15992 294.02987 C 86.01149 294.4377 86.43155 294.97545 87.11125 295.22284 C 87.79095 295.47023 89.5889 296.66345 91.13347 297.9184 C 93.35149 299.64938 93.80854 300.5085 93.38798 301.664 C 93.09111 302.47963 92.38017 303.3755 91.73121 303.6781 C 90.89683 304.06718 91.02652 304.3453 92.45389 304.86483 C 94.0172 305.43383 94.38804 305.2609 95.03125 303.4937 C 95.60025 301.93037 95.35336 300.91682 93.85227 298.90796 C 92.77125 297.43686 90.67068 295.59467 89.20632 294.7538 Z" fill="black"/>
        </g>
      </g>
    </g>
  </g>
</svg>
