<?xml version="1.0" encoding="UTF-8" standalone="no"?>
<!DOCTYPE svg PUBLIC "-//W3C//DTD SVG 1.1//EN" "http://www.w3.org/Graphics/SVG/1.1/DTD/svg11.dtd">
<svg xmlns="http://www.w3.org/2000/svg" xmlns:dc="http://purl.org/dc/elements/1.1/" version="1.1" xmlns:xl="http://www.w3.org/1999/xlink" viewBox="103.5 62.29167 157.5 351.70833" width="157.5" height="351.70833">
  <defs>
    <clipPath id="artboard_clip_path">
      <path d="M 103.5 62.29167 L 261 62.29167 L 261 414 L 103.5 414 Z"/>
    </clipPath>
  </defs>
  <metadata> Produced by OmniGraffle 7.10.2 test 
    <dc:date>2019-03-13 06:47:41 +0000</dc:date>
  </metadata>
  <g id="Grapes,_Bunch_of,_Slipped_and_Leaved" stroke-dasharray="none" stroke-opacity="1" fill="none" fill-opacity="1" stroke="none">
    <title>Grapes, Bunch of, Slipped and Leaved</title>
    <g id="Grapes,_Bunch_of,_Slipped_and_Leaved: Layer 2" clip-path="url(#artboard_clip_path)">
      <title>Layer 2</title>
      <g id="Group_3">
        <g id="Graphic_94">
          <path d="M 170.78512 365.6744 C 172.0545 365.1611 174.33227 363.5824 175.8493 362.2952 C 178.3269 360.06434 178.879 359.80336 180.85718 359.98987 C 182.1354 360.09827 183.71354 360.0153 184.38304 359.88474 C 185.51336 359.65407 185.75251 359.83226 186.99644 362.17533 C 187.7489 363.6229 189.8277 366.63096 191.6542 368.92172 C 197.17714 375.75488 195.8622 379.47743 190.3419 384.44794 C 186.5168 387.89208 183.54132 387.00944 179.70668 386.68423 C 176.8633 386.41096 172.18479 384.01215 168.93652 381.1913 C 166.6014 379.12237 166.49265 378.82676 166.28328 375.7096 C 166.17417 373.84017 166.52138 371.16633 167.09493 369.7054 C 168.25936 366.45317 167.95076 366.80974 170.78512 365.6744 Z" fill="#f3f3f3"/>
          <path d="M 170.78512 365.6744 C 172.0545 365.1611 174.33227 363.5824 175.8493 362.2952 C 178.3269 360.06434 178.879 359.80336 180.85718 359.98987 C 182.1354 360.09827 183.71354 360.0153 184.38304 359.88474 C 185.51336 359.65407 185.75251 359.83226 186.99644 362.17533 C 187.7489 363.6229 189.8277 366.63096 191.6542 368.92172 C 197.17714 375.75488 195.8622 379.47743 190.3419 384.44794 C 186.5168 387.89208 183.54132 387.00944 179.70668 386.68423 C 176.8633 386.41096 172.18479 384.01215 168.93652 381.1913 C 166.6014 379.12237 166.49265 378.82676 166.28328 375.7096 C 166.17417 373.84017 166.52138 371.16633 167.09493 369.7054 C 168.25936 366.45317 167.95076 366.80974 170.78512 365.6744 Z" stroke="black" stroke-linecap="round" stroke-linejoin="round" stroke-width="2"/>
        </g>
        <g id="Graphic_93">
          <path d="M 130.14864 348.7486 C 130.0716 354.17005 131.24626 357.8348 134.1338 361.21656 C 134.63827 361.86424 134.7297 362.49027 134.3385 362.8425 C 133.33876 363.7427 131.61377 368.20802 131.28821 370.46883 C 130.94983 373.76437 131.55059 377.3162 132.91644 380.49397 C 134.10391 383.124 134.72579 383.90207 137.94358 386.51424 C 141.39619 389.3872 141.62669 389.73062 141.8184 391.6044 C 142.18884 395.5997 144.1679 399.7208 147.41201 403.41115 C 150.22561 406.62337 150.90394 407.1145 155.12147 408.8265 C 158.93463 410.35165 160.65635 410.6904 164.47782 410.4765 C 171.7034 410.1097 176.42019 408.6174 180.61484 405.23406 L 184.11835 402.3943 L 184.5783 398.35967 C 184.82125 396.09453 184.68131 392.4426 184.21997 390.18196 C 183.60622 386.87794 183.01465 385.52163 180.9968 382.93093 C 178.47448 379.69255 175.2915 377.20645 171.80443 375.7812 C 169.90001 374.97734 169.86088 374.9339 170.23856 372.4687 C 170.59443 369.62967 170.68137 369.5514 174.0072 369.31154 C 175.2984 369.17213 177.65463 368.4673 179.31088 367.68436 C 180.928 366.85796 182.54078 366.11417 182.92332 365.92714 C 183.43194 365.7053 183.78418 366.0965 184.36277 367.70063 C 185.26329 370.2742 187.18104 372.40407 191.12929 375.303 C 194.72096 377.89337 197.72089 378.3405 202.8377 377.1177 C 205.77217 376.44317 206.37205 376.06045 209.6494 372.7947 C 213.00934 369.53326 213.33092 368.92887 214.11713 365.78105 C 214.92065 362.3028 215.40172 355.4944 215.0098 352.699 C 214.74848 350.5731 211.95185 345.45663 209.76013 343.02248 L 207.8815 340.93606 L 210.68937 337.9356 C 214.1101 334.30462 216.51307 328.7566 216.71204 324.16985 C 216.82875 321.1526 216.92001 320.99173 218.88053 319.93483 C 222.50163 318.0124 226.63498 312.63787 227.7296 308.34657 C 229.59746 301.15527 225.48658 290.29595 220.0821 288.31466 L 218.17336 287.5934 L 218.63347 284.34565 C 218.93306 282.58047 218.85426 280.1328 218.4627 278.91122 C 217.5795 276.00724 215.36578 272.4123 213.95267 271.717 C 213.14826 271.26068 212.80468 270.70426 212.92625 269.96515 C 213.16505 268.56953 213.78242 268.6433 217.20871 270.43808 C 220.59153 272.272 226.7566 273.17492 230.1084 272.43943 C 232.16037 272.00856 233.39927 271.2866 236.18115 268.78177 C 240.4844 264.90712 241.3925 262.594 241.16494 255.8727 C 241.02898 250.56435 240.0024 248.0256 236.32776 243.8571 L 233.94468 241.123 L 234.95272 238.4838 C 236.50385 234.175 235.58963 228.70162 232.41046 223.77218 C 231.9538 223.00276 232.7407 223.0026 235.80159 223.86707 C 238.00594 224.4796 241.11895 225.13972 242.64065 225.34372 C 246.7927 225.93406 249.12747 226.42917 252.46665 227.5153 C 255.72322 228.59713 257.60997 228.1576 257.87042 226.34896 C 258.00065 225.44463 257.8441 225.27077 256.81803 225.09274 C 254.9659 224.87143 249.80007 220.7076 247.7952 217.8691 C 245.4033 214.5133 242.54985 208.10996 242.11448 205.3537 L 241.74006 203.01478 L 244.03568 203.46642 C 246.2487 203.91373 251.2526 203.26482 252.2089 202.40379 C 252.94782 201.73844 252.1564 201.03431 249.1563 199.80027 C 246.56057 198.75309 246.4823 198.66615 243.92933 194.43219 C 242.52452 191.99786 240.82392 188.88537 240.1106 187.48127 C 239.10583 185.3164 238.05344 184.06019 233.90067 180.3222 C 230.8959 177.59694 227.94774 175.37164 226.56943 174.80242 C 223.41278 173.3945 223.2997 173.1815 225.2254 171.99853 C 226.97725 170.97212 229.25017 167.11531 228.62396 166.41984 C 228.42827 166.2025 226.74137 165.98985 224.9632 165.93807 C 222.8546 165.86898 219.75026 165.04364 216.55014 163.67487 C 205.9367 159.14272 205.1193 158.93422 200.85884 159.62208 C 198.39386 160.0313 191.68608 162.3718 186.85205 164.52058 C 184.68719 165.52535 180.23103 165.99588 179.64396 165.34388 C 179.44827 165.12654 180.42637 164.6394 181.81316 164.2565 C 185.2997 163.321 190.29858 159.60705 190.8633 157.52444 C 191.11527 156.6679 192.00175 154.76782 192.82312 153.3199 C 193.64882 151.78936 194.89585 148.54145 195.52568 146.00667 C 196.2511 143.22841 197.24184 140.91963 198.02424 140.21515 C 201.32773 137.24067 204.05592 127.858 202.78981 123.56723 C 202.50701 122.64126 202.75015 121.16303 203.25426 120.23688 C 205.27504 116.4497 206.01743 111.76719 205.25977 106.46767 C 204.8722 103.58966 204.0541 100.23352 203.49733 99.00328 C 201.6705 95.13869 197.06591 92.90942 188.51397 91.71574 C 184.03149 91.10808 182.32276 90.52154 181.18776 89.261 C 179.97449 87.91352 180.49088 83.59192 181.96876 82.26123 C 182.66423 81.63502 183.16402 80.79148 183.09873 80.456735 C 182.9943 80.07852 184.0983 78.76965 185.44577 77.55638 C 186.92365 76.22569 188.25796 74.47332 188.74025 73.17329 C 189.64405 70.94278 189.3214 66.8257 188.18641 65.56516 C 187.20797 64.478486 186.15628 66.369915 186.76534 68.18272 C 187.33094 70.03466 185.94017 72.07398 183.35795 73.13971 C 178.1109 75.266845 174.10416 82.96729 175.29666 88.66235 C 176.32811 93.47923 181.58072 96.77786 189.60655 97.73689 C 194.42379 98.27926 196.24993 98.9962 197.81544 100.73488 C 199.26354 102.34316 200.66888 107.13822 200.55217 110.15546 C 200.48325 113.05096 199.48802 114.65544 198.92242 112.8035 C 198.36548 110.78635 194.03 106.58321 191.19512 105.35783 C 185.40792 102.77666 180.45216 104.87765 179.03612 110.56024 C 177.8807 115.2211 178.49427 117.7382 181.50789 121.08516 L 184.05185 123.91052 L 182.27368 123.85874 C 177.01745 123.79036 172.90558 127.96494 172.08093 134.21694 C 171.79018 136.60382 171.50773 137.25167 171.2206 136.4083 C 171.00742 135.73448 169.45454 132.17417 167.82772 128.44431 C 165.27872 122.55392 164.24798 120.88468 159.97312 115.52508 C 157.28992 112.19543 154.71548 109.1614 154.31977 108.80934 C 153.8806 108.49641 152.93263 107.61841 152.22815 106.836 C 149.28415 103.74119 142.50242 105.91214 139.67326 110.89944 C 138.26085 113.35179 138.59144 114.15601 141.32191 115.00318 C 143.60021 115.78524 149.3791 120.10543 152.00134 123.01772 C 153.3277 124.5782 155.06726 126.94725 161.1558 135.63234 C 163.31288 138.72733 165.0701 142.33977 164.48322 142.47468 C 164.19194 142.50083 161.94844 141.84484 159.59186 140.97586 C 157.23528 140.10687 153.71358 139.34248 151.80934 139.32551 C 149.11819 139.30872 147.89643 138.91337 146.38755 137.67465 C 145.3135 136.83146 143.7047 135.91883 142.76557 135.66253 C 141.82643 135.40623 139.71334 134.63283 138.09155 133.96802 C 136.02625 133.07288 134.135 132.8081 131.67867 133.05211 C 128.63546 133.43103 127.93981 133.27032 126.76567 131.96631 C 126.02205 131.14044 123.81752 129.74101 121.9609 128.8154 C 114.32574 125.1434 113.82543 123.62621 119.18088 120.22086 C 120.89359 119.15098 121.20219 118.79441 120.73253 118.2728 C 120.10633 117.57733 117.40219 117.80836 114.57648 118.7785 C 112.42893 119.45285 112.03773 119.80509 111.26433 121.91818 C 110.9689 122.81385 110.91279 124.67462 111.17395 126.01362 C 111.52654 127.97864 111.9832 128.74806 113.68778 130.20412 C 114.79663 131.17338 116.36196 132.12515 117.14022 132.29018 C 117.91414 132.53782 119.20551 133.18532 120.08386 133.81118 L 121.6014 134.88469 L 117.29817 138.75934 C 112.42554 143.22538 111.05226 145.7212 111.1619 149.95136 C 111.33682 154.51627 117.85067 159.82755 123.27211 159.9046 C 126.0024 159.96486 129.42764 157.03818 131.46573 152.92057 C 132.20882 151.38571 132.97373 150.22474 133.09115 150.35514 C 133.20856 150.48554 133.37845 151.98541 133.45275 153.72877 C 133.75374 158.25888 134.11049 159.35439 136.45876 161.9624 C 139.00272 164.78776 142.48114 166.3782 145.80265 166.22094 C 148.7894 166.12898 148.93297 166.55066 146.38123 167.82507 C 143.36434 169.28218 141.2606 171.49122 135.9017 178.91372 C 132.5551 183.50116 129.90812 186.59287 128.13463 188.03232 C 124.80499 190.7155 125.01384 191.47194 128.9354 191.71888 C 130.54836 191.762 131.94832 191.9182 131.98746 191.96166 C 132.06573 192.0486 129.10132 194.87518 125.4023 198.2845 C 118.86926 204.403 115.72682 208.25565 115.38827 210.76427 C 115.14513 212.2425 115.78433 212.69016 116.7406 211.82913 C 117.91421 210.7724 121.08332 209.57177 121.4747 210.00644 C 121.67039 210.22377 121.2184 210.94557 120.52293 211.57178 C 118.87119 213.05902 117.824 215.65475 117.14672 219.8851 C 116.88627 221.69374 116.48226 223.0807 116.23444 223.06772 C 115.491 223.02876 114.24397 226.27667 113.78818 229.4418 C 113.51907 231.41566 113.72377 233.0416 114.3718 234.11097 C 115.51563 235.9932 115.13759 236.88455 111.48636 240.17213 C 109.26955 242.16816 109.04355 242.52906 109.74804 243.31147 C 110.92217 244.61548 113.57851 244.5062 115.8085 243.04926 C 117.90807 241.70974 119.57316 241.5485 118.13875 242.84006 C 117.39981 243.5054 116.59593 245.40982 114.58867 251.30992 C 113.41992 254.64477 115.70846 262.3438 119.27451 267.0036 C 120.74876 268.90318 122.11876 271.21143 122.31895 272.13307 C 122.51915 273.0547 123.30641 274.62836 123.99358 275.7412 L 125.34176 277.67555 L 122.22945 280.16306 C 120.49943 281.56337 118.48263 283.69413 117.71338 284.9377 C 115.90544 287.8249 115.15907 294.16383 116.32057 297.28947 C 117.6213 300.9194 118.91683 300.6974 119.03337 296.89324 C 119.11995 295.24114 119.44118 293.06293 119.86702 292.04985 C 120.63609 290.01937 124.9175 285.77083 126.07397 285.83144 C 126.5696 285.8574 127.28291 287.26152 127.99207 289.53514 C 129.27116 293.5781 133.23743 299.29427 136.35079 301.52823 C 139.18585 303.54053 143.67717 304.7699 146.60297 304.26057 C 149.11142 303.8122 149.23317 303.86 150.85964 306.01604 C 151.82943 307.26792 152.6818 308.3894 152.75575 308.55894 C 152.9123 308.7328 152.3126 309.90244 151.46075 311.1417 C 148.98781 314.86377 147.5541 319.30296 147.26388 324.05057 L 147.03443 328.42863 L 143.63915 329.20326 C 139.65265 330.1954 137.66615 331.74792 134.21962 336.66145 C 131.35548 340.73576 130.22587 344.1141 130.14864 348.7486 Z M 124.672 140.30543 L 124.672 140.30543 C 126.88034 139.26152 127.4674 139.91352 128.00305 143.91752 C 128.83483 150.17349 126.62703 153.57813 121.91855 153.33137 C 118.11873 153.13223 116.67062 151.52395 117.10892 147.90233 C 117.404 145.43284 117.58653 145.11108 120.12944 143.21497 C 121.59866 142.04949 123.65477 140.7491 124.672 140.30543 Z M 134.86668 138.60325 L 134.86668 138.60325 C 136.88401 138.83322 140.3406 140.04977 141.08422 140.87564 C 141.24077 141.04951 139.56738 142.94978 137.34623 145.02841 L 133.25168 148.87258 L 133.15088 145.26412 C 133.0461 143.31208 132.74563 141.1427 132.41071 140.42108 C 131.62345 138.84744 132.18419 138.42125 134.86668 138.60325 Z M 146.78483 145.1089 L 146.78483 145.1089 C 151.45417 145.3122 152.98681 155.58083 148.90091 159.25979 C 146.8145 161.1384 142.44077 160.82636 140.60995 158.6182 C 138.42688 156.01884 138.12226 154.71898 139.1608 152.28845 C 140.48177 149.21008 144.92839 144.9702 146.78483 145.1089 Z M 188.5833 110.14944 L 188.5833 110.14944 C 190.31367 110.32295 194.63165 114.0696 195.95385 116.4996 C 197.0847 118.62966 195.11552 119.85176 190.8592 119.67011 C 184.32476 119.49332 181.32396 115.11164 185.32292 111.51096 C 186.45306 110.49337 187.5529 110.05402 188.5833 110.14944 Z M 159.31047 146.34517 L 159.31047 146.34517 C 161.79745 147.09675 163.72802 148.1919 165.67175 149.82616 C 168.28515 152.11675 168.55478 152.50362 169.29027 155.85543 C 170.34337 160.2593 170.20448 161.32883 168.16153 163.1683 C 166.03165 165.08606 160.3889 166.86113 158.26282 166.33555 C 157.32368 166.07925 155.08902 166.04497 153.29787 166.241 C 151.50671 166.43705 150.05463 166.4852 150.10243 166.36345 C 150.06762 166.23738 151.18044 165.55022 152.41934 164.82824 C 155.66223 163.01023 156.9529 160.5101 157.29958 155.47552 C 157.44677 152.66696 157.18111 150.62366 156.43299 149.09348 C 154.40613 145.09416 154.58 144.93761 159.31047 146.34517 Z M 182.07074 130.1019 L 182.07074 130.1019 C 183.5403 130.51025 186.68432 133.7398 187.81517 135.86985 C 188.75032 137.78258 188.76349 138.32167 187.89415 139.10443 C 186.45974 140.39598 181.78174 140.3579 179.94676 139.01925 C 178.19007 137.76754 177.51571 135.62 178.27612 133.75471 C 178.94094 132.13292 181.29681 129.85427 182.07074 130.1019 Z M 172.15593 139.10794 L 172.15593 139.10794 C 172.15593 139.10794 173.2518 140.32502 174.62162 141.84636 C 177.87006 145.45412 180.87016 146.68817 185.522 146.43497 C 187.51751 146.29105 189.25654 146.29936 189.4131 146.47323 C 190.11758 147.25563 185.66715 153.93885 182.89392 156.27846 C 181.2943 157.56135 178.61631 158.08366 177.83356 157.21432 C 177.52045 156.86658 176.73302 154.50603 176.0803 151.94545 C 175.38413 149.42401 174.26593 145.47232 173.47416 143.19437 C 172.72153 140.95988 172.15593 139.10794 172.15593 139.10794 Z M 196.54285 125.80762 L 196.54285 125.80762 C 198.28153 124.2421 198.0566 129.32447 196.25315 132.91597 C 195.60565 134.20734 194.80593 135.24224 194.55811 135.22925 C 194.3103 135.21627 193.3535 133.71657 192.37055 131.92559 C 191.43106 130.09547 190.0524 127.95242 189.30878 127.12655 L 187.9781 125.64867 L 191.97794 125.98254 C 194.1648 126.13857 196.23858 126.08159 196.54285 125.80762 Z" fill="black"/>
        </g>
        <g id="Graphic_92">
          <path d="M 114.33458 125.7651 C 115.2957 127.1822 116.81325 128.25571 120.2004 130.00702 C 122.74401 131.25856 124.98768 132.70145 125.16605 133.2492 C 125.74897 134.77073 124.11851 134.27112 119.13122 131.44196 C 114.06131 128.60848 113.07421 127.68701 112.55208 125.79593 C 112.07774 123.78311 112.90812 123.7438 114.33458 125.7651 Z" fill="#f3f3f3"/>
        </g>
        <g id="Graphic_91">
          <path d="M 148.1632 106.9543 C 149.20675 107.58881 143.52556 112.46805 142.08647 112.26839 C 141.01694 112.1295 141.24293 111.7686 144.1857 109.35504 C 146.3504 107.56336 147.71969 106.72397 148.1632 106.9543 Z" fill="#f3f3f3"/>
        </g>
        <g id="Graphic_90">
          <path d="M 184.20617 75.13071 C 185.7973 74.79994 185.6669 74.91735 183.05456 77.34823 C 181.27241 78.95288 179.85116 80.78353 179.19068 82.32272 C 178.01742 84.95326 178.39651 88.78339 179.96203 90.52207 C 180.9796 91.65221 187.91011 93.75489 190.19257 93.66743 C 192.26635 93.61045 199.21434 96.16962 200.42761 97.51709 C 201.68003 98.90804 203.49874 105.29856 203.7909 109.20697 C 203.9045 111.7807 202.7581 117.85017 201.93223 118.59379 C 201.14983 119.29827 200.57557 117.61154 201.25355 116.52885 C 203.6309 113.05026 202.233 102.58161 198.93242 99.1782 C 197.08428 97.30046 192.98417 95.71886 187.92778 94.99829 C 182.3801 94.16914 181.12353 93.64771 178.92748 91.29617 C 177.04453 89.29236 176.90097 88.87067 177.01768 85.85343 C 177.29041 80.64932 180.47614 75.97062 184.20617 75.13071 Z" fill="#f3f3f3"/>
        </g>
        <g id="Graphic_89">
          <path d="M 152.38956 109.288 L 152.38956 109.288 L 150.6067 107.74501 L 147.34668 110.68035 C 145.56453 112.285 144.2432 113.78956 144.4389 114.00689 C 144.59545 114.18076 146.62178 115.81934 148.8916 117.55352 C 152.43548 120.26561 153.80964 121.70435 157.99323 127.22484 C 164.66434 135.85763 168.6443 144.47363 170.7943 154.81603 C 172.01296 160.80237 171.9004 162.9501 170.24865 164.43733 C 168.90118 165.6506 163.26726 168.04737 158.22005 169.52233 C 155.9073 170.18802 154.6206 171.03174 151.01284 174.28018 C 148.40482 176.62845 146.55756 178.68527 146.44465 179.25917 C 146.37088 179.87655 145.49306 181.61142 144.50215 183.1333 C 142.8246 185.90307 142.19027 187.73354 138.6021 200.8814 C 136.61251 208.02491 135.89124 209.93366 133.00112 214.5036 C 130.19794 218.99527 124.75158 224.13532 123.85141 223.13558 C 123.5383 222.78784 123.39474 222.36616 123.57294 222.127 C 123.7468 221.97045 125.27681 220.43542 126.94154 218.70036 C 130.87522 214.76493 134.87781 207.934 136.25489 202.99485 C 136.78047 200.86877 138.32276 195.93828 139.60009 192.11213 C 140.88175 188.20337 141.98522 184.53377 142.09813 183.95987 C 142.47148 181.57732 147.30445 174.70707 150.73835 171.61518 C 152.6509 169.89311 154.09396 168.43636 154.01569 168.34942 C 153.93741 168.26249 152.3984 168.38891 150.64205 168.71102 C 146.5468 169.40755 143.29543 172.17768 138.93194 178.78262 C 137.21958 181.42632 134.72482 184.77451 133.4035 186.27907 C 131.99956 187.7793 131.05645 189.17942 131.213 189.3533 C 131.36956 189.52716 132.28687 189.40957 133.29977 189.0485 C 134.69089 188.583 135.42983 187.91765 136.77713 185.91747 C 138.65902 183.19981 139.1285 182.9345 139.63314 184.3691 C 140.39876 186.35576 137.5954 190.06052 128.7413 198.58374 C 124.03387 203.05844 120.22627 206.95907 120.16981 207.24602 C 120.19596 207.5373 121.4437 207.43703 123.00003 206.98019 C 125.478 206.32315 126.07788 205.94043 127.63818 203.82716 C 129.0203 201.95305 129.58103 201.52686 130.14628 201.80498 C 131.39852 202.409 130.35981 204.05263 125.63507 208.85775 C 119.81933 214.72392 119.24578 216.18484 118.23966 227.48006 C 117.77556 232.38422 117.22436 236.57975 116.96356 236.81458 C 116.70276 237.0494 115.8987 238.16691 115.22072 239.2496 C 114.09076 241.0541 114.0821 241.21932 115.08634 241.02345 C 117.18177 240.55345 121.902 235.04402 123.77489 230.91775 C 125.68691 226.83495 128.36004 224.03452 134.9847 219.32897 C 137.86668 217.28496 138.39261 216.7327 138.32282 215.69365 C 138.2442 214.0329 138.88754 213.61104 139.78771 214.61078 C 140.21823 215.08892 140.27503 216.37578 139.91448 217.7236 C 139.36708 219.4758 139.6246 224.04505 140.28995 224.784 C 140.52478 225.0448 144.18449 220.8051 145.31445 219.0006 C 145.9055 217.99617 146.60928 215.63094 146.83492 213.69621 C 147.06056 211.7615 147.46856 208.7181 147.77247 206.87032 C 148.03292 205.06167 148.31034 201.34878 148.36627 198.7011 C 148.53493 194.6926 148.7391 193.9578 149.54783 194.33152 C 150.19136 194.69657 150.50463 195.83122 150.47468 197.98327 C 150.46637 199.7223 150.63194 201.30478 150.82762 201.52212 C 151.02331 201.73945 151.32343 202.335 151.54527 202.84362 C 151.79759 203.56091 152.17147 203.5391 152.91041 202.87375 C 153.47548 202.36496 154.61879 201.88647 155.36656 201.84283 C 156.1578 201.76005 157.12724 201.4381 157.56191 201.04673 C 158.21391 200.45966 158.56493 195.3425 158.64092 185.19958 C 158.68333 180.43898 160.89044 173.8867 163.53742 170.79498 C 164.77614 169.2861 165.80203 168.6772 167.81918 168.12027 C 169.24944 167.69823 170.7275 167.15446 171.1187 166.80222 C 171.46643 166.48911 172.00553 166.47595 172.2795 166.78022 C 173.14053 167.7365 173.1716 190.06128 172.3951 197.76535 C 171.3365 207.6911 168.07338 216.21741 163.6181 220.6225 C 160.73196 223.53602 160.47549 223.68824 158.24516 223.57136 C 156.42785 223.47611 155.29736 222.91988 153.47537 221.33342 C 150.2271 218.51257 149.67882 216.3302 150.99079 211.84322 C 152.18985 207.93014 152.98524 206.97784 156.06309 205.93808 C 157.71068 205.32036 158.81935 205.5027 161.4499 206.67597 C 163.31085 207.51898 165.40662 208.6228 166.16323 209.20086 C 166.8807 209.73545 167.69376 210.02656 167.9111 209.83087 C 168.73697 209.08725 167.5237 207.73977 165.09317 206.70124 C 163.67572 206.08855 161.57129 205.14994 160.4408 204.5937 C 157.40589 203.2336 155.18439 203.7384 152.22863 206.39978 C 148.75127 209.5308 147.76072 212.6265 148.69657 217.68687 C 149.51484 221.82993 154.49816 226.3155 157.99354 226.0017 C 160.69768 225.77068 165.80965 222.26974 167.87406 219.23033 C 170.64694 215.3169 172.5368 209.28639 173.18306 202.48664 C 174.57553 188.56105 174.78765 184.51341 174.3772 176.54005 C 174.20228 171.97514 174.071 168.158 174.2014 168.04059 C 174.29266 167.8797 175.43615 168.18813 176.69704 168.62695 C 177.99707 169.10924 180.56233 169.94775 182.47973 170.50381 C 191.61892 173.1364 195.24522 175.06592 206.53337 183.31944 C 213.59497 188.45235 218.0695 192.37286 220.43526 195.43737 C 222.45312 198.02807 223.17094 200.13649 222.14054 200.04107 C 221.97533 200.0324 219.5358 197.58527 216.67007 194.5774 C 207.87722 185.33641 192.51494 175.00566 184.94975 173.15963 L 183.31496 172.74263 L 183.22838 174.39472 C 183.05955 177.61631 186.84884 189.08002 188.80573 191.25337 C 189.23625 191.7315 190.2237 194.2268 191.00249 196.75256 C 191.7378 199.31746 192.53822 201.4302 192.7469 201.39973 C 192.9121 201.40838 194.08121 199.64736 195.31543 197.43417 C 196.91903 194.49485 197.46643 192.74265 197.40512 190.75148 C 197.34364 187.9734 198.0346 186.64288 198.97391 187.6861 C 199.71753 188.51196 199.5146 194.75512 198.73218 195.4596 C 197.21084 196.82943 198.23813 202.51583 200.8434 207.33236 C 202.47005 210.2753 212.12845 221.17686 214.29817 222.45021 C 215.70263 223.31072 215.70263 223.31072 216.38476 221.3585 C 218.84834 214.654 219.39574 212.9018 219.43886 211.28885 C 219.42552 209.96284 219.69498 209.5628 220.43843 209.60176 C 221.18187 209.64073 221.48631 210.15367 221.89536 211.83174 C 222.37835 213.67935 222.80454 214.2401 225.34833 216.27854 C 229.52707 219.5209 237.07945 222.40165 244.0271 223.387 C 247.27483 223.84712 250.1052 224.3682 250.3009 224.58553 C 250.53573 224.84633 250.82268 224.9028 251.04002 224.7071 C 251.2139 224.55055 249.8179 222.73792 247.94362 220.5689 C 244.42554 216.57427 241.89855 211.84467 240.29735 206.04536 C 239.07038 201.79806 237.90906 199.45932 235.6782 196.9817 C 233.52562 194.59102 233.34707 193.25635 235.21668 193.93416 C 236.27322 194.32086 239.59128 198.18076 239.82196 199.31108 C 239.95253 199.98058 245.15266 201.90974 245.9569 201.57914 C 246.3829 201.35297 246.1654 200.76175 245.34783 199.76634 C 244.64334 198.98394 242.96024 196.32794 241.5989 193.85448 C 237.44092 186.26454 236.47546 184.93005 233.37942 182.36568 C 231.75312 180.99655 229.8094 179.3623 229.13972 178.70597 C 227.31773 177.1195 222.6219 175.05111 219.90892 174.66043 C 217.4829 174.32621 215.96968 173.1701 216.60853 172.04393 C 216.79105 171.72217 217.7953 171.5263 218.78223 171.66086 C 220.13871 171.8562 221.2777 171.46032 222.91212 170.3035 C 224.32921 169.34237 225.03334 168.55095 224.75938 168.24668 C 224.5637 168.02935 224.02892 167.9599 223.60724 168.10347 C 222.97255 168.36012 220.41163 167.439 209.7026 163.15034 C 206.49815 161.86417 204.65036 161.56025 202.35492 161.89553 C 197.81182 162.44434 186.48302 166.82052 187.22664 167.6464 C 187.3832 167.82027 188.318 168.15917 189.34407 168.33719 C 191.06145 168.75852 194.61381 170.5185 203.0274 175.14244 C 207.33637 177.48047 217.7943 186.56022 223.26928 192.7282 C 227.4527 197.46177 231.58417 203.1866 232.95002 206.36438 C 233.43284 207.42508 235.32895 209.96798 237.12496 212.05007 C 239.74287 215.04496 240.2778 215.90132 239.7562 216.37097 C 238.79993 217.232 233.0988 210.638 230.38476 205.52587 C 225.86139 197.00563 209.08043 180.55381 200.2495 175.99083 C 197.99283 174.79575 195.1318 173.27909 194.00995 172.55764 C 191.60107 171.1061 187.86619 169.66788 184.79232 169.0512 C 179.6315 167.95242 174.90933 164.80583 174.4653 162.21478 C 174.23463 161.08446 174.39984 161.09312 176.9173 162.05337 C 179.19127 162.91803 182.004 162.1957 185.48153 159.85159 C 187.50283 158.42513 188.38949 157.31196 190.34948 153.89433 C 196.06858 143.55017 195.59372 139.17662 187.65288 129.4833 C 185.98294 127.36641 185.02632 126.65362 183.43067 126.28008 C 179.54807 125.2897 174.55802 129.62535 174.14172 134.40777 C 173.89444 136.75552 174.18156 137.59888 175.8037 139.83752 C 177.3519 141.90662 178.22593 142.61508 180.25642 143.38415 C 183.0565 144.48346 188.02578 144.49539 189.19939 143.43867 C 190.5034 142.26453 189.12942 141.6127 186.65578 142.18714 C 183.55178 142.93561 180.02574 142.25383 177.84719 140.35877 C 176.29916 139.07658 176.1208 138.52883 176.13758 135.83768 C 176.1587 133.06392 176.34555 132.65956 178.8405 130.09828 L 181.55276 127.34131 L 184.27907 129.058 C 188.41417 131.55258 190.7976 135.8605 191.42937 141.98173 C 191.91722 146.10747 191.02658 148.87708 187.91463 152.9384 C 182.44264 160.1479 178.79539 161.77906 175.7035 158.34516 C 175.23384 157.82356 174.98585 157.02366 175.1727 156.6193 C 175.67682 155.69315 172.95741 145.94215 169.82966 137.66072 C 169.35983 136.3522 168.45065 133.94385 167.87206 132.33973 C 167.25434 130.69213 165.99292 127.89258 165.05343 126.06246 C 162.98743 122.01968 154.88987 111.36558 152.38956 109.288 Z" fill="#f3f3f3"/>
        </g>
        <g id="Graphic_88">
          <path d="M 125.058 136.10124 C 126.24044 135.66622 128.83583 135.13958 130.8748 134.95653 C 133.95715 134.62108 135.43538 134.86421 139.5703 136.57188 C 142.32692 137.71033 144.98794 139.09227 145.49674 139.65734 L 146.3969 140.65708 L 144.63172 140.35749 C 143.64912 140.14033 141.45343 139.3626 139.75769 138.52825 C 135.87924 136.66835 133.06634 136.60377 126.86267 138.01811 C 122.50228 139.03207 121.69372 139.44527 118.8727 141.90663 C 116.1386 144.28971 115.64748 144.96804 115.3349 146.98104 C 114.66196 151.12877 116.2538 153.94564 120.006 155.05344 C 121.23209 155.36619 123.30587 155.3092 124.61005 154.92198 C 127.68357 153.96483 128.07495 154.3995 126.032 156.23898 C 124.03252 158.03932 123.4891 158.13509 120.13693 157.29676 C 116.66302 156.41063 113.4842 153.05501 113.27049 150.02045 C 112.99564 145.78163 113.82134 144.2511 118.58106 140.35896 C 121.00223 138.41505 123.91902 136.49712 125.058 136.10124 Z" fill="#f3f3f3"/>
        </g>
        <g id="Graphic_87">
          <path d="M 129.8368 139.74779 C 130.81524 140.83446 130.90376 147.83838 129.9435 150.35584 C 129.41775 151.69501 128.83103 152.61683 128.5962 152.35602 C 128.40051 152.13869 128.5091 151.64739 128.85683 151.33429 C 129.90004 150.39498 130.23789 144.73871 129.38083 142.12601 C 128.5934 139.76545 128.81921 138.61764 129.8368 139.74779 Z" fill="#f3f3f3"/>
        </g>
        <g id="Graphic_86">
          <path d="M 146.24503 141.97443 C 148.00138 141.65232 149.67945 141.24327 149.89679 141.04758 C 150.72266 140.30396 156.7052 141.52864 160.87926 143.27978 C 165.50115 145.17864 166.6578 146.02616 166.90596 147.61297 C 167.03654 148.28246 166.5061 148.13042 165.27118 147.19597 C 163.16224 145.55305 159.55343 144.08003 157.89267 144.15866 C 157.18837 144.16316 156.45358 143.95899 156.21875 143.69819 C 155.4708 142.95492 148.4494 142.58694 146.21924 143.25697 C 145.12806 143.53111 143.04146 144.62282 141.5809 145.62308 C 139.38573 147.20609 138.80767 147.9627 137.57363 150.9628 C 136.43951 153.6368 136.28764 154.95416 136.80094 156.22353 C 138.45824 160.16207 141.90635 162.33074 146.58002 162.45142 C 148.73208 162.48138 149.2407 162.25954 151.12709 160.24619 C 154.72602 156.37605 154.8597 151.45456 151.47617 146.473 C 150.39763 144.9255 150.37148 144.63422 151.28013 144.68184 C 152.18878 144.72946 152.6541 145.33367 153.98515 148.38537 C 157.67382 157.02752 153.91922 164.65835 146.10656 164.37316 C 142.34588 164.21748 139.83708 163.09202 137.4888 160.484 C 135.45364 158.22372 134.231 153.8938 134.98258 151.40683 C 136.11202 147.2416 141.43681 142.84067 146.24503 141.97443 Z" fill="#f3f3f3"/>
        </g>
        <g id="Graphic_85">
          <path d="M 186.28265 106.63276 C 188.58242 106.21488 193.68695 108.38753 195.76126 110.69128 C 197.5616 112.69076 200.89388 121.81123 201.15556 125.51096 C 201.3388 128.33684 199.9011 134.43246 198.65372 136.10655 C 198.07133 136.94576 197.31075 138.02413 196.99782 138.4633 C 196.63277 139.10683 196.21542 139.16779 195.82404 138.73312 C 195.43266 138.29845 195.58904 137.6854 196.19757 137.13747 C 197.93625 135.57196 199.66107 130.3197 199.59075 126.91992 C 199.354 118.0031 196.00492 111.57378 190.18292 108.86655 C 187.9176 107.83668 186.80893 107.65433 185.7439 108.21975 C 182.63575 109.83774 181.11475 112.78139 181.82842 115.75931 C 182.23314 117.51999 182.65932 118.08073 184.97261 119.77577 C 187.08588 121.33608 188.34677 121.7749 191.07706 121.83516 C 192.97698 121.93473 194.9768 121.70821 195.53322 121.36463 C 197.24593 120.29474 197.91145 121.82059 196.27269 123.06001 C 191.79541 126.3043 181.11669 121.4374 180.57636 115.94219 C 180.08833 111.02954 182.3526 107.33795 186.28265 106.63276 Z" fill="#f3f3f3"/>
        </g>
        <g id="Graphic_84">
          <path d="M 168.42392 170.01567 C 169.22814 169.68508 170.14113 169.6501 170.4151 169.95436 C 170.68906 170.25863 171.02018 173.4236 171.1253 176.94945 L 171.2876 183.336 L 168.39262 185.62782 C 166.01492 187.53259 165.16723 187.90232 163.64553 187.69832 C 162.61947 187.5203 161.4455 187.0032 161.01066 186.60767 C 160.30618 185.82526 160.34965 185.78613 162.08868 185.79443 C 163.86685 185.8462 166.6489 184.1283 165.98357 183.38935 C 165.43564 182.78082 163.73141 182.89858 162.949 183.60306 C 161.9058 184.54237 160.81012 184.1122 160.75764 182.74273 C 160.7488 182.12103 161.09186 180.31671 161.6306 178.72973 C 162.97738 174.36881 165.55042 171.10756 168.42392 170.01567 Z" fill="#f3f3f3"/>
        </g>
        <g id="Graphic_83">
          <path d="M 178.66277 171.422 C 181.48017 172.1909 181.36275 172.0605 181.24154 174.37343 C 181.15062 176.10813 183.83523 185.73306 184.69626 186.68933 C 184.89195 186.90667 185.02252 187.57617 184.90962 188.15007 C 184.82286 189.01526 184.44464 189.11968 183.17509 188.84607 C 182.31423 188.6767 181.2272 188.08133 180.75755 187.55973 C 179.89652 186.60345 177.63138 186.3605 177.58809 187.18654 C 177.52748 188.34301 181.50603 190.66373 183.73636 190.78061 C 185.80148 190.88884 187.81898 191.90573 187.21044 192.45366 C 186.12377 193.4321 183.58917 193.58918 181.59782 192.86358 C 177.21508 191.14292 176.81054 190.16915 176.33878 180.20462 C 176.09857 175.30496 175.9846 171.1574 176.115 171.03999 C 176.2454 170.92257 177.35408 171.10492 178.66277 171.422 Z" fill="#f3f3f3"/>
        </g>
        <g id="Graphic_82">
          <path d="M 161.97647 189.51598 C 161.96781 189.6812 161.59843 190.40732 161.14644 191.12911 C 160.37287 192.4553 160.37287 192.4553 160.33771 190.7554 C 160.35485 189.63807 160.63297 189.07283 161.2112 189.10313 C 161.62423 189.12478 161.98946 189.26817 161.97647 189.51598 Z" fill="#f3f3f3"/>
        </g>
        <g id="Graphic_81">
          <path d="M 115.98821 230.13693 C 116.06649 230.22386 116.03185 230.8847 115.91461 231.5412 C 115.72794 232.7325 115.64533 232.72816 115.5842 231.5239 C 115.52306 230.31963 115.67511 229.7892 115.98821 230.13693 Z" fill="#f3f3f3"/>
        </g>
        <g id="Graphic_80">
          <path d="M 160.71248 194.66814 C 160.8692 195.62892 161.40865 197.18957 161.98273 198.0894 C 162.93087 199.7543 162.48772 201.0978 160.79666 201.75466 C 160.16197 202.0113 159.97044 200.92446 160.10014 197.6594 C 160.28594 192.53357 160.38153 192.29009 160.71248 194.66814 Z" fill="#f3f3f3"/>
        </g>
        <g id="Graphic_79">
          <path d="M 168.29323 188.31464 C 169.69733 187.60132 170.96238 187.17063 171.11893 187.3445 C 171.54945 187.82264 170.41691 197.57884 169.9431 197.92676 C 169.68663 198.07898 168.83876 197.6618 168.04301 197.04028 C 167.20813 196.37528 166.2342 195.99291 165.76904 196.17562 C 165.13435 196.43226 165.47794 196.98868 167.56956 198.962 C 170.21777 201.37867 170.43095 202.0525 168.9096 203.42232 C 168.30107 203.97025 164.0392 198.36283 163.52572 196.30654 C 162.8557 194.07639 163.52016 190.88077 164.67213 190.23708 C 165.26768 189.93696 166.84565 189.0671 168.29323 188.31464 Z" fill="#f3f3f3"/>
        </g>
        <g id="Graphic_78">
          <path d="M 135.17225 222.07224 C 136.45029 221.39374 137.63273 220.95872 137.78928 221.13258 C 137.94583 221.30645 138.08524 222.59765 138.08992 224.08887 C 138.2212 227.906 139.0909 228.69707 141.26424 226.74018 L 143.00292 225.17466 L 145.0381 227.43495 C 146.44706 228.99976 147.84718 229.94287 149.27329 230.39035 C 151.31244 230.9942 152.13433 231.90702 151.35192 232.6115 C 151.17806 232.76805 150.08237 232.33788 148.9562 231.69904 C 146.50819 230.20402 140.06934 229.78375 137.40019 230.92775 C 135.32225 231.85425 134.7222 231.45006 133.6433 228.32874 C 132.78192 225.79865 132.74278 225.75518 132.17771 226.26397 C 131.6561 226.73363 132.55247 230.1767 133.49178 231.2199 C 134.43109 232.26312 134.28355 233.49787 133.02751 235.33717 C 132.2148 236.61988 132.04959 236.61123 130.83632 235.26375 C 129.03598 233.26427 128.5703 231.08624 129.25226 228.34711 C 129.92556 225.7732 131.55115 223.99468 135.17225 222.07224 Z" fill="#f3f3f3"/>
        </g>
        <g id="Graphic_77">
          <path d="M 127.39236 232.22556 C 127.65351 233.56456 128.67127 235.4816 129.91936 236.95516 C 131.00656 238.33745 132.0025 239.8806 132.01566 240.4197 C 132.09844 241.21095 130.48654 245.8893 130.0084 246.3198 C 129.96493 246.35895 128.69538 246.08534 127.18667 245.63353 C 125.02145 245.06448 124.1431 244.43862 122.58625 242.53473 L 120.72062 240.2005 L 122.56337 237.43938 C 123.59342 235.96098 124.46691 234.3087 124.57549 233.8174 C 124.70571 232.91308 126.34845 230.01723 126.72234 229.9954 C 126.84841 229.9606 127.16602 231.01264 127.39236 232.22556 Z" fill="#f3f3f3"/>
        </g>
        <g id="Graphic_76">
          <path d="M 154.78143 209.84684 C 154.84672 210.1816 154.60773 210.7903 154.26 211.1034 C 153.91226 211.4165 153.45577 211.434 153.26008 211.21666 C 153.02525 210.95586 153.2599 210.42975 153.78151 209.9601 C 154.25965 209.52958 154.677 209.46862 154.78143 209.84684 Z" fill="#f3f3f3"/>
        </g>
        <g id="Graphic_75">
          <path d="M 166.162 203.69248 C 167.17958 204.82262 166.37103 205.23582 164.67096 204.48407 C 162.36218 203.49334 162.10553 202.85865 163.84456 202.86696 C 164.71408 202.87111 165.73148 203.21435 166.162 203.69248 Z" fill="#f3f3f3"/>
        </g>
        <g id="Graphic_74">
          <path d="M 162.42437 209.41907 C 164.83757 210.78802 165.86815 211.67035 166.07267 212.50938 C 166.48604 214.10485 165.3514 214.41813 163.42516 213.24036 C 160.98147 211.66274 160.63824 212.68015 162.89074 214.74474 C 164.75187 216.37467 164.82582 216.5442 163.913 217.3661 C 162.13086 218.97076 159.52179 216.59756 158.01653 212.1286 C 157.34218 209.98104 157.34633 209.11153 158.12874 208.40705 C 158.91114 207.70256 159.65026 207.82413 162.42437 209.41907 Z" fill="#f3f3f3"/>
        </g>
        <g id="Graphic_73">
          <path d="M 120.41272 243.70472 C 120.65188 243.8829 121.43896 244.66965 122.22605 245.45638 C 123.0566 246.20398 124.9915 247.21653 126.50021 247.66834 C 129.88718 248.63275 129.8089 248.54582 129.74847 250.4892 C 129.74432 251.3587 130.09258 253.40634 130.5451 255.04527 C 131.03675 256.72767 131.45878 258.15793 131.45012 258.32314 C 131.44147 258.48835 130.39808 258.64075 129.07208 258.6541 C 126.33313 258.75904 123.44248 260.96825 122.55618 263.65525 C 121.722 266.1379 121.43072 266.16405 119.61288 263.70808 C 117.44714 260.7783 115.8546 254.81378 116.38433 251.8182 C 117.13555 247.7574 119.5387 242.99626 120.41272 243.70472 Z" fill="#f3f3f3"/>
        </g>
        <g id="Graphic_72">
          <path d="M 178.72431 193.95546 C 180.18523 194.52902 181.98089 195.03728 182.72 195.15885 C 184.03735 195.31072 184.15476 195.44112 183.82037 197.08023 C 183.20803 200.0715 181.11313 202.90223 178.51792 204.21578 C 176.38786 205.34663 174.53142 205.20792 174.59635 203.96884 C 174.6528 203.6819 175.88305 203.12513 177.47419 202.79436 C 180.49558 202.04155 182.20378 200.26736 180.14732 199.99392 C 179.52995 199.92015 178.6909 200.12468 178.25624 200.51605 C 177.82157 200.90743 176.98253 201.11196 176.32602 200.99472 C 175.3391 200.86016 175.2042 200.27327 175.5817 197.0212 C 175.816 194.92127 176.03299 193.15176 176.03732 193.06916 C 176.12425 192.99088 177.30254 193.42538 178.72431 193.95546 Z" fill="#f3f3f3"/>
        </g>
        <g id="Graphic_71">
          <path d="M 147.78845 219.99998 C 148.45379 220.73892 148.8715 222.25178 148.4803 222.60403 C 148.04562 222.9954 146.66714 221.63927 146.71043 220.81322 C 146.71025 220.0263 147.35793 219.52185 147.78845 219.99998 Z" fill="#f3f3f3"/>
        </g>
        <g id="Graphic_70">
          <path d="M 154.58246 214.43357 C 155.73858 212.92036 155.77772 212.96383 156.69105 214.50266 C 157.226 215.35902 158.50456 217.04124 159.56128 218.21485 L 161.4399 220.30127 L 159.6619 221.0364 C 157.6709 221.88462 155.92737 221.172 153.53996 218.52052 C 151.77875 216.5645 151.42634 215.3864 152.69156 215.74261 C 153.17853 215.9338 153.86967 215.3902 154.58246 214.43357 Z" fill="#f3f3f3"/>
        </g>
        <g id="Graphic_69">
          <path d="M 146.3937 223.69573 C 146.82422 224.17387 148.00684 224.52576 149.0807 224.58204 C 151.06322 224.68594 154.78529 227.15888 154.00288 227.86336 C 153.04661 228.7244 151.01197 228.82484 149.2641 228.19483 C 147.4771 227.52135 144.39837 224.62656 144.45032 223.6353 C 144.53708 222.77011 145.61094 222.8264 146.3937 223.69573 Z" fill="#f3f3f3"/>
        </g>
        <g id="Graphic_68">
          <path d="M 142.54368 232.35696 C 146.63479 232.52995 149.7523 233.8944 153.47023 237.23684 C 155.64445 239.2145 156.65338 240.50986 157.57555 242.6704 C 159.46335 246.95233 158.47642 246.81778 155.02345 242.37098 C 151.69223 237.97198 150.2921 237.02887 144.99205 235.4258 C 139.89635 233.87485 136.69693 235.65372 136.25015 240.22747 C 135.6037 246.2403 140.72644 252.0171 146.99575 252.5113 C 150.1304 252.75843 151.85627 252.22764 156.09457 249.59206 C 162.68459 245.54735 167.80901 239.43786 170.403 232.61594 C 171.55443 229.6115 172.12207 221.151 171.32165 219.03827 C 170.99105 218.23404 170.9126 217.3602 171.1734 217.12537 C 171.73847 216.61657 171.77761 216.66004 172.60419 219.06406 C 174.0703 223.48957 172.78537 232.2024 169.88227 237.02015 C 166.47505 242.76405 163.69334 246.0558 158.9466 249.7001 C 153.6348 253.85323 152.7871 254.22297 148.43086 254.3674 C 142.57908 254.59914 139.86143 252.71724 135.8775 245.75767 C 133.2201 241.14548 133.19395 240.8542 134.00198 238.08027 C 135.19238 234.3324 138.3265 232.21878 142.54368 232.35696 Z" fill="#f3f3f3"/>
        </g>
        <g id="Graphic_67">
          <path d="M 188.17608 194.57506 C 189.1152 194.83135 190.9516 202.46528 190.76093 205.31298 C 190.47053 209.2737 192.075 210.26893 192.88286 206.70808 C 193.29986 205.0733 195.4467 201.2513 195.98148 201.32075 C 196.19015 201.29027 196.86866 202.5683 197.53418 204.09415 C 198.15623 205.65914 199.36535 207.87613 200.2134 209.08022 L 201.7138 211.27106 L 199.13626 213.828 C 194.76791 218.15482 189.96402 218.93846 184.55504 216.25286 C 182.29405 215.1404 178.99764 210.86746 178.66236 208.57202 C 178.4142 206.9852 178.50546 206.82433 180.80939 205.53693 C 183.53932 204.02337 184.9301 201.98405 185.89 197.89276 C 186.51983 195.358 187.23694 194.31876 188.17608 194.57506 Z" fill="#f3f3f3"/>
        </g>
        <g id="Graphic_66">
          <path d="M 139.98451 239.30495 C 140.88468 240.3047 143.83248 240.95617 144.52796 240.32996 C 145.35383 239.58634 145.0364 239.3212 142.42335 238.60445 C 140.71029 238.1005 140.35372 237.7919 140.78839 237.40053 C 141.78813 236.50036 148.09243 237.90757 149.3883 239.25938 C 150.28848 240.25912 147.84567 242.61605 145.15902 243.30356 C 142.4289 244.03022 138.0983 242.1052 138.237 240.24876 C 138.24981 239.21404 139.39745 238.65295 139.98451 239.30495 Z" fill="#f3f3f3"/>
        </g>
        <g id="Graphic_65">
          <path d="M 133.91247 246.11026 C 135.2087 249.0359 139.94438 254.2954 142.20537 255.40787 C 143.82283 256.1553 144.61425 256.85942 145.21015 258.13313 C 145.65816 259.06775 146.72372 260.86306 147.56743 262.14976 C 148.49375 263.44078 149.05485 264.5884 148.92445 264.70583 C 148.27244 265.2929 143.67705 265.25914 141.6379 264.65528 C 140.37268 264.29906 138.12035 263.02138 136.68974 261.8696 C 134.1851 259.8746 133.91979 259.40514 132.6755 255.48825 C 131.36161 251.31922 131.3997 246.64122 132.7037 245.4671 C 133.18184 245.03657 133.54707 245.17996 133.91247 246.11026 Z" fill="#f3f3f3"/>
        </g>
        <g id="Graphic_64">
          <path d="M 175.73188 207.59012 C 176.39272 207.62475 176.89285 208.35503 177.57586 210.33737 C 178.11964 211.81543 179.01999 213.60208 179.60705 214.25409 C 180.5855 215.34076 180.603 215.79725 179.52515 217.3974 C 178.12573 219.60193 176.29145 221.41093 175.50887 221.3285 C 174.55675 221.32002 174.82586 219.34616 175.91254 218.36771 C 177.04268 217.35013 176.82517 216.7589 175.42088 216.68531 C 173.8514 216.60306 173.0333 213.24692 173.75872 210.46865 C 174.48848 207.6078 174.57541 207.5295 175.73188 207.59012 Z" fill="#f3f3f3"/>
        </g>
        <g id="Graphic_63">
          <path d="M 156.03788 229.33673 C 157.40285 228.57995 159.13737 227.88395 159.88948 227.7577 C 160.64158 227.63145 162.6021 226.57456 164.23653 225.41774 C 166.26216 223.90868 167.70107 223.32143 168.73147 223.41685 C 170.29663 223.5817 170.2923 223.6643 169.84535 227.45115 C 169.61105 229.55108 168.71176 232.4859 167.89039 233.93382 C 166.42585 236.5905 166.34324 236.58618 164.6998 236.3344 C 163.67374 236.15637 162.39102 235.34366 161.3343 234.17005 C 159.76879 232.43137 158.2644 231.89695 158.2038 233.05342 C 158.11271 234.0012 161.86977 237.38713 163.73938 238.06494 L 165.56552 238.78188 L 164.0137 239.94303 C 162.80528 240.87368 162.01404 240.95646 160.3531 240.24818 C 157.59216 239.19233 153.55663 234.79784 153.29963 232.58933 C 153.06445 230.7547 152.88626 230.99386 156.03788 229.33673 Z" fill="#f3f3f3"/>
        </g>
        <g id="Graphic_62">
          <path d="M 145.53829 247.9206 C 145.26467 249.19015 144.87798 250.2467 144.75623 250.1989 C 142.7389 249.96893 141.51698 248.78667 140.16862 246.0654 C 140.02073 245.7263 141.27712 245.46083 143.01615 245.46913 L 146.116 245.59017 L 145.53829 247.9206 Z" fill="#f3f3f3"/>
        </g>
        <g id="Graphic_61">
          <path d="M 127.83353 260.94988 C 129.31591 260.3235 130.09416 260.48854 132.30303 261.80536 C 135.59458 263.80016 136.61217 264.9303 137.43441 267.41693 C 138.43936 270.3687 137.96608 273.07735 135.98842 275.25158 L 134.31503 277.15184 L 135.07111 275.36917 C 136.492 271.9647 136.1176 269.6258 133.59095 266.47002 C 131.53396 263.83585 131.17306 263.60985 129.22968 263.54942 L 127.11676 263.56293 L 126.29557 265.79777 C 125.27454 268.6848 125.73155 271.02803 128.0497 275.0012 C 129.64154 277.81806 130.07638 278.2136 131.94599 278.8914 C 135.72434 280.29048 139.17193 280.0984 143.07132 278.39764 C 147.77061 276.44888 151.37837 273.20044 154.44669 268.39134 C 157.14995 264.22576 157.5453 263.004 158.30033 256.49986 C 158.93397 251.52175 159.12948 250.95217 159.99051 251.90845 C 160.61672 252.60392 159.7706 260.05585 158.5977 264.2602 C 157.38132 268.50372 154.79548 272.7997 151.97012 275.34366 C 149.57944 277.49624 143.6674 280.45826 142.0153 280.37168 C 141.51967 280.3457 140.88498 280.60235 140.45031 280.99373 C 138.19003 283.0289 130.65081 280.68724 127.1284 276.7752 C 124.54098 273.989 123.54451 270.0851 124.34786 265.81994 C 125.02532 262.3765 125.25131 262.0156 127.83353 260.94988 Z" fill="#f3f3f3"/>
        </g>
        <g id="Graphic_60">
          <path d="M 153.53692 243.86688 C 155.96347 246.56183 155.76362 247.214 152.3034 249.2277 C 150.67763 250.21932 148.73876 250.8632 148.08225 250.74596 C 147.01704 250.52447 146.95176 250.18972 147.72082 248.15923 C 148.63328 245.76351 150.7455 242.60236 151.628 242.3587 C 151.88014 242.28908 152.75416 242.99754 153.53692 243.86688 Z" fill="#f3f3f3"/>
        </g>
        <g id="Graphic_59">
          <path d="M 129.27367 265.871 C 129.46936 266.08835 129.36078 266.57965 128.96958 266.9319 C 128.62185 267.245 128.25229 267.1842 128.187 266.84946 C 128.08257 266.47125 128.23029 266.0234 128.4911 265.7886 C 128.70843 265.5929 129.03885 265.6102 129.27367 265.871 Z" fill="#f3f3f3"/>
        </g>
        <g id="Graphic_58">
          <path d="M 184.68597 218.49618 C 187.56 219.76503 193.79017 220.2158 195.53768 219.27198 C 196.55925 218.7457 197.0114 218.8108 197.3072 219.48896 C 197.48557 220.03672 197.92059 221.21916 198.3686 222.15379 C 200.87412 228.08332 195.86746 235.89702 188.39874 237.74206 C 186.29899 238.29467 184.7773 238.09068 181.60765 236.93058 C 178.15539 235.63143 177.2727 235.08818 176.0028 233.24074 C 174.72857 231.4759 174.5327 230.47167 174.84944 227.58915 C 175.23994 224.08927 175.23994 224.08927 178.8477 220.84083 L 182.4598 217.50978 L 184.68597 218.49618 Z" fill="#f3f3f3"/>
        </g>
        <g id="Graphic_57">
          <path d="M 132.08259 267.59203 C 133.13048 268.14394 134.02685 271.587 133.49243 273.0914 C 133.20998 273.73924 132.5798 274.7002 132.0582 275.16985 C 131.23232 275.91347 130.98884 275.81788 130.11464 274.3225 C 128.39673 271.54045 129.90421 266.48388 132.08259 267.59203 Z" fill="#f3f3f3"/>
        </g>
        <g id="Graphic_56">
          <path d="M 161.17535 242.7348 C 161.37104 242.95214 161.35372 243.28256 161.09292 243.5174 C 160.87559 243.71308 160.38429 243.6045 160.03205 243.2133 C 159.71894 242.86556 159.77973 242.496 160.11448 242.4307 C 160.4927 242.32629 160.94052 242.474 161.17535 242.7348 Z" fill="#f3f3f3"/>
        </g>
        <g id="Graphic_55">
          <path d="M 148.6269 256.15856 C 149.04426 256.0976 150.1183 256.9408 151.16636 258.2796 C 152.13615 259.5315 153.5581 260.8485 154.20162 261.21355 C 155.77562 262.0001 155.6499 263.60874 154.0198 264.68295 C 152.94611 265.41358 152.7461 265.27885 150.12818 262.28396 C 146.34047 257.90245 146.03585 256.6026 148.6269 256.15856 Z" fill="#f3f3f3"/>
        </g>
        <g id="Graphic_54">
          <path d="M 175.61195 235.1668 L 177.17747 236.90548 L 175.04759 238.82324 C 173.91744 239.84082 172.11348 241.0716 171.0571 241.4718 L 169.14871 242.32435 L 171.35201 238.2154 C 172.5471 235.95875 173.60311 233.9847 173.7813 233.74556 C 173.95518 233.589 174.75092 234.21053 175.61195 235.1668 Z" fill="#f3f3f3"/>
        </g>
        <g id="Graphic_53">
          <path d="M 149.4206 267.09253 C 153.64193 266.3612 153.5595 267.14378 149.11739 272.08796 C 146.08786 275.3667 146.29654 275.33623 143.50494 273.2848 C 141.86565 272.1635 141.31807 273.12877 142.72704 274.6936 C 143.74462 275.82373 143.42303 276.4281 141.49282 276.90678 C 139.60607 277.3463 138.61013 275.80314 139.427 273.6509 C 139.80936 272.67696 140.03934 270.65964 139.98686 269.29016 L 139.82978 266.75556 L 143.32966 267.14606 C 145.22092 267.41084 147.999 267.34936 149.4206 267.09253 Z" fill="#f3f3f3"/>
        </g>
        <g id="Graphic_52">
          <path d="M 126.1337 280.74042 C 127.49001 280.14884 128.44213 280.15733 129.11613 280.73106 C 130.38586 281.79158 130.34239 281.83072 126.15172 283.55764 C 123.06521 284.7626 122.50447 285.1888 120.28783 287.97174 C 118.91437 289.68064 117.67998 291.10692 117.51477 291.09826 C 117.39303 291.05046 117.52758 290.06353 117.87947 288.8809 C 118.59191 286.35047 122.91246 282.1454 126.1337 280.74042 Z" fill="#f3f3f3"/>
        </g>
        <g id="Graphic_51">
          <path d="M 154.2655 255.253 C 156.3391 254.40912 156.49999 254.50038 156.4787 256.48723 C 156.4574 258.47407 155.55325 259.13076 153.86184 258.2138 C 151.23996 256.87533 151.25727 256.5449 154.2655 255.253 Z" fill="#f3f3f3"/>
        </g>
        <g id="Graphic_50">
          <path d="M 168.54485 244.3635 C 170.29254 244.2066 173.5659 242.59726 176.9217 240.20535 C 179.46028 238.39185 179.58635 238.35704 182.38643 239.45635 C 184.00822 240.12116 185.48212 240.4469 185.656 240.29035 C 186.61227 239.42932 187.84736 241.15068 188.66978 244.42422 C 189.14412 246.43704 189.83146 248.33678 190.22284 248.77145 C 190.57508 249.16265 190.81008 250.21036 190.72332 251.07555 C 190.5325 253.13634 184.36035 259.48083 181.83458 260.2596 C 177.8351 261.49956 176.83518 261.61282 173.96565 261.04828 C 171.257 260.575 170.61349 260.20994 168.42177 257.7758 C 166.85625 256.0371 165.595 254.02447 165.02075 252.33774 C 164.26812 250.10325 164.31141 249.2772 165.4109 247.26403 C 167.0145 244.3247 166.79716 244.5204 168.54485 244.3635 Z" fill="#f3f3f3"/>
        </g>
        <g id="Graphic_49">
          <path d="M 206.81488 217.46087 C 208.81092 219.67769 211.3722 222.17262 212.40276 223.05495 C 213.47247 223.98074 214.53353 225.07175 214.67276 225.57604 C 215.00336 226.38026 214.8295 226.53681 213.23402 226.9502 C 210.83866 227.61156 205.07363 226.9781 202.73004 225.8613 C 201.31692 225.166 200.76466 224.64006 200.44706 223.58802 C 200.2382 222.8316 199.70309 221.18833 199.22893 219.96242 C 198.47197 217.81054 198.4763 217.72793 200.78005 215.65363 L 203.17073 213.50104 L 206.81488 217.46087 Z" fill="#f3f3f3"/>
        </g>
        <g id="Graphic_48">
          <path d="M 163.83433 254.42918 C 164.84794 257.21575 166.33085 258.9501 169.88338 261.497 C 171.04003 262.3445 171.04003 262.3445 167.58431 265.0625 C 162.4855 269.10254 158.91618 269.2468 159.90656 265.3642 C 160.36703 263.6903 160.45397 263.612 162.10173 263.7812 C 163.79297 263.91125 165.80129 262.7326 165.13594 261.99367 C 164.94025 261.77634 164.28374 261.6591 163.66204 261.66793 C 163.04034 261.67677 162.3447 261.51606 162.10987 261.25526 C 161.67935 260.77712 161.96004 252.26016 162.39904 251.78618 C 162.5729 251.62963 163.2166 252.7816 163.83433 254.42918 Z" fill="#f3f3f3"/>
        </g>
        <g id="Graphic_47">
          <path d="M 135.61629 283.1425 C 137.96837 283.3072 140.45517 283.27186 141.12467 283.14128 C 141.8811 282.93243 143.37682 283.63205 145.37267 285.06196 L 148.40343 287.2916 L 147.29979 290.17427 C 145.85292 294.07437 145.71854 295.8482 146.54962 298.95654 C 147.13271 301.26497 147.11106 301.678 146.01988 301.95214 C 144.42442 302.3655 140.98965 301.52285 138.90253 300.25382 C 138.01985 299.71057 135.80648 297.68945 134.08442 295.7769 C 131.45785 292.9472 130.69241 291.74746 129.7266 288.83914 C 128.73031 285.72216 128.75629 285.22653 129.97336 284.13067 C 130.9731 283.2305 132.26863 283.00848 135.61629 283.1425 Z" fill="#f3f3f3"/>
        </g>
        <g id="Graphic_46">
          <path d="M 202.5567 228.37858 C 203.41323 228.63054 205.88704 228.84302 207.99563 228.91211 L 211.92153 229.07645 L 213.12632 231.37604 C 214.70517 234.44073 214.47608 240.3926 212.69446 244.358 C 210.9085 248.40598 206.87474 251.8806 203.10124 252.75965 C 199.11907 253.66918 196.95818 253.01752 193.84464 249.99666 C 191.56166 247.72338 191.22673 247.00176 190.52172 243.85862 C 189.8297 240.46767 189.88183 240.26332 191.4598 239.39346 C 197.51956 235.9836 198.34976 235.15738 200.07025 229.98773 C 200.80018 227.91378 200.80018 227.91378 202.5567 228.37858 Z" fill="#f3f3f3"/>
        </g>
        <g id="Graphic_45">
          <path d="M 159.84233 269.75092 C 161.32489 269.91145 161.32056 269.99406 160.21259 272.95935 C 159.54344 274.66375 159.08297 276.33767 159.14826 276.6724 C 159.27451 277.42452 149.95508 285.34353 149.04643 285.2959 C 148.67687 285.23512 147.58984 284.63975 146.63755 283.84436 C 145.24175 282.81864 145.01558 282.39263 145.53718 281.92297 C 146.79772 280.78798 148.13239 280.60943 149.46723 281.2178 C 150.87602 281.9957 152.454 281.12582 151.55382 280.12608 C 151.20158 279.73488 151.8361 278.69132 153.8051 276.6823 C 155.29596 275.1038 156.85627 272.99053 157.2821 271.97745 C 158.15542 269.53827 158.11196 269.5774 159.84233 269.75092 Z" fill="#f3f3f3"/>
        </g>
        <g id="Graphic_44">
          <path d="M 220.8662 217.2447 C 221.4924 217.94017 220.12813 221.8446 218.91106 222.94046 C 217.99825 223.76236 217.97643 223.38847 218.8236 220.658 C 219.96187 217.11448 220.27913 216.5927 220.8662 217.2447 Z" fill="#f3f3f3"/>
        </g>
        <g id="Graphic_43">
          <path d="M 165.55488 269.0149 C 166.82425 268.5016 169.10203 266.92293 170.61905 265.6357 C 173.09666 263.40486 173.64875 263.14388 175.62694 263.33038 C 176.90515 263.4388 178.4833 263.35583 179.1528 263.22525 C 180.28311 262.99458 180.52227 263.17278 181.7662 265.51584 C 182.51865 266.9634 184.59746 269.97147 186.42395 272.26224 C 191.9469 279.0954 191.92976 280.21272 186.40945 285.18323 C 182.58435 288.62736 178.31107 290.34995 174.47644 290.02474 C 171.63306 289.75148 166.95454 287.35266 163.70627 284.5318 C 161.37116 282.4629 161.2624 282.16728 161.05303 279.0501 C 160.94392 277.18068 161.29113 274.50685 161.86469 273.04593 C 163.02911 269.7937 162.72051 270.15026 165.55488 269.0149 Z" fill="#f3f3f3"/>
        </g>
        <g id="Graphic_42">
          <path d="M 228.25804 221.60802 C 232.39817 227.16764 233.04187 228.3196 233.45993 231.40629 C 234.2001 236.24932 232.0969 240.8191 227.72386 243.65468 C 226.0503 244.76803 224.5809 245.1466 221.84628 245.16895 C 216.7118 245.14836 215.85942 244.02687 216.43192 237.8445 C 216.76146 233.92726 216.57858 232.6752 215.46956 230.91903 C 214.0909 228.77598 214.6035 226.8977 216.12987 228.59293 C 216.5604 229.07106 217.2169 229.1883 217.56463 228.8752 C 217.91237 228.5621 218.02095 228.0708 217.82526 227.85346 C 217.59043 227.59266 218.17282 226.75345 219.08563 225.93155 C 221.38938 223.85724 223.02779 221.044 223.04475 219.13976 L 223.04873 217.48333 L 224.70533 218.27422 C 225.7184 218.70006 227.0969 220.0562 228.25804 221.60802 Z" fill="#f3f3f3"/>
        </g>
        <g id="Graphic_41">
          <path d="M 159.39713 281.40687 C 160.65855 284.20642 162.50236 286.16677 165.907 288.37457 C 167.87238 289.5958 169.8769 290.8605 170.403 291.09515 C 171.05085 291.3776 170.9641 292.2428 170.01683 294.51243 C 168.50467 298.07778 167.82774 303.88194 168.70644 306.0816 C 170.0593 309.5072 166.27715 310.55146 159.20759 308.7314 L 154.95543 307.68024 L 151.99827 304.04633 C 148.03218 299.11707 147.3012 296.46956 148.74356 291.86516 C 149.7949 288.3999 150.01657 288.1216 154.36327 284.20783 C 158.84037 280.17663 158.84037 280.17663 159.39713 281.40687 Z" fill="#f3f3f3"/>
        </g>
        <g id="Graphic_40">
          <path d="M 195.08441 253.20924 C 196.28453 254.01762 198.02373 254.81283 199.00633 255.03 C 201.25848 255.52077 206.3753 254.29796 208.94436 252.69313 C 210.65707 251.62324 210.9875 251.64056 211.51377 252.66212 C 211.85303 253.30114 212.3097 254.07056 212.58366 254.37483 C 214.1883 256.15697 212.23405 265.7873 209.5611 269.37463 C 207.37926 272.28364 204.00182 275.08858 201.72387 275.88035 C 199.10684 276.82 193.87226 276.3386 191.62426 274.9783 C 189.498 273.6658 185.15352 268.05407 183.70507 264.87197 L 182.85685 262.88097 L 186.19515 260.03256 C 188.22944 258.3583 189.9463 256.4189 190.546 255.24926 C 192.21039 251.9404 192.719 251.71855 195.08441 253.20924 Z" fill="#f3f3f3"/>
        </g>
        <g id="Graphic_39">
          <path d="M 217.15547 246.1656 C 220.31663 248.2778 225.22495 247.87238 229.71972 245.0846 L 232.80172 243.1753 L 234.63254 245.38347 C 237.90714 249.28252 238.49005 250.80404 238.8347 256.0819 C 239.1052 260.40334 238.8664 261.79896 237.6365 263.92955 C 234.07292 270.2865 226.51293 272.29242 218.69092 269.0248 C 215.1647 267.5561 214.5515 266.6128 215.14652 263.95196 C 216.10642 259.86068 215.58393 256.39578 213.43533 252.34867 C 212.46104 250.39248 212.37393 249.68384 213.2431 248.11417 C 214.6685 245.414 215.43358 245.03995 217.15547 246.1656 Z" fill="#f3f3f3"/>
        </g>
        <g id="Graphic_38">
          <path d="M 176.61153 291.95893 C 178.39836 291.8455 181.00673 291.07105 182.4543 290.3186 C 183.90188 289.56614 185.43205 288.818 185.8146 288.631 C 186.36668 288.37 186.7624 288.72207 187.4409 290.0001 C 187.9715 290.93907 189.91109 293.44283 191.7897 295.52925 C 191.7897 295.52925 193.60559 298.18174 195.09941 298.69844 C 196.59324 299.21514 198.45543 299.5232 198.45543 299.5232 C 200.47708 299.67055 201.78144 300.07023 202.04242 300.62232 C 202.91246 302.9872 197.64067 311.11834 193.30245 314.08 C 189.43804 316.69376 187.28616 317.45072 184.18199 317.4123 C 180.21262 317.2871 177.02982 315.5879 174.07266 311.954 C 172.08962 309.48936 171.28937 308.16353 171.17195 308.03313 C 170.62402 307.4246 169.70133 302.9033 169.80973 301.6251 C 170.01806 300.0208 172.45116 293.10762 173.0597 292.5597 C 173.27703 292.364 174.86384 292.11584 176.61153 291.95893 Z" fill="#f3f3f3"/>
        </g>
        <g id="Graphic_37">
          <path d="M 160.23851 311.18756 C 163.5124 311.93896 165.78187 312.0993 167.5034 311.65113 L 169.9857 310.9115 L 173.44716 314.40616 C 176.12585 317.0315 177.56512 318.01808 179.6434 318.6654 L 182.29126 319.50824 L 181.92673 322.5125 C 181.18452 327.9819 179.707 330.8864 175.7515 334.44796 C 170.36159 339.30105 165.83599 340.30635 159.11416 338.1732 C 156.62719 337.42162 155.74884 336.79577 153.28748 333.97474 C 148.98231 329.19337 148.5381 325.8154 151.11875 317.66748 C 153.4604 310.12826 154.06029 309.74554 160.23851 311.18756 Z" fill="#f3f3f3"/>
        </g>
        <g id="Graphic_36">
          <path d="M 199.52455 278.33287 C 200.79843 278.52388 206.08894 276.3576 208.45798 274.61805 C 211.6877 272.26094 212.70944 272.52157 214.79709 276.15133 C 218.44176 282.4719 217.23422 287.3371 210.53598 293.44693 C 206.97168 296.65623 204.9024 297.41752 199.85052 297.40126 C 199.85052 297.40126 197.95948 297.29515 196.51606 297.0491 C 195.07265 296.80304 192.71532 293.67263 192.71532 293.67263 C 188.2188 288.59132 187.86638 287.4132 189.94396 284.9129 C 190.83062 283.7997 191.84317 281.8648 192.16025 280.55613 L 192.69882 278.18223 L 195.84647 278.18153 C 197.62463 278.2333 199.2376 278.27642 199.52455 278.33287 Z" fill="#f3f3f3"/>
        </g>
        <g id="Graphic_35">
          <path d="M 144.07002 331.2552 C 146.59145 330.55904 149.01315 330.97587 149.20035 332.14532 C 149.26564 332.48007 150.70075 334.33617 152.37935 336.28785 C 155.23642 339.46094 155.71473 339.81734 157.89294 340.13857 L 160.31896 340.4728 L 158.69389 344.61205 C 156.8733 349.32087 156.34392 353.8903 157.24462 357.25076 C 157.8277 359.5592 157.82338 359.6418 155.58474 361.26395 C 152.57236 363.42536 148.49459 364.5784 145.16424 364.11393 C 143.72515 363.91426 141.79043 363.68862 140.92525 363.60186 C 139.32094 363.39354 137.33375 361.79842 134.45053 358.33405 C 131.76301 355.087 131.3394 346.57456 133.61214 341.93084 C 136.02827 336.9219 140.66608 332.19505 144.07002 331.2552 Z" fill="#f3f3f3"/>
        </g>
        <g id="Graphic_34">
          <path d="M 213.68795 293.36362 L 217.5695 289.63254 L 218.89135 290.4887 C 223.09607 293.23544 226.42782 299.99517 226.11594 305.1558 C 226.01655 307.84263 222.2616 313.89964 218.91464 316.91326 C 216.74562 318.78755 209.98138 321.415 209.2769 320.6326 C 209.12035 320.4587 208.18121 320.2024 207.19429 320.06786 C 205.17696 319.8379 203.0114 317.69502 200.9324 313.90006 C 199.57106 311.4266 199.5404 310.431 200.88788 309.21773 C 202.01802 308.20014 203.79514 303.53045 203.82076 301.461 C 203.82907 299.72197 203.87254 299.68283 206.8373 298.43007 C 209.0413 297.46877 210.76267 296.23367 213.68795 293.36362 Z" fill="#f3f3f3"/>
        </g>
        <g id="Graphic_33">
          <path d="M 188.28643 318.9113 C 190.0123 318.3805 192.61184 316.98434 194.46793 315.54923 L 197.74545 313.07038 L 199.58943 315.81763 C 203.86014 322.04675 206.19074 323.41137 210.91203 322.6234 C 212.08149 322.4362 213.23795 322.4968 213.51625 322.71847 C 214.22073 323.50088 213.52614 328.06164 212.19217 331.38783 C 211.23625 333.8227 210.3496 334.93586 207.4851 337.43636 C 202.57333 341.85893 198.99552 342.95532 193.42168 341.8349 C 188.5435 340.87517 185.45628 338.9325 182.75992 335.06375 C 180.98988 332.48603 180.95508 332.35996 182.19362 330.06417 C 182.88026 328.81626 183.73176 326.0032 184.09213 323.86845 C 184.3699 321.7294 184.79556 319.9294 185.00423 319.8989 C 185.17377 319.82497 186.6475 319.3638 188.28643 318.9113 Z" fill="#f3f3f3"/>
        </g>
        <g id="Graphic_32">
          <path d="M 138.26475 364.58066 C 140.21714 366.0497 148.09075 366.75226 151.49469 365.8124 C 153.09016 365.39904 155.42456 364.32033 156.66779 363.51575 L 158.94124 362.01967 L 161.51117 364.3494 C 162.93745 365.5838 165.05505 367.0615 166.27248 367.53946 C 168.42038 368.43892 168.45952 368.4824 168.18157 369.83455 C 168.01654 370.6128 167.74743 372.58666 167.61738 374.2779 C 167.03622 380.6255 163.833 384.8477 157.21233 387.8968 C 154.28237 389.27565 152.90424 389.49334 148.9044 389.15947 C 145.06544 388.91686 143.63933 388.4694 141.64348 387.03947 C 138.17355 384.4969 136.06876 381.9845 134.62897 378.6372 C 133.0108 374.7421 132.95797 371.7988 134.35272 368.10307 C 135.84739 364.08123 136.58633 363.4159 138.26475 364.58066 Z" fill="#f3f3f3"/>
        </g>
        <g id="Graphic_31">
          <path d="M 166.24919 341.1149 C 170.48368 340.92267 173.2789 339.74386 176.92148 336.6215 L 179.65557 334.2384 L 182.69967 337.79404 C 185.12188 340.5716 186.31334 341.5452 188.30469 342.2708 L 190.82215 343.23104 L 190.7619 345.96133 C 190.70684 352.54357 189.25997 356.44367 185.35244 360.6704 C 178.37625 368.13237 169.87263 369.1777 162.97173 363.34913 C 160.31486 361.0977 158.6314 356.86787 158.86969 353.1115 C 159.05602 350.3464 161.415 342.4768 162.33213 341.5723 C 162.506 341.41573 164.25801 341.17622 166.24919 341.1149 Z" fill="#f3f3f3"/>
        </g>
        <g id="Graphic_30">
          <path d="M 196.2829 344.13847 C 197.64372 344.2512 200.18698 343.9289 201.91717 343.3155 C 205.58191 342.14085 206.71674 342.6145 209.57398 346.5745 C 212.20072 350.1911 213.3016 354.4732 212.9376 359.8382 C 212.56946 366.0727 211.68298 367.97277 207.72748 371.5343 C 201.86377 376.73533 196.91198 377.1799 191.2983 372.86834 C 188.35015 370.64304 187.72394 369.94757 186.48867 367.4393 C 184.99675 364.29634 185.29219 363.40067 188.72608 360.30878 C 190.6821 358.54757 192.91535 352.28657 193.097 348.03026 C 193.2009 346.04774 193.37441 344.31737 193.50482 344.19995 C 193.67868 344.0434 194.87862 344.06487 196.2829 344.13847 Z" fill="#f3f3f3"/>
        </g>
        <g id="Graphic_29">
          <path d="M 149.78743 391.27654 L 149.78743 391.27654 C 146.64412 391.19464 143.9095 391.217 143.7791 391.3344 C 143.30096 391.7649 145.05854 396.9512 146.57643 399.5985 C 148.24222 402.5849 150.54252 404.52777 155.10796 406.7136 C 159.2299 408.66907 161.49503 408.91203 167.5858 408.0716 C 180.51942 406.26446 184.0444 402.2248 182.2856 391.53014 C 181.37571 385.97414 178.4054 381.80114 173.4181 378.972 C 170.68312 377.4205 169.33547 377.84687 168.5361 380.4556 C 168.03216 382.16865 167.10204 383.32096 164.40708 385.7475 C 159.06064 390.56147 156.52622 391.50546 149.78743 391.27654 Z" fill="#f3f3f3"/>
        </g>
        <g id="Graphic_28">
          <path d="M 151.43938 176.41475 C 149.03155 179.68466 146.2327 184.09372 145.7504 185.39375 C 142.50893 193.50705 141.35749 196.51148 140.27567 199.76805 C 139.62835 201.84634 138.82447 203.75075 138.47674 204.06386 C 138.129 204.37696 138.14216 204.91606 138.45527 205.2638 C 139.39457 206.307 140.59849 204.67204 141.84534 200.63722 C 142.93149 197.29804 145.708 190.15436 147.29843 186.67594 C 149.30171 182.43226 151.92687 178.96666 155.66504 175.6008 C 159.012 172.5872 159.54659 171.86972 158.99 171.4264 C 157.91163 170.6658 153.49514 173.54054 151.43938 176.41475 Z" fill="black"/>
        </g>
        <g id="Graphic_27">
          <path d="M 119.61873 250.9523 C 119.3278 252.55227 120.74162 256.3952 122.18972 258.0035 C 123.08989 259.00323 123.45044 257.6554 122.65452 256.24696 C 121.60195 254.20384 121.30581 251.95186 122.03159 250.74742 C 122.7139 249.58212 121.40053 247.77382 120.48772 248.59572 C 120.18345 248.86968 119.75329 249.96537 119.61873 250.9523 Z" fill="black"/>
        </g>
        <g id="Graphic_26">
          <path d="M 184.15395 211.26194 C 186.95005 214.01768 187.11093 214.10894 190.51072 214.03862 C 193.94964 214.01177 196.35367 213.1852 196.40995 212.11133 C 196.42726 211.7809 195.68815 211.65934 194.72737 211.81607 C 193.7666 211.9728 191.6102 212.02545 189.9581 211.93887 C 187.4365 211.84813 186.5843 211.51356 185.29275 210.07915 C 184.35344 209.03594 183.27074 208.35796 182.52297 208.4016 C 181.4013 208.46706 181.5144 208.68007 184.15395 211.26194 Z" fill="black"/>
        </g>
        <g id="Graphic_25">
          <path d="M 134.32257 252.5098 C 134.31011 255.11834 136.26736 258.8655 138.53718 260.5997 C 141.83757 263.2162 142.01992 262.10752 138.84975 258.5867 C 136.932 256.4568 135.86211 254.7441 135.48355 253.2747 C 134.78737 250.75327 134.30473 250.47948 134.32257 252.5098 Z" fill="black"/>
        </g>
        <g id="Graphic_24">
          <path d="M 177.54527 229.09716 C 177.72364 229.64492 179.21954 231.13145 180.7719 232.33104 C 182.96344 233.97828 184.29828 234.58664 186.3634 234.69487 C 187.80682 234.81193 189.39363 234.56376 189.8283 234.17239 C 190.95844 233.1548 190.04095 232.48548 188.31508 233.01627 C 186.62835 233.59052 182.98473 231.99143 180.53654 229.7095 C 178.6058 227.82743 176.88408 227.4887 177.54527 229.09716 Z" fill="black"/>
        </g>
        <g id="Graphic_23">
          <path d="M 170.13792 252.68875 C 173.6212 256.5573 179.57342 258.36022 181.9641 256.20764 C 183.18118 255.11178 182.58113 254.7076 180.27703 255.20808 C 178.05553 255.7129 175.42066 254.62224 172.12892 251.84053 C 169.19376 249.3674 167.71138 249.9938 170.13792 252.68875 Z" fill="black"/>
        </g>
        <g id="Graphic_22">
          <path d="M 202.20773 223.1833 C 205.2385 225.41293 210.64261 225.8204 211.23781 223.94646 C 211.50277 222.84212 210.77231 222.55534 208.55082 223.06016 C 207.00314 223.3518 205.69013 223.11731 204.2074 222.16987 C 201.43761 220.49233 199.81617 221.40133 202.20773 223.1833 Z" fill="black"/>
        </g>
        <g id="Graphic_21">
          <path d="M 133.0088 287.8515 C 133.20051 289.72527 134.40945 291.15536 137.64023 293.5197 C 140.67531 295.66674 141.93621 296.10556 142.00115 294.8665 C 142.0401 294.12305 141.56612 293.68405 140.18349 293.19743 C 138.03126 292.38056 135.43517 289.75956 134.59994 287.52074 C 133.82999 285.61668 132.74314 285.8082 133.0088 287.8515 Z" fill="black"/>
        </g>
        <g id="Graphic_20">
          <path d="M 195.30017 245.93135 C 196.67883 248.0744 200.43536 249.09958 203.33934 248.21638 C 205.86078 247.5202 206.465 247.05488 206.30826 246.0941 C 206.20384 245.7159 204.99957 245.77702 203.56498 246.28166 C 200.65667 247.24747 199.2219 246.9652 196.6738 245.00936 C 194.5214 243.40558 193.96065 243.83177 195.30017 245.93135 Z" fill="black"/>
        </g>
        <g id="Graphic_19">
          <path d="M 163.98246 275.31055 C 164.24344 275.86263 164.7524 277.2146 165.19176 278.31445 C 165.5485 279.40996 166.46183 280.9488 167.12718 281.68773 C 168.41873 283.12214 172.4669 285.695 174.54085 286.42493 C 176.16697 287.00715 177.67533 285.88514 176.1796 285.1855 C 169.82716 282.32622 167.3007 279.95736 166.14768 275.8796 C 165.8344 274.74495 165.43419 273.68858 165.2385 273.47124 C 164.6123 272.77577 163.57792 274.33678 163.98246 275.31055 Z" fill="black"/>
        </g>
        <g id="Graphic_18">
          <path d="M 217.9195 241.07006 C 218.4283 241.63513 220.05875 242.13474 221.62824 242.217 C 223.77597 242.32955 224.78455 242.05108 226.00162 240.95522 C 227.0883 239.97678 227.40988 239.3724 226.97937 238.89425 C 226.588 238.45958 225.95763 238.63363 225.00135 239.49466 C 223.95815 240.43397 222.8713 240.6255 220.31487 240.4087 C 217.3889 240.1311 217.13675 240.20072 217.9195 241.07006 Z" fill="black"/>
        </g>
        <g id="Graphic_17">
          <path d="M 152.4871 293.13816 C 152.46148 295.2076 154.33197 299.81997 155.89748 301.55865 C 157.73696 303.6016 160.75889 305.20953 161.49782 304.5442 C 162.01943 304.07453 161.8672 303.81806 160.90192 303.27048 C 160.2584 302.90542 158.63643 301.4537 157.34488 300.0193 C 155.30538 297.8416 154.89651 296.95045 154.5046 294.15504 C 154.0779 291.23357 153.62556 290.38155 152.79968 291.12517 C 152.62582 291.2817 152.49559 292.18604 152.4871 293.13816 Z" fill="black"/>
        </g>
        <g id="Graphic_16">
          <path d="M 188.23986 266.0622 C 188.19656 266.88824 191.53194 270.41772 193.53645 271.68242 C 195.78012 273.1253 198.74957 273.36377 200.05358 272.18963 C 201.40106 270.97636 200.84447 270.53303 198.4969 271.07265 C 196.02326 271.6471 194.24924 270.7258 191.27476 267.4223 C 189.12218 265.03162 188.31345 264.6579 188.23986 266.0622 Z" fill="black"/>
        </g>
        <g id="Graphic_15">
          <path d="M 218.59427 264.5468 C 221.02082 267.24176 229.09445 268.07904 231.5286 265.88732 C 232.87608 264.67405 231.55856 263.73527 229.93279 264.72688 C 227.881 265.94465 222.8899 265.55883 220.48535 264.02468 C 218.20254 262.53832 217.10704 262.89506 218.59427 264.5468 Z" fill="black"/>
        </g>
        <g id="Graphic_14">
          <path d="M 174.81382 301.7631 C 174.80984 303.41954 176.52793 306.9885 178.09345 308.7272 C 179.54155 310.33547 184.59829 312.62986 185.73726 312.23398 C 187.00664 311.7207 186.8804 310.96858 185.4891 310.64717 C 180.81958 309.65697 177.3538 306.2449 176.97904 302.33216 C 176.72186 299.33674 174.80013 298.8633 174.81382 301.7631 Z" fill="black"/>
        </g>
        <g id="Graphic_13">
          <path d="M 154.08474 321.9231 C 154.02016 324.736 156.10365 329.23526 158.88677 332.2388 C 160.17832 333.6732 161.54364 334.49026 163.748 335.10277 C 165.42191 335.56324 166.93928 335.84984 167.15661 335.65416 C 167.80862 335.0671 166.165 334.0284 163.71283 333.4029 C 162.32154 333.08147 160.7084 332.25144 160.12133 331.59944 C 158.04703 329.2957 155.8766 324.8747 155.6674 322.54444 C 155.38407 319.25774 154.16665 318.77977 154.08474 321.9231 Z" fill="black"/>
        </g>
        <g id="Graphic_12">
          <path d="M 193.21352 285.7469 C 193.9537 290.58992 205.77625 297.33907 205.83616 293.03496 C 205.87512 292.2915 205.68376 291.99157 205.2186 292.17427 C 203.39715 292.94855 201.97105 292.50107 199.22291 290.4105 C 196.87482 288.5894 196.09206 287.72005 195.43087 286.1116 C 194.33033 283.4033 192.80863 283.1993 193.21352 285.7469 Z" fill="black"/>
        </g>
        <g id="Graphic_11">
          <path d="M 136.02154 345.74313 C 135.99124 346.32136 136.20442 346.9952 136.47839 347.29946 C 136.79149 347.6472 137.15256 348.6601 137.27015 349.5774 C 137.79264 353.0423 147.25013 359.8746 149.11921 358.19165 C 149.98855 357.4089 149.4711 357.00904 146.09279 355.8794 C 142.1449 354.5543 140.03145 352.20707 138.73054 347.79023 C 138.16927 345.8557 137.59501 344.16895 137.4776 344.03855 C 137.04708 343.5604 136.07782 344.66926 136.02154 345.74313 Z" fill="black"/>
        </g>
        <g id="Graphic_10">
          <path d="M 205.8788 308.81664 C 205.81387 310.0557 207.02714 311.4032 210.03175 313.34154 C 212.51458 314.96263 217.5623 315.8484 218.20115 314.72224 C 218.88779 313.47433 218.0181 312.68327 216.45744 313.2227 C 214.30989 313.89707 208.94437 311.17234 208.22655 309.06393 C 207.55653 306.83377 205.99136 306.6689 205.8788 308.81664 Z" fill="black"/>
        </g>
        <g id="Graphic_9">
          <path d="M 187.63653 328.94128 C 188.08472 330.6628 191.30268 334.0619 193.87244 335.6047 C 197.2466 337.60385 198.7205 337.9296 199.89411 336.87286 C 201.28506 335.62045 201.00676 335.3988 198.19387 335.3342 C 196.3331 335.2781 195.32001 334.85226 193.2632 333.005 C 191.59776 331.5924 190.34968 330.11887 189.91466 328.93642 C 188.91855 326.60635 188.762 326.43248 187.9796 327.13696 C 187.63185 327.45006 187.50596 328.2718 187.63653 328.94128 Z" fill="black"/>
        </g>
        <g id="Graphic_8">
          <path d="M 137.49726 373.69335 C 137.57156 375.4367 141.55063 380.11816 144.7944 382.2347 C 148.19471 384.5251 152.18156 385.1068 153.0116 383.49366 C 153.47224 382.60665 153.27222 382.47192 151.23325 382.655 C 149.94638 382.7118 147.89857 382.27314 146.64634 381.6691 C 143.78097 380.23504 140.41078 376.5795 139.79288 374.145 C 139.17931 371.62787 137.41846 371.2457 137.49726 373.69335 Z" fill="black"/>
        </g>
        <g id="Graphic_7">
          <path d="M 162.21717 352.45863 C 162.67852 354.71926 165.87068 359.4009 168.17964 361.17853 C 169.8146 362.38244 176.3797 363.55482 177.24904 362.77207 C 178.16184 361.95017 176.3357 361.23323 173.15758 361.02525 L 169.72731 360.8869 L 167.08758 357.5181 C 165.41764 355.40122 164.31728 353.47984 164.16921 352.35385 C 163.88624 350.64097 162.9426 349.68037 162.20366 350.3457 C 162.0298 350.50226 162.0213 351.4544 162.21717 352.45863 Z" fill="black"/>
        </g>
        <g id="Graphic_6">
          <path d="M 189.9965 364.51695 C 189.68809 365.66043 194.5843 369.43737 198.08003 370.6974 C 200.44094 371.48377 201.71915 371.5922 203.11893 370.96147 C 204.98385 370.14806 205.7401 369.1523 205.07476 368.41335 C 204.87908 368.196 203.91397 368.43535 202.9402 368.8399 C 200.22758 370.02304 196.67972 368.96737 193.64446 366.03343 C 191.03972 363.57764 190.35273 363.25172 189.9965 364.51695 Z" fill="black"/>
        </g>
        <g id="Graphic_5">
          <path d="M 148.80138 395.07654 C 148.85818 396.3634 154.4762 400.59234 158.17194 401.9871 C 161.5416 403.2819 165.08495 403.63328 166.04122 402.77224 C 167.21483 401.7155 166.10166 400.82886 164.2149 401.2684 C 160.98484 402.05167 154.80193 399.11844 151.16211 395.076 C 149.44004 393.16346 148.73574 393.16797 148.80138 395.07654 Z" fill="black"/>
        </g>
        <g id="Graphic_4">
          <path d="M 184.7617 381.6588 C 183.15418 381.41296 179.9809 378.82503 178.9317 376.93222 C 178.2795 375.7556 179.67128 375.8535 180.74385 377.0646 C 182.33298 378.725 184.36585 379.7382 185.74096 379.4441 C 187.06492 379.17833 188.3471 381.00887 187.2728 381.60437 C 186.9147 381.80286 185.73867 381.85287 184.7617 381.6588 Z" fill="black"/>
        </g>
      </g>
    </g>
  </g>
</svg>
