<?xml version="1.0" encoding="UTF-8" standalone="no"?>
<!DOCTYPE svg PUBLIC "-//W3C//DTD SVG 1.1//EN" "http://www.w3.org/Graphics/SVG/1.1/DTD/svg11.dtd">
<svg xmlns="http://www.w3.org/2000/svg" xmlns:dc="http://purl.org/dc/elements/1.1/" version="1.1" xmlns:xl="http://www.w3.org/1999/xlink" viewBox="33.75 90 297 290.60197" width="297" height="290.60197">
  <defs>
    <clipPath id="artboard_clip_path">
      <path d="M 33.75 90 L 330.75 90 L 330.75 380.60197 L 255.32143 380.60197 L 33.75 380.60197 Z"/>
    </clipPath>
  </defs>
  <metadata> Produced by OmniGraffle 7.10.2 test 
    <dc:date>2019-03-13 06:47:41 +0000</dc:date>
  </metadata>
  <g id="Laurel_Wreath_(5)" stroke-dasharray="none" stroke-opacity="1" fill="none" fill-opacity="1" stroke="none">
    <title>Laurel Wreath (5)</title>
    <g id="Laurel_Wreath_(5): Layer 2" clip-path="url(#artboard_clip_path)">
      <title>Layer 2</title>
      <g id="Group_3">
        <g id="Graphic_38">
          <path d="M 236.44287 92.18106 C 234.80072 93.82321 237.02245 107.05703 240.11356 114.20522 C 240.69315 115.46098 240.49995 115.84737 239.72717 115.65418 C 239.051 115.36439 238.6646 114.978 238.7612 114.7848 C 238.8578 114.49501 237.79523 112.46647 236.44287 110.24473 C 234.9939 107.9264 233.83474 105.80126 233.83474 105.41488 C 233.64155 102.32376 222.14648 98.36328 213.54933 98.36328 C 208.23649 98.36328 195.19587 100.00543 194.42309 100.68161 C 194.2299 100.9714 195.87205 103.38633 197.99718 106.09106 C 200.21892 108.89237 201.95767 111.5005 201.95767 111.98348 C 201.95767 112.56307 202.34406 112.75626 202.82704 112.36987 C 203.31003 112.08008 204.4692 112.85286 205.24197 114.01203 C 206.11135 115.17119 206.78753 115.84737 206.78753 115.36439 C 206.78753 114.978 207.9467 115.55758 209.29906 116.62015 C 210.74801 117.77932 212.48676 118.64869 213.16294 118.64869 C 213.83912 118.64869 215.38468 119.61466 216.44725 120.77383 C 218.0894 122.51258 218.66898 122.70577 219.24857 121.6432 C 219.73155 120.87043 220.98732 120.48404 222.14648 120.87043 C 223.30565 121.16022 224.17502 121.06362 224.17502 120.67723 C 224.17502 120.29084 226.20357 119.61466 228.8117 119.03508 C 234.60752 117.87591 238.4714 118.93848 242.91488 122.89897 L 246.29578 125.89348 L 240.30676 125.99008 C 230.35725 126.18327 222.24308 126.76286 222.24308 127.43904 C 222.24308 127.72883 223.30565 129.17779 224.658 130.62674 C 226.01037 132.0757 227.07294 133.42806 227.07294 133.62126 C 227.07294 134.78042 237.02245 143.66737 237.79523 143.18438 C 238.27822 142.89459 238.6646 143.18438 238.6646 143.86056 C 238.6646 145.7925 249.1937 144.05375 254.79634 141.15584 L 259.8194 138.64431 L 264.64925 143.86056 C 269.6723 149.27 270.1553 150.42917 266.6778 148.59382 C 263.97307 147.14487 246.87537 145.8891 244.94342 146.95167 C 243.30127 147.82105 243.01148 150.52577 244.46044 150.52577 C 244.94342 150.52577 246.29578 152.26452 247.35835 154.38966 C 248.42092 156.5148 249.6767 158.25354 250.06307 158.25354 C 250.54606 158.25354 252.478 159.7025 254.50655 161.53785 C 256.4385 163.3732 258.17724 164.91875 258.27384 164.91875 C 258.37043 164.91875 259.2398 165.20854 260.10918 165.49833 C 261.07515 165.88472 266.0982 165.98132 271.31446 165.78812 L 280.87758 165.40174 L 284.25848 171.97035 L 287.73598 178.44236 L 283.7755 175.93083 C 278.94564 172.83972 274.88855 171.19757 268.41654 169.45882 C 265.61522 168.68604 262.5241 167.81667 261.65474 167.43028 C 260.20578 166.8507 260.30238 167.33368 262.13772 171.00437 C 263.3935 173.2261 265.13224 177.09 266.1948 179.50493 C 267.25738 181.91986 268.31994 184.045 268.60974 184.33479 C 269.6723 185.39736 273.1498 190.7102 273.7294 192.25576 C 274.01918 193.22173 275.27494 193.9945 276.3375 193.9945 C 277.49668 193.9945 278.26946 194.67069 278.26946 195.63666 C 278.26946 197.08562 278.46265 197.18221 279.23543 195.92645 C 279.815 194.96048 280.2014 194.86388 280.2014 195.63666 C 280.2014 196.31284 280.4912 196.79583 280.97418 196.79583 C 283.00272 196.40944 284.0653 197.08562 284.1619 198.53458 C 284.1619 199.50055 284.45168 199.79034 284.64487 199.21076 C 285.12786 197.955 288.89515 198.53458 288.89515 199.79034 C 288.89515 200.27332 289.76452 200.36992 290.8271 200.08013 C 292.66244 199.59714 292.75904 200.08013 292.75904 207.42152 C 292.75904 211.6718 292.46924 215.2459 292.08286 215.2459 C 291.59987 215.2459 290.0543 213.31395 288.60536 210.89902 C 285.70744 206.35895 280.87758 202.10867 275.66133 199.40395 C 273.92258 198.53458 272.37703 197.8584 272.18383 197.8584 C 271.50765 197.8584 272.57022 213.89353 273.5362 217.75742 C 274.59876 221.8145 281.36057 231.08783 282.51973 230.02526 C 282.80952 229.73547 283.2925 230.21846 283.6789 231.08783 C 283.9687 231.9572 284.64487 232.3436 285.12786 232.0538 C 285.61084 231.764 285.99723 232.0538 285.99723 232.6334 C 285.99723 233.21297 286.38362 233.50276 286.8666 233.21297 C 287.3496 232.82658 288.02577 233.21297 288.21897 233.79255 C 288.60536 234.66193 288.79855 234.66193 288.79855 233.59936 C 288.89515 232.6334 289.28154 232.82658 290.3441 234.27554 C 291.50327 235.9177 291.59987 237.27005 290.8271 241.32713 C 290.2475 244.12845 289.86112 246.54338 289.86112 246.73658 C 289.86112 246.92977 289.47473 247.12297 289.08834 247.12297 C 288.60536 247.12297 287.73598 245.5774 286.9632 243.74206 C 286.19043 241.90672 285.32105 240.36116 284.83807 240.36116 C 284.45168 240.36116 284.1619 240.07137 284.25848 239.58838 C 284.54827 238.719 274.50217 228.2865 273.92258 228.9627 C 273.7294 229.1559 272.9566 233.59936 272.28043 238.719 C 270.92807 249.2481 271.89404 255.23713 275.37154 258.90782 C 276.4341 260.067 277.3035 261.61255 277.3035 262.28873 C 277.3035 262.9649 278.17286 263.93088 279.13883 264.51046 C 284.0653 267.1186 284.25848 268.08456 281.16737 274.26678 C 277.97966 280.449 276.3375 281.51157 276.3375 277.2613 C 276.3375 274.0736 274.21237 267.89136 271.02467 261.51595 C 269.6723 258.90782 268.89953 256.7827 269.28592 256.7827 C 269.7689 256.7827 269.28592 256.2997 268.31994 255.72012 C 267.35397 255.14053 266.388 254.85074 266.1948 255.04394 C 266.0982 255.14053 264.55265 258.61803 262.8139 262.57852 C 260.68877 267.69817 259.6262 271.94845 259.2398 277.0681 C 258.75682 283.8299 258.95002 284.98907 261.75134 291.3645 L 264.84245 298.41608 L 259.916 304.1153 C 257.11467 307.30302 254.40995 309.91115 253.83037 309.91115 C 253.34738 309.91115 253.54057 309.13837 254.50655 308.0758 C 255.37592 307.10983 255.8589 305.66087 255.47252 304.6949 C 255.18273 303.82552 255.37592 303.14934 255.9555 303.14934 C 256.82488 303.14934 256.92148 301.5072 256.5351 297.5467 C 256.2453 294.5522 255.9555 291.2679 255.9555 290.3985 C 255.9555 289.52914 255.27932 288.27337 254.50655 287.5972 C 253.34738 286.63122 252.7678 286.8244 251.41544 288.75636 C 250.54606 290.01212 247.84134 293.19983 245.4264 295.90455 C 240.21016 301.7004 238.18162 306.24045 236.73266 315.3206 C 235.7667 321.213 235.2837 322.3722 233.25516 323.33816 C 229.97086 324.7871 228.1355 324.6905 230.16405 323.04836 C 231.13002 322.3722 231.613 321.5028 231.22662 321.213 C 230.93683 320.82663 231.13002 320.53684 231.8062 320.53684 C 232.48238 320.53684 232.67558 320.05385 232.3858 319.57087 C 232.096 318.9913 232.2892 318.6049 232.77218 318.6049 C 233.35176 318.6049 233.73815 318.3151 233.64155 317.8321 C 233.54495 317.44573 234.02794 314.8376 234.60752 312.0363 C 236.63606 303.14934 235.95988 302.27997 230.35725 306.53024 C 228.6185 307.8826 226.87975 308.94517 226.49336 308.94517 C 226.10697 308.94517 224.27162 310.10434 222.43628 311.5533 C 218.86218 314.25802 213.54933 324.49732 213.54933 328.651 C 213.54933 330.96934 212.39017 332.3217 209.49225 333.38427 C 208.33308 333.77065 207.9467 333.48086 208.23649 332.0319 C 208.42968 331.06593 208.91267 329.71357 209.29906 329.0374 C 209.68545 328.4578 210.16843 326.13948 210.26503 324.01434 C 210.45822 321.8892 210.8446 319.57087 211.0378 318.8947 C 212.10037 316.28656 209.58885 317.8321 205.14538 322.56538 C 200.21892 327.87822 195.19587 336.95836 195.19587 340.53246 C 195.19587 341.78822 194.61628 342.7542 193.8435 342.7542 C 192.78094 342.7542 192.78094 342.078 194.0367 338.6005 C 195.77545 333.86725 195.09927 330.19656 192.87753 332.0319 C 190.94559 333.67406 187.2749 342.6576 187.85448 344.29975 C 188.24087 345.26572 187.2749 346.2317 185.14976 347.29426 C 182.34844 348.64662 181.38247 348.64662 178.87094 347.58405 C 177.22879 346.90787 175.87643 345.7487 175.87643 344.87933 C 175.87643 343.044 172.10913 335.0264 170.46698 333.38427 C 168.34184 331.16253 167.85886 332.0319 168.43844 337.44135 C 169.01802 343.33378 167.66566 343.81676 166.5065 338.11753 C 165.63712 333.57746 165.73372 333.96385 164.57455 331.06593 C 163.1256 327.78163 153.75567 317.63892 152.11351 317.63892 C 150.47136 317.63892 150.76115 319.66746 153.65907 328.0714 C 154.81824 331.45232 155.59101 334.35024 155.30122 334.64003 C 155.10803 334.92982 153.75567 334.54343 152.3067 333.96385 C 150.47136 333.09447 149.89178 332.3217 150.37476 330.96934 C 150.66456 330.00336 150.37476 329.2306 149.79518 329.2306 C 149.2156 329.2306 148.9258 328.8442 149.2156 328.3612 C 150.37476 326.52586 145.4483 316.18996 141.58442 312.42267 C 137.23755 308.1724 127.67442 301.7004 126.90165 302.56976 C 125.74248 303.72892 127.86762 311.9397 130.95873 318.1219 C 132.79407 321.7926 134.33963 324.8837 134.33963 324.9803 C 134.33963 325.4633 128.06081 323.24156 127.28803 322.4688 C 126.90165 322.179 126.51526 318.7015 126.51526 314.9342 C 126.41866 311.0703 126.03227 307.9792 125.54928 307.9792 C 125.1629 307.9792 124.9697 307.30302 125.2595 306.53024 C 125.64588 305.75747 125.35609 305.0813 124.58331 305.0813 C 123.90713 305.0813 123.71394 304.7915 124.00373 304.4051 C 125.0663 303.43913 110.86651 286.8244 109.03116 286.72782 C 107.48561 286.72782 108.83797 305.95066 110.67332 310.39413 C 111.54269 312.42267 101.11019 303.34254 98.79186 300.05823 C 97.63269 298.51268 97.82589 297.7399 99.66124 294.6488 C 100.917 292.71684 102.17276 290.8815 102.46255 290.5917 C 105.45707 288.27337 106.22984 274.26678 103.81491 267.89136 C 102.94554 265.76623 102.26936 263.4479 102.26936 262.7717 C 102.17276 262.19213 101.78637 261.61255 101.30339 261.61255 C 100.917 261.61255 100.53061 261.03296 100.53061 260.2602 C 100.53061 259.4874 99.56464 257.65206 98.30887 256.2031 L 95.99054 253.59498 L 93.38242 258.32824 C 89.22874 265.66963 86.81381 273.977 87.2002 279.19324 C 87.39339 281.70476 87.2002 283.8299 86.9104 283.8299 C 86.13763 283.8299 84.68867 280.7388 84.88186 279.67622 C 84.97846 279.28983 84.68867 279.00004 84.10909 279.00004 C 83.6261 279.00004 83.14311 278.13067 83.14311 277.0681 C 83.14311 276.00553 82.75673 275.13615 82.27374 275.13615 C 81.79075 275.13615 81.11457 273.8804 80.72818 272.23824 C 80.3418 270.69268 79.56902 269.34032 78.98943 269.34032 C 78.40985 269.34032 80.2452 267.1186 83.04652 264.51046 C 87.58659 260.067 90.4845 255.62352 90.09811 253.59498 C 90.00152 253.2086 90.19471 252.9188 90.5811 252.9188 C 91.06408 252.9188 91.35388 248.57192 91.35388 243.25908 C 91.35388 237.94623 91.16068 233.59936 90.87089 233.59936 C 90.5811 233.59936 90.29131 232.6334 90.19471 231.57082 C 89.90492 228.09332 88.93895 228.18992 85.26825 232.1504 C 79.27923 238.6224 75.511935 244.03186 74.54596 247.31616 C 73.67659 250.40727 73.67659 250.40727 73.57999 247.79915 C 73.48339 246.3502 73.097005 245.19102 72.51742 245.19102 C 72.03444 245.19102 71.84124 244.51484 72.13103 243.74206 C 72.51742 242.9693 72.32423 242.2931 71.93784 242.2931 C 71.45485 242.2931 70.97187 240.94075 70.87527 239.3952 C 70.682075 236.30408 73.00041 232.6334 75.22214 232.6334 C 75.99492 232.6334 77.83027 231.764 79.37582 230.60485 C 80.92138 229.54228 82.56353 228.9627 83.14311 229.25248 C 83.6261 229.54228 84.10909 228.9627 84.10909 227.90012 C 84.10909 226.74096 84.59207 225.87158 85.07506 225.87158 C 85.65464 225.87158 86.04103 225.292 86.04103 224.51922 C 86.04103 223.74644 86.71721 222.39408 87.58659 221.6213 C 88.35936 220.75193 88.84235 220.07575 88.55256 220.07575 C 88.26277 220.07575 88.74575 218.5302 89.51853 216.69485 C 90.19471 214.8595 90.87089 211.382 90.87089 208.96707 C 90.87089 206.45555 91.25728 203.75082 91.74026 202.88145 C 92.31985 201.72228 92.22325 200.56312 91.25728 199.40395 C 90.00152 197.6652 89.71172 197.7618 84.88186 201.4325 C 78.21666 206.55214 73.67659 211.0922 71.93784 214.47311 C 69.7161 218.7234 68.653534 217.66082 68.75013 211.5752 C 68.943326 203.55763 69.8127 200.27332 71.84124 200.36992 C 72.71062 200.46652 73.48339 200.08013 73.48339 199.59714 C 73.48339 199.11416 74.35277 199.01756 75.41534 199.30735 C 76.5745 199.69374 77.34728 199.50055 77.34728 198.82437 C 77.34728 198.14819 78.02346 197.8584 78.79624 198.24478 C 79.56902 198.53458 80.2452 198.34138 80.2452 197.955 C 80.2452 197.472 81.40436 196.60263 82.94992 196.11965 C 86.42742 194.76728 93.18922 188.48847 95.12117 184.52798 C 95.99054 182.88583 97.2463 181.43687 97.82589 181.43687 C 98.40547 181.43687 98.69526 181.14708 98.30887 180.85729 C 98.01908 180.5675 98.59867 178.34576 99.56464 176.02743 C 100.62721 173.7091 101.39998 171.68055 101.39998 171.48736 C 101.39998 171.39076 101.68978 170.52139 102.07617 169.55542 C 102.36596 168.58944 102.46255 167.62347 102.26936 167.43028 C 101.49658 166.5609 85.94443 172.64653 81.11457 175.64104 C 76.5745 178.34576 73.96638 178.24916 76.7677 175.35125 C 77.54048 174.57847 77.926865 173.7091 77.63707 173.3227 C 77.250685 173.03291 77.54048 172.74312 78.12006 172.74312 C 78.69964 172.74312 79.56902 171.29416 80.052 169.65201 C 80.92138 166.27111 83.7227 164.82215 85.17166 167.14049 C 85.75124 168.10646 86.04103 168.10646 86.04103 167.14049 C 86.04103 166.3677 87.68318 165.98132 90.87089 165.98132 C 94.0586 165.98132 95.70075 166.3677 95.70075 167.14049 C 95.70075 168.00986 95.99054 168.10646 96.47353 167.33368 C 96.85992 166.7541 98.40547 165.98132 99.95103 165.59493 C 103.23533 164.82215 111.1563 160.37868 111.1563 159.31611 C 111.1563 158.92972 113.08825 156.61139 115.50318 154.09986 C 121.3956 147.82105 120.71942 146.66188 110.76991 146.66188 C 103.33193 146.66188 98.59867 147.43466 94.25179 149.1734 C 92.51304 149.84959 92.51304 149.75299 93.67221 148.30403 C 94.34839 147.43466 95.60415 146.66188 96.28033 146.66188 C 97.05311 146.66188 97.63269 145.8891 97.63269 144.92313 C 97.63269 142.4116 101.68978 138.8375 103.33193 139.90008 C 104.10471 140.28646 105.26387 140.47966 105.94005 140.18987 C 106.61623 139.99667 108.35498 140.38306 109.90054 141.15584 C 114.7304 143.66737 121.10581 144.15035 124.7765 142.315 C 126.61185 141.34903 128.83359 139.99667 129.70296 139.2239 C 130.57234 138.45112 131.8281 138.06473 132.31109 138.45112 C 132.89067 138.74091 133.37366 138.35452 133.37366 137.58174 C 133.37366 136.80896 134.53282 135.26341 135.88518 134.20084 C 137.33414 133.04167 138.20352 132.1723 137.81713 132.1723 C 137.43074 132.1723 137.81713 131.20633 138.5899 130.04716 C 139.45928 128.888 140.13546 127.53563 140.13546 127.14924 C 140.13546 126.08668 120.91262 126.18327 117.04873 127.34244 C 113.86102 128.21181 113.86102 128.21181 115.59977 126.47306 C 116.56575 125.50709 118.0147 124.92751 118.69088 125.2173 C 119.36706 125.4105 119.85005 124.83091 119.85005 123.57515 C 119.85005 122.41598 120.23644 121.54661 120.71942 121.54661 C 121.20241 121.54661 122.36158 120.77383 123.32755 119.90445 C 124.58331 118.64869 126.12887 118.2623 129.41317 118.5521 C 146.12449 120.09765 151.82372 118.1657 161.67664 107.8298 C 165.25073 104.06251 168.05205 100.87481 167.95545 100.68161 C 167.18268 100.00543 142.74359 99.13606 139.74907 99.71564 C 135.209 100.58502 129.70296 105.41488 127.48123 110.63112 C 126.51526 112.94946 125.2595 114.7848 124.58331 114.7848 C 123.90713 114.7848 123.81053 114.10862 124.19692 113.04605 C 124.58331 112.17668 124.8731 110.43793 124.7765 109.18217 C 124.7765 108.023 125.0663 107.05703 125.54928 107.05703 C 126.70845 107.05703 126.80505 95.36877 125.74248 93.72661 C 125.2595 92.85724 124.67991 93.24363 124.00373 94.78918 C 123.42415 96.04495 120.52623 98.45988 117.62831 100.10203 C 104.97408 107.25022 98.21228 118.06911 100.24082 128.21181 L 101.20679 133.13827 L 95.60415 139.2239 C 92.51304 142.5082 90.00152 144.63334 89.90492 143.95716 C 89.90492 143.37757 90.29131 142.79799 90.87089 142.79799 C 91.35388 142.79799 91.74026 142.5082 91.74026 142.02521 C 91.64367 141.63882 91.74026 141.15584 91.83686 140.86605 C 93.76881 135.93959 93.8654 126.76286 92.03006 120.87043 C 90.96749 117.58612 90.3879 114.59161 90.6777 114.30182 C 90.96749 114.01203 90.6777 113.81883 90.09811 113.81883 C 89.42193 113.81883 88.93895 113.04605 88.93895 112.08008 C 88.84235 110.34133 86.71721 107.05703 85.55804 107.05703 C 85.17166 107.05703 85.07506 107.73321 85.46145 108.50599 C 85.94443 109.76175 79.18263 120.87043 75.80173 124.15473 C 73.77319 126.18327 71.55145 135.4566 71.55145 141.73542 C 71.55145 147.24146 73.96638 154.67945 76.38131 156.3216 C 77.54048 157.19097 78.21666 161.15146 77.250685 161.73104 C 76.7677 162.02083 75.511935 163.85618 74.44937 165.78812 L 72.420825 169.36222 L 73.00041 166.27111 C 73.3868 164.53236 73.1936 162.9868 72.51742 162.60042 C 71.93784 162.21403 71.744645 161.15146 72.03444 160.18549 C 72.32423 159.21951 72.13103 158.15695 71.55145 157.77056 C 70.97187 157.48077 70.77867 156.80458 71.06846 156.3216 C 72.03444 154.87264 67.10798 146.46868 62.47131 141.54223 C 60.15298 139.0307 58.02784 137.00216 57.73805 137.00216 C 57.544856 137.00216 57.06187 139.70688 56.77208 143.08778 C 56.48229 146.46868 55.32312 152.45771 54.26055 156.3216 C 53.101385 160.28208 52.23201 165.78812 52.23201 168.58944 C 52.23201 174.09548 55.226524 184.2382 58.12444 188.39187 C 59.18701 189.74423 59.959786 191.38638 59.959786 192.06256 C 59.959786 192.64215 60.346175 192.93194 60.82916 192.64215 C 61.31215 192.25576 62.374716 192.35235 63.147494 192.64215 C 64.59645 193.12513 64.59645 197.08562 63.24409 203.65423 L 62.66451 206.06916 L 61.21555 203.36443 C 60.44277 201.81888 59.669995 199.79034 59.4768 198.82437 C 58.993814 196.21624 56.0959 191.86937 53.29458 189.64763 C 52.038816 188.58506 50.10687 186.9429 49.1409 185.97694 C 48.17493 185.01097 45.566804 183.36881 43.53826 182.30625 C 41.413124 181.14708 39.384583 179.89132 39.09479 179.40833 C 38.805 178.92534 37.935625 178.53895 37.06625 178.53895 C 36.00368 178.53895 35.71389 179.11854 36.293472 180.6641 C 38.12882 186.9429 38.708402 190.7102 39.09479 200.17673 C 39.48118 209.83645 39.77097 210.80242 43.055276 216.69485 C 44.98722 220.17235 46.919164 222.78047 47.49875 222.49068 C 47.981734 222.1043 48.36812 222.58728 48.36812 223.45665 C 48.36812 224.32603 48.75451 224.809 49.2375 224.51922 C 49.720483 224.22943 50.58986 224.61582 51.26604 225.3886 C 51.94222 226.16137 52.811594 226.54776 53.29458 226.35457 C 53.68097 226.06478 54.453746 226.54776 54.93673 227.32054 C 55.32312 228.18992 56.77208 228.9627 58.12444 229.0593 C 61.89173 229.25248 63.53388 231.764 64.499855 238.13943 C 65.07944 241.52033 65.176035 244.22505 64.88624 244.22505 C 64.499855 244.22505 63.53388 242.9693 62.56791 241.42373 C 59.5734 236.20748 52.714996 230.50825 45.76 227.22394 C 37.839028 223.45665 35.230903 223.07026 36.293472 225.5818 C 36.67986 226.54776 38.225416 230.60485 39.674374 234.56533 C 41.123332 238.52582 43.055276 243.45227 43.92465 245.38422 C 45.6634 249.3447 50.300066 256.5895 50.300066 255.23713 C 50.300066 254.75414 51.26604 255.43033 52.5218 256.7827 C 53.68097 258.13505 55.32312 259.2942 56.0959 259.4874 C 56.868676 259.6806 58.12444 260.45338 58.80062 261.32275 C 59.76659 262.6751 59.959786 262.6751 59.959786 261.51595 C 59.959786 260.35678 60.15298 260.35678 60.82916 261.51595 C 61.31215 262.19213 62.18152 262.48192 62.761105 262.19213 C 63.34069 261.80574 63.823674 262.19213 63.823674 262.9649 C 63.823674 264.80025 65.46583 264.99345 65.94881 263.3513 C 66.3352 262.38532 66.72159 262.48192 67.88076 263.5445 C 69.23312 264.99345 71.55145 268.76074 71.55145 269.6301 C 71.55145 269.9199 68.84673 269.34032 65.56242 268.27775 C 57.44826 265.86282 52.23201 265.86282 52.23201 268.27775 C 52.23201 269.24372 52.811594 270.3063 53.58437 270.5961 C 54.840135 271.07907 58.02784 276.4885 58.02784 278.13067 C 58.02784 278.51706 59.5734 280.5456 61.408744 282.57414 C 63.24409 284.60268 65.07944 287.0176 65.36923 287.98358 C 65.65902 288.85296 66.238604 289.43254 66.72159 289.14275 C 67.20458 288.85296 68.17055 289.43254 68.84673 290.3019 C 69.52291 291.2679 70.77867 292.13726 71.55145 292.33046 C 72.32423 292.52365 73.48339 293.29643 74.06298 293.9726 C 74.64256 294.7454 75.41534 295.13177 75.70513 294.7454 C 76.09152 294.4556 76.5745 294.842 76.8643 295.61476 C 77.250685 296.58073 78.31325 296.87052 79.95541 296.58073 C 81.59756 296.29094 82.75673 296.67733 83.33631 297.7399 C 84.39888 299.57525 86.62061 299.76844 87.39339 298.0297 C 87.68318 297.2569 88.26277 297.4501 89.32533 298.70587 C 90.19471 299.76844 90.87089 300.9276 90.87089 301.2174 C 90.87089 301.6038 87.2002 301.6038 82.75673 301.4106 C 77.250685 301.1208 74.44937 301.314 73.96638 302.08677 C 73.57999 302.76295 75.41534 305.27448 78.69964 308.269 C 81.69416 311.0703 84.10909 313.77503 84.10909 314.4512 C 84.10909 315.1274 84.68867 315.4172 85.46145 315.1274 C 86.33082 314.8376 87.39339 315.4172 88.16617 316.57635 C 88.84235 317.7355 89.90492 318.6049 90.5811 318.6049 C 91.25728 318.6049 92.70624 319.47427 93.76881 320.53684 C 94.92797 321.696 95.70075 321.9858 95.70075 321.213 C 95.70075 320.44024 96.08714 320.53684 96.66672 321.5028 C 97.14971 322.2756 97.63269 322.56538 97.63269 322.0824 C 97.63269 321.5028 98.30887 321.9858 99.08165 323.04836 C 99.85443 324.11093 100.53061 324.40073 100.53061 323.62795 C 100.53061 321.9858 103.13873 322.179 103.81491 323.91774 C 104.2979 325.3667 107.09922 325.5599 108.25839 324.40073 C 108.54818 324.11093 109.80394 323.43475 111.1563 322.75857 C 113.18484 321.8892 114.05422 322.0824 115.88956 323.53135 C 118.59429 325.7531 118.69088 325.6565 113.08825 327.20204 C 105.07068 329.3272 101.49658 331.25913 101.49658 333.48086 C 101.49658 334.92982 101.78637 335.123 102.36596 334.25364 C 103.04214 333.19107 103.42853 333.19107 104.58769 334.44683 C 105.45707 335.2196 106.32644 335.606 106.71283 335.3162 C 107.00262 334.92982 107.29241 335.2196 107.29241 335.7992 C 107.29241 336.47538 107.5822 336.86176 108.06519 336.86176 C 110.48012 336.47538 112.12227 337.15156 112.12227 338.6005 C 112.12227 340.04947 112.31547 340.14607 113.08825 338.8903 C 113.86102 337.73114 114.05422 337.73114 114.6338 339.1801 C 115.02019 340.14607 115.88956 340.72565 116.56575 340.43586 C 117.24193 340.14607 118.40109 340.43586 119.07727 341.11204 C 119.85005 341.78822 122.74797 342.1746 126.32206 342.1746 C 130.86213 342.078 133.56685 341.30524 138.10692 338.9869 C 143.70956 336.1856 144.19254 336.089 147.18706 337.34475 L 150.27817 338.6971 L 147.28365 338.7937 C 143.99935 338.8903 132.40769 344.29975 132.40769 345.7487 C 132.40769 346.2317 133.27706 346.6181 134.33963 346.6181 C 135.4022 346.6181 136.27157 347.10107 136.27157 347.68065 C 136.27157 348.35683 137.23755 348.55003 138.7831 348.26023 C 140.13546 348.06704 141.77761 348.35683 142.3572 348.9364 C 143.03338 349.516 144.77213 349.999 146.22109 349.9024 C 147.76664 349.8058 149.2156 350.38537 149.50539 351.06155 C 150.18157 352.9935 153.36928 352.7037 154.52844 350.67516 C 155.39782 349.2262 155.68761 349.2262 156.55699 350.48197 C 157.23317 351.54454 157.52296 351.54454 157.52296 350.67516 C 157.52296 349.999 158.97192 348.8398 160.80726 348.06704 C 164.09157 346.6181 167.18268 347.00447 167.18268 348.64662 C 167.18268 349.1296 168.05205 349.516 169.11462 349.516 C 170.27379 349.516 171.04657 350.19218 171.04657 351.15815 C 171.04657 352.6071 171.23976 352.7037 172.01254 351.44794 C 172.78531 350.19218 172.9785 350.19218 172.9785 351.64114 C 172.9785 352.8003 173.4615 353.0901 174.62066 352.7037 C 177.90497 351.44794 174.62066 354.44245 168.14865 358.78933 C 160.80726 363.5226 151.43733 372.40953 152.21011 373.6653 C 152.4999 374.1483 154.04546 374.72787 155.59101 375.11426 C 157.23317 375.50064 158.48893 376.17682 158.48893 376.6598 C 158.48893 377.2394 158.97192 377.336 159.4549 377.0462 C 160.03448 376.7564 160.42087 376.9496 160.42087 377.4326 C 160.42087 378.01217 161.00046 378.49516 161.67664 378.49516 C 162.9324 378.39856 167.18268 375.21085 167.18268 374.2449 C 167.18268 372.60273 172.39893 366.0341 173.2683 366.6137 C 173.75129 366.9035 173.94448 366.7103 173.5581 366.1307 C 173.2683 365.55113 174.33087 364.00558 176.06962 362.6532 C 178.29136 360.91447 179.45052 360.52808 179.9335 361.39745 C 180.4165 362.17023 180.70629 362.07363 180.70629 360.91447 C 180.70629 360.0451 181.09267 359.0791 181.57566 358.78933 C 182.92802 357.91995 185.53615 359.2723 185.53615 360.81787 C 185.53615 361.59065 186.01913 361.88044 186.50212 361.59065 C 187.0817 361.30086 187.4681 361.68724 187.4681 362.5566 C 187.4681 363.426 187.95108 363.8124 188.43406 363.5226 C 189.01364 363.2328 189.40003 363.426 189.40003 364.10217 C 189.40003 364.77835 189.68982 365.06815 189.97962 364.68176 C 190.849 363.8124 193.26392 366.5171 193.26392 368.35245 C 193.26392 369.22183 193.6503 369.7048 194.1333 369.415 C 195.19587 368.73884 201.95767 376.37 201.95767 378.10877 C 201.95767 378.78495 203.21343 378.10877 204.6624 376.7564 C 206.11135 375.30745 208.23649 373.6653 209.20246 373.0857 C 211.1344 372.02314 211.0378 371.92655 208.81607 369.415 C 207.4637 368.06266 202.63385 364.00558 197.90059 360.4315 L 189.49663 354.05607 L 192.29795 351.25475 C 194.51968 349.1296 195.77545 348.64662 197.90059 349.033 C 199.34954 349.3228 201.76447 349.7092 203.31003 349.9024 C 204.95218 349.999 206.40114 350.67516 206.59433 351.25475 C 207.17392 352.9935 213.25954 352.7037 213.93572 350.86836 C 214.4187 349.6126 214.8051 349.516 215.96426 350.48197 C 217.22003 351.54454 217.703 351.44794 218.66898 350.28877 C 219.34516 349.516 221.9533 348.06704 224.46482 347.19766 C 229.68107 345.26572 229.87426 343.72017 225.0444 342.2712 C 223.20905 341.78822 221.2771 341.01544 220.79412 340.62906 C 220.21454 340.33926 218.0894 339.7597 216.06086 339.3733 C 213.16294 338.7937 212.67996 338.4073 213.93572 337.73114 C 214.8051 337.24815 215.96426 337.15156 216.44725 337.44135 C 217.02683 337.73114 217.41322 337.53794 217.41322 337.05496 C 217.41322 335.4128 220.11794 335.7992 221.4703 337.63454 C 222.14648 338.6005 223.59544 339.4699 224.56141 339.6631 C 225.62398 339.85628 227.16954 340.91885 228.0389 341.9814 C 229.00488 343.23718 230.74363 343.91336 232.48238 343.91336 C 238.27822 343.72017 243.01148 343.23718 243.49446 342.6576 C 243.78426 342.2712 247.06856 340.33926 250.73925 338.4073 C 257.59766 334.73663 260.88196 332.4183 260.88196 331.16253 C 260.88196 330.38975 251.41544 327.49184 245.4264 326.42927 L 241.07953 325.7531 L 245.13662 323.62795 C 249.96648 321.11642 251.31884 321.01982 255.6657 323.04836 C 258.66022 324.49732 259.2398 324.49732 265.13224 322.4688 C 269.3825 321.11642 273.0532 318.9913 276.2409 316.09337 C 280.6844 312.13288 287.92918 303.24594 287.92918 301.79698 C 287.92918 301.0242 276.8205 301.7004 273.1498 302.66636 C 270.83147 303.24594 270.63828 303.14934 271.12126 301.6038 C 272.28043 298.41608 274.79196 296.67733 280.2014 295.42157 C 285.70744 294.1658 292.85563 291.55768 293.725 290.6883 C 294.0148 290.3985 295.94674 288.65976 298.0719 286.8244 C 302.32216 283.15372 307.4418 276.19872 306.66903 274.94296 C 306.37924 274.55657 306.66903 274.17018 307.3452 274.17018 C 308.0214 274.17018 308.2146 273.8804 307.9248 273.5906 C 307.5384 273.2042 308.4078 271.65865 309.66355 270.1131 C 313.52743 265.47643 312.94785 264.70366 306.57244 265.66963 C 303.48133 266.1526 299.03785 267.1186 296.71952 267.89136 C 291.40668 269.7267 290.0543 268.66414 293.33862 265.18664 C 295.46376 262.8683 298.0719 261.99893 300.8732 262.48192 C 301.3562 262.57852 302.03237 262.28873 302.32216 261.90234 C 302.61195 261.51595 305.02688 260.067 307.5384 258.81123 C 310.14653 257.55546 313.23764 254.94734 314.59 253.0154 C 319.61306 245.674 321.9314 241.90672 322.2212 240.45776 C 322.41438 239.58838 323.57354 236.40068 324.9259 233.40616 C 326.27826 230.41165 327.14764 227.70693 326.76125 227.41714 C 326.47146 227.12735 326.76125 226.83755 327.34083 226.83755 C 328.017 226.83755 328.5 226.16137 328.5 225.3886 C 328.5 224.61582 327.9204 223.93964 327.24424 223.93964 C 325.5055 223.93964 316.03896 227.22394 312.46486 229.0593 C 309.18056 230.79804 299.42424 239.87818 297.7821 242.7761 L 296.62292 244.70804 L 297.0093 242.7761 C 297.1059 241.71352 297.5889 240.16797 297.9753 239.2986 C 298.36167 238.42922 298.55487 237.36665 298.45827 236.88366 C 298.36167 236.40068 298.45827 235.5313 298.55487 235.04832 C 298.74806 234.46873 298.84466 233.21297 298.94126 232.1504 C 299.03785 231.08783 299.61744 230.31505 300.2936 230.41165 C 300.8732 230.60485 301.4528 230.31505 301.4528 229.83207 C 301.4528 228.9627 306.08945 227.32054 307.5384 227.61033 C 307.9248 227.70693 308.2146 227.32054 308.2146 226.74096 C 308.2146 226.16137 308.69757 225.87158 309.37375 226.06478 C 310.43632 226.45117 311.7887 225.4852 316.42535 221.04172 C 317.5845 219.97915 318.93688 219.10978 319.61306 219.10978 C 320.28924 219.10978 320.86882 218.5302 320.9654 217.85401 C 321.2552 215.2459 321.4484 214.5697 322.99396 209.83645 C 324.05653 206.84193 324.7327 201.62569 324.8293 196.60263 C 324.8293 191.96597 325.3123 188.19867 325.6987 188.19867 C 326.18167 188.19867 326.56806 187.3293 326.56806 186.36333 C 326.56806 185.30076 326.95444 184.2382 327.43743 183.9484 C 328.6932 183.17562 328.4034 178.53895 327.14764 178.53895 C 324.5395 178.53895 314.8798 184.43138 311.3057 188.19867 C 309.08396 190.4204 305.89626 195.05708 304.1575 198.43798 C 300.5834 205.39298 298.0719 207.42152 298.74806 202.68825 C 299.03785 201.1427 298.94126 199.79034 298.55487 199.79034 C 298.16848 199.79034 297.8787 198.43798 297.8787 196.79583 C 297.8787 194.4775 298.65147 193.31833 301.0664 191.77277 C 302.90174 190.517 305.22007 187.6191 306.37924 185.10756 C 307.5384 182.49944 308.79417 180.4709 309.18056 180.4709 C 310.04993 180.4709 310.24313 179.21514 310.6295 169.55542 C 310.7261 164.91875 310.53292 160.86167 310.04993 160.66847 C 309.66355 160.37868 309.47035 159.5093 309.85674 158.73653 C 310.14653 157.96375 309.85674 157.28757 309.18056 157.28757 C 308.60098 157.28757 308.2146 156.5148 308.3112 155.54882 C 308.4078 154.67945 308.3112 153.71347 308.2146 153.42368 C 307.8282 152.45771 307.4418 148.01424 307.15202 142.79799 C 306.86223 135.93959 306.57244 135.5532 303.67452 138.16133 C 295.46376 145.50271 293.33862 149.27 290.9237 160.47528 L 289.28154 168.20305 L 287.1564 165.30514 C 285.99723 163.66299 285.32105 162.11743 285.70744 161.73104 C 285.99723 161.44125 285.80404 161.15146 285.22445 161.15146 C 283.8721 161.15146 284.83807 158.15695 286.6734 156.61139 C 287.4462 156.0318 288.02577 155.16243 288.02577 154.67945 C 288.02577 154.29306 288.41216 152.26452 288.99175 150.33257 C 289.47473 148.30403 289.86112 143.47417 289.76452 139.70688 C 289.66793 134.10424 289.08834 131.59272 287.0598 127.82543 C 285.70744 125.1207 284.25848 122.80237 283.8721 122.70577 C 283.3891 122.51258 283.0993 121.933 283.0993 121.35341 C 283.0993 120.87043 282.42314 119.80786 281.65036 119.03508 C 280.87758 118.1657 280.2014 116.71675 280.2014 115.65418 C 280.2014 114.6882 279.815 113.81883 279.23543 113.81883 C 278.75244 113.81883 278.55925 113.23925 278.84904 112.56307 C 279.42862 111.01751 276.8205 108.60258 275.46814 109.37536 C 274.98515 109.76175 273.5362 112.46647 272.37703 115.55758 C 270.63828 119.90445 270.1553 123.09216 270.1553 130.91654 C 270.0587 136.42258 269.8655 140.86605 269.5757 140.86605 C 269.28592 140.86605 267.25738 139.0307 265.13224 136.71237 C 262.04113 133.42806 261.26835 131.9791 261.55814 129.75737 C 261.84793 128.21181 262.33092 126.47306 262.8139 125.89348 C 264.55265 123.76834 262.6207 115.17119 259.1432 108.98897 C 258.08064 107.25022 252.09162 102.90335 246.87537 100.19863 C 244.75023 99.03946 241.65912 96.62453 240.11356 94.78918 C 238.4714 92.95384 236.92586 91.79467 236.44287 92.18106 Z" fill="black"/>
        </g>
        <g id="Graphic_37">
          <path d="M 240.59655 99.61904 C 240.59655 100.10203 241.17613 100.29522 241.9489 100.00543 C 242.81828 99.61904 243.49446 100.19863 243.78426 101.45439 C 244.17065 102.71015 244.84683 103.28974 245.8128 102.90335 C 246.58558 102.61356 247.55155 102.71015 247.84134 103.28974 C 248.22773 103.77272 248.8073 103.96592 249.2903 103.67613 C 249.77328 103.38633 250.73925 104.06251 251.51203 105.12508 C 252.1882 106.18765 253.15418 106.76724 253.44398 106.38085 C 253.83037 106.09106 254.12016 106.38085 254.12016 107.25022 C 254.12016 108.023 255.18273 109.18217 256.4385 109.95494 C 257.79085 110.63112 259.3364 112.36987 259.916 113.91543 C 261.07515 116.62015 260.78536 127.05265 259.5296 130.72334 C 258.95002 132.2689 260.39897 134.20084 266.388 140.38306 C 270.54168 144.63334 274.79196 148.78702 275.85453 149.5598 C 277.49668 150.91216 277.49668 150.71896 275.56473 147.53125 C 274.40557 145.59931 273.7294 143.76396 274.11578 143.47417 C 274.40557 143.08778 274.21237 142.79799 273.5362 142.79799 C 272.86 142.79799 272.57022 142.4116 272.9566 141.92862 C 273.2464 141.44563 273.0532 140.76945 272.57022 140.38306 C 271.99064 140.09327 271.79744 139.2239 272.08724 138.54771 C 272.37703 137.77494 272.18383 137.00216 271.79744 136.71237 C 271.31446 136.42258 271.02467 134.68383 271.21786 132.94508 C 271.41106 131.20633 271.60425 128.21181 271.79744 126.37647 C 271.99064 124.54112 272.37703 122.41598 272.7634 121.7398 C 273.2464 121.16022 273.343 120.19425 272.9566 119.71126 C 272.66682 119.22827 273.0532 118.2623 273.7294 117.48952 C 274.50217 116.81334 274.88855 115.65418 274.59876 114.978 C 274.40557 114.39841 274.69536 113.81883 275.17835 113.81883 C 276.2409 113.81883 281.74696 121.7398 285.12786 128.30841 C 289.18494 136.03619 288.60536 151.00875 283.9687 157.19097 L 281.94015 159.8957 L 284.35508 163.66299 C 286.8666 167.72007 290.9237 176.22062 292.56584 180.95388 C 293.6284 183.8518 293.6284 183.8518 293.5318 179.98791 C 293.4352 177.86277 293.14543 175.64104 292.75904 175.15805 C 291.98626 173.99889 292.17945 164.24257 292.95223 162.11743 C 293.33862 161.34465 293.8216 158.92972 294.208 156.80458 C 295.07737 151.29854 298.26508 145.01973 301.4528 142.79799 L 304.0609 140.96264 L 305.22007 148.40063 C 305.89626 152.45771 307.05542 157.96375 307.8282 160.57188 C 310.14653 168.78264 309.66355 174.77166 305.79966 182.30625 C 303.48133 187.0395 301.4528 189.55104 298.94126 191.0966 C 295.46376 193.31833 295.46376 193.41492 296.13994 197.7618 C 296.52633 200.17673 297.1059 206.55214 297.5889 211.865 C 297.9753 217.17783 298.36167 220.17235 298.36167 218.5302 C 298.55487 214.6663 300.3902 209.45006 301.54938 209.45006 C 302.03237 209.45006 302.41876 208.58068 302.41876 207.42152 C 302.41876 202.01207 316.90834 182.59604 320.19264 183.6586 C 320.67563 183.8518 321.9314 183.17562 322.99396 182.11305 C 325.4089 179.69812 325.79528 180.3743 324.5395 184.43138 C 323.95993 186.26673 323.09056 192.44895 322.70417 198.14819 C 321.4484 214.27992 317.39132 220.84853 305.79966 225.87158 C 300.5834 228.09332 300.4868 228.09332 300.4868 226.83755 C 300.4868 226.25797 301.163 225.87158 301.93577 225.87158 C 302.70855 225.87158 303.38473 225.0022 303.38473 223.93964 C 303.38473 222.78047 304.0609 222.0077 304.9303 222.0077 C 305.89626 222.0077 306.28264 221.4281 305.99285 220.65533 C 305.70306 219.88256 306.08945 218.7234 306.86223 218.1438 C 307.635 217.46763 308.2146 216.30846 308.2146 215.63228 C 308.2146 214.8595 308.60098 214.27992 308.98737 214.27992 C 309.95334 214.27992 313.33424 207.51811 312.75466 206.84193 C 312.46486 206.64874 311.3057 208.0011 310.14653 209.83645 C 308.98737 211.7684 307.7316 213.31395 307.3452 213.31395 C 306.95882 213.31395 305.41327 215.43908 303.8677 218.1438 C 302.32216 220.75193 300.7766 222.97367 300.4868 222.97367 C 299.03785 222.97367 296.71952 231.08783 295.27056 240.84415 C 293.4352 253.59498 293.33862 255.04394 294.88417 252.4358 C 295.56036 251.37324 296.13994 249.8277 296.33313 249.0549 C 296.42973 248.28213 297.1059 247.21956 297.7821 246.63998 C 298.45827 246.157 299.13445 244.99783 299.32765 244.22505 C 299.81063 242.2931 305.50987 236.59387 307.05542 236.49727 C 307.7316 236.49727 308.69757 235.4347 309.18056 234.17894 C 309.66355 232.82658 311.4989 231.18443 313.23764 230.31505 C 319.61306 227.41714 323.95993 225.87158 324.4429 226.25797 C 325.2157 227.03075 321.8348 236.49727 318.1641 243.74206 C 312.75466 254.75414 308.118 258.61803 297.9753 260.93637 C 292.17945 262.28873 291.98626 262.38532 287.5428 272.43143 C 286.19043 275.42595 284.54827 278.22726 284.0653 278.51706 C 282.80952 279.28983 282.80952 282.86393 284.1619 282.86393 C 284.74147 282.86393 285.03126 282.28435 284.74147 281.60817 C 284.54827 281.02858 285.41765 279.09664 286.6734 277.5511 C 291.21348 271.75525 291.0203 271.94845 291.88966 273.3974 C 292.56584 274.36338 292.75904 274.26678 292.75904 273.011 C 292.75904 270.69268 297.8787 268.08456 299.42424 269.6301 C 300.19702 270.4029 300.4868 270.3063 300.4868 269.05053 C 300.4868 267.1186 303.9643 266.8288 304.7371 268.56754 C 305.02688 269.43692 305.50987 269.34032 306.28264 268.08456 C 306.86223 267.21518 308.0214 266.4424 308.89077 266.4424 C 310.24313 266.4424 310.24313 266.6356 308.79417 268.66414 C 307.9248 269.8233 306.18605 272.81782 304.8337 275.23275 C 301.54938 281.51157 295.46376 287.887 290.0543 290.7849 C 285.32105 293.39302 277.3035 295.22837 277.3035 293.7794 C 277.3035 292.91004 284.93466 286.72782 285.90064 286.72782 C 286.28702 286.72782 287.0598 285.85844 287.73598 284.69928 C 289.37813 282.09115 288.31557 282.67074 282.13334 287.5972 C 277.3035 291.46108 255.18273 313.77503 256.2453 313.77503 C 258.27384 313.77503 261.84793 311.6499 261.84793 310.49073 C 261.84793 309.71795 263.0071 308.6554 264.55265 308.0758 C 266.0016 307.39962 268.41654 306.24045 269.9621 305.37108 C 271.99064 304.3085 272.86 304.2119 273.4396 305.0813 C 273.92258 305.85406 274.50217 305.75747 275.66133 304.6949 C 277.3035 303.05274 279.23543 302.66636 279.23543 303.92212 C 279.23543 305.0813 283.4857 304.8881 284.25848 303.72892 C 284.74147 303.05274 285.03126 303.14934 285.03126 304.0187 C 285.03126 304.7915 281.84355 308.4622 277.97966 312.22948 C 268.31994 321.7926 260.59217 324.20753 252.3814 320.34364 C 250.54606 319.37767 249.0971 319.86066 242.6251 323.24156 C 238.3748 325.4633 234.41433 327.29864 233.73815 327.29864 C 232.57898 327.29864 217.02683 334.73663 212.58336 337.34475 C 211.231 338.21413 207.6569 339.5665 204.6624 340.33926 C 201.0883 341.40183 198.38357 342.7542 197.1278 344.39635 C 196.06524 345.7487 195.19587 346.6181 195.19587 346.3283 C 195.19587 346.0385 193.8435 347.10107 192.20135 348.64662 C 190.2694 350.38537 188.14427 351.44794 186.40552 351.44794 C 182.25184 351.44794 182.92802 350.28877 188.62726 347.58405 C 193.45712 345.26572 200.02573 339.7597 200.02573 337.92433 C 200.02573 337.44135 200.8951 336.47538 202.05427 335.7026 C 203.11684 334.92982 203.59982 333.96385 203.11684 333.67406 C 202.53725 333.38427 201.95767 333.57746 201.76447 334.25364 C 201.57128 334.83322 200.7985 335.0264 200.21892 334.64003 C 198.86656 333.86725 201.2815 328.2646 203.02024 328.2646 C 203.59982 328.2646 203.79302 327.87822 203.50322 327.49184 C 203.02024 326.62246 207.6569 321.9858 208.23649 322.66198 C 209.00926 323.33816 206.69093 331.16253 204.95218 334.44683 C 202.53725 338.6971 204.4692 339.85628 208.23649 336.37878 C 210.45822 334.25364 212.00378 333.57746 212.87315 334.25364 C 214.03232 335.123 216.35065 331.5489 216.06086 329.61697 C 215.57787 327.00885 218.186 319.57087 219.63496 319.57087 C 220.11794 319.57087 220.31114 318.9913 220.02135 318.3151 C 219.44176 316.76955 223.69204 312.51927 229.58447 308.84858 L 233.73815 306.14385 L 233.15856 309.71795 C 232.77218 312.71246 227.26614 326.33267 226.58995 326.33267 C 226.39676 326.33267 224.8512 326.91225 223.01586 327.68503 C 219.82815 329.0374 219.73155 329.0374 219.82815 327.20204 C 219.92475 326.04288 220.60093 324.7871 221.3737 324.30413 C 222.14648 323.82114 222.33968 323.43475 221.8567 323.43475 C 221.3737 323.43475 221.5669 322.66198 222.33968 321.696 C 223.01586 320.82663 221.8567 321.696 219.73155 323.82114 C 217.31662 326.13948 216.44725 327.68503 217.22003 327.97482 C 217.7996 328.2646 218.3792 329.2306 218.3792 330.29315 C 218.3792 331.7421 218.76558 331.9353 220.11794 331.25913 C 220.98732 330.67954 226.01037 328.2646 231.13002 325.8497 C 236.44287 323.43475 240.49995 320.92323 240.30676 320.24705 C 240.21016 319.66746 240.69315 319.18448 241.36933 319.37767 C 241.9489 319.47427 242.5285 318.7015 242.5285 317.7355 C 242.5285 316.67295 243.20467 315.1274 244.07405 314.3546 C 244.84683 313.48524 245.2332 312.80906 244.94342 312.80906 C 244.55703 312.80906 244.94342 311.7465 245.8128 310.39413 C 247.55155 307.6894 247.84134 306.62684 246.39238 307.4962 C 245.8128 307.8826 244.36384 310.20094 243.10808 312.71246 C 240.69315 317.44573 237.69863 320.73003 237.69863 318.7015 C 237.69863 318.1219 238.18162 317.63892 238.7612 317.63892 C 239.43738 317.63892 239.53398 316.28656 239.1476 313.77503 C 238.6646 311.0703 238.8578 309.91115 239.63058 309.91115 C 240.30676 309.91115 240.59655 309.23497 240.21016 308.4622 C 239.92037 307.6894 240.30676 306.43365 241.07953 305.66087 C 241.8523 304.9847 242.2387 304.1153 241.9489 303.82552 C 241.27273 303.14934 242.7217 301.314 248.13113 295.80795 C 250.35287 293.58622 252.1882 291.0747 252.1882 290.3985 C 252.1882 289.72233 252.7678 290.01212 253.34738 291.0747 C 256.1487 295.80795 253.34738 309.52476 248.51752 315.0308 C 247.74474 315.90017 247.35835 316.96274 247.64814 317.25253 C 248.7107 318.3151 267.64376 298.41608 269.3825 294.5522 C 269.7689 293.6828 269.8655 290.2053 269.5757 286.72782 L 269.09272 280.449 L 268.22335 288.46657 L 267.45057 296.48414 L 265.13224 293.39302 C 263.87647 291.65428 262.8139 289.43254 262.8139 288.56316 C 262.8139 287.5972 262.5241 286.63122 262.04113 286.34143 C 261.26835 285.85844 261.26835 272.43143 262.13772 271.65865 C 262.42752 271.36886 262.42752 270.4995 262.13772 269.7267 C 261.84793 268.95393 262.04113 268.37435 262.5241 268.37435 C 263.0071 268.37435 263.4901 267.79477 263.4901 267.1186 C 263.4901 266.539 264.35946 264.12407 265.42203 261.90234 L 267.35397 257.74866 L 270.83147 266.3458 C 274.40557 275.03956 275.27494 281.12518 273.92258 287.887 C 273.5362 289.91553 273.4396 291.55768 273.826 291.55768 C 274.50217 291.55768 279.7184 281.60817 279.42862 280.6422 C 279.33203 280.2558 279.62182 279.966 280.0082 279.966 C 280.3946 279.966 281.55376 277.84088 282.51973 275.23275 C 283.3891 272.62463 284.74147 270.2097 285.41765 270.0165 C 286.77 269.43692 286.5768 259.3908 285.22445 258.90782 C 284.64487 258.71463 284.45168 257.74866 284.74147 256.7827 C 285.03126 255.72012 284.74147 254.85074 284.1619 254.85074 C 282.90612 254.85074 282.80952 258.13505 283.9687 262.38532 C 284.45168 264.02748 284.54827 265.47643 284.1619 265.47643 C 283.0993 265.47643 277.2069 258.52144 276.2409 256.2997 C 275.85453 255.23713 275.17835 253.49838 274.79196 252.4358 C 274.01918 250.21408 273.6328 240.36116 274.40557 240.36116 C 274.69536 240.36116 274.79196 238.6224 274.59876 236.49727 C 274.40557 234.37214 274.50217 232.6334 274.98515 232.6334 C 276.3375 232.6334 280.2014 236.78707 280.2014 238.23602 C 280.2014 239.1054 280.4912 239.3952 280.87758 239.1054 C 281.74696 238.23602 285.51425 244.03186 286.48022 247.60595 C 286.8666 249.1515 287.3496 252.8222 287.6394 255.52692 C 288.12237 260.93637 289.47473 262.48192 289.66793 257.94185 C 289.76452 256.4929 290.0543 254.27116 290.3441 252.9188 C 291.40668 248.66852 291.59987 247.60595 291.79306 247.12297 C 291.88966 246.83317 291.98626 246.2536 291.88966 245.7706 C 291.79306 245.38422 292.08286 244.51484 292.66244 243.83866 C 293.14543 243.25908 293.5318 241.71352 293.5318 240.36116 C 293.5318 239.0088 293.6284 237.46325 293.8216 236.98026 C 294.4012 235.1449 292.75904 227.80353 291.69647 227.80353 C 291.21348 227.80353 291.0203 227.32054 291.31008 226.83755 C 291.59987 226.25797 291.40668 225.87158 290.9237 225.87158 C 290.3441 225.87158 289.86112 225.292 289.86112 224.61582 C 289.86112 223.07026 285.12786 217.17783 283.7755 217.17783 C 283.1959 217.17783 283.1959 217.66082 283.8721 218.337 C 285.03126 219.78596 290.8271 230.31505 290.8271 230.99123 C 290.8271 231.28103 289.28154 230.99123 287.3496 230.41165 C 283.5823 229.25248 276.9171 223.74644 277.97966 222.68387 C 278.26946 222.29749 278.17286 222.0077 277.59328 222.0077 C 275.95112 222.0077 274.30897 216.21186 274.98515 212.63777 C 275.37154 210.60922 275.17835 209.45006 274.50217 209.45006 C 273.92258 209.45006 273.5362 208.3875 273.6328 207.03513 C 273.7294 205.68277 274.21237 204.6202 274.69536 204.6202 C 275.08175 204.6202 274.98515 203.75082 274.40557 202.68825 C 273.826 201.62569 273.6328 200.7563 273.92258 200.7563 C 275.46814 200.7563 283.2925 206.93853 284.83807 209.25686 C 285.70744 210.70582 287.253 212.73436 288.12237 213.70034 C 289.08834 214.7629 289.86112 216.21186 289.86112 216.98464 C 289.86112 217.66082 290.5373 218.91658 291.31008 219.68936 C 292.08286 220.55874 292.75904 222.29749 292.75904 223.74644 C 292.85563 226.06478 292.95223 226.16137 293.8216 224.61582 C 294.4012 223.64985 294.78758 219.78596 294.88417 215.92207 C 294.88417 199.79034 294.98077 200.36992 290.3441 194.1877 C 287.92918 191 284.93466 187.71569 283.5823 186.84631 C 280.298 184.72118 280.5878 185.59055 284.35508 189.45444 C 288.02577 193.22173 290.8271 196.69923 290.8271 197.3754 C 290.8271 199.40395 280.0082 194.3809 275.37154 190.22722 C 273.5362 188.48847 271.99064 186.84631 271.99064 186.45993 C 271.99064 186.07354 271.02467 184.2382 269.7689 182.30625 C 268.60974 180.3743 267.64376 178.15257 267.64376 177.37979 C 267.64376 176.60701 267.16078 175.54444 266.4846 174.86826 C 265.905 174.28868 265.22883 172.74312 265.03564 171.58396 C 264.84245 169.8452 264.93904 169.65201 265.61522 170.81118 C 266.1948 171.58396 266.871 171.87375 267.25738 171.58396 C 267.54717 171.19757 268.51314 171.48736 269.18932 172.26014 C 269.9621 173.03291 271.21786 173.4193 271.99064 173.12951 C 272.86 172.74312 273.4396 173.12951 273.4396 173.8057 C 273.4396 174.86826 273.7294 174.86826 274.40557 173.7091 C 275.17835 172.45333 275.37154 172.54993 275.37154 174.09548 C 275.37154 175.25465 275.85453 175.64104 276.8205 175.25465 C 277.59328 174.96486 278.26946 175.15805 278.26946 175.73764 C 278.26946 176.31722 278.75244 176.41382 279.23543 176.12402 C 279.815 175.73764 282.32654 177.47639 284.83807 179.89132 C 287.3496 182.30625 289.76452 184.33479 290.1509 184.33479 C 290.6339 184.33479 290.7305 185.10756 290.3441 186.17013 C 290.0543 187.2327 290.3441 188.19867 291.21348 188.48847 C 292.17945 188.87486 292.46924 188.48847 292.27605 187.4259 C 291.21348 182.59604 289.37813 178.15257 285.32105 169.8452 L 280.6844 160.57188 L 275.37154 158.83313 C 268.12675 156.4182 266.7744 156.0318 269.3825 157.38417 C 270.54168 158.06035 271.50765 158.92972 271.50765 159.31611 C 271.50765 159.7991 272.08724 159.8957 272.86 159.6059 C 273.6328 159.31611 274.88855 160.08889 275.75793 161.34465 C 276.6273 162.50382 277.3035 163.18 277.3035 162.79361 C 277.3035 162.31063 277.78647 162.31063 278.46265 162.69701 C 281.55376 164.62896 269.3825 165.69153 262.42752 164.14597 C 257.40446 162.8902 247.35835 152.9407 247.35835 149.07681 C 247.35835 148.78702 250.15967 148.59382 253.63717 148.59382 C 257.11467 148.59382 259.916 148.98021 259.916 149.4632 C 259.916 150.62236 264.64925 151.39514 265.03564 150.23598 C 265.42203 148.88361 273.4396 153.23049 273.4396 154.77604 C 273.4396 155.54882 274.11578 156.3216 274.88855 156.70799 C 276.9171 157.38417 276.7239 155.16243 274.59876 152.8441 C 273.7294 151.87813 270.83147 148.49723 268.22335 145.40612 C 262.23432 138.35452 259.2398 136.22938 252.1882 134.10424 C 247.64814 132.75188 246.68217 132.65529 247.06856 133.71785 C 247.35835 134.49063 247.93794 134.78042 248.42092 134.49063 C 248.9039 134.20084 249.2903 134.39403 249.2903 134.78042 C 249.2903 135.26341 250.06307 135.6498 251.02905 135.7464 C 257.40446 136.22938 257.88745 137.38855 252.8644 140.28646 C 247.45495 143.47417 242.5285 143.57077 237.31224 140.47966 C 233.64155 138.35452 225.4308 129.66077 226.30016 128.7914 C 226.49336 128.5982 230.35725 128.21181 235.0905 127.82543 C 241.56252 127.43904 243.49446 127.53563 243.49446 128.5016 C 243.49446 129.37098 243.78426 129.27438 244.46044 128.30841 C 245.13662 127.24584 245.4264 127.14924 245.4264 128.11522 C 245.4264 128.888 246.1992 129.27438 247.16516 128.98459 C 248.03453 128.7914 250.25627 129.66077 251.99502 130.91654 C 253.63717 132.1723 255.08613 132.94508 255.08613 132.65529 C 255.08613 131.49612 244.75023 121.6432 241.07953 119.32487 C 236.82926 116.71675 231.32322 115.26779 230.45384 116.71675 C 230.16405 117.10314 227.16954 117.87591 223.78864 118.1657 C 217.9928 118.84189 217.22003 118.64869 211.6174 115.65418 C 205.43517 112.36987 199.05975 105.99446 199.05975 103.09654 C 199.05975 100.87481 201.76447 100.29522 212.29357 100.29522 C 225.62398 100.29522 231.03343 102.90335 234.70412 111.01751 C 235.8633 113.52904 238.568 116.13716 244.26724 120.00105 C 252.961 125.89348 254.50655 125.99008 247.84134 120.19425 C 245.4264 118.06911 243.49446 115.84737 243.49446 115.0746 C 243.49446 114.39841 243.10808 113.81883 242.6251 113.81883 C 241.36933 113.81883 239.34079 107.34682 239.43738 103.96592 C 239.43738 102.51696 239.1476 101.2612 238.6646 101.2612 C 238.18162 101.2612 237.89183 99.90883 237.98842 98.36328 C 238.18162 95.75516 238.27822 95.65856 239.43738 97.10752 C 240.01697 97.97689 240.59655 99.13606 240.59655 99.61904 Z" fill="#f3f3f3"/>
        </g>
        <g id="Graphic_36">
          <path d="M 124.10033 103.38633 C 123.13435 110.82432 119.65686 117.10314 114.05422 121.25682 C 109.61075 124.73431 108.25839 126.37647 109.99714 126.37647 C 110.38352 126.37647 113.18484 124.15473 116.37255 121.54661 C 119.46366 118.84189 122.26498 116.90994 122.55477 117.19973 C 122.94116 117.48952 121.6854 118.93848 119.85005 120.38744 C 105.74686 131.20633 86.81381 152.26452 80.1486 164.53236 C 78.40985 167.72007 76.7677 170.52139 76.38131 170.81118 C 74.93235 171.87375 71.35826 181.43687 69.52291 189.16465 C 67.10798 199.21076 66.14201 223.36006 67.68756 232.6334 C 69.61951 243.74206 74.73916 264.51046 75.41534 264.02748 C 75.80173 263.7377 75.89832 260.64657 75.60853 256.97588 C 75.31874 251.66303 75.511935 250.11748 76.7677 248.76512 C 77.73367 247.89574 78.21666 246.73658 77.83027 246.157 C 77.54048 245.674 78.40985 244.32165 79.76221 243.06588 C 81.11457 241.90672 82.17714 240.45776 82.17714 239.78158 C 82.17714 239.1054 83.33631 237.17345 84.68867 235.5313 C 88.16617 231.37762 88.93895 232.82658 88.93895 244.22505 C 88.93895 254.07796 88.06957 256.5895 82.66013 261.99893 C 80.052 264.60706 77.15409 264.60706 79.37582 261.99893 C 79.95541 261.22616 80.2452 260.64657 79.95541 260.64657 C 79.56902 260.64657 79.95541 258.81123 80.72818 256.6861 C 82.46693 251.95283 82.46693 251.95283 81.30777 251.95283 C 80.82478 251.95283 79.665615 254.94734 78.69964 258.71463 C 77.73367 262.38532 76.6711 265.47643 76.18812 265.47643 C 75.80173 265.47643 75.41534 266.1526 75.41534 266.9254 C 75.41534 267.69817 75.89832 268.37435 76.38131 268.37435 C 76.96089 268.37435 77.34728 269.43692 77.34728 270.69268 C 77.34728 271.94845 77.926865 273.2042 78.69964 273.494 C 79.37582 273.7838 80.2452 275.23275 80.63159 276.6817 C 81.01798 278.13067 82.37034 280.6422 83.5295 282.28435 C 84.78527 283.9265 86.71721 287.1142 87.87638 289.43254 C 89.03554 291.65428 90.5811 293.48962 91.25728 293.48962 C 92.80283 293.48962 92.70624 292.42705 91.06408 288.36997 C 90.3879 286.921 90.00152 285.37546 90.00152 284.98907 C 90.09811 284.60268 90.09811 284.0231 90.00152 283.5401 C 89.42193 281.60817 89.71172 273.3008 90.29131 272.33484 C 90.6777 271.75525 90.6777 270.78928 90.3879 270.3063 C 90.09811 269.8233 90.29131 269.34032 90.87089 269.34032 C 91.54707 269.34032 91.83686 268.66414 91.45047 267.89136 C 91.16068 267.1186 91.54707 265.95942 92.22325 265.28324 C 92.89943 264.60706 93.28582 263.5445 93.09263 262.8683 C 92.89943 262.28873 93.57561 260.83977 94.63818 259.7772 C 95.60415 258.81123 96.28033 257.65206 95.99054 257.36227 C 95.60415 257.07248 95.60415 256.7827 95.89394 256.7827 C 96.28033 256.7827 97.3429 258.61803 98.50207 260.83977 C 104.3945 273.1076 104.87748 280.2558 100.62721 289.23935 C 97.5361 295.90455 96.18374 297.1603 95.21776 294.7454 C 94.92797 293.7794 95.02457 292.91004 95.60415 292.71684 C 96.28033 292.52365 96.37693 289.62573 95.99054 284.69928 C 95.60415 279.28983 95.70075 277.0681 96.57012 277.0681 C 97.14971 277.0681 97.63269 276.39192 97.63269 275.61914 C 97.63269 274.84636 97.2463 274.17018 96.76332 274.17018 C 95.50756 274.17018 93.8654 282.96053 93.67221 290.8815 L 93.47901 297.4501 L 100.62721 304.6949 C 111.2529 315.5138 124.19692 324.59392 130.47574 325.8497 C 133.47025 326.42927 158.39233 338.4073 165.25073 342.6576 C 167.08608 343.72017 169.7908 345.16912 171.33636 345.7487 C 172.78531 346.3283 173.94448 347.19766 173.94448 347.68065 C 173.94448 348.06704 175.68323 348.9364 177.90497 349.516 C 180.0301 350.0956 182.05865 351.25475 182.34844 352.02752 C 182.63823 352.7037 183.411 353.3799 184.18378 353.3799 C 184.95656 353.3799 185.53615 353.76627 185.53615 354.34586 C 185.53615 354.82884 186.21233 355.31183 187.0817 355.31183 C 187.85448 355.31183 189.88302 356.5676 191.52517 358.20975 C 193.07073 359.7553 194.80948 361.10766 195.38906 361.10766 C 195.87205 361.10766 197.2244 362.17023 198.28698 363.5226 C 199.25295 364.77835 200.6053 365.84092 201.1849 365.64773 C 201.76447 365.55113 202.82704 366.4205 203.40663 367.57967 C 204.0828 368.83544 204.759 369.6082 205.04878 369.31842 C 205.33857 369.02863 206.11135 369.415 206.78753 370.2844 C 207.7535 371.44356 207.5603 372.02314 205.72496 373.5687 C 203.50322 375.40405 203.40663 375.40405 201.1849 372.79592 C 195.19587 365.9375 189.40003 360.62468 182.25184 355.40843 C 171.23976 347.48746 164.96094 344.39635 158.29574 343.81676 C 157.81275 343.72017 157.52296 342.8508 157.52296 341.78822 C 157.52296 340.53246 156.84678 339.85628 155.68761 339.85628 C 154.72164 339.85628 153.65907 339.1801 153.36928 338.5039 C 153.07949 337.73114 150.95435 336.57197 148.63602 335.9924 C 146.31768 335.3162 144.09595 334.54343 143.51636 334.06045 C 143.03338 333.67406 138.10692 333.09447 132.69748 332.8047 C 123.03776 332.2251 122.84456 332.2251 124.39012 334.06045 C 125.54928 335.4128 126.41866 335.606 127.67442 334.92982 C 128.6404 334.44683 131.8281 334.35024 134.82262 334.64003 C 140.81164 335.4128 140.71504 336.66857 134.43623 338.7937 C 127.96421 340.91885 121.29901 340.14607 112.99165 336.2822 C 108.83797 334.25364 105.36047 332.4183 105.36047 332.0319 C 105.36047 330.96934 111.92908 328.9408 112.99165 329.61697 C 113.47463 330.00336 114.05422 329.71357 114.24741 329.134 C 115.02019 326.81566 130.08935 327.97482 135.5954 330.67954 C 138.9763 332.3217 139.45928 332.4183 138.7831 331.25913 C 138.49331 330.87274 135.4988 329.52038 132.21449 328.3612 C 128.83359 327.20204 125.35609 325.7531 124.29352 325.2701 C 123.32755 324.6905 121.6854 324.11093 120.71942 323.91774 C 119.65686 323.72455 117.62831 322.66198 116.17936 321.696 C 113.37804 319.66746 97.72929 313.29205 97.14971 313.96823 C 96.18374 314.8376 98.59867 316.96274 100.917 317.15594 C 102.26936 317.34913 104.10471 318.1219 104.97408 318.9913 C 105.74686 319.86066 106.90603 320.34364 107.38901 320.05385 C 107.872 319.66746 108.25839 319.95725 108.25839 320.44024 C 108.25839 323.62795 94.92797 319.18448 87.77978 313.67844 C 83.5295 310.39413 79.27923 306.33705 79.27923 305.46767 C 79.27923 305.27448 81.01798 305.0813 83.14311 305.0813 C 85.55804 305.0813 87.007 304.5983 87.007 303.82552 C 87.007 302.95615 87.2002 302.95615 87.77978 303.92212 C 88.26277 304.5983 89.32533 304.8881 90.19471 304.5983 C 91.06408 304.2119 92.41645 304.6949 93.38242 305.95066 C 94.34839 307.01323 95.41096 307.6894 95.89394 307.39962 C 96.28033 307.10983 96.66672 307.39962 96.66672 307.9792 C 96.66672 308.5588 97.05311 308.75198 97.63269 308.4622 C 98.11568 308.1724 99.27485 308.75198 100.24082 309.91115 C 101.20679 310.9737 102.36596 311.8431 102.84894 311.8431 C 103.33193 311.8431 104.58769 312.61587 105.65026 313.58184 C 106.71283 314.4512 107.38901 314.741 107.19582 314.25802 C 107.00262 313.67844 103.33193 310.00774 99.08165 306.04726 C 94.83138 302.18337 91.35388 298.51268 91.35388 297.9331 C 91.35388 296.29094 89.71172 295.42157 86.33082 295.42157 C 78.89284 295.42157 66.3352 287.404 63.147494 280.7388 C 62.18152 278.71025 61.11895 277.0681 60.732564 277.0681 C 60.24958 277.0681 59.959786 276.4885 59.959786 275.71574 C 59.959786 274.94296 59.283606 273.5906 58.41423 272.81782 C 57.06187 271.36886 57.06187 271.07907 58.51083 269.6301 C 59.76659 268.37435 60.24958 268.27775 60.92576 269.34032 C 61.31215 270.0165 62.084925 270.3063 62.66451 269.9199 C 63.24409 269.6301 63.92027 269.7267 64.30666 270.3063 C 64.69305 270.88588 65.27263 271.07907 65.75562 270.78928 C 67.10798 269.9199 71.55145 272.43143 71.55145 274.0736 C 71.55145 275.42595 71.744645 275.42595 72.51742 274.17018 C 73.1936 273.1076 73.57999 273.3008 74.35277 275.23275 C 74.835755 276.6817 75.89832 278.03407 76.7677 278.32386 C 77.54048 278.61365 78.98943 280.5456 79.95541 282.47754 C 80.92138 284.50608 82.37034 286.24483 83.14311 286.53462 C 84.10909 286.72782 84.20568 286.63122 83.43291 286.05164 C 82.85332 285.66525 82.17714 284.4095 81.98395 283.3469 C 81.88735 282.28435 80.82478 280.5456 79.665615 279.48303 C 78.60305 278.32386 77.83027 276.9715 78.12006 276.29532 C 78.31325 275.61914 77.34728 274.17018 75.99492 273.1076 C 74.64256 272.04504 73.67659 270.69268 73.96638 270.2097 C 74.35277 269.7267 74.06298 269.34032 73.48339 269.34032 C 72.90381 269.34032 72.51742 268.76074 72.61402 268.08456 C 73.00041 265.18664 72.420825 263.5445 71.06846 263.5445 C 70.29569 263.5445 69.61951 262.8683 69.61951 262.09553 C 69.61951 261.32275 69.23312 260.64657 68.653534 260.64657 C 68.17055 260.64657 66.72159 259.10102 65.46583 257.26567 C 64.113466 255.33373 61.21555 252.24262 58.993814 250.21408 C 54.93673 246.73658 54.840135 246.73658 56.67548 249.5379 C 57.641454 251.18005 59.283606 253.0154 60.15298 253.69158 C 61.11895 254.36776 61.89173 255.43033 61.89173 255.9133 C 61.89173 256.4929 62.8577 257.84526 64.113466 258.81123 L 66.238604 260.74317 L 63.92027 260.067 C 56.868676 258.13505 47.40215 250.98685 47.40215 247.70255 C 47.40215 246.92977 47.11236 246.157 46.72597 245.9638 C 45.470206 245.4808 42.475693 238.33262 43.055276 237.36665 C 43.441665 236.88366 43.24847 236.49727 42.66889 236.49727 C 42.089304 236.49727 41.89611 235.8211 42.1859 235.04832 C 42.57229 234.27554 42.2825 233.59936 41.60632 233.59936 C 41.026735 233.59936 40.83354 233.11637 41.123332 232.6334 C 41.50972 232.0538 41.316527 231.08783 40.736944 230.41165 C 40.060763 229.54228 40.060763 228.7695 40.736944 227.80353 C 41.50972 226.64436 41.89611 226.64436 42.2825 227.61033 C 42.475693 228.18992 43.151874 228.5763 43.63486 228.18992 C 44.117846 227.90012 44.504234 228.18992 44.504234 228.7695 C 44.504234 229.34908 44.98722 229.54228 45.470206 229.25248 C 46.04979 228.9627 46.72597 229.25248 47.01576 230.12186 C 47.305553 230.89464 48.07833 231.37762 48.85111 231.08783 C 49.52729 230.79804 50.300066 231.28103 50.58986 232.0538 C 50.976247 232.92318 51.84562 233.59936 52.714996 233.59936 C 53.487774 233.59936 54.163954 234.27554 54.163954 235.1449 C 54.163954 235.9177 54.55034 236.40068 55.03333 236.11089 C 56.28909 235.3381 61.21555 241.71352 65.36923 249.6345 C 71.06846 260.2602 71.744645 260.2602 69.03992 249.8277 C 68.17055 246.4468 67.49437 242.5829 67.49437 241.03734 C 67.49437 239.58838 67.10798 238.42922 66.62499 238.42922 C 65.94881 238.42922 65.852215 237.27005 66.238604 235.5313 C 66.62499 233.69596 66.528396 232.6334 65.852215 232.6334 C 65.27263 232.6334 64.78965 231.764 64.78965 230.60485 C 64.78965 229.54228 64.40326 228.9627 63.823674 229.25248 C 63.24409 229.54228 63.147494 229.1559 63.437285 228.3831 C 63.823674 227.22394 63.437285 226.83755 61.98833 226.83755 C 59.669995 226.83755 53.00479 223.64985 49.334094 220.84853 C 45.856595 218.0472 41.50972 211.1888 42.1859 209.25686 C 42.475693 208.2909 42.1859 207.51811 41.60632 207.51811 C 40.83354 207.51811 40.54375 204.91 40.640346 199.01756 C 40.83354 188.68166 40.44715 183.36881 39.48118 183.36881 C 38.998194 183.36881 38.708402 182.88583 38.708402 182.40284 C 38.708402 180.6641 44.214443 184.1416 44.794026 186.26673 C 45.08382 187.3293 45.856595 188.00548 46.629373 187.71569 C 50.78305 186.07354 61.31215 204.427 63.147494 216.59825 C 64.113466 223.07026 64.21006 223.26346 64.88624 220.07575 C 65.27263 218.2404 65.36923 213.50714 65.07944 209.64325 C 64.78965 205.87596 64.98284 202.10867 65.46583 201.4325 C 65.94881 200.8529 66.4318 194.0911 66.528396 186.45993 C 66.81819 174.28868 66.62499 172.74312 65.27263 172.74312 C 63.823674 172.74312 63.72708 173.90229 64.01687 181.91986 C 64.30666 186.9429 64.21006 191.0966 63.92027 191.0966 C 63.0509 191.0966 58.993814 186.84631 58.993814 185.88034 C 58.993814 185.39736 58.02784 183.07902 56.96527 180.6641 C 55.80611 178.34576 54.93673 175.44784 54.93673 174.09548 C 54.93673 172.83972 54.55034 171.48736 54.06736 171.19757 C 52.811594 170.4248 53.00479 166.9473 54.26055 166.9473 C 54.93673 166.9473 55.129926 165.88472 54.840135 164.24257 C 54.55034 162.79361 54.840135 160.86167 55.61291 159.8957 C 56.38569 158.83313 56.67548 157.48077 56.48229 156.80458 C 56.192496 156.1284 56.38569 155.25903 56.96527 154.96924 C 57.44826 154.58285 58.22104 151.20195 58.607426 147.33806 C 59.09041 142.5082 59.4768 140.96264 60.05638 142.315 C 60.44277 143.37757 60.82916 143.86056 60.82916 143.37757 C 60.92576 142.89459 62.18152 144.05375 63.823674 145.7925 C 69.23312 151.97473 71.55145 165.01535 69.329715 176.60701 C 68.55694 180.5675 67.97735 183.9484 68.17055 184.1416 C 68.267145 184.2382 69.13652 182.30625 70.005895 179.79472 C 71.93784 174.67507 75.60853 166.7541 76.47791 165.98132 C 76.7677 165.69153 77.83027 164.14597 78.69964 162.50382 C 80.43839 159.7025 80.43839 159.31611 78.79624 156.0318 C 77.926865 154.00327 76.7677 152.45771 76.38131 152.45771 C 74.73916 152.45771 73.3868 139.2239 74.54596 134.58723 C 74.64256 134.00765 74.835755 133.13827 74.93235 132.65529 C 75.22214 130.33695 76.5745 127.34244 77.250685 127.34244 C 77.63707 127.34244 78.02346 126.76286 78.02346 126.08668 C 78.02346 124.54112 84.20568 115.75078 85.36485 115.75078 C 85.75124 115.75078 85.94443 115.36439 85.65464 114.978 C 85.46145 114.59161 85.55804 113.62564 85.94443 112.94946 C 86.71721 111.79029 89.61513 119.22827 91.16068 126.18327 C 91.93346 129.66077 90.19471 138.8375 87.48999 145.59931 C 86.04103 148.98021 85.17166 151.87813 85.36485 152.07132 C 85.55804 152.36111 87.39339 150.62236 89.42193 148.40063 C 91.45047 146.0823 95.60415 141.54223 98.79186 138.16133 C 104.2979 132.3655 105.45707 130.24036 103.33193 130.24036 C 102.75235 130.24036 102.55915 129.37098 102.94554 128.30841 C 103.33193 127.24584 103.13873 126.37647 102.55915 126.37647 C 101.97957 126.37647 101.49658 125.0241 101.49658 123.47855 C 101.49658 121.8364 101.97957 120.58064 102.55915 120.58064 C 103.13873 120.58064 103.42853 119.90445 103.04214 119.13168 C 102.75235 118.3589 103.13873 117.10314 103.91151 116.33036 C 104.68429 115.55758 105.36047 114.30182 105.36047 113.52904 C 105.36047 110.63112 120.04324 98.74967 124.00373 98.45988 C 124.39012 98.36328 124.48672 100.68161 124.10033 103.38633 Z" fill="#f3f3f3"/>
        </g>
        <g id="Graphic_35">
          <path d="M 157.32976 102.03397 C 158.48893 102.71015 159.4549 102.90335 159.4549 102.32376 C 159.4549 101.84078 160.32428 101.45439 161.38685 101.55099 C 164.18816 101.74418 163.80178 102.71015 159.2617 108.2162 C 152.11351 116.62015 145.6415 118.74529 131.7315 117.10314 L 126.70845 116.42696 L 128.6404 112.75626 C 129.70296 110.63112 130.95873 108.98897 131.44171 108.98897 C 132.0213 108.98897 132.40769 108.2162 132.40769 107.25022 C 132.40769 104.93189 138.20352 101.068 139.74907 102.32376 C 140.52185 102.90335 141.00484 102.80675 141.39123 101.93738 C 142.0674 100.19863 154.04546 100.29522 157.32976 102.03397 Z" fill="#f3f3f3"/>
        </g>
        <g id="Graphic_34">
          <path d="M 136.36817 130.14376 C 135.3056 132.0757 128.93019 137.96813 125.1629 140.47966 C 123.32755 141.73542 121.4922 141.92862 117.62831 141.54223 C 111.63929 140.96264 103.42853 137.58174 105.74686 136.71237 C 106.61623 136.32598 107.29241 136.61577 107.29241 137.29195 C 107.29241 138.16133 107.48561 138.16133 108.06519 137.29195 C 108.45158 136.71237 109.99714 135.843 111.4461 135.5532 C 112.89505 135.16681 114.34401 134.39403 114.6338 133.91105 C 115.02019 133.33147 114.4406 133.13827 113.18484 133.52466 C 112.12227 133.81445 110.28693 134.39403 109.22436 134.68383 C 106.71283 135.36 106.80943 134.29744 109.41755 131.9791 C 111.0597 130.62674 111.63929 130.43355 112.31547 131.39952 C 112.89505 132.3655 113.08825 132.3655 113.08825 131.30292 C 113.08825 130.62674 113.66783 130.24036 114.5372 130.62674 C 115.30998 130.91654 115.98616 130.72334 115.98616 130.24036 C 115.98616 129.75737 116.66234 129.56417 117.43512 129.85397 C 118.2079 130.24036 118.88408 129.95056 118.88408 129.46758 C 118.88408 128.7914 122.36158 128.40501 128.06081 128.40501 C 136.65796 128.40501 137.23755 128.5016 136.36817 130.14376 Z" fill="#f3f3f3"/>
        </g>
        <g id="Graphic_33">
          <path d="M 115.98616 149.5598 C 115.98616 151.20195 108.06519 159.31611 104.10471 161.82764 C 102.07617 163.0834 98.30887 164.43576 95.70075 164.72556 C 90.87089 165.30514 80.1486 164.04937 83.6261 163.2766 C 84.68867 163.0834 86.23422 162.31063 87.007 161.73104 C 87.77978 161.05486 90.3879 159.7025 92.80283 158.73653 C 95.21776 157.77056 97.5361 156.61139 98.01908 156.1284 C 99.56464 154.87264 93.47901 156.90118 89.03554 159.12292 C 86.71721 160.28208 84.68867 161.15146 84.49547 160.95826 C 84.30228 160.76507 85.17166 159.21951 86.33082 157.48077 C 88.45596 154.38966 93.76881 150.91216 98.40547 149.5598 C 102.26936 148.40063 115.98616 148.40063 115.98616 149.5598 Z" fill="#f3f3f3"/>
        </g>
        <g id="Graphic_32">
          <path d="M 97.05311 176.31722 C 93.67221 185.30076 89.03554 191 81.98395 194.5741 C 73.57999 198.82437 71.84124 196.69923 78.31325 190.03402 C 82.17714 186.07354 83.04652 184.33479 81.21117 184.33479 C 80.72818 184.33479 80.2452 184.81777 80.2452 185.49395 C 80.2452 186.17013 78.21666 188.48847 75.70513 190.8068 C 71.93784 194.0911 71.35826 195.05708 72.51742 195.82985 C 74.159575 196.98902 73.1936 198.34138 71.26166 197.5686 C 70.19909 197.18221 69.8127 193.8979 70.682075 192.06256 C 70.77867 191.77277 70.97187 191.0966 71.06846 190.6136 C 71.744645 186.84631 72.90381 184.43138 73.77319 184.62458 C 74.35277 184.72118 75.02895 183.8518 75.22214 182.78923 C 75.41534 181.43687 77.250685 179.79472 80.2452 178.15257 C 82.85332 176.7036 85.26825 175.64104 85.65464 175.64104 C 86.04103 175.73764 86.62061 175.35125 86.9104 174.77166 C 87.87638 173.3227 98.01908 169.9418 98.40547 170.90778 C 98.59867 171.39076 98.01908 173.8057 97.05311 176.31722 Z" fill="#f3f3f3"/>
        </g>
        <g id="Graphic_31">
          <path d="M 88.06957 215.2459 C 85.94443 222.29749 81.59756 227.61033 75.511935 230.60485 L 69.7161 233.40616 L 71.64805 229.83207 C 72.71062 227.90012 75.89832 222.58728 78.79624 217.85401 C 84.49547 208.87048 85.26825 206.55214 80.1486 213.99013 C 78.40985 216.59825 76.6711 218.81999 76.38131 219.10978 C 76.09152 219.39957 74.35277 222.2009 72.51742 225.292 C 70.682075 228.4797 69.13652 230.60485 68.943326 230.02526 C 68.653534 229.34908 68.943326 227.99672 69.52291 226.93415 C 70.10249 225.87158 70.58548 224.13283 70.58548 223.07026 C 70.58548 222.0077 71.26166 220.46214 72.13103 219.68936 C 72.90381 218.81999 73.2902 217.75742 73.00041 217.17783 C 72.71062 216.69485 72.90381 216.21186 73.3868 216.21186 C 73.96638 216.21186 74.44937 215.63228 74.44937 214.9561 C 74.44937 214.27992 77.63707 210.70582 81.50096 207.03513 L 88.45596 200.27332 L 88.74575 206.06916 C 88.93895 209.25686 88.64915 213.41054 88.06957 215.2459 Z" fill="#f3f3f3"/>
        </g>
        <g id="Graphic_30">
          <path d="M 66.528396 247.60595 C 66.238604 247.89574 65.65902 247.41276 65.36923 246.4468 C 64.78965 245.09443 64.88624 244.99783 65.852215 245.8672 C 66.528396 246.54338 66.81819 247.31616 66.528396 247.60595 Z" fill="#f3f3f3"/>
        </g>
        <g id="Graphic_29">
          <path d="M 121.4922 303.53573 C 123.13435 306.62684 125.83908 321.5028 124.67991 321.5028 C 124.10033 321.5028 122.55477 318.7015 121.782 316.18996 C 121.5888 315.61038 120.91262 314.6444 120.23644 313.96823 C 119.56026 313.29205 119.17387 312.13288 119.46366 311.3601 C 119.85005 310.58733 119.56026 309.91115 118.88408 309.91115 C 118.3045 309.91115 118.1113 309.42816 118.40109 308.94517 C 118.69088 308.3656 118.49769 307.9792 117.82151 307.9792 C 116.75894 307.9792 117.14533 312.61587 118.59429 316.28656 C 118.88408 317.05934 118.69088 317.63892 118.2079 317.63892 C 117.72491 317.63892 115.98616 315.1274 114.34401 312.0363 C 111.92908 307.5928 111.1563 304.8881 110.67332 298.31948 L 110.09373 290.10872 L 115.02019 295.42157 C 117.72491 298.31948 120.62283 301.99018 121.4922 303.53573 Z" fill="#f3f3f3"/>
        </g>
        <g id="Graphic_28">
          <path d="M 132.79407 307.5928 C 133.66345 307.8826 134.33963 308.84858 134.33963 309.62135 C 134.33963 310.49073 134.91921 310.8771 135.5954 310.58733 C 138.10692 309.62135 145.06192 318.8947 146.12449 324.59392 C 146.41428 326.13948 146.22109 327.29864 145.8347 327.29864 C 145.35171 327.29864 144.96532 326.81566 144.96532 326.33267 C 144.96532 325.7531 144.09595 324.49732 143.03338 323.43475 C 141.9708 322.3722 141.10143 321.7926 141.10143 322.0824 C 141.10143 323.14496 144.48234 328.7476 145.9313 330.00336 C 146.70407 330.67954 145.6415 330.38975 143.51636 329.3272 C 141.39123 328.3612 138.6865 326.42927 137.52734 325.1735 C 135.69199 323.33816 132.79407 317.63892 132.21449 315.0308 C 132.1179 314.5478 131.44171 313.67844 130.76553 313.00226 C 129.31658 311.5533 129.02678 307.01323 130.37914 307.01323 C 130.86213 307.01323 131.9247 307.30302 132.79407 307.5928 Z" fill="#f3f3f3"/>
        </g>
        <g id="Graphic_27">
          <path d="M 156.65358 324.40073 C 157.90935 326.52586 159.16511 328.2646 159.6481 328.2646 C 160.80726 328.2646 163.31879 332.4183 164.28476 336.089 L 165.25073 339.3733 L 163.41539 336.95836 C 162.35282 335.7026 161.67664 334.35024 161.96643 333.96385 C 162.44941 333.09447 159.5515 330.77614 158.77872 331.45232 C 158.48893 331.8387 158.97192 333.28767 159.93789 334.73663 C 161.67664 337.34475 161.67664 337.44135 159.93789 335.9924 C 157.71615 334.15704 154.33525 326.62246 155.10803 325.3667 C 155.39782 324.7871 155.30122 324.40073 154.72164 324.40073 C 154.23865 324.40073 153.85226 323.53135 153.94886 322.4688 C 154.04546 321.4062 154.14206 320.53684 154.23865 320.53684 C 154.43185 320.53684 155.49442 322.2756 156.65358 324.40073 Z" fill="#f3f3f3"/>
        </g>
        <g id="Graphic_26">
          <path d="M 245.523 329.42378 C 245.523 330.38975 245.7162 330.38975 246.1026 329.42378 C 246.58558 328.0714 249.2903 327.78163 249.2903 329.134 C 249.2903 329.61697 250.15967 329.81017 251.22224 329.52038 C 252.2848 329.2306 253.15418 329.52038 253.15418 330.09996 C 253.15418 330.67954 254.21675 331.16253 255.5691 331.16253 C 259.7228 331.16253 258.27384 332.6115 249.3869 337.24815 C 237.79523 343.43037 233.44836 343.33378 223.49884 336.95836 C 220.40773 334.92982 220.79412 334.06045 224.658 334.06045 C 226.49336 334.06045 228.0389 334.44683 228.0389 335.0264 C 228.0389 336.37878 231.7096 336.1856 232.096 334.83322 C 232.2892 334.25364 234.60752 333.38427 237.31224 332.99788 C 240.59655 332.4183 239.1476 332.3217 232.3858 332.6115 L 222.72607 332.99788 L 226.58995 331.06593 C 228.7151 330.00336 231.613 329.3272 233.15856 329.52038 C 234.60752 329.71357 235.7667 329.52038 235.7667 329.0374 C 235.7667 327.68503 245.4264 328.0714 245.523 329.42378 Z" fill="#f3f3f3"/>
        </g>
        <g id="Graphic_25">
          <path d="M 192.49114 338.11753 C 190.6558 342.9474 190.5592 343.23718 189.88302 342.561 C 189.11024 341.8848 192.29795 334.06045 193.26392 334.06045 C 193.7469 334.06045 193.36052 335.8958 192.49114 338.11753 Z" fill="#f3f3f3"/>
        </g>
        <g id="Graphic_24">
          <path d="M 172.68872 340.82225 C 173.84788 342.9474 174.33087 344.68614 173.84788 344.68614 C 173.3649 344.68614 172.10913 342.9474 171.04657 340.82225 C 168.43844 335.7992 169.8874 335.7992 172.68872 340.82225 Z" fill="#f3f3f3"/>
        </g>
        <g id="Graphic_23">
          <path d="M 153.65907 342.078 C 153.65907 342.561 154.14206 342.561 154.62504 342.2712 C 155.20462 341.9814 155.59101 342.3678 155.59101 343.1406 C 155.59101 344.20315 154.72164 344.68614 152.6931 344.68614 C 151.05095 344.68614 149.79518 345.16912 149.79518 345.8453 C 149.79518 346.5215 150.85775 347.10107 152.21011 347.10107 C 153.56247 347.10107 154.62504 346.81128 154.62504 346.3283 C 154.62504 345.9419 156.074 345.6521 157.81275 345.7487 L 160.90386 345.8453 L 158.00594 347.10107 C 154.23865 348.8398 150.85775 348.7432 142.5504 346.71468 L 135.78859 345.07253 L 138.9763 343.43037 C 140.61845 342.4644 142.0674 342.078 142.0674 342.4644 C 142.0674 342.8508 142.5504 342.6576 143.22657 341.9814 C 144.48234 340.72565 153.65907 340.82225 153.65907 342.078 Z" fill="#f3f3f3"/>
        </g>
        <g id="Graphic_22">
          <path d="M 221.5669 342.7542 C 225.81718 344.39635 226.01037 344.97593 222.53287 346.6181 C 218.95878 348.26023 201.76447 349.1296 203.88961 347.58405 C 205.04878 346.71468 204.85559 346.6181 202.73045 347.00447 C 201.1849 347.39086 200.02573 347.19766 200.02573 346.6181 C 200.02573 346.1351 201.66788 345.6521 203.69642 345.6521 C 206.30454 345.6521 206.88413 345.3623 205.82156 344.68614 C 205.04878 344.20315 203.31003 343.72017 202.05427 343.72017 C 198.76996 343.72017 200.7019 341.9814 204.3726 341.59503 C 210.45822 340.91885 217.9928 341.49843 221.5669 342.7542 Z" fill="#f3f3f3"/>
        </g>
        <g id="Graphic_21">
          <path d="M 179.06413 356.6642 C 181.76885 356.2778 180.89948 357.53356 176.939 359.9485 C 174.91045 361.20426 171.04657 365.26134 168.24525 368.93203 C 165.44393 372.60273 162.7392 375.59724 162.25622 375.59724 C 161.86983 375.59724 159.93789 374.92106 158.19914 374.0517 L 154.91483 372.50613 L 157.23317 370.1878 C 158.58553 368.83544 160.13108 367.77287 160.71067 367.57967 C 161.29025 367.48308 162.25622 366.5171 162.8358 365.55113 C 164.09157 363.1362 176.06962 355.02204 176.7458 356.1812 C 177.0356 356.5676 178.09816 356.8574 179.06413 356.6642 Z" fill="#f3f3f3"/>
        </g>
        <g id="Graphic_20">
          <path d="M 219.53836 109.37536 C 220.21454 110.14814 220.98732 110.53453 221.1805 110.43793 C 221.6635 109.85835 220.21454 108.023 219.24857 108.023 C 218.76558 108.023 218.86218 108.60258 219.53836 109.37536 Z" fill="black"/>
        </g>
        <g id="Graphic_19">
          <path d="M 222.24308 110.72772 C 222.24308 111.11411 223.20905 111.5005 224.36822 111.5971 C 225.52739 111.69369 227.16954 112.75626 228.0389 113.81883 C 229.39127 115.65418 229.77766 115.75078 230.74363 114.49501 C 231.7096 113.33585 231.32322 112.85286 228.0389 111.5005 C 223.69204 109.76175 222.24308 109.56855 222.24308 110.72772 Z" fill="black"/>
        </g>
        <g id="Graphic_18">
          <path d="M 253.44398 118.84189 C 254.21675 120.09765 255.37592 122.89897 256.0521 125.1207 C 256.72828 127.43904 257.69425 129.27438 258.08064 129.27438 C 258.46703 129.27438 258.17724 127.34244 257.40446 124.92751 C 256.72828 122.51258 256.3419 120.58064 256.5351 120.58064 C 256.82488 120.58064 256.1487 119.71126 255.08613 118.64869 C 252.5746 116.13716 251.80182 116.23376 253.44398 118.84189 Z" fill="black"/>
        </g>
        <g id="Graphic_17">
          <path d="M 277.68987 143.57077 C 278.07626 146.27549 278.94564 149.94618 279.7184 151.68493 L 281.07078 154.87264 L 280.97418 151.68493 C 280.87758 150.04278 280.4912 148.59382 280.0082 148.59382 C 279.52522 148.59382 279.42862 147.72445 279.7184 146.66188 C 280.1048 145.50271 279.9116 144.72994 279.23543 144.72994 C 278.46265 144.72994 278.26946 143.76396 278.46265 142.315 C 278.75244 140.96264 278.55925 139.61028 277.97966 139.2239 C 277.3035 138.8375 277.2069 140.28646 277.68987 143.57077 Z" fill="black"/>
        </g>
        <g id="Graphic_16">
          <path d="M 296.13994 175.35125 C 295.85015 177.37979 295.17397 180.5675 294.5944 182.59604 C 294.0148 184.81777 294.0148 186.9429 294.69098 188.58506 C 295.94674 191.96597 296.33313 191.77277 295.85015 187.71569 C 295.56036 185.68715 295.85015 184.33479 296.52633 184.33479 C 297.1059 184.33479 297.4923 181.91986 297.4923 178.05597 C 297.3957 174.57847 297.2991 171.77715 297.1059 171.77715 C 296.9127 171.77715 296.42973 173.4193 296.13994 175.35125 Z" fill="black"/>
        </g>
        <g id="Graphic_15">
          <path d="M 301.83917 250.31067 C 298.65147 252.5324 293.04883 258.71463 294.208 258.71463 C 294.5944 258.71463 295.94674 257.84526 297.2991 256.7827 C 298.65147 255.72012 299.42424 254.85074 299.03785 254.85074 C 298.55487 254.85074 299.90723 253.3052 302.03237 251.46984 C 306.28264 247.70255 306.28264 247.21956 301.83917 250.31067 Z" fill="black"/>
        </g>
        <g id="Graphic_14">
          <path d="M 282.61633 251.95283 C 282.32654 252.4358 282.51973 252.9188 283.00272 252.9188 C 283.5823 252.9188 284.0653 252.4358 284.0653 251.95283 C 284.0653 251.37324 283.8721 250.98685 283.6789 250.98685 C 283.3891 250.98685 282.90612 251.37324 282.61633 251.95283 Z" fill="black"/>
        </g>
        <g id="Graphic_13">
          <path d="M 260.97856 314.25802 C 257.01807 315.5138 253.44398 317.15594 253.0576 317.7355 C 251.99502 319.57087 253.15418 320.92323 254.40995 319.28107 C 256.0521 317.34913 265.13224 313.77503 268.51314 313.77503 C 270.0587 313.77503 271.70085 313.29205 271.99064 312.80906 C 272.9566 311.1669 268.60974 311.7465 260.97856 314.25802 Z" fill="black"/>
        </g>
        <g id="Graphic_12">
          <path d="M 107.9686 121.16022 C 105.36047 124.92751 104.68429 126.37647 105.84346 126.37647 C 106.61623 126.37647 107.29241 125.89348 107.29241 125.3139 C 107.29241 124.73431 108.45158 122.80237 109.80394 121.06362 C 111.1563 119.22827 112.12227 117.39293 111.92908 116.81334 C 111.83248 116.33036 109.99714 118.3589 107.9686 121.16022 Z" fill="black"/>
        </g>
        <g id="Graphic_11">
          <path d="M 82.56353 140.67285 C 82.75673 141.05924 82.37034 144.44014 81.59756 148.01424 C 80.3418 154.19646 80.3418 156.5148 81.79075 155.06584 C 82.17714 154.77604 82.46693 153.32709 82.46693 151.97473 C 82.46693 150.62236 82.85332 149.5598 83.33631 149.5598 C 83.81929 149.5598 84.01249 148.30403 83.6261 146.66188 C 83.23971 144.82653 83.33631 143.76396 84.01249 143.76396 C 84.59207 143.76396 85.07506 142.89459 85.07506 141.83202 C 85.07506 140.76945 84.39888 139.90008 83.5295 139.90008 C 82.75673 139.90008 82.27374 140.28646 82.56353 140.67285 Z" fill="black"/>
        </g>
        <g id="Graphic_10">
          <path d="M 63.92027 169.55542 C 63.92027 171.97035 64.01687 172.06694 64.78965 170.3282 C 65.94881 167.72007 65.94881 166.9473 64.78965 166.9473 C 64.30666 166.9473 63.823674 168.10646 63.92027 169.55542 Z" fill="black"/>
        </g>
        <g id="Graphic_9">
          <path d="M 49.52729 206.16575 C 51.749024 210.51263 56.67548 220.26894 58.22104 223.16686 C 59.283606 225.0022 59.959786 225.4852 61.022355 224.809 C 62.18152 224.03624 62.18152 223.84304 60.92576 222.97367 C 60.15298 222.49068 59.959786 222.0077 60.44277 222.0077 C 61.022355 222.0077 60.732564 221.4281 59.86319 220.75193 C 58.993814 220.07575 57.06187 217.17783 55.61291 214.27992 C 54.163954 211.382 52.5218 208.67728 52.038816 208.3875 C 51.55583 208.0977 50.976247 207.03513 50.87965 206.06916 C 50.686455 205.00659 50.10687 204.04062 49.43069 203.84742 C 48.46472 203.55763 48.561317 204.13721 49.52729 206.16575 Z" fill="black"/>
        </g>
        <g id="Graphic_8">
          <path d="M 83.7227 242.8727 C 82.94992 244.90123 82.94992 245.19102 84.01249 245.19102 C 85.17166 245.19102 86.13763 242.4863 85.17166 241.81012 C 84.68867 241.52033 84.01249 242.00331 83.7227 242.8727 Z" fill="black"/>
        </g>
        <g id="Graphic_7">
          <path d="M 81.79075 247.70255 C 80.92138 249.92429 81.11457 250.98685 82.27374 250.98685 C 82.85332 250.98685 83.14311 250.40727 82.85332 249.6345 C 82.56353 248.86172 82.75673 248.08894 83.43291 247.79915 C 84.20568 247.60595 84.20568 247.31616 83.43291 246.83317 C 82.85332 246.4468 82.080545 246.83317 81.79075 247.70255 Z" fill="black"/>
        </g>
        <g id="Graphic_6">
          <path d="M 72.22763 282.57414 C 70.87527 283.8299 71.64805 284.89247 74.44937 285.95504 C 76.09152 286.43803 77.83027 287.7904 78.40985 288.75636 C 78.89284 289.81893 79.76221 290.3985 80.3418 290.10872 C 80.82478 289.72233 81.21117 290.10872 81.21117 290.8815 C 81.21117 291.75087 82.17714 292.23386 83.6261 292.23386 C 87.007 292.23386 86.62061 291.46108 82.17714 288.85296 C 80.052 287.6938 78.31325 286.24483 78.31325 285.76185 C 78.31325 285.18226 77.83027 284.79587 77.15409 284.79587 C 76.5745 284.79587 75.31874 284.1197 74.44937 283.3469 C 73.57999 282.57414 72.51742 282.18775 72.22763 282.57414 Z" fill="black"/>
        </g>
        <g id="Graphic_5">
          <path d="M 135.1124 336.66857 C 135.69199 336.86176 136.85116 336.86176 137.52734 336.66857 C 138.10692 336.37878 137.62393 336.1856 136.27157 336.1856 C 134.91921 336.1856 134.43623 336.37878 135.1124 336.66857 Z" fill="black"/>
        </g>
        <g id="Graphic_4">
          <path d="M 134.43623 111.01751 C 132.1179 112.08008 130.37914 113.14265 130.66894 113.33585 C 130.95873 113.62564 133.47025 112.75626 136.36817 111.4039 C 142.4538 108.60258 140.71504 108.2162 134.43623 111.01751 Z" fill="black"/>
        </g>
      </g>
    </g>
  </g>
</svg>
