<?xml version="1.0" encoding="UTF-8" standalone="no"?>
<!DOCTYPE svg PUBLIC "-//W3C//DTD SVG 1.1//EN" "http://www.w3.org/Graphics/SVG/1.1/DTD/svg11.dtd">
<svg xmlns="http://www.w3.org/2000/svg" xmlns:dc="http://purl.org/dc/elements/1.1/" xmlns:xl="http://www.w3.org/1999/xlink" version="1.1" viewBox="63 61.04193 256.5 307.95807" width="256.5" height="307.95807">
  <defs>
    <clipPath id="artboard_clip_path">
      <path d="M 63 61.04193 L 319.5 61.04193 L 319.5 369 L 63 369 Z"/>
    </clipPath>
  </defs>
  <metadata> Produced by OmniGraffle 7.10 test 
    <dc:date>2019-02-13 06:42:58 +0000</dc:date>
  </metadata>
  <g id="Scorpion_(1)" stroke="none" stroke-dasharray="none" fill="none" stroke-opacity="1" fill-opacity="1">
    <title>Scorpion (1)</title>
    <g id="Scorpion_(1): Layer 2" clip-path="url(#artboard_clip_path)">
      <title>Layer 2</title>
      <g id="Group_3">
        <g id="Graphic_47">
          <path d="M 233.62647 62.668424 L 229.76825 61.97592 L 233.32968 66.22986 C 235.70397 68.900935 237.38576 72.16558 237.97934 75.23237 C 238.5729 77.80452 238.67184 80.97024 238.27612 82.05846 C 237.4847 84.03703 237.4847 84.03703 235.1104 81.56381 C 233.82433 80.17881 232.24147 79.09059 231.45004 79.09059 C 230.6586 79.09059 230.16396 80.27774 230.16396 82.35524 C 230.16396 84.13596 230.85647 88.29097 231.6479 91.45669 C 232.53825 94.72133 234.12111 99.0742 235.1104 101.1517 C 236.19862 103.22921 237.08898 105.40564 237.08898 105.99921 C 237.08898 106.59278 238.27612 109.56065 239.66112 112.52851 C 241.04613 115.49637 244.014 119.65138 246.28935 121.62995 L 250.34543 125.48817 L 247.67435 126.08174 C 246.19042 126.47746 243.22256 128.15925 241.14505 129.93997 C 238.96862 131.62175 235.8029 134.98533 234.12111 137.26069 L 230.9554 141.61356 L 228.48218 136.76605 C 227.09717 134.1939 225.1186 130.83032 224.03038 129.3464 C 223.0411 127.86246 220.6668 125.68603 218.68823 124.49888 C 216.70966 123.31174 212.3568 121.72888 208.99322 121.03638 C 205.72857 120.34388 200.78213 119.7503 198.20998 119.65138 C 194.1539 119.65138 193.26355 119.94816 192.86783 121.62995 C 192.57104 122.71817 191.87854 123.60853 191.28497 123.60853 C 190.6914 123.60853 189.20747 122.42138 188.02032 120.93745 L 185.94282 118.3653 L 181.19424 120.64066 C 178.22638 122.02567 174.8628 122.91602 172.68637 122.71817 C 170.50994 122.61924 166.84957 123.5096 163.78278 124.8946 C 160.81492 126.2796 157.05563 128.65389 155.47277 130.33568 C 153.79098 132.01747 151.31776 135.5789 150.03169 138.3489 C 148.64669 141.11891 147.26168 143.29534 146.86597 143.39427 C 146.47025 143.39427 145.97561 142.60284 145.5799 141.51463 C 145.28311 140.52534 142.5131 138.05212 139.54524 135.97462 C 136.47845 133.99604 132.5213 132.1164 130.64166 131.81961 C 128.76201 131.52283 127.27808 130.92925 127.27808 130.43461 C 127.27808 130.0389 128.16844 129.0496 129.25665 128.25818 C 130.34487 127.56568 132.12559 124.79567 133.2138 122.32245 C 134.40095 119.7503 135.5881 115.29851 135.88488 112.42958 C 136.2806 109.46172 137.86345 104.61421 139.84203 100.85492 C 142.61203 95.71062 143.10668 93.83098 142.61203 91.06097 C 142.21632 89.0824 141.52382 86.70811 140.93024 85.61989 C 140.03989 83.9381 139.7431 84.23489 138.16024 87.69739 C 137.17095 89.97276 135.78595 92.05026 135.09345 92.44597 C 134.20309 93.03955 134.00523 92.14919 134.49988 88.48882 C 134.89559 85.81775 136.47845 81.46488 138.06131 78.69488 C 139.54524 75.924875 142.01846 73.05594 143.5024 72.36344 C 144.8874 71.67094 146.07454 70.68165 146.07454 70.08808 C 146.07454 69.59344 145.38204 69.19772 144.49168 69.19772 C 143.60132 69.19772 140.33667 70.68165 137.26988 72.5613 C 134.20309 74.44094 129.94915 77.70559 127.6738 79.7831 C 125.49736 81.8606 122.23271 85.81775 120.55092 88.68668 C 118.86914 91.45669 116.39592 97.09562 115.01092 101.05277 C 113.72484 105.00992 112.04305 110.64886 111.44948 113.61672 C 110.75698 116.48566 110.4602 121.23424 110.75698 124.10317 C 111.05377 126.9721 112.04305 130.7314 112.93341 132.41318 C 113.82377 134.1939 115.50556 135.97462 116.6927 136.46926 C 117.87985 136.9639 120.35307 138.84355 122.13378 140.7232 C 123.9145 142.50391 128.16844 145.47178 131.63094 147.15357 C 135.5881 149.13214 140.23774 150.61607 143.99704 150.91286 C 149.43812 151.50643 150.4274 151.30857 154.1867 148.83535 C 156.56098 147.35142 160.12242 144.38356 162.29885 142.20713 C 164.37636 140.12963 166.256 138.44784 166.35493 138.6457 C 166.55279 138.84355 166.15707 141.4157 165.5635 144.48249 L 164.57421 150.12143 L 158.73742 151.70429 C 155.5717 152.59465 151.21883 154.37536 149.0424 155.76037 C 146.9649 157.04644 144.98632 158.6293 144.5906 159.12394 C 144.29382 159.71752 142.80989 159.42073 140.83132 158.23358 C 138.65488 156.84858 135.88488 156.255 132.22452 156.255 C 129.15772 156.255 126.18986 156.74965 125.49736 157.44215 C 124.80486 158.13466 124.31022 159.02501 124.31022 159.51966 C 124.31022 160.0143 125.79415 160.21216 127.57486 159.81644 C 129.85023 159.42073 132.22452 159.91537 135.9838 161.69609 C 138.95167 163.0811 141.91953 164.1693 142.71096 164.1693 C 143.5024 164.1693 144.09596 163.7736 144.09596 163.18002 C 144.09596 162.68538 145.28311 162.48752 146.86597 162.58645 C 148.3499 162.7843 151.31776 162.3886 153.39527 161.69609 C 155.47277 161.00359 158.93527 159.02501 161.01278 157.2443 C 163.09028 155.5625 164.871 154.57322 164.871 155.1668 C 164.871 155.66144 164.47528 157.2443 163.98064 158.53037 C 163.38707 160.0143 161.70528 161.3993 159.7267 162.0918 C 157.94599 162.68538 154.38455 165.05967 151.91133 167.43396 C 149.43812 169.70932 146.17347 173.4686 144.78847 175.74397 C 143.30453 178.11826 142.11739 180.59148 142.11739 181.48184 C 142.11739 182.27327 142.01846 182.96577 141.91953 182.96577 C 141.72167 182.96577 138.95167 181.58077 135.78595 179.9979 C 131.92773 178.01933 128.46522 177.03004 125.69522 177.03004 C 121.54021 177.03004 121.34235 176.93112 121.34235 173.96325 C 121.34235 172.28146 120.55092 169.61039 119.66057 168.02753 C 118.67128 166.44467 117.3852 165.1586 116.6927 165.1586 C 116.0002 165.1586 115.20877 166.74146 114.81306 168.6211 C 114.41734 170.6986 114.71413 173.36968 115.40663 175.1504 C 116.09913 176.73326 118.47342 179.6022 120.74878 181.3829 C 123.02414 183.26255 126.18986 185.43899 127.97058 186.32935 C 129.7513 187.2197 132.81809 187.9122 134.79666 187.9122 C 137.17095 187.9122 141.1281 186.5272 145.48097 184.35077 C 149.33919 182.3722 154.56024 179.25038 156.75884 176.73326 C 158.95745 174.21613 163.3976 167.62263 163.3976 167.62263 L 160.91385 176.23861 C 160.91385 178.21719 160.22135 180.59148 159.33099 181.3829 C 158.53956 182.27327 157.25349 182.96577 156.56098 182.96577 C 155.86848 182.96577 154.48348 183.85613 153.4942 184.94434 C 152.5049 186.03256 151.31776 186.92292 150.72419 186.92292 C 150.22955 186.92292 147.75633 188.70363 145.28311 190.979 C 142.71096 193.15543 138.06131 198.2008 134.99452 202.05901 C 131.8288 206.01616 129.25665 209.67653 129.25665 210.2701 C 129.25665 210.86367 128.3663 212.14975 127.27808 213.13903 C 125.39843 214.82082 125.10165 214.82082 117.3852 211.35832 C 113.03234 209.37974 106.79983 207.30224 103.43625 206.70866 C 100.07268 206.1151 95.71981 205.71938 93.74124 205.8183 C 91.76266 206.01616 89.19052 205.52152 87.90444 204.82902 C 86.12372 203.83973 84.93658 203.93866 81.375145 205.62045 C 78.70407 206.8076 75.83514 209.08295 73.95549 211.6551 C 72.37263 213.93046 70.29513 217.98654 69.40477 220.65762 C 68.51441 223.3287 68.019765 226.19763 68.31655 226.98906 C 68.61334 227.78049 69.30584 228.473 69.89941 228.473 C 70.49298 228.473 71.77906 226.59334 72.768345 224.21905 C 73.75763 221.84476 76.03299 218.77797 77.81371 217.29404 C 79.4955 215.8101 81.47407 214.62296 82.16657 214.62296 C 82.76015 214.62296 84.73872 213.3369 86.42051 211.85296 L 89.4873 208.98403 L 93.24659 211.6551 C 95.42303 213.0401 99.57803 215.21654 102.5459 216.40368 C 106.20626 217.78868 110.4602 218.58011 115.40663 218.67904 C 121.24343 218.8769 124.50807 218.38226 130.74058 216.20582 C 135.19238 214.62296 141.02917 211.6551 144.09596 209.37974 C 147.06383 207.10438 151.51562 203.54295 153.79098 201.36651 L 158.14384 197.40936 L 155.86848 202.25687 C 154.68134 205.02688 152.40598 209.97331 150.82312 213.43582 C 149.33919 216.7994 147.36061 222.3394 146.56918 225.8019 C 145.77775 229.1655 145.08525 234.4087 145.08525 237.4755 C 145.08525 242.71873 144.8874 243.11444 142.11739 244.30158 C 140.53453 244.9941 136.9731 247.7641 134.30202 250.63302 C 131.53201 253.40303 128.26737 256.96446 126.88236 258.64625 C 125.49736 260.2291 123.9145 262.70233 123.32093 264.18626 C 122.33164 266.56055 121.73807 266.7584 118.47342 266.3627 C 116.39592 266.0659 113.32913 266.46162 111.25162 267.35198 C 109.37198 268.1434 106.50304 270.41877 105.01911 272.39735 C 103.53518 274.37592 102.5459 276.25557 102.84268 276.65128 C 103.2384 276.94807 105.3159 276.0577 107.49233 274.57378 C 109.66876 273.18878 112.83448 272.00163 114.6152 272.00163 C 116.29699 272.00163 119.36378 271.507 121.24343 270.8145 C 123.222 270.122 126.6845 268.34127 128.95987 266.7584 C 131.33416 265.27448 135.78595 261.6141 139.0506 258.54732 C 143.2056 254.78803 145.48097 251.72124 146.66811 248.4566 C 147.55847 245.88444 150.03169 240.04765 152.20812 235.398 C 154.38455 230.74835 156.9567 225.30727 157.94599 223.22976 L 159.7267 219.47047 L 160.22135 223.7244 C 160.51813 226.0987 161.21064 231.53978 161.70528 235.89264 C 162.29885 240.2455 163.38707 245.78552 164.27743 248.25873 C 165.16778 250.73195 165.86029 254.78803 165.86029 257.26125 C 165.86029 260.13018 166.75064 263.5927 168.3335 266.65948 C 169.7185 269.33056 171.69708 274.77164 172.7853 278.7288 C 173.87351 282.78486 175.45637 287.23666 176.2478 288.7206 C 177.2371 290.69916 177.33602 292.47988 176.74245 295.3488 C 176.2478 297.4263 175.75316 301.58132 175.75316 304.5492 C 175.75316 307.51705 176.44566 312.8592 177.33602 316.42063 C 178.22638 319.98207 180.20495 325.621 181.88674 328.88565 C 183.4696 332.1503 185.34925 335.2171 186.04175 335.81067 C 186.73425 336.3053 188.02032 338.77853 189.0096 341.25175 C 189.89997 343.72497 191.87854 347.48426 193.26355 349.56176 C 194.64855 351.63926 196.9239 354.40927 198.40784 355.69534 C 199.79284 356.9814 203.84892 359.45463 207.41036 361.23535 C 212.85144 363.90643 214.92894 364.40107 221.06252 364.5 C 226.60253 364.5 228.5811 364.1043 229.47146 362.91714 C 230.16396 362.0268 232.93397 361.0375 235.60505 360.7407 C 238.37505 360.345 244.014 358.86106 248.169 357.47606 C 253.51115 355.69534 258.25973 353.1232 263.79974 349.0671 C 268.1526 345.80247 273.39582 340.85603 275.57226 337.9871 C 277.64976 335.2171 281.50798 330.86423 284.08013 328.391 C 286.65227 325.9178 290.80728 320.7735 293.47836 317.0142 C 296.0505 313.156 299.41408 307.61598 300.898 304.6481 C 302.9755 300.59204 303.76695 297.3274 304.16266 291.78738 C 304.45945 286.93987 305.25088 283.47736 306.3391 281.8945 C 307.32838 280.5095 309.60374 276.55235 311.38446 272.99092 C 314.6491 266.7584 314.74803 266.16484 314.6491 255.3816 C 314.6491 246.7748 314.2534 243.90587 313.16518 243.3123 C 312.07696 242.6198 312.07696 242.12515 313.06625 241.13587 C 313.65982 240.5423 314.2534 238.66265 314.2534 237.0798 C 314.2534 234.80443 313.5609 234.013 310.7909 232.82585 C 308.8123 232.03442 306.14123 231.6387 304.55837 232.03442 C 303.07444 232.3312 298.128 233.7162 293.47836 235.1012 C 288.8287 236.58514 283.88227 238.56372 282.39834 239.553 C 280.9144 240.64122 275.57226 246.47802 270.62582 252.51267 C 265.58045 258.64625 261.12866 264.58198 260.5351 265.86805 C 259.9415 267.0552 259.249 268.04448 258.8533 268.04448 C 258.45758 268.04448 257.56722 267.35198 256.7758 266.46162 C 256.0833 265.6702 254.30258 264.2852 252.71972 263.49376 C 251.13686 262.70233 249.05935 262.2077 248.169 262.50447 C 246.88292 262.9002 245.59685 261.41626 242.92577 256.3709 C 240.05684 250.83088 238.5729 249.24802 234.22004 246.7748 L 229.07575 243.80694 L 228.68003 232.43014 C 228.38325 224.31798 227.69075 219.37154 226.30574 215.4144 C 225.21753 212.24867 223.14002 207.30224 221.75502 204.53223 C 220.2711 201.6633 217.60002 197.70615 215.72037 195.8265 C 213.84072 193.84793 212.3568 191.77043 212.3568 191.07792 C 212.3568 190.38542 212.7525 189.89078 213.14822 189.89078 C 213.54394 189.89078 214.63215 191.07792 215.5225 192.56186 C 216.41287 194.14472 219.47966 197.904 222.24967 201.06973 C 225.1186 204.23545 230.06504 208.5883 233.23076 210.66581 C 238.47398 214.32618 239.46327 214.62296 245.69578 214.62296 C 249.35614 214.62296 255.29186 213.93046 258.75437 213.13903 C 262.6126 212.14975 266.66867 210.36903 269.1419 208.48938 C 271.31832 206.70866 274.18725 204.23545 275.27547 202.85044 L 277.35297 200.37723 L 278.1444 202.65259 C 278.54012 203.83973 280.2219 205.52152 281.9037 206.21402 C 283.6844 206.90652 287.14692 207.79688 289.62014 208.09367 C 292.2912 208.48938 294.9623 209.5776 295.95157 210.66581 C 296.94086 211.75403 298.62265 212.6444 299.61194 212.6444 C 301.39266 212.6444 301.39266 212.54546 299.8098 209.37974 C 298.91944 207.69795 297.23765 205.32366 296.0505 204.13652 C 294.86336 202.94937 292.48907 201.26758 290.60942 200.2783 C 288.72978 199.38794 284.77263 198.29972 281.80477 197.80508 C 278.34226 197.40936 274.48404 197.60722 270.62582 198.49758 C 267.36117 199.19008 261.2276 201.56437 256.7758 203.7408 C 252.42293 205.8183 247.27864 208.5883 245.30006 209.77546 C 243.0247 211.16046 241.54077 211.6551 241.3429 210.9626 C 241.14505 210.36903 238.27612 205.71938 235.01147 200.67401 C 231.74682 195.52972 227.59182 189.49506 225.61324 187.2197 C 223.7336 184.84541 220.46895 181.97648 218.29252 180.78934 C 215.72037 179.20648 214.33537 177.62362 213.93965 175.64504 C 213.64287 174.16111 213.34608 170.79753 213.445 168.22539 C 213.445 165.75217 213.7418 164.36717 214.03858 165.1586 C 214.33537 165.95003 217.00644 169.61039 219.9743 173.27075 C 223.14002 177.2279 226.5036 180.2947 228.38325 180.88826 C 230.46075 181.58077 231.84575 181.6797 232.63718 180.9872 C 233.32968 180.39362 235.20933 180.2947 236.7922 180.59148 C 238.77077 180.9872 241.44184 180.49255 244.60756 179.10755 C 247.1797 177.9204 250.44436 175.64504 251.73043 174.06218 C 253.11543 172.3804 255.094 171.09432 256.18222 171.09432 C 257.27044 171.09432 259.64473 169.51146 261.42545 167.53289 C 263.3051 165.65324 264.78902 163.57574 264.78902 163.0811 C 264.78902 162.48752 263.79974 162.28966 262.6126 162.68538 C 261.32652 162.98216 259.05116 163.7736 257.56722 164.36717 C 256.0833 164.96074 254.20365 166.64253 253.41222 168.12646 C 252.12614 170.59968 251.73043 170.6986 246.28935 170.30289 C 241.54077 170.0061 239.76005 170.40182 235.60505 172.57825 C 232.83504 174.06218 230.55968 174.75468 230.36182 174.16111 C 230.16396 173.66647 228.1854 170.89646 225.91003 168.12646 C 223.7336 165.35645 219.9743 161.99288 217.60002 160.60787 C 215.22573 159.22287 212.85144 156.94751 212.25786 155.66144 C 211.76322 154.27643 211.3675 152.00107 211.3675 150.51714 L 211.46643 147.84607 L 213.93965 150.81393 C 215.32465 152.39679 217.60002 154.96894 218.98502 156.45287 C 220.37002 157.9368 223.4368 159.91537 225.71217 160.80573 C 228.68003 161.89395 230.46075 162.0918 231.74682 161.3993 C 232.83504 160.90466 238.1772 160.50894 243.61827 160.60787 L 253.709 160.7068 L 251.73043 157.9368 C 249.9497 155.5625 249.2572 155.26572 243.7172 155.26572 C 240.15577 155.26572 236.39648 155.95822 234.7147 156.74965 C 231.94468 158.23358 231.6479 158.23358 229.76825 155.76037 C 228.5811 154.4743 225.31646 151.50643 222.3486 149.33 C 219.38073 147.15357 216.31394 145.37285 215.62144 145.37285 C 214.92894 145.37285 213.84072 144.1857 213.34608 142.8007 C 212.7525 141.4157 212.3568 139.83284 212.3568 139.23927 C 212.3568 138.6457 213.34608 139.04141 214.63215 140.12963 C 215.8193 141.21784 218.1936 142.8007 219.77645 143.59213 C 221.45824 144.38356 224.8218 145.5707 227.39396 146.2632 C 230.75754 147.05464 233.4286 147.05464 236.69326 146.36214 C 239.16648 145.76856 242.43113 144.68035 243.91506 143.88892 C 245.399 143.19642 248.96042 140.42641 251.73043 137.9532 C 254.59936 135.38105 257.4683 132.31425 258.06187 131.22604 C 258.65544 130.0389 259.249 123.31174 259.34794 115.79316 C 259.44687 108.3735 259.05116 99.17313 258.5565 95.41384 C 258.06187 91.55562 256.57794 85.91668 255.3908 82.84989 C 254.10472 79.68417 251.43364 75.133445 249.35614 72.66023 C 247.37757 70.08808 243.81613 67.02129 241.6397 65.735215 C 239.36434 64.44914 235.8029 63.06414 233.62647 62.668424 Z M 212.25786 215.61225 C 212.7525 216.99725 213.64287 220.5587 214.33537 223.52655 C 215.02787 226.4944 217.10537 231.83656 219.08395 235.398 C 220.9636 238.95943 224.4261 244.6973 226.70146 248.25873 C 228.97682 251.82017 232.3404 256.27196 234.22004 258.25054 C 236.0997 260.2291 239.76005 263.49376 242.3322 265.47233 C 246.0915 268.24234 248.07007 269.03377 251.43364 269.03377 C 253.709 269.03377 256.0833 269.62734 256.67687 270.31984 C 257.4683 271.2102 257.36937 273.08985 256.18222 276.84914 C 254.79722 281.69665 254.79722 282.38915 256.479 286.6431 C 257.36937 289.21523 259.5458 293.07345 261.2276 295.2499 C 262.90938 297.4263 264.3933 299.4049 264.49224 299.60275 C 264.6901 299.8006 265.0858 299.8006 265.3826 299.50382 C 265.67938 299.20703 264.98688 297.12953 263.89866 294.85417 C 262.71152 292.67774 261.82116 289.21523 261.82116 287.23666 C 261.82116 284.36772 262.6126 282.8838 265.58045 280.01486 C 267.55903 278.0363 271.12046 274.87056 273.49475 273.08985 C 275.86904 271.2102 278.4412 268.4402 279.23262 266.95627 C 280.02405 265.3734 280.61762 262.70233 280.61762 260.9216 C 280.61762 259.1409 279.92512 256.3709 279.1337 254.78803 C 278.34226 253.3041 277.64976 251.82017 277.64976 251.6223 C 277.64976 251.42445 280.02405 251.42445 282.89298 251.82017 C 286.7512 252.21588 290.01585 251.72124 296.0505 250.03945 L 304.06373 247.66516 L 301.29373 254.78803 C 299.8098 258.74518 298.128 264.9777 297.63336 268.73698 C 297.13872 272.39735 296.84193 277.54164 296.94086 280.01486 C 297.23765 284.2688 297.0398 284.76344 293.5773 287.3356 C 291.5987 288.91845 287.34477 293.46917 284.08013 297.52525 C 280.9144 301.58132 277.4519 306.23097 276.4626 307.91276 C 275.47333 309.69348 273.9894 312.5624 273.19797 314.34313 C 272.3076 316.02492 271.41725 320.17993 271.12046 323.34565 L 270.42796 329.0835 L 264.88795 329.6771 C 261.82116 329.97387 256.0833 331.55673 252.02722 333.2385 C 247.97114 334.9203 242.23327 338.18496 239.2654 340.55925 C 236.29755 342.8346 232.83504 345.5057 231.54897 346.49497 C 229.17468 348.2757 229.17468 348.2757 225.21753 344.9121 C 222.94217 343.03246 218.5893 340.16353 215.5225 338.58067 C 212.45572 336.8989 207.11357 335.01924 203.75 334.32674 C 200.38642 333.63423 196.62712 333.33745 195.43998 333.63423 C 193.65926 334.12888 193.4614 333.8321 193.85712 331.55673 C 194.1539 330.0728 195.1432 325.81886 195.93462 322.1585 C 196.82498 318.3992 197.71534 312.4635 197.9132 308.90205 C 198.11105 305.14276 197.71534 300.19632 196.9239 297.0306 C 195.63784 292.1831 195.73676 291.09488 197.12177 287.0388 C 198.01213 284.46665 199.49606 278.7288 200.48534 274.277 C 201.47463 269.8252 203.15642 264.9777 204.24464 263.5927 C 205.43178 262.2077 206.81678 258.4484 207.50928 255.3816 C 208.10286 252.3148 209.09214 248.8523 209.68572 247.7641 C 210.2793 246.67587 210.87286 241.13587 210.9718 235.398 C 211.07072 229.66013 211.16965 222.3394 211.26858 219.07476 C 211.46643 214.52404 211.6643 213.7326 212.25786 215.61225 Z M 165.5635 164.8618 C 165.76136 165.55431 165.76136 166.74146 165.5635 167.33503 C 165.26671 168.02753 165.06886 167.53289 165.06886 166.14788 C 165.06886 164.76288 165.26671 164.26824 165.5635 164.8618 Z" fill="black"/>
        </g>
        <g id="Graphic_46">
          <path d="M 237.8804 65.93307 C 238.77077 66.32879 240.55148 67.21915 241.73863 68.01058 C 242.92577 68.70308 245.59685 71.37415 247.57542 73.84737 C 249.85078 76.61738 252.324 81.36596 254.0058 86.41132 C 255.48972 90.76419 256.7758 96.20527 256.87472 98.3817 C 257.07258 100.55813 257.07258 106.79064 256.97365 112.23172 C 256.87472 117.6728 256.479 122.71817 255.98437 123.5096 C 255.48972 124.30103 254.4015 124.59781 253.11543 124.2021 C 252.02722 123.80638 249.65293 122.02567 247.77328 120.24495 C 245.89363 118.3653 243.3215 115.00173 242.13434 112.72637 C 240.9472 110.451 239.66112 106.09814 239.2654 103.03135 C 238.77077 99.7667 238.96862 94.42455 239.5622 90.36847 C 240.15577 86.51025 240.55148 80.87131 240.45255 77.80452 C 240.35362 74.24309 239.5622 70.97844 238.27612 68.80201 C 236.4954 65.83414 236.4954 65.43843 237.8804 65.93307 Z" fill="#f3f3f3"/>
        </g>
        <g id="Graphic_45">
          <path d="M 136.77524 75.133445 C 136.87417 75.133445 135.78595 78.10131 134.49988 81.76167 C 132.42237 87.49954 132.12559 89.37918 132.81809 94.42455 C 133.2138 97.6892 133.60952 104.11956 133.60952 108.76922 C 133.70845 115.89208 133.31273 117.96959 131.23523 122.1246 C 129.25665 125.88389 127.57486 127.56568 124.31022 129.24746 C 121.93593 130.53354 119.56164 131.91854 118.96806 132.51211 C 118.47342 133.00676 117.48413 133.5014 116.79163 133.5014 C 116.09913 133.5014 114.81306 131.32497 113.9227 128.65389 C 112.83448 125.29031 112.5377 122.1246 112.93341 118.46423 C 113.2302 115.5953 114.21949 110.54993 115.01092 107.28528 C 115.90127 104.02064 117.78092 98.97527 119.26485 95.90848 C 120.74878 92.94062 123.12307 88.68668 124.50807 86.51025 C 125.89308 84.33382 128.3663 81.36596 129.85023 79.98095 C 131.43309 78.49702 133.60952 76.91416 134.69773 76.32059 C 135.78595 75.72702 136.77524 75.133445 136.77524 75.133445 Z" fill="#f3f3f3"/>
        </g>
        <g id="Graphic_44">
          <path d="M 235.20933 84.92739 C 236.99005 86.80704 237.1879 87.79632 236.4954 92.24812 L 235.8029 97.39241 L 234.51683 93.9299 C 233.82433 92.05026 233.23076 88.68668 233.23076 86.60918 L 233.13183 82.65203 L 235.20933 84.92739 Z" fill="#f3f3f3"/>
        </g>
        <g id="Graphic_43">
          <path d="M 140.4356 90.66526 C 140.93024 90.96204 141.02917 92.5449 140.73239 94.22669 C 140.33667 95.90848 139.44631 98.28277 138.65488 99.56884 C 137.76452 100.85492 136.77524 101.8442 136.2806 101.8442 C 135.78595 101.8442 135.19238 100.65706 134.89559 99.17313 C 134.5988 97.29348 135.09345 95.61169 136.9731 93.33633 C 138.3581 91.55562 139.94096 90.36847 140.4356 90.66526 Z" fill="#f3f3f3"/>
        </g>
        <g id="Graphic_42">
          <path d="M 186.9321 123.21281 C 187.9214 124.49888 189.80104 125.5871 190.98819 125.5871 C 192.37319 125.5871 193.65926 124.69674 194.25283 123.31174 C 195.24212 121.13531 195.73676 121.03638 200.38642 121.62995 C 203.15642 121.92674 205.72857 122.52031 206.12428 122.91602 C 206.42107 123.31174 206.81678 134.1939 206.81678 147.15357 C 206.9157 164.76288 207.31143 171.29218 208.30071 173.56754 C 209.19107 175.54611 209.78465 181.18505 209.88357 190.38542 C 210.08143 198.00294 209.78465 209.5776 209.19107 216.1069 C 208.69643 222.6362 208.39964 228.8687 208.49857 229.95692 C 208.69643 231.04513 208.69643 234.60657 208.69643 237.97015 C 208.69643 241.2348 208.10286 245.58766 207.50928 247.56623 C 206.81678 249.5448 205.8275 251.2266 205.23392 251.2266 C 204.64035 251.2266 204.54142 251.9191 204.8382 252.80946 C 205.135 253.6998 204.93714 256.17303 204.24464 258.34947 C 203.55213 260.62483 201.57356 263.9884 199.79284 265.86805 C 197.51748 268.24234 196.82498 269.62734 197.6164 270.122 C 198.40784 270.61663 198.6057 272.1995 198.11105 275.06842 C 197.71534 277.4427 196.72605 281.4988 195.93462 284.07094 C 195.04426 286.742 193.4614 289.51202 192.27426 290.30345 C 191.08711 291.09488 188.3171 291.78738 186.14068 291.78738 C 183.86532 291.78738 181.29317 291.1938 180.4028 290.5013 C 179.51245 289.90773 177.43495 285.357 175.75316 280.5095 C 174.1703 275.56307 172.7853 271.507 172.7853 271.30913 C 172.7853 271.11127 173.4778 271.01234 174.26923 271.01234 C 175.06066 271.01234 175.75316 270.61663 175.75316 270.02306 C 175.75316 269.5284 174.66494 268.8359 173.37887 268.4402 C 171.69708 268.04448 170.411 266.56055 169.42172 263.9884 C 168.53136 261.81197 167.83886 259.04197 167.83886 257.7559 C 167.83886 256.3709 168.13565 254.6891 168.43243 253.79874 C 168.82815 252.71053 169.7185 252.41374 171.30137 252.80946 C 172.58744 253.10624 173.87351 252.9084 174.1703 252.3148 C 174.56601 251.6223 173.97244 251.12767 172.58744 251.02874 C 171.30137 251.02874 169.91636 250.83088 169.3228 250.83088 C 168.82815 250.73195 167.73993 250.33624 167.04743 249.8416 C 166.256 249.44588 165.95921 248.1598 166.15707 247.0716 C 166.45386 246.0823 166.05814 243.51015 165.16778 241.53158 C 164.27743 239.45408 163.88171 236.3873 164.1785 234.30978 C 164.47528 232.23228 164.1785 230.15478 163.58493 229.5612 C 162.89242 228.8687 162.4967 222.83405 162.39778 213.13903 C 162.39778 204.7301 162.69457 197.80508 162.99135 197.80508 C 163.38707 197.80508 163.98064 196.91472 164.37636 195.92543 C 164.96993 194.14472 165.66243 194.04579 173.57673 194.54043 C 178.3253 194.83722 182.7771 195.52972 183.4696 196.1233 C 184.1621 196.61793 184.95353 196.8158 185.34925 196.519 C 185.64603 196.1233 185.34925 195.23293 184.65675 194.34257 C 183.76639 193.25436 181.3921 192.85864 175.35744 192.85864 C 171.00458 192.85864 166.84957 192.46293 166.15707 192.06721 C 165.5635 191.6715 164.47528 190.08864 163.88171 188.50578 C 163.09028 186.42827 163.09028 184.15291 163.88171 180.2947 C 164.57421 177.32683 166.35493 171.09432 167.93779 166.34574 C 169.52065 161.59716 171.59815 154.87 172.38958 151.30857 C 173.27994 147.74714 174.07137 140.52534 174.1703 135.08426 L 174.36816 125.38924 L 179.80924 123.01495 L 185.1514 120.73959 L 186.9321 123.21281 Z" fill="#f3f3f3"/>
        </g>
        <g id="Graphic_41">
          <path d="M 209.38893 122.61924 C 209.9825 122.61924 212.06 123.31174 214.03858 124.10317 C 216.11608 124.99353 218.5893 126.37853 219.67752 127.36782 C 220.6668 128.25818 222.94217 131.22604 224.72288 133.99604 C 226.5036 136.66712 228.1854 140.22855 228.5811 141.81141 C 229.2736 144.58142 229.2736 144.58142 225.51431 143.88892 C 223.4368 143.4932 221.06252 142.70177 220.2711 142.1082 C 219.47966 141.51463 217.30323 139.63498 215.42358 138.05212 C 213.64287 136.37033 211.26858 133.10568 210.2793 130.7314 C 209.29 128.3571 208.39964 125.5871 208.39964 124.49888 C 208.39964 123.5096 208.89429 122.61924 209.38893 122.61924 Z" fill="#f3f3f3"/>
        </g>
        <g id="Graphic_40">
          <path d="M 170.60887 124.59781 C 171.20244 124.59781 171.79601 125.19139 171.79601 125.98282 C 171.79601 126.77425 169.81744 129.93997 167.44315 133.10568 C 165.06886 136.37033 161.60635 140.32748 159.82563 142.00927 C 157.94599 143.69106 155.17598 145.96642 153.59312 147.15357 C 151.51562 148.73643 149.33919 149.33 145.38204 149.33 C 141.32596 149.33 138.45703 148.53857 132.91702 145.76856 C 129.0588 143.78999 124.31022 140.82213 122.62843 139.14034 C 120.84771 137.45855 119.36378 135.77676 119.36378 135.28212 C 119.36378 134.8864 121.04557 134.09497 123.12307 133.40247 C 125.89308 132.61104 127.87165 132.61104 130.74058 133.40247 C 132.91702 133.99604 136.47845 135.77676 138.65488 137.26069 C 141.02917 138.84355 143.40346 141.71248 144.49168 144.1857 C 145.5799 146.46106 146.86597 148.24178 147.36061 148.04392 C 147.95418 147.84607 149.24026 145.37285 150.32847 142.50391 C 151.51562 139.53605 154.38455 134.98533 156.85777 132.31425 C 159.52885 129.44532 163.09028 126.87317 165.36564 126.08174 C 167.54207 125.29031 169.91636 124.69674 170.60887 124.59781 Z" fill="#f3f3f3"/>
        </g>
        <g id="Graphic_39">
          <path d="M 256.67687 126.67532 C 257.27044 126.67532 257.864 126.87317 257.864 127.26889 C 257.864 127.6646 256.67687 129.64318 255.29186 131.72068 C 253.90686 133.69926 250.44436 137.16176 247.57542 139.3382 C 244.7065 141.51463 240.55148 143.69106 238.07826 144.28463 C 235.70397 144.77928 233.52754 145.07606 233.32968 144.8782 C 233.13183 144.68035 233.23076 143.69106 233.52754 142.60284 C 233.92326 141.51463 235.60505 138.84355 237.38576 136.66712 C 239.16648 134.39176 241.83756 131.62175 243.42042 130.33568 C 245.1022 129.14854 248.36685 127.86246 250.84007 127.46675 C 253.41222 127.16996 255.98437 126.77425 256.67687 126.67532 Z" fill="#f3f3f3"/>
        </g>
        <g id="Graphic_38">
          <path d="M 172.48851 133.20461 C 172.68637 133.79819 171.89494 136.66712 170.60887 139.63498 C 169.3228 142.70177 168.23458 144.1857 168.03672 143.19642 C 167.83886 142.30606 168.72922 139.43712 169.91636 136.76605 C 171.1035 134.1939 172.29065 132.51211 172.48851 133.20461 Z" fill="#f3f3f3"/>
        </g>
        <g id="Graphic_37">
          <path d="M 171.49922 144.68035 C 171.69708 144.97713 171.30137 147.84607 170.411 151.11071 C 169.61958 154.37536 168.23458 158.53037 167.44315 160.31109 C 166.15707 163.37788 166.05814 163.4768 165.95921 161.20145 C 165.95921 159.81644 166.45386 156.45287 167.24529 153.78179 C 167.93779 151.01179 169.12493 147.74714 169.7185 146.46106 C 170.411 145.27392 171.20244 144.48249 171.49922 144.68035 Z" fill="#f3f3f3"/>
        </g>
        <g id="Graphic_36">
          <path d="M 218.39145 148.53857 C 220.56788 149.82464 224.22824 152.7925 226.5036 155.1668 C 228.77896 157.73894 230.06504 159.71752 229.37254 160.0143 C 228.77896 160.21216 226.40467 159.3218 224.32717 158.13466 C 222.15074 156.94751 218.98502 154.27643 217.30323 152.19893 C 215.72037 150.12143 214.33537 147.945 214.33537 147.35142 C 214.33537 146.75785 216.11608 147.35142 218.39145 148.53857 Z" fill="#f3f3f3"/>
        </g>
        <g id="Graphic_35">
          <path d="M 209.38893 150.81393 C 209.88357 152.99036 210.47715 159.61859 210.77393 165.65324 C 211.26858 176.13969 211.26858 176.33754 209.9825 171.58896 C 209.19107 168.81896 208.5975 162.19073 208.5975 156.74965 C 208.5975 149.13214 208.79536 147.74714 209.38893 150.81393 Z" fill="#f3f3f3"/>
        </g>
        <g id="Graphic_34">
          <path d="M 162.29885 152.39679 C 162.7935 152.29786 162.4967 152.99036 161.8042 153.88072 C 161.01278 154.77108 158.83635 156.5518 156.85777 157.83787 C 154.8792 159.02501 151.51562 160.41002 149.43812 160.7068 L 145.5799 161.3993 L 147.85526 159.12394 C 149.0424 157.83787 152.60384 155.76037 155.76955 154.57322 C 158.83635 153.38608 161.8042 152.39679 162.29885 152.39679 Z" fill="#f3f3f3"/>
        </g>
        <g id="Graphic_33">
          <path d="M 243.22256 156.255 C 245.7947 156.255 248.07007 156.65072 248.36685 157.14537 C 248.66364 157.64001 246.19042 158.23358 242.72791 158.43144 C 239.36434 158.72823 236.39648 158.72823 236.0997 158.53037 C 235.90183 158.33251 236.29755 157.73894 237.08898 157.2443 C 237.8804 156.65072 240.6504 156.255 243.22256 156.255 Z" fill="#f3f3f3"/>
        </g>
        <g id="Graphic_32">
          <path d="M 134.5988 157.64001 C 136.77524 157.9368 139.14953 158.82716 140.03989 159.61859 C 140.83132 160.50894 141.32596 161.30037 141.02917 161.49823 C 140.83132 161.69609 138.45703 160.80573 135.68702 159.51966 L 130.74058 157.04644 L 134.5988 157.64001 Z" fill="#f3f3f3"/>
        </g>
        <g id="Graphic_31">
          <path d="M 215.32465 161.20145 C 215.91823 161.20145 218.68823 163.57574 221.45824 166.34574 C 224.1293 169.21467 227.1961 173.36968 228.28432 175.44718 C 229.2736 177.62362 229.9661 179.6022 229.66932 179.80005 C 229.37254 180.09683 226.8004 177.82147 223.83253 174.65575 C 220.9636 171.49003 217.60002 167.2361 216.41287 165.05967 C 215.1268 162.88323 214.63215 161.20145 215.32465 161.20145 Z" fill="#f3f3f3"/>
        </g>
        <g id="Graphic_30">
          <path d="M 162.19992 163.27895 C 162.59564 163.18002 162.89242 163.4768 162.89242 163.87252 C 162.7935 164.36717 162.00207 166.04895 161.1117 167.82967 C 160.22135 169.61039 157.45134 173.0729 155.07705 175.54611 C 152.60384 178.11826 149.63597 180.59148 148.3499 181.08612 C 146.9649 181.58077 145.48097 181.97648 144.98632 181.97648 C 144.49168 181.97648 144.98632 180.09683 146.17347 177.82147 C 147.36061 175.54611 150.32847 171.6879 152.70276 169.3136 C 155.17598 166.93931 158.14384 164.66395 159.33099 164.1693 C 160.4192 163.67466 161.70528 163.27895 162.19992 163.27895 Z" fill="#f3f3f3"/>
        </g>
        <g id="Graphic_29">
          <path d="M 259.64473 165.1586 C 260.9308 165.1586 260.83187 165.55431 259.1501 167.33503 C 257.864 168.52217 256.67687 169.21467 256.28115 168.81896 C 255.88544 168.42324 256.18222 167.53289 256.87472 166.64253 C 257.56722 165.8511 258.8533 165.1586 259.64473 165.1586 Z" fill="#f3f3f3"/>
        </g>
        <g id="Graphic_28">
          <path d="M 117.3852 169.11574 C 117.97878 169.11574 118.37449 169.41253 118.47342 169.80825 C 118.47342 170.30289 118.77021 171.88575 118.96806 173.4686 C 119.46271 176.04076 119.26485 176.23861 117.97878 175.05147 C 117.08842 174.35897 116.39592 172.7761 116.39592 171.49003 C 116.39592 170.20396 116.89056 169.11574 117.3852 169.11574 Z" fill="#f3f3f3"/>
        </g>
        <g id="Graphic_27">
          <path d="M 246.98185 171.88575 C 248.36685 172.18254 249.554 172.47932 249.75185 172.57825 C 249.9497 172.7761 248.8615 174.06218 247.37757 175.44718 C 245.7947 176.83219 243.3215 178.21719 241.73863 178.6129 C 240.15577 178.9097 237.38576 178.9097 235.4072 178.51397 L 231.94468 177.9204 L 234.12111 175.54611 C 235.4072 174.16111 238.1772 172.7761 240.45255 172.28146 C 242.72791 171.78682 245.59685 171.58896 246.98185 171.88575 Z" fill="#f3f3f3"/>
        </g>
        <g id="Graphic_26">
          <path d="M 126.28879 178.6129 C 127.6738 178.9097 130.34487 179.6022 132.22452 180.19576 C 134.10416 180.78934 136.47845 181.87755 137.46774 182.7679 C 138.3581 183.55934 139.14953 184.54863 139.14953 184.94434 C 139.14953 185.43899 138.06131 186.03256 136.77524 186.32935 C 135.39024 186.62613 133.11487 186.42827 131.53201 185.8347 C 130.04808 185.34006 127.08022 183.65827 125.00272 182.27327 C 122.33164 180.39362 121.63914 179.40433 122.5295 178.9097 C 123.222 178.41505 124.90379 178.31612 126.28879 178.6129 Z" fill="#f3f3f3"/>
        </g>
        <g id="Graphic_25">
          <path d="M 215.42358 180.9872 C 215.91823 180.9872 218.1936 182.66898 220.37002 184.64756 C 222.64538 186.72506 227.29503 192.66078 230.6586 197.80508 C 234.02219 202.94937 237.38576 208.1926 237.97934 209.37974 C 238.67184 210.66581 238.77077 211.6551 238.1772 211.6551 C 237.68255 211.6551 235.1104 209.97331 232.43933 207.99474 C 229.86718 206.01616 227.1961 203.93866 226.70146 203.3451 C 226.1079 202.75152 223.63467 199.78365 221.16145 196.8158 C 218.5893 193.84793 215.8193 189.9897 215.02787 188.30792 C 214.1375 186.62613 213.7418 184.25184 214.03858 183.16363 C 214.33537 181.97648 214.92894 180.9872 215.42358 180.9872 Z" fill="#f3f3f3"/>
        </g>
        <g id="Graphic_24">
          <path d="M 159.23206 183.95506 C 160.91385 183.95506 161.01278 184.4497 160.4192 188.11006 C 159.92456 190.6822 158.44063 193.749 156.75884 195.72758 C 155.17598 197.5083 151.91133 200.67401 149.63597 202.65259 C 147.26168 204.63116 144.29382 207.00545 143.10668 208.09367 C 141.8206 209.08295 139.44631 210.66581 137.76452 211.6551 C 136.08274 212.6444 133.51059 213.7326 132.02666 214.0294 C 130.4438 214.4251 129.25665 214.22725 129.25665 213.7326 C 129.25665 213.23796 131.33416 210.07224 133.80738 206.60974 C 136.37952 203.14723 140.03989 198.5965 142.01846 196.519 C 143.99704 194.34257 148.25097 190.6822 151.51562 188.30792 C 154.68134 185.93363 158.14384 183.95506 159.23206 183.95506 Z" fill="#f3f3f3"/>
        </g>
        <g id="Graphic_23">
          <path d="M 215.22573 198.8933 C 215.91823 199.19008 217.69894 201.56437 219.18288 204.23545 C 220.6668 207.00545 222.94217 212.3476 224.1293 216.30475 C 225.71217 221.2512 226.5036 226.0987 226.60253 232.13335 C 226.60253 236.88193 226.30574 241.03694 225.8111 241.13587 C 225.31646 241.33372 223.53574 238.95943 221.85395 235.69478 C 220.17216 232.52907 217.99573 227.97834 217.00644 225.50512 C 215.8193 222.6362 215.02787 217.09618 214.63215 209.77546 C 214.1375 201.06973 214.33537 198.5965 215.22573 198.8933 Z" fill="#f3f3f3"/>
        </g>
        <g id="Graphic_22">
          <path d="M 272.50546 199.88258 L 274.78083 199.78365 L 272.70332 202.45473 C 271.6151 204.0376 268.5483 206.70866 265.97617 208.48938 C 261.9201 211.25939 260.13937 211.75403 252.91757 212.3476 C 247.67435 212.74332 244.90435 212.6444 245.30006 212.05082 C 245.59685 211.45724 250.14757 208.8851 255.29186 206.31295 C 260.5351 203.7408 265.97617 201.26758 267.55903 200.77294 C 269.04296 200.2783 271.2194 199.88258 272.50546 199.88258 Z" fill="#f3f3f3"/>
        </g>
        <g id="Graphic_21">
          <path d="M 283.38763 199.78365 C 286.0587 199.78365 288.433 200.67401 291.30192 202.75152 C 293.5773 204.4333 295.45693 206.1151 295.45693 206.5108 C 295.45693 207.00545 292.48907 206.90652 288.92763 206.31295 C 284.47584 205.52152 282.00262 204.63116 281.01334 203.3451 C 280.2219 202.25687 279.62833 201.06973 279.62833 200.57508 C 279.62833 200.17937 281.31012 199.78365 283.38763 199.78365 Z" fill="#f3f3f3"/>
        </g>
        <g id="Graphic_20">
          <path d="M 159.52885 200.77294 C 159.92456 200.77294 159.92456 204.0376 159.62778 207.8958 C 159.33099 212.6444 158.14384 217.29404 156.2642 221.54798 C 154.78027 225.01048 152.1092 230.84728 150.32847 234.4087 L 147.16275 240.83908 L 147.16275 236.3873 C 147.06383 233.91407 147.75633 229.26442 148.54776 226.0987 C 149.43812 222.83405 150.72419 218.8769 151.51562 217.1951 C 152.20812 215.51332 154.1867 211.16046 155.86848 207.40117 C 157.45134 203.7408 159.13313 200.77294 159.52885 200.77294 Z" fill="#f3f3f3"/>
        </g>
        <g id="Graphic_19">
          <path d="M 85.53015 205.8183 C 86.12372 205.71938 86.7173 206.60974 86.7173 207.59902 C 86.7173 208.68724 85.53015 210.46796 84.14515 211.55617 C 82.66122 212.74332 80.97943 213.63368 80.28693 213.63368 C 79.59443 213.63368 77.418 215.21654 75.43942 217.1951 C 73.26299 219.37154 71.87799 220.16297 71.87799 219.37154 C 71.87799 218.58011 73.16406 216.1069 74.74692 214.0294 C 76.23085 211.9519 78.40728 209.47867 79.39657 208.5883 C 80.38586 207.69795 81.96872 206.70866 82.76015 206.41188 C 83.55158 206.1151 84.83765 205.8183 85.53015 205.8183 Z" fill="#f3f3f3"/>
        </g>
        <g id="Graphic_18">
          <path d="M 96.7091 207.69795 C 99.67696 207.69795 104.32661 208.29152 106.99769 209.08295 C 109.76769 209.77546 114.51627 211.55617 117.68199 213.0401 C 120.74878 214.52404 123.32093 216.20582 123.32093 216.7994 C 123.32093 217.4919 120.64985 217.68975 115.20877 217.39297 C 108.87733 216.99725 105.51376 216.20582 100.56732 213.93046 C 97.00589 212.3476 93.54338 210.2701 92.75195 209.37974 C 91.5648 207.79688 91.86159 207.69795 96.7091 207.69795 Z" fill="#f3f3f3"/>
        </g>
        <g id="Graphic_17">
          <path d="M 306.93266 233.51835 C 308.02088 233.51835 309.8016 234.30978 310.7909 235.398 C 311.68124 236.3873 312.2748 237.97015 311.97803 238.76158 C 311.68124 239.553 309.5048 241.6305 307.22945 243.3123 C 304.9541 244.89516 300.7991 246.97266 298.02908 247.86302 C 295.25907 248.65445 290.9062 249.64374 288.33406 249.94052 C 285.86084 250.2373 282.20048 250.2373 280.2219 249.8416 C 278.24333 249.44588 276.66047 248.75338 276.66047 248.25873 C 276.66047 247.66516 278.4412 245.58766 280.5187 243.51015 C 283.38763 240.74015 286.4544 239.05836 292.68693 237.0798 C 297.13872 235.69478 301.78837 234.30978 302.8766 234.013 C 303.9648 233.81514 305.74552 233.61728 306.93266 233.51835 Z" fill="#f3f3f3"/>
        </g>
        <g id="Graphic_16">
          <path d="M 309.30695 243.3123 C 309.60374 243.3123 310.29624 243.708 310.98874 244.10373 C 311.68124 244.49944 312.5716 247.26945 312.9673 250.2373 C 313.46196 253.20517 313.46196 257.85482 313.06625 260.62483 C 312.67053 263.2959 311.38446 267.7477 310.0984 270.5177 C 308.91124 273.18878 306.63588 277.4427 305.05302 279.817 C 302.5798 283.37844 302.08516 285.15915 301.98623 290.69916 C 301.8873 295.84346 301.1948 298.61346 298.72158 303.8567 C 297.0398 307.51705 293.77514 313.156 291.5987 316.42063 C 289.32335 319.6853 285.26727 324.6317 282.49727 327.40172 C 279.8262 330.0728 276.95726 332.34816 276.3637 332.34816 C 275.6712 332.34816 274.58297 331.8535 273.89047 331.161 C 273.19797 330.4685 272.70332 328.2921 272.70332 326.21458 C 272.70332 324.13708 273.79154 319.6853 275.0776 316.22278 C 276.3637 312.8592 278.63905 308.20955 280.2219 306.0331 C 281.80477 303.8567 284.6737 299.89953 286.55334 297.3274 C 288.433 294.75524 292.588 290.69916 295.7537 288.32487 C 298.8205 285.9506 300.99694 283.77415 300.40337 283.37844 C 299.90872 283.08165 299.41408 280.01486 299.41408 276.65128 C 299.513 273.2877 300.30444 267.15412 301.29373 263.09804 C 302.1841 259.04197 304.3605 252.9084 305.94338 249.5448 C 307.52624 246.0823 309.01017 243.3123 309.30695 243.3123 Z" fill="#f3f3f3"/>
        </g>
        <g id="Graphic_15">
          <path d="M 144.29382 245.29087 C 144.68954 245.29087 145.08525 245.78552 145.08525 246.47802 C 145.08525 247.0716 143.99704 249.44588 142.71096 251.6223 C 141.42489 253.89767 138.45703 257.26125 136.08274 259.1409 C 133.80738 261.02054 130.74058 263.5927 129.25665 264.77983 C 127.6738 266.0659 125.992 267.0552 125.39843 267.0552 C 124.80486 267.0552 124.607 266.26376 125.00272 265.27448 C 125.2995 264.38412 127.87165 260.72376 130.64166 257.26125 C 133.31273 253.79874 137.36881 249.64374 139.44631 248.1598 C 141.62275 246.57695 143.79918 245.29087 144.29382 245.29087 Z" fill="#f3f3f3"/>
        </g>
        <g id="Graphic_14">
          <path d="M 228.97682 246.28016 C 229.37254 246.28016 231.45004 247.26945 233.62647 248.55552 C 236.19862 250.03945 238.47398 252.51267 240.2547 255.6784 C 241.73863 258.4484 243.0247 261.2184 243.0247 261.9109 C 243.0247 262.80126 242.3322 262.70233 240.45255 261.41626 C 239.06755 260.5259 235.70397 257.0634 233.0329 253.79874 C 230.36182 250.5341 228.1854 247.4673 228.1854 247.0716 C 228.1854 246.57695 228.48218 246.28016 228.97682 246.28016 Z" fill="#f3f3f3"/>
        </g>
        <g id="Graphic_13">
          <path d="M 275.86904 253.40303 C 276.7594 254.59017 277.7487 256.86553 278.04547 258.4484 C 278.34226 260.03125 278.34226 262.50447 278.04547 263.88947 C 277.64976 265.3734 276.26476 267.84662 274.78083 269.4295 C 273.39582 270.9134 269.8344 273.9802 266.86653 276.15664 C 263.9976 278.432 261.02973 281.4988 260.43616 282.98272 C 259.8426 284.56558 259.05116 285.85165 258.65544 285.85165 C 258.25973 285.85165 257.864 283.87308 257.864 281.39986 C 257.864 278.53093 258.95223 274.57378 260.83187 270.31984 C 262.51366 266.7584 265.48152 261.71304 267.55903 259.23982 C 269.5376 256.7666 271.9119 253.89767 272.70332 252.9084 C 274.08832 251.32553 274.28618 251.32553 275.86904 253.40303 Z" fill="#f3f3f3"/>
        </g>
        <g id="Graphic_12">
          <path d="M 249.9497 264.08733 C 250.939 264.08733 252.22507 264.77983 252.91757 265.57126 C 254.0058 266.85734 253.61008 267.0552 250.54328 267.0552 C 248.5647 267.0552 246.98185 266.65948 246.98185 266.26376 C 246.98185 265.76912 247.27864 265.07662 247.67435 264.77983 C 247.97114 264.38412 249.05935 264.08733 249.9497 264.08733 Z" fill="#f3f3f3"/>
        </g>
        <g id="Graphic_11">
          <path d="M 118.67128 267.84662 C 119.66057 268.1434 120.15521 268.63805 119.66057 269.03377 C 119.26485 269.4295 116.6927 270.122 114.02163 270.5177 C 110.75698 270.9134 109.4709 270.8145 109.86662 270.122 C 110.26234 269.5284 111.94412 268.73698 113.72484 268.24234 C 115.50556 267.7477 117.68199 267.64877 118.67128 267.84662 Z" fill="#f3f3f3"/>
        </g>
        <g id="Graphic_10">
          <path d="M 186.14068 293.07345 C 193.36247 292.97452 193.4614 292.97452 194.74748 296.14024 C 195.43998 297.92096 195.93462 302.5706 195.93462 307.3192 C 195.8357 311.8699 195.04426 318.696 194.05498 322.65314 C 193.16462 326.6103 191.97747 330.86423 191.3839 332.05137 C 190.79033 333.33745 189.50425 334.32674 188.51497 334.32674 C 187.52568 334.32674 185.74496 332.1503 183.86532 328.58887 C 182.28246 325.32422 180.20495 319.7842 179.3146 316.22278 C 178.42424 312.66134 177.6328 308.30848 177.53388 306.42883 C 177.53388 304.6481 177.73173 300.88882 178.12745 298.1188 L 178.81995 293.07345 L 186.14068 293.07345 Z" fill="#f3f3f3"/>
        </g>
        <g id="Graphic_9">
          <path d="M 266.37188 331.35887 C 268.64724 331.35887 271.6151 331.95245 273.0001 332.64495 C 275.0776 333.73316 275.27547 334.2278 274.48404 335.9096 C 273.89047 336.8989 271.81296 339.47103 269.8344 341.54853 C 267.8558 343.62604 263.40402 347.2864 259.8426 349.6607 C 256.0833 352.1339 249.9497 355.00284 245.20113 356.48677 C 240.6504 357.87177 235.70397 359.0589 234.12111 359.0589 C 232.53825 359.0589 230.9554 358.56428 230.6586 358.06963 C 230.36182 357.47606 229.66932 357.08034 229.07575 357.08034 C 228.5811 357.08034 228.1854 358.16856 228.1854 359.55356 C 228.1854 361.3343 227.4929 362.1257 225.61324 362.62035 C 224.22824 363.01607 220.76573 363.01607 217.8968 362.7193 C 215.02787 362.4225 210.57608 361.13642 207.905 359.94928 C 205.23392 358.6632 201.47463 356.09106 199.49606 354.1125 C 197.6164 352.23284 194.4507 347.6821 192.57104 344.02175 C 190.6914 340.3614 189.50425 337.09674 189.9989 336.6021 C 190.39461 336.2064 194.25283 335.81067 198.40784 335.81067 C 205.03607 335.81067 206.9157 336.3053 212.7525 339.17424 C 216.41287 340.95496 220.9636 343.8239 222.84324 345.5057 C 224.8218 347.08854 226.89932 349.85855 227.59182 351.54034 L 228.8779 354.60713 L 230.46075 351.54034 C 231.3511 349.7596 234.91254 346.1982 238.37505 343.5271 C 241.73863 340.7571 245.69578 337.9871 246.98185 337.2946 C 248.36685 336.50317 252.324 334.9203 255.88544 333.63423 C 259.44687 332.4471 264.19545 331.35887 266.37188 331.35887 Z" fill="#f3f3f3"/>
        </g>
        <g id="Graphic_8">
          <path d="M 207.905 192.06721 C 206.81678 192.16614 202.26606 192.46293 197.81427 192.56186 C 192.66997 192.85864 189.60318 193.35329 189.60318 194.04579 C 189.60318 194.83722 192.37319 194.93615 198.6057 194.54043 C 203.65106 194.24364 208.20179 193.45221 208.69643 192.95757 C 209.48786 192.16614 209.19107 191.96828 207.905 192.06721 Z" fill="black"/>
        </g>
        <g id="Graphic_7">
          <path d="M 188.21818 199.9815 C 187.9214 199.68472 187.2289 200.67401 186.63532 202.15794 C 186.14068 203.64187 185.64603 205.71938 185.64603 206.8076 C 185.64603 207.79688 186.04175 208.68724 186.5364 208.68724 C 187.03104 208.68724 187.6246 206.8076 188.02032 204.63116 C 188.41604 202.3558 188.41604 200.2783 188.21818 199.9815 Z" fill="black"/>
        </g>
        <g id="Graphic_6">
          <path d="M 168.13565 210.17117 C 166.75064 209.77546 165.86029 209.87438 165.86029 210.46796 C 165.86029 210.9626 167.93779 211.9519 170.60887 212.54546 C 173.18101 213.0401 177.2371 213.63368 179.7103 213.7326 C 182.18353 213.83153 184.95353 213.83153 185.94282 213.7326 C 186.9321 213.7326 187.42675 213.13903 187.12996 212.6444 C 186.73425 212.05082 185.74496 211.75403 184.8546 212.05082 C 183.86532 212.3476 180.30388 212.14975 176.74245 211.6551 C 173.18101 211.25939 169.3228 210.56689 168.13565 210.17117 Z" fill="black"/>
        </g>
        <g id="Graphic_5">
          <path d="M 198.01213 211.9519 C 193.26355 212.05082 189.20747 212.44653 189.0096 212.84225 C 188.81175 213.23796 189.50425 213.83153 190.6914 214.12832 C 191.87854 214.52404 195.63784 214.52404 199.10034 214.12832 C 202.56285 213.83153 205.62964 213.0401 205.92642 212.54546 C 206.2232 212.05082 202.7607 211.85296 198.01213 211.9519 Z" fill="black"/>
        </g>
        <g id="Graphic_4">
          <path d="M 179.21567 231.9355 C 176.74245 231.34192 176.44566 231.44085 177.53388 232.52907 C 178.22638 233.22157 181.58996 234.013 185.44818 234.21085 C 189.10854 234.4087 191.77962 234.30978 191.3839 233.91407 C 190.98819 233.51835 188.71282 233.0237 186.43746 232.92478 C 184.06317 232.82585 180.89745 232.3312 179.21567 231.9355 Z" fill="black"/>
        </g>
      </g>
    </g>
  </g>
</svg>
