<?xml version="1.0" encoding="UTF-8" standalone="no"?>
<!DOCTYPE svg PUBLIC "-//W3C//DTD SVG 1.1//EN" "http://www.w3.org/Graphics/SVG/1.1/DTD/svg11.dtd">
<svg xmlns:xl="http://www.w3.org/1999/xlink" xmlns="http://www.w3.org/2000/svg" xmlns:dc="http://purl.org/dc/elements/1.1/" version="1.1" viewBox="90 62.04038 184.5 303.79295" width="184.5" height="303.79295">
  <defs>
    <clipPath id="artboard_clip_path">
      <path d="M 90 62.04038 L 274.5 62.04038 L 274.5 365.83333 L 90 365.83333 Z"/>
    </clipPath>
  </defs>
  <metadata> Produced by OmniGraffle 7.10.2 test 
    <dc:date>2019-03-17 21:53:40 +0000</dc:date>
  </metadata>
  <g id="Tower_(1)" fill="none" stroke-dasharray="none" stroke-opacity="1" fill-opacity="1" stroke="none">
    <title>Tower (1)</title>
    <g id="Tower_(1): Layer 2" clip-path="url(#artboard_clip_path)">
      <title>Layer 2</title>
      <g id="Group_1340">
        <g id="Graphic_1530">
          <path d="M 174.793 63.55971 C 174.793 63.89113 172.69399 64.11208 170.15308 64.11208 L 165.4027 64.11208 L 165.51317 69.083416 C 165.51317 71.84527 165.73411 76.92708 165.95506 80.57273 L 166.39696 87.0907 L 158.1114 86.98023 C 153.58196 86.98023 149.38394 86.98023 148.7211 86.86975 C 146.95351 86.75928 145.95924 83.88695 145.40687 77.36898 C 144.30213 63.89113 143.41834 62.675915 136.12704 64.66445 C 133.69661 65.327295 127.28911 66.10061 121.65493 66.432036 C 116.13122 66.652984 111.04941 67.205355 110.60751 67.53678 C 109.17135 68.42057 109.3923 71.51385 111.71226 79.13656 C 112.817 83.00316 114.80553 91.17825 116.13122 97.25432 C 122.87014 127.74519 125.41105 136.47265 127.731 136.47265 C 128.39385 136.47265 131.26618 138.12976 134.24898 140.00782 C 138.77842 143.1011 139.44127 144.09536 138.8889 146.41532 C 138.55747 147.96196 137.78416 151.93903 137.12131 155.25325 C 136.56894 158.56748 135.57467 162.7655 135.0223 164.64355 C 134.46993 166.41114 133.80709 170.94058 133.47566 174.58623 C 133.14424 178.23187 132.37092 182.98226 131.70808 185.08127 C 131.1557 187.18028 130.60334 190.60498 130.60334 192.59351 C 130.60334 194.58205 130.16144 197.12295 129.4986 198.2277 C 128.94622 199.33244 128.06243 203.86188 127.39959 208.39132 C 126.84721 212.92076 125.52152 219.9911 124.52726 224.2996 C 123.53299 228.4976 122.31777 235.0156 121.7654 238.55076 C 120.55019 246.83632 115.68933 254.12762 102.76385 267.16356 C 97.35062 272.46632 93.04212 277.6586 93.04212 278.65288 C 93.04212 280.42046 93.04212 280.42046 102.32195 277.99003 C 104.75238 277.43766 107.07234 277.10624 107.62471 277.43766 C 108.06661 277.76908 108.17708 282.29852 107.84566 287.60128 C 107.51424 292.90404 107.18282 311.79512 106.96187 329.58146 C 106.74092 355.21146 106.96187 362.17133 108.17708 363.1656 C 109.17135 363.9389 132.0395 364.3808 183.07856 364.60176 C 249.69447 364.8227 256.7648 364.71224 257.42766 363.05513 C 257.86955 362.06086 258.20098 342.50693 258.20098 319.5283 L 258.0905 277.76908 L 262.06757 278.5424 C 268.03318 279.75762 271.45788 279.64714 271.45788 278.32145 C 271.45788 277.54813 269.35887 274.6758 266.81796 271.80348 C 264.16658 269.04163 262.06757 266.39025 262.06757 266.05882 C 262.06757 265.7274 258.42193 261.0875 254.00296 255.8952 C 246.71167 247.27822 245.82787 245.73158 244.50218 239.2136 C 243.06602 231.70136 240.6356 219.9911 238.868 211.59507 C 238.31563 208.83321 236.54804 199.8848 235.0014 191.70972 C 231.24529 171.38248 229.9196 165.08545 228.81485 161.8817 C 228.37296 160.33506 227.26822 155.9161 226.60537 152.0495 L 225.27968 144.86868 L 229.58817 141.11256 C 231.90813 139.01355 235.77473 136.14122 238.09468 134.70506 C 241.29843 132.60605 242.18223 131.28036 242.18223 128.84993 C 242.18223 127.08234 243.72886 119.01773 245.60692 110.95312 C 247.3745 102.77803 249.69447 92.17251 250.57826 87.31165 C 251.46205 82.45079 252.45632 77.2585 252.78774 75.711865 C 253.11917 74.16523 253.4506 71.51385 253.56106 69.856735 C 253.782 66.76346 253.56106 66.652984 247.92688 66.21109 C 244.17076 65.879665 239.3099 65.879665 233.67572 65.21682 C 229.25675 64.77492 225.27968 64.4435 224.83778 64.553975 C 223.954 64.553975 222.51783 74.60712 222.1864 83.11363 L 221.96546 87.86402 L 212.46468 87.20118 C 207.2724 86.75928 202.30106 85.87549 201.41726 85.21264 C 200.20205 84.32885 200.09158 81.78794 200.53347 73.8338 L 201.19632 63.55971 L 194.8993 63.449234 C 191.4746 63.449234 185.50899 63.33876 181.6424 63.228286 C 177.88627 63.11781 174.793 63.228286 174.793 63.55971 Z" fill="black"/>
        </g>
        <g id="Graphic_1529">
          <path d="M 195.6726 67.8682 C 196.88782 68.64152 196.9983 70.409105 196.44593 75.60139 C 195.89356 80.79368 195.78308 84.32885 195.78308 85.21264 C 195.78308 86.09643 195.45166 86.75928 195.00976 86.75928 C 194.4574 86.86975 188.71274 86.98023 181.97381 87.0907 L 169.82166 87.31165 L 169.26929 78.58419 C 168.8274 72.17669 169.15881 69.41484 170.15308 68.3101 C 171.92067 66.652984 193.1317 66.32156 195.6726 67.8682 Z" fill="#f3f3f3"/>
        </g>
        <g id="Graphic_1528">
          <path d="M 239.42037 69.63579 C 244.28123 70.07768 248.58973 70.63005 248.92115 70.851 C 249.69447 71.2929 249.36305 77.589925 248.47925 80.13083 C 248.14783 81.01462 247.48498 83.77648 246.9326 86.20691 L 245.93835 90.62587 L 239.3099 90.40493 C 235.77473 90.18398 231.24529 89.85256 229.25675 89.52113 C 225.83205 88.96876 225.83205 88.74781 225.39016 82.00889 C 225.1692 78.25277 225.39016 74.938545 225.83205 74.82807 C 226.38442 74.60712 226.71584 72.95001 226.71584 71.07195 C 226.71584 68.531045 227.15774 67.978674 228.70438 68.42057 C 229.69865 68.64152 234.5595 69.30436 239.42037 69.63579 Z" fill="#f3f3f3"/>
        </g>
        <g id="Graphic_1527">
          <path d="M 141.31933 70.63005 C 140.9879 71.51385 141.20885 75.82234 141.76122 80.13083 C 142.64502 86.09643 142.53454 88.41639 141.65075 88.96876 C 140.87743 89.41066 135.79562 90.0735 130.27191 90.40493 C 119.55592 90.9573 116.2417 89.96303 116.46264 85.87549 C 116.57312 84.77074 116.2417 81.23557 115.68933 77.81087 L 114.916 71.62432 L 120.32924 70.51958 C 123.20157 69.96721 129.27765 69.41484 133.80709 69.30436 C 140.54601 68.97294 141.8717 69.30436 141.31933 70.63005 Z" fill="#f3f3f3"/>
        </g>
        <g id="Graphic_1526">
          <path d="M 209.70283 99.35333 L 209.3714 107.197 L 184.07282 107.197 L 158.77424 107.197 L 158.44282 100.56855 C 158.33235 96.9229 158.66377 93.27725 159.10567 92.61441 C 159.76851 91.62014 165.62364 91.06777 179.21196 90.62587 C 189.81748 90.29445 198.54494 89.85256 198.76589 89.63161 C 198.98683 89.41066 201.63821 89.74208 204.62102 90.40493 L 210.14472 91.50967 L 209.70283 99.35333 Z" fill="#f3f3f3"/>
        </g>
        <g id="Graphic_1525">
          <path d="M 155.34954 93.60868 C 155.68097 95.04484 156.01239 98.80096 156.01239 101.89424 C 156.01239 108.96458 156.45429 108.74364 137.12131 109.296 L 123.20157 109.62743 L 121.43398 102.33613 C 120.32924 97.58575 120.10829 94.71342 120.77114 93.9401 C 121.43398 93.27725 126.95769 92.50394 133.14424 92.17251 C 155.46002 90.9573 154.57623 90.9573 155.34954 93.60868 Z" fill="#f3f3f3"/>
        </g>
        <g id="Graphic_1524">
          <path d="M 239.08895 92.94583 C 244.0603 93.60868 244.17076 93.71915 244.61266 97.91717 C 244.8336 100.3476 244.61266 102.22566 244.28123 102.22566 C 243.83934 102.22566 243.1765 103.66182 242.7346 105.53988 C 242.2927 107.30747 241.62986 109.07506 241.07748 109.40648 C 239.7518 110.29027 231.35576 110.1798 221.7445 109.18553 L 212.90658 108.30174 L 212.57515 99.57428 L 212.24373 90.84682 L 223.18067 91.50967 C 229.14628 91.95156 236.3271 92.61441 239.08895 92.94583 Z" fill="#f3f3f3"/>
        </g>
        <g id="Graphic_1523">
          <path d="M 182.41571 110.84264 C 182.74713 111.50549 182.96808 115.7035 182.74713 120.23295 L 182.30524 128.62898 L 169.49024 128.9604 C 162.41989 129.18135 154.35528 129.07088 151.59342 128.73946 C 146.29066 128.18709 146.40114 128.40803 144.52308 115.81398 C 143.86023 111.28454 143.86023 111.17407 147.3954 110.84264 C 156.56476 109.84838 181.86334 109.95885 182.41571 110.84264 Z" fill="#f3f3f3"/>
        </g>
        <g id="Graphic_1522">
          <path d="M 219.97692 111.72644 C 221.08166 112.05786 221.3026 113.71497 220.75024 118.90726 C 219.53503 129.51278 220.86072 128.73946 202.41153 128.51851 L 185.95088 128.18709 L 185.61946 120.4539 C 185.39851 116.1454 185.39851 112.16833 185.61946 111.50549 C 185.95088 110.40075 216.44175 110.51122 219.97692 111.72644 Z" fill="#f3f3f3"/>
        </g>
        <g id="Graphic_1521">
          <path d="M 142.3136 113.71497 C 142.64502 114.59876 142.97644 118.46536 143.08691 122.33196 L 143.30786 129.29183 L 136.34799 129.8442 C 128.50433 130.50704 128.1729 130.17562 126.51579 123.76812 C 125.85295 121.33769 124.96915 118.57583 124.63773 117.58157 C 124.19583 116.47683 124.63773 115.04066 125.632 113.93592 C 128.06243 111.61596 141.4298 111.39501 142.3136 113.71497 Z" fill="#f3f3f3"/>
        </g>
        <g id="Graphic_1520">
          <path d="M 235.77473 112.83118 L 240.6356 113.49402 L 239.7518 118.68631 C 237.43184 130.72799 238.4261 129.73372 230.3615 129.51278 C 226.4949 129.51278 223.0702 129.07088 222.73878 128.51851 C 222.40735 127.96614 222.40735 124.09954 222.84925 119.79105 L 223.62257 112.16833 L 227.26822 112.16833 C 229.25675 112.16833 233.01287 112.49976 235.77473 112.83118 Z" fill="#f3f3f3"/>
        </g>
        <g id="Graphic_1519">
          <path d="M 190.36985 132.05368 C 191.80601 131.61178 194.23645 131.39084 195.78308 131.61178 C 197.32972 131.72226 200.8649 131.9432 203.8477 131.9432 C 207.82477 132.05368 209.03998 132.49558 209.03998 133.82127 C 209.03998 135.14696 208.37714 135.47838 206.3886 134.92601 C 204.17912 134.37364 203.29533 134.92601 201.41726 138.24023 C 199.0973 142.10683 196.88782 142.43825 196.88782 138.90308 C 196.88782 137.35644 196.66688 137.46691 195.34119 139.34497 C 194.0155 141.22303 192.35838 141.55446 183.7414 141.7754 C 175.45584 141.99635 173.57778 141.7754 173.0254 140.33924 C 172.36256 138.7926 172.14162 138.7926 170.9264 140.56019 C 169.71118 142.2173 169.26929 142.2173 167.72265 141.00209 C 166.72838 140.1183 166.17601 138.57166 166.50743 137.57739 C 167.28075 135.25743 162.97226 133.7108 160.76278 135.47838 C 159.10567 136.91454 157.11713 135.8098 157.11713 133.60032 C 157.11713 131.16989 166.94933 131.50131 168.8274 133.93174 C 170.26355 135.8098 170.26355 135.8098 170.37403 133.93174 C 170.37403 130.83846 173.4673 131.72226 175.34537 135.47838 C 176.33963 137.35644 177.44437 138.68213 177.7758 138.3507 C 177.99675 138.01928 177.66532 136.6936 177.00248 135.3679 C 175.2349 132.05368 176.892 131.05941 182.8576 132.05368 C 185.50899 132.3851 188.82321 132.3851 190.36985 132.05368 Z" fill="#f3f3f3"/>
        </g>
        <g id="Graphic_1518">
          <path d="M 143.19739 133.7108 C 145.18592 135.8098 146.06972 135.8098 146.06972 133.7108 C 146.06972 132.71653 146.73256 132.3851 147.72683 132.71653 C 150.15726 133.7108 149.82584 134.59459 146.06972 136.6936 C 143.52881 138.12976 141.98217 138.3507 138.99937 137.46691 C 134.80135 136.36217 133.36519 134.92601 134.46993 133.15842 C 135.4642 131.50131 141.31933 131.83273 143.19739 133.7108 Z" fill="#f3f3f3"/>
        </g>
        <g id="Graphic_1517">
          <path d="M 154.57623 134.92601 C 153.58196 135.92028 151.48295 134.26316 152.25627 132.93747 C 152.69817 132.27463 153.36101 132.27463 154.13433 133.04795 C 154.79717 133.7108 155.01812 134.48411 154.57623 134.92601 Z" fill="#f3f3f3"/>
        </g>
        <g id="Graphic_1516">
          <path d="M 214.23227 133.37937 C 214.01132 134.15269 214.23227 135.8098 214.8951 137.02502 C 215.88938 139.01355 215.7789 139.01355 214.23227 137.79834 C 212.7961 136.58312 212.3542 136.6936 211.35994 138.57166 C 209.70283 141.55446 209.8133 141.99635 212.13326 141.99635 C 213.6799 141.99635 213.79037 142.2173 212.3542 143.1011 C 211.24946 143.76394 209.92377 143.543 208.26666 142.54872 C 206.94097 141.66493 204.95244 140.89161 204.06864 140.89161 C 202.9639 140.89161 202.41153 140.1183 202.63248 139.01355 C 203.07438 136.47265 205.72576 135.8098 205.72576 138.3507 C 205.83623 140.1183 205.9467 140.1183 207.16192 138.57166 C 207.93524 137.68786 209.3714 136.58312 210.36567 136.14122 C 211.58089 135.69933 212.02278 134.81553 211.69136 133.7108 C 211.24946 132.60605 211.69136 132.05368 212.90658 132.05368 C 213.90084 132.05368 214.5637 132.71653 214.23227 133.37937 Z" fill="#f3f3f3"/>
        </g>
        <g id="Graphic_1515">
          <path d="M 218.7617 134.15269 C 219.09313 135.03648 218.65123 135.47838 217.76744 135.14696 C 216.99412 134.92601 216.11033 134.04222 215.88938 133.2689 C 215.55796 132.3851 215.99985 131.9432 216.88365 132.27463 C 217.65696 132.49558 218.54076 133.37937 218.7617 134.15269 Z" fill="#f3f3f3"/>
        </g>
        <g id="Graphic_1514">
          <path d="M 232.23955 132.49558 C 232.23955 132.71653 231.35576 133.60032 230.3615 134.37364 C 228.5939 135.8098 228.48343 135.69933 229.9196 133.93174 C 231.35576 132.16415 232.23955 131.61178 232.23955 132.49558 Z" fill="#f3f3f3"/>
        </g>
        <g id="Graphic_1513">
          <path d="M 158.22187 139.45545 C 158.22187 142.32778 158.1114 142.32778 156.34381 140.56019 C 154.57623 138.7926 154.57623 138.46118 156.01239 137.57739 C 158.22187 136.14122 158.22187 136.14122 158.22187 139.45545 Z" fill="#f3f3f3"/>
        </g>
        <g id="Graphic_1512">
          <path d="M 163.08274 137.13549 C 164.85032 137.79834 165.62364 141.99635 163.96653 141.99635 C 162.64084 141.99635 160.43136 139.45545 160.43136 137.90881 C 160.43136 136.2517 160.6523 136.2517 163.08274 137.13549 Z" fill="#f3f3f3"/>
        </g>
        <g id="Graphic_1511">
          <path d="M 152.80864 139.34497 C 154.13433 141.00209 154.02385 141.11256 151.81437 140.44972 C 150.3782 139.89735 149.38394 140.1183 149.38394 140.78114 C 149.38394 142.6592 146.40114 142.2173 145.62782 140.22877 C 145.07545 138.7926 145.40687 138.57166 147.17446 139.01355 C 148.38967 139.34497 149.71536 139.12403 150.04679 138.57166 C 150.8201 137.24597 151.04105 137.24597 152.80864 139.34497 Z" fill="#f3f3f3"/>
        </g>
        <g id="Graphic_1510">
          <path d="M 220.0874 138.46118 C 220.0874 139.89735 218.7617 140.89161 217.65696 140.22877 C 216.55222 139.56592 217.5465 137.57739 219.09313 137.57739 C 219.6455 137.57739 220.0874 138.01928 220.0874 138.46118 Z" fill="#f3f3f3"/>
        </g>
        <g id="Graphic_1509">
          <path d="M 171.8102 143.87441 C 171.03687 144.09536 169.49024 144.09536 168.49597 143.87441 C 167.39123 143.543 168.05407 143.32204 169.82166 143.32204 C 171.69972 143.32204 172.47304 143.543 171.8102 143.87441 Z" fill="#f3f3f3"/>
        </g>
        <g id="Graphic_1508">
          <path d="M 196.44593 152.82282 C 197.10877 156.91036 197.4402 160.88743 197.10877 161.55028 C 196.88782 162.43407 194.4574 162.98644 190.70127 162.98644 C 185.17756 162.98644 183.18903 161.8817 185.8404 160.22459 C 187.38705 159.23032 187.27657 153.81709 185.61946 152.15998 C 183.7414 150.28192 180.3167 150.50286 177.88627 152.71235 C 174.3511 155.9161 174.79493 161.17108 179.65579 161.17108 C 181.42337 161.17108 181.53385 161.39203 180.20816 162.27582 C 177.77773 163.93293 169.26929 163.31786 169.15881 161.55028 C 168.8274 158.8989 169.37976 149.17717 169.93213 147.29911 C 170.59498 145.08963 174.68252 144.53726 187.05563 145.08963 L 195.34119 145.42105 L 196.44593 152.82282 Z" fill="#f3f3f3"/>
        </g>
        <g id="Graphic_1507">
          <path d="M 167.61218 147.74101 C 167.28075 149.17717 166.83886 152.60187 166.72838 155.58467 C 166.50743 158.457 165.95506 161.21886 165.29222 161.77123 C 164.18748 162.87597 141.09838 163.87024 140.10411 162.98644 C 139.77269 162.65502 140.43553 158.8989 141.54028 154.70088 C 143.74976 145.75247 143.86023 145.642 159.10567 145.42105 C 168.05407 145.31058 168.16455 145.31058 167.61218 147.74101 Z" fill="#f3f3f3"/>
        </g>
        <g id="Graphic_1506">
          <path d="M 218.43028 146.30485 C 221.3026 146.85722 221.85498 147.63054 222.73878 152.27045 C 223.29115 155.4742 224.17494 157.46273 225.1692 157.46273 C 226.053 157.46273 226.71584 157.90463 226.71584 158.56748 C 226.71584 159.11985 226.27395 159.67222 225.6111 159.67222 C 225.05873 159.67222 224.50636 160.66649 224.50636 161.8817 C 224.50636 163.87024 223.84352 163.9807 213.238 163.42834 C 206.94097 163.2074 201.41726 162.43407 200.97537 161.99217 C 199.76015 160.77696 198.10304 152.82282 197.99257 148.29338 L 197.99257 145.31058 L 206.60955 145.42105 C 211.24946 145.53153 216.55222 145.86295 218.43028 146.30485 Z" fill="#f3f3f3"/>
        </g>
        <g id="Graphic_1505">
          <path d="M 175.45584 165.19593 C 177.99675 165.19593 178.10722 165.52735 178.10722 172.92912 L 178.10722 180.6623 L 172.14162 180.6623 C 163.1932 180.6623 159.54756 178.67377 165.18174 176.79571 C 167.5017 176.0224 167.5017 175.91192 164.5189 175.47002 C 162.53036 175.1386 160.54183 175.69097 159.21614 176.90619 C 156.23334 179.55756 155.68097 178.34235 156.45429 171.38248 L 157.2276 165.3064 L 163.52463 164.8645 C 166.94933 164.75403 170.4845 164.64355 171.25782 164.8645 C 172.14162 165.08545 174.01968 165.19593 175.45584 165.19593 Z" fill="#f3f3f3"/>
        </g>
        <g id="Graphic_1504">
          <path d="M 153.8029 176.24334 L 152.47722 183.75558 L 145.18592 184.19748 C 137.67368 184.5289 135.57467 183.6451 136.78989 180.6623 C 137.12131 179.77851 137.67368 176.13287 138.0051 172.70817 L 138.66795 166.41114 L 146.51161 166.07972 C 152.25627 165.85877 154.46575 166.1902 154.6867 167.18446 C 154.90765 167.95778 154.46575 172.04532 153.8029 176.24334 Z" fill="#f3f3f3"/>
        </g>
        <g id="Graphic_1503">
          <path d="M 206.8305 168.06825 C 208.1562 171.38248 208.26666 178.45282 207.16192 178.45282 C 206.60955 178.45282 205.5048 177.90045 204.62102 177.34808 C 203.51627 176.68524 202.30106 176.90619 200.75442 178.34235 C 199.0973 179.88899 196.22498 180.55183 190.03843 180.88325 C 185.28804 181.21468 181.42144 180.99373 181.42144 180.44136 C 181.42144 179.99946 181.97381 179.55756 182.52619 179.55756 C 183.18903 179.55756 183.63093 177.45856 183.63093 174.80718 C 183.63093 165.19593 183.63093 165.19593 195.34119 165.19593 C 205.5048 165.19593 205.83623 165.3064 206.8305 168.06825 Z" fill="#f3f3f3"/>
        </g>
        <g id="Graphic_1502">
          <path d="M 225.27968 167.8473 C 226.9368 169.28347 229.36722 181.21468 228.5939 183.42416 C 228.152 184.30795 226.16347 184.63938 222.07593 184.30795 C 211.35994 183.42416 211.58089 183.6451 210.6971 176.57476 C 210.36567 173.0396 209.70283 169.06252 209.3714 167.8473 C 208.9295 165.52735 209.15046 165.41687 216.44175 165.96924 C 220.5293 166.30067 224.61684 167.18446 225.27968 167.8473 Z" fill="#f3f3f3"/>
        </g>
        <g id="Graphic_1501">
          <path d="M 200.09158 188.94787 C 202.19058 190.9364 202.9639 193.0354 203.18485 197.23343 L 203.51627 202.75714 L 193.5736 202.75714 L 183.63093 202.75714 L 183.63093 194.58205 C 183.63093 185.30222 183.7414 185.30222 192.46886 185.96507 C 195.89356 186.18601 198.324 187.18028 200.09158 188.94787 Z" fill="#f3f3f3"/>
        </g>
        <g id="Graphic_1500">
          <path d="M 228.48343 187.18028 C 229.9196 187.29076 232.9024 198.33817 232.79192 202.75714 C 232.79192 205.8504 233.23382 205.73994 215.88938 204.30377 C 207.16192 203.53045 206.60955 203.08856 205.28386 195.79726 C 204.62102 192.2621 204.95244 191.15735 207.38287 188.61644 C 210.14472 185.63364 210.47615 185.63364 218.7617 186.40696 C 223.40162 186.73838 227.8206 187.18028 228.48343 187.18028 Z" fill="#f3f3f3"/>
        </g>
        <g id="Graphic_1499">
          <path d="M 156.34381 187.84313 C 156.7857 188.72692 158.1114 189.50024 159.32661 189.50024 C 162.41989 189.50024 163.08274 191.8202 161.86752 198.11722 L 160.98373 203.3095 L 148.05825 204.41425 C 133.80709 205.62946 128.94622 207.50752 141.09838 207.06563 L 148.83157 206.84468 L 148.61062 214.9093 C 148.50015 219.43873 147.8373 223.30533 147.06398 223.74722 C 145.18592 224.96244 130.27191 226.06718 129.38812 225.1834 C 128.6148 224.41007 129.38812 218.7759 131.26618 211.59507 C 131.5976 210.04843 132.14997 207.28658 132.26045 205.519 C 132.4814 203.64093 133.25471 199.99528 133.91756 197.23343 C 134.5804 194.47157 135.24325 190.9364 135.24325 189.38976 C 135.35372 186.6279 135.4642 186.51744 145.51735 186.29649 C 153.91338 186.07554 155.90192 186.40696 156.34381 187.84313 Z" fill="#f3f3f3"/>
        </g>
        <g id="Graphic_1498">
          <path d="M 178.32817 193.4773 C 178.43864 197.45438 178.43864 201.2105 178.10722 201.6524 C 177.55485 202.53619 172.36256 203.08856 167.39123 202.8676 C 164.9608 202.75714 164.85032 202.31524 164.85032 194.47157 L 164.85032 186.18601 L 171.3683 186.18601 L 177.88627 186.18601 L 178.32817 193.4773 Z" fill="#f3f3f3"/>
        </g>
        <g id="Graphic_1497">
          <path d="M 178.32817 205.73994 C 178.88054 206.07136 178.32817 207.28658 177.11295 208.39132 C 174.01968 211.26365 174.24062 213.1417 177.55485 215.3512 C 179.21196 216.45593 180.3167 218.22352 180.3167 219.77015 C 180.3167 222.20059 179.8748 222.31106 169.6007 222.9739 C 163.6351 223.4158 157.11713 223.74722 155.23907 223.74722 L 151.59342 223.74722 L 151.59342 214.9093 L 151.59342 206.18183 L 160.2104 205.8504 C 164.85032 205.62946 170.70545 205.40852 173.0254 205.29804 C 175.45584 205.18757 177.7758 205.29804 178.32817 205.73994 Z" fill="#f3f3f3"/>
        </g>
        <g id="Graphic_1496">
          <path d="M 213.45895 206.84468 C 214.34274 207.06563 219.31408 207.39705 224.50636 207.50752 L 233.89666 207.72847 L 235.77473 217.11878 C 236.769 222.20059 237.5423 226.61955 237.32136 226.73003 C 237.2109 226.8405 232.9024 226.28813 227.7101 225.40434 C 218.43028 223.74722 211.69136 223.19485 192.80028 222.86343 L 182.52619 222.64248 L 182.52619 219.32826 C 182.52619 217.11878 183.07856 216.01403 184.1833 216.01403 C 186.7242 216.01403 188.27084 212.14744 186.94515 208.83321 C 186.39278 207.28658 185.8404 205.62946 185.8404 205.40852 C 185.8404 204.74567 211.139 205.96089 213.45895 206.84468 Z" fill="#f3f3f3"/>
        </g>
        <g id="Graphic_1495">
          <path d="M 200.64395 226.06718 C 200.8649 226.28813 201.19632 229.93378 201.52774 234.24227 L 201.85916 241.97546 L 185.0671 241.64404 L 168.16455 241.3126 L 168.16455 233.80037 C 168.16455 229.71283 168.3855 226.06718 168.71692 225.73576 C 169.37976 225.07291 199.9811 225.40434 200.64395 226.06718 Z" fill="#f3f3f3"/>
        </g>
        <g id="Graphic_1494">
          <path d="M 165.73411 233.35848 L 165.4027 240.76024 L 161.5361 241.64404 C 159.43709 242.08593 154.79717 242.74878 151.37248 243.0802 C 146.73256 243.63257 144.96497 244.29542 144.96497 245.51063 C 144.96497 246.83632 146.18019 246.9468 152.1458 246.39442 C 158.88472 245.6211 159.32661 245.73158 159.32661 247.8306 C 159.32661 250.26102 153.36101 265.50645 151.92485 266.83214 C 150.3782 268.2683 131.70808 269.26257 131.70808 267.93688 C 131.70808 266.72167 137.45273 257.6628 141.65075 252.24955 C 143.08691 250.48197 143.52881 249.0458 142.7555 248.6039 C 141.20885 247.7201 139.55174 248.82486 138.22605 251.69718 C 137.67368 253.02287 135.9061 255.8952 134.46993 257.9942 C 133.03377 260.09322 130.49286 263.73887 128.94622 265.94835 C 127.28911 268.2683 125.30058 270.14637 124.41678 270.14637 C 123.53299 270.14637 122.98062 270.4778 123.20157 270.9197 C 123.53299 271.47206 120.55019 271.91395 116.57312 272.02443 C 112.70652 272.1349 108.83993 272.68727 108.06661 273.35012 C 107.29329 274.01296 106.18855 274.01296 105.19428 273.4606 C 103.86859 272.5768 103.86859 272.24538 105.30476 270.4778 C 106.29902 269.37305 110.16562 264.73313 114.03221 260.2037 C 119.2245 253.90667 122.2073 251.47624 125.96342 250.04007 C 128.72527 249.0458 131.26618 248.162 131.5976 248.2725 C 131.92903 248.2725 133.91756 248.2725 136.01657 248.162 C 138.66795 248.05154 139.55174 247.60964 139.10984 246.5049 C 138.77842 245.73158 138.99937 244.51636 139.55174 243.964 C 140.21459 243.30115 140.9879 239.32408 141.31933 235.0156 L 141.98217 227.17192 L 147.06398 226.73003 C 149.82584 226.50908 155.23907 226.28813 159.10567 226.17766 L 166.06554 225.9567 L 165.73411 233.35848 Z" fill="#f3f3f3"/>
        </g>
        <g id="Graphic_1493">
          <path d="M 221.7445 227.17192 C 226.053 227.83477 231.1348 228.4976 233.12335 228.71856 C 235.22235 228.9395 237.10041 229.3814 237.43184 229.60235 C 238.09468 230.37567 241.07748 241.64404 241.07748 243.74305 C 241.07748 245.28968 240.08322 245.51063 235.33283 245.1792 C 230.25102 244.8478 220.30834 243.63257 208.37714 241.86498 C 204.40007 241.3126 203.51627 239.43455 203.51627 231.149 L 203.51627 225.9567 L 208.81903 225.9567 C 211.69136 225.9567 217.5465 226.50908 221.7445 227.17192 Z" fill="#f3f3f3"/>
        </g>
        <g id="Graphic_1492">
          <path d="M 138.99937 234.46322 C 137.78416 244.8478 137.89463 244.7373 131.04523 244.7373 C 124.19583 244.7373 124.08536 244.29542 126.40532 235.12606 C 128.06243 228.71856 128.72527 228.1662 134.91183 228.1662 L 139.66222 228.1662 L 138.99937 234.46322 Z" fill="#f3f3f3"/>
        </g>
        <g id="Graphic_1491">
          <path d="M 180.3167 255.12188 L 180.3167 265.61693 L 174.01968 266.27977 C 170.4845 266.6112 165.84459 267.0531 163.6351 267.27404 C 156.67523 267.93688 156.23334 266.94262 159.21614 257.77326 C 163.74558 244.4059 162.75131 245.28968 172.03114 244.95826 L 180.3167 244.62684 L 180.3167 255.12188 Z" fill="#f3f3f3"/>
        </g>
        <g id="Graphic_1490">
          <path d="M 199.64968 247.27822 C 200.423 248.2725 202.0801 252.69145 203.4058 256.99994 C 205.83623 264.5122 205.83623 268.82068 203.51627 267.3845 C 202.85343 266.94262 198.43446 266.50072 193.5736 266.39025 C 188.71274 266.1693 184.40425 265.83787 184.07282 265.50645 C 183.2995 264.62266 183.40998 247.16774 184.29377 245.73158 C 185.50899 243.74305 197.99257 245.06873 199.64968 247.27822 Z" fill="#f3f3f3"/>
        </g>
        <g id="Graphic_1489">
          <path d="M 216.2208 246.5049 C 219.31408 246.9468 222.07593 247.27822 222.51783 247.16774 C 222.95972 247.05727 223.0702 247.7201 222.6283 248.71438 C 222.29688 249.70865 223.40162 252.13908 225.27968 254.45904 C 229.0358 259.20943 234.89093 270.14637 233.67572 270.14637 C 231.68718 270.0359 209.70283 266.83214 209.48188 266.50072 C 209.26093 266.39025 207.7143 261.97128 205.9467 256.66852 C 202.522 246.39442 202.74295 244.51636 207.82477 245.28968 C 209.3714 245.51063 213.238 246.063 216.2208 246.5049 Z" fill="#f3f3f3"/>
        </g>
        <g id="Graphic_1488">
          <path d="M 244.61266 251.5867 C 247.26404 255.0114 248.03736 256.00568 255.5496 264.4017 C 263.83516 273.68154 263.94563 275.00723 256.32292 274.01296 C 253.11917 273.57107 249.36305 272.79775 247.92688 272.24538 C 246.49072 271.693 243.9498 271.2511 242.18223 271.2511 C 239.97274 271.2511 238.31563 270.25684 236.769 268.04736 C 235.4433 266.27977 234.44904 264.4017 234.44904 263.84934 C 234.44904 263.40744 232.4605 259.98275 230.03007 256.3371 C 227.59964 252.69145 225.6111 249.26675 225.6111 248.82486 C 225.6111 248.2725 229.4777 248.162 234.2281 248.49343 C 241.4089 248.93533 243.06602 249.4877 244.61266 251.5867 Z" fill="#f3f3f3"/>
        </g>
        <g id="Graphic_1487">
          <path d="M 180.42718 272.5768 C 180.53765 275.89102 180.20623 287.26986 179.98528 287.38033 C 179.8748 287.4908 173.57778 287.9327 165.95506 288.3746 C 158.33235 288.70602 151.04105 289.36887 149.71536 289.7003 C 146.95351 290.36314 146.51161 289.2584 145.51735 278.76335 L 144.74403 271.36158 L 148.38967 271.03016 C 150.48868 270.8092 158.44282 270.58826 166.28649 270.3673 C 180.20623 270.0359 180.3167 270.0359 180.42718 272.5768 Z" fill="#f3f3f3"/>
        </g>
        <g id="Graphic_1486">
          <path d="M 216.55222 271.693 C 217.43602 272.24538 217.87791 275.5596 217.87791 281.30426 L 217.87791 290.1422 L 210.47615 289.47934 C 206.27813 289.03745 198.54494 288.3746 193.02123 288.04318 L 183.07856 287.26986 L 182.96808 278.65288 L 182.8576 269.92542 L 198.98683 270.3673 C 207.93524 270.58826 215.7789 271.14063 216.55222 271.693 Z" fill="#f3f3f3"/>
        </g>
        <g id="Graphic_1485">
          <path d="M 143.41834 281.30426 L 143.52881 289.81077 L 128.72527 291.68883 C 113.2589 293.78783 106.74092 296.32874 119.88734 295.33447 L 127.17864 294.67163 L 127.84148 299.31154 C 128.28338 301.74197 128.39385 305.8295 128.1729 308.14947 C 127.95196 310.91133 128.39385 312.56844 129.27765 312.89986 C 130.27191 313.34176 130.60334 311.0218 130.60334 303.95146 C 130.60334 298.75917 131.1557 294.22973 131.70808 293.8983 C 132.9233 293.125 134.35946 293.0145 150.26773 291.68883 C 160.2104 290.9155 160.43136 290.9155 160.43136 293.23546 C 160.43136 294.56115 159.21614 297.54396 157.6695 299.75344 C 153.69243 305.60857 154.2448 307.70758 158.5533 302.73624 L 162.19894 298.6487 L 165.62364 301.52103 C 167.5017 303.06766 169.6007 304.39335 170.26355 304.39335 C 172.03114 304.39335 171.69972 306.16094 169.6007 308.25995 C 168.3855 309.47516 166.83886 309.91706 164.9608 309.47516 C 163.41416 309.03327 160.09993 308.4809 157.6695 308.14947 C 153.69243 307.5971 153.47148 307.70758 155.23907 309.14374 C 156.23334 310.02753 157.11713 311.0218 157.11713 311.35322 C 157.11713 311.68465 154.02385 312.237 150.26773 312.56844 C 135.24325 313.78366 130.82428 314.11508 121.43398 314.77792 L 111.71226 315.55124 L 111.71226 301.96292 C 111.71226 281.19378 111.9332 277.43766 112.70652 276.55387 C 113.92174 275.33865 132.9233 272.46632 138.33653 272.68727 L 143.30786 272.90822 L 143.41834 281.30426 Z" fill="#f3f3f3"/>
        </g>
        <g id="Graphic_1484">
          <path d="M 235.55378 273.57107 C 240.74606 274.2339 246.49072 274.89676 248.2583 275.00723 C 253.782 275.33865 254.33438 276.22244 254.33438 285.61275 C 254.33438 290.36314 254.00296 294.56115 253.56106 294.7821 C 253.0087 295.11352 247.70593 294.3402 241.62986 293.23546 C 235.55378 292.13072 228.70438 291.24693 226.4949 291.13646 C 223.73304 291.13646 222.07593 290.4736 221.3026 289.14792 C 220.5293 287.60128 219.53503 276.11197 219.97692 273.12917 C 220.0874 272.02443 224.61684 272.1349 235.55378 273.57107 Z" fill="#f3f3f3"/>
        </g>
        <g id="Graphic_1483">
          <path d="M 170.81593 291.13646 C 174.68252 292.57262 174.46157 295.00305 170.26355 297.10206 C 167.61218 298.42775 166.39696 298.53822 165.29222 297.65443 C 163.08274 295.88684 163.41416 291.3574 165.73411 290.80503 C 166.72838 290.4736 167.72265 290.25266 167.83312 290.1422 C 167.9436 290.1422 169.26929 290.4736 170.81593 291.13646 Z" fill="#f3f3f3"/>
        </g>
        <g id="Graphic_1482">
          <path d="M 188.82321 293.34594 C 189.15463 294.56115 189.81748 295.55542 190.25938 295.55542 C 190.70127 295.55542 191.36412 294.56115 191.69554 293.34594 C 192.13744 291.57835 193.24218 291.13646 196.77735 291.13646 C 202.74295 291.13646 203.62675 293.34594 199.42873 297.54396 C 194.8993 302.0734 189.92795 305.27715 188.38132 304.72478 C 186.17183 303.95146 190.1489 298.75917 192.57933 299.0906 C 193.68407 299.31154 194.67834 298.86965 194.8993 298.31727 C 195.12024 297.65443 193.5736 297.10206 191.58507 296.8811 C 188.38132 296.5497 187.82894 296.8811 186.83468 299.9744 C 185.8404 302.73624 185.0671 303.3991 182.74713 303.06766 C 180.53765 302.8467 179.76433 301.74197 178.54912 297.87538 C 177.7758 295.11352 177.3339 292.57262 177.66532 292.02025 C 177.99675 291.57835 180.53765 291.13646 183.2995 291.13646 C 187.27657 291.13646 188.38132 291.57835 188.82321 293.34594 Z" fill="#f3f3f3"/>
        </g>
        <g id="Graphic_1481">
          <path d="M 216.99412 292.79357 C 223.5121 293.34594 232.23955 294.45068 235.33283 295.11352 C 237.65279 295.55542 237.76326 296.1078 237.76326 304.83525 C 237.76326 309.8066 237.5423 314.22555 237.2109 314.55697 C 236.87947 314.77792 233.7862 314.66745 230.3615 314.22555 C 226.4949 313.6732 223.5121 313.78366 222.73878 314.4465 C 221.85498 315.10935 221.3026 315.10935 220.9712 314.4465 C 220.86072 313.89413 217.65696 313.1208 214.1218 312.89986 C 210.58662 312.56844 207.2724 311.68465 206.72002 310.91133 C 205.72576 309.2542 207.49334 306.60284 209.70283 306.60284 C 212.7961 306.60284 212.46468 303.95146 208.59808 300.08486 C 202.9639 294.3402 203.29533 290.4736 209.15046 291.68883 C 210.91804 292.13072 214.34274 292.57262 216.99412 292.79357 Z" fill="#f3f3f3"/>
        </g>
        <g id="Graphic_1480">
          <path d="M 253.11917 298.31727 C 254.88675 300.08486 254.88675 313.89413 253.11917 316.1036 C 252.01443 317.4293 246.49072 317.4293 243.06602 315.99314 C 242.07175 315.6617 240.967 314.22555 240.6356 312.89986 C 239.86227 309.8066 239.7518 297.21253 240.5251 296.4392 C 241.62986 295.33447 251.57253 296.8811 253.11917 298.31727 Z" fill="#f3f3f3"/>
        </g>
        <g id="Graphic_1479">
          <path d="M 176.33963 300.52676 C 177.99675 303.06766 177.99675 303.2886 175.78726 304.50383 C 173.79873 305.4981 173.0254 305.27715 171.03687 303.2886 C 168.71692 300.96865 168.71692 300.96865 170.81593 299.31154 C 173.79873 297.21253 174.24062 297.323 176.33963 300.52676 Z" fill="#f3f3f3"/>
        </g>
        <g id="Graphic_1478">
          <path d="M 206.16765 302.0734 C 208.04571 304.06193 207.93524 304.28288 204.2896 307.04473 C 199.9811 310.35896 197.77162 310.69038 195.78308 308.25995 C 194.56787 306.8238 194.8993 305.94 197.4402 303.2886 C 201.08584 299.422 203.51627 299.0906 206.16765 302.0734 Z" fill="#f3f3f3"/>
        </g>
        <g id="Graphic_1477">
          <path d="M 180.09575 307.92853 C 179.76433 308.70184 178.54912 309.91706 177.3339 310.46943 C 176.11868 311.13228 175.34537 312.12654 175.56631 312.89986 C 176.11868 314.55697 174.01968 315.7722 173.13588 314.33603 C 172.03114 312.56844 173.68825 308.59137 175.34537 309.2542 C 176.11868 309.47516 177.11295 309.03327 177.44437 308.14947 C 178.2177 306.2714 180.64812 306.05047 180.09575 307.92853 Z" fill="#f3f3f3"/>
        </g>
        <g id="Graphic_1476">
          <path d="M 184.73567 308.25995 C 183.96235 309.14374 182.96808 309.91706 182.41571 309.91706 C 181.86334 309.91706 181.42144 309.14374 181.42144 308.25995 C 181.42144 307.26568 182.41571 306.60284 183.7414 306.60284 C 185.72994 306.60284 185.8404 306.8238 184.73567 308.25995 Z" fill="#f3f3f3"/>
        </g>
        <g id="Graphic_1475">
          <path d="M 165.4027 315.55124 C 165.4027 316.43504 164.077 317.20835 162.41989 317.4293 C 159.21614 317.76072 158.5533 316.43504 159.98946 312.6789 C 160.6523 311.13228 160.98373 311.13228 163.08274 312.45797 C 164.29795 313.34176 165.4027 314.77792 165.4027 315.55124 Z" fill="#f3f3f3"/>
        </g>
        <g id="Graphic_1474">
          <path d="M 205.17339 313.2313 C 206.16765 316.2141 205.0629 317.65025 201.74869 317.65025 C 199.9811 317.65025 199.0973 316.9874 199.0973 315.6617 C 199.0973 311.35322 203.95817 309.3647 205.17339 313.2313 Z" fill="#f3f3f3"/>
        </g>
        <g id="Graphic_1473">
          <path d="M 184.73567 314.0046 C 184.73567 315.10935 184.07282 315.44077 182.96808 314.99887 C 181.97381 314.66745 180.53765 314.33603 179.65386 314.33603 C 176.56058 314.33603 178.2177 312.45797 181.42144 312.3475 C 183.7414 312.3475 184.73567 312.7894 184.73567 314.0046 Z" fill="#f3f3f3"/>
        </g>
        <g id="Graphic_1472">
          <path d="M 190.03843 313.34176 C 189.81748 314.0046 189.15463 314.4465 188.60226 314.4465 C 188.0499 314.4465 187.38705 314.0046 187.1661 313.34176 C 186.94515 312.6789 187.608 312.12654 188.60226 312.12654 C 189.59653 312.12654 190.25938 312.6789 190.03843 313.34176 Z" fill="#f3f3f3"/>
        </g>
        <g id="Graphic_1471">
          <path d="M 194.67834 313.2313 C 194.67834 313.78366 194.23645 314.33603 193.5736 314.33603 C 193.02123 314.33603 192.46886 313.78366 192.46886 313.2313 C 192.46886 312.56844 193.02123 312.12654 193.5736 312.12654 C 194.23645 312.12654 194.67834 312.56844 194.67834 313.2313 Z" fill="#f3f3f3"/>
        </g>
        <g id="Graphic_1470">
          <path d="M 154.13433 316.32456 C 150.3782 316.656 150.26773 316.9874 149.93631 323.94728 C 149.82584 328.1453 150.48868 327.7034 152.1458 322.84254 C 153.14006 319.6388 153.58196 319.30736 157.11713 319.6388 C 163.52463 320.19116 164.85032 320.96448 164.85032 323.8368 C 164.85032 326.26723 164.40842 326.4882 160.2104 326.4882 C 157.55903 326.4882 154.6867 327.04055 153.8029 327.59292 C 152.47722 328.4767 152.5877 328.69767 154.35528 328.69767 C 156.34381 328.69767 156.56476 329.25004 156.23334 333.11663 C 155.79144 337.867 153.8029 338.7508 149.27347 336.43086 C 147.3954 335.4366 147.17446 334.00042 147.17446 325.38344 L 147.17446 315.55124 L 151.37248 315.21982 C 153.58196 314.99887 156.01239 315.10935 156.56476 315.44077 C 157.2276 315.7722 156.01239 316.1036 154.13433 316.32456 Z" fill="#f3f3f3"/>
        </g>
        <g id="Graphic_1469">
          <path d="M 219.97692 316.1036 C 220.5293 316.5455 220.41882 335.3261 219.86645 335.8785 C 219.53503 336.2099 211.9123 336.76228 209.26093 336.54133 C 208.26666 336.43086 207.93524 335.21564 208.1562 332.7852 C 208.37714 329.8024 208.9295 329.25004 211.02852 329.471 C 213.34847 329.8024 213.45895 329.58146 212.68563 323.3949 C 212.3542 319.74926 211.24946 316.5455 210.2552 315.6617 C 208.81903 314.4465 209.3714 314.33603 214.01132 314.8884 C 217.1046 315.3303 219.75597 315.88266 219.97692 316.1036 Z" fill="#f3f3f3"/>
        </g>
        <g id="Graphic_1468">
          <path d="M 144.74403 325.71486 C 144.96497 332.7852 144.63355 335.4366 143.63928 335.768 C 141.8717 336.43086 124.08536 337.867 117.34644 337.9775 L 112.3751 338.08797 L 112.04368 328.9186 C 111.82273 322.0692 112.15415 319.6388 113.2589 319.30736 C 115.57885 318.3131 137.45273 315.6617 141.09838 315.88266 L 144.4126 315.99314 L 144.74403 325.71486 Z" fill="#f3f3f3"/>
        </g>
        <g id="Graphic_1467">
          <path d="M 175.34537 319.85973 C 174.793 320.74353 174.13015 320.74353 173.4673 320.0807 C 172.80446 319.41784 172.69399 318.3131 173.13588 317.65025 C 173.68825 316.76646 174.3511 316.76646 175.01394 317.4293 C 175.67679 318.09215 175.78726 319.1969 175.34537 319.85973 Z" fill="#f3f3f3"/>
        </g>
        <g id="Graphic_1466">
          <path d="M 190.25938 319.41784 C 190.25938 321.18542 188.4918 321.51685 187.49752 319.85973 C 186.61373 318.42357 187.93942 316.32456 189.2651 317.09788 C 189.81748 317.53978 190.25938 318.53404 190.25938 319.41784 Z" fill="#f3f3f3"/>
        </g>
        <g id="Graphic_1465">
          <path d="M 195.23071 320.19116 C 193.02123 321.40637 192.02696 320.52258 192.91076 318.09215 C 193.46313 316.656 193.90502 316.5455 195.34119 317.76072 C 196.88782 318.97594 196.88782 319.1969 195.23071 320.19116 Z" fill="#f3f3f3"/>
        </g>
        <g id="Graphic_1464">
          <path d="M 243.28697 318.20262 C 252.23537 319.6388 253.782 320.4121 253.67154 323.5054 C 253.67154 325.1625 253.56106 329.471 253.4506 333.11663 L 253.22964 339.85555 L 246.9326 339.3032 C 231.24529 337.9775 224.3959 337.20418 224.06447 336.54133 C 223.84352 336.2099 223.29115 331.4595 222.95972 326.0463 L 222.1864 316.2141 L 231.35576 316.9874 C 236.43757 317.4293 241.74033 317.98167 243.28697 318.20262 Z" fill="#f3f3f3"/>
        </g>
        <g id="Graphic_1463">
          <path d="M 170.37403 318.755 C 170.37403 319.30736 169.93213 319.85973 169.26929 319.85973 C 168.71692 319.85973 168.16455 319.30736 168.16455 318.755 C 168.16455 318.09215 168.71692 317.65025 169.26929 317.65025 C 169.93213 317.65025 170.37403 318.09215 170.37403 318.755 Z" fill="#f3f3f3"/>
        </g>
        <g id="Graphic_1462">
          <path d="M 180.09575 318.86547 C 179.8748 319.5283 179.21196 319.9702 178.6596 319.9702 C 178.10722 319.9702 177.44437 319.5283 177.22343 318.86547 C 177.00248 318.20262 177.66532 317.65025 178.6596 317.65025 C 179.65386 317.65025 180.3167 318.20262 180.09575 318.86547 Z" fill="#f3f3f3"/>
        </g>
        <g id="Graphic_1461">
          <path d="M 184.51472 318.97594 C 183.85188 320.96448 181.42144 321.2959 181.42144 319.41784 C 181.42144 318.42357 182.19476 317.65025 183.18903 317.65025 C 184.1833 317.65025 184.73567 318.20262 184.51472 318.97594 Z" fill="#f3f3f3"/>
        </g>
        <g id="Graphic_1460">
          <path d="M 210.14472 323.17396 C 210.14472 326.3777 210.03425 326.4882 204.62102 326.4882 C 199.5392 326.4882 199.0973 326.26723 199.0973 323.94728 C 199.0973 320.30163 199.87063 319.85973 205.39433 319.85973 C 209.92377 319.85973 210.14472 319.9702 210.14472 323.17396 Z" fill="#f3f3f3"/>
        </g>
        <g id="Graphic_1459">
          <path d="M 175.67679 325.1625 C 175.89774 326.0463 174.90347 326.3777 172.36256 326.0463 C 167.28075 325.38344 167.28075 325.27297 170.37403 324.2787 C 173.68825 323.17396 175.01394 323.3949 175.67679 325.1625 Z" fill="#f3f3f3"/>
        </g>
        <g id="Graphic_1458">
          <path d="M 180.3167 325.4939 C 180.3167 326.0463 179.54338 326.4882 178.6596 326.4882 C 177.00248 326.4882 176.4501 325.1625 177.66532 323.94728 C 178.54912 323.0635 180.3167 324.05775 180.3167 325.4939 Z" fill="#f3f3f3"/>
        </g>
        <g id="Graphic_1457">
          <path d="M 184.73567 325.4939 C 184.73567 326.0463 183.96235 326.4882 183.07856 326.4882 C 181.42144 326.4882 180.86907 325.1625 182.08429 323.94728 C 182.96808 323.0635 184.73567 324.05775 184.73567 325.4939 Z" fill="#f3f3f3"/>
        </g>
        <g id="Graphic_1456">
          <path d="M 190.03843 325.052 C 189.59653 327.48245 187.608 327.2615 187.1661 324.94154 C 186.94515 323.8368 187.49752 323.17396 188.60226 323.17396 C 189.707 323.17396 190.25938 323.94728 190.03843 325.052 Z" fill="#f3f3f3"/>
        </g>
        <g id="Graphic_1455">
          <path d="M 195.56213 325.1625 C 195.78308 325.9358 195.23071 326.4882 194.23645 326.4882 C 193.24218 326.4882 192.46886 325.71486 192.46886 324.7206 C 192.46886 322.84254 194.8993 323.17396 195.56213 325.1625 Z" fill="#f3f3f3"/>
        </g>
        <g id="Graphic_1454">
          <path d="M 170.15308 330.57573 C 170.37403 332.0119 170.0426 333.11663 169.37976 333.11663 C 168.71692 333.11663 168.16455 332.56426 168.16455 331.9014 C 168.16455 331.1281 167.28075 329.9129 166.28649 329.0291 C 164.40842 327.7034 164.5189 327.59292 167.0598 327.81387 C 168.93787 328.03482 169.93213 328.9186 170.15308 330.57573 Z" fill="#f3f3f3"/>
        </g>
        <g id="Graphic_1453">
          <path d="M 205.17339 333.11663 C 205.17339 336.54133 204.84196 336.98323 202.41153 336.98323 C 200.31252 336.98323 199.5392 336.3204 199.31826 334.44232 C 198.76589 330.46525 199.87063 328.4767 202.63248 328.9186 C 204.7315 329.13956 205.17339 329.9129 205.17339 333.11663 Z" fill="#f3f3f3"/>
        </g>
        <g id="Graphic_1452">
          <path d="M 164.29795 333.669 C 164.29795 336.43086 163.85605 336.98323 161.5361 336.98323 C 159.21614 336.98323 158.66377 336.43086 158.44282 333.33758 C 158.1114 329.9129 158.22187 329.69193 161.20467 330.02336 C 163.85605 330.35478 164.29795 330.90715 164.29795 333.669 Z" fill="#f3f3f3"/>
        </g>
        <g id="Graphic_1451">
          <path d="M 174.793 331.4595 C 174.793 332.3433 174.3511 333.11663 173.68825 333.11663 C 173.13588 333.11663 172.58351 332.3433 172.58351 331.4595 C 172.58351 330.57573 173.13588 329.8024 173.68825 329.8024 C 174.3511 329.8024 174.793 330.57573 174.793 331.4595 Z" fill="#f3f3f3"/>
        </g>
        <g id="Graphic_1450">
          <path d="M 179.21196 331.4595 C 179.21196 332.3433 178.77006 333.11663 178.10722 333.11663 C 177.55485 333.11663 177.00248 332.3433 177.00248 331.4595 C 177.00248 330.57573 177.55485 329.8024 178.10722 329.8024 C 178.77006 329.8024 179.21196 330.57573 179.21196 331.4595 Z" fill="#f3f3f3"/>
        </g>
        <g id="Graphic_1449">
          <path d="M 183.85188 334.44232 C 184.51472 339.85555 183.07856 342.50693 181.6424 338.7508 C 180.64812 335.8785 181.2005 329.8024 182.52619 329.8024 C 182.96808 329.8024 183.63093 331.9014 183.85188 334.44232 Z" fill="#f3f3f3"/>
        </g>
        <g id="Graphic_1448">
          <path d="M 190.25938 332.0119 C 190.25938 333.2271 189.48606 334.22137 188.60226 334.22137 C 187.71847 334.22137 186.94515 333.2271 186.94515 332.0119 C 186.94515 330.79667 187.71847 329.8024 188.60226 329.8024 C 189.48606 329.8024 190.25938 330.79667 190.25938 332.0119 Z" fill="#f3f3f3"/>
        </g>
        <g id="Graphic_1447">
          <path d="M 195.78308 331.4595 C 195.78308 332.3433 195.00976 333.11663 194.12597 333.11663 C 193.24218 333.11663 192.46886 332.3433 192.46886 331.4595 C 192.46886 330.57573 193.24218 329.8024 194.12597 329.8024 C 195.00976 329.8024 195.78308 330.57573 195.78308 331.4595 Z" fill="#f3f3f3"/>
        </g>
        <g id="Graphic_1446">
          <path d="M 169.26929 337.20418 C 169.26929 340.0765 169.15881 340.0765 167.72265 337.9775 C 166.50743 336.43086 166.50743 335.65754 167.39123 335.10517 C 169.26929 333.88995 169.26929 333.88995 169.26929 337.20418 Z" fill="#f3f3f3"/>
        </g>
        <g id="Graphic_1445">
          <path d="M 195.56213 337.20418 C 195.00976 339.96603 192.46886 340.29745 192.46886 337.64607 C 192.46886 336.3204 193.1317 335.3261 194.23645 335.3261 C 195.23071 335.3261 195.78308 336.09943 195.56213 337.20418 Z" fill="#f3f3f3"/>
        </g>
        <g id="Graphic_1444">
          <path d="M 175.2349 338.3089 C 175.89774 339.85555 176.11868 339.85555 177.55485 337.9775 C 179.10149 335.8785 179.10149 335.8785 179.21196 338.08797 C 179.21196 339.85555 178.43864 340.40793 176.00821 340.62887 C 172.58351 340.84982 170.81593 339.52413 172.03114 337.5356 C 173.0254 335.8785 174.46157 336.2099 175.2349 338.3089 Z" fill="#f3f3f3"/>
        </g>
        <g id="Graphic_1443">
          <path d="M 190.25938 338.64034 C 190.25938 339.85555 189.59653 340.84982 188.71274 340.84982 C 186.7242 340.84982 185.50899 339.08224 186.39278 337.5356 C 187.608 335.54706 190.25938 336.3204 190.25938 338.64034 Z" fill="#f3f3f3"/>
        </g>
        <g id="Graphic_1442">
          <path d="M 148.7211 340.40793 C 149.82584 341.4022 150.48868 344.05357 150.48868 347.03637 C 150.48868 351.5658 150.70963 351.89724 153.36101 351.89724 C 155.90192 351.89724 156.12286 352.22866 155.79144 355.9848 L 155.46002 360.1828 L 143.9707 360.5142 C 137.01084 360.73517 132.0395 360.40375 131.26618 359.63043 C 130.05096 358.4152 128.94622 342.7279 129.94049 340.18698 C 130.82428 337.867 146.40114 337.9775 148.7211 340.40793 Z" fill="#f3f3f3"/>
        </g>
        <g id="Graphic_1441">
          <path d="M 127.28911 350.24012 L 127.28911 360.84564 L 119.88734 360.5142 L 112.3751 360.1828 L 112.3751 350.7925 L 112.3751 341.4022 L 116.2417 340.73935 C 118.3407 340.29745 121.7654 339.96603 123.75394 339.85555 L 127.28911 339.7451 L 127.28911 350.24012 Z" fill="#f3f3f3"/>
        </g>
        <g id="Graphic_1440">
          <path d="M 209.92377 341.07077 C 210.58662 341.8441 210.80757 343.83262 210.47615 345.48974 C 209.92377 348.36206 209.48188 348.583 204.51054 348.583 C 198.43446 348.583 197.77162 347.92017 198.6554 343.16978 C 199.31826 339.96603 199.64968 339.7451 204.06864 339.7451 C 206.60955 339.7451 209.26093 340.40793 209.92377 341.07077 Z" fill="#f3f3f3"/>
        </g>
        <g id="Graphic_1439">
          <path d="M 231.46623 340.73935 L 235.55378 340.84982 L 235.55378 350.7925 L 235.55378 360.73517 L 221.85498 360.73517 C 214.23227 360.73517 207.82477 360.40375 207.60382 359.85138 C 207.2724 359.4095 207.38287 357.42094 207.60382 355.4324 C 208.04571 352.8915 209.03998 351.45534 210.80757 350.7925 C 213.01705 349.9087 213.45895 349.0249 213.45895 344.7164 L 213.45895 339.6346 L 220.41882 340.18698 C 224.17494 340.40793 229.14628 340.73935 231.46623 340.73935 Z" fill="#f3f3f3"/>
        </g>
        <g id="Graphic_1438">
          <path d="M 164.29795 344.7164 C 164.29795 347.92017 164.18748 348.03064 158.77424 348.03064 C 153.36101 348.03064 153.25054 348.03064 152.91911 344.385 L 152.5877 340.73935 L 158.44282 341.07077 C 164.18748 341.4022 164.29795 341.51267 164.29795 344.7164 Z" fill="#f3f3f3"/>
        </g>
        <g id="Graphic_1437">
          <path d="M 248.14783 341.95456 C 252.23537 341.95456 253.56106 343.72215 253.4506 348.6935 C 253.3401 351.2344 253.782 353.99625 254.44486 354.76956 C 255.21818 355.76383 255.32865 356.3162 254.55533 356.3162 C 254.00296 356.3162 253.22964 357.31047 252.89822 358.63616 C 252.34585 360.6247 251.57253 360.84564 245.82787 360.5142 L 239.42037 360.1828 L 239.08895 350.3506 L 238.75753 340.5184 L 242.2927 341.2917 C 244.17076 341.62314 246.82214 341.95456 248.14783 341.95456 Z" fill="#f3f3f3"/>
        </g>
        <g id="Graphic_1436">
          <path d="M 180.64812 342.7279 C 179.8748 342.94883 179.21196 344.27452 179.10149 345.6002 C 179.10149 346.9259 178.77006 347.3678 178.43864 346.59448 C 177.66532 344.60594 178.88054 341.95456 180.53765 342.06504 C 181.6424 342.06504 181.6424 342.286 180.64812 342.7279 Z" fill="#f3f3f3"/>
        </g>
        <g id="Graphic_1435">
          <path d="M 195.78308 348.03064 C 195.78308 353.00198 194.34692 355.4324 193.1317 352.4496 C 192.2479 350.01918 190.25938 350.46107 190.25938 353.00198 C 190.25938 354.43814 189.48606 355.21146 188.0499 355.21146 C 186.50325 355.21146 186.06136 354.6591 186.61373 353.22293 C 187.05563 352.22866 187.82894 350.90297 188.4918 350.46107 C 189.37558 349.79823 189.2651 349.35633 188.38132 348.91443 C 186.39278 348.1411 186.61373 344.16405 188.4918 344.16405 C 189.2651 344.16405 190.36985 345.2688 190.81175 346.59448 C 191.58507 349.0249 191.58507 349.0249 192.13744 346.9259 C 193.02123 342.7279 193.5736 341.8441 194.67834 342.50693 C 195.23071 342.83836 195.78308 345.37926 195.78308 348.03064 Z" fill="#f3f3f3"/>
        </g>
        <g id="Graphic_1434">
          <path d="M 168.93787 346.59448 C 168.60644 347.47827 168.27502 347.14685 168.27502 345.93163 C 168.16455 344.7164 168.49597 344.05357 168.8274 344.49547 C 169.15881 344.8269 169.26929 345.82116 168.93787 346.59448 Z" fill="#f3f3f3"/>
        </g>
        <g id="Graphic_1433">
          <path d="M 175.2349 345.82116 C 175.56631 346.81543 175.2349 347.47827 174.24062 347.47827 C 173.35683 347.47827 172.58351 346.70495 172.58351 345.82116 C 172.58351 344.93737 173.0254 344.16405 173.57778 344.16405 C 174.13015 344.16405 174.793 344.93737 175.2349 345.82116 Z" fill="#f3f3f3"/>
        </g>
        <g id="Graphic_1432">
          <path d="M 184.73567 345.7107 C 184.73567 346.59448 184.29377 347.6992 183.63093 348.03064 C 183.07856 348.36206 182.52619 348.47254 182.52619 348.1411 C 182.52619 347.92017 182.19476 346.9259 181.86334 345.93163 C 181.42144 344.7164 181.75287 344.16405 182.96808 344.16405 C 183.96235 344.16405 184.73567 344.8269 184.73567 345.7107 Z" fill="#f3f3f3"/>
        </g>
        <g id="Graphic_1431">
          <path d="M 169.82166 351.78676 C 170.9264 353.66482 168.8274 353.99625 166.50743 352.33913 C 164.5189 350.7925 164.5189 350.7925 166.72838 350.7925 C 168.05407 350.7925 169.37976 351.2344 169.82166 351.78676 Z" fill="#f3f3f3"/>
        </g>
        <g id="Graphic_1430">
          <path d="M 175.34537 353.00198 C 177.3339 355.101 177.22343 355.21146 175.01394 355.21146 C 173.35683 355.21146 172.58351 354.5486 172.58351 353.00198 C 172.58351 351.78676 172.80446 350.7925 172.91493 350.7925 C 173.13588 350.7925 174.24062 351.78676 175.34537 353.00198 Z" fill="#f3f3f3"/>
        </g>
        <g id="Graphic_1429">
          <path d="M 179.76433 351.78676 C 180.09575 352.33913 179.8748 353.11245 179.21196 353.55435 C 178.6596 353.88577 178.10722 353.44388 178.10722 352.5601 C 178.10722 350.57155 178.77006 350.24012 179.76433 351.78676 Z" fill="#f3f3f3"/>
        </g>
        <g id="Graphic_1428">
          <path d="M 184.73567 353.11245 C 184.73567 353.66482 184.29377 354.1067 183.63093 354.1067 C 183.07856 354.1067 182.52619 353.3334 182.52619 352.33913 C 182.52619 351.45534 183.07856 351.01344 183.63093 351.34487 C 184.29377 351.6763 184.73567 352.4496 184.73567 353.11245 Z" fill="#f3f3f3"/>
        </g>
        <g id="Graphic_1427">
          <path d="M 164.29795 355.5429 C 164.40842 359.07806 164.077 359.7409 160.76278 361.5085 C 159.21614 362.3923 158.1114 362.50276 157.6695 361.8399 C 157.33808 361.17707 157.55903 360.73517 158.1114 360.73517 C 158.88472 360.73517 159.10567 358.9676 158.77424 356.20573 C 158.22187 351.89724 158.22187 351.78676 161.20467 352.1182 C 163.74558 352.33913 164.29795 353.00198 164.29795 355.5429 Z" fill="#f3f3f3"/>
        </g>
        <g id="Graphic_1426">
          <path d="M 204.62102 356.3162 C 204.62102 360.29327 204.40007 360.73517 201.85916 360.73517 C 199.42873 360.73517 199.0973 360.29327 199.0973 356.3162 C 199.0973 352.33913 199.42873 351.89724 201.85916 351.89724 C 204.40007 351.89724 204.62102 352.33913 204.62102 356.3162 Z" fill="#f3f3f3"/>
        </g>
        <g id="Graphic_1425">
          <path d="M 184.1833 357.42094 C 184.51472 357.9733 184.40425 358.5257 183.7414 358.5257 C 183.18903 358.5257 182.30524 357.9733 181.97381 357.42094 C 181.6424 356.7581 181.75287 356.3162 182.41571 356.3162 C 182.96808 356.3162 183.85188 356.7581 184.1833 357.42094 Z" fill="#f3f3f3"/>
        </g>
        <g id="Graphic_1424">
          <path d="M 190.70127 357.31047 C 191.0327 357.86284 192.35838 358.0838 193.5736 357.75237 C 194.78882 357.42094 195.78308 357.75237 195.78308 358.4152 C 195.78308 359.07806 194.56787 359.63043 193.02123 359.63043 C 191.4746 359.63043 189.92795 359.63043 189.48606 359.7409 C 188.93369 359.7409 188.4918 358.9676 188.27084 358.0838 C 187.82894 356.20573 189.707 355.65336 190.70127 357.31047 Z" fill="#f3f3f3"/>
        </g>
        <g id="Graphic_1423">
          <path d="M 169.37976 358.8571 C 169.26929 360.1828 167.72265 359.85138 167.28075 358.4152 C 166.94933 357.75237 167.39123 357.31047 168.16455 357.5314 C 168.8274 357.86284 169.37976 358.4152 169.37976 358.8571 Z" fill="#f3f3f3"/>
        </g>
        <g id="Graphic_1422">
          <path d="M 174.793 359.07806 C 174.793 359.96185 174.3511 360.73517 173.68825 360.73517 C 173.13588 360.73517 172.58351 359.96185 172.58351 359.07806 C 172.58351 358.19426 173.13588 357.42094 173.68825 357.42094 C 174.3511 357.42094 174.793 358.19426 174.793 359.07806 Z" fill="#f3f3f3"/>
        </g>
        <g id="Graphic_1421">
          <path d="M 254.88675 361.8399 C 255.21818 362.3923 254.99723 362.94465 254.44486 362.94465 C 253.782 362.94465 253.22964 362.3923 253.22964 361.8399 C 253.22964 361.17707 253.4506 360.73517 253.67154 360.73517 C 254.00296 360.73517 254.55533 361.17707 254.88675 361.8399 Z" fill="#f3f3f3"/>
        </g>
        <g id="Graphic_1420">
          <path d="M 232.23955 74.60712 C 232.23955 75.15949 234.2281 75.711865 236.65852 75.711865 C 239.08895 75.711865 241.07748 75.15949 241.07748 74.60712 C 241.07748 73.94428 239.08895 73.50238 236.65852 73.50238 C 234.2281 73.50238 232.23955 73.94428 232.23955 74.60712 Z" fill="black"/>
        </g>
        <g id="Graphic_1419">
          <path d="M 243.50792 74.7176 C 243.72886 75.49092 244.61266 76.37471 245.38598 76.59566 C 246.26977 76.92708 246.71167 76.48518 246.38024 75.60139 C 246.1593 74.82807 245.2755 73.94428 244.50218 73.72333 C 243.6184 73.39191 243.1765 73.8338 243.50792 74.7176 Z" fill="black"/>
        </g>
        <g id="Graphic_1418">
          <path d="M 230.58244 79.02609 C 227.93106 80.13083 227.48916 80.02036 237.5423 80.57273 C 241.96128 80.90415 245.49645 80.57273 245.49645 80.02036 C 245.49645 79.46799 244.3917 79.02609 243.06602 79.02609 C 241.62986 79.02609 238.75753 78.80514 236.65852 78.47372 C 234.5595 78.25277 231.79766 78.47372 230.58244 79.02609 Z" fill="black"/>
        </g>
        <g id="Graphic_1417">
          <path d="M 230.3615 84.66027 C 229.14628 85.10217 230.91386 85.65454 235.0014 86.31738 C 243.6184 87.5326 243.28697 87.5326 243.28697 86.20691 C 243.39744 84.88122 233.12335 83.666 230.3615 84.66027 Z" fill="black"/>
        </g>
        <g id="Graphic_1416">
          <path d="M 123.75394 73.17096 C 121.43398 73.39191 119.55592 74.05475 119.55592 74.49665 C 119.55592 75.26997 135.0223 73.8338 136.01657 72.95001 C 136.56894 72.39764 130.38239 72.50811 123.75394 73.17096 Z" fill="black"/>
        </g>
        <g id="Graphic_1415">
          <path d="M 127.84148 79.13656 C 126.0739 79.68893 123.64346 79.90988 122.6492 79.68893 C 121.54446 79.46799 120.32924 79.79941 119.88734 80.46225 C 119.44545 81.23557 120.88161 81.34605 124.52726 80.90415 C 127.39959 80.46225 131.48713 80.13083 133.58614 80.13083 C 135.79562 80.13083 137.12131 79.68893 136.67941 79.02609 C 135.9061 77.7004 132.37092 77.7004 127.84148 79.13656 Z" fill="black"/>
        </g>
        <g id="Graphic_1414">
          <path d="M 127.95196 84.43932 C 122.75967 84.88122 120.10829 85.65454 119.77687 86.64881 C 119.44545 87.64307 119.77687 87.9745 120.88161 87.64307 C 121.7654 87.20118 125.85295 86.64881 129.83002 86.20691 C 133.91756 85.76501 137.23178 84.99169 137.23178 84.43932 C 137.23178 83.88695 136.90036 83.55553 136.45847 83.666 C 135.9061 83.77648 132.14997 84.1079 127.95196 84.43932 Z" fill="black"/>
        </g>
        <g id="Graphic_1413">
          <path d="M 148.05825 95.15531 C 147.72683 95.48674 142.42407 95.70769 136.45847 95.81816 C 126.18437 95.81816 121.43398 96.70195 123.0911 98.35907 C 124.19583 99.46381 151.59342 96.59148 151.59342 95.48674 C 151.59342 94.382 148.94204 94.16105 148.05825 95.15531 Z" fill="black"/>
        </g>
        <g id="Graphic_1412">
          <path d="M 133.69661 102.00471 C 127.28911 102.22566 125.07963 102.77803 124.63773 104.10372 C 124.19583 105.20846 124.41678 105.65036 125.41105 105.20846 C 126.29484 104.87704 132.4814 104.32467 139.22032 103.88277 C 146.06972 103.44088 151.59342 102.66756 151.59342 102.22566 C 151.59342 101.34187 148.7211 101.34187 133.69661 102.00471 Z" fill="black"/>
        </g>
        <g id="Graphic_1411">
          <path d="M 217.87791 97.69622 C 217.87791 98.46954 220.30834 98.91144 224.83778 98.91144 C 228.5939 98.91144 233.56524 99.35333 235.8852 99.9057 C 238.4261 100.56855 240.1937 100.45807 240.6356 99.79523 C 241.74033 98.02764 240.85654 97.8067 229.14628 97.14385 C 220.9712 96.59148 217.87791 96.70195 217.87791 97.69622 Z" fill="black"/>
        </g>
        <g id="Graphic_1410">
          <path d="M 217.87791 104.10372 C 217.87791 104.65609 220.5293 105.09799 223.73304 105.20846 C 226.82632 105.31894 231.5767 105.76083 234.2281 106.09226 C 237.9842 106.64463 238.868 106.42368 238.868 105.09799 C 238.868 103.66182 237.10041 103.3304 228.37296 103.3304 C 222.6283 103.3304 217.87791 103.66182 217.87791 104.10372 Z" fill="black"/>
        </g>
        <g id="Graphic_1409">
          <path d="M 147.8373 115.15114 C 146.40114 116.5873 148.50015 117.13967 154.79717 116.80825 C 158.5533 116.5873 161.5361 115.92445 161.5361 115.48256 C 161.5361 114.37782 148.83157 114.15687 147.8373 115.15114 Z" fill="black"/>
        </g>
        <g id="Graphic_1408">
          <path d="M 149.38394 122.5529 C 149.38394 123.76812 150.15726 123.98907 153.02959 123.21575 C 154.90765 122.66338 157.55903 122.00053 158.77424 121.77958 C 159.98946 121.44816 158.33235 121.22721 155.23907 121.11674 C 150.8201 121.00627 149.38394 121.44816 149.38394 122.5529 Z" fill="black"/>
        </g>
        <g id="Graphic_1407">
          <path d="M 128.39385 117.58157 C 128.39385 119.45963 129.94049 119.68058 133.91756 118.13394 L 137.78416 116.80825 L 133.14424 116.69777 C 130.49286 116.5873 128.39385 117.0292 128.39385 117.58157 Z" fill="black"/>
        </g>
        <g id="Graphic_1406">
          <path d="M 129.4986 124.32049 C 129.4986 125.64618 134.35946 125.64618 138.33653 124.32049 C 140.54601 123.65765 139.88316 123.4367 135.35372 123.32622 C 132.14997 123.21575 129.4986 123.65765 129.4986 124.32049 Z" fill="black"/>
        </g>
        <g id="Graphic_1405">
          <path d="M 228.152 116.25588 C 225.39016 117.36062 226.82632 118.79678 230.58244 118.79678 C 232.68145 118.79678 234.44904 118.24441 234.44904 117.69204 C 234.44904 117.0292 234.00714 116.5873 233.45477 116.5873 C 232.9024 116.5873 231.79766 116.36635 230.91386 116.1454 C 230.14054 115.81398 228.81485 115.92445 228.152 116.25588 Z" fill="black"/>
        </g>
        <g id="Graphic_1404">
          <path d="M 226.27395 122.9948 C 225.94253 123.54717 227.3787 124.32049 229.58817 124.54144 C 231.68718 124.76239 233.67572 124.54144 234.00714 124.09954 C 234.33856 123.65765 233.89666 123.21575 233.12335 123.21575 C 232.35003 123.21575 230.58244 122.88433 229.36722 122.5529 C 228.04153 122.22148 226.71584 122.44243 226.27395 122.9948 Z" fill="black"/>
        </g>
        <g id="Graphic_1403">
          <path d="M 185.39851 136.03075 C 184.95662 137.02502 184.95662 138.12976 185.28804 138.46118 C 185.50899 138.7926 186.06136 138.12976 186.50325 137.13549 C 186.94515 136.14122 186.94515 135.03648 186.61373 134.70506 C 186.39278 134.37364 185.8404 135.03648 185.39851 136.03075 Z" fill="black"/>
        </g>
        <g id="Graphic_1402">
          <path d="M 190.25938 136.03075 C 190.25938 136.91454 190.81175 137.35644 191.36412 137.02502 C 192.02696 136.6936 192.46886 135.92028 192.46886 135.25743 C 192.46886 134.70506 192.02696 134.26316 191.36412 134.26316 C 190.81175 134.26316 190.25938 135.03648 190.25938 136.03075 Z" fill="black"/>
        </g>
        <g id="Graphic_1401">
          <path d="M 137.78416 134.26316 C 137.45273 134.81553 137.89463 135.3679 138.77842 135.3679 C 139.77269 135.3679 140.54601 134.81553 140.54601 134.26316 C 140.54601 133.60032 140.10411 133.15842 139.55174 133.15842 C 138.8889 133.15842 138.11558 133.60032 137.78416 134.26316 Z" fill="black"/>
        </g>
        <g id="Graphic_1400">
          <path d="M 145.51735 149.84002 C 145.07545 150.50286 144.96497 151.1657 145.07545 151.27618 C 145.95924 152.15998 162.64084 150.50286 162.64084 149.61907 C 162.64084 148.1829 146.29066 148.40385 145.51735 149.84002 Z" fill="black"/>
        </g>
        <g id="Graphic_1399">
          <path d="M 143.30786 156.46847 C 142.86597 157.13131 142.7555 157.79416 142.86597 158.0151 C 143.74976 158.78842 162.53036 157.13131 161.978 156.24752 C 161.0942 154.81136 144.08118 155.0323 143.30786 156.46847 Z" fill="black"/>
        </g>
        <g id="Graphic_1398">
          <path d="M 203.51627 150.83429 C 203.51627 151.49713 205.9467 151.93903 208.9295 151.93903 C 211.9123 151.93903 215.11606 152.27045 216.11033 152.60187 C 217.21507 153.04377 217.87791 152.71235 217.87791 151.6076 C 217.87791 150.28192 216.33127 149.9505 210.6971 149.84002 C 206.72002 149.84002 203.51627 150.28192 203.51627 150.83429 Z" fill="black"/>
        </g>
        <g id="Graphic_1397">
          <path d="M 204.06864 157.46273 C 203.62675 158.12558 205.61528 158.56748 209.26093 158.56748 C 212.46468 158.56748 216.2208 158.8989 217.65696 159.23032 C 219.42455 159.7827 220.0874 159.45127 220.0874 158.12558 C 220.0874 156.68942 218.7617 156.358 212.46468 156.358 C 208.1562 156.358 204.40007 156.79989 204.06864 157.46273 Z" fill="black"/>
        </g>
        <g id="Graphic_1396">
          <path d="M 158.77424 170.71963 C 157.89045 172.1558 164.85032 172.1558 167.0598 170.71963 C 168.27502 169.94631 167.5017 169.6149 164.077 169.6149 C 161.5361 169.6149 159.10567 170.05679 158.77424 170.71963 Z" fill="black"/>
        </g>
        <g id="Graphic_1395">
          <path d="M 141.65075 170.71963 C 140.76696 171.272 140.32506 172.04532 140.65648 172.37674 C 141.65075 173.26054 150.48868 171.7139 150.48868 170.60916 C 150.48868 169.28347 143.74976 169.39394 141.65075 170.71963 Z" fill="black"/>
        </g>
        <g id="Graphic_1394">
          <path d="M 140.65648 177.2376 C 137.67368 179.11567 139.99364 180.2204 144.8545 179.22614 C 148.38967 178.5633 149.27347 178.01093 148.16873 177.2376 C 146.18019 176.0224 142.64502 176.0224 140.65648 177.2376 Z" fill="black"/>
        </g>
        <g id="Graphic_1393">
          <path d="M 215.11606 170.60916 C 214.34274 172.04532 214.1218 171.93485 219.31408 172.37674 C 221.52356 172.5977 223.40162 172.37674 223.40162 171.7139 C 223.40162 171.16153 222.40735 170.71963 221.3026 170.71963 C 220.0874 170.71963 218.43028 170.38821 217.5465 170.05679 C 216.6627 169.72537 215.55796 169.94631 215.11606 170.60916 Z" fill="black"/>
        </g>
        <g id="Graphic_1392">
          <path d="M 216.88365 178.5633 C 218.98265 179.88899 224.50636 179.77851 224.50636 178.5633 C 224.50636 177.90045 222.40735 177.56903 219.97692 177.56903 C 216.99412 177.56903 215.88938 177.90045 216.88365 178.5633 Z" fill="black"/>
        </g>
        <g id="Graphic_1391">
          <path d="M 211.69136 190.82593 C 211.35994 191.26782 211.4704 191.70972 212.02278 191.8202 C 213.79037 191.93067 217.32554 192.48304 222.6283 193.36683 C 226.27395 193.9192 227.8206 193.80873 227.8206 192.92494 C 227.8206 192.2621 227.15774 191.48877 226.4949 191.15735 C 223.40162 190.27356 212.24373 189.94213 211.69136 190.82593 Z" fill="black"/>
        </g>
        <g id="Graphic_1390">
          <path d="M 212.90658 198.11722 C 211.80183 199.22196 228.152 201.54192 229.36722 200.43718 C 229.9196 199.8848 230.25102 199.33244 229.9196 199.1115 C 229.0358 198.2277 213.6799 197.3439 212.90658 198.11722 Z" fill="black"/>
        </g>
        <g id="Graphic_1389">
          <path d="M 138.33653 191.70972 C 135.57467 193.4773 138.447 195.13442 142.20312 193.9192 C 144.08118 193.36683 147.72683 192.48304 150.48868 191.93067 C 155.46002 190.82593 155.46002 190.82593 147.72683 190.71545 C 143.52881 190.71545 139.22032 191.15735 138.33653 191.70972 Z" fill="black"/>
        </g>
        <g id="Graphic_1388">
          <path d="M 137.89463 197.45438 C 135.13278 199.00101 135.79562 200.43718 139.22032 199.8848 C 140.87743 199.66386 145.7383 199.1115 150.15726 198.78007 C 154.57623 198.33817 157.89045 197.56485 157.55903 197.12295 C 156.7857 195.79726 140.21459 196.12869 137.89463 197.45438 Z" fill="black"/>
        </g>
        <g id="Graphic_1387">
          <path d="M 133.91756 213.25218 C 133.91756 214.4674 134.80135 214.68834 137.5632 214.13597 C 145.95924 212.47886 146.73256 211.81602 140.32506 211.70554 C 135.35372 211.59507 133.91756 211.9265 133.91756 213.25218 Z" fill="black"/>
        </g>
        <g id="Graphic_1386">
          <path d="M 137.5632 218.00257 C 134.35946 218.22352 131.70808 218.7759 131.70808 219.32826 C 131.70808 221.20632 133.58614 221.42727 139.55174 220.10158 C 146.62209 218.44447 145.62782 217.56067 137.5632 218.00257 Z" fill="black"/>
        </g>
        <g id="Graphic_1385">
          <path d="M 154.90765 210.49033 C 154.90765 211.81602 161.42562 211.59507 162.19894 210.26938 C 162.53036 209.82748 160.98373 209.38558 158.88472 209.38558 C 156.67523 209.38558 154.90765 209.93796 154.90765 210.49033 Z" fill="black"/>
        </g>
        <g id="Graphic_1384">
          <path d="M 154.90765 216.01403 C 154.90765 216.5664 156.45429 216.78735 158.5533 216.34546 C 163.52463 215.46166 163.74558 214.9093 158.9952 214.9093 C 156.7857 214.9093 154.90765 215.3512 154.90765 216.01403 Z" fill="black"/>
        </g>
        <g id="Graphic_1383">
          <path d="M 214.5637 215.3512 C 214.5637 218.7759 215.11606 221.53774 215.66843 221.53774 C 216.33127 221.53774 216.77317 219.1073 216.77317 216.1245 C 216.77317 213.03123 216.33127 210.26938 215.66843 209.93796 C 215.00559 209.49606 214.5637 211.59507 214.5637 215.3512 Z" fill="black"/>
        </g>
        <g id="Graphic_1382">
          <path d="M 220.75024 212.58934 C 220.19787 213.47313 230.14054 215.13024 231.02434 214.35692 C 231.1348 214.13597 231.02434 213.47313 230.58244 212.81028 C 229.80912 211.37412 221.52356 211.15317 220.75024 212.58934 Z" fill="black"/>
        </g>
        <g id="Graphic_1381">
          <path d="M 221.7445 220.433 C 222.07593 220.98537 224.83778 221.53774 227.93106 221.53774 C 230.91386 221.53774 233.3443 220.98537 233.3443 220.433 C 233.3443 219.77015 230.58244 219.32826 227.15774 219.32826 C 223.40162 219.32826 221.3026 219.77015 221.7445 220.433 Z" fill="black"/>
        </g>
        <g id="Graphic_1380">
          <path d="M 147.50588 231.149 C 145.51735 231.36994 143.86023 232.14326 143.86023 232.8061 C 143.86023 233.46895 145.18592 233.6899 147.28493 233.248 C 149.163 232.91658 151.7039 232.58516 152.80864 232.58516 C 154.02385 232.58516 154.90765 232.03279 154.90765 231.48041 C 154.90765 230.37567 154.13433 230.37567 147.50588 231.149 Z" fill="black"/>
        </g>
        <g id="Graphic_1379">
          <path d="M 146.40114 236.6727 C 144.96497 236.89365 143.86023 237.66697 143.86023 238.3298 C 143.86023 238.88218 144.63355 239.10313 145.62782 238.7717 C 146.62209 238.4403 149.27347 238.10886 151.7039 238.10886 C 154.02385 238.10886 156.01239 237.5565 156.01239 237.00412 C 156.01239 235.89938 151.15153 235.7889 146.40114 236.6727 Z" fill="black"/>
        </g>
        <g id="Graphic_1378">
          <path d="M 146.06972 251.36576 C 146.06972 252.69145 146.95351 252.69145 149.93631 251.36576 C 151.92485 250.48197 151.81437 250.3715 149.163 250.3715 C 147.3954 250.26102 146.06972 250.70292 146.06972 251.36576 Z" fill="black"/>
        </g>
        <g id="Graphic_1377">
          <path d="M 123.42252 253.57524 C 122.6492 254.79046 125.1901 254.79046 130.05096 253.57524 C 133.14424 252.80193 133.14424 252.69145 128.72527 252.58098 C 126.18437 252.58098 123.75394 252.9124 123.42252 253.57524 Z" fill="black"/>
        </g>
        <g id="Graphic_1376">
          <path d="M 143.30786 257.9942 C 142.86597 258.76753 143.63928 258.878 145.7383 258.4361 C 149.93631 257.44184 150.3782 256.88947 146.84304 256.88947 C 145.2964 256.88947 143.63928 257.44184 143.30786 257.9942 Z" fill="black"/>
        </g>
        <g id="Graphic_1375">
          <path d="M 120.43971 258.878 C 116.79407 259.65132 118.45118 261.30843 122.09683 260.53512 C 127.39959 259.54085 129.60907 258.10468 125.632 258.32563 C 123.86441 258.32563 121.43398 258.65706 120.43971 258.878 Z" fill="black"/>
        </g>
        <g id="Graphic_1374">
          <path d="M 142.20312 263.51792 C 141.4298 264.8436 143.52881 264.8436 146.62209 263.51792 C 148.61062 262.63412 148.50015 262.52365 145.84877 262.52365 C 144.19166 262.41318 142.53454 262.85507 142.20312 263.51792 Z" fill="black"/>
        </g>
        <g id="Graphic_1373">
          <path d="M 118.56165 264.5122 C 116.46264 264.8436 114.47411 265.83787 114.25316 266.72167 C 113.81126 267.93688 114.25316 268.04736 115.7998 267.3845 C 117.01502 266.94262 119.2245 266.27977 120.99208 265.94835 C 122.6492 265.7274 123.97489 265.06456 123.97489 264.5122 C 123.97489 263.9598 123.64346 263.6284 123.20157 263.6284 C 122.6492 263.73887 120.66066 264.0703 118.56165 264.5122 Z" fill="black"/>
        </g>
        <g id="Graphic_1372">
          <path d="M 219.42455 232.47468 C 220.19787 233.6899 226.71584 234.68416 226.71584 233.57942 C 226.71584 233.13753 225.94253 232.47468 224.94826 232.14326 C 222.29688 231.149 218.7617 231.36994 219.42455 232.47468 Z" fill="black"/>
        </g>
        <g id="Graphic_1371">
          <path d="M 229.9196 232.03279 C 228.70438 233.13753 230.69291 242.96973 232.12908 243.41162 C 233.3443 243.85352 233.56524 243.0802 233.01287 240.31835 C 232.57097 238.3298 232.23955 235.56796 232.23955 234.1318 C 232.23955 231.70136 231.1348 230.7071 229.9196 232.03279 Z" fill="black"/>
        </g>
        <g id="Graphic_1370">
          <path d="M 220.5293 238.21934 C 220.19787 238.7717 221.19214 239.2136 222.73878 239.2136 C 226.16347 239.2136 226.4949 238.55076 223.40162 237.77744 C 222.1864 237.44602 220.86072 237.66697 220.5293 238.21934 Z" fill="black"/>
        </g>
        <g id="Graphic_1369">
          <path d="M 129.4986 233.248 C 129.4986 234.46322 130.05096 234.79464 131.26618 234.35274 C 132.26045 234.02132 133.69661 233.6899 134.5804 233.6899 C 135.4642 233.6899 136.12704 233.13753 136.12704 232.58516 C 136.12704 231.9223 134.69088 231.48041 132.81282 231.48041 C 130.49286 231.48041 129.4986 232.03279 129.4986 233.248 Z" fill="black"/>
        </g>
        <g id="Graphic_1368">
          <path d="M 129.4986 238.10886 C 129.4986 238.66123 130.71381 239.2136 132.26045 239.2136 C 133.80709 239.2136 135.0223 238.66123 135.0223 238.10886 C 135.0223 237.44602 133.80709 237.00412 132.26045 237.00412 C 130.71381 237.00412 129.4986 237.44602 129.4986 238.10886 Z" fill="black"/>
        </g>
        <g id="Graphic_1367">
          <path d="M 233.3443 254.68 C 233.3443 255.23236 234.89093 255.78473 236.769 255.78473 C 238.64705 255.78473 239.86227 255.34283 239.42037 254.68 C 239.08895 254.01714 237.5423 253.57524 235.99567 253.57524 C 234.5595 253.57524 233.3443 254.01714 233.3443 254.68 Z" fill="black"/>
        </g>
        <g id="Graphic_1366">
          <path d="M 236.98994 261.0875 C 237.32136 261.52938 239.64132 262.08175 242.18223 262.19223 C 244.72313 262.41318 246.49072 262.08175 246.26977 261.52938 C 245.93835 261.0875 243.6184 260.53512 241.07748 260.42464 C 238.53658 260.2037 236.769 260.53512 236.98994 261.0875 Z" fill="black"/>
        </g>
        <g id="Graphic_1365">
          <path d="M 240.08322 266.83214 C 239.3099 267.16356 242.07175 268.04736 246.04882 268.59973 C 250.0259 269.26257 253.22964 269.37305 253.22964 268.93115 C 253.22964 268.37878 251.35158 267.71594 249.1421 267.3845 C 246.82214 267.0531 244.17076 266.50072 243.1765 266.39025 C 242.18223 266.1693 240.74606 266.39025 240.08322 266.83214 Z" fill="black"/>
        </g>
        <g id="Graphic_1364">
          <path d="M 152.1458 275.67007 C 149.27347 276.8853 158.33235 276.8853 163.1932 275.67007 C 165.95506 275.00723 165.4027 274.78628 160.43136 274.78628 C 157.11713 274.78628 153.36101 275.1177 152.1458 275.67007 Z" fill="black"/>
        </g>
        <g id="Graphic_1363">
          <path d="M 156.01239 281.19378 L 151.04105 281.9671 L 156.89618 282.07757 C 160.54183 282.18805 162.53036 281.85663 162.08847 281.19378 C 161.75705 280.53094 161.31515 280.1995 161.20467 280.31 C 161.0942 280.31 158.77424 280.7519 156.01239 281.19378 Z" fill="black"/>
        </g>
        <g id="Graphic_1362">
          <path d="M 126.18437 278.1005 C 115.7998 279.8681 115.13695 280.08904 115.13695 281.74615 C 115.13695 282.62995 115.68933 283.40326 116.2417 283.40326 C 116.90454 283.40326 117.34644 282.96137 117.34644 282.51947 C 117.34644 281.41473 129.83002 278.9843 135.68515 278.9843 C 138.8889 278.9843 139.55174 278.65288 138.33653 277.87956 C 136.45847 276.66434 134.5804 276.66434 126.18437 278.1005 Z" fill="black"/>
        </g>
        <g id="Graphic_1361">
          <path d="M 126.18437 284.508 C 117.67786 285.3918 114.03221 286.49654 114.03221 288.04318 C 114.03221 288.70602 115.02648 288.92697 116.57312 288.48508 C 117.89881 288.04318 123.31204 287.0489 128.6148 286.2756 C 133.91756 285.50227 138.66795 284.61848 138.99937 284.1766 C 139.88316 283.2928 136.56894 283.40326 126.18437 284.508 Z" fill="black"/>
        </g>
        <g id="Graphic_1360">
          <path d="M 134.5804 299.5325 C 134.02803 301.07913 134.35946 301.1896 136.90036 300.52676 C 138.66795 299.9744 142.20312 299.31154 144.96497 298.86965 C 149.71536 298.09633 149.60489 298.09633 142.64502 297.87538 C 136.78989 297.7649 135.13278 298.09633 134.5804 299.5325 Z" fill="black"/>
        </g>
        <g id="Graphic_1359">
          <path d="M 118.56165 299.8639 C 117.01502 300.3058 115.68933 301.1896 115.3579 301.96292 C 114.916 303.50956 116.90454 303.7305 117.89881 302.18387 C 118.23023 301.52103 119.99782 301.07913 121.87588 301.07913 C 123.64346 301.07913 125.07963 300.52676 125.07963 299.9744 C 125.07963 298.75917 122.6492 298.6487 118.56165 299.8639 Z" fill="black"/>
        </g>
        <g id="Graphic_1358">
          <path d="M 137.5632 305.16667 C 135.24325 305.4981 133.91756 306.2714 133.91756 307.37615 C 133.91756 308.59137 134.46993 308.81232 135.9061 308.14947 C 136.90036 307.70758 139.88316 307.1552 142.42407 306.8238 C 145.07545 306.60284 146.84304 305.94 146.51161 305.38762 C 145.95924 304.39335 144.19166 304.39335 137.5632 305.16667 Z" fill="black"/>
        </g>
        <g id="Graphic_1357">
          <path d="M 116.68359 308.37042 C 114.69506 310.02753 114.80553 310.02753 118.3407 309.47516 C 120.32924 309.14374 122.6492 308.81232 123.31204 308.81232 C 124.85868 308.81232 121.65493 306.60284 119.99782 306.60284 C 119.44545 306.60284 117.89881 307.37615 116.68359 308.37042 Z" fill="black"/>
        </g>
        <g id="Graphic_1356">
          <path d="M 226.16347 278.87382 C 225.83205 279.53667 226.38442 280.1995 227.48916 280.1995 C 235.66425 280.86236 238.97848 281.30426 243.6184 282.29852 C 246.49072 282.8509 249.36305 283.40326 249.91542 283.40326 C 251.2411 283.40326 251.46205 280.08904 250.24684 280.08904 C 244.61266 279.8681 234.1176 278.87382 231.02434 278.43193 C 228.5939 277.99003 226.60537 278.21098 226.16347 278.87382 Z" fill="black"/>
        </g>
        <g id="Graphic_1355">
          <path d="M 225.05873 286.7175 C 225.39016 287.26986 228.37296 287.82223 231.46623 287.82223 C 234.66998 287.82223 239.97274 288.48508 243.28697 289.36887 C 247.8164 290.5841 249.584 290.5841 250.13636 289.7003 C 251.683 287.26986 251.02016 287.0489 241.96128 286.38607 C 228.92533 285.28133 224.28541 285.3918 225.05873 286.7175 Z" fill="black"/>
        </g>
        <g id="Graphic_1354">
          <path d="M 243.28697 303.17814 C 243.28697 304.39335 250.90968 305.94 251.90395 304.94572 C 253.0087 303.841 249.69447 302.18387 246.38024 302.18387 C 244.61266 302.18387 243.28697 302.62577 243.28697 303.17814 Z" fill="black"/>
        </g>
        <g id="Graphic_1353">
          <path d="M 243.28697 310.91133 C 243.28697 312.12654 249.80494 313.1208 250.4678 312.12654 C 250.7992 311.68465 250.68874 311.0218 250.24684 310.5799 C 249.1421 309.58564 243.28697 309.8066 243.28697 310.91133 Z" fill="black"/>
        </g>
        <g id="Graphic_1352">
          <path d="M 126.18437 322.5111 C 117.67786 323.5054 115.68933 324.05775 115.3579 325.6044 C 114.916 327.92435 115.3579 328.03482 121.7654 326.0463 C 124.52726 325.27297 129.83002 324.16823 133.69661 323.72633 C 137.45273 323.28443 140.54601 322.5111 140.54601 321.95874 C 140.54601 320.854 140.65648 320.854 126.18437 322.5111 Z" fill="black"/>
        </g>
        <g id="Graphic_1351">
          <path d="M 120.88161 329.58146 C 114.916 329.9129 113.92174 330.2443 114.25316 331.79094 C 114.58458 332.7852 115.46838 333.44805 116.35217 333.2271 C 120.66066 332.0119 128.39385 331.01762 133.69661 331.01762 C 136.90036 330.90715 139.44127 330.35478 139.44127 329.69193 C 139.44127 329.0291 137.12131 328.69767 133.58614 328.9186 C 130.38239 329.13956 124.63773 329.3605 120.88161 329.58146 Z" fill="black"/>
        </g>
        <g id="Graphic_1350">
          <path d="M 231.1348 325.1625 C 231.1348 326.15676 248.58973 327.7034 249.80494 326.8196 C 251.02016 325.9358 248.58973 325.38344 240.1937 324.7206 C 234.2281 324.16823 231.1348 324.38917 231.1348 325.1625 Z" fill="black"/>
        </g>
        <g id="Graphic_1349">
          <path d="M 229.58817 333.00616 C 229.0358 333.77948 230.14054 334.22137 233.12335 334.22137 C 235.4433 334.22137 240.6356 334.5528 244.50218 334.8842 C 249.69447 335.4366 251.2411 335.3261 250.4678 334.44232 C 248.81067 332.56426 230.58244 331.34905 229.58817 333.00616 Z" fill="black"/>
        </g>
        <g id="Graphic_1348">
          <path d="M 132.4814 344.93737 C 130.82428 346.484 131.81855 347.6992 134.24898 346.9259 C 135.57467 346.484 138.66795 345.82116 141.09838 345.2688 C 145.51735 344.49547 145.51735 344.385 139.3308 344.27452 C 135.9061 344.27452 132.81282 344.49547 132.4814 344.93737 Z" fill="black"/>
        </g>
        <g id="Graphic_1347">
          <path d="M 134.91183 351.89724 C 132.70234 353.3334 134.35946 354.32767 137.23178 353.22293 C 139.22032 352.4496 139.44127 352.1182 138.11558 351.6763 C 137.23178 351.2344 135.79562 351.45534 134.91183 351.89724 Z" fill="black"/>
        </g>
        <g id="Graphic_1346">
          <path d="M 141.09838 351.89724 C 140.76696 352.4496 141.4298 353.00198 142.64502 353.00198 C 143.9707 353.00198 144.96497 352.4496 144.96497 351.89724 C 144.96497 351.2344 144.30213 350.7925 143.41834 350.7925 C 142.53454 350.7925 141.4298 351.2344 141.09838 351.89724 Z" fill="black"/>
        </g>
        <g id="Graphic_1345">
          <path d="M 136.12704 357.5314 C 136.12704 357.9733 138.55747 358.19426 141.54028 358.19426 C 144.63355 358.19426 146.84304 357.75237 146.51161 357.2 C 145.84877 356.20573 136.12704 356.42668 136.12704 357.5314 Z" fill="black"/>
        </g>
        <g id="Graphic_1344">
          <path d="M 116.02075 344.93737 C 114.916 345.1583 114.03221 346.1526 114.03221 347.03637 C 114.03221 348.91443 117.01502 349.1354 117.56739 347.25732 C 117.89881 346.484 119.55592 346.0421 121.65493 346.1526 C 123.86441 346.26306 124.96915 346.0421 124.52726 345.2688 C 123.86441 344.16405 119.55592 343.9431 116.02075 344.93737 Z" fill="black"/>
        </g>
        <g id="Graphic_1343">
          <path d="M 116.35217 353.44388 C 114.36364 355.76383 116.57312 356.53715 120.66066 354.76956 C 123.42252 353.66482 123.86441 353.22293 122.31777 352.5601 C 119.44545 351.45534 117.78833 351.78676 116.35217 353.44388 Z" fill="black"/>
        </g>
        <g id="Graphic_1342">
          <path d="M 243.6184 347.25732 C 238.97848 347.92017 240.967 349.68775 246.04882 349.4668 C 248.81067 349.35633 251.02016 348.91443 251.02016 348.47254 C 251.02016 347.47827 246.71167 346.81543 243.6184 347.25732 Z" fill="black"/>
        </g>
        <g id="Graphic_1341">
          <path d="M 243.28697 355.101 C 247.15356 357.31047 249.91542 357.6419 249.91542 355.8743 C 249.91542 354.5486 248.81067 354.1067 245.82787 354.1067 C 242.95554 354.2172 242.18223 354.43814 243.28697 355.101 Z" fill="black"/>
        </g>
      </g>
    </g>
  </g>
</svg>
