<?xml version="1.0" encoding="UTF-8" standalone="no"?>
<!-- Created with Inkscape (http://www.inkscape.org/) -->

<svg
   xmlns:dc="http://purl.org/dc/elements/1.1/"
   xmlns:cc="http://creativecommons.org/ns#"
   xmlns:rdf="http://www.w3.org/1999/02/22-rdf-syntax-ns#"
   xmlns:svg="http://www.w3.org/2000/svg"
   xmlns="http://www.w3.org/2000/svg"
   xmlns:sodipodi="http://sodipodi.sourceforge.net/DTD/sodipodi-0.dtd"
   xmlns:inkscape="http://www.inkscape.org/namespaces/inkscape"
   width="202.4929mm"
   height="202.34785mm"
   viewBox="0 0 202.4929 202.34786"
   version="1.1"
   id="svg864"
   inkscape:version="0.92.3 (2405546, 2018-03-11)"
   sodipodi:docname="outlands-war-ensign.redrawn.svg">
  <defs
     id="defs858" />
  <sodipodi:namedview
     id="base"
     pagecolor="#ffffff"
     bordercolor="#666666"
     borderopacity="1.0"
     inkscape:pageopacity="0.0"
     inkscape:pageshadow="2"
     inkscape:zoom="2.2411734"
     inkscape:cx="266.31899"
     inkscape:cy="403.65904"
     inkscape:document-units="mm"
     inkscape:current-layer="layer1"
     showgrid="false"
     inkscape:window-width="3840"
     inkscape:window-height="2090"
     inkscape:window-x="0"
     inkscape:window-y="41"
     inkscape:window-maximized="1"
     fit-margin-top="0"
     fit-margin-left="0"
     fit-margin-right="0"
     fit-margin-bottom="0" />
  <metadata
     id="metadata861">
    <rdf:RDF>
      <cc:Work
         rdf:about="">
        <dc:format>image/svg+xml</dc:format>
        <dc:type
           rdf:resource="http://purl.org/dc/dcmitype/StillImage" />
        <dc:title />
      </cc:Work>
    </rdf:RDF>
  </metadata>
  <g
     inkscape:label="Layer 1"
     inkscape:groupmode="layer"
     id="layer1"
     transform="translate(-142.25368,-19.853821)">
    <g
       id="g907">
      <g
         transform="matrix(1.0035093,0,0,1.0042409,-0.50096285,-0.94021389)"
         id="g982"
         style="stroke-width:0.99613994">
        <rect
           style="opacity:1;vector-effect:none;fill:#008000;fill-opacity:1;stroke:#000000;stroke-width:0.99613994;stroke-linecap:square;stroke-linejoin:miter;stroke-miterlimit:4;stroke-dasharray:none;stroke-dashoffset:0;stroke-opacity:1"
           id="rect1509"
           width="201.4929"
           height="201.34785"
           x="142.75368"
           y="20.353821" />
        <path
           style="fill:#ffff00;fill-opacity:1;fill-rule:evenodd;stroke:#000000;stroke-width:0.99613994;stroke-linecap:butt;stroke-linejoin:miter;stroke-miterlimit:4;stroke-dasharray:none;stroke-opacity:1"
           d="m 142.75368,221.70167 v -67.11594 l 67.1643,67.11594 z"
           id="path1556"
           inkscape:connector-curvature="0"
           sodipodi:nodetypes="cccc" />
        <path
           style="fill:#ffff00;fill-opacity:1;fill-rule:evenodd;stroke:#000000;stroke-width:0.99613994;stroke-linecap:butt;stroke-linejoin:miter;stroke-miterlimit:4;stroke-dasharray:none;stroke-opacity:1"
           d="m 209.91798,221.70167 -67.1643,-134.2319 134.3286,134.2319 z"
           id="path1556-3"
           inkscape:connector-curvature="0"
           sodipodi:nodetypes="cccc" />
        <path
           style="fill:#ffff00;fill-opacity:1;fill-rule:evenodd;stroke:#000000;stroke-width:0.99613994;stroke-linecap:butt;stroke-linejoin:bevel;stroke-miterlimit:4;stroke-dasharray:none;stroke-opacity:1"
           d="M 277.08228,221.70167 142.75368,20.353821 344.24658,221.70167 Z"
           id="path1556-3-6"
           inkscape:connector-curvature="0"
           sodipodi:nodetypes="cccc" />
        <path
           style="fill:#ffff00;fill-opacity:1;fill-rule:evenodd;stroke:#000000;stroke-width:0.99613994;stroke-linecap:butt;stroke-linejoin:bevel;stroke-miterlimit:4;stroke-dasharray:none;stroke-opacity:1"
           d="M 344.24658,221.70167 209.91798,20.353821 344.24658,154.58572 Z"
           id="path1556-3-6-7"
           inkscape:connector-curvature="0"
           sodipodi:nodetypes="cccc" />
        <path
           style="fill:#ffff00;fill-opacity:1;fill-rule:evenodd;stroke:#000000;stroke-width:0.99613994;stroke-linecap:butt;stroke-linejoin:miter;stroke-miterlimit:4;stroke-dasharray:none;stroke-opacity:1"
           d="m 344.24658,154.58572 -67.1643,-134.231899 67.1643,67.115942 z"
           id="path1556-3-6-7-5"
           inkscape:connector-curvature="0"
           sodipodi:nodetypes="cccc" />
      </g>
      <g
         id="g884">
        <path
           inkscape:connector-curvature="0"
           id="path1692"
           d="m 168.166,200.02629 c -7.45125,-5.20767 -7.97046,-10.40924 -3.4887,-18.75194 -6.41352,-2.91595 -6.37965,-14.84453 0.81981,-17.82882 2.79977,-1.16053 4.79452,-1.18537 9.55641,-0.11894 6.1834,1.3848 9.74291,0.87578 9.94646,-1.42232 0.0637,-0.71828 0.0259,-2.94794 -0.0819,-4.95481 -0.27737,-5.11889 3.47896,-12.96586 8.06998,-16.85885 2.13644,-1.8116 8.15535,-5.172 13.28157,-7.65235 5.09223,-2.46388 7.96342,-3.6123 11.14657,-4.8902 -0.22059,-3.22346 -0.34581,-5.68976 -1.00916,-9.84115 -0.70165,-4.39095 0.89619,-23.101456 2.28124,-26.713481 1.63156,-4.254938 2.3483,-1.022267 2.32296,10.477351 -0.022,9.95011 2.79779,19.89796 3.88167,23.32489 1.9428,-0.70771 3.08072,-1.1816 5.97208,-3.61571 4.23182,-3.56258 5.39711,-2.86546 5.39711,2.8564 0,4.18939 0.38057,5.14154 2.05511,5.14154 5.10052,0 6.01413,-5.55789 3.00509,-18.28099 -2.75861,-11.664004 -4.13776,-25.110239 -3.31067,-32.277345 0.41698,-3.613346 1.15513,-6.569719 1.64034,-6.569719 0.48519,0 1.2472,4.187582 1.69334,9.305743 0.85628,9.823394 7.40015,26.731441 7.40015,26.731441 0,0 2.81648,-0.73445 4.87773,-3.20258 l 3.08947,-3.69931 1.79412,2.52291 c 2.17337,3.05626 5.15681,2.26979 5.15681,-1.35939 0,-1.42504 -1.08468,-8.953769 -2.4104,-16.73053 -2.07411,-12.166948 -2.23723,-15.375437 -1.16908,-22.998189 1.27009,-9.064166 3.81356,-15.706437 6.01441,-15.706437 0.73842,0 0.89296,0.803513 0.38452,1.999482 -3.80915,8.960045 3.31041,41.030003 3.31041,41.030003 0,0 2.09214,0.0076 4.20557,-2.540765 1.34323,-1.61968 1.57421,-1.61968 2.47998,0 1.9221,3.437085 2.83939,1.718828 3.54558,-6.641477 1.26986,-15.033363 10.8802,-36.503338 17.98542,-40.18026 4.28799,-2.219029 4.63754,0.135761 0.58559,3.945127 -4.54806,4.275797 -9.32917,13.271714 -10.54687,21.628218 -0.67418,4.62661 -2.2187,13.030038 -1.92728,17.323333 3.44586,0.493655 12.7729,-5.469374 18.31834,-12.77059 3.35824,-4.421521 6.77043,-7.386533 10.83073,-9.411336 10.03988,-5.006732 12.53719,-3.272308 3.43834,2.387974 -3.25776,2.026601 -7.13571,5.904093 -9.59808,9.596909 -5.77643,8.662908 -10.14134,12.474508 -16.91208,14.768311 -2.27353,0.770232 -6.82732,2.116087 -6.82732,2.116087 0,0 -0.19022,2.212964 -0.94093,3.711432 -1.4034,2.80126 -3.31701,4.357985 -7.02952,5.7185 -2.80566,1.028178 -3.64742,1.122688 -5.5727,1.754458 -1.75349,7.61457 -5.86608,11.59001 -16.21131,15.83209 -1.53253,0.62841 -0.9423,0.37572 -3.21182,1.44186 0.56638,4.42778 -1.55785,9.38525 -5.0218,11.52764 -2.0488,1.26714 -5.58381,2.87155 -8.903,3.90028 -5.76473,1.78671 -7.6861,1.32411 -11.52823,1.75355 -0.0742,14.33029 -4.29408,24.3558 -7.61208,28.09796 -2.38253,2.68713 -12.51308,7.20219 -15.76276,7.53918 -4.40626,0.45693 -5.55944,2.96453 -5.30626,13.97589 0.21716,9.44028 0.0259,10.4213 -2.52799,12.97708 -3.36883,3.3713 -7.66531,4.21173 -11.57433,1.13467 0,0 -1.89625,-1.23754 -2.56661,-2.99349 -1.0659,0.93218 -3.73762,2.50016 -3.73762,2.50016 -4.08821,2.49433 -5.91175,2.51972 -9.6984,0.9905 z m 42.70222,-42.68854 c 3.34439,-3.63086 4.87268,-6.62953 5.88445,-11.05241 0.78863,-3.44746 0.8164,-4.14199 0.98955,-8.99012 -3.98819,1.0672 -11.87249,4.04873 -15.69861,8.63683 -3.05761,3.66653 -8.17313,9.71775 -4.54085,13.58696 4.04119,4.30476 7.98399,3.6613 13.36553,-2.18126 z"
           style="fill:#ff0001;fill-opacity:1;stroke:#000000;stroke-width:1;stroke-miterlimit:4;stroke-dasharray:none;stroke-opacity:1"
           sodipodi:nodetypes="cccccccscccccsssccssccccsccsscccsccscsccsscscccccsccsccccccccsccccc" />
        <path
           style="fill:none;fill-rule:evenodd;stroke:#000000;stroke-width:1;stroke-linecap:butt;stroke-linejoin:miter;stroke-miterlimit:4;stroke-dasharray:none;stroke-opacity:1"
           d="m 286.11615,81.387265 c -0.0388,3.36587 -0.32897,5.872461 -0.74477,8.777255"
           id="path1702"
           inkscape:connector-curvature="0"
           sodipodi:nodetypes="cc" />
        <path
           style="fill:none;fill-rule:evenodd;stroke:#000000;stroke-width:1;stroke-linecap:butt;stroke-linejoin:miter;stroke-miterlimit:4;stroke-dasharray:none;stroke-opacity:1"
           d="m 269.84305,90.174052 c 1.15804,4.852496 2.29738,6.721627 2.0583,10.855938"
           id="path1702-3"
           inkscape:connector-curvature="0"
           sodipodi:nodetypes="cc" />
        <path
           style="fill:none;fill-rule:evenodd;stroke:#000000;stroke-width:1;stroke-linecap:butt;stroke-linejoin:miter;stroke-miterlimit:4;stroke-dasharray:none;stroke-opacity:1"
           d="m 248.85695,108.38306 c 1.37174,3.35941 2.66344,5.00034 3.54039,10.2068"
           id="path1702-3-5"
           inkscape:connector-curvature="0"
           sodipodi:nodetypes="cc" />
        <path
           style="fill:none;fill-rule:evenodd;stroke:#000000;stroke-width:1;stroke-linecap:butt;stroke-linejoin:miter;stroke-miterlimit:4;stroke-dasharray:none;stroke-opacity:1"
           d="m 217.39003,127.18129 c 0.31839,3.81661 0.69163,4.9781 0.37718,9.86604"
           id="path1702-3-5-6"
           inkscape:connector-curvature="0"
           sodipodi:nodetypes="cc" />
        <path
           style="fill:none;fill-rule:evenodd;stroke:#000000;stroke-width:1;stroke-linecap:butt;stroke-linejoin:miter;stroke-miterlimit:4;stroke-dasharray:none;stroke-opacity:1"
           d="m 224.93526,124.89522 c 1.05781,3.61079 1.68438,6.03586 2.01681,11.11658"
           id="path1702-3-5-2"
           inkscape:connector-curvature="0"
           sodipodi:nodetypes="cc" />
        <path
           style="fill:none;fill-rule:evenodd;stroke:#000000;stroke-width:1;stroke-linecap:round;stroke-linejoin:miter;stroke-miterlimit:4;stroke-dasharray:none;stroke-opacity:1"
           d="m 164.7797,181.3793 c 5.68528,1.81731 7.25437,0.0582 10.74371,-3.52276"
           id="path828"
           inkscape:connector-curvature="0"
           sodipodi:nodetypes="cc" />
        <path
           style="fill:none;fill-rule:evenodd;stroke:#000000;stroke-width:1;stroke-linecap:round;stroke-linejoin:miter;stroke-miterlimit:4;stroke-dasharray:none;stroke-opacity:1"
           d="m 181.60204,196.53562 c -1.46734,-4.25871 0.27946,-6.62537 3.7688,-10.20638"
           id="path828-3"
           inkscape:connector-curvature="0"
           sodipodi:nodetypes="cc" />
        <path
           style="fill:none;fill-rule:evenodd;stroke:#000000;stroke-width:1;stroke-linecap:round;stroke-linejoin:miter;stroke-miterlimit:4;stroke-dasharray:none;stroke-opacity:1"
           d="m 169.64291,183.90664 c -9.89351,8.04151 2.16017,18.37521 8.31507,12.18597"
           id="path828-6"
           inkscape:connector-curvature="0"
           sodipodi:nodetypes="cc" />
        <path
           style="fill:none;fill-rule:evenodd;stroke:#000000;stroke-width:1;stroke-linecap:round;stroke-linejoin:miter;stroke-miterlimit:4;stroke-dasharray:none;stroke-opacity:1"
           d="m 184.1269,193.08696 c 0.2949,7.62656 12.52629,6.63813 11.573,-3.52276"
           id="path828-6-7"
           inkscape:connector-curvature="0"
           sodipodi:nodetypes="cc" />
        <path
           style="fill:none;fill-rule:evenodd;stroke:#000000;stroke-width:1;stroke-linecap:round;stroke-linejoin:miter;stroke-miterlimit:4;stroke-dasharray:none;stroke-opacity:1"
           d="m 170.89749,165.21988 c -11.49286,4.48481 -7.79132,13.15873 -1.57718,13.84575"
           id="path828-6-5"
           inkscape:connector-curvature="0"
           sodipodi:nodetypes="cc" />
        <path
           style="fill:none;fill-rule:evenodd;stroke:#000000;stroke-width:1;stroke-linecap:round;stroke-linejoin:miter;stroke-miterlimit:4;stroke-dasharray:none;stroke-opacity:1"
           d="m 185.01685,161.42497 c 0.19125,3.09179 1.51995,4.47448 2.71393,5.65055"
           id="path828-6-3"
           inkscape:connector-curvature="0"
           sodipodi:nodetypes="cc" />
        <path
           style="fill:none;fill-rule:evenodd;stroke:#000000;stroke-width:1;stroke-linecap:round;stroke-linejoin:miter;stroke-miterlimit:4;stroke-dasharray:none;stroke-opacity:1"
           d="m 203.37897,171.4599 c -9.63726,0.51179 -15.11282,2.26058 -16.91904,9.52225"
           id="path828-6-5-5"
           inkscape:connector-curvature="0"
           sodipodi:nodetypes="cc" />
      </g>
    </g>
  </g>
</svg>
